<svg id="Layer_1" xmlns="http://www.w3.org/2000/svg" viewBox="0 0 1000 503.8"><style>.st0{fill:#9198CC;} .st1{fill:#2B2B2B;} .st2{fill:#221F1F;} .st3{fill:#FFFFFF;} .st4{fill:#D6D9ED;} .st5{fill:#1A1A1A;} .st6{fill:#262626;} .st7{fill:#CECECD;} .st8{fill:#231F20;} .st9{fill:#4D4E4E;} .st10{fill:#E6E6E5;} .st11{fill:none;} .st12{fill:#666667;} .st13{fill:#F2F2F2;} .st14{fill:#BF4041;} .st15{fill:#EE8322;} .st16{fill:#333333;} .st17{fill:#6B6B6B;} .st18{fill:#3B5CA9;}</style><path class="st0" d="M543.2 195.3c43.5-4.2 82.5 30.9 87.2 78.5.4 3.8.5 7.6.4 11.3 12.2 4.9 22.1 11.5 28.4 19.1 7.3-3.1 14-5.1 19.6-5.9l-.2-.3-2.3-3.8-.9-1.6c-3.5-6-.5-14.4 6.8-18.7l9.1-5.4c.7-.4 1.6-.3 2 .3l9 15.2c2.3 3.9 1.5 9-1.7 12.9l.1.2c5-.8 9.8.9 12.1 4.8l9 15.2c.4.6.1 1.5-.7 1.9l-9.1 5.4c-7.3 4.3-16.1 2.9-19.6-3.1l-1.7-2.8c-4.7 7.4-13.5 16.5-23.9 24.5-2.8 2.1-5.1 3.6-8.1 5.6-9.3 6.2-18.6 10.9-27 14.1-14.7 6-33 9.6-52.8 9.6-19 0-36.6-3.3-51-8.9-6-2.2-11.6-5.1-16.9-8.6-1-.7-1.9-1.3-2.9-2-.2-.2-.5-.4-.7-.6-.5-.4-1.1-.8-1.6-1.3-17.8-14.2-30.4-36.2-32.9-61.9-4.7-47.5 26.8-89.5 70.3-93.7z"/><path class="st1" d="M578.9 372.6c-18.4 0-36.1-3.1-51.1-9-5.9-2.2-11.6-5.1-16.9-8.6-.9-.6-1.9-1.3-2.9-2-.1-.1-.3-.2-.4-.3-.1-.1-.2-.2-.3-.2l-.2-.1c-.5-.4-1-.7-1.4-1.1-18.5-14.7-30.5-37.3-32.9-62-2.2-23 3.8-45.5 17.1-63.3 13.3-17.8 32.2-28.7 53.3-30.7 21.1-2.1 41.8 5 58.2 19.8 16.5 14.8 26.8 35.7 29 58.8.4 3.6.5 7.4.4 11.3 12.3 4.9 22.1 11.5 28.3 19.1 7.1-3.1 13.8-5.1 19.3-5.9l-.1-.1-3.2-5.4c-3.6-6.1-.5-14.5 6.8-18.9l9.1-5.4c.8-.5 1.8-.3 2.2.4l9 15.2c2.2 3.8 1.6 8.9-1.6 13v.1c5.1-.8 9.9 1.1 12.2 4.9l9 15.2c.4.7.1 1.6-.7 2.1l-9.1 5.4c-7.3 4.3-16.2 2.9-19.8-3.2l-1.6-2.6c-4.8 7.5-13.7 16.6-23.8 24.4-2.3 1.8-4.4 3.2-6.8 4.7-.4.3-.9.6-1.4.9-9 6-18.3 10.8-27 14.1-15.3 6-33.5 9.4-52.7 9.4zM550.3 195c-2.4 0-4.8.1-7.2.3-21 2-39.9 12.9-53.1 30.6-13.3 17.7-19.3 40.1-17.1 63.1 2.4 24.6 14.4 47.1 32.8 61.8.5.4 1 .8 1.4 1.1l.2.1c.1.1.2.2.3.2.1.1.3.2.4.3 1 .7 1.9 1.4 2.9 2 5.3 3.6 11 6.5 16.9 8.6 15 5.8 32.6 8.9 51 8.9 19.2 0 37.4-3.3 52.7-9.6 8.7-3.2 18-8.1 27-14.1.5-.3.9-.6 1.4-.9 2.4-1.6 4.4-2.9 6.8-4.7 10.2-7.8 19.1-17 23.9-24.5v-.1h.1l.1.1 1.7 2.8c3.5 6 12.2 7.4 19.5 3.1l9.1-5.4c.7-.4 1-1.2.6-1.7l-9-15.2c-2.2-3.7-6.9-5.6-12-4.8h-.1l-.2-.4.1-.1c3.2-4 3.8-9.1 1.6-12.8l-9-15.2c-.3-.6-1.2-.7-1.8-.3l-9.1 5.4c-7.2 4.3-10.2 12.6-6.7 18.5l3.4 5.8h-.2c-5.6.8-12.4 2.8-19.5 5.9h-.1l-.1-.1c-6.3-7.6-16.1-14.2-28.4-19.1h-.1v-.1c.1-3.9-.1-7.7-.4-11.3-2.2-23-12.5-43.8-29-58.6-14.4-12.6-32.3-19.6-50.8-19.6z"/><ellipse class="st2" cx="567.2" cy="239.3" rx="5" ry="4.3"/><circle class="st3" cx="566.3" cy="238.7" r=".9"/><ellipse class="st2" cx="512.2" cy="239.3" rx="5" ry="4.3"/><circle class="st3" cx="513.3" cy="238.7" r=".9"/><path class="st4" d="M538.9 263.5c56.5 0 67.9 50.7 67.9 50.7 37.9 8.6 59.8 29.1 59.9 29.1-2.5 1.9-5.2 3.8-7.9 5.6-9.3 6.2-18.6 10.9-27 14.1-14.7 6-33 9.6-52.8 9.6-19 0-36.6-3.3-51-8.9-6-2.2-11.6-5.1-16.9-8.6-1-.7-1.9-1.3-2.9-2-.2-.2-.5-.4-.7-.6-.5-.4-1.1-.8-1.6-1.3-16.1-12.8-27.9-32.1-31.8-54.6.3-2 9.6-33.1 64.8-33.1z"/><path class="st1" d="M579 372.7c-18.4 0-36.1-3.1-51.1-9-5.9-2.2-11.6-5.1-16.9-8.6-.9-.6-1.9-1.3-2.9-2-.1-.1-.3-.2-.4-.3-.1-.1-.2-.2-.3-.2l-.1-.1-1.5-1.2c-16.7-13.3-28-32.7-31.9-54.7 0-.1 2.1-8.8 12-17.3 5.4-4.6 12-8.3 19.7-10.9 9.5-3.3 20.8-4.9 33.4-4.9 12.9 0 24.5 2.7 34.5 7.9 8 4.2 15 10.1 20.7 17.5 9.4 12 12.5 24.2 12.8 25.3 37.5 8.6 59.7 29 59.9 29.2l.1.1-.1.1c-2.5 1.9-5.2 3.8-7.9 5.6-9 6-18.3 10.8-27 14.1-15.5 6.1-33.8 9.4-53 9.4zm-104.9-76.1c3.9 21.9 15.1 41.3 31.8 54.5l1.5 1.2.1.1c.1.1.2.2.3.2.1.1.3.2.4.3 1 .7 1.9 1.4 2.9 2 5.3 3.6 11 6.5 16.9 8.6 15 5.8 32.6 8.9 51 8.9 19.2 0 37.4-3.3 52.7-9.6 8.7-3.2 18-8.1 27-14.1 2.7-1.8 5.3-3.6 7.8-5.5-1.6-1.4-23.4-20.8-59.7-29h-.1v-.1c0-.1-3-12.8-12.8-25.3-9-11.5-25.9-25.3-55.1-25.3-23 0-40.8 5.3-52.9 15.8-9.5 8.4-11.7 16.8-11.8 17.3z"/><path class="st5" d="M539.5 256.5c-2.1 0-4.1-.6-5.9-1.9l-.2-.1c-.2-.1-.2-.4-.1-.5.1-.2.4-.2.5-.1l.2.1c3.3 2.3 7.8 2.3 11.1-.1.2-.1.4-.1.5.1.1.2.1.4-.1.5-1.7 1.3-3.9 2-6 2z"/><path class="st6" d="M678.8 280.2h187.6L854.9 403H678.8zM351.1 298.5H143v94l147.3 20z"/><path class="st7" d="M934.8 313.7h35.9l-5.5-8.8-5.7-52.2-25-9.2c-93.1-28.5-269-50.9-269-50.9-154.3-2.3-178.2 10.2-178.2 10.2l-148.7 65.8-17 2.3V263L76.5 292.4v40.8l4.5 36.3v4.3l64.7 19.5 2.9.4c-.6-3.8-.9-7.7-.9-11.6 0-41.2 33.4-74.6 74.6-74.6s74.6 33.4 74.6 74.6h389.5c-.1-1.3-.1-2.5-.1-3.8 0-46.9 38-85 85-85 46.9 0 85 38 85 85 0 8.6-1.3 16.9-3.6 24.7l22.9-4 2.3-9.1c37.5-10.2 72.6-27.2 72.6-27.2l6.8-15.9 2.8-.6-25.2 5v-37.5zm-292-64.9c0 10.9-8.9 19.8-19.8 19.8H414.8c-10.3 0-12.6-14.4-2.9-17.6.3-.1.7-.2 1-.3.4-.1.7-.3 1.1-.4l88.1-42.2c1-.5 2-.8 3.1-.9l22.7-.5c.9-.1 7.1-.1 8.5-.1l101.8-1.6c2.5 0 4.5 2 4.5 4.5v39.3zm261.3 6.2c0 4-3.3 7.3-7.3 7.3H724c-4.8 0-8.9-3.6-9.6-8.3l-5.6-41.4c-.5-3.8 2.8-7 6.6-6.3l182.8 34.2c3.4.6 5.9 3.6 5.9 7.2v7.3z"/><path class="st8" d="M851.9 403.6l.2-.8c2.4-7.9 3.6-16.2 3.6-24.5 0-46.6-37.9-84.5-84.5-84.5s-84.5 37.9-84.5 84.5c0 1.1 0 2.4.1 3.8v.5H296.3v-.5c0-40.9-33.2-74.1-74.1-74.1-40.8 0-74.1 33.2-74.1 74.1 0 3.9.3 7.8.9 11.6l.1.7-3.5-.5-65.1-19.7v-4.7L76 333.3V292l.4-.1 245.7-29.7v7.9l16.4-2.2 148.6-65.8c.9-.5 25.7-12.5 178.4-10.3 1.8.2 177.1 22.8 269.1 51l25.3 9.3 5.7 52.4 5.9 9.5h-36.3v36.4l24.6-4.8.2 1-2.6.5-6.8 15.8-.2.1c-.4.2-35.5 17.1-72.4 27.2l-2.3 9.1-23.8 4.3zm-80.7-110.7c47.1 0 85.5 38.3 85.5 85.5 0 8.2-1.2 16.3-3.4 24l21.8-3.8 2.3-9 .3-.1c35.7-9.7 69.7-25.8 72.4-27.1l6.4-14.9-22.1 4.3v-38.7h35.5l-5.1-8.3L959 253l-24.7-9.1c-91.9-28.2-267.1-50.7-268.9-50.9-152.1-2.2-177.6 10-177.9 10.2L338.8 269h-.1l-17.6 2.3v-8L77 292.9v40.3l4.5 36.3v4l64.3 19.4 2.1.3c-.5-3.6-.8-7.4-.8-11.1 0-41.4 33.7-75.1 75.1-75.1 41.2 0 74.8 33.4 75.1 74.6h388.5c0-1.2-.1-2.3-.1-3.3.1-47.1 38.4-85.4 85.5-85.4zM623.1 269H414.9c-5.6 0-8.8-4-9.4-8-.6-4 1.1-8.8 6.4-10.6l1-.3c.4-.1.7-.3 1-.4l88.1-42.2c1-.5 2.1-.8 3.3-.9l22.8-.5c.9-.1 7.3-.1 8.5-.1l101.8-1.6c2.8 0 5 2.3 5 5v39.3c-.1 11.2-9.2 20.3-20.3 20.3zm15.2-63.6L536.5 207c-1.4 0-7.6.1-8.4.1l-22.8.5c-1 .1-2 .4-2.9.8l-88.1 42.2c-.4.2-.8.3-1.2.5l-1 .3c-4.8 1.6-6.3 5.9-5.7 9.5.6 3.6 3.4 7.2 8.4 7.2H623c10.6 0 19.3-8.6 19.3-19.3v-39.3c0-2.3-1.8-4.1-4-4.1zm258.6 57.4H724c-5.1 0-9.4-3.8-10-8.8l-5.6-41.4c-.3-2 .4-3.9 1.8-5.2 1.4-1.4 3.4-1.9 5.3-1.6L898.3 240c3.7.7 6.3 3.9 6.3 7.6v7.4c0 4.3-3.5 7.8-7.7 7.8zm-182.5-56.1c-1.3 0-2.5.5-3.5 1.4-1.2 1.1-1.8 2.7-1.5 4.4l5.6 41.4c.6 4.5 4.5 7.9 9.1 7.9H897c3.7 0 6.8-3 6.8-6.8v-7.4c0-3.3-2.3-6.1-5.5-6.7l-182.8-34.2h-1.1z"/><circle class="st9" cx="222.9" cy="382.7" r="68.7"/><path class="st9" d="M222.9 451.9c-38.1 0-69.2-31-69.2-69.2s31-69.2 69.2-69.2 69.2 31 69.2 69.2-31 69.2-69.2 69.2zm0-137.3c-37.6 0-68.2 30.6-68.2 68.2s30.6 68.2 68.2 68.2 68.2-30.6 68.2-68.2-30.6-68.2-68.2-68.2z"/><circle class="st10" cx="222.8" cy="383.6" r="45.5"/><path class="st8" d="M279.208 325.07l416.916-8.144.06 3-416.918 8.142zM76.5 333.2l-40-1.7-4.3 7.4 4.6 21.5L81 373.8v-4.3z"/><path class="st8" d="M81.5 374.5l-45.2-13.7-4.6-22 4.5-7.8h.3l40.4 1.8 4.6 36.7v5zm-44.3-14.4l43.3 13.1v-3.6L76 333.8 36.8 332l-4 7 4.4 21.1z"/><path class="st8" d="M76.47 331.693l81.727-3.408.125 2.997-81.727 3.408zM596.5 330.9h-21.9c-2.6 0-4.7-2.1-4.7-4.7v-2.4c0-2.6 2.1-4.7 4.7-4.7h21.9c2.6 0 4.7 2.1 4.7 4.7v2.4c0 2.6-2.1 4.7-4.7 4.7zm-22-8.8c-.9 0-1.7.8-1.7 1.7v2.4c0 .9.8 1.7 1.7 1.7h21.9c.9 0 1.7-.8 1.7-1.7v-2.4c0-.9-.8-1.7-1.7-1.7h-21.9zM683.2 261.8l-5.3.1c-.3 0-.6-.2-.6-.6l-1.1-55.8c0-.3.2-.6.6-.6l5.3-.1c.3 0 .6.2.6.6l1.1 55.8c-.1.4-.3.6-.6.6zM693.5 261.8l-5.3.1c-.3 0-.6-.2-.6-.6l-1.1-55.8c0-.3.2-.6.6-.6l5.3-.1c.3 0 .6.2.6.6l1.1 55.8c0 .4-.3.6-.6.6z"/><path class="st11" d="M898.2 240.5l-182.8-34.2c-3.8-.7-7.1 2.5-6.6 6.3l5.6 41.4c.6 4.8 4.7 8.3 9.6 8.3h172.9c4 0 7.3-3.3 7.3-7.3v-7.4c-.1-3.5-2.6-6.5-6-7.1z"/><path class="st12" d="M58.3 294.6l-21.5 36.3-.3.6 40 1.7v-40.8z"/><path d="M77 333.7l-41.4-1.8.7-1.2L58 294.2l19-2.3v41.8zM37.3 331l38.7 1.7V293l-17.4 2.1L37.3 331z"/><path class="st8" d="M970.8 313.9l-.2-.2h-35.8v37.5l25.2-4.9 8.5-1.7z"/><path class="st8" d="M934.3 351.8v-38.7H971l.4.6v.2l-2.3 31-8.9 1.8-25.9 5.1zm1-37.6v36.4l32.8-6.5 2.2-30h-35z"/><path class="st13" d="M724.7 262.4h172.9c4 0 7.3-3.3 7.3-7.3v-7.4c0-3.5-2.5-6.5-5.9-7.2l-182.8-34.2c-3.8-.7-7.1 2.5-6.6 6.3l5.6 41.4c.6 4.8 4.6 8.4 9.5 8.4z"/><path class="st8" d="M897.5 263.9H724.7c-5.5 0-10.3-4.1-11-9.6l-5.6-41.4c-.3-2.3.5-4.5 2.1-6.1 1.7-1.6 3.9-2.3 6.2-1.8l182.8 34.2c4.2.8 7.2 4.4 7.2 8.6v7.4c-.1 4.8-4 8.7-8.9 8.7zM715 207.8c-1 0-2 .4-2.8 1.1-1 .9-1.4 2.2-1.2 3.5l5.6 41.4c.5 4 4 7 8.1 7h172.9c3.2 0 5.8-2.6 5.8-5.8v-7.4c0-2.8-2-5.2-4.7-5.7l-182.8-34.2c-.3.1-.6.1-.9.1zM345.348 272.024l.942-.336 18.967 53.117-.94.337zM364.348 325.257l.93-.372 22.63 56.54-.93.37zM577 380.4l-.7-.7 53.8-60.3 22.6-33.4c7.9-12.5 12-24.5 12.4-25.6v-68h1V260.6c0 .1-4.2 12.7-12.5 25.9L630.8 320 577 380.4zM845.2 312.7h89.6v3h-89.6z"/><path class="st14" d="M877 310.5h46.2v7.6H877z"/><path class="st15" d="M87 328h46.2v7.6H87z"/><path d="M224.1 344.2l-1.5 19.6-1.5-19.6zM217.3 344.7l2 19.5-4.9-19zM210.7 346.3l5.3 18.9-8.1-17.9zM204.5 349l8.5 17.7-11.1-16.2zM198.9 352.8l11.4 15.9-13.7-14zM194 357.4l14 13.8-16-11.5zM190 362.9l16.2 11.1-17.7-8.5zM186.9 369l18 8.1-19-5.3zM185 375.5l19.1 4.9-19.6-1.9zM184.3 382.2l19.6 1.5-19.6 1.5zM184.7 389l19.6-1.9-19.1 4.9zM186.3 395.6l19-5.3-17.9 8.1zM189.1 401.8l17.7-8.5-16.2 11.1zM192.8 407.5l16-11.5-14 13.8zM197.5 412.4l13.8-14.1-11.5 16zM203 416.4l11.1-16.2-8.5 17.7zM209.1 419.4l8.1-17.9-5.3 18.9zM215.6 421.3l4.9-19-2 19.5zM222.3 422.1l1.5-19.6 1.5 19.6zM229.1 421.6l-1.9-19.5 4.8 19zM235.7 420l-5.3-18.9 8.1 17.9zM241.9 417.3l-8.5-17.7 11.1 16.2zM247.5 413.5l-11.4-16 13.7 14.1zM252.5 408.9l-14.1-13.8 16 11.5zM256.5 403.4l-16.3-11.1 17.8 8.5zM259.5 397.3l-17.9-8.1 18.9 5.3zM261.4 390.8l-19.1-4.9 19.6 1.9zM262.1 384l-19.6-1.5 19.6-1.5zM261.7 377.3l-19.6 1.9 19.1-4.9zM260.1 370.7l-18.9 5.3 17.9-8.1zM257.4 364.5l-17.8 8.5 16.3-11.1zM253.6 358.8l-16 11.5 14.1-13.8zM248.9 353.9L235.2 368l11.4-16zM243.5 349.9l-11.2 16.2 8.6-17.7zM237.4 346.9l-8.1 17.9 5.3-18.9zM230.9 345l-4.9 19 1.9-19.6z"/><g><path d="M223.2 401.9c-10.4 0-18.8-8.5-18.8-18.8s8.5-18.8 18.8-18.8c10.4 0 18.8 8.5 18.8 18.8s-8.4 18.8-18.8 18.8zm0-36.7c-9.8 0-17.8 8-17.8 17.8s8 17.8 17.8 17.8 17.8-8 17.8-17.8c.1-9.8-7.9-17.8-17.8-17.8z"/></g><g><circle class="st16" cx="222.2" cy="382.3" r="6.5"/></g><g><circle class="st16" cx="230.7" cy="375" r="2.7"/></g><g><circle class="st16" cx="215.1" cy="374.5" r="2.7"/></g><g><circle class="st16" cx="214.4" cy="390.8" r="2.7"/></g><g><circle class="st16" cx="231" cy="391" r="2.7"/></g><g><circle class="st9" cx="772.7" cy="375.8" r="71.9"/><path class="st9" d="M772.7 448.2c-39.9 0-72.4-32.5-72.4-72.4 0-39.9 32.5-72.4 72.4-72.4 39.9 0 72.4 32.5 72.4 72.4 0 39.9-32.5 72.4-72.4 72.4zm0-143.8c-39.4 0-71.4 32-71.4 71.4s32 71.4 71.4 71.4 71.4-32 71.4-71.4-32-71.4-71.4-71.4z"/></g><g><circle class="st10" cx="772.6" cy="376.7" r="47.6"/></g><g><path d="M773.9 335.5l-1.5 20.5-1.5-20.5zM766.8 335.9l2.1 20.5-5.1-19.9zM759.9 337.6l5.6 19.8-8.4-18.7zM753.4 340.5l9 18.5-11.6-17zM747.5 344.4l12 16.7-14.3-14.7zM742.3 349.4l14.8 14.3-16.7-12zM738.2 355.1l17 11.6-18.5-9zM735 361.5l18.8 8.4-19.8-5.6zM733 368.3l20 5-20.5-2.1zM732.3 375.4l20.5 1.5-20.5 1.5zM732.7 382.4l20.5-2-20 5zM734.4 389.3l19.8-5.6-18.8 8.5zM737.3 395.8l18.5-8.9-17 11.5zM741.2 401.7l16.7-12-14.7 14.3zM746.1 406.9l14.4-14.8-12.1 16.7zM751.9 411.1l11.5-17.1-8.9 18.6zM758.3 414.2l8.4-18.8-5.6 19.8zM765.1 416.2l5-20-2.1 20.5zM772.1 417l1.5-20.6 1.5 20.6zM779.2 416.5l-2.1-20.5 5.1 20zM786.1 414.8l-5.6-19.8 8.4 18.8zM792.6 411.9l-8.9-18.5 11.5 17zM798.5 408l-12-16.7 14.3 14.8zM803.7 403.1l-14.8-14.4 16.7 12.1zM807.9 397.3l-17.1-11.5 18.6 8.9zM811 391l-18.8-8.5 19.8 5.7zM813 384.2l-20-5.1 20.5 2.1zM813.8 377.1l-20.6-1.5 20.6-1.5zM813.3 370l-20.5 2.1 20-5.1zM811.6 363.1l-19.8 5.6 18.8-8.4zM808.7 356.6l-18.5 9 17-11.6zM804.8 350.7l-16.7 12 14.8-14.3zM799.9 345.6l-14.4 14.7 12.1-16.7zM794.1 341.4l-11.5 17 8.9-18.5zM787.8 338.2l-8.5 18.8 5.6-19.8zM780.9 336.2l-5 20 2.1-20.5z"/></g><g><path d="M773 395.8c-10.9 0-19.7-8.8-19.7-19.7s8.8-19.7 19.7-19.7 19.7 8.8 19.7 19.7-8.8 19.7-19.7 19.7zm0-38.4c-10.3 0-18.7 8.4-18.7 18.7s8.4 18.7 18.7 18.7 18.7-8.4 18.7-18.7-8.4-18.7-18.7-18.7z"/></g><g><circle class="st16" cx="771.9" cy="375.3" r="6.8"/></g><g><circle class="st16" cx="780.9" cy="367.7" r="2.8"/></g><g><circle class="st16" cx="764.6" cy="367.1" r="2.8"/></g><g><circle class="st16" cx="763.8" cy="384.2" r="2.8"/></g><g><circle class="st16" cx="781.2" cy="384.4" r="2.8"/></g><g><path class="st8" d="M686.3 382.1H296.8c0 9.1-1.7 17.9-4.7 26-.6 1.5-1.1 2.9-1.8 4.4l1.8.2 25 3.3h350.7l4.5-10.2 11.3-2.3 5.7-2.2c-1.6-6.1-2.7-12.5-3-19.2z"/><path class="st8" d="M668.1 416.6h-351l-27.5-3.6.3-.6c.6-1.4 1.2-2.8 1.8-4.4 3.1-8.3 4.6-16.9 4.6-25.8v-.5h390.5v.5c.3 6.5 1.3 12.9 3 19.1l.1.4-6.2 2.4-11.2 2.2-4.4 10.3zm-377-4.5l26.1 3.5h350.3l4.5-10.2 11.6-2.3 5.2-2c-1.6-6-2.6-12.2-2.9-18.4H297.3c-.1 8.8-1.6 17.5-4.7 25.7-.5 1.2-1 2.5-1.5 3.7z"/></g><g><path class="st8" d="M623.8 269.9H382.6c-2.3 0-4.1-1.8-4.1-4.1 0-1.7 1-3.2 2.5-3.8l121.2-55.5c1.1-.5 2.3-.9 3.6-1h.1l133-2.2c3.3 0 6 2.7 6 6v39.3c.2 11.8-9.4 21.3-21.1 21.3zm-117.7-61.4c-.9.1-1.7.3-2.5.7l-121.3 55.6c-.5.2-.7.6-.7 1 0 .6.5 1.1 1.1 1.1h241.2c10.1 0 18.3-8.2 18.3-18.3v-39.3c0-1.7-1.4-3-3-3l-133.1 2.2z"/></g><g><path d="M380.2 263.4l54.4-22.4-.8 24.9c0 1.4-1.2 2.5-2.6 2.5h-50c-1.4 0-2.6-1.2-2.6-2.6 0-1.1.6-2 1.6-2.4z"/><path class="st8" d="M431.2 269.9h-50c-2.3 0-4.1-1.8-4.1-4.1 0-1.7 1-3.2 2.5-3.8l56.5-23.2-.8 27.2c0 2.2-1.8 3.9-4.1 3.9zm-50.4-5.1c-.4.2-.7.6-.7 1 0 .6.5 1.1 1.1 1.1h50c.6 0 1.1-.5 1.1-1.1l.7-22.5-52.2 21.5z"/></g><g><path class="st4" d="M518.5 93.5l16.6 118 .9 6.3c3.5 2.8 8.5 2.3 12 .3l.6-.3-30.1-124.3z"/><path class="st1" d="M541.9 220c-2.1 0-4.2-.6-6-2l-.9-6.4-16.6-118h.2L548.7 218l-.7.4c-1.7.9-3.9 1.6-6.1 1.6zm-5.8-2.2c3.6 2.8 8.5 2.2 11.8.3l.5-.3L519 96.1l17.1 121.7z"/><path class="st17" d="M548.6 218c-.1 0-11.1-1-13.7-7 0-.1 0-.1.1-.2.1 0 .1 0 .2.1 2.5 5.9 13.4 6.8 13.5 6.8.1 0 .1.1.1.1-.1.2-.2.2-.2.2zM545.5 207.7c-3-.5-10.1-2.1-12.1-6.8 0-.1 0-.1.1-.2.1 0 .1 0 .2.1 2 4.6 8.9 6.2 11.9 6.6.1 0 .1.1.1.1-.1.2-.1.2-.2.2zM543.7 197.8c-3.5-.6-9.7-2.3-11.5-6.7 0-.1 0-.1.1-.2.1 0 .1 0 .2.1 1.8 4.3 7.9 5.9 11.3 6.5.1 0 .1.1.1.1l-.2.2zM540.7 187.1c-3.7-.9-8.5-2.7-10.1-6.4 0-.1 0-.1.1-.2.1 0 .1 0 .2.1 1.6 3.6 6.2 5.4 9.9 6.3.1 0 .1.1.1.1-.1 0-.2.1-.2.1zM538.3 176.6s-.1 0 0 0c-3.3-.9-7.4-2.7-8.9-6.1 0-.1 0-.1.1-.2.1 0 .1 0 .2.1 1.4 3.3 5.5 5.1 8.7 5.9.1 0 .1.1.1.2-.1.1-.2.1-.2.1zM536.2 166.6s-.1 0 0 0c-4.4-1.3-7.3-3.3-8.4-6 0-.1 0-.1.1-.2.1 0 .1 0 .2.1 1.1 2.6 3.9 4.6 8.2 5.8.1 0 .1.1.1.2-.1.1-.2.1-.2.1zM533.7 156.1c-.1 0-.1 0 0 0-3.7-1.3-6.1-3.2-7.2-5.6 0-.1 0-.1.1-.2.1 0 .1 0 .2.1 1 2.3 3.3 4.1 7 5.4.1 0 .1.1.1.2-.1.1-.2.1-.2.1zM531.1 145.6c-3.1-1.3-5.2-3-6.1-5.1 0-.1 0-.1.1-.2.1 0 .1 0 .2.1.9 2.1 2.9 3.7 5.9 5 .1 0 .1.1.1.2h-.2zM528.3 134.7c-.1 0-.1 0 0 0-2-1.1-4-3.2-4.8-5 0-.1 0-.1.1-.2.1 0 .1 0 .2.1.8 1.8 2.7 3.9 4.6 4.9.1 0 .1.1 0 .2h-.1z"/><g><path class="st17" d="M525.7 123.9c-1.3-.9-3-2.7-3.7-4.2 0-.1 0-.1.1-.2.1 0 .1 0 .2.1.6 1.4 2.3 3.2 3.5 4 .1 0 .1.1 0 .2 0 0 0 .1-.1.1z"/></g></g><g><path class="st18" d="M605.1 266.3s2 21.4-13.6 24.3c-1.3.2-2.5-.7-2.5-1.9l-1.3-24"/><path class="st0" d="M605.5 266.3s1.9 20-12.7 22.7c-1.2.2-2.3-.6-2.4-1.8l-1.6-23.5"/><path class="st1" d="M592.4 289.2c-.5 0-.9-.2-1.3-.5-.5-.4-.8-.9-.8-1.5l-1.6-23.5h.3l1.6 23.5c0 .5.3 1 .7 1.3.4.3 1 .5 1.5.4 14.3-2.7 12.6-22.4 12.6-22.6h.2s.5 5.1-.9 10.4c-1.2 4.9-4.3 11-11.9 12.5h-.4z"/></g></svg>