<svg xmlns="http://www.w3.org/2000/svg" xmlns:xlink="http://www.w3.org/1999/xlink" viewBox="0 0 1000 1000">
  <path fill="#9198CC" stroke="#2B2B2B" stroke-width=".5" stroke-miterlimit="10" d="M217 663.8s-68.3 6-77.3-44c-.7-4 2.2-7.8 6.3-8l81.1-3.7"/>
  <path fill="#9198CC" stroke="#2B2B2B" stroke-width=".5" stroke-miterlimit="10" d="M422.6 379.9c131.5-12.8 249.5 93.4 263.5 237.3 1.1 11.5 1.5 23 1.2 34.2 37 14.8 66.8 34.7 85.9 57.9 21.9-9.5 42.2-15.6 59.2-17.9l-.5-.9-6.9-11.6-2.8-4.7c-10.7-18.2-1.5-43.6 20.4-56.5l27.6-16.3c2.3-1.3 5-.9 6.1 1l27.1 46c7 11.9 4.5 27.2-5 39.1l.4.7c15-2.5 29.7 2.7 36.7 14.6l27.1 46c1.1 1.9.2 4.5-2.1 5.8L933 770.8c-21.9 12.9-48.6 8.6-59.4-9.5l-5-8.5c-14.2 22.4-40.7 49.9-72.3 74.2-8.4 6.4-15.3 10.9-24.6 17-28.2 18.7-56.3 33.1-81.6 42.5-44.5 18.3-99.7 29.1-159.5 29.1-57.5 0-110.8-10-154.3-27-18-6.5-35.2-15.3-51.2-26.1-3-2-5.9-4-8.7-6.1-.7-.6-1.5-1.1-2.2-1.7-1.7-1.3-3.3-2.5-4.9-3.8-53.9-42.9-91.8-109.6-99.3-187.2-14.1-144 81.1-271 212.6-283.8z"/>
  <ellipse cx="483.3" cy="512.9" fill="#221F1F" rx="15.1" ry="13"/>
  <circle cx="480.7" cy="511.4" r="2.6" fill="#FFF"/>
  <ellipse cx="329.1" cy="512.9" fill="#221F1F" rx="15.1" ry="13"/>
  <circle cx="332.3" cy="511.4" r="2.6" fill="#FFF"/>
  <path fill="#D6D9ED" stroke="#2B2B2B" stroke-width=".25" stroke-miterlimit="10" d="M409.8 586.1c170.9 0 205.4 153.3 205.4 153.3 114.5 26.1 181 88.1 181 88.1-7.6 5.8-15.6 11.5-24 17-28.2 18.7-56.3 33.1-81.6 42.5-44.5 18.3-99.7 29.1-159.5 29.1-57.5 0-110.8-10-154.3-27-18-6.5-35.2-15.3-51.2-26.1-3-2-5.9-4-8.7-6.1-.7-.6-1.5-1.1-2.2-1.7-1.7-1.3-3.3-2.5-4.9-3.8-48.7-38.8-84.3-97-96.3-165.2 1.1-5.9 29.4-100.1 196.3-100.1z"/>
  <path fill="#6D7299" stroke="#2B2B2B" stroke-width=".5" stroke-miterlimit="10" d="M390.5 555.3l.6.4c10.5 7.4 24.5 7.2 34.8-.4 0 0-.6 15.6-16.7 15.6-18.7 0-18.7-15.6-18.7-15.6z"/>
  <g stroke-width=".5" stroke-miterlimit="10">
    <path fill="#D6D9ED" stroke="#2B2B2B" d="M343 83.9l47.8 340.3 2.6 18.3c10.2 8.1 24.6 6.7 34.6 1l1.7-1L343 83.9z"/>
    <path fill="none" stroke="#6B6B6B" d="M429.7 442.5s-31.7-2.6-39.1-20M420.8 412.9c-9.1-1.5-28.8-6.1-34.5-19.4M415.5 384.2c-9.6-1.7-27.6-6.6-32.9-19.1M406.9 353.3c-9.9-2.3-24.1-7.4-28.7-18.2M400 323.1c-9.5-2.6-21.1-7.7-25.2-17.4M393.9 294.2c-9.3-2.7-19.9-7.6-23.9-17M386.7 264c-8.3-2.9-16.9-7.8-20.3-15.8M379.4 233.7c-7.2-3-14.2-7.6-17.2-14.6M371.1 202.3c-5.3-2.9-11.2-8.9-13.5-14.3M353.5 159.2c1.8 4.1 6.5 9.2 10.2 11.8" stroke-linecap="round" stroke-linejoin="round"/>
  </g>
  <path fill="#3B5CA9" d="M586.7 660.7S525 690.5 498.8 647c-2.1-3.5-.7-8.1 3-9.7l70.4-30.4"/>
  <path fill="#9198CC" stroke="#2B2B2B" stroke-width=".5" stroke-miterlimit="10" d="M589.2 658.3s-61.7 29.8-87.9-13.7c-2.1-3.5-.7-8.1 3-9.7l73.5-33.2"/>
  <path fill="#FFF" stroke="#2B2B2B" stroke-width=".25" stroke-miterlimit="10" d="M187.2 589.9l-6.9 4.7-35.1 23.6 19.9 3.4 22.3-18.7 5.5-4.6c.3-.9.4-1.9.2-2.9-.6-3-3-5.2-5.9-5.5z"/>
  <path fill="#00A79D" stroke="#2B2B2B" stroke-width=".25" stroke-miterlimit="10" d="M167.8 615c-.5-3.8-4.1-6.5-7.9-6-1.4.2-3.7 1.6-3.7 1.6L95.8 652l10.6 15.8 58.4-46c2.1-1.5 3.3-4.1 3-6.8z"/>
  <defs>
    <path id="a" d="M167.5 615c-.5-3.7-3.9-6.3-7.7-5.8-1.4.2-3.6 1.6-3.6 1.6L97.6 651l10.3 15.3 56.7-44.7c2.1-1.4 3.3-3.9 2.9-6.6z"/>
  </defs>
  <clipPath id="b">
    <use xlink:href="#a" overflow="visible"/>
  </clipPath>
  <path fill="none" stroke="#FFF" stroke-width="4" stroke-miterlimit="10" d="M115.7 677.6c6.8-17.8-2.1-37.6-19.8-44.4M125.9 668c6.8-17.8-2.1-37.6-19.8-44.4M137.9 662.5c6.8-17.8-2.1-37.6-19.8-44.4M146.8 654.1c6.8-17.8-2.1-37.6-19.8-44.4M156.3 648.3c6.8-17.8-2.1-37.6-19.8-44.4" clip-path="url(#b)"/>
  <ellipse cx="97.4" cy="661.7" fill="#FFF" stroke="#2B2B2B" stroke-miterlimit="10" transform="rotate(-85.954 97.353 661.7)" rx="9.5" ry="9.5"/>
  <path fill="#00A79D" stroke="#2B2B2B" stroke-width=".25" stroke-miterlimit="10" d="M111.6 676.2l-35-2.3c-7.1-.5-12.6-6.7-12.1-13.8.5-7.1 6.7-12.6 13.8-12.1l35 2.3c7.1.5 12.6 6.7 12.1 13.8-.5 7.1-6.7 12.6-13.8 12.1z"/>
  <ellipse cx="113.7" cy="663.3" fill="#60D8B5" stroke="#2B2B2B" stroke-width=".25" stroke-miterlimit="10" transform="rotate(-8.87 113.708 663.188)" rx="12.2" ry="12.2"/>
  <path fill="none" stroke="#2B2B2B" stroke-width=".25" stroke-miterlimit="10" d="M101.6 664.7l23 1.5s1.3-8.2-4.9-11.8c-1.7-1-4.6-2-6.6-1.9-2.3.1-4.9.7-7.1 1.5"/>
  <g>
    <path fill="#55B0EC" d="M411.4 413.3c-17.1 0-34.4-6-51.5-17.8l-.1-.1 53.4-107.9 42.5 112.6-.1.1c-14.7 8.7-29.6 13.1-44.2 13.1z"/>
    <path fill="#2B2B2B" d="M413.2 287.9l42.3 112.2c-14.5 8.6-29.2 13-44.1 13-16.9 0-34-5.7-51.4-17.8l53.2-107.4m.1-.6l-.3.5-53.2 107.5-.1.2.2.1c17.1 11.8 34.4 17.8 51.5 17.8 14.7 0 29.5-4.4 44.3-13.1l.2-.1-.1-.2-42.3-112.2-.2-.5z"/>
    <g>
      <path fill="#D2BBF7" d="M410.6 294.2l-7 5.3 2.7-8.4-8.8-.6 7.4-4.7-6.4-6 8.8 1.2-1-8.8 5.9 6.5 4.9-7.3.3 8.8 8.4-2.5-5.4 7 8.1 3.5-8.6 1.9 3.9 7.8-7.8-4.1-2 8.6"/>
      <path fill="#7F819F" d="M417 271.8l.3 8.6 8.2-2.4-5.3 6.8 7.9 3.4-8.4 1.8 3.8 7.7-7.6-4-2 8.3-3.2-7.9-6.9 5.1 2.6-8.2-8.6-.5 7.3-4.6-6.2-5.9 8.5 1.2-1-8.5 5.8 6.4 4.8-7.3m.2-.8l-.4.6-4.6 6.9-5.5-6.1-.5-.6.1.8.9 8.2-8.2-1.1-.8-.1.6.5 6 5.7-7 4.4-.7.4h.8l8.2.5-2.5 7.9-.2.7.6-.5 6.6-4.9 3.1 7.6.3.7.2-.8 1.9-8 7.3 3.9.7.4-.3-.7-3.7-7.4 8.1-1.7.8-.2-.7-.3-7.6-3.3 5.1-6.5.5-.6-.7.2-7.9 2.3-.3-8.2-.2-.7z"/>
    </g>
  </g>
  <g stroke-width=".5" stroke-miterlimit="10">
    <path fill="#D6D9ED" stroke="#2B2B2B" d="M343 83.9l44.2 314.7 13-5.1c10.2 8.1-4.3 10.6 5.7 4.9l13.7 2.6L343 83.9z"/>
    <path fill="none" stroke="#6B6B6B" d="M429.7 442.5s-31.7-2.6-39.1-20M420.8 412.9c-9.1-1.5-28.8-6.1-34.5-19.4M415.5 384.2c-9.6-1.7-27.6-6.6-32.9-19.1M406.9 353.3c-9.9-2.3-24.1-7.4-28.7-18.2M400 323.1c-9.5-2.6-21.1-7.7-25.2-17.4M393.9 294.2c-9.3-2.7-19.9-7.6-23.9-17M386.7 264c-8.3-2.9-16.9-7.8-20.3-15.8M379.4 233.7c-7.2-3-14.2-7.6-17.2-14.6M371.1 202.3c-5.3-2.9-11.2-8.9-13.5-14.3M353.5 159.2c1.8 4.1 6.5 9.2 10.2 11.8" stroke-linecap="round" stroke-linejoin="round"/>
  </g>
  <g>
    <path fill="#55B0EC" d="M377.2 375.6s7.1 5.1 19.9 2.3 22.2-16.1 22.2-16.1l19 46s-28.6 11.9-53.2-.8-7.9-31.4-7.9-31.4z"/>
  </g>
  <g>
    <path fill="none" d="M246.65222 357.08116l21.24949-10.93903 4.39392 8.53536-21.24949 10.93903z"/>
    <path fill="#BEB2CA" d="M266 356.9c-3.8.6-4.3 1.1-6.3 3.3-4 4.2-9 4.6-9 4.6l2.3-10.1s3.8-.1 7-3.6c3.4-3.8 8.4-4.3 8.4-4.3l-2.4 10.1z"/>
    <path fill="none" d="M270.92181 262.8029l13.174-24.7072 9.97112 5.31665-13.174 24.7072z"/>
    <path fill="#BEB2CA" d="M289.5 249.8c-3.3 3.1-3.4 3.9-3.9 7.4-1 6.7-5.6 10.5-5.6 10.5l-4.6-11.3s3.6-2.7 4.3-8.1c.8-5.9 5.2-9.8 5.2-9.8l4.6 11.3z"/>
    <path fill="none" d="M244.7969 203.1375l7.15616-7.95438 19.84878 17.85696-7.15616 7.95438z"/>
    <path fill="#BEB2CA" d="M259.8 215.2c-2.1-3.8-2.8-4.1-5.9-5.3-6-2.5-8.4-7.6-8.4-7.6l11.5-1.6s1.7 4 6.5 5.9c5.3 2.1 7.8 7 7.8 7l-11.5 1.6z"/>
    <path fill="none" d="M204.33734 220.72318l13.71656-19.93596 7.99086 5.49796-13.71656 19.93596z"/>
    <path fill="#BEB2CA" d="M221.5 211.4c-3.1 2.4-3.3 3-4.1 5.9-1.5 5.7-5.8 8.4-5.8 8.4l-2.8-10.1s3.4-2 4.5-6.5c1.2-5 5.4-7.8 5.4-7.8l2.8 10.1z"/>
    <g>
      <path fill="none" d="M168.53757 412.59296l20.1058-16.484 6.657 8.11965-20.1058 16.484z"/>
      <path fill="#BEB2CA" d="M189 408c-3.9 1.5-4.3 2.1-6 4.9-3.2 5.4-8.5 7-8.5 7l.1-11.3s4.1-1 6.6-5.4c2.8-4.8 7.9-6.5 7.9-6.5L189 408z"/>
    </g>
    <g>
      <path fill="none" d="M247.77568 301.50274l8.6922-6.7419 16.79346 21.65148-8.6922 6.7419z"/>
      <path fill="#BEB2CA" d="M260.7 316.5c-1.5-4.2-2.1-4.6-5-6.5-5.6-3.6-7.1-9.2-7.1-9.2l11.9.4s1 4.3 5.5 7.1c5 3.1 6.6 8.5 6.6 8.5l-11.9-.3z"/>
    </g>
    <g>
      <path fill="none" d="M107.21255 179.26155l19.33285-27.35945 11.02545 7.79085L118.238 187.0524z"/>
      <path fill="#BEB2CA" d="M131.2 166.5c-4.4 3.2-4.7 4.2-5.8 8.2-2.2 7.9-8.2 11.6-8.2 11.6l-3.7-14.1s4.7-2.7 6.4-9c1.8-6.9 7.6-10.8 7.6-10.8l3.7 14.1z"/>
    </g>
  </g>
  <g>
    <path fill="none" d="M647.66247 211.23045l8.39488-6.13912 15.22974 20.82576-8.39488 6.13912z"/>
    <path fill="#DAC9C1" d="M659.4 225.8c-1.3-4-1.9-4.4-4.5-6.2-5.2-3.5-6.5-8.8-6.5-8.8l11.2.7s.8 4.1 5 6.8c4.6 3 6 8.2 6 8.2l-11.2-.7z"/>
  </g>
  <g>
    <path fill="none" d="M841.85589 228.17549l7.57068-5.22652 13.00949 18.84441-7.57068 5.22652z"/>
    <path fill="#DAC9C1" d="M852 241.3c-1-3.6-1.6-4-3.9-5.6-4.5-3.2-5.5-8-5.5-8l9.9.9s.6 3.6 4.3 6.2c4 2.8 5.1 7.4 5.1 7.4l-9.9-.9z"/>
    <path fill="none" d="M783.03452 110.95696l5.32532-5.56094 13.86624 13.27872-5.32532 5.56094z"/>
    <path fill="#DAC9C1" d="M793.5 120c-1.5-2.8-2-3-4.1-4-4.3-1.9-5.9-5.6-5.9-5.6l8.3-.9s1.1 2.9 4.5 4.4c3.8 1.6 5.5 5.2 5.5 5.2l-8.3.9z"/>
    <g>
      <path fill="none" d="M868.18798 154.71783l29.06635-5.0386 2.03252 11.72507-29.06635 5.0386z"/>
      <path fill="#DAC9C1" d="M891.1 161.8c-4.8-.7-5.5-.3-8.7 1.5-6.2 3.5-12.3 2.1-12.3 2.1l6.4-11.1s4.6 1.3 9.6-1.7c5.4-3.2 11.5-2 11.5-2l-6.5 11.2z"/>
    </g>
  </g>
  <g>
    <path fill="none" d="M879.96829 204.78603l8.06949-8.47197 21.14372 20.13924-8.06949 8.47197z"/>
    <path fill="#DAC9C1" d="M896 218.5c-2.2-4.2-3-4.5-6.3-6-6.5-2.9-8.9-8.5-8.9-8.5l12.6-1.4s1.7 4.4 6.9 6.6c5.7 2.4 8.3 7.9 8.3 7.9l-12.6 1.4z"/>
    <path fill="none" d="M609.0346 189.37789l28.416-8.29096 3.33319 11.424-28.416 8.29096z"/>
    <path fill="#DAC9C1" d="M632.5 193.8c-4.8-.2-5.5.3-8.5 2.5-5.8 4.2-12 3.5-12 3.5l5.1-11.8s4.7.7 9.3-2.7c5.1-3.8 11.2-3.3 11.2-3.3l-5.1 11.8z"/>
    <g>
      <path fill="none" d="M701.97158 167.84239l11.48258-23.66211 9.53682 4.62796-11.48258 23.66211z"/>
      <path fill="#DAC9C1" d="M718.9 155c-3 3.1-3.1 3.8-3.4 7.1-.7 6.4-4.9 10-4.9 10l-4.7-10.4s3.3-2.7 3.8-7.8c.5-5.6 4.5-9.3 4.5-9.3l4.7 10.4z"/>
    </g>
  </g>
  <g>
    <path fill="none" d="M756.26907 381.14549l21.64373-12.71064 5.11464 8.70923-21.64373 12.71064z"/>
    <path fill="#BEB2CA" d="M776.6 379.9c-4 .9-4.5 1.4-6.5 3.8-3.9 4.7-9.2 5.4-9.2 5.4l1.8-10.8s4-.4 7.1-4.2c3.4-4.2 8.5-5 8.5-5l-1.7 10.8z"/>
    <path fill="none" d="M655.01328 395.46699l2.17566-7.59427 18.74535 5.3703-2.17566 7.59427z"/>
    <path fill="#BEB2CA" d="M668.7 398.6c-2.6-1.8-3.2-1.8-5.6-1.6-4.7.3-8-2.3-8-2.3l7-4.8s2.4 2.1 6.2 1.8c4.2-.3 7.4 2.1 7.4 2.1l-7 4.8z"/>
    <g>
      <path fill="none" d="M828.73017 441.29295l6.94824-7.73864 19.19778 17.23698-6.94824 7.73864z"/>
      <path fill="#BEB2CA" d="M843.2 453c-2.1-3.6-2.8-3.9-5.7-5.1-5.8-2.4-8.1-7.3-8.1-7.3l11.1-1.6s1.6 3.8 6.3 5.7c5.1 2 7.6 6.8 7.6 6.8l-11.2 1.5z"/>
    </g>
  </g>
  <g>
    <path fill="none" d="M518.8045 355.37218l13.50197-11.75135 4.7268 5.43096-13.50197 11.75135z"/>
    <path fill="#E1D3CC" d="M532.9 351.8c-2.7 1.1-2.9 1.6-4 3.5-2.1 3.8-5.7 5-5.7 5l-.2-7.8s2.8-.8 4.4-3.9c1.8-3.4 5.3-4.6 5.3-4.6l.2 7.8z"/>
  </g>
  <g>
    <path fill="none" d="M457.01126 38.92462l30.3448-13.46592 5.43504 12.2476-30.3448 13.46592z"/>
    <path fill="#BEB2CA" d="M483.9 40.3c-5.4.5-6.1 1.2-9.1 4C469 49.9 462 50 462 50l4-13.9s5.4.1 10-4.4c5.1-5 12-5.3 12-5.3l-4.1 13.9z"/>
  </g>
  <g>
    <path fill="none" d="M466.37033 282.32311l9.71187-29.33337 11.86625 3.92875-9.71187 29.33337z"/>
    <path fill="#D3DAC1" d="M484.1 264.7c-3 4-3 4.9-2.9 8.8.2 7.5-4.1 12.4-4.1 12.4l-7.1-11.4s3.4-3.6 3.2-9.6c-.3-6.6 3.8-11.6 3.8-11.6l7.1 11.4z"/>
    <path fill="none" d="M640.83855 126.844l17.163-5.4252 2.17008 6.8652-17.163 5.4252z"/>
    <path fill="#D3DAC1" d="M655.2 129.2c-2.9 0-3.3.3-5.1 1.6-3.5 2.6-7.3 2.3-7.3 2.3l3-7.2s2.9.4 5.6-1.8c3-2.4 6.7-2.1 6.7-2.1l-2.9 7.2z"/>
    <g>
      <path fill="none" d="M492.8176 194.15904l10.64098-21.2891 8.5872 4.29216-10.64098 21.2891z"/>
      <path fill="#D3DAC1" d="M508.3 182.7c-2.7 2.7-2.8 3.4-3.2 6.3-.7 5.7-4.5 9-4.5 9l-4.1-9.5s3-2.4 3.5-7c.5-5.1 4.2-8.4 4.2-8.4l4.1 9.6z"/>
    </g>
  </g>
  <g>
    <path fill="none" d="M489.03037 66.26821l5.68767-3.90609 9.73692 14.17796-5.68767 3.90609z"/>
    <path fill="#BEB2CA" d="M496.6 76.2c-.8-2.7-1.2-3-2.9-4.2-3.4-2.5-4.1-6-4.1-6l7.4.7s.4 2.7 3.2 4.7c3 2.1 3.8 5.6 3.8 5.6l-7.4-.8z"/>
  </g>
  <g>
    <path fill="none" d="M510.78949 127.67527l9.51159-5.72205 14.17625 23.56475-9.51159 5.72205z"/>
    <path fill="#BEB2CA" d="M522 144.2c-1-4.4-1.6-4.9-4.2-7-5.2-4.2-6-10-6-10l11.8 1.8s.5 4.4 4.7 7.7c4.6 3.7 5.6 9.3 5.6 9.3l-11.9-1.8z"/>
  </g>
  <g>
    <path fill="none" d="M677.69934 15.57455L694.8897-8.6458l9.786 6.9456-17.19036 24.22035z"/>
    <path fill="#DAC9C1" d="M698.9 4.4c-3.9 2.9-4.1 3.7-5.1 7.2-1.9 6.9-7.3 10.3-7.3 10.3l-3.3-12.4s4.2-2.4 5.6-7.9c1.6-6.1 6.8-9.5 6.8-9.5l3.3 12.3z"/>
  </g>
  <g>
    <path fill="none" d="M190.82677 133.34737l4.3032-7.67624 19.01614 10.6602-4.3032 7.67624z"/>
    <path fill="#DAC9C1" d="M205 140.3c-2.4-2.6-3-2.7-5.7-3.2-5.2-.9-8.1-4.5-8.1-4.5l8.8-3.4s2 2.9 6.2 3.5c4.6.7 7.5 4.2 7.5 4.2l-8.7 3.4z"/>
    <path fill="none" d="M131.9699207 113.16346395l.8200258-8.86173 21.9054 2.02703006-.8200258 8.86173z"/>
    <path fill="#DAC9C1" d="M147.9 113.8c-3.3-1.4-3.9-1.3-6.5-.6-5.2 1.3-9.3-.9-9.3-.9l6.8-6.7s3.1 1.8 7.2.7c4.5-1.2 8.6.8 8.6.8l-6.8 6.7z"/>
    <g>
      <path fill="none" d="M237.67576 57.09057l4.727-10.59312 26.30016 11.736-4.727 10.59312z"/>
      <path fill="#DAC9C1" d="M257.1 64.6c-3.5-3.2-4.3-3.2-7.9-3.5-7-.5-11.2-5-11.2-5l11.2-5.5s3 3.5 8.6 3.9c6.1.4 10.4 4.6 10.4 4.6l-11.1 5.5z"/>
    </g>
  </g>
</svg>
