<svg id="Layer_1" xmlns="http://www.w3.org/2000/svg" viewBox="0 0 1000 1000"><style>.st0{fill:#9198CC;stroke:#2B2B2B;stroke-width:0.25;stroke-miterlimit:10;} .st1{fill:#221F1F;} .st2{fill:#FFFFFF;} .st3{fill:#D6D9ED;stroke:#2B2B2B;stroke-width:0.25;stroke-miterlimit:10;} .st4{fill:none;stroke:#1A1A1A;stroke-width:0.75;stroke-linecap:round;stroke-linejoin:round;stroke-miterlimit:10;} .st5{fill:none;stroke:#6B6B6B;stroke-width:0.25;stroke-linecap:round;stroke-linejoin:round;stroke-miterlimit:10;} .st6{fill:#F7E8CE;stroke:#2B2B2B;stroke-width:0.25;stroke-miterlimit:10;} .st7{fill:#3B5CA9;} .st8{fill:#BA9066;stroke:#2B2B2B;stroke-width:0.25;stroke-miterlimit:10;} .st9{fill:#2B2B2B;stroke:#BA9066;stroke-width:0.25;stroke-miterlimit:10;}</style><path class="st0" d="M370.4 370.8c131.5-12.8 249.5 93.4 263.5 237.3 1.1 11.5 1.5 23 1.2 34.2 37 14.8 66.8 34.7 85.9 57.9 21.9-9.5 42.2-15.6 59.2-17.9l-.5-.9-6.9-11.6-2.8-4.7c-10.7-18.2-1.5-43.6 20.4-56.5l27.6-16.3c2.3-1.3 5-.9 6.1 1l27.1 46c7 11.9 4.5 27.2-5 39.1l.4.7c15-2.5 29.7 2.7 36.7 14.6l27.1 46c1.1 1.9.2 4.5-2.1 5.8l-27.6 16.3c-21.9 12.9-48.6 8.6-59.4-9.5l-5-8.5c-14.2 22.4-40.7 49.9-72.3 74.2-8.4 6.4-15.3 10.9-24.6 17-28.2 18.7-56.3 33.1-81.6 42.5-44.5 18.3-99.7 29.1-159.5 29.1-57.5 0-110.8-10-154.3-27-18-6.5-35.2-15.3-51.2-26.1-3-2-5.9-4-8.7-6.1-.7-.6-1.5-1.1-2.2-1.7-1.7-1.3-3.3-2.5-4.9-3.8-53.9-42.9-91.8-109.6-99.3-187.2-14-144 81.2-271 212.7-283.9z"/><ellipse class="st1" cx="443" cy="503.9" rx="15.1" ry="13"/><circle class="st2" cx="440.4" cy="502.3" r="2.6"/><ellipse class="st1" cx="276.9" cy="503.9" rx="15.1" ry="13"/><circle class="st2" cx="280.1" cy="502.3" r="2.6"/><path class="st3" d="M357.6 577.1c170.9 0 205.4 153.3 205.4 153.3 114.5 26.1 181 88.1 181 88.1-7.6 5.8-15.6 11.5-24 17-28.2 18.7-56.3 33.1-81.6 42.5-44.5 18.3-99.7 29.1-159.5 29.1-57.5 0-110.8-10-154.3-27-18-6.5-35.2-15.3-51.2-26.1-3-2-5.9-4-8.7-6.1-.7-.6-1.5-1.1-2.2-1.7-1.7-1.3-3.3-2.5-4.9-3.8-48.7-38.8-84.3-97-96.3-165.2 1.1-5.9 29.4-100.1 196.3-100.1z"/><path class="st4" d="M377.1 549.1c-10.3 7.6-24.3 7.8-34.8.4l-.6-.4"/><path class="st3" d="M285.5 92.9l47.8 340.3 2.6 18.3c10.2 8.1 24.6 6.7 34.6 1l1.7-1-86.7-358.6z"/><path class="st5" d="M372.2 451.6s-31.7-2.6-39.1-20M363.4 421.9c-9.1-1.5-28.8-6.1-34.5-19.4M358.1 393.2c-9.6-1.7-27.6-6.6-32.9-19.1M349.5 362.3c-9.9-2.3-24.1-7.4-28.7-18.2M342.5 332.1c-9.5-2.6-21.1-7.7-25.2-17.4M336.5 303.2c-9.3-2.7-19.9-7.6-23.9-17M329.2 273c-8.3-2.9-16.9-7.8-20.3-15.8M321.9 242.7c-7.2-3-14.2-7.6-17.2-14.6M313.6 211.3c-5.3-2.9-11.2-8.9-13.5-14.3M296.1 168.2c1.8 4.1 6.5 9.2 10.2 11.8"/><path class="st0" d="M160.3 646.6s-68.5-2.6-71.2-53.2c-.2-4.1 3.2-7.5 7.2-7.2l80.9 6.5"/><path class="st6" d="M425.6 647.9H183.2c-7.1 0-13.7-3.5-17.7-9.4l-10-14.7h301.7l-15.6 17.1c-4.2 4.5-10 7-16 7z"/><ellipse class="st6" cx="308.9" cy="617.9" rx="193" ry="23.5"/><path class="st7" d="M519.2 645.5s-68.3 6.5-77.7-43.3c-.8-4 2.1-7.8 6.2-8.1l76.6-4.1"/><path class="st0" d="M522.4 644.1s-68.3 6.5-77.7-43.3c-.8-4 2.1-7.8 6.2-8.1l80.4-5.6"/><ellipse class="st8" cx="199.6" cy="616.5" rx="37.1" ry="7.9"/><ellipse class="st9" cx="177.8" cy="615.9" rx="5.7" ry="2"/><ellipse class="st9" cx="198" cy="613.2" rx="5.3" ry="2"/><ellipse class="st9" cx="221.5" cy="617.4" rx="6.6" ry="1.7"/><ellipse class="st9" cx="199.6" cy="619.1" rx="6.6" ry="1.7"/><ellipse class="st8" cx="256" cy="614.8" rx="37.1" ry="7.9"/><ellipse class="st9" cx="241.4" cy="613.2" rx="5.7" ry="2"/><ellipse class="st9" cx="254" cy="619.1" rx="5.3" ry="2"/><ellipse class="st9" cx="258.4" cy="613.2" rx="6.6" ry="1.7"/><ellipse class="st8" cx="277.5" cy="621.1" rx="37.1" ry="7.9"/><ellipse class="st9" cx="262.9" cy="619.5" rx="5.7" ry="2"/><ellipse class="st9" cx="275.5" cy="625.3" rx="5.3" ry="2"/><ellipse class="st9" cx="279.9" cy="619.5" rx="6.6" ry="1.7"/><ellipse class="st8" cx="345.2" cy="622.2" rx="37.1" ry="7.9"/><ellipse class="st9" cx="330.6" cy="620.6" rx="5.7" ry="2"/><ellipse class="st9" cx="359.4" cy="625.8" rx="5.3" ry="2"/><ellipse class="st9" cx="347.5" cy="620.6" rx="6.6" ry="1.7"/><ellipse class="st8" cx="388.8" cy="616.5" rx="37.1" ry="7.9"/><ellipse class="st9" cx="374.2" cy="614.8" rx="5.7" ry="2"/><ellipse class="st9" cx="386.9" cy="620.7" rx="5.3" ry="2"/><ellipse class="st9" cx="391.2" cy="614.8" rx="6.6" ry="1.7"/><ellipse class="st9" cx="406.9" cy="617" rx="4.3" ry="1.6"/><ellipse class="st8" cx="310" cy="613.2" rx="37.1" ry="7.9"/><ellipse class="st9" cx="295.4" cy="611.6" rx="5.7" ry="2"/><ellipse class="st9" cx="308" cy="617.5" rx="5.3" ry="2"/><ellipse class="st9" cx="325.6" cy="614.8" rx="5.9" ry="1.6"/><ellipse class="st9" cx="312.4" cy="611.6" rx="6.6" ry="1.7"/><ellipse class="st8" cx="351.2" cy="611.8" rx="37.1" ry="7.9"/><ellipse class="st9" cx="336.6" cy="610.2" rx="5.7" ry="2"/><ellipse class="st9" cx="349.2" cy="616" rx="5.3" ry="2"/><ellipse class="st9" cx="353.6" cy="610.2" rx="6.6" ry="1.7"/><ellipse class="st9" cx="369.3" cy="612.4" rx="4.3" ry="1.6"/><ellipse class="st8" cx="228.8" cy="607" rx="37.1" ry="7.9"/><ellipse class="st9" cx="206.2" cy="605" rx="5.7" ry="2"/><ellipse class="st9" cx="237.8" cy="611.2" rx="5.3" ry="2"/><ellipse class="st9" cx="231.2" cy="605.4" rx="6.6" ry="1.7"/><ellipse class="st9" cx="256" cy="607.4" rx="4.3" ry="1.6"/></svg>