<svg id="Layer_1" xmlns="http://www.w3.org/2000/svg" xmlns:xlink="http://www.w3.org/1999/xlink" viewBox="0 0 1000 1000"><style>.st0{clip-path:url(#SVGID_2_);} .st1{fill:#9198CC;stroke:#2B2B2B;stroke-width:0.25;stroke-miterlimit:10;} .st2{fill:#221F1F;} .st3{fill:#FFFFFF;} .st4{fill:#D6D9ED;stroke:#2B2B2B;stroke-width:0.25;stroke-miterlimit:10;} .st5{fill:none;stroke:#1A1A1A;stroke-width:0.75;stroke-linecap:round;stroke-linejoin:round;stroke-miterlimit:10;} .st6{fill:none;stroke:#6B6B6B;stroke-width:0.25;stroke-linecap:round;stroke-linejoin:round;stroke-miterlimit:10;} .st7{fill:#DD615B;stroke:#2B2B2B;stroke-width:0.25;stroke-miterlimit:10;} .st8{fill:#00035B;} .st9{fill:#D5D5D5;stroke:#55504F;stroke-width:0.5;stroke-miterlimit:10;} .st10{fill:#F16F69;} .st11{fill:#C5665E;stroke:#2B2B2B;stroke-width:0.25;stroke-miterlimit:10;}</style><defs><path id="SVGID_1_" d="M696.2 794.7L115.8 793l4.8-632.6h575.6z"/></defs><clipPath id="SVGID_2_"><use xlink:href="#SVGID_1_" overflow="visible"/></clipPath><g class="st0"><path class="st1" d="M352.6 519.4C236.1 508 131.5 602.2 119.1 729.7c-1 10.2-1.3 20.4-1.1 30.3 3.1 51.2 33.1 78.9 16.1 99.4L89.7 852c-19.4-8.4-85.3-54.5-100.4-56.6l.4-.8 6.1-10.3 2.4-4.2C7.7 764-.5 741.5-19.9 730l-24.5-14.4c-2-1.2-4.4-.8-5.4.9l-24 40.7c-6.2 10.5-4 24.1 4.4 34.7l-.3.6c-13.3-2.2-26.3 2.4-32.5 12.9l-24 40.7c-1 1.7-.1 4 1.9 5.1l24.5 14.4c19.4 11.5 43.1 7.7 52.6-8.4l4.4-7.5c12.6 19.8 36.1 44.2 64.1 65.7 7.4 5.7 13.6 9.6 21.8 15.1 25 16.5 49.9 29.3 72.3 37.7 39.4 16.2 88.4 25.8 141.4 25.8 51 0 98.2-8.9 136.8-24 16-5.8 31.2-13.6 45.3-23.1 2.7-1.8 5.2-3.6 7.7-5.4.7-.5 1.3-1 2-1.5 1.5-1.1 3-2.2 4.4-3.4 47.8-38 81.3-97.1 88-165.9 12.5-127.4-71.9-240-188.4-251.3z"/><ellipse class="st2" cx="288.3" cy="641" rx="13.3" ry="11.6"/><ellipse class="st2" cx="435.4" cy="641" rx="13.3" ry="11.6"/><circle class="st3" cx="290.6" cy="639.6" r="2.3"/><circle class="st3" cx="432.6" cy="639.6" r="2.3"/><path class="st4" d="M363.8 701.6c-151.4 0-182 135.8-182 135.8-101.5 23.1-160.4 78-160.4 78.1 6.8 5.1 13.9 10.2 21.3 15.1 25 16.5 49.9 29.3 72.3 37.7 39.4 16.2 88.4 25.8 141.4 25.8 51 0 98.2-8.9 136.8-24 16-5.8 31.2-13.6 45.3-23.1 2.7-1.8 5.2-3.6 7.7-5.4.7-.5 1.3-1 2-1.5 1.5-1.1 3-2.2 4.4-3.4 43.2-34.4 74.7-86 85.3-146.4-1.2-5.2-26.2-88.7-174.1-88.7z"/><path class="st5" d="M346.6 681c9.1 6.7 21.6 6.9 30.9.4l.5-.4"/><path class="st4" d="M427.8 276.8l-42.4 301.6-2.3 16.2c-9.1 7.2-21.8 5.9-30.7.8l-1.5-.8 76.9-317.8z"/><path class="st6" d="M351 594.6s28.1-2.3 34.7-17.7M358.8 568.3c8.1-1.3 25.5-5.4 30.6-17.2M363.5 542.9c8.5-1.5 24.4-5.8 29.2-16.9M371.1 515.5c8.8-2 21.3-6.5 25.5-16.2M377.3 488.7c8.4-2.3 18.7-6.8 22.4-15.4M382.6 463.2c8.3-2.4 17.7-6.8 21.2-15M389.1 436.4c7.3-2.6 15-6.9 18-14M395.5 409.6c6.4-2.7 12.6-6.7 15.2-12.9M402.9 381.7c4.7-2.6 9.9-7.9 12-12.6M418.4 343.5c-1.6 3.6-5.7 8.1-9 10.4"/><path class="st1" d="M216.2 838.3s75.9-25.5 64.7-69.1c-.9-3.5-4.7-5.5-8-4.1L198.4 792M495.4 829.1s-57-21-45.3-64.5c.9-3.5 4.7-5.4 8.1-4l66.3 27.7"/></g><path class="st7" d="M873.6 793.5H733.5V526.1c0-3.4 2.8-6.2 6.2-6.2h127.6c3.4 0 6.2 2.8 6.2 6.2v267.4z"/><path class="st8" d="M89 793.5h822v46.1H89z"/><path class="st9" d="M515.4 786.5H274.5l-7.1 8.2h248z"/><path class="st7" d="M714 751.9H322.4c-.3 0-.5-.2-.5-.5V520.3c0-.3.2-.5.5-.5H714c.3 0 .5.2.5.5v231.1c0 .3-.2.5-.5.5z"/><path class="st10" d="M711.7 523.6h-25.5s-45 86.8-150.1 104.5c-115.7 19.5-202.2 120-202.2 120h377.8V523.6z"/><path class="st11" d="M535.1 778.3V695h-24.6v83.3l-61.5 7.3v9.1h147.6v-9.1z"/></svg>