<svg id="Layer_1" xmlns="http://www.w3.org/2000/svg" viewBox="0 0 1000 1000"><style>.st0{fill:#9198CC;stroke:#2B2B2B;stroke-width:0.25;stroke-miterlimit:10;} .st1{fill:#D6D9ED;stroke:#2B2B2B;stroke-width:0.25;stroke-miterlimit:10;} .st2{fill:#221F1F;} .st3{fill:#FFFFFF;} .st4{fill:none;stroke:#1A1A1A;stroke-width:0.75;stroke-linecap:round;stroke-linejoin:round;stroke-miterlimit:10;} .st5{fill:none;stroke:#6B6B6B;stroke-width:0.25;stroke-linecap:round;stroke-linejoin:round;stroke-miterlimit:10;} .st6{fill:#3B5CA9;} .st7{fill:#DDCFC3;stroke:#2B2B2B;stroke-width:0.25;stroke-linecap:round;stroke-linejoin:round;stroke-miterlimit:10;} .st8{fill:#444444;stroke:#2B2B2B;stroke-width:0.5;stroke-linecap:round;stroke-linejoin:round;stroke-miterlimit:10;} .st9{fill:none;stroke:#FFFFFF;stroke-miterlimit:10;} .st10{fill:#9198CC;stroke:#2B2B2B;stroke-width:0.25;stroke-linecap:round;stroke-linejoin:round;stroke-miterlimit:10;}</style><path class="st0" d="M588.3 789.7l-28.6-13.3c-22.8-10.6-48.5-3.8-57.3 15l-1.2 2.6c-44.1 7.6-62.2-7.3-67.6-28.9-20.4 1.9-47.2-2.5-74.8-13.4-12.3-4.9-23.5-10.7-33.5-16.9-7.4-4.3-14.2-9.4-20.4-15.2-7.4-6.6-13.3-13.4-17.3-20.1-12.9-18.9-20.4-41.7-20.4-66.2 0-51.5 33.1-95.2 79.1-111.2 19.7-52.4 70.3-89.7 129.6-89.7 38.6 0 73.6 15.8 98.7 41.4 7.6-109-65.3-204-165.3-213.8-101.9-9.9-205.9 73.1-216.8 184.6-.3 2.7-5.6 64.9-5.6 96 0 78.3 28 148.6 57.8 196.7 14.5 29.6 58 67.8 115.6 98.4C397.5 855.4 434 868.5 464 874l-1.3 2.9-2.3 4.9c-8.7 18.8 2.7 42.9 25.5 53.5l28.6 13.3c2.3 1.1 5 .4 5.9-1.5l22.1-47.7c5.7-12.3 1.8-27.1-8.7-37.9l.3-.7c15 1 28.8-5.5 34.5-17.8l22.1-47.7c1.1-2.1 0-4.5-2.4-5.6z"/><path class="st1" d="M476 432.4c-59.3 0-109.9 37.3-129.6 89.7-46.1 15.9-79.1 59.7-79.1 111.2 0 24.6 7.5 47.4 20.4 66.2 5 7.3 10.8 14.1 17.3 20.1 5.9 5.2 12.7 10.4 20.4 15.2 9.9 6.2 21.2 12 33.5 16.9 27.5 11 54.4 15.4 74.8 13.4-1.7-7-2.2-14.6-1.7-22.4.5-.7 1-1.5 1.5-2.3 6.8-10.5 12.9-22.1 18.5-34.7 8.6-19.4 15.8-41 21.1-64.3 54.4-31 94.3-90.3 101.2-161.5.2-2.1.3-4.1.5-6.1-25.2-25.5-60.2-41.4-98.8-41.4z"/><ellipse class="st2" cx="512.8" cy="372.4" rx="10.8" ry="9.4"/><circle class="st3" cx="510.6" cy="371.3" r="1.8"/><path class="st4" d="M452.3 409.2c7.2 6.7 16.9 6.9 24.1.4l.4-.4"/><path class="st1" d="M609.2 51l-124 276.8-6.7 14.9c-10.7 4.4-22.5-.4-29.6-7.7l-1.2-1.2L609.2 51z"/><path class="st5" d="M447.7 333.8s27.5 5.6 38.1-7.3M462.5 310.8c8.1 1 25.9 1.9 34-8M474 287.7c8.6.9 25 1.2 32.6-8.1M488.9 263.7c9 .5 22.2-.3 28.8-8.4M502.2 239.8c8.7.1 19.8-1.4 25.7-8.5M514.4 216.8c8.6 0 18.8-1.6 24.5-8.5M528 193c7.7-.4 16.2-2.5 21.1-8.4M541.6 169.1c6.9-.8 13.9-3 18.2-8.2M556.3 144.5c5.2-1.2 11.7-4.8 14.9-8.8M581.8 112.2c-2.5 3-7.7 6.2-11.5 7.5"/><ellipse class="st2" cx="398.7" cy="371.6" rx="13.3" ry="11.5"/><circle class="st3" cx="400.9" cy="370.3" r="2.3"/><path class="st6" d="M333.7 522.9s50 49.2 89.6 15.6c3.2-2.7 3.4-7.6.2-10.4l-58.2-52.5"/><path class="st0" d="M330.3 520.4s50 49.2 89.6 15.6c3.2-2.7 3.4-7.6.2-10.4l-60.3-56.3"/><path class="st7" d="M528.4 600l-11.7-3.5c-3.6-1.1-5.7-4.9-4.6-8.5L579 366.7l24.8 7.5L537 595.4c-1.2 3.7-5 5.7-8.6 4.6z"/><path class="st8" d="M479.278 149.76l333.715 100.815-55.208 182.75L424.07 332.508z"/><path class="st6" d="M516.1 530.6c13.2 12.4 28.8 15.5 43.5 14.1 9-19.4 15-40.6 17.3-62.9l.3-3.6-60.4 42.3c-3.5 2.5-3.8 7.2-.7 10.1z"/><g><path class="st3" d="M575 237.7c-1.3 2.5-2.9 5.1-4.9 7.8-2 2.7-4.2 5.2-6.7 7.4s-5.2 3.9-8.2 5.2c-3 1.3-6 1.7-9 1.4-2.1-.2-4.1-.6-6-1.2-1.9-.6-3.6-1.6-5.3-3-1.3-1.1-2.6-2.3-3.8-3.4-1.2-1.1-2.1-2.5-2.8-4.2-1.2-2.7-1.9-5.5-2.3-8.4-.4-2.9-.5-5.8-.3-8.7.2-2.9.7-5.8 1.4-8.7.7-2.9 1.7-5.6 2.8-8.3 1.2-2.9 2.7-5.8 4.7-8.7 2-2.9 4.2-5.5 6.8-7.7 2.6-2.2 5.4-3.9 8.6-5.1 3.1-1.2 6.5-1.4 10-.7 1.7.3 3.2.7 4.7 1.2s2.9 1.3 4.2 2.3c1.3 1.1 2.6 2.2 3.7 3.4 1.1 1.2 2.1 2.5 3 4 1.5 2.7 2.5 5.6 3 8.6s.6 6.1.4 9.1c-.2 3.1-.7 6.1-1.4 9.2-.7 2.9-1.6 5.8-2.6 8.5zm-8.4-3.2c.8-2.1 1.5-4.2 2.1-6.3.6-2.1 1-4.3 1.2-6.6.2-1.9.2-3.9.2-5.8 0-2-.3-3.9-.9-5.8-.6-2.1-1.6-3.9-2.9-5.5-1.3-1.5-2.9-2.7-4.6-3.4-1.7-.8-3.6-1.1-5.6-1-2 .1-4 .7-6 1.8-2.9 1.6-5.5 4.1-7.8 7.5-2.4 3.5-4.2 7.3-5.5 11.4-1.3 4.1-2.1 8.3-2.3 12.4-.2 4.1.5 7.6 2 10.5.9 1.7 1.9 3 3.2 3.9 1.3.9 2.7 1.7 4.4 2.5 2.8.4 5.3.2 7.5-.4 2.2-.7 4.3-1.7 6.1-3.1 1.8-1.4 3.4-3.1 4.8-5 1.4-2 2.7-4.1 3.9-6.4l.2-.7z"/></g><path class="st9" d="M527.243 190.585l61.452 17.52-14.78 51.837-61.452-17.522z"/><g><path class="st3" d="M602.9 263.7c-.5-.2-.9-.5-1.2-.9-.3-.3-.5-.7-.6-1.1l-.1-.4v-.6c0-.2 0-.4.1-.6l7.4-24.2c-.4 0-.6 0-.9.1-.2 0-.5 0-.9-.1-.7-.2-1.2-.6-1.5-1.1-.3-.5-.4-1.1-.2-1.6.2-.8.9-1.3 2-1.6 1.1-.3 2.3-.4 3.7-.4 1.4 0 2.8.1 4.2.4 1.4.2 2.6.5 3.5.8 2.6.8 4.8 1.9 6.6 3.4 1.8 1.5 3.2 3.2 4.1 5.1 1 1.9 1.5 3.9 1.6 6.1.1 2.2-.1 4.3-.8 6.4-.7 2.2-1.7 4.1-3.1 6-1.4 1.8-3.2 3.3-5.3 4.3-1.4.7-3 1.2-4.5 1.4-1.6.2-3.2.3-4.8.2-1.6-.1-3.2-.3-4.8-.6-1.4-.4-3-.7-4.5-1zm14.2-27.1c-.6-.2-1.2-.3-1.9-.5-.6-.1-1.3-.2-1.9-.3l-7.3 23.7c1.1.2 2.2.4 3.4.6 1.2.2 2.4.3 3.6.4 1.2.1 2.4 0 3.5-.2s2.1-.5 3-1c1.5-.9 2.8-2.1 3.9-3.5s1.9-2.9 2.4-4.6c.4-1.4.6-2.9.5-4.4-.1-1.5-.5-2.9-1.2-4.2-.7-1.3-1.7-2.5-3-3.6-1.3-.9-3-1.7-5-2.4zM655.4 276.7c-.2.7-.6 1.2-1.1 1.5-.5.3-.9.5-1.4.4-.5-.1-.9-.3-1.3-.7-.4-.4-.7-.9-.8-1.7.3-1.8.5-3.5.6-5.3.1-1.8.1-3.5.1-5.3l-14.3-4.3c-.1 0-.2-.1-.2-.1-.1 0-.2-.1-.2-.1-1.8 2.8-3.6 5.7-5.3 8.7-.5.7-1.1 1-1.7 1.1-.6.1-1.1 0-1.6-.3-.4-.3-.7-.7-.9-1.3-.2-.6 0-1.3.4-2 2.8-4.8 5.8-9.5 9-14s6.8-8.7 10.7-12.7c.4-.6 1.1-.9 1.9-.8.4 0 .8.1 1.2.3.3.2.6.5.8.8 0 0 .1 0 0 0 1.3 2.4 2.3 4.9 2.8 7.5.6 2.6 1 5.3 1.3 8 .1.9.3 1.9.3 2.8.1.9.2 1.9.2 2.8l2.9.8c.6.4 1 .9 1.2 1.4.2.5.2 1 .1 1.5-.2.4-.5.8-1 1.1-.5.3-1.1.4-1.8.4l-1.1-.3c0 1.6 0 3.2-.1 4.8-.2 1.8-.4 3.4-.7 5zm-6.9-30.5c-1.6 1.7-3.2 3.5-4.7 5.4-1.5 1.9-2.9 3.8-4.3 5.7l11.8 3.5c-.1-1.2-.3-2.4-.5-3.6-.2-1.2-.3-2.4-.5-3.6-.3-1.2-.5-2.5-.8-3.7-.2-1.3-.6-2.5-1-3.7zM671.8 281.4c-.3.8-.7 1.4-1.3 1.6-.6.3-1.1.3-1.7.2-.5-.2-.9-.5-1.2-1-.3-.5-.4-1.2-.3-2 .7-2.2 1.3-4.4 2-6.6.6-2.2 1.3-4.4 2-6.6-1.6-2.8-2.9-5.8-4-8.8-1.1-3-1.6-6.2-1.7-9.5v-.3-.3c.2-.8.6-1.3 1.2-1.6.5-.3 1.1-.3 1.6-.2.8.3 1.4.9 1.7 1.9 0 2.8.4 5.4 1.3 8 .8 2.5 1.9 5 3.2 7.4 2.4-1.5 4.7-3 7.1-4.6 2.4-1.5 4.6-3.3 6.5-5.3.4-.4.9-.7 1.3-.8.4-.1.8-.1 1.2 0 .5.2 1 .5 1.3 1 .3.5.4 1.1.2 1.8-.1.3-.3.7-.6 1.1-2.3 2.2-4.8 4.3-7.6 6-2.7 1.8-5.5 3.5-8.1 5.3l-.3.1c-.7 2.2-1.3 4.3-2 6.4-.6 2.5-1.2 4.7-1.8 6.8zM688.2 284.2c-.1-.6 0-1.1.1-1.5.2-.6.5-1 1-1.3.5-.3 1-.3 1.6-.1.6.2 1.1.5 1.5 1.1.4.9.9 1.7 1.6 2.5.7.7 1.4 1.4 2.2 1.9.8.6 1.7 1 2.6 1.4.9.4 1.8.7 2.7 1h2c.2 0 .4-.1.6-.2.2-.1.6-.2 1.3-.4.3-.2.5-.4.7-.6.2-.2.4-.4.7-.6l.9-1.3c.1-.3.2-.5.2-.7s.1-.5.2-.8v-.8c0-.3-.1-.5-.1-.8-.1-.3-.3-.6-.4-.9-.1-.3-.3-.6-.4-.9-.3-.3-.5-.6-.8-.9-.3-.3-.6-.6-.9-.8-1.3-1-2.6-1.7-3.7-2.3-1.2-.6-2.3-1.2-3.3-1.8-1-.6-1.9-1.4-2.7-2.4-.8-.9-1.4-2.3-1.9-4-.1-.3-.1-.6-.1-.7 0-.2 0-.4.1-.8.1-.3.1-.6.2-.9s.1-.5.2-.8c.2-.6.4-1.2.7-1.7.3-.5.6-.9 1-1.3s.9-.8 1.4-1.1c.5-.4 1.2-.8 1.9-1.2.8-.5 1.7-.8 2.6-.9.9-.2 1.8-.2 2.8-.2.9 0 1.9.1 2.8.3.9.2 1.8.4 2.7.7.3.1.5.2.8.2.2.1.5.2.7.3.8.3 1.5.8 2.2 1.3.6.5 1.3 1.1 2 1.5.6.8.8 1.7.6 2.5-.2.5-.5 1-1.1 1.2-.5.3-1.2.3-1.9.1-.1 0-.2-.1-.2-.1-.1 0-.2-.1-.2-.1-1-.7-2-1.3-2.8-1.8-.8-.5-1.6-.8-2.5-1.1-.9-.3-1.8-.4-2.8-.4-1 0-2.2.2-3.6.5l-.9.6c-.3.2-.6.3-.9.5-.2.2-.3.4-.5.6-.2.2-.3.4-.4.6-.1.2-.1.4-.2.7 0 .2-.1.4-.1.6.1.2.2.4.2.7.1.2.1.4.2.7l1.9 2c1 .6 1.9 1.1 2.8 1.6.9.5 1.7.9 2.5 1.4.8.5 1.6 1 2.3 1.6.7.6 1.5 1.3 2.3 2.1.4.4.7.9 1 1.5.2.6.4 1.1.6 1.6.4.9.6 1.8.6 2.7 0 .9-.1 1.9-.4 2.8-.4 1.3-1 2.5-1.9 3.5-.9 1.1-1.9 1.9-3.1 2.4-.4.2-.8.3-1.2.5-.4.1-.8.3-1.2.4-.9.3-1.9.4-2.9.4s-2-.2-3.1-.5c-1.2-.4-2.3-.9-3.5-1.5-1.1-.6-2.2-1.4-3.1-2.2-1-.8-1.8-1.7-2.6-2.6-.6-1.1-1.2-2.1-1.6-3z"/></g><g><path class="st3" d="M516.9 293.5v-.7c.1-.3.3-.5.5-.6.2-.1.5-.1.8-.1.3.1.5.3.7.5.2.4.4.8.8 1.2.3.4.7.7 1.1.9.4.3.8.5 1.3.7.4.2.9.3 1.3.5h1c.1 0 .2 0 .3-.1.1 0 .3-.1.6-.2l.3-.3.3-.3.4-.6c0-.1.1-.2.1-.4 0-.1.1-.2.1-.4v-.4c0-.1 0-.3-.1-.4-.1-.2-.1-.3-.2-.4-.1-.1-.1-.3-.2-.4l-.4-.4c-.1-.2-.3-.3-.4-.4-.6-.5-1.2-.8-1.8-1.1-.6-.3-1.1-.6-1.6-.9s-.9-.7-1.3-1.1c-.4-.5-.7-1.1-.9-1.9 0-.2-.1-.3-.1-.4 0-.1 0-.2.1-.4 0-.1.1-.3.1-.4 0-.1.1-.3.1-.4.1-.3.2-.6.3-.8.1-.2.3-.4.5-.6.2-.2.4-.4.7-.5l.9-.6c.4-.2.8-.4 1.2-.5.4-.1.9-.1 1.3-.1s.9.1 1.4.2c.5.1.9.2 1.3.3.1 0 .3.1.4.1.1 0 .2.1.3.1.4.2.7.4 1 .6.3.3.6.5 1 .7.3.4.4.8.3 1.2-.1.3-.2.5-.5.6-.3.1-.6.2-.9 0h-.2c-.5-.3-1-.6-1.3-.8-.4-.2-.8-.4-1.2-.5-.4-.1-.9-.2-1.3-.2-.5 0-1 .1-1.7.3-.1.1-.3.2-.4.3s-.3.2-.4.3c-.1.1-.2.2-.2.3-.1.1-.1.2-.2.3 0 .1-.1.2-.1.3v.3c0 .1.1.2.1.3 0 .1.1.2.1.3l.9 1c.5.3.9.5 1.4.7.4.2.8.5 1.2.7.4.2.8.5 1.1.8.4.3.7.6 1.1 1 .2.2.4.5.5.7.1.3.2.5.3.8.2.4.3.8.3 1.3s-.1.9-.2 1.4c-.2.6-.5 1.2-.9 1.7s-.9.9-1.5 1.1c-.2.1-.4.2-.6.2-.2.1-.4.1-.6.2-.4.1-.9.2-1.4.2-.5 0-1-.1-1.5-.2-.6-.2-1.1-.4-1.7-.7-.5-.3-1-.7-1.5-1-.5-.4-.9-.8-1.2-1.3-.5-.6-.8-1.1-1-1.6zM536.7 299.2c.4.1.7.3.8.5.2.3.2.5.2.8 0 .3-.2.5-.4.7-.2.2-.6.3-1 .2-.9-.2-1.8-.5-2.7-.8s-1.8-.5-2.7-.8c-.4-.2-.6-.4-.7-.7s-.1-.5 0-.8c.1-.2.3-.4.5-.6.3-.1.6-.2 1-.1.3.1.5.2.8.2.3.1.5.2.8.3l3.4-11.4-1.6-.5c-.4-.2-.6-.4-.7-.7-.1-.3-.1-.5 0-.8.1-.2.3-.4.5-.6.3-.1.6-.2 1-.1l5.4 1.6c.3.2.5.4.6.7s.1.5 0 .7c-.1.2-.2.4-.5.5-.2.1-.5.2-.9.2l-1.6-.5-3.4 11.4c.2.1.5.1.7.2 0 .3.3.4.5.4zM555.3 290.6c.2-.3.4-.5.7-.7.2-.1.5-.1.7-.1.2.1.4.2.6.4.2.2.2.5.2.9-.7 2.5-1.5 4.9-2.2 7.2-.7 2.3-1.5 4.7-2.4 7.1 0 .1-.1.2-.1.2 0 .1 0 .1-.1.2-.2.2-.4.4-.6.5-.2.1-.4.1-.6 0-.3-.1-.6-.3-.8-.7v-.2c0-.1 0-.1-.1-.2v-.1c-.3-1.2-.6-2.4-1-3.6-.4-1.2-.8-2.3-1.2-3.4-.4-1.1-.8-2.3-1.3-3.4-.4-1.1-.9-2.3-1.4-3.5-.3.9-.5 1.8-.8 2.7-.3.9-.5 1.7-.8 2.6-.3.9-.5 1.8-.8 2.7-.3 1-.6 2-.9 3.1-.1.4-.3.7-.6.8-.3.1-.5.2-.8.1-.2-.1-.4-.2-.6-.5-.2-.2-.2-.6-.1-1 .7-2.3 1.4-4.7 2.1-7.1.7-2.4 1.4-4.8 2.1-7.1.2-.3.4-.5.6-.6s.5-.1.7-.1.5.2.7.5c.5 1.2 1 2.4 1.5 3.5s1 2.3 1.4 3.4c.5 1.1.9 2.3 1.3 3.5.4 1.2.8 2.4 1.1 3.6.6-1.9 1.2-3.7 1.8-5.4.5-1.5 1.1-3.4 1.7-5.3zM566.5 305.9c.3-.1.7-.2 1-.1.3.1.5.2.6.5.1.2.2.5.1.8 0 .2-.1.3-.3.5-.4.4-.9.7-1.4 1-.5.3-1 .6-1.5.8-.5.2-1.1.3-1.6.4-.6 0-1.2 0-1.8-.2-.9-.3-1.7-.7-2.4-1.3-.7-.6-1.2-1.3-1.5-2.2-.4-.8-.6-1.7-.6-2.7 0-1 .1-2 .4-3 .2-.7.5-1.4.9-1.9.5-.8 1-1.4 1.6-1.9.5-.5 1.1-.9 1.7-1.3.6-.3 1.3-.6 2-.8.7-.2 1.5-.3 2.4-.4.6-.1 1.1-.1 1.6-.1s.9.1 1.3.2c.6.2 1.1.5 1.5 1 .4.5.7 1.2.8 2.2 0 .2 0 .3-.1.5-.1.3-.3.5-.5.7-.2.1-.5.2-.8.1-.3-.1-.6-.3-.8-.7-.1-.5-.2-.9-.4-1.2s-.3-.4-.6-.5c-.2-.1-.4-.1-.7-.1s-.7 0-1.1.1c-.7.1-1.5.2-2.2.4-.7.2-1.4.5-2 .9-.6.4-1.2.9-1.6 1.5-.5.6-.8 1.4-1.1 2.2-.2.6-.3 1.3-.3 1.9s.1 1.3.3 1.9c.2.6.5 1.1 1 1.5s1 .8 1.7 1c.4.1.8.2 1.2.1l1.2-.3c.4-.2.7-.4 1.1-.6.3-.4.6-.6.9-.9zM579.2 311.4c.3.1.6.2.8.4.2.2.3.4.3.7 0 .2-.1.5-.3.7-.2.2-.4.4-.8.4-.7 0-1.4-.1-2.1-.2-.7-.1-1.5-.3-2.2-.5-.7-.2-1.5-.4-2.1-.7-.7-.3-1.3-.6-1.9-.9-.2-.2-.4-.5-.4-.7-.1-.2-.1-.4 0-.6l3.4-11.4c-.2-.1-.3-.3-.4-.5-.1-.2-.1-.4 0-.6.1-.2.2-.4.4-.5.2-.2.5-.2.8-.3.7 0 1.5.1 2.2.2.7.1 1.4.3 2.2.5l2.1.6 2.1.6c.4.1.7.3.8.5.2.3.2.5.2.8 0 .3-.2.5-.4.7-.2.2-.6.3-1 .2l-3.3-.9c-1.2-.4-2.3-.6-3.5-.8l-1.4 4.6c.9.3 1.8.6 2.7.8.9.2 1.9.4 2.8.6.4.1.7.3.8.5.2.3.2.5.2.8 0 .3-.2.5-.4.7-.2.2-.6.3-1 .2-1-.2-2-.4-2.9-.7-1-.2-1.9-.5-2.9-.8l-1.3 4.2c1 .5 2.1.8 3.2 1.1 1.1.1 2.2.3 3.3.3zM601.1 318.7c.3.2.5.4.6.7.1.3.1.5 0 .7-.1.2-.2.4-.5.5-.2.1-.5.2-.9.2-1.3-.4-2.7-.7-4-1.1-1.3-.4-2.6-.8-4-1.1-.7-.3-.9-.8-.8-1.5.7-2.3 1.4-4.6 2.1-6.8l2.1-6.9c.2-.3.4-.5.6-.6.3-.1.5-.1.7-.1.2.1.4.2.6.4.2.2.2.5.3.9-.6 2.1-1.3 4.3-1.9 6.4-.6 2.1-1.3 4.2-1.9 6.4 1.2.3 2.3.6 3.5 1s2.3.6 3.5.9zM616.6 324.6c-.1.3-.3.6-.5.7-.2.2-.4.2-.7.2-.2 0-.5-.1-.6-.3-.2-.2-.3-.5-.4-.8.1-.8.2-1.7.3-2.5 0-.8.1-1.7 0-2.6l-6.9-2h-.1-.1c-.9 1.3-1.7 2.8-2.5 4.2-.2.3-.5.5-.8.5-.3 0-.6 0-.8-.1-.2-.1-.4-.4-.4-.6-.1-.3 0-.6.2-1 1.3-2.3 2.8-4.6 4.3-6.8s3.2-4.2 5.1-6.1c.2-.3.5-.4.9-.4.2 0 .4 0 .6.1.2.1.3.2.4.4.6 1.1 1.1 2.3 1.4 3.6.3 1.3.5 2.5.7 3.8.1.5.1.9.2 1.4 0 .4.1.9.1 1.3l1.4.4c.3.2.5.4.6.7.1.3.1.5 0 .7-.1.2-.2.4-.5.5-.2.1-.5.2-.9.2l-.5-.2c0 .8 0 1.6-.1 2.3-.2.9-.3 1.7-.4 2.4zm-3.5-14.6c-.8.8-1.5 1.7-2.2 2.6-.7.9-1.4 1.8-2.1 2.8l5.7 1.6c-.1-.6-.1-1.2-.2-1.7-.1-.6-.2-1.1-.3-1.7-.1-.6-.3-1.2-.4-1.8-.1-.7-.2-1.2-.5-1.8zM619.6 324.3v-.7c.1-.3.3-.5.5-.6.2-.1.5-.1.8-.1s.5.3.7.5c.2.4.4.8.8 1.2.3.4.7.7 1.1.9.4.3.8.5 1.3.7.4.2.9.3 1.3.5h1c.1 0 .2 0 .3-.1.1 0 .3-.1.6-.2l.3-.3.3-.3.4-.6c0-.1.1-.2.1-.4 0-.1.1-.2.1-.4v-.4c0-.1 0-.3-.1-.4-.1-.2-.1-.3-.2-.4-.1-.1-.1-.3-.2-.4l-.4-.4c-.1-.2-.3-.3-.4-.4-.6-.5-1.2-.8-1.8-1.1-.6-.3-1.1-.6-1.6-.9s-.9-.7-1.3-1.1c-.4-.5-.7-1.1-.9-1.9 0-.2-.1-.3-.1-.4 0-.1 0-.2.1-.4 0-.1.1-.3.1-.4 0-.1.1-.3.1-.4.1-.3.2-.6.3-.8.1-.2.3-.4.5-.6.2-.2.4-.4.7-.5l.9-.6c.4-.2.8-.4 1.2-.5.4-.1.9-.1 1.3-.1.5 0 .9.1 1.4.2.5.1.9.2 1.3.3.1 0 .3.1.4.1.1 0 .2.1.3.1.4.2.7.4 1 .6.3.3.6.5 1 .7.3.4.4.8.3 1.2-.1.3-.2.5-.5.6-.3.1-.6.2-.9 0h-.1-.1c-.5-.3-1-.6-1.3-.8s-.8-.4-1.2-.5c-.4-.1-.9-.2-1.3-.2-.5 0-1 .1-1.7.3-.1.1-.3.2-.4.3s-.3.2-.4.3c-.1.1-.2.2-.2.3-.1.1-.1.2-.2.3 0 .1-.1.2-.1.3v.3c0 .1.1.2.1.3 0 .1.1.2.1.3l.9 1c.5.3.9.5 1.4.7s.8.5 1.2.7c.4.2.8.5 1.1.8.4.3.7.6 1.1 1 .2.2.4.5.5.7.1.3.2.5.3.8.2.4.3.8.3 1.3s-.1.9-.2 1.4c-.2.6-.5 1.2-.9 1.7s-.9.9-1.5 1.1c-.2.1-.4.2-.6.2-.2.1-.4.1-.6.2-.4.1-.9.2-1.4.2-.5 0-1-.1-1.5-.2-.6-.2-1.1-.4-1.7-.7-.5-.3-1-.7-1.5-1-.5-.4-.9-.8-1.2-1.3-.5-.7-.8-1.1-1-1.6zM647.7 318c.3.2.5.4.6.7.1.3.1.5 0 .7-.1.2-.2.4-.5.6-.2.1-.5.2-.9.1l-4.1-1.2-3.8 12.7c-.1.4-.3.7-.6.8-.3.1-.5.2-.8.1-.2-.1-.4-.2-.6-.5-.2-.2-.2-.6-.1-1l3.8-12.8-4.1-1.2c-.3-.2-.6-.4-.7-.7-.1-.3-.1-.5 0-.8.1-.3.3-.5.5-.6.3-.1.6-.2 1 0 .2.1.6.2 1.1.3.5.2 1.1.3 1.8.5s1.4.4 2.2.7c.8.2 1.5.5 2.2.7.7.2 1.3.4 1.8.5s1 .3 1.2.4zM670 325c.2-.3.4-.5.6-.7.2-.1.5-.1.7-.1.2.1.4.2.6.4.2.2.2.5.2.9-.7 2.5-1.5 4.9-2.2 7.2-.7 2.3-1.5 4.7-2.4 7.1 0 .1-.1.2-.1.2s0 .1-.1.2c-.2.2-.4.4-.6.5-.2.1-.4.1-.6 0-.3-.1-.6-.3-.8-.7v-.2c0-.1 0-.1-.1-.2v-.1c-.3-1.2-.6-2.4-1-3.6-.4-1.2-.8-2.3-1.2-3.4-.4-1.1-.8-2.3-1.3-3.4s-.9-2.3-1.4-3.5c-.3.9-.5 1.8-.8 2.7-.3.9-.5 1.7-.8 2.6-.3.9-.5 1.8-.8 2.7-.3 1-.6 2-.9 3.1-.1.4-.3.7-.6.8-.3.1-.5.2-.8.1-.2-.1-.4-.2-.6-.5-.2-.2-.2-.6-.1-1 .7-2.3 1.4-4.7 2.1-7.1.7-2.4 1.4-4.8 2.1-7.1.2-.3.4-.5.6-.6.2-.1.5-.1.7-.1.2.1.5.2.7.5.5 1.2 1 2.4 1.5 3.5s1 2.3 1.4 3.4c.5 1.1.9 2.3 1.3 3.5.4 1.2.8 2.4 1.1 3.6.6-1.9 1.2-3.7 1.8-5.4.7-1.6 1.2-3.4 1.8-5.3zM680.1 341.7c.3.1.6.2.8.4.2.2.3.4.3.7 0 .2-.1.5-.3.7-.2.2-.4.4-.8.4-.7 0-1.4-.1-2.1-.2-.7-.1-1.5-.3-2.2-.5-.7-.2-1.5-.4-2.1-.7-.7-.3-1.3-.6-1.9-.9-.2-.2-.4-.5-.4-.7-.1-.2-.1-.4 0-.6l3.4-11.4c-.2-.1-.3-.3-.4-.5s-.1-.4 0-.6c.1-.2.2-.4.4-.5.2-.2.5-.2.8-.3.7 0 1.5.1 2.2.2.7.1 1.4.3 2.2.5l2.1.6 2.1.6c.4.1.7.3.8.5.2.3.2.5.2.8 0 .3-.2.5-.4.7-.2.2-.6.3-1 .2l-3.3-.9c-1.2-.4-2.3-.6-3.5-.8l-1.4 4.6c.9.3 1.8.6 2.7.8.9.2 1.9.4 2.8.6.4.1.7.3.8.5.2.3.2.5.2.8 0 .3-.2.5-.4.7-.2.2-.6.3-1 .2-1-.2-2-.4-2.9-.7-1-.2-1.9-.5-2.9-.8l-1.3 4.2c1 .5 2.1.8 3.2 1.1 1.2.1 2.3.2 3.3.3zM706.2 336.2c.2-.3.4-.5.7-.6.2-.1.5-.1.7 0 .3.1.5.2.6.5.1.3.2.6 0 1v.1c-.6 1.2-1.3 2.5-2.1 3.6-.8 1.2-1.6 2.3-2.5 3.4-.7 1-1.5 2-2.4 3.2-.8 1.1-1.7 2.1-2.5 3-.4.2-.7.3-1.1.2-.4-.1-.7-.5-.8-1-.1-1.1-.2-2.1-.2-3.1-.1-.9-.1-1.9-.2-2.7 0-.9-.1-1.8-.1-2.6-.1-.9-.1-1.8-.2-2.7l-1.2 1.8s-.9 1.1-1.3 1.7c-.7.9-1.4 1.9-2.1 2.8-.7 1-1.5 1.9-2.3 2.7-.4.2-.7.3-1.1.2-.4-.1-.7-.5-.8-1 .1-1.7.1-3.4 0-5.1l-.3-5.1c-.1-.9-.1-1.8-.2-2.7 0-.9-.1-1.9-.3-2.7v-.7c.1-.3.3-.5.5-.6.2-.1.5-.2.8-.1.2.1.3.1.5.3s.3.3.3.6c.2.9.3 1.9.3 2.9.1 1 .1 2 .2 2.9.1 1.3.2 2.6.2 3.7.1 1.2.1 2.4.1 3.6.4-.5.8-1 1.1-1.5.4-.5.7-1 1.1-1.4.8-1 1.5-2.1 2.3-3.2.8-1.1 1.5-2.2 2.1-3.4.4-.4.8-.5 1.2-.4.4.1.6.4.8.9.1 1.2.2 2.3.2 3.3.1 1 .1 2 .2 3s.1 2 .2 2.9c.1 1 .1 1.9.2 3 .5-.6.9-1.2 1.4-1.9.5-.7 1-1.4 1.4-1.9.8-1 1.6-2.1 2.4-3.2 1-1.4 1.7-2.5 2.2-3.7zM473.8 296.5c.4.1.6.3.7.6.1.3.2.5.1.8-.1.2-.2.4-.5.6s-.5.2-.9.2c-.3-.1-.7-.2-1.1-.3-.4-.1-.7-.2-1-.3l-2.8 9.4c-.3 1-.8 1.8-1.5 2.4-.3.3-.7.5-1.1.7-.4.2-.8.3-1.3.4-.5.1-.9.1-1.4.1-.5 0-.9-.1-1.3-.2-.6-.2-1.1-.5-1.6-.8-.5-.4-.9-.9-1.1-1.5 0-.1-.1-.2-.2-.4s-.2-.5-.3-.7c-.1-.3-.2-.5-.2-.7-.1-.2-.1-.4-.1-.4-.1-.3-.1-.5 0-.8.1-.3.2-.5.5-.6.2-.1.5-.2.8-.1.3.1.5.3.7.5.1.2.2.4.2.6.1.2.1.4.1.6 0 .2.1.4.1.6.1.2.1.4.3.6.2.3.4.5.6.7.3.2.5.3.8.4.4.1.8.2 1.2.1.4 0 .8-.1 1.1-.3.2-.1.3-.1.4-.2.1-.1.2-.1.2-.2l.2-.2c.1-.1.2-.2.2-.3.3-.6.5-1.3.8-2 .2-.7.4-1.3.6-2 .1-.5.3-1 .4-1.5.1-.5.3-1 .4-1.6.2-.5.3-1.1.4-1.6.1-.5.3-1 .4-1.5-1-.3-2.1-.6-3.1-.9-1-.3-2-.6-3.1-.9-.3-.2-.6-.4-.7-.6s-.1-.5-.1-.8c.1-.5.5-.7 1.2-.8 1.7.5 3.4 1 5.2 1.5 1.8.5 3.5 1 5.2 1.5l.6-.1zM484.2 315.7c-.1.3-.3.6-.5.7-.2.2-.4.2-.7.2-.2 0-.5-.1-.6-.3-.2-.2-.3-.5-.4-.8.1-.8.2-1.7.3-2.5 0-.8.1-1.7 0-2.6l-6.9-2h-.1-.1c-.9 1.3-1.7 2.8-2.5 4.2-.2.3-.5.5-.8.5-.3 0-.6 0-.8-.1-.2-.1-.4-.4-.4-.6-.1-.3 0-.6.2-1 1.3-2.3 2.7-4.6 4.3-6.8 1.5-2.2 3.2-4.2 5.1-6.1.2-.3.5-.4.9-.4.2 0 .4 0 .6.1.2.1.3.2.4.4.6 1.1 1.1 2.3 1.4 3.6.3 1.3.5 2.5.7 3.8.1.5.1.9.2 1.4 0 .4.1.9.1 1.3l1.4.4c.3.2.5.4.6.7.1.3.1.5 0 .7-.1.2-.2.4-.5.5-.2.1-.5.2-.9.2l-.5-.2c0 .8 0 1.6-.1 2.3-.2.9-.3 1.7-.4 2.4zm-3.4-14.6c-.8.8-1.5 1.7-2.2 2.6-.7.9-1.4 1.8-2.1 2.8l5.7 1.6c-.1-.6-.1-1.2-.2-1.7-.1-.6-.2-1.1-.3-1.7-.1-.6-.3-1.2-.4-1.8-.2-.7-.3-1.2-.5-1.8zM501.1 305.2c.4-.4.8-.5 1.2-.4.3.1.5.2.6.5.1.3.2.5.1.8 0 .2-.1.3-.3.5-1.9 1.8-3.7 3.7-5.3 5.8-1.7 2.1-3.3 4.2-4.9 6.2-.2.2-.4.4-.6.5-.2.1-.5.1-.7 0-.2-.1-.4-.2-.5-.3-.1-.2-.2-.4-.3-.7-.2-2.6-.4-5.3-.6-7.9-.2-2.6-.4-5.3-.6-7.9v-.1-.1c.1-.4.3-.6.6-.8.3-.1.5-.2.8-.1.4.1.7.4.8.9.1 1.3.2 2.5.3 3.6.1 1.1.1 2.2.2 3.2s.1 2.1.2 3.1.1 2.1.2 3.3c.3-.4.7-.9 1.1-1.3.4-.4.7-.9 1.1-1.3 1-1.3 2.1-2.6 3.2-3.8 1-1.4 2.1-2.6 3.4-3.7zM512.8 324.3c-.1.3-.3.6-.5.7-.2.2-.4.2-.7.2-.2 0-.5-.1-.6-.3-.2-.2-.3-.5-.4-.8.1-.8.2-1.7.3-2.5s.1-1.7 0-2.6l-6.9-2h-.1-.1c-.9 1.3-1.7 2.8-2.5 4.2-.2.3-.5.5-.8.5-.3 0-.5 0-.8-.1-.2-.1-.4-.4-.4-.6-.1-.3 0-.6.2-1 1.3-2.3 2.8-4.6 4.3-6.8s3.2-4.2 5.1-6.1c.2-.3.5-.4.9-.4.2 0 .4 0 .6.1.2.1.3.2.4.4.6 1.1 1.1 2.3 1.4 3.6.3 1.3.5 2.5.7 3.8.1.5.1.9.2 1.4 0 .4.1.9.1 1.3l1.4.4c.3.2.5.4.6.7.1.3.1.5 0 .7-.1.2-.2.4-.5.5-.2.1-.5.2-.9.2l-.5-.2c0 .8 0 1.6-.1 2.3-.2.9-.3 1.6-.4 2.4zm-3.4-14.6c-.8.8-1.5 1.7-2.2 2.6-.7.9-1.4 1.8-2.1 2.8l5.7 1.6c-.1-.6-.1-1.2-.2-1.7s-.2-1.1-.3-1.7c-.1-.6-.3-1.2-.4-1.8-.1-.7-.3-1.3-.5-1.8zM515.9 324v-.7c.1-.3.3-.5.5-.6s.5-.1.8-.1c.3.1.5.3.7.5.2.4.4.8.8 1.2.3.4.7.7 1.1.9.4.3.8.5 1.3.7.4.2.9.3 1.3.5h1s.2 0 .3-.1c.1 0 .3-.1.6-.2l.3-.3.3-.3.4-.6c0-.1.1-.2.1-.3 0-.1.1-.2.1-.4v-.4c0-.1 0-.3-.1-.4-.1-.2-.1-.3-.2-.4-.1-.1-.1-.3-.2-.4l-.4-.4c-.1-.2-.3-.3-.5-.4-.6-.5-1.2-.8-1.8-1.1-.6-.3-1.1-.6-1.6-.9-.5-.3-.9-.7-1.3-1.1-.4-.5-.7-1.1-.9-1.9 0-.2-.1-.3-.1-.4 0-.1 0-.2.1-.4 0-.1 0-.3.1-.4 0-.1.1-.3.1-.4.1-.3.2-.6.3-.8.1-.2.3-.4.5-.6.2-.2.4-.4.7-.5l.9-.6c.4-.2.8-.4 1.2-.5.4-.1.9-.1 1.3-.1s.9.1 1.4.2c.5.1.9.2 1.3.3.1 0 .3.1.4.1.1 0 .2.1.3.1.4.2.7.4 1 .6.3.3.6.5 1 .7.3.4.4.8.3 1.2-.1.3-.2.5-.5.6-.3.1-.6.2-.9 0h-.1-.1c-.5-.3-1-.6-1.3-.8-.4-.2-.8-.4-1.2-.5-.4-.1-.9-.2-1.3-.2-.5 0-1 .1-1.7.3-.1.1-.3.2-.4.3s-.3.2-.4.3c-.1.1-.2.2-.2.3-.1.1-.1.2-.2.3 0 .1-.1.2-.1.3v.3c0 .1.1.2.1.3 0 .1.1.2.1.3l.9 1c.5.3.9.5 1.4.7s.8.5 1.2.7c.4.2.8.5 1.1.8.4.3.7.6 1.1 1 .2.2.4.5.5.7.1.3.2.5.3.8.2.4.3.8.3 1.3s-.1.9-.2 1.4c-.2.6-.5 1.2-.9 1.7s-.9.9-1.5 1.1c-.2.1-.4.2-.6.2-.2.1-.4.1-.6.2-.4.1-.9.2-1.4.2-.5 0-1-.1-1.5-.2-.6-.2-1.1-.4-1.7-.7-.5-.3-1-.7-1.5-1s-.9-.8-1.2-1.3c-.4-.8-.7-1.2-.9-1.7zM539.6 328.7c.3-.1.7-.2 1-.1.3.1.5.2.6.5.1.2.2.5.1.8 0 .2-.1.3-.3.5-.4.4-.9.7-1.4 1-.5.3-1 .6-1.5.8-.5.2-1.1.3-1.7.4-.6 0-1.2 0-1.8-.2-.9-.3-1.7-.7-2.4-1.3-.7-.6-1.2-1.3-1.5-2.2-.4-.8-.6-1.7-.6-2.7 0-1 .1-2 .4-3 .2-.7.5-1.4.9-1.9.5-.8 1-1.4 1.6-1.9.5-.5 1.1-.9 1.7-1.3.6-.3 1.3-.6 2-.8.7-.2 1.5-.3 2.4-.4.6-.1 1.1-.1 1.6-.1s.9.1 1.3.2c.6.2 1.1.5 1.5 1 .4.5.7 1.2.8 2.2 0 .2 0 .3-.1.5-.1.3-.3.5-.5.7-.2.1-.5.2-.8.1-.3-.1-.6-.3-.8-.7-.1-.5-.2-.9-.4-1.2-.1-.2-.3-.4-.6-.5-.2-.1-.4-.1-.7-.1-.3 0-.7 0-1.1.1-.7.1-1.5.2-2.2.4-.7.2-1.4.5-2 .9-.6.4-1.2.9-1.6 1.5-.5.6-.8 1.4-1.1 2.2-.2.6-.3 1.3-.3 1.9 0 .7.1 1.3.3 1.9.2.6.5 1.1 1 1.5.4.4 1 .8 1.7 1 .4.1.8.2 1.2.1.4-.1.8-.2 1.1-.3.4-.2.7-.4 1.1-.6.5-.4.8-.7 1.1-.9zM545.3 335.1c-.3.1-.5.2-.8.1-.2-.1-.4-.2-.6-.5s-.2-.6-.1-1l3.7-12.4c-.3-.1-.5-.3-.6-.5-.1-.2-.1-.5 0-.7 0-.2.1-.3.3-.5.1-.1.3-.3.5-.4.9-.2 1.8-.4 2.8-.4 1 0 2 .1 2.9.4.8.2 1.5.6 2.1 1 .6.4 1.2.9 1.6 1.6.5.8.8 1.5 1 2.3.1.8.1 1.5-.1 2.2-.2.6-.4 1.1-.8 1.6-.3.5-.7.9-1.2 1.3s-1 .7-1.6.9c-.6.3-1.2.4-1.8.5.4.9.9 1.9 1.4 3 .5 1.1 1 2.1 1.4 3 .1.3.1.6 0 .9-.1.3-.3.5-.5.6-.2.1-.5.1-.8.1-.1 0-.3-.1-.4-.2-.1-.1-.3-.3-.4-.5l-.4-.8-.6-1.2c-.2-.5-.5-.9-.7-1.5-.2-.5-.5-1-.7-1.5-.2-.4-.4-.9-.6-1.2l-.4-.8c-.5-.1-1-.1-1.5-.2s-1-.2-1.4-.3l-1.3 4.3c0 .4-.2.7-.4.8zm9.9-12c-.3-.4-.7-.8-1.2-1-.5-.3-.9-.5-1.5-.6-.5-.1-.9-.2-1.4-.3h-1.4l-2 6.8c.7.2 1.3.3 2 .4s1.4.2 2.1.1c.4 0 .8-.1 1.3-.3l1.2-.6c.4-.3.7-.5.9-.9.3-.3.4-.7.6-1 .1-.4.1-.8.1-1.3-.1-.4-.3-.9-.7-1.3zM564.9 338.4c.4.1.7.3.8.5.2.3.2.5.2.8 0 .3-.2.5-.4.7-.2.2-.6.3-1 .2-.9-.2-1.8-.5-2.7-.8-.9-.3-1.8-.5-2.7-.8-.4-.2-.6-.4-.7-.7-.1-.3-.1-.5 0-.8s.3-.4.5-.6c.3-.1.6-.2 1-.1.3.1.5.2.8.2.3.1.5.2.8.3l3.4-11.4-1.6-.5c-.4-.2-.6-.4-.7-.7-.1-.3-.1-.5 0-.8.1-.2.3-.4.5-.6.3-.1.6-.2 1-.1l5.4 1.6c.3.2.5.4.6.7.1.3.1.5 0 .7-.1.2-.2.4-.5.5-.2.1-.5.2-.9.2l-1.6-.5-3.4 11.4c.2.1.5.1.7.2 0 .3.3.4.5.4zM573.5 326.8c.2-.1.5-.1.7-.1.1 0 .2.1.3.1.7-.1 1.5-.1 2.3-.1.8 0 1.5.2 2.3.4.5.1.9.3 1.4.6.4.2.8.5 1.2.9.4.4.7.8 1 1.3.3.5.5 1 .6 1.5.1.5.2 1.1.2 1.7 0 .6-.1 1.1-.2 1.6-.3 1-.8 1.9-1.6 2.5-.8.7-1.7 1.2-2.7 1.5-1 .3-2 .3-3.1.1-.2 0-.4-.1-.6-.2-.2-.1-.4-.1-.6-.2-.4-.1-.8-.3-1.2-.4s-.7-.3-1.1-.5c-.2.7-.4 1.4-.7 2.2-.2.8-.5 1.6-.6 2.2-.1.4-.3.7-.6.8-.3.1-.5.2-.8.1-.2-.1-.4-.2-.6-.5s-.2-.6-.1-1l1.5-5.1c-.1 0-.1 0-.2-.1-.2-.2-.4-.4-.4-.7-.1-.2-.1-.4 0-.6.1-.2.2-.4.4-.5.2-.1.5-.2.8-.2l2.1-7c-.2.1.1-.1.3-.3zm6.6 3.4c-.5-.4-1-.8-1.6-.9-.6-.2-1.2-.3-1.9-.3s-1.3 0-1.9.1l-1.9 6.4c.3.2.7.4 1 .5.3.2.7.3 1.1.4.4.1.7.2 1.1.2.5.1 1.1.1 1.6.1s1.1-.2 1.6-.5.8-.6 1.2-1c.3-.4.5-.8.7-1.3.2-.7.2-1.3.1-2-.3-.5-.6-1.1-1.1-1.7zM597.2 333.6c.3.2.5.4.6.7.1.3.1.5 0 .7-.1.2-.2.4-.5.6s-.5.2-.9.1l-4.1-1.2-3.8 12.7c-.1.4-.3.7-.6.8-.3.1-.5.2-.8.1-.2-.1-.4-.2-.6-.5-.2-.2-.2-.6-.1-1l3.8-12.8-4.1-1.2c-.3-.2-.6-.4-.7-.7-.1-.3-.1-.5 0-.8.1-.3.3-.5.5-.6.3-.1.6-.2 1 0 .2.1.6.2 1.1.3.5.2 1.1.3 1.8.5s1.4.4 2.2.7c.8.2 1.5.5 2.2.7.7.2 1.3.4 1.8.5.7.3 1 .4 1.2.4zM606.2 353.4c-.3.1-.5.2-.8.1-.2-.1-.4-.2-.6-.5-.2-.2-.2-.6-.1-1l1.9-6.5c-.4-.3-.5-.7-.4-1.2.1-.2.2-.4.3-.5l.6-.3.1-.2c.1-.2.1-.5.2-.7l.3-.9c.2-.5.3-1 .4-1.5s.1-.9 0-1.2v-.7c.2-.5.5-.8 1.1-.8.7.1 1.3.2 2 .4s1.3.3 2 .5 1.3.4 2 .5c.7.2 1.3.3 2 .4.4.1.7.3.9.6.2.3.2.5.1.8-.1.2-.2.4-.4.6-.2.1-.5.2-.9.2-1.1-.2-2.2-.4-3.2-.8-1.1-.3-2.1-.6-3.2-.9 0 .4-.1.8-.2 1.2l-.3 1.2c-.1.3-.2.6-.3.8-.1.3-.2.5-.2.8l-.1.3c.9.3 1.9.5 2.9.8 1 .3 1.9.4 2.7.4.4.1.7.3.8.6.2.3.2.5.1.8-.1.4-.5.7-1 .8-.5.1-1.2 0-1.9-.1s-1.5-.3-2.2-.5c-.8-.2-1.5-.4-2-.6l-1.9 6.2c-.2.5-.4.8-.7.9zM618.2 357c-.3.1-.5.2-.8.1-.2-.1-.4-.2-.6-.5-.2-.2-.2-.6-.1-1l3.7-12.4c-.3-.1-.5-.3-.6-.5-.1-.2-.1-.5 0-.7 0-.2.1-.3.3-.5s.3-.3.5-.4c.9-.2 1.8-.4 2.8-.4 1 0 2 .1 2.9.4.8.2 1.5.6 2.1 1 .6.4 1.2.9 1.6 1.6.5.8.8 1.5 1 2.3.1.8.1 1.5-.1 2.2-.2.6-.4 1.1-.8 1.6s-.7.9-1.2 1.3-1 .7-1.6.9c-.6.3-1.2.4-1.8.5.4.9.9 1.9 1.4 3 .5 1.1 1 2.1 1.4 3 .1.3.1.6 0 .9-.1.3-.3.5-.5.6-.2.1-.5.1-.8.1-.1 0-.3-.1-.4-.2-.1-.1-.3-.3-.4-.5l-.4-.8-.6-1.2c-.2-.5-.5-.9-.7-1.5-.2-.5-.5-1-.7-1.5-.2-.4-.4-.9-.6-1.2l-.4-.8c-.5-.1-1-.1-1.5-.2s-1-.2-1.4-.3l-1.3 4.3c0 .4-.2.6-.4.8zm9.9-12.1c-.3-.4-.7-.8-1.2-1-.5-.3-.9-.5-1.5-.6-.5-.1-.9-.2-1.4-.3s-.9 0-1.4 0l-2 6.8c.7.2 1.3.3 2 .4.7.1 1.4.2 2.1.1.4 0 .8-.1 1.3-.3l1.2-.6c.4-.3.7-.5.9-.9.3-.3.4-.7.6-1 .1-.4.1-.8.1-1.3-.1-.4-.3-.8-.7-1.3zM643.9 363.6c-.1.3-.3.6-.5.7-.2.2-.4.2-.7.2-.2 0-.5-.1-.6-.3-.2-.2-.3-.5-.4-.8.1-.8.2-1.7.3-2.5 0-.8.1-1.7 0-2.6l-6.9-2h-.1-.1c-.9 1.3-1.7 2.8-2.5 4.2-.2.3-.5.5-.8.5-.3 0-.6 0-.8-.1-.2-.1-.4-.4-.4-.6-.1-.3 0-.6.2-1 1.3-2.3 2.8-4.6 4.3-6.8s3.2-4.2 5.1-6.1c.2-.3.5-.4.9-.4.2 0 .4 0 .6.1.2.1.3.2.4.4.6 1.1 1.1 2.3 1.4 3.6.3 1.3.5 2.5.7 3.8.1.5.1.9.2 1.4 0 .4.1.9.1 1.3l1.4.4c.3.2.5.4.6.7.1.3.1.5 0 .7-.1.2-.2.4-.5.5-.2.1-.5.2-.9.2l-.5-.2c0 .8 0 1.6-.1 2.3-.1.9-.2 1.6-.4 2.4zm-3.4-14.7c-.8.8-1.5 1.7-2.2 2.6-.7.9-1.4 1.8-2.1 2.8l5.7 1.6c-.1-.6-.1-1.2-.2-1.7-.1-.6-.2-1.1-.3-1.7-.1-.6-.3-1.2-.4-1.8-.1-.6-.3-1.2-.5-1.8zM663.7 369.6c-.1.4-.3.7-.6.8-.3.1-.5.2-.8.1-.2-.1-.4-.2-.6-.5-.2-.2-.2-.6-.1-1 .2-.9.3-1.8.5-2.7.1-1 .3-1.9.4-2.9l.3-3s.1-1.9.1-2.8c-.6.7-1.1 1.4-1.7 2.2l-1.8 2.4-1.8 2.4c-.6.8-1.2 1.5-1.8 2.2-.4.2-.7.3-1.1.2-.3-.1-.5-.3-.7-.7l-2.1-11.6c-.3.8-.7 1.7-1 2.5-.4.9-.7 1.8-1.1 2.7-.4.9-.7 1.8-1.1 2.7-.4.9-.7 1.7-1 2.5-.2.3-.4.4-.7.5-.2.1-.5.1-.7 0-.2-.1-.4-.2-.6-.5-.2-.3-.2-.6-.1-.9.4-1.1.9-2.2 1.4-3.3.5-1.2.9-2.3 1.4-3.5.5-1.2.9-2.3 1.4-3.5.5-1.2.9-2.3 1.4-3.4.2-.3.4-.5.6-.6.2-.1.5-.1.7-.1.4.1.6.4.8.9.2 1 .4 2 .6 3.1.2 1.1.4 2.1.6 3.2.2 1.1.4 2.2.6 3.2.2 1.1.4 2.1.6 3.1.6-.7 1.2-1.5 1.9-2.3.6-.8 1.3-1.7 1.9-2.5.6-.8 1.3-1.7 1.9-2.5.6-.8 1.3-1.6 1.9-2.4.2-.2.4-.3.6-.4.2-.1.4-.1.6 0 .2.1.4.2.5.4.2.2.2.5.2.8 0 1.2-.1 2.4-.1 3.7-.1 1.3-.2 2.5-.3 3.8-.1 1.3-.2 2.6-.4 3.8-.2 1.6-.4 2.8-.7 3.9zM675.3 371c.3.1.6.2.8.4.2.2.3.4.3.7 0 .2-.1.5-.3.7-.2.2-.4.4-.8.4-.7 0-1.4-.1-2.1-.2-.7-.1-1.5-.3-2.2-.5-.7-.2-1.5-.4-2.1-.7-.7-.3-1.3-.6-1.9-.9-.2-.2-.4-.5-.4-.7-.1-.2-.1-.4 0-.6l3.4-11.4c-.2-.1-.3-.3-.4-.5s-.1-.4 0-.6c.1-.2.2-.4.4-.5.2-.2.5-.2.8-.3.7 0 1.5.1 2.2.2.7.1 1.4.3 2.2.5l2.1.6 2.1.6c.4.1.7.3.8.5.2.3.2.5.2.8 0 .3-.2.5-.4.7-.2.2-.6.3-1 .2l-3.3-.9c-1.2-.4-2.3-.6-3.5-.8l-1.4 4.6c.9.3 1.8.6 2.7.8.9.2 1.9.4 2.8.6.4.1.7.3.8.5.2.3.2.5.2.8 0 .3-.2.5-.4.7-.2.2-.6.3-1 .2-1-.2-2-.4-2.9-.7-1-.2-1.9-.5-2.9-.8l-1.3 4.2c1 .5 2.1.8 3.2 1.1l3.3.3zM701.4 365.5c.2-.3.4-.5.7-.6.2-.1.5-.1.7 0 .3.1.5.2.6.5.1.3.2.6 0 1v.1c-.6 1.2-1.3 2.5-2.1 3.6-.8 1.2-1.6 2.3-2.5 3.4-.7 1-1.5 2-2.4 3.2-.8 1.1-1.7 2.1-2.5 3-.4.2-.7.3-1.1.2-.4-.1-.7-.5-.8-1-.1-1.1-.2-2.1-.2-3.1-.1-.9-.1-1.9-.2-2.7 0-.9-.1-1.8-.1-2.6-.1-.9-.1-1.8-.2-2.7l-1.2 1.8c-.4.6-.9 1.1-1.3 1.7-.7.9-1.4 1.9-2.1 2.8-.7 1-1.5 1.9-2.3 2.7-.4.2-.7.3-1.1.2-.4-.1-.7-.5-.8-1 .1-1.7.1-3.4 0-5.1l-.3-5.1c-.1-.9-.1-1.8-.2-2.7 0-.9-.1-1.9-.3-2.7v-.7c.1-.3.3-.5.5-.6s.5-.2.8-.1c.2.1.3.1.5.3s.3.3.3.6c.2.9.3 1.9.3 2.9.1 1 .1 2 .2 2.9.1 1.3.2 2.6.2 3.7.1 1.2.1 2.4.1 3.6.4-.5.8-1 1.1-1.5.4-.5.7-1 1.1-1.4.8-1 1.5-2.1 2.3-3.2.8-1.1 1.5-2.2 2.1-3.4.4-.4.8-.5 1.2-.4.4.1.6.4.8.9.1 1.2.2 2.3.2 3.3.1 1 .1 2 .2 3s.1 2 .2 2.9c.1 1 .1 1.9.2 3 .5-.6.9-1.2 1.4-1.9.5-.7 1-1.4 1.4-1.9.8-1 1.6-2.1 2.4-3.2.9-1.3 1.6-2.5 2.2-3.7zM717.3 379.2c-.3.6-.8 1.1-1.2 1.7-.5.6-1 1.1-1.6 1.6-.6.5-1.2.9-1.9 1.3-.7.3-1.3.6-2 .6-.3 0-.6 0-.8.1h-.7c-.2 0-.5 0-.7-.1-.2 0-.5-.1-.8-.1H707.3c-.5-.1-.9-.3-1.3-.6s-.8-.6-1.2-.8c-.6-.5-1.1-1-1.5-1.7-.3-.6-.6-1.3-.7-2-.1-.7-.1-1.4-.1-2.2.1-.7.2-1.4.4-2.1.1-.3.2-.5.3-.8.1-.2.2-.5.3-.7.3-.5.6-1.1 1-1.7.4-.6.9-1.1 1.4-1.6.5-.5 1.1-1 1.6-1.4.6-.4 1.2-.7 1.7-.8.7-.2 1.5-.3 2.2-.3.8 0 1.5.1 2.2.3 1.2.4 2.2 1 3.1 1.8.9.9 1.4 2 1.7 3.3.1.6.2 1.3.1 1.9-.1.7-.2 1.3-.4 1.9-.1.4-.3.8-.4 1.2 0 .4-.2.8-.4 1.2zm-2-.9c.2-.3.3-.7.5-1 .1-.3.3-.7.4-1.1.1-.5.2-.9.3-1.4.1-.5 0-1-.1-1.4-.2-.9-.6-1.6-1.2-2.2-.6-.6-1.4-1.1-2.2-1.3-1-.3-2-.3-2.9.1-.6.2-1.2.5-1.7.9s-1 .9-1.4 1.4c-.4.5-.8 1.1-1.1 1.6s-.6 1.1-.7 1.7c-.2.7-.3 1.4-.3 2.1 0 .7.1 1.3.4 1.9.2.6.6 1.1 1.1 1.6.5.5 1.1.8 1.9 1.1.3.1.7.2 1 .2.4 0 .7 0 1-.1.6-.1 1.1-.3 1.6-.6s1-.6 1.4-1c.4-.4.8-.8 1.2-1.3s.7-.9 1-1.4l-.2.2zM720.3 387.6c-.3.1-.5.2-.8.1-.2-.1-.4-.2-.6-.5-.2-.2-.2-.6-.1-1l3.7-12.4c-.3-.1-.5-.3-.6-.5s-.1-.5 0-.7c0-.2.1-.3.3-.5s.3-.3.5-.4c.9-.2 1.8-.4 2.8-.4 1 0 2 .1 2.9.4.8.2 1.5.6 2.1 1 .6.4 1.2.9 1.6 1.6.5.8.8 1.5 1 2.3.1.8.1 1.5-.1 2.2-.2.6-.4 1.1-.8 1.6s-.7.9-1.2 1.3-1 .7-1.6.9c-.6.3-1.2.4-1.8.5.4.9.9 1.9 1.4 3 .5 1.1 1 2.1 1.4 3 .1.3.1.6 0 .9-.1.3-.3.5-.5.6-.2.1-.5.1-.8.1-.1 0-.3-.1-.4-.2-.1-.1-.3-.3-.4-.5l-.4-.8-.6-1.2c-.2-.5-.5-.9-.7-1.5-.2-.5-.5-1-.7-1.5-.2-.4-.4-.9-.6-1.2s-.3-.6-.4-.8c-.5-.1-1-.1-1.5-.2s-1-.2-1.4-.3l-1.3 4.3c.1.4-.1.6-.4.8zm10-12.1c-.3-.4-.7-.8-1.2-1-.5-.3-.9-.5-1.5-.6-.5-.1-.9-.2-1.4-.3h-1.4l-2 6.8c.7.2 1.3.3 2 .4.7.1 1.4.2 2.1.1.4 0 .8-.1 1.3-.3l1.2-.6c.4-.3.7-.5.9-.9s.4-.7.6-1c.1-.4.1-.8.1-1.3-.2-.4-.4-.8-.7-1.3zM735.2 390.8c-.1.4-.3.7-.6.8-.3.1-.5.2-.8.1-.2-.1-.4-.2-.6-.5-.2-.3-.2-.6-.2-1 .7-2.2 1.4-4.5 2-6.7.7-2.2 1.3-4.5 2.1-6.9.2-.3.4-.5.7-.7.2-.1.5-.1.7-.1.2.1.4.2.6.4.2.2.2.5.2.9-.3 1-.6 1.9-.9 2.8-.3.9-.6 1.9-.9 2.9.9-.1 1.6-.3 2.3-.5.7-.3 1.3-.6 1.9-.9.6-.4 1.3-.8 1.9-1.3s1.4-1 2.2-1.5c.3-.1.7-.2 1-.1.3.1.5.2.6.5.1.2.2.5.1.8 0 .2-.1.3-.3.5-.7.5-1.3.9-1.9 1.3-.6.4-1.1.8-1.7 1.1-.5.3-1.1.7-1.6 1-.5.3-1.1.5-1.7.7.7 1.4 1.4 2.8 2.1 4.1.7 1.4 1.4 2.7 2 4.1.1.3.1.6 0 .9-.1.3-.3.5-.5.6-.2.1-.5.1-.8.1-.1 0-.3-.1-.4-.2-.1-.1-.3-.3-.4-.5-.1-.2-.2-.5-.5-.9-.2-.4-.5-1-.8-1.5-.3-.6-.6-1.2-.9-1.9-.3-.7-.6-1.3-.9-1.9-.3-.6-.5-1.1-.8-1.5s-.4-.8-.5-.9c-.4.1-.8.1-1.3.1-.3 1-.6 2-.8 2.9-.1.9-.3 1.9-.6 2.9z"/></g><path class="st10" d="M576.7 476.2l-1.7-6.7-3.3 11.1z"/><path class="st10" d="M520.2 528.8c12.3 12.7 26.8 15.7 40.4 14.4 8.3-19.8 14.2-41.2 16.4-64 .1-.9.4-2.6-.4-3.1-1-.5-2.8 1.2-2.8 1.2L521 518.6c-3.3 2.5-3.7 7.3-.8 10.2z"/></svg>