<svg id="Layer_1" xmlns="http://www.w3.org/2000/svg" viewBox="0 0 1000 1000"><style>.st0{fill:#9198CC;stroke:#2B2B2B;stroke-width:0.25;stroke-miterlimit:10;} .st1{fill:#D6D9ED;stroke:#2B2B2B;stroke-width:0.25;stroke-miterlimit:10;} .st2{fill:#221F1F;} .st3{fill:#FFFFFF;} .st4{fill:none;stroke:#1A1A1A;stroke-width:0.75;stroke-linecap:round;stroke-linejoin:round;stroke-miterlimit:10;} .st5{fill:none;stroke:#6B6B6B;stroke-width:0.25;stroke-linecap:round;stroke-linejoin:round;stroke-miterlimit:10;} .st6{fill:#00A386;stroke:#2B2B2B;stroke-width:0.25;stroke-miterlimit:10;} .st7{fill:#854185;stroke:#2B2B2B;stroke-width:0.25;stroke-miterlimit:10;} .st8{fill:#BF4041;stroke:#2B2B2B;stroke-width:0.25;stroke-miterlimit:10;} .st9{fill:#CCCBCB;}</style><path class="st0" d="M657.8 521.1s66.9-16.6 59.2-67.1c-.6-4.1-4.6-6.7-8.6-5.6L630.2 470"/><path class="st0" d="M680.5 789.7l-28.6-13.3c-22.8-10.6-48.5-3.8-57.3 15l-1.2 2.6c-44.1 7.6-62.2-7.3-67.6-28.9-20.4 1.9-47.2-2.5-74.8-13.4-12.3-4.9-23.5-10.7-33.5-16.9-7.4-4.3-14.2-9.4-20.4-15.2-7.4-6.6-13.3-13.4-17.3-20.1-12.9-18.9-20.4-41.7-20.4-66.2 0-51.5 33.1-95.2 79.1-111.2 19.7-52.4 70.3-89.7 129.6-89.7 38.6 0 73.6 15.8 98.7 41.4 7.6-109-65.3-204-165.3-213.8-101.9-9.9-205.9 73.1-216.8 184.6-.3 2.7-5.6 64.9-5.6 96 0 78.3 28 148.6 57.8 196.7 14.5 29.6 58 67.8 115.6 98.4 37.2 19.7 73.7 32.8 103.7 38.3l-1.3 2.9-2.3 4.9c-8.7 18.8 2.7 42.9 25.5 53.5l28.6 13.3c2.3 1.1 5 .4 5.9-1.5l22.1-47.7c5.7-12.3 1.8-27.1-8.7-37.9l.3-.7c15 1 28.8-5.5 34.5-17.8l22.1-47.7c1.1-2.1-.1-4.5-2.4-5.6z"/><path class="st1" d="M568.1 432.4c-59.3 0-109.9 37.3-129.6 89.7-46.1 15.9-79.1 59.7-79.1 111.2 0 24.6 7.5 47.4 20.4 66.2 5 7.3 10.8 14.1 17.3 20.1 5.9 5.2 12.7 10.4 20.4 15.2 9.9 6.2 21.2 12 33.5 16.9 27.5 11 54.4 15.4 74.8 13.4-1.7-7-2.2-14.6-1.7-22.4.5-.7 1-1.5 1.5-2.3 6.8-10.5 12.9-22.1 18.5-34.7 8.6-19.4 15.8-41 21.1-64.3 54.4-31 94.3-90.3 101.2-161.5.2-2.1.3-4.1.5-6.1-25.2-25.5-60.1-41.4-98.8-41.4z"/><ellipse class="st2" cx="605" cy="372.4" rx="10.8" ry="9.4"/><circle class="st3" cx="602.7" cy="371.3" r="1.8"/><path class="st4" d="M544.5 409.2c7.2 6.7 16.9 6.9 24.1.4l.4-.4"/><path class="st0" d="M389.4 544.4s-66.9-16.6-59.2-67.1c.6-4.1 4.6-6.7 8.6-5.6l78.2 21.6"/><path class="st1" d="M701.3 51l-124 276.8-6.7 14.9c-10.7 4.4-22.5-.4-29.6-7.7l-1.2-1.2L701.3 51z"/><path class="st5" d="M539.9 333.8s27.5 5.6 38.1-7.3M554.7 310.8c8.1 1 25.9 1.9 34-8M566.2 287.7c8.6.9 25 1.2 32.6-8.1M581 263.7c9 .5 22.2-.3 28.8-8.4M594.4 239.8c8.7.1 19.8-1.4 25.7-8.5M606.6 216.8c8.6 0 18.8-1.6 24.5-8.5M620.1 193c7.7-.4 16.2-2.5 21.1-8.4M633.7 169.1c6.9-.8 13.9-3 18.2-8.2M648.5 144.5c5.2-1.2 11.7-4.8 14.9-8.8M673.9 112.2c-2.5 3-7.7 6.2-11.5 7.5"/><g><ellipse class="st2" cx="490.8" cy="371.6" rx="13.3" ry="11.5"/><circle class="st3" cx="493.1" cy="370.3" r="2.3"/></g><circle class="st6" cx="518.8" cy="179.5" r="23.5"/><circle class="st7" cx="697.4" cy="406.6" r="23.5"/><circle class="st8" cx="386.5" cy="491.4" r="23.5"/><g><path class="st9" d="M713.1 371c1.7-6.7 2.3-13.6 1.6-20.4-.7-6.8-2.7-13.4-5.8-19.4-3.1-6-7.4-11.5-12.5-16s-11.1-8.1-17.5-10.6c6.7 1.7 13.1 5 18.5 9.4 5.5 4.4 10 10 13.2 16.3 3.2 6.3 5.1 13.2 5.6 20.2.4 7-.7 14.1-3.1 20.5z"/></g><g><path class="st9" d="M701.8 369.6c1.2-5.1 1.6-10.4 1-15.5-.6-5.1-2.1-10.1-4.4-14.7-2.3-4.6-5.6-8.7-9.4-12.1-3.8-3.4-8.3-6.2-13.2-8.2 5.1 1.2 10 3.7 14.2 7 4.2 3.3 7.7 7.6 10.2 12.4 2.4 4.8 3.9 10.1 4.2 15.5.2 5.3-.6 10.7-2.6 15.6z"/></g><g><path class="st9" d="M474.1 178.3c-6.7-1.7-13.6-2.3-20.4-1.6-6.8.7-13.4 2.7-19.4 5.8-6 3.1-11.5 7.4-16 12.5s-8.1 11.1-10.6 17.5c1.7-6.7 5-13.1 9.4-18.5 4.4-5.5 10-10 16.3-13.2 6.3-3.2 13.2-5.1 20.2-5.6s14 .6 20.5 3.1z"/></g><g><path class="st9" d="M472.7 189.6c-5.1-1.2-10.4-1.6-15.5-1-5.1.6-10.1 2.1-14.7 4.4-4.6 2.3-8.7 5.6-12.1 9.4-3.4 3.8-6.2 8.3-8.2 13.2 1.2-5.1 3.7-10 7-14.2 3.3-4.2 7.6-7.7 12.4-10.2 4.8-2.4 10.1-3.9 15.5-4.2 5.3-.3 10.7.6 15.6 2.6z"/></g><g><path class="st9" d="M410.3 517.8c4.9 4.9 10.6 8.9 16.8 11.8 6.2 2.8 12.9 4.5 19.7 4.9 6.8.4 13.6-.5 20.1-2.5 6.5-2.1 12.6-5.4 18.1-9.7-4.9 4.9-10.9 8.7-17.5 11.1-6.6 2.4-13.7 3.5-20.7 3.1-7-.4-14-2.3-20.2-5.5-6.5-3.3-12-7.8-16.3-13.2z"/></g><g><path class="st9" d="M417.3 508.8c3.8 3.7 8.1 6.7 12.8 8.8 4.7 2.1 9.8 3.4 14.9 3.7 5.1.3 10.3-.3 15.2-1.9 4.9-1.5 9.6-4 13.8-7.2-3.7 3.8-8.3 6.8-13.3 8.7-5 1.9-10.5 2.7-15.9 2.4-5.4-.3-10.7-1.8-15.5-4.3-4.6-2.5-8.8-6-12-10.2z"/></g></svg>