<svg xmlns="http://www.w3.org/2000/svg" viewBox="0 0 1000 1000">
  <path fill="#9198CC" stroke="#2B2B2B" stroke-width=".5" stroke-miterlimit="10" d="M217 663.8s-68.3 6-77.3-44c-.7-4 2.2-7.8 6.3-8l81.1-3.7"/>
  <path fill="#9198CC" stroke="#2B2B2B" stroke-width=".5" stroke-miterlimit="10" d="M422.6 379.9c131.5-12.8 249.5 93.4 263.5 237.3 1.1 11.5 1.5 23 1.2 34.2 37 14.8 66.8 34.7 85.9 57.9 21.9-9.5 42.2-15.6 59.2-17.9l-.5-.9-6.9-11.6-2.8-4.7c-10.7-18.2-1.5-43.6 20.4-56.5l27.6-16.3c2.3-1.3 5-.9 6.1 1l27.1 46c7 11.9 4.5 27.2-5 39.1l.4.7c15-2.5 29.7 2.7 36.7 14.6l27.1 46c1.1 1.9.2 4.5-2.1 5.8L933 770.8c-21.9 12.9-48.6 8.6-59.4-9.5l-5-8.5c-14.2 22.4-40.7 49.9-72.3 74.2-8.4 6.4-15.3 10.9-24.6 17-28.2 18.7-56.3 33.1-81.6 42.5-44.5 18.3-99.7 29.1-159.5 29.1-57.5 0-110.8-10-154.3-27-18-6.5-35.2-15.3-51.2-26.1-3-2-5.9-4-8.7-6.1-.7-.6-1.5-1.1-2.2-1.7-1.7-1.3-3.3-2.5-4.9-3.8-53.9-42.9-91.8-109.6-99.3-187.2-14.1-144 81.1-271 212.6-283.8z"/>
  <ellipse cx="483.3" cy="512.9" fill="#221F1F" rx="15.1" ry="13"/>
  <circle cx="480.7" cy="511.4" r="2.6" fill="#FFF"/>
  <ellipse cx="329.1" cy="512.9" fill="#221F1F" rx="15.1" ry="13"/>
  <circle cx="332.3" cy="511.4" r="2.6" fill="#FFF"/>
  <path fill="#D6D9ED" stroke="#2B2B2B" stroke-width=".25" stroke-miterlimit="10" d="M409.8 586.1c170.9 0 205.4 153.3 205.4 153.3 114.5 26.1 181 88.1 181 88.1-7.6 5.8-15.6 11.5-24 17-28.2 18.7-56.3 33.1-81.6 42.5-44.5 18.3-99.7 29.1-159.5 29.1-57.5 0-110.8-10-154.3-27-18-6.5-35.2-15.3-51.2-26.1-3-2-5.9-4-8.7-6.1-.7-.6-1.5-1.1-2.2-1.7-1.7-1.3-3.3-2.5-4.9-3.8-48.7-38.8-84.3-97-96.3-165.2 1.1-5.9 29.4-100.1 196.3-100.1z"/>
  <path fill="none" stroke="#1A1A1A" stroke-miterlimit="10" d="M426.8 558.1c-10.3 7.6-24.3 7.8-34.8.4l-.6-.4" stroke-linecap="round" stroke-linejoin="round"/>
  <path fill="#FFC543" d="M278.6 743c4.5-4.5 4.7-11.5.6-16.2-5.8-4.4-10.3-59.7-10.3-125.8v-.1h35.6v.1c0 62.4 3.9 114.7 9.3 124.4.4.4 1.3 1.5 1.3 1.5 3.7 5.2 3.2 12.2-1.4 16.8l-.1.1-.9-.9.1-.1c4.3-4.3 4.6-11 .8-15.7h-2.9c3.6 5.2 3 12.1-1.5 16.6l-.1.1-.9-.9.1-.1c4.3-4.3 4.6-11 .8-15.7h-3.5c3.6 5.2 3 12.1-1.5 16.6l-.1.1-.9-.9.1-.1c4.3-4.3 4.6-11 .8-15.7h-3.5c3.6 5.2 3 12.1-1.5 16.6l-.1.1-.9-.9.1-.1c4.3-4.3 4.6-11 .8-15.7h-3.5c3.6 5.2 3 12.1-1.5 16.6l-.1.1-.9-.9.1-.1c4.3-4.3 4.6-11 .8-15.7h-3.5c3.6 5.2 3 12.1-1.5 16.6l-.1.1-.9-.9.1-.1c4.3-4.3 4.6-11 .8-15.7h-3.5c3.6 5.2 3 12.1-1.5 16.6l-.1.1-.9-.9.1-.1c4.3-4.3 4.6-11 .8-15.7h-3c3.6 5.1 3 12.2-1.4 16.6l-.1.1-.5-.8z"/>
  <path fill="#2B2B2B" d="M304.4 601c0 62.9 4 114.9 9.3 124.4.4.4 1.3 1.6 1.3 1.6 3.6 5 3.2 12.1-1.4 16.6l-.7-.7c4.3-4.3 4.6-11.2.8-15.9h-3.2c3.6 5 3.2 12.1-1.4 16.6l-.7-.7c4.3-4.3 4.6-11.2.8-15.9h-3.8c3.6 5 3.2 12.1-1.4 16.6l-.7-.7c4.3-4.3 4.6-11.2.8-15.9h-3.8c3.6 5 3.2 12.1-1.4 16.6l-.7-.7c4.3-4.3 4.6-11.2.8-15.9h-3.8c3.6 5 3.2 12.1-1.4 16.6l-.7-.7c4.3-4.3 4.6-11.2.8-15.9h-3.8c3.6 5 3.2 12.1-1.4 16.6l-.7-.7c4.3-4.3 4.6-11.2.8-15.9H285c3.6 5 3.2 12.1-1.4 16.6l-.7-.7c4.3-4.3 4.6-11.2.8-15.9h-3.3c3.7 5 3.2 12.1-1.3 16.7l-.7-.7c4.5-4.5 4.6-11.6.5-16.3-5.7-4.4-10.2-59-10.2-125.7h35.7m.3-.3H268.9v.2c0 67.2 4.4 121.3 10.3 125.9 4 4.6 3.8 11.6-.5 15.9l-.2.2.2.2.7.7.2.2.2-.2c4.4-4.4 5.1-11.5 1.6-16.6h2.7c3.7 4.6 3.3 11.3-.9 15.5l-.2.2.2.2.7.7.2.2.2-.2c4.4-4.4 5.1-11.3 1.7-16.5h3.2c3.7 4.6 3.3 11.3-.9 15.5l-.2.2.2.2.7.7.2.2.2-.2c4.4-4.4 5.1-11.3 1.7-16.5h3.2c3.7 4.6 3.3 11.3-.9 15.5l-.2.2.2.2.7.7.2.2.2-.2c4.4-4.4 5.1-11.3 1.7-16.5h3.2c3.7 4.6 3.3 11.3-.9 15.5l-.2.2.2.2.7.7.2.2.2-.2c4.4-4.4 5.1-11.3 1.7-16.5h3.2c3.7 4.6 3.3 11.3-.9 15.5l-.2.2.2.2.7.7.2.2.2-.2c4.4-4.4 5.1-11.3 1.7-16.5h3.2c3.7 4.6 3.3 11.3-.9 15.5l-.2.2.2.2.7.7.2.2.2-.2c4.4-4.4 5.1-11.3 1.7-16.5h2.6c3.7 4.6 3.3 11.3-.9 15.5l-.2.2.2.2.7.7.2.2.2-.2c4.6-4.6 5.1-11.7 1.4-16.9 0-.1-.9-1.1-1.3-1.6-5.3-9.8-9.2-62-9.2-124.3v-.9h-.5z"/>
  <path fill="#891502" d="M304.5 611.4h-35.4c.1 8.6.2 17 .4 25.1h35.4c-.2-8.1-.3-16.5-.4-25.1zM305.8 660.3h-35.4c.4 9.1 1 17.5 1.6 25.1h35.4c-.7-7.6-1.2-16-1.6-25.1zM315 727s-.8-1.1-1.2-1.5c-1.4-2.4-2.7-7.8-3.8-15.5h-35.4c1.4 9.3 3 15.2 4.7 16.6 4.2 4.7 4.1 11.9-.4 16.3l.7.7c4.5-4.5 5-11.6 1.3-16.7h3.3c3.8 4.7 3.5 11.5-.8 15.9l.7.7c4.5-4.5 5-11.6 1.4-16.6h3.8c3.8 4.7 3.5 11.5-.8 15.9l.7.7c4.5-4.5 5-11.6 1.4-16.6h3.8c3.8 4.7 3.5 11.5-.8 15.9l.7.7c4.5-4.5 5-11.6 1.4-16.6h3.8c3.8 4.7 3.5 11.5-.8 15.9l.7.7c4.5-4.5 5-11.6 1.4-16.6h3.8c3.8 4.7 3.5 11.5-.8 15.9l.7.7c4.5-4.5 5-11.6 1.4-16.6h3.8c3.8 4.7 3.5 11.5-.8 15.9l.7.7c4.5-4.5 5-11.6 1.4-16.6h3.2c3.8 4.7 3.5 11.5-.8 15.9l.7.7c4.1-4.4 4.5-11.5.9-16.5z"/>
  <g stroke-width=".5" stroke-miterlimit="10">
    <path fill="#D6D9ED" stroke="#2B2B2B" d="M343 83.9l47.8 340.3 2.6 18.3c10.2 8.1 24.6 6.7 34.6 1l1.7-1L343 83.9z"/>
    <path fill="none" stroke="#6B6B6B" d="M429.7 442.5s-31.7-2.6-39.1-20M420.8 412.9c-9.1-1.5-28.8-6.1-34.5-19.4M415.5 384.2c-9.6-1.7-27.6-6.6-32.9-19.1M406.9 353.3c-9.9-2.3-24.1-7.4-28.7-18.2M400 323.1c-9.5-2.6-21.1-7.7-25.2-17.4M393.9 294.2c-9.3-2.7-19.9-7.6-23.9-17M386.7 264c-8.3-2.9-16.9-7.8-20.3-15.8M379.4 233.7c-7.2-3-14.2-7.6-17.2-14.6M371.1 202.3c-5.3-2.9-11.2-8.9-13.5-14.3M353.5 159.2c1.8 4.1 6.5 9.2 10.2 11.8" stroke-linecap="round" stroke-linejoin="round"/>
  </g>
  <path fill="#3B5CA9" d="M586.7 660.7S525 690.5 498.8 647c-2.1-3.5-.7-8.1 3-9.7l70.4-30.4"/>
  <path fill="#9198CC" stroke="#2B2B2B" stroke-width=".5" stroke-miterlimit="10" d="M589.2 658.3s-61.7 29.8-87.9-13.7c-2.1-3.5-.7-8.1 3-9.7l73.5-33.2"/>
  <path fill="#891502" d="M415 629c-67.2 0-122.9-6.1-159.8-10.1-18.1-2-31.1-3.4-38.9-3.4-5.2 0-7.7.7-7.7 2.1h-.2v-35.2c0-1.5 2.3-2.3 7.3-2.3 7.4 0 20 1.5 37.5 3.6 37 4.4 93 11.1 161.3 11.1 91.5 0 178-12.2 257-36.4.6-.2 1.2-.3 1.9-.3 3 0 5.6 2 6.2 5l4.8 21.3c.7 3.2-1.2 6.5-4.3 7.5C599.5 616.4 510.3 629 415 629z"/>
  <path fill="#2B2B2B" d="M673.5 558.1c2.8 0 5.4 1.9 6.1 4.9l4.8 21.3c.7 3.2-1.1 6.4-4.2 7.3-94.9 29.1-187.4 37.3-265.1 37.3-99.8 0-175-13.5-198.7-13.5-5.1 0-7.9.6-7.9 2.2v-35.2c0-1.5 2.5-2.1 7.2-2.1 22.8 0 98 14.6 198.8 14.6 75.1 0 164.4-8.1 257.1-36.4.6-.3 1.3-.4 1.9-.4m0-.3c-.6 0-1.3.1-1.9.3-79.1 24.1-165.5 36.4-257 36.4-68.3 0-124.3-6.6-161.3-11.1-17.5-2.1-30.1-3.6-37.5-3.6-5.2 0-7.5.7-7.5 2.4v35.2h.5c0-.6.6-1.1 1.8-1.4 1.3-.3 3.2-.5 5.8-.5 7.7 0 20.8 1.4 38.8 3.4 36.9 4 92.7 10.1 159.8 10.1 95.3 0 184.5-12.5 265.1-37.3 3.2-1 5.2-4.3 4.4-7.6l-4.8-21.3c-.6-2.9-3.2-5-6.2-5z"/>
  <path fill="#FFC543" d="M224.4 580.6v35.1c6.6.5 15 1.4 25.1 2.5v-34.8c-10.1-1.3-18.5-2.3-25.1-2.8zM274.3 586.2v34.6c7.8.8 16.1 1.7 25.1 2.5v-34.4c-9-.9-17.4-1.8-25.1-2.7zM323.5 591v34.3c8 .6 16.4 1.2 25.1 1.6v-34.2c-8.7-.5-17.1-1-25.1-1.7zM373.4 594v34.1c8.1.3 16.5.5 25.1.6v-34.1c-8.6-.1-17-.3-25.1-.6zM422.1 594.7v34.1c8.2-.1 16.6-.2 25.1-.5v-34.1c-8.5.3-16.9.5-25.1.5zM471.6 593.1v34.2c8.2-.4 16.6-1 25.1-1.7v-34.3c-8.5.8-16.9 1.4-25.1 1.8zM523.9 588.7v34.4c8.3-.9 16.6-1.9 25.1-3v-34.6c-8.5 1.2-16.9 2.3-25.1 3.2zM573.2 581.7v34.8c8.3-1.3 16.7-2.8 25.1-4.4v-35c-8.5 1.6-16.9 3.1-25.1 4.6zM684.4 584.2l-4.8-21.3c-.8-3.6-4.5-5.7-7.9-4.6-.1 0-.2.1-.3.1v35.7c2.9-.9 5.9-1.7 8.8-2.6 3.1-.9 4.9-4.1 4.2-7.3zM620.5 572.1v35.2c8.3-1.9 16.7-3.9 25.1-6v-35.5c-8.4 2.3-16.8 4.4-25.1 6.3z"/>
  <circle cx="333.7" cy="512.2" r="50.4" fill="#FFF" fill-opacity=".38" stroke="#2B2B2B" stroke-width="8" stroke-miterlimit="10"/>
  <circle cx="483.3" cy="512.2" r="50.4" fill="#FFF" fill-opacity=".38" stroke="#2B2B2B" stroke-width="8" stroke-miterlimit="10"/>
  <path fill="none" stroke="#2B2B2B" stroke-width="8" stroke-miterlimit="10" d="M432.9 515.6c-13.2-13.2-34.5-13.2-47.7 0"/>
  <path d="M417.8 467.8c-.4-.6-1.2-.9-1.9-.8l-5.5.7 2.9-7.8c.4-1.1-.2-2.2-1.2-2.6-1.1-.4-2.2.2-2.6 1.2l-4 10.9c-.2.7-.1 1.4.3 2 .4.6 1.1.9 1.8.8l5.4-.7-4.2 10.6c-.4 1.1.1 2.2 1.1 2.7.3.1.7.2 1.1.1.7-.1 1.3-.6 1.6-1.3l5.5-13.8c.2-.6.1-1.4-.3-2z"/>
  <g>
    <path fill="#2B2B2B" d="M163.9 636.5c-.6-.2-1.2-.6-1.6-1.2L81.4 519.1c-.3-.4-.3-.9-.1-1.3.5-.7 1.5-.6 2 0l84.3 113.7c1 1.5.7 3.5-.8 4.6-.8.6-1.9.8-2.9.4z"/>
    <path fill="#2B2B2B" d="M167 632.4l-3.8 2.7c-1.1.7-2.5.5-3.3-.6-.7-1.1-.5-2.5.6-3.3l3.8-2.7c1.1-.7 2.5-.5 3.3.6.7 1.1.5 2.5-.6 3.3zM163.7 628.8l-2.7 1.9c-1.1.7-2.5.5-3.3-.6-.7-1.1-.5-2.5.6-3.3l2.7-1.9c1.1-.7 2.5-.5 3.3.6.7 1.1.5 2.6-.6 3.3z"/>
  </g>
</svg>
