<svg id="Layer_1" xmlns="http://www.w3.org/2000/svg" xmlns:xlink="http://www.w3.org/1999/xlink" viewBox="0 0 1000 1000"><style>.st0{clip-path:url(#SVGID_2_);fill:#9198CC;stroke:#2B2B2B;stroke-width:0.25;stroke-miterlimit:10;} .st1{clip-path:url(#SVGID_2_);fill:#221F1F;} .st2{clip-path:url(#SVGID_2_);fill:#FFFFFF;} .st3{clip-path:url(#SVGID_2_);fill:#D6D9ED;stroke:#2B2B2B;stroke-width:0.25;stroke-miterlimit:10;} .st4{clip-path:url(#SVGID_2_);fill:none;stroke:#1A1A1A;stroke-width:0.75;stroke-linecap:round;stroke-linejoin:round;stroke-miterlimit:10;} .st5{clip-path:url(#SVGID_2_);} .st6{fill:#D6D9ED;stroke:#2B2B2B;stroke-width:0.25;stroke-miterlimit:10;} .st7{fill:none;stroke:#6B6B6B;stroke-width:0.25;stroke-linecap:round;stroke-linejoin:round;stroke-miterlimit:10;} .st8{clip-path:url(#SVGID_2_);fill:none;} .st9{clip-path:url(#SVGID_2_);fill:none;stroke:#505680;stroke-width:0.25;stroke-miterlimit:10;} .st10{clip-path:url(#SVGID_2_);fill:#E5EBF1;stroke:#505680;stroke-width:0.25;stroke-miterlimit:10;} .st11{fill:#D5D5D5;stroke:#55504F;stroke-width:0.5;stroke-miterlimit:10;} .st12{fill:#505680;} .st13{fill:#F6F7F7;stroke:#231F20;stroke-width:0.25;stroke-miterlimit:10;} .st14{fill:#3F458A;}</style><defs><path id="SVGID_1_" d="M89 244.6h822v588H89z"/></defs><clipPath id="SVGID_2_"><use xlink:href="#SVGID_1_" overflow="visible"/></clipPath><path class="st0" d="M359.4 513.1C242.7 501.8 137.9 596 125.5 723.7c-1 10.2-1.3 20.4-1.1 30.4 3.1 51.3 33.1 79 16.1 99.5l-44.4-7.4c-19.5-8.4-85.5-54.6-100.6-56.7l.5-.8 6.1-10.3 2.5-4.2c9.5-16.1 1.3-38.7-18.1-50.2L-38 709.6c-2-1.2-4.4-.8-5.4.9l-24 40.8c-6.2 10.5-4 24.1 4.4 34.7l-.3.6c-13.3-2.2-26.3 2.4-32.5 13l-24 40.8c-1 1.7-.1 4 1.9 5.1l24.5 14.4c19.5 11.5 43.2 7.7 52.7-8.4l4.4-7.5c12.6 19.9 36.1 44.3 64.2 65.8 7.4 5.7 13.6 9.6 21.9 15.1 25 16.6 50 29.4 72.4 37.7 39.5 16.2 88.5 25.8 141.6 25.8 51.1 0 98.3-8.9 137-24 16-5.8 31.2-13.6 45.4-23.1 2.7-1.8 5.2-3.6 7.7-5.4.7-.5 1.3-1 2-1.5 1.5-1.1 3-2.2 4.4-3.4 47.8-38.1 81.4-97.2 88.2-166.1 12.1-127.6-72.4-240.4-189.1-251.8z"/><ellipse class="st1" cx="295" cy="634.9" rx="13.4" ry="11.6"/><ellipse class="st1" cx="442.3" cy="634.9" rx="13.4" ry="11.6"/><circle class="st2" cx="297.2" cy="633.6" r="2.3"/><circle class="st2" cx="439.5" cy="633.6" r="2.3"/><path class="st3" d="M370.6 695.7c-151.7 0-182.3 136.1-182.3 136.1-101.6 23.1-160.6 78.1-160.6 78.1C34.5 915 41.6 920.1 49 925c25 16.6 50 29.4 72.4 37.7 39.5 16.2 88.5 25.8 141.6 25.8 51.1 0 98.3-8.9 137-24 16-5.8 31.2-13.6 45.4-23.1 2.7-1.8 5.2-3.6 7.7-5.4.7-.5 1.3-1 2-1.5 1.5-1.1 3-2.2 4.4-3.4 43.2-34.4 74.8-86.1 85.4-146.6-1.2-5.2-26.2-88.8-174.3-88.8z"/><path class="st4" d="M384.9 680.2c-9.2-6.7-21.6-6.9-30.9-.4l-.5.4"/><g class="st5"><path class="st6" d="M434.7 270.2l-42.4 302.1-2.3 16.3c-9.1 7.2-21.8 5.9-30.8.8l-1.5-.8 77-318.4z"/><path class="st7" d="M357.7 588.5s28.1-2.3 34.7-17.7M365.6 562.1c8.1-1.3 25.6-5.4 30.6-17.2M370.3 536.7c8.5-1.5 24.5-5.8 29.2-16.9M377.9 509.3c8.8-2 21.4-6.5 25.5-16.2M384.1 482.5c8.4-2.3 18.7-6.8 22.4-15.4M389.5 456.9c8.3-2.4 17.7-6.8 21.2-15.1M395.9 430c7.3-2.6 15-6.9 18-14M402.4 403.2c6.4-2.7 12.6-6.7 15.3-13M409.7 375.3c4.7-2.6 9.9-7.9 12-12.7M425.3 337c-1.6 3.6-5.8 8.1-9.1 10.5"/></g><path class="st0" d="M222.8 832.5s76-25.5 64.8-69.2c-.9-3.5-4.7-5.5-8-4.1l-74.5 27M502.4 823.4s-57.1-21.1-45.4-64.6c.9-3.5 4.7-5.4 8.1-4l66.5 27.8"/><path class="st8" d="M703.6 788.8l-581.3-1.6 4.7-633.6h576.6z"/><path class="st9" d="M289.6 614s23.5-3.6 34.5-20.5M442.4 614s-23.5-3.6-34.5-20.5"/><path class="st10" d="M486.5 633.7l-6.5-14.4-6.1 14.4c-.4.8-.6 1.7-.6 2.7 0 3.8 3.1 6.9 6.9 6.9s6.9-3.1 6.9-6.9c-.1-1-.3-1.9-.6-2.7zM470.9 614.4l-3.9-8.8-3.7 8.8c-.2.5-.3 1.1-.3 1.6 0 2.3 1.9 4.2 4.2 4.2s4.2-1.9 4.2-4.2c-.2-.5-.3-1.1-.5-1.6z"/><path class="st11" d="M507 747.5h288v40.2H507zM522.8 708.9h288v38.6h-288zM513.5 509.7h288V608h-288z"/><path class="st12" d="M548.1 736.9c-1 1-2.5 1.5-4.3 1.5-2.3 0-4.1-.9-5.6-2.7l1.6-2.6c.6.6 1.3 1.1 1.9 1.5.7.4 1.3.5 1.9.5.8 0 1.4-.2 1.8-.7.4-.5.6-1.1.6-2v-9.3h-6.3V720h9.8v12.5c.2 2-.3 3.4-1.4 4.4zM566.8 738.3l-1.6-3.8h-8.9l-1.6 3.8H551l8-18.2h3.6l7.9 18.2h-3.7zm-9.3-6.8h6.4l-3.2-7.6-3.2 7.6zM569.2 720.1h3.7l5.4 14.3 5.4-14.3h3.6l-7.3 18.2h-3.6l-7.2-18.2zM601.8 738.3l-1.6-3.8h-8.9l-1.6 3.8H586l8-18.2h3.6l7.9 18.2h-3.7zm-9.3-6.8h6.4l-3.2-7.6-3.2 7.6zM616.2 723.5c-1-.3-1.8-.5-2.6-.5s-1.5.2-2 .5-.7.7-.7 1.3c0 .5.2.9.5 1.3.3.3.8.6 1.3.8.5.2 1.2.5 2.1.7 1.2.4 2.2.7 3 1.1.8.4 1.5.9 2 1.6s.8 1.6.8 2.8c0 1.1-.3 2.1-.9 2.9-.6.8-1.4 1.5-2.5 1.9-1 .4-2.2.7-3.6.7s-2.8-.3-4.2-.8c-1.4-.5-2.5-1.2-3.5-2.1l1.5-3c.9.8 2 1.5 3.1 2s2.2.7 3.2.7 1.7-.2 2.3-.6c.6-.4.8-.9.8-1.5 0-.5-.2-.9-.5-1.3-.3-.3-.8-.6-1.3-.8-.5-.2-1.2-.4-2.1-.7-1.2-.4-2.2-.7-3-1.1-.8-.3-1.4-.9-2-1.6s-.8-1.6-.8-2.8c0-1.1.3-2 .8-2.8s1.4-1.4 2.4-1.8c1-.4 2.2-.6 3.6-.6 1.2 0 2.3.2 3.5.5 1.2.3 2.2.8 3.1 1.4l-1.4 3c-1-.5-2-.9-2.9-1.2zM634.8 723.6c-.9-.4-1.8-.6-2.7-.6-1.1 0-2.2.3-3.1.8-.9.5-1.7 1.3-2.2 2.2-.5.9-.8 2-.8 3.1s.3 2.2.8 3.1c.5.9 1.3 1.7 2.2 2.2.9.5 2 .8 3.1.8.9 0 1.7-.2 2.6-.6.9-.4 1.7-.9 2.3-1.6l2.1 2.3c-1 1-2.1 1.7-3.3 2.3s-2.5.8-3.8.8c-1.8 0-3.4-.4-4.8-1.2-1.5-.8-2.6-2-3.4-3.4-.8-1.4-1.2-3-1.2-4.7s.4-3.3 1.3-4.7c.8-1.4 2-2.5 3.5-3.4 1.5-.8 3.1-1.2 4.9-1.2 1.3 0 2.6.3 3.8.8 1.2.5 2.3 1.2 3.2 2.2l-2 2.5c-.8-.7-1.6-1.2-2.5-1.7zM653.4 738.3l-3.1-5.4h-4.8v5.4H642v-18.2h7.6c2.4 0 4.2.5 5.5 1.6 1.3 1.1 1.9 2.6 1.9 4.6 0 1.4-.3 2.6-.9 3.6s-1.5 1.8-2.7 2.3l4 6h-4zm-7.9-8.4h4.1c1.3 0 2.3-.3 3-.9s1-1.4 1-2.5-.3-1.9-1-2.5c-.7-.6-1.7-.8-3-.8h-4.1v6.7zM660.8 720.1h3.5v18.2h-3.5v-18.2zM681.6 721.8c1.3 1.1 1.9 2.6 1.9 4.6 0 2.1-.6 3.7-1.9 4.8-1.3 1.2-3 1.7-5.3 1.7h-4v5.4h-3.5v-18.2h7.5c2.2 0 4 .6 5.3 1.7zm-2.5 7.3c.7-.6 1.1-1.4 1.1-2.5s-.4-1.9-1.1-2.5c-.7-.6-1.7-.8-3-.8h-3.8v6.7h3.8c1.3-.1 2.3-.4 3-.9zM684.3 720.1h14.8v3.1h-5.7v15.1H690v-15.1h-5.7v-3.1z"/><path class="st11" d="M507.4 657.5h288v51.3h-288z"/><g><path class="st12" d="M532.1 679.7c-.9-.4-1.8-.6-2.7-.6-1.1 0-2.2.3-3.1.8s-1.7 1.3-2.2 2.2c-.5.9-.8 2-.8 3.1s.3 2.2.8 3.1c.5.9 1.3 1.7 2.2 2.2.9.5 2 .8 3.1.8.9 0 1.7-.2 2.6-.6.9-.4 1.7-.9 2.3-1.6l2.1 2.3c-1 1-2.1 1.7-3.3 2.3s-2.5.8-3.8.8c-1.8 0-3.4-.4-4.8-1.2s-2.6-2-3.4-3.4c-.8-1.4-1.2-3-1.2-4.7s.4-3.3 1.3-4.7c.8-1.4 2-2.5 3.5-3.4 1.5-.8 3.1-1.2 4.9-1.2 1.3 0 2.6.3 3.8.8 1.2.5 2.3 1.2 3.2 2.2l-2 2.5c-.9-.7-1.6-1.3-2.5-1.7zM547.9 679.5c-1-.3-1.8-.5-2.6-.5s-1.5.2-2 .5-.7.7-.7 1.3c0 .5.2.9.5 1.3.3.3.8.6 1.3.8.5.2 1.2.5 2.1.7 1.2.4 2.2.7 3 1.1s1.5.9 2 1.6.8 1.6.8 2.8c0 1.1-.3 2.1-.9 2.9-.6.8-1.4 1.5-2.5 1.9-1 .4-2.2.7-3.6.7s-2.8-.3-4.2-.8c-1.4-.5-2.5-1.2-3.5-2.1l1.5-3c.9.8 2 1.5 3.1 2s2.2.7 3.2.7 1.7-.2 2.3-.6.8-.9.8-1.5c0-.5-.2-.9-.5-1.3s-.8-.6-1.3-.8c-.5-.2-1.2-.4-2.1-.7-1.2-.4-2.2-.7-3-1.1-.8-.3-1.4-.9-2-1.6-.6-.7-.8-1.6-.8-2.8 0-1.1.3-2 .8-2.8s1.4-1.4 2.4-1.8c1-.4 2.2-.6 3.6-.6 1.2 0 2.3.2 3.5.5 1.2.3 2.2.8 3.1 1.4l-1.4 3c-1-.4-2-.9-2.9-1.2zM564.2 679.5c-1-.3-1.8-.5-2.6-.5s-1.5.2-2 .5-.7.7-.7 1.3c0 .5.2.9.5 1.3.3.3.8.6 1.3.8.5.2 1.2.5 2.1.7 1.2.4 2.2.7 3 1.1s1.5.9 2 1.6.8 1.6.8 2.8c0 1.1-.3 2.1-.9 2.9-.6.8-1.4 1.5-2.5 1.9-1 .4-2.2.7-3.6.7s-2.8-.3-4.2-.8c-1.4-.5-2.5-1.2-3.5-2.1l1.5-3c.9.8 2 1.5 3.1 2s2.2.7 3.2.7 1.7-.2 2.3-.6.8-.9.8-1.5c0-.5-.2-.9-.5-1.3s-.8-.6-1.3-.8c-.5-.2-1.2-.4-2.1-.7-1.2-.4-2.2-.7-3-1.1-.8-.3-1.4-.9-2-1.6-.6-.7-.8-1.6-.8-2.8 0-1.1.3-2 .8-2.8s1.4-1.4 2.4-1.8c1-.4 2.2-.6 3.6-.6 1.2 0 2.3.2 3.5.5 1.2.3 2.2.8 3.1 1.4l-1.4 3c-1-.4-1.9-.9-2.9-1.2z"/></g><g><path class="st12" d="M522.2 758.2h2.5v8.1h10.4v-8.1h2.5v18.2h-2.5v-7.8h-10.4v7.8h-2.5v-18.2zM540.4 758.2h14.2v2.3h-5.9v15.9h-2.5v-15.9h-5.9v-2.3zM557.5 758.2h3l6.7 12.8 6.6-12.8h3v18.2h-2.3v-14.5l-6.5 12.6h-1.5l-6.5-12.6v14.5h-2.3v-18.2zM581.9 758.2h2.5v15.9h8v2.3h-10.5v-18.2z"/></g><g><path class="st12" d="M553.6 551.5h4l-6.8 20.2h-4l-4.6-15.3-4.7 15.3h-4l-6.8-20.2h4.2l4.8 16 4.7-16h3.8l4.8 16.1 4.6-16.1zM560.1 551.5H575v3.4h-11v5h9.8v3.4H564v5.1h11.3v3.4h-15.2v-20.3zM593.3 552.8c1.2.9 1.9 2.1 1.9 3.7 0 1.1-.3 2.1-.9 2.9-.6.8-1.5 1.3-2.6 1.6 1.3.3 2.4.8 3.2 1.7.8.9 1.1 2 1.1 3.4 0 1.7-.7 3.1-2 4.1-1.3 1-3.2 1.5-5.5 1.5h-9.2v-20.2h9c2.1 0 3.8.4 5 1.3zm-2.9 6.3c.6-.4.9-1.1.9-1.8 0-.8-.3-1.4-.9-1.8-.6-.4-1.4-.6-2.4-.6h-4.9v4.9h4.9c1 0 1.8-.3 2.4-.7zm.5 8.6c.7-.5 1-1.2 1-2s-.3-1.5-1-2-1.7-.7-2.9-.7h-4.9v5.3h4.9c1.3.1 2.2-.1 2.9-.6zM616.3 555.2c-1.1-.3-2-.5-2.9-.5-.9 0-1.7.2-2.2.5-.5.3-.8.8-.8 1.4 0 .6.2 1 .6 1.4.4.4.8.7 1.4.9.6.2 1.3.5 2.3.8 1.4.4 2.5.8 3.4 1.2.9.4 1.6 1 2.2 1.8s.9 1.8.9 3.1c0 1.2-.3 2.3-1 3.2-.7.9-1.6 1.6-2.7 2.1-1.2.5-2.5.7-4 .7-1.6 0-3.1-.3-4.6-.9-1.5-.6-2.8-1.4-3.9-2.4l1.6-3.3c1 .9 2.2 1.7 3.4 2.2 1.3.5 2.5.8 3.6.8s1.9-.2 2.5-.6c.6-.4.9-1 .9-1.7 0-.6-.2-1.1-.6-1.4-.4-.4-.9-.7-1.4-.9-.6-.2-1.4-.5-2.4-.8-1.4-.4-2.5-.8-3.4-1.2-.9-.4-1.6-1-2.2-1.7-.6-.8-.9-1.8-.9-3.1 0-1.2.3-2.2.9-3.1.6-.9 1.5-1.6 2.7-2 1.1-.5 2.5-.7 4-.7 1.3 0 2.6.2 3.9.6 1.3.4 2.4.9 3.4 1.6l-1.6 3.4c-.9-.5-2-1-3.1-1.4zM622.7 551.5h16.5v3.4h-6.3v16.8H629v-16.8h-6.3v-3.4zM654.9 571.7l-1.8-4.3h-9.9l-1.8 4.3h-4l8.9-20.2h4l8.8 20.2h-4.2zm-10.3-7.6h7.1l-3.5-8.5-3.6 8.5zM675.6 551.5h3.8v20.2h-3.7l-10.4-13.9v13.9h-3.8v-20.2h3.7l10.4 14v-14zM698.1 552.8c1.6.9 2.9 2.1 3.8 3.6s1.4 3.3 1.4 5.2-.5 3.7-1.4 5.2c-.9 1.5-2.2 2.7-3.8 3.6-1.6.9-3.5 1.3-5.5 1.3h-8.3v-20.2h8.4c2 0 3.8.4 5.4 1.3zm-2 14.7c1-.6 1.8-1.4 2.3-2.4.6-1 .8-2.2.8-3.5 0-1.3-.3-2.5-.9-3.5-.6-1-1.4-1.8-2.4-2.4-1-.6-2.1-.9-3.4-.9H688v13.4h4.6c1.4.1 2.5-.2 3.5-.7zM721.1 571.7l-1.8-4.3h-9.9l-1.8 4.3h-4l8.9-20.2h4l8.8 20.2h-4.2zm-10.3-7.6h7.1l-3.5-8.5-3.6 8.5zM740.3 571.7l-3.5-6h-5.3v6h-3.9v-20.2h8.4c2.6 0 4.6.6 6.1 1.8 1.4 1.2 2.1 2.9 2.1 5.1 0 1.6-.3 2.9-1 4s-1.7 2-3 2.5l4.4 6.7h-4.3zm-8.7-9.3h4.6c1.5 0 2.6-.3 3.4-1 .8-.6 1.2-1.6 1.2-2.8 0-1.2-.4-2.2-1.2-2.8-.8-.6-1.9-.9-3.4-.9h-4.6v7.5zM762.4 552.8c1.6.9 2.9 2.1 3.8 3.6s1.4 3.3 1.4 5.2-.5 3.7-1.4 5.2c-.9 1.5-2.2 2.7-3.8 3.6-1.6.9-3.5 1.3-5.5 1.3h-8.3v-20.2h8.4c2 0 3.8.4 5.4 1.3zm-2 14.7c1-.6 1.8-1.4 2.3-2.4.6-1 .8-2.2.8-3.5 0-1.3-.3-2.5-.9-3.5-.6-1-1.4-1.8-2.4-2.4-1-.6-2.1-.9-3.4-.9h-4.5v13.4h4.6c1.4.1 2.5-.2 3.5-.7zM780.4 555.2c-1.1-.3-2-.5-2.9-.5-.9 0-1.7.2-2.2.5-.5.3-.8.8-.8 1.4 0 .6.2 1 .6 1.4.4.4.8.7 1.4.9.6.2 1.3.5 2.3.8 1.4.4 2.5.8 3.4 1.2.9.4 1.6 1 2.2 1.8s.9 1.8.9 3.1c0 1.2-.3 2.3-1 3.2-.7.9-1.6 1.6-2.7 2.1-1.2.5-2.5.7-4 .7-1.6 0-3.1-.3-4.6-.9-1.5-.6-2.8-1.4-3.9-2.4l1.6-3.3c1 .9 2.2 1.7 3.4 2.2 1.3.5 2.5.8 3.6.8s1.9-.2 2.5-.6c.6-.4.9-1 .9-1.7 0-.6-.2-1.1-.6-1.4-.4-.4-.9-.7-1.4-.9-.6-.2-1.4-.5-2.4-.8-1.4-.4-2.5-.8-3.4-1.2-.9-.4-1.6-1-2.2-1.7-.6-.8-.9-1.8-.9-3.1 0-1.2.3-2.2.9-3.1.6-.9 1.5-1.6 2.7-2 1.1-.5 2.5-.7 4-.7 1.3 0 2.6.2 3.9.6 1.3.4 2.4.9 3.4 1.6l-1.6 3.4c-.9-.5-2-1-3.1-1.4z"/></g><path class="st11" d="M532.4 444.9h288v64.8h-288z"/><g><path class="st12" d="M558.5 471.9c-1.1-.3-2-.5-2.9-.5-.9 0-1.7.2-2.2.5-.5.3-.8.8-.8 1.4 0 .6.2 1 .6 1.4s.8.7 1.4.9c.6.2 1.3.5 2.3.8 1.4.4 2.5.8 3.4 1.2.9.4 1.6 1 2.2 1.8.6.8.9 1.8.9 3.1 0 1.2-.3 2.3-1 3.2-.7.9-1.6 1.6-2.7 2.1-1.2.5-2.5.7-4 .7-1.6 0-3.1-.3-4.6-.9-1.5-.6-2.8-1.4-3.9-2.4l1.6-3.3c1 .9 2.2 1.7 3.4 2.2 1.3.5 2.5.8 3.6.8s1.9-.2 2.5-.6c.6-.4.9-1 .9-1.7 0-.6-.2-1.1-.6-1.4-.4-.4-.9-.7-1.4-.9-.6-.2-1.4-.5-2.4-.8-1.4-.4-2.5-.8-3.4-1.2-.9-.4-1.6-1-2.2-1.7-.6-.8-.9-1.8-.9-3.1 0-1.2.3-2.2.9-3.1.6-.9 1.5-1.6 2.7-2 1.1-.5 2.5-.7 4-.7 1.3 0 2.6.2 3.9.6 1.3.4 2.4.9 3.4 1.6l-1.6 3.4c-.9-.5-2-1-3.1-1.4zM567.1 468.2H582v3.4h-11v5h9.8v3.4H571v5.1h11.3v3.4h-15.2v-20.3zM598.4 472.1c-1-.5-2-.7-3-.7-1.3 0-2.4.3-3.4.9-1 .6-1.9 1.4-2.5 2.5-.6 1.1-.9 2.2-.9 3.5 0 1.3.3 2.4.9 3.5.6 1.1 1.4 1.9 2.5 2.5 1 .6 2.2.9 3.4.9 1 0 1.9-.2 2.9-.6 1-.4 1.8-1 2.6-1.8l2.3 2.5c-1.1 1.1-2.3 1.9-3.7 2.6-1.4.6-2.8.9-4.3.9-1.9 0-3.7-.5-5.3-1.4-1.6-.9-2.9-2.2-3.8-3.8-.9-1.6-1.4-3.3-1.4-5.3 0-1.9.5-3.7 1.4-5.3.9-1.6 2.2-2.8 3.9-3.7 1.6-.9 3.4-1.4 5.4-1.4 1.4 0 2.9.3 4.2.9 1.4.6 2.6 1.4 3.6 2.4l-2.3 2.8c-.7-.8-1.6-1.5-2.5-1.9zM611.2 483.8c.9.9 2.1 1.4 3.6 1.4s2.7-.5 3.6-1.4 1.3-2.2 1.3-3.8v-11.9h3.9V480c0 1.8-.4 3.3-1.1 4.6s-1.7 2.3-3 3c-1.3.7-2.9 1-4.7 1-1.8 0-3.4-.3-4.7-1-1.3-.7-2.4-1.7-3.1-3-.7-1.3-1.1-2.8-1.1-4.6v-11.9h3.9V480c0 1.7.5 2.9 1.4 3.8zM640.8 488.4l-3.5-6H632v6h-3.9v-20.2h8.4c2.6 0 4.6.6 6.1 1.8 1.4 1.2 2.1 2.9 2.1 5.1 0 1.6-.3 2.9-1 4s-1.7 2-3 2.5l4.4 6.7h-4.3zm-8.7-9.3h4.6c1.5 0 2.6-.3 3.4-1 .8-.6 1.2-1.6 1.2-2.8 0-1.2-.4-2.2-1.2-2.8-.8-.6-1.9-.9-3.4-.9h-4.6v7.5zM649.1 468.2h3.9v20.2h-3.9v-20.2zM655.7 468.2h16.5v3.4h-6.3v16.8H662v-16.8h-6.3v-3.4zM691.2 468.2l-7.4 13.6v6.6h-3.9v-6.5l-7.5-13.8h3.9l5.5 9.5 5.4-9.5h4z"/></g><path class="st11" d="M514.8 389.4h288v55.5h-288z"/><g><path class="st12" d="M544.8 409.5c1.3 1.2 2 2.8 2 4.9 0 2.2-.7 3.9-2 5.1s-3.2 1.8-5.6 1.8H535v5.6h-3.7v-19.2h7.9c2.4 0 4.2.6 5.6 1.8zm-2.6 7.6c.7-.6 1.1-1.5 1.1-2.7 0-1.2-.4-2-1.1-2.6-.7-.6-1.8-.9-3.2-.9h-4v7.1h4c1.4 0 2.4-.3 3.2-.9zM549.8 407.7h14.1v3.2h-10.4v4.7h9.3v3.2h-9.3v4.8h10.7v3.2h-14.4v-19.1zM579.9 426.9l-3.3-5.7h-5v5.6h-3.7v-19.2h8c2.5 0 4.4.6 5.8 1.7 1.4 1.2 2 2.8 2 4.9 0 1.5-.3 2.8-1 3.8s-1.6 1.9-2.8 2.4l4.2 6.4h-4.2zm-8.3-8.9h4.3c1.4 0 2.4-.3 3.2-.9.7-.6 1.1-1.5 1.1-2.7 0-1.2-.4-2-1.1-2.6-.7-.6-1.8-.9-3.2-.9h-4.3v7.1zM587.7 407.7H601v3.2h-9.5v5.2h8.7v3.2h-8.7v7.6h-3.7v-19.2zM617.6 408.8c1.6.9 2.8 2 3.7 3.5.9 1.5 1.3 3.2 1.3 5 0 1.8-.4 3.5-1.3 5s-2.1 2.7-3.7 3.6c-1.6.9-3.3 1.3-5.2 1.3-1.9 0-3.6-.4-5.2-1.3s-2.8-2.1-3.7-3.6-1.3-3.2-1.3-5c0-1.8.4-3.5 1.3-5s2.1-2.7 3.7-3.5c1.6-.9 3.3-1.3 5.2-1.3 2 0 3.7.4 5.2 1.3zm-8.4 2.8c-1 .6-1.8 1.4-2.4 2.4-.6 1-.9 2.1-.9 3.3 0 1.2.3 2.3.9 3.3.6 1 1.4 1.8 2.4 2.4s2.1.9 3.2.9c1.2 0 2.2-.3 3.2-.9 1-.6 1.8-1.4 2.3-2.4.6-1 .9-2.1.9-3.3 0-1.2-.3-2.3-.9-3.3-.6-1-1.4-1.8-2.3-2.4-1-.6-2.1-.9-3.2-.9-1.1.1-2.2.4-3.2.9zM637.9 426.9l-3.3-5.7h-5v5.6h-3.7v-19.2h8c2.5 0 4.4.6 5.8 1.7 1.4 1.2 2 2.8 2 4.9 0 1.5-.3 2.8-1 3.8s-1.6 1.9-2.8 2.4l4.2 6.4h-4.2zm-8.3-8.9h4.3c1.4 0 2.4-.3 3.2-.9.7-.6 1.1-1.5 1.1-2.7 0-1.2-.4-2-1.1-2.6-.7-.6-1.8-.9-3.2-.9h-4.3v7.1zM645.7 407.7h4.2l6.4 12.4 6.3-12.4h4.2v19.2h-3.4v-13.8l-6 11.8H655l-6-11.8v13.8h-3.3v-19.2zM685.7 426.9l-1.7-4.1h-9.4l-1.7 4.1h-3.8l8.4-19.2h3.8l8.3 19.2h-3.9zm-9.8-7.2h6.7l-3.3-8.1-3.4 8.1zM705.4 407.7h3.6v19.2h-3.5l-9.9-13.2v13.2H692v-19.2h3.5l9.9 13.2v-13.2zM725.1 411.4c-.9-.4-1.9-.7-2.8-.7-1.2 0-2.3.3-3.3.8-1 .6-1.8 1.3-2.3 2.3-.6 1-.9 2.1-.9 3.3s.3 2.3.9 3.3c.6 1 1.3 1.8 2.3 2.4s2.1.9 3.3.9c.9 0 1.8-.2 2.8-.6s1.7-1 2.5-1.7l2.2 2.4c-1 1-2.2 1.8-3.5 2.4-1.3.6-2.7.9-4.1.9-1.8 0-3.5-.4-5.1-1.3-1.5-.9-2.7-2.1-3.6-3.6-.9-1.5-1.3-3.2-1.3-5 0-1.8.4-3.5 1.3-5s2.1-2.7 3.7-3.5c1.5-.9 3.3-1.3 5.1-1.3 1.4 0 2.7.3 4 .8 1.3.5 2.4 1.3 3.4 2.3l-2.1 2.7c-.7-.7-1.5-1.3-2.5-1.8zM732.7 407.7h14.1v3.2h-10.4v4.7h9.3v3.2h-9.3v4.8h10.7v3.2h-14.4v-19.1z"/></g><path class="st11" d="M498.2 333.7h288v55.5h-288z"/><g><path class="st12" d="M520.4 369.4l-3-5.2h-4.5v5.1h-3.3V352h7.3c2.3 0 4 .5 5.2 1.6 1.2 1 1.8 2.5 1.8 4.4 0 1.4-.3 2.5-.9 3.5-.6 1-1.4 1.7-2.6 2.2l3.8 5.8h-3.8zm-7.6-8.1h3.9c1.3 0 2.2-.3 2.9-.8.7-.5 1-1.4 1-2.4 0-1.1-.3-1.9-1-2.4s-1.6-.8-2.9-.8h-3.9v6.4zM527.5 352h12.8v2.9h-9.4v4.3h8.5v2.9h-8.5v4.4h9.7v2.9h-13.1V352zM552.2 355.2c-.9-.3-1.8-.4-2.5-.4-.8 0-1.4.1-1.9.4-.5.3-.7.7-.7 1.2s.2.9.5 1.2c.3.3.7.6 1.2.8.5.2 1.2.4 2 .7 1.2.3 2.1.7 2.9 1 .8.3 1.4.9 1.9 1.5.5.7.8 1.6.8 2.7s-.3 2-.9 2.8-1.4 1.4-2.4 1.8c-1 .4-2.2.6-3.5.6-1.4 0-2.7-.3-4-.8s-2.4-1.2-3.4-2l1.4-2.8c.9.8 1.9 1.5 3 1.9 1.1.5 2.1.7 3.1.7.9 0 1.7-.2 2.2-.5s.8-.8.8-1.5c0-.5-.2-.9-.5-1.2-.3-.3-.7-.6-1.2-.8-.5-.2-1.2-.4-2-.7-1.2-.3-2.1-.7-2.9-1-.7-.3-1.4-.8-1.9-1.5s-.8-1.6-.8-2.7c0-1 .3-1.9.8-2.7s1.3-1.3 2.3-1.8c1-.4 2.1-.6 3.4-.6 1.1 0 2.2.2 3.4.5 1.1.3 2.1.8 3 1.3l-1.3 2.9c-1-.3-1.9-.7-2.8-1zM571.9 353.5c1.2 1 1.8 2.5 1.8 4.4 0 2-.6 3.5-1.8 4.6-1.2 1.1-2.9 1.7-5.1 1.7H563v5.1h-3.3V352h7.2c2.1 0 3.8.5 5 1.5zm-2.4 7c.7-.5 1-1.4 1-2.4 0-1.1-.3-1.9-1-2.4s-1.6-.8-2.9-.8H563v6.5h3.6c1.3-.1 2.2-.3 2.9-.9zM589.1 352.9c1.4.8 2.5 1.9 3.4 3.2.8 1.4 1.2 2.9 1.2 4.5s-.4 3.2-1.2 4.5c-.8 1.4-1.9 2.5-3.4 3.3-1.4.8-3 1.2-4.7 1.2-1.7 0-3.3-.4-4.7-1.2-1.4-.8-2.5-1.9-3.4-3.3-.8-1.4-1.2-2.9-1.2-4.5s.4-3.2 1.2-4.5c.8-1.4 1.9-2.4 3.4-3.2 1.4-.8 3-1.2 4.7-1.2 1.7 0 3.3.4 4.7 1.2zm-7.6 2.6c-.9.5-1.6 1.2-2.2 2.1-.5.9-.8 1.9-.8 3s.3 2.1.8 3c.5.9 1.3 1.6 2.2 2.2.9.5 1.9.8 3 .8 1 0 2-.3 2.9-.8s1.6-1.3 2.1-2.2c.5-.9.8-1.9.8-3s-.3-2.1-.8-3c-.5-.9-1.2-1.6-2.1-2.1s-1.9-.8-2.9-.8c-1.1 0-2.1.3-3 .8zM608.8 352h3.2v17.4h-3.2l-9-12v12h-3.3V352h3.2l9 12v-12zM624.5 355.2c-.9-.3-1.8-.4-2.5-.4-.8 0-1.4.1-1.9.4-.5.3-.7.7-.7 1.2s.2.9.5 1.2c.3.3.7.6 1.2.8.5.2 1.2.4 2 .7 1.2.3 2.1.7 2.9 1 .8.3 1.4.9 1.9 1.5.5.7.8 1.6.8 2.7s-.3 2-.9 2.8-1.4 1.4-2.4 1.8c-1 .4-2.2.6-3.5.6-1.4 0-2.7-.3-4-.8s-2.4-1.2-3.4-2l1.4-2.8c.9.8 1.9 1.5 3 1.9 1.1.5 2.1.7 3.1.7.9 0 1.7-.2 2.2-.5.5-.4.8-.8.8-1.5 0-.5-.2-.9-.5-1.2-.3-.3-.7-.6-1.2-.8-.5-.2-1.2-.4-2-.7-1.2-.3-2.1-.7-2.9-1-.7-.3-1.4-.8-1.9-1.5s-.8-1.6-.8-2.7c0-1 .3-1.9.8-2.7s1.3-1.3 2.3-1.8c1-.4 2.1-.6 3.4-.6 1.1 0 2.2.2 3.4.5 1.1.3 2.1.8 3 1.3l-1.3 2.9c-.9-.3-1.8-.7-2.8-1zM632 352h3.3v17.4H632V352zM637.5 352h3.6l5.1 13.7 5.2-13.7h3.4l-7 17.4h-3.5l-6.8-17.4zM657.1 352h12.8v2.9h-9.4v4.3h8.5v2.9h-8.5v4.4h9.7v2.9h-13.1V352zM691.6 353.1c1.4.7 2.5 1.8 3.2 3.1.8 1.3 1.2 2.8 1.2 4.5s-.4 3.2-1.2 4.5-1.9 2.4-3.3 3.1-3 1.1-4.8 1.1h-7.1V352h7.3c1.7 0 3.3.3 4.7 1.1zm-1.8 12.6c.9-.5 1.5-1.2 2-2 .5-.9.7-1.9.7-3s-.3-2.1-.7-3c-.5-.9-1.2-1.6-2.1-2.1-.9-.5-1.8-.7-2.9-.7H683v11.6h4c1 0 2-.3 2.8-.8zM698.9 352h12.8v2.9h-9.4v4.3h8.5v2.9h-8.5v4.4h9.7v2.9h-13.1V352zM723.6 355.2c-.9-.3-1.8-.4-2.5-.4-.8 0-1.4.1-1.9.4-.5.3-.7.7-.7 1.2s.2.9.5 1.2c.3.3.7.6 1.2.8.5.2 1.2.4 2 .7 1.2.3 2.1.7 2.9 1 .8.3 1.4.9 1.9 1.5.5.7.8 1.6.8 2.7s-.3 2-.9 2.8-1.4 1.4-2.4 1.8c-1 .4-2.2.6-3.5.6-1.4 0-2.7-.3-4-.8s-2.4-1.2-3.4-2l1.4-2.8c.9.8 1.9 1.5 3 1.9 1.1.5 2.1.7 3.1.7.9 0 1.7-.2 2.2-.5.5-.4.8-.8.8-1.5 0-.5-.2-.9-.5-1.2-.3-.3-.7-.6-1.2-.8-.5-.2-1.2-.4-2-.7-1.2-.3-2.1-.7-2.9-1-.7-.3-1.4-.8-1.9-1.5s-.8-1.6-.8-2.7c0-1 .3-1.9.8-2.7s1.3-1.3 2.3-1.8c1-.4 2.1-.6 3.4-.6 1.1 0 2.2.2 3.4.5 1.1.3 2.1.8 3 1.3l-1.3 2.9c-1-.3-1.9-.7-2.8-1zM731 352h3.3v17.4H731V352zM750.5 360.7h2.9v6.6c-.9.7-2 1.2-3.2 1.7s-2.5.6-3.7.6c-1.7 0-3.3-.4-4.7-1.2-1.4-.8-2.5-1.9-3.3-3.3-.8-1.4-1.2-2.9-1.2-4.5s.4-3.2 1.2-4.5c.8-1.4 2-2.4 3.4-3.2 1.4-.8 3-1.2 4.8-1.2 1.2 0 2.5.2 3.7.7 1.2.4 2.3 1.1 3.1 1.8l-1.9 2.5c-.7-.6-1.4-1.1-2.3-1.5-.9-.3-1.7-.5-2.6-.5-1.1 0-2.1.3-3 .8-.9.5-1.6 1.2-2.2 2.2-.5.9-.8 1.9-.8 3s.3 2.1.8 3c.5.9 1.3 1.6 2.2 2.2s1.9.8 3 .8c.6 0 1.2-.1 1.9-.3.7-.2 1.3-.5 1.9-.8v-4.9zM769.4 352h3.2v17.4h-3.2l-9-12v12h-3.3V352h3.2l9 12v-12z"/></g><path class="st11" d="M507.3 278.1h288v55.5h-288z"/><g><path class="st12" d="M530.8 297.9c1.2 1 1.8 2.5 1.8 4.4 0 2-.6 3.5-1.8 4.6-1.2 1.1-2.9 1.7-5.1 1.7h-3.8v5.1h-3.3v-17.4h7.2c2.1 0 3.8.5 5 1.6zm-2.3 6.9c.7-.5 1-1.4 1-2.4 0-1.1-.3-1.9-1-2.4s-1.6-.8-2.9-.8H522v6.5h3.6c1.2 0 2.2-.3 2.9-.9zM556.6 296.3h3.5l-5.9 17.4h-3.5l-4-13.2-4.1 13.2h-3.4l-5.9-17.4h3.6l4.1 13.8 4.1-13.8h3.3l4.1 13.9 4.1-13.9zM573.9 313.7l-1.5-3.7h-8.5l-1.5 3.7h-3.5l7.7-17.4h3.5l7.6 17.4h-3.8zm-8.9-6.5h6.1l-3-7.3-3.1 7.3zM585.3 303.1c-.7-.2-1.3-.3-1.9-.3-.5 0-1 .1-1.3.3s-.5.5-.5.9.2.7.6 1 1.1.5 1.9.7c.9.3 1.7.6 2.3.8.6.3 1.1.7 1.6 1.2.4.5.7 1.3.7 2.1 0 1.3-.5 2.3-1.5 3-1 .7-2.3 1-3.8 1-1 0-2-.2-3-.5s-1.8-.8-2.5-1.4l1.1-2.3c.6.5 1.3.9 2.1 1.2.8.3 1.6.4 2.4.4.6 0 1.1-.1 1.4-.3.4-.2.5-.5.5-.9 0-.5-.2-.8-.6-1-.4-.2-1.1-.5-2-.8-.9-.3-1.6-.5-2.2-.8-.6-.3-1.1-.6-1.5-1.2-.4-.5-.6-1.2-.6-2.1 0-1.3.5-2.3 1.4-3 1-.7 2.2-1 3.6-1 .9 0 1.7.1 2.6.4.9.2 1.6.6 2.3 1l-1.2 2.3c-.5-.2-1.2-.5-1.9-.7z"/></g><path class="st11" d="M526.6 222.6h288v55.5h-288z"/><g><path class="st12" d="M543 240.9h3.7v15.9h8.3v3.3h-12v-19.2zM557.8 240.9h3.7v19.2h-3.7v-19.2zM579.6 242.2c1.2.9 1.8 2 1.8 3.5 0 1.1-.3 2-.9 2.7-.6.8-1.4 1.3-2.5 1.5 1.3.2 2.3.8 3 1.6.7.9 1.1 1.9 1.1 3.2 0 1.6-.6 2.9-1.9 3.9-1.3.9-3 1.4-5.2 1.4h-8.8v-19.2h8.5c2.1.1 3.7.6 4.9 1.4zm-2.8 5.9c.5-.4.8-1 .8-1.8 0-.7-.3-1.3-.8-1.7s-1.3-.6-2.2-.6h-4.7v4.7h4.7c.9.1 1.7-.1 2.2-.6zm.5 8.2c.7-.5 1-1.1 1-1.9 0-.8-.3-1.4-1-1.9-.7-.4-1.6-.7-2.7-.6h-4.7v5.1h4.7c1.1 0 2.1-.3 2.7-.7zM597.7 260.1l-3.3-5.7h-5v5.6h-3.7v-19.2h8c2.5 0 4.4.6 5.8 1.7 1.4 1.2 2 2.8 2 4.9 0 1.5-.3 2.8-1 3.8s-1.6 1.9-2.8 2.4l4.2 6.4h-4.2zm-8.4-8.9h4.3c1.4 0 2.4-.3 3.2-.9.7-.6 1.1-1.5 1.1-2.7 0-1.2-.4-2-1.1-2.6-.7-.6-1.8-.9-3.2-.9h-4.3v7.1zM619.7 260.1L618 256h-9.4l-1.7 4.1h-3.8l8.4-19.2h3.8l8.3 19.2h-3.9zm-9.8-7.2h6.7l-3.3-8.1-3.4 8.1zM638 260.1l-3.3-5.7h-5v5.6H626v-19.2h8c2.5 0 4.4.6 5.8 1.7 1.4 1.2 2 2.8 2 4.9 0 1.5-.3 2.8-1 3.8s-1.6 1.9-2.8 2.4l4.2 6.4H638zm-8.4-8.9h4.3c1.4 0 2.4-.3 3.2-.9.7-.6 1.1-1.5 1.1-2.7 0-1.2-.4-2-1.1-2.6-.7-.6-1.8-.9-3.2-.9h-4.3v7.1zM645.8 240.9h3.7v19.2h-3.7v-19.2zM654.2 240.9h14.1v3.2h-10.4v4.7h9.3v3.2h-9.3v4.8h10.7v3.2h-14.4v-19.1zM681.3 244.5c-1-.3-1.9-.5-2.7-.5-.9 0-1.6.2-2.1.5s-.8.8-.8 1.4c0 .5.2 1 .5 1.3s.8.6 1.3.9c.5.2 1.3.5 2.2.8 1.3.4 2.4.8 3.2 1.2s1.5 1 2.1 1.7c.6.8.9 1.7.9 3 0 1.2-.3 2.2-.9 3.1s-1.5 1.5-2.6 2-2.4.7-3.8.7c-1.5 0-3-.3-4.4-.8s-2.7-1.3-3.7-2.2l1.5-3.1c1 .9 2.1 1.6 3.3 2.1 1.2.5 2.3.8 3.4.8 1 0 1.8-.2 2.4-.6.6-.4.9-.9.9-1.6 0-.5-.2-1-.5-1.4s-.8-.6-1.4-.9c-.5-.2-1.3-.5-2.2-.7-1.3-.4-2.4-.8-3.2-1.1-.8-.4-1.5-.9-2.1-1.7s-.9-1.7-.9-2.9c0-1.1.3-2.1.9-2.9.6-.8 1.4-1.5 2.5-1.9 1.1-.5 2.3-.7 3.8-.7 1.2 0 2.5.2 3.7.5s2.3.9 3.2 1.5l-1.5 3.2c-.9-.9-1.9-1.4-3-1.7z"/></g><path class="st11" d="M516.4 167.1h288v55.5h-288z"/><g><path class="st12" d="M532.7 185.3h12v2.9H536v4.7h7.9v2.9H536v6.9h-3.3v-17.4zM558.1 202.8l-3-5.2h-4.5v5.1h-3.3v-17.4h7.3c2.3 0 4 .5 5.2 1.6 1.2 1 1.8 2.5 1.8 4.4 0 1.4-.3 2.5-.9 3.5-.6 1-1.4 1.7-2.6 2.2l3.8 5.8h-3.8zm-7.5-8.1h3.9c1.3 0 2.2-.3 2.9-.8.7-.5 1-1.4 1-2.4 0-1.1-.3-1.9-1-2.4s-1.6-.8-2.9-.8h-3.9v6.4zM578.1 202.8l-1.5-3.7h-8.5l-1.5 3.7h-3.5l7.7-17.4h3.5l7.6 17.4h-3.8zm-8.8-6.6h6.1l-3-7.3-3.1 7.3zM583.8 185.3h3.8l5.8 11.2 5.7-11.2h3.8v17.4h-3.1v-12.5l-5.4 10.7h-2.1l-5.5-10.7v12.5h-3v-17.4zM607.3 185.3h12.8v2.9h-9.4v4.3h8.5v2.9h-8.5v4.4h9.7v2.9h-13.1v-17.4zM644.9 185.3h3.5l-5.9 17.4H639l-4-13.2-4.1 13.2h-3.4l-5.9-17.4h3.6l4.1 13.8 4.1-13.8h3.3l4.1 13.9 4.1-13.9zM662.9 186.3c1.4.8 2.5 1.9 3.4 3.2.8 1.4 1.2 2.9 1.2 4.5s-.4 3.2-1.2 4.5c-.8 1.4-1.9 2.5-3.4 3.3-1.4.8-3 1.2-4.7 1.2-1.7 0-3.3-.4-4.7-1.2-1.4-.8-2.5-1.9-3.4-3.3-.8-1.4-1.2-2.9-1.2-4.5s.4-3.2 1.2-4.5c.8-1.4 1.9-2.4 3.4-3.2 1.4-.8 3-1.2 4.7-1.2 1.7 0 3.3.4 4.7 1.2zm-7.6 2.6c-.9.5-1.6 1.2-2.2 2.1-.5.9-.8 1.9-.8 3s.3 2.1.8 3c.5.9 1.3 1.6 2.2 2.2.9.5 1.9.8 3 .8 1 0 2-.3 2.9-.8s1.6-1.3 2.1-2.2c.5-.9.8-1.9.8-3s-.3-2.1-.8-3c-.5-.9-1.2-1.6-2.1-2.1s-1.9-.8-2.9-.8c-1.1 0-2.1.3-3 .8zM681.3 202.8l-3-5.2h-4.5v5.1h-3.3v-17.4h7.3c2.3 0 4 .5 5.2 1.6 1.2 1 1.8 2.5 1.8 4.4 0 1.4-.3 2.5-.9 3.5-.6 1-1.4 1.7-2.6 2.2l3.8 5.8h-3.8zm-7.6-8.1h3.9c1.3 0 2.2-.3 2.9-.8.7-.5 1-1.4 1-2.4 0-1.1-.3-1.9-1-2.4s-1.6-.8-2.9-.8h-3.9v6.4zM704 202.8h-4l-5.5-7.5-2.7 3v4.5h-3.3v-17.4h3.3v8.7l7.9-8.7h3.9l-6.7 7.4 7.1 10zM714.7 188.6c-.9-.3-1.8-.4-2.5-.4-.8 0-1.4.1-1.9.4-.5.3-.7.7-.7 1.2s.2.9.5 1.2c.3.3.7.6 1.2.8.5.2 1.2.4 2 .7 1.2.3 2.1.7 2.9 1 .8.3 1.4.9 1.9 1.5.5.7.8 1.6.8 2.7s-.3 2-.9 2.8-1.4 1.4-2.4 1.8c-1 .4-2.2.6-3.5.6-1.4 0-2.7-.3-4-.8s-2.4-1.2-3.4-2l1.4-2.8c.9.8 1.9 1.5 3 1.9 1.1.5 2.1.7 3.1.7.9 0 1.7-.2 2.2-.5.5-.4.8-.8.8-1.5 0-.5-.2-.9-.5-1.2-.3-.3-.7-.6-1.2-.8-.5-.2-1.2-.4-2-.7-1.2-.3-2.1-.7-2.9-1-.7-.3-1.4-.8-1.9-1.5s-.8-1.6-.8-2.7c0-1 .3-1.9.8-2.7s1.3-1.3 2.3-1.8c1-.4 2.1-.6 3.4-.6 1.1 0 2.2.2 3.4.5 1.1.3 2.1.8 3 1.3l-1.3 2.9c-.9-.3-1.8-.7-2.8-1z"/></g><path class="st11" d="M529.8 608.2h288v49.3h-288z"/><g><path class="st12" d="M554.2 644.2v-1.7c-.5.6-1.1 1.1-1.9 1.4-.8.3-1.6.5-2.6.5s-1.8-.2-2.6-.6c-.7-.4-1.3-.9-1.7-1.5-.4-.7-.6-1.4-.6-2.2 0-1.3.5-2.3 1.4-3.1.9-.7 2.2-1.1 3.9-1.1h4.1v-.4c0-.8-.3-1.4-.8-1.9s-1.3-.7-2.3-.7c-1.3 0-2.7.4-4.1 1.3l-1.2-2.3c1.1-.6 2.1-1 3-1.3.9-.3 1.9-.4 3.1-.4 1.8 0 3.2.4 4.2 1.3s1.5 2.1 1.5 3.6v9.1h-3.4zm-1.2-3.1c.7-.5 1.1-1 1.2-1.7v-1.2h-3.5c-.9 0-1.6.1-2 .4-.4.3-.6.7-.6 1.3 0 .6.2 1.1.7 1.4.4.3 1 .5 1.8.5.9 0 1.7-.2 2.4-.7zM559.3 626h7.3v18.2h-3.5v-15.1h-3.8V626zM569.2 626h7.3v18.2H573v-15.1h-3.8V626zM585.3 648.6c-.8.6-1.8.9-2.9.9-.7 0-1.3-.1-1.8-.3s-1.1-.5-1.6-.9l1.5-2.6c.3.2.6.4.9.5.3.1.6.2.9.2.9 0 1.6-.5 2-1.4l.4-.9-5.7-13.7h3.5l4 10.1 3.6-10.1h3.4l-6.2 15.7c-.6 1-1.2 1.9-2 2.5zM601.9 626h13.3v3h-9.9v4.5h8.8v3h-8.8v4.6h10.2v3h-13.7V626zM627.6 629.4c-1-.3-1.8-.5-2.6-.5s-1.5.2-2 .5-.7.7-.7 1.3c0 .5.2.9.5 1.3.3.3.8.6 1.3.8.5.2 1.2.5 2.1.7 1.2.4 2.2.7 3 1.1.8.4 1.5.9 2 1.6s.8 1.6.8 2.8c0 1.1-.3 2.1-.9 2.9-.6.8-1.4 1.5-2.5 1.9-1 .4-2.2.7-3.6.7s-2.8-.3-4.2-.8c-1.4-.5-2.5-1.2-3.5-2.1l1.5-3c.9.8 2 1.5 3.1 2s2.2.7 3.2.7 1.7-.2 2.3-.6c.6-.4.8-.9.8-1.5 0-.5-.2-.9-.5-1.3-.3-.3-.8-.6-1.3-.8-.5-.2-1.2-.4-2.1-.7-1.2-.4-2.2-.7-3-1.1-.8-.3-1.4-.9-2-1.6s-.8-1.6-.8-2.8c0-1.1.3-2 .8-2.8s1.4-1.4 2.4-1.8c1-.4 2.2-.6 3.6-.6 1.2 0 2.3.2 3.5.5 1.2.3 2.2.8 3.1 1.4l-1.4 3c-.9-.5-1.9-.9-2.9-1.2zM644 629.4c-1-.3-1.8-.5-2.6-.5s-1.5.2-2 .5-.7.7-.7 1.3c0 .5.2.9.5 1.3.3.3.8.6 1.3.8.5.2 1.2.5 2.1.7 1.2.4 2.2.7 3 1.1.8.4 1.5.9 2 1.6s.8 1.6.8 2.8c0 1.1-.3 2.1-.9 2.9-.6.8-1.4 1.5-2.5 1.9-1 .4-2.2.7-3.6.7s-2.8-.3-4.2-.8c-1.4-.5-2.5-1.2-3.5-2.1l1.5-3c.9.8 2 1.5 3.1 2s2.2.7 3.2.7 1.7-.2 2.3-.6c.6-.4.8-.9.8-1.5 0-.5-.2-.9-.5-1.3-.3-.3-.8-.6-1.3-.8-.5-.2-1.2-.4-2.1-.7-1.2-.4-2.2-.7-3-1.1-.8-.3-1.4-.9-2-1.6s-.8-1.6-.8-2.8c0-1.1.3-2 .8-2.8s1.4-1.4 2.4-1.8c1-.4 2.2-.6 3.6-.6 1.2 0 2.3.2 3.5.5 1.2.3 2.2.8 3.1 1.4l-1.4 3c-1-.5-2-.9-2.9-1.2zM651.7 626H665v3h-9.9v4.5h8.8v3h-8.8v4.6h10.2v3h-13.7V626zM681.6 626h3.4v18.2h-3.3l-9.4-12.5v12.5h-3.4V626h3.3l9.4 12.6V626zM687.4 626h14.8v3.1h-5.7v15.1H693v-15.1h-5.7V626zM704.7 626h3.5v18.2h-3.5V626zM726.2 644.2l-1.6-3.8h-8.9l-1.6 3.8h-3.6l8-18.2h3.6l7.9 18.2h-3.8zm-9.3-6.8h6.4l-3.2-7.6-3.2 7.6zM732.1 626h3.5v15.1h7.9v3.1h-11.3V626zM754.8 629.4c-1-.3-1.8-.5-2.6-.5s-1.5.2-2 .5-.7.7-.7 1.3c0 .5.2.9.5 1.3.3.3.8.6 1.3.8.5.2 1.2.5 2.1.7 1.2.4 2.2.7 3 1.1.8.4 1.5.9 2 1.6s.8 1.6.8 2.8c0 1.1-.3 2.1-.9 2.9-.6.8-1.4 1.5-2.5 1.9-1 .4-2.2.7-3.6.7s-2.8-.3-4.2-.8c-1.4-.5-2.5-1.2-3.5-2.1l1.5-3c.9.8 2 1.5 3.1 2s2.2.7 3.2.7 1.7-.2 2.3-.6c.6-.4.8-.9.8-1.5 0-.5-.2-.9-.5-1.3-.3-.3-.8-.6-1.3-.8-.5-.2-1.2-.4-2.1-.7-1.2-.4-2.2-.7-3-1.1-.8-.3-1.4-.9-2-1.6s-.8-1.6-.8-2.8c0-1.1.3-2 .8-2.8s1.4-1.4 2.4-1.8c1-.4 2.2-.6 3.6-.6 1.2 0 2.3.2 3.5.5 1.2.3 2.2.8 3.1 1.4l-1.4 3c-1-.5-2-.9-2.9-1.2z"/></g><path class="st13" d="M357.4 772.1s69-2.8 118-8c19.6-2.1 22.1 11.6 22.1 11.6v10.9H357.4v-14.5zM356.4 772.1s-69-2.8-118-8c-19.6-2.1-22.1 11.6-22.1 11.6v10.9h140.1v-14.5z"/><path class="st13" d="M357.4 772.1s69 .1 118-5.1c19.6-2.1 22.1 11.6 22.1 11.6v10.9H357.4v-17.4zM356.4 772.1s-69 .1-118-5.1c-19.6-2.1-22.1 11.6-22.1 11.6v10.9h140.1v-17.4z"/><path class="st13" d="M357.4 772.1s69 2.9 118-2.4c19.6-2.1 22.1 11.6 22.1 11.6v10.9H357.4v-20.1zM356.4 772.1s-69 2.9-118-2.4c-19.6-2.1-22.1 11.6-22.1 11.6v10.9h140.1v-20.1z"/><path class="st11" d="M206.8 780.9h294.7v8.6H206.8z"/><path class="st14" d="M95.4 787.7h812.2v46.2H95.4z"/></svg>