<svg xmlns="http://www.w3.org/2000/svg" viewBox="0 0 252 252"><defs><style>.aa,.ac,.e,.f,.g,.m{fill:none}.x{fill:#fff}.b{fill:#5a4ea4}.f,.g{stroke:#443d3c}.aa,.e,.f,.g,.i,.j{stroke-miterlimit:10}.f{stroke-width:1.15px}.aa,.e,.g,.i,.j{stroke-width:.58px}.y{fill:#443d3c}.k{fill:#222f3f}.n{fill:#5b4732}.i,.j{fill:#f2da97}.e,.i{stroke:#876a5c}.w{fill:#876a5c}.aa,.j{stroke:#5b3d34}.o{fill:#a3503a}.v{fill:#c66f54}.u{fill:#e0b789}.ab{fill:#543d72}.s{fill:#96a3e2}.p{fill:#1c418c}.q{fill:#6b7fc6}.r{fill:#242730;stroke:#0e0f11}.ad,.m,.r{stroke-linecap:round;stroke-linejoin:round}.r{stroke-width:1.38px}.m{stroke:#1c418c;stroke-width:1.41px}.ae{stroke-width:1.38}.af{stroke:#4b8087}</style><linearGradient id="l1" x1="126" x2="126" y1="173.46" y2="25.86" gradientUnits="userSpaceOnUse"><stop offset=".13" stop-color="#fcdb75"/><stop offset=".41" stop-color="#bf78d6"/><stop offset=".82" stop-color="#3e3896"/></linearGradient><clipPath id="c1"><circle cx="126" cy="126" r="100.24" class="ac"/></clipPath><linearGradient id="l2" x1="136.52" x2="136.52" y1="187.82" y2="151.48" gradientUnits="userSpaceOnUse"><stop offset="0" stop-color="#fcdb75"/><stop offset="1" stop-color="#fcdb75" stop-opacity="0"/></linearGradient><clipPath id="c2"><path d="M252.38 122.37h-40.26l-4.23 18.95h48.72l-4.23-18.95z" class="ac"/></clipPath><clipPath id="c3"><path d="M90.03 126.74H62.59l-2.88 12.92h33.2l-2.88-12.92z" class="ac"/></clipPath><clipPath id="c4"><path d="M165.14 177.59H35.83v16.25h4.94c3.92-7.47 14.7-12.84 27.39-12.84s23.46 5.36 27.38 12.83h9.89c3.92-7.47 14.69-12.83 27.38-12.83s23.47 5.36 27.39 12.83h9.89C174 186.37 184.78 181 197.47 181s23.47 5.36 27.39 12.83h4.94v-16.24z" class="ac"/></clipPath><radialGradient id="r1" cx="187.58" cy="156.04" r="86.1" gradientUnits="userSpaceOnUse"><stop offset="0" stop-color="#ffdb80" stop-opacity=".5"/><stop offset="1" stop-color="#ffdb80" stop-opacity="0"/></radialGradient><clipPath id="c5"><path d="M77.33 152.8c20.52 20.63 91.15 31.14 102.35-21.58 10.37-48.73-36.31-63.42-63.5-49.5-31.85 16.28-9.4 50.84-21.51 60.48-7.24 5.77-15.43 1.3-15.43 1.3s3.07-17-17.71-21.63c0 0-6 16.74 5.91 23.07 0 0-12.66.14-16.83 15.11 17.12 9.95 26.72-7.25 26.72-7.25z" class="ac"/></clipPath></defs><circle cx="126" cy="126" r="108.03" class="x"/><circle cx="126" cy="126" r="100.24" fill="url(#l1)"/><g clip-path="url(#c1)"><g opacity=".6"><path d="M96.75 126.3h-3.36v-4.72h-1.77v-.69a10.68 10.68 0 0 0-8.08-10.35l-.31-3.11h-1.61L81 98.79l-.65 8.64h-1.68l-.31 3.11a10.67 10.67 0 0 0-3.4 1.52v-1.58H72v-3.92h-4v9.12h-3.32v-9.12h-4v6.33h-2.54v-2.41H48v8h-4.48v-4.2h-4.19a13.24 13.24 0 1 0-18.81 13.11v31.41h13.41v-14.53h6v4.19h10.21v-8h5.5v22.81h13v-26.68H71v3.92h2v11.1h3.36v4.72h14.82v32.72h20.43v-54.33H96.75zm66.33 12.8h-17.15v-3.58h-20.44v54.33H149v.46h18.8v-21.85h-4.72V139.1zm32.62 19.39h18.79v31.13H195.7z" class="b"/><path d="M105.76 162.92h29.74v26.94h-29.74z" class="b"/></g><path fill="url(#l2)" d="M39.01 148.18h195.02v40.88H39.01z"/><path d="M224.39 189c-27.19-25.9-27.11-76.9-27.11-76.9V71.77H194v40.63s-1.51 45.65 17.33 76.65M197.28 80.18h-3.29m0 6.81h3.29m-3.29 6.82h3.29m-3.29 6.81h3.29m-3.29 6.81h3.29m-3.29 6.81h3.29m-3.29 6.81h3.29m-3.29 6.81h4.47m-3.64 6.81h4.65m-3.83 6.81h5.14m-4.01 6.82h5.66m1.89 6.81h-5.91m1.69 6.81h6.75m-4.81 6.81h8.04m-5.73 6.81h9.35m-5.9 6.81h10.53" class="f"/><path d="M197.1 86.99l-2.78-6.69m0 6.69l2.78-6.69m-.07 13.51l-2.79-6.7m0 6.7l2.79-6.7m0 13.51l-2.79-6.69m0 6.69l2.79-6.69m0 13.5l-2.79-6.69m0 6.69l2.79-6.69m0 13.5l-2.79-6.69m0 6.69l2.79-6.69" class="g"/><path d="M194.24 120.93h3.3" class="f"/><path d="M197.28 120.93l-2.78-6.7m0 6.7l2.78-6.7m.74 13.57l-3.52-6.46m.34 6.46l2.78-6.69m1.41 13.56l-4.19-6.52m.67 6.46l2.78-6.69m2.07 13.47l-4.85-6.46m.91 6.46l2.79-6.69m2.8 13.48l-5.59-6.34m.98 6.12l3.14-6.34m3.36 13.36l-6.24-6.33m1.16 6.11l3.29-6.34m4.42 13.28l-7.59-6.2m1.33 6.11l3.77-6.25m5.37 13.11l-8.63-6.08m1.69 6.08l4-6.08m6.6 12.87l-10.33-6.07m2.07 6.07l4.78-6.07m8.08 12.78l-12.33-6.07m2.56 5.88l5.49-5.88m10.77 12.86l-15.85-6.08m3.04 6.37l6.78-6.37M197.1 80.06l-2.78-6.69m0 6.69l2.78-6.69" class="g"/><path d="M163.56 189c27.19-25.9 27.11-76.9 27.11-76.9V71.77h3.26v40.63s1.51 45.65-17.33 76.65m14.07-108.87h3.29m0 6.81h-3.29m3.29 6.82h-3.29m3.29 6.81h-3.29m3.29 6.81h-3.29m3.29 6.81h-3.29m3.29 6.81h-3.29m3.29 6.81h-4.48m3.65 6.81h-4.65m3.83 6.81h-5.15m4.02 6.82h-5.66m-1.89 6.81h5.9m-1.69 6.81h-6.75m4.82 6.81h-8.04m5.73 6.81h-9.35m5.89 6.81h-10.52" class="f"/><path d="M190.85 86.99l2.78-6.69m0 6.69l-2.78-6.69m.07 13.51l2.78-6.7m0 6.7l-2.78-6.7m0 13.51l2.78-6.69m0 6.69l-2.78-6.69m0 13.5l2.78-6.69m0 6.69l-2.78-6.69m0 13.5l2.78-6.69m0 6.69l-2.78-6.69" class="g"/><path d="M193.7 120.93h-3.29" class="f"/><path d="M190.67 120.93l2.78-6.7m0 6.7l-2.78-6.7m-.75 13.57l3.53-6.46m-.34 6.46l-2.78-6.69m-1.41 13.56l4.19-6.52m-.67 6.46l-2.79-6.69m-2.07 13.47l4.86-6.46m-.92 6.46l-2.78-6.69m-2.8 13.48l5.58-6.34m-.97 6.12l-3.14-6.34m-3.36 13.36l6.23-6.33m-1.15 6.11l-3.29-6.34m-4.42 13.28l7.59-6.2m-1.34 6.11l-3.76-6.25m-5.37 13.11l8.63-6.08m-1.69 6.08l-4-6.08m-6.6 12.87l10.33-6.07m-2.07 6.07l-4.78-6.07m-8.08 12.78l12.33-6.07m-2.56 5.88l-5.49-5.88m-10.78 12.86l15.85-6.08m-3.03 6.37l-6.78-6.37m21.03-102.62l2.78-6.69m0 6.69l-2.78-6.69" class="g"/><path d="M175.41 167.77h37.08v4.45h-37.08z" class="y"/><path d="M175.6 165.19h36.89m-36.05 2.92v-2.92m3.19 2.92v-2.92m3.19 2.92v-2.92m3.19 2.92v-2.92m3.19 2.92v-2.92m3.19 2.92v-2.92m3.19 2.92v-2.92m3.19 2.92v-2.92m3.19 2.92v-2.92m3.19 2.92v-2.92m3.19 2.92v-2.92m3.19 2.92v-2.92" class="g"/><path d="M185.21 143.51h17.53v2.71h-17.53z" class="y"/><path d="M185.21 140.92h17.53m-16.73 2.92v-2.92m3.19 2.92v-2.92m3.19 2.92v-2.92m3.19 2.92v-2.92m3.19 2.92v-2.92m3.19 2.92v-2.92" class="g"/><path d="M209.59 190c0-8.12-7-14.7-15.62-14.7s-15.61 6.58-15.61 14.7m15.59-17.78v3.32m-4.27.36l-1.84-4.63m-1.83 6.11l-2.6-2.12m14.39.64l1.84-4.63m1.83 6.11l2.6-2.12" class="f"/><path d="M189.02 68.53h9.88v3.2h-9.88z" class="y"/><path d="M190.72 67.48h6.51v3.2h-6.51z" class="y"/><circle cx="193.98" cy="67.48" r="3.26" class="y"/><path d="M193.99 57.95l-.02.33v-.33l-.68 7.94h1.38l-.68-7.94z" class="y"/><path d="M218.43 112.4h.97v6.15h-.97zm-1.8 2.11h.97v6.15h-.97z" class="k"/><path d="M215.04 116.37h6.25v10.46h-6.25z" class="n"/><path fill="#b28074" d="M207.89 141.32h35.44v47.73h-35.44z"/><path fill="#5d5d72" d="M252.38 122.37h-40.26l-4.23 18.95h48.72l-4.23-18.95z"/><path fill="#fff" stroke="#5d5d72" stroke-miterlimit="10" stroke-width=".58" d="M212.48 145.19h5.68v12.57h-5.68zm2.84 0v12.57m-2.84-6.29h5.68m4.61-6.28h5.68v12.57h-5.68zm2.84 0v12.57m-2.84-6.29h5.68m4.61-6.28h5.68v12.57h-5.68zm2.84 0v12.57m-2.84-6.29h5.69m-26.27 11.22h5.68v12.57h-5.68zm2.84 0v12.57m-2.84-6.29h5.68m4.61-6.28h5.68v12.57h-5.68zm2.84 0v12.57m-2.84-6.29h5.68m4.61-6.28h5.68v12.57h-5.68zm2.84 0v12.57m-2.84-6.29h5.69"/><path fill="none" stroke="#8995a3" stroke-miterlimit="10" stroke-width=".58" d="M218.73 122.37a4.6 4.6 0 0 1-9.2 0m18.39 0a4.6 4.6 0 0 1-9.19 0m18.38 0a4.6 4.6 0 0 1-9.19 0m18.39 0a4.6 4.6 0 0 1-9.2 0m18.39 0a4.6 4.6 0 0 1-9.19 0M214.38 127a4.6 4.6 0 0 1-9.2 0m18.39 0a4.6 4.6 0 1 1-9.19 0m18.39 0a4.6 4.6 0 0 1-9.2 0m18.43 0a4.6 4.6 0 1 1-9.19 0m18.35 0a4.6 4.6 0 0 1-9.2 0m18.39 0a4.6 4.6 0 1 1-9.19 0M219 131.75a4.6 4.6 0 0 1-9.2 0m18.36 0a4.6 4.6 0 1 1-9.19 0m18.39 0a4.6 4.6 0 0 1-9.2 0m18.39 0a4.6 4.6 0 1 1-9.19 0m18.39 0a4.6 4.6 0 1 1-9.2 0m-31.93 4.6a4.6 4.6 0 1 1-9.19 0m18.39 0a4.6 4.6 0 0 1-9.2 0m18.38 0a4.6 4.6 0 1 1-9.19 0m18.4 0a4.6 4.6 0 1 1-9.2 0m18.39 0a4.6 4.6 0 1 1-9.19 0m18.38 0a4.6 4.6 0 1 1-9.19 0" clip-path="url(#c2)" opacity=".4"/><path d="M81.66 116.86h.91v5.76h-.91zm1.82 2.88h.91v5.76h-.91z" class="k"/><path d="M80.1 120.89h5.85v9.8H80.1z" class="n"/><path fill="#f4eed7" d="M59.71 139.66H92.9v49.31H59.71z"/><path fill="#5c6866" d="M90.03 126.74H62.59l-2.88 12.92h33.2l-2.88-12.92z"/><path fill="none" stroke="#7d918d" stroke-miterlimit="10" stroke-width=".58" d="M65.87 126.74a3.14 3.14 0 1 1-6.28 0m12.57 0a3.15 3.15 0 1 1-6.29 0m12.58 0a3.15 3.15 0 1 1-6.29 0m12.58 0a3.15 3.15 0 1 1-6.29 0m12.55 0a3.15 3.15 0 1 1-6.29 0m12.6 0a3.14 3.14 0 1 1-6.28 0m-28.13 3.15a3.15 3.15 0 0 1-6.29 0m12.58 0a3.15 3.15 0 0 1-6.29 0m12.58 0a3.15 3.15 0 0 1-6.29 0m12.58 0a3.15 3.15 0 0 1-6.29 0m12.57 0a3.14 3.14 0 0 1-6.28 0m12.57 0a3.15 3.15 0 0 1-6.29 0M66 133.16a3.15 3.15 0 1 1-6.29 0m12.62 0a3.15 3.15 0 1 1-6.29 0m12.58 0a3.15 3.15 0 1 1-6.29 0m12.57 0a3.14 3.14 0 1 1-6.28 0m12.57 0a3.15 3.15 0 1 1-6.29 0m12.58 0a3.15 3.15 0 1 1-6.29 0m-28.12 3.15a3.15 3.15 0 0 1-6.29 0m12.58 0a3.15 3.15 0 0 1-6.29 0m12.57 0a3.14 3.14 0 0 1-6.28 0m12.57 0a3.15 3.15 0 0 1-6.29 0m12.58 0a3.15 3.15 0 0 1-6.29 0m12.58 0a3.15 3.15 0 0 1-6.29 0" clip-path="url(#c3)"/><path fill="#fff" stroke="#a39d89" stroke-miterlimit="10" stroke-width=".58" d="M64.01 159.21h5.32v11.78h-5.32zm2.66 0v11.77m-2.66-5.88h5.32m4.32-5.89h5.32v11.78h-5.32zm2.66 0v11.77m-2.66-5.88h5.32m4.32-5.89h5.32v11.78h-5.32zm2.66 0v11.77m-2.66-5.88h5.32m-24.6 10.5h5.32v11.78h-5.32zm2.66 0v11.78m-2.66-5.89h5.32m4.32-5.89h5.32v11.78h-5.32zm2.66 0v11.78m-2.66-5.89h5.32m4.32-5.89h5.32v11.78h-5.32zm2.66 0v11.78m-2.66-5.89h5.32m-24.6-37.22h5.32v11.78h-5.32zm2.66 0v11.77m-2.66-5.89h5.32m4.32-5.88h5.32v11.78h-5.32zm2.66 0v11.77m-2.66-5.89h5.32m4.32-5.88h5.32v11.78h-5.32zm2.66 0v11.77m-2.66-5.89h5.32"/><path d="M29.83 113.33h.91v5.76h-.91zm2.06 2.74h.91v3.73h-.91zm26.27 3.67h-.91v-5.76h.91zm-2.06.72h-.91v-3.73h.91z" class="k"/><path d="M60.67 117.93h-8.1v1.92h.96v69.12h6.18v-69.12h.96v-1.92zm-25.47 0h-8.1v1.92h.96v69.12h6.18v-69.12h.96v-1.92z" class="n"/><path fill="#f2dbc7" d="M30.42 136.59h26.19v52.38H30.42z"/><path fill="#665439" d="M57.86 136.59H29.58l2.3-13.6h23.67l2.31 13.6z"/><path d="M34.69 139.95h4.03v9.79h-4.03z" class="i"/><path d="M36.7 139.95v9.78m2.02-4.74h-4.03" class="e"/><path d="M34.4 139.66l2.3-1.13 2.31 1.13H34.4z" class="w"/><path d="M41.7 139.95h4.03v9.79H41.7z" class="i"/><path d="M43.72 139.95v9.78m2.01-4.74H41.7" class="e"/><path d="M41.42 139.66l2.3-1.13 2.3 1.13h-4.6z" class="w"/><path d="M48.72 139.95h4.03v9.79h-4.03z" class="i"/><path d="M50.73 139.95v9.78m2.02-4.74h-4.03" class="e"/><path d="M48.43 139.66l2.3-1.13 2.31 1.13h-4.61z" class="w"/><path d="M34.69 154.41h4.03v9.79h-4.03z" class="i"/><path d="M36.7 154.41v9.79m2.02-4.75h-4.03" class="e"/><path d="M34.4 154.12l2.3-1.12 2.31 1.12H34.4z" class="w"/><path d="M41.7 154.41h4.03v9.79H41.7z" class="i"/><path d="M43.72 154.41v9.79m2.01-4.75H41.7" class="e"/><path d="M41.42 154.12l2.3-1.12 2.3 1.12h-4.6z" class="w"/><path d="M48.72 154.41h4.03v9.79h-4.03z" class="i"/><path d="M50.73 154.41v9.79m2.02-4.75h-4.03" class="e"/><path d="M48.43 154.12l2.3-1.12 2.31 1.12h-4.61z" class="w"/><path d="M34.69 168.87h4.03v9.79h-4.03z" class="i"/><path d="M36.7 168.87v9.79m2.02-4.75h-4.03" class="e"/><path d="M34.4 168.58l2.3-1.12 2.31 1.12H34.4z" class="w"/><path d="M41.7 168.87h4.03v9.79H41.7z" class="i"/><path d="M43.72 168.87v9.79m2.01-4.75H41.7" class="e"/><path d="M41.42 168.58l2.3-1.12 2.3 1.12h-4.6z" class="w"/><path d="M48.72 168.87h4.03v9.79h-4.03z" class="i"/><path d="M50.73 168.87v9.79m2.02-4.75h-4.03" class="e"/><path d="M48.43 168.58l2.3-1.12 2.31 1.12h-4.61z" class="w"/><path d="M29.58 181.85h28.2v7.12h-28.2z" class="n"/><path d="M39.26 126.14a2 2 0 0 1 2 2v5.34H37.3v-5.38a2 2 0 0 1 1.96-1.96z" class="j"/><path d="M39.26 126.14v7.3m-1.96-3.27h3.92" class="aa"/><path d="M48.18 126.14a2 2 0 0 1 2 2v5.34h-3.96v-5.38a2 2 0 0 1 2-2z" class="j"/><path d="M48.18 126.14v7.3m-1.96-3.27h3.92" class="aa"/><path fill="#ac7ecd" d="M39.38 188.97h181.56v4.89H39.38z"/><path fill="#6b4e89" d="M41.01 193.84H220.4v48.66H41.01z"/><path fill="#ba5d43" d="M33.34 174.2h187.59v3.4H33.34z"/><path fill="#d6896e" d="M165.14 177.59H35.83v16.25h4.94c3.92-7.47 14.7-12.84 27.39-12.84s23.46 5.36 27.38 12.83h9.89c3.92-7.47 14.69-12.83 27.38-12.83s23.47 5.36 27.39 12.83h9.89C174 186.37 184.78 181 197.47 181s23.47 5.36 27.39 12.83h4.94v-16.24z"/><path d="M100.68 180.34v6.42h3.84l-3.84-6.42z" class="o"/><path d="M103.94 193.86h-3.26v-7.1h3.84l-.58 7.1zm-3.26-13.55v6.43h-3.84l3.84-6.43z" class="v"/><path d="M97.42 193.84h3.26v-7.1h-3.84l.58 7.1z" class="u"/><path d="M165 180.34v6.42h3.84l-3.84-6.42z" class="o"/><path d="M168.26 193.86H165v-7.1h3.84l-.58 7.1zM165 180.31v6.43h-3.84l3.84-6.43z" class="v"/><path d="M161.74 193.84H165v-7.1h-3.84l.58 7.1z" class="u"/><g clip-path="url(#c4)"><rect width="8.49" height="3.17" x="79.09" y="181.34" class="v" rx=".54" ry=".54"/><rect width="8.49" height="3.17" x="84.02" y="185.18" class="v" rx=".54" ry=".54"/><rect width="8.49" height="3.17" x="179.25" y="179.43" class="v" rx=".54" ry=".54"/><rect width="8.49" height="3.17" x="172.81" y="183.26" class="v" rx=".54" ry=".54"/></g><path fill="#b181cf" d="M68.12 53.72h-.44a9.36 9.36 0 0 0 .09-1.3 9.8 9.8 0 0 0-19.6 0v.84a8.07 8.07 0 1 0-4.23 15h24.18a7.26 7.26 0 0 0 0-14.51zM79.74 83.8h-.21a4.44 4.44 0 0 0 0-.63 4.79 4.79 0 1 0-9.57 0v.41A3.9 3.9 0 0 0 68 83a3.94 3.94 0 1 0 0 7.88h11.74a3.54 3.54 0 1 0 0-7.08z" opacity=".38"/><path d="M94.83 201.49c-1.13 0-2 .33-2 .75s.9.76 2 .76 2-.34 2-.76-.83-.75-2-.75zm3.49 2.39c-.81 0-1.47.24-1.47.54s.66.54 1.47.54 1.46-.24 1.46-.54-.66-.54-1.46-.54zm8.99-10.04H93c.3 1.77 5.39 2 5.39 2s-3.17.14-3.17 1.39 3.17 1.48 3.17 1.48c-1.1.25-1.84.7-1.84 1.21 0 .74 1.51 1.34 3.45 1.41a.4.4 0 0 0-.08.23c0 .57 1.25 1 2.8 1s2.79-.47 2.79-1-.76-.83-1.83-1a.85.85 0 0 0 .44-.66c0-.54-.82-1-2-1.25.69-.07 3-.4 3-1.46 0-1.25-3.16-1.39-3.16-1.39s5.04-.19 5.35-1.96zm97.84.02h-45s.24 2.21 5.62 3.07c0 0-4.13.67-4.13 2.79s6.11 2.49 6.11 2.49-10.33.19-10.33 2.54 13.33 2.08 13.33 2.08-4.41.34-4.41 2.13 6.82 2.11 6.82 2.11-6.76 3.71 3.23 5.82 22-13.24 22-13.24z" class="ab"/><ellipse cx="159.07" cy="210.38" class="ab" rx="4.48" ry="1.42"/><ellipse cx="163.08" cy="214.35" class="ab" rx="2.62" ry=".83"/><circle cx="187.58" cy="156.04" r="86.1" fill="url(#r1)"/></g><path d="M106.63 209.6l-2.1 2.97-.31-3.62-.88-.23-2.11 2.95-.29-3.6-.99-.26.45 4.89 1 .27 1.99-2.76.33 3.38 1 .27 2.83-4.02-.92-.24zm4.52 1.12a2.6 2.6 0 0 0-2.39-.45 2.16 2.16 0 0 0-1 .67 2.46 2.46 0 0 0-.53 1.14 2.39 2.39 0 0 0 .08 1.25 2.19 2.19 0 0 0 .73 1 2.79 2.79 0 0 0 1.25.54 2.87 2.87 0 0 0 1.09 0 1.94 1.94 0 0 0 .88-.41l-.45-.76a1.67 1.67 0 0 1-1.32.26 1.6 1.6 0 0 1-.92-.48 1.23 1.23 0 0 1-.34-.88l3.55.67c0-.14.06-.24.08-.31a2.53 2.53 0 0 0-.06-1.29 2.16 2.16 0 0 0-.65-.95zm-2.79 1.19a1.35 1.35 0 0 1 .58-.72 1.41 1.41 0 0 1 1.73.33 1.28 1.28 0 0 1 .26.88zm8.55-.39a2.42 2.42 0 0 0-1.15-.43 2.12 2.12 0 0 0-.84 0 1.82 1.82 0 0 0-.7.37l.28-2.34-1.07-.13-.78 6.36 1 .13.07-.59a1.62 1.62 0 0 0 .6.56 1.89 1.89 0 0 0 .84.27 2.41 2.41 0 0 0 1.23-.14 2.13 2.13 0 0 0 .93-.73 2.55 2.55 0 0 0 .45-1.19 2.4 2.4 0 0 0-.15-1.26 2.16 2.16 0 0 0-.71-.88zm-.72 3a1.3 1.3 0 0 1-1 .27 1.41 1.41 0 0 1-.67-.26 1.34 1.34 0 0 1-.43-.56 1.65 1.65 0 0 1-.09-.78 1.57 1.57 0 0 1 .28-.73 1.24 1.24 0 0 1 .55-.44 1.41 1.41 0 0 1 .71-.09 1.32 1.32 0 0 1 .93.51 1.48 1.48 0 0 1 .25 1.09 1.41 1.41 0 0 1-.53 1.04zm5.41-2.94a2.48 2.48 0 0 0-.88.1 1.82 1.82 0 0 0-.69.4l.13-2.32-1.08-.06-.35 6.39 1.08.06.13-2.33a1.4 1.4 0 0 1 .4-1 1.27 1.27 0 0 1 1-.3 1 1 0 0 1 .79.35 1.23 1.23 0 0 1 .23.92l-.13 2.5 1.07.06.15-2.64a2 2 0 0 0-.44-1.53 1.93 1.93 0 0 0-1.41-.6zm3.14 4.77l.02-4.61h1.08l-.02 4.61zm.6-6.66a.69.69 0 0 0-.5.18.6.6 0 0 0-.2.46.58.58 0 0 0 .2.46.73.73 0 0 0 1 0 .62.62 0 0 0 .2-.48.55.55 0 0 0-.19-.44.71.71 0 0 0-.51-.18zm5.91 2.37a1.94 1.94 0 0 0-1.42-.46 2.59 2.59 0 0 0-.91.21 1.72 1.72 0 0 0-.65.51v-.6h-1l.19 4.61h1.07l-.09-2.33a1.44 1.44 0 0 1 .3-1.05 1.26 1.26 0 0 1 .93-.4 1.05 1.05 0 0 1 .82.28 1.24 1.24 0 0 1 .32.9l.11 2.5h1.07l-.1-2.64a2 2 0 0 0-.64-1.53zm3.97 2.99a.59.59 0 0 1-.49-.13.78.78 0 0 1-.22-.5l-.2-2.18 1.23-.12-.09-.86-1.23.12-.1-1-1.07.1.1 1-.76.07.08.86.76-.07.21 2.21a1.5 1.5 0 0 0 .52 1.11 1.62 1.62 0 0 0 1.21.29 2.42 2.42 0 0 0 .56-.13 1.28 1.28 0 0 0 .44-.28l-.37-.74a.89.89 0 0 1-.58.25zm2.22-.81a.64.64 0 0 0-.47.26.68.68 0 0 0-.14.54.69.69 0 0 0 .27.48.73.73 0 0 0 1-.12.74.74 0 0 0 .14-.54.73.73 0 0 0-.27-.49.7.7 0 0 0-.53-.13zm1.28-3.45l1.07-.17.7 4.55-1.06.17zm.88-1.1a.64.64 0 0 0 .12-.5.58.58 0 0 0-.26-.41.72.72 0 0 0-.52-.1.74.74 0 0 0-.46.26.59.59 0 0 0-.12.48.6.6 0 0 0 .27.43.69.69 0 0 0 .51.11.66.66 0 0 0 .46-.27zm6.4 2.1a2.37 2.37 0 0 0-.56-1.13 2.16 2.16 0 0 0-1-.65 2.83 2.83 0 0 0-2.48.5 2.21 2.21 0 0 0-.69 1 2.29 2.29 0 0 0-.07 1.25 2.34 2.34 0 0 0 .55 1.14 2.19 2.19 0 0 0 1 .65 2.67 2.67 0 0 0 1.29 0 2.73 2.73 0 0 0 1.19-.55 2.29 2.29 0 0 0 .69-1 2.54 2.54 0 0 0 .08-1.21zm-1.24 1.31a1.42 1.42 0 0 1-1.93.4 1.44 1.44 0 0 1-.58-.95 1.46 1.46 0 0 1 .16-1.1 1.34 1.34 0 0 1 .89-.59 1.3 1.3 0 0 1 1 .2 1.43 1.43 0 0 1 .59.94 1.45 1.45 0 0 1-.14 1.1z" class="x"/><path d="M156.86 123s28.14 10 15.94 41.22c0 0-20-10.71-23.83-35.14" class="s"/><path d="M157 122.53a33.94 33.94 0 0 1 10.67 6.72 27.77 27.77 0 0 1 7.1 10.44 25.89 25.89 0 0 1 1.53 6.18 29.42 29.42 0 0 1 .13 6.36 43.76 43.76 0 0 1-2.91 12.28.79.79 0 0 1-1 .47l-.13-.06a48.25 48.25 0 0 1-8.83-6.8 51.67 51.67 0 0 1-7.14-8.48l-.79-1.14-.7-1.2c-.46-.8-1-1.58-1.39-2.4a52.36 52.36 0 0 1-5.2-15.74.62.62 0 1 1 1.21-.23 50.55 50.55 0 0 0 2.93 10.38 46.12 46.12 0 0 0 2.27 4.89c.42.8.91 1.55 1.36 2.33l.7 1.16.78 1.1a49.33 49.33 0 0 0 7 8.18 46.17 46.17 0 0 0 8.54 6.47l-1.14.42a42.65 42.65 0 0 0 3-11.81 28.64 28.64 0 0 0-.06-6.07 24.33 24.33 0 0 0-1.39-5.88 26.19 26.19 0 0 0-6.67-10 33 33 0 0 0-10.19-6.6.54.54 0 1 1 .4-1z" class="p"/><path d="M77.33 152.8c20.52 20.63 91.15 31.14 102.35-21.58 10.37-48.73-36.31-63.42-63.5-49.5-31.85 16.28-9.4 50.84-21.51 60.48-7.24 5.77-15.43 1.3-15.43 1.3s3.07-17-17.71-21.63c0 0-6 16.74 5.91 23.07 0 0-12.66.14-16.83 15.11 17.12 9.95 26.72-7.25 26.72-7.25z" class="s"/><g clip-path="url(#c5)"><path fill="#bbc6ef" d="M179.68 134.48s-27.05-13.24-52.81 14.77C107.62 170.19 83.3 157 83.3 157l10.62 17.88 54.32 8.59L182.38 159l3.49-27z"/><ellipse cx="99.17" cy="118.06" class="q" rx="13.55" ry="5.04" transform="rotate(-88.37 99.17 118.06)"/><path d="M108.54 128.06c1.42.14 2.33-2.85 2.56-5.65s-.42-4.71-1.73-4.51c-1 .15-2 2.1-2.24 4.91s.41 5.19 1.41 5.25z" class="q"/><ellipse cx="104.9" cy="133.13" class="q" rx="2.41" ry="1.05" transform="rotate(-76.58 104.9 133.13)"/></g><path d="M112 76.35s-2.67-3.72-6.12-5-1-7 5.1 0 4.61 8.93 4.61 8.93z" class="r"/><path fill="none" stroke="#1c418c" d="M77.33 152.8c20.52 20.63 91.15 31.14 102.35-21.58 10.37-48.73-36.31-63.42-63.5-49.5-31.85 16.28-9.4 50.84-21.51 60.48-7.24 5.77-15.43 1.3-15.43 1.3s3.07-17-17.71-21.63c0 0-6 16.74 5.91 23.07 0 0-12.66.14-16.83 15.11 17.12 9.95 26.72-7.25 26.72-7.25z" class="ad ae"/><path d="M126.48 143.25s12.93 26.89-17.78 40.42c0 0-6.6-21.7 7.92-41.71" class="s"/><path d="M127 143a34 34 0 0 1 2.81 12.3 27.45 27.45 0 0 1-2.33 12.4 25.52 25.52 0 0 1-3.28 5.47 29.81 29.81 0 0 1-4.39 4.59 43.82 43.82 0 0 1-10.81 6.65.78.78 0 0 1-1-.38.69.69 0 0 1 0-.13 47.87 47.87 0 0 1-1.45-11 51.24 51.24 0 0 1 .92-11.05l.25-1.36c.1-.45.23-.9.34-1.35.24-.89.44-1.8.72-2.68a50.75 50.75 0 0 1 1.94-5.2 53.19 53.19 0 0 1 5.48-9.62.62.62 0 0 1 1 .69 50.54 50.54 0 0 0-5.25 9.42 48.16 48.16 0 0 0-1.85 5.08c-.26.86-.45 1.74-.67 2.61l-.32 1.31-.23 1.33a49 49 0 0 0-.8 10.75 46.88 46.88 0 0 0 1.48 10.61l-1.11-.51a42.13 42.13 0 0 0 10.42-6.29 28 28 0 0 0 4.13-4.34 24.35 24.35 0 0 0 3.17-5.15 26.4 26.4 0 0 0 2.35-11.81 33.2 33.2 0 0 0-2.52-11.86.54.54 0 0 1 .28-.71.54.54 0 0 1 .72.23z" class="p"/><path d="M93.91 85.92c6.48-2 15.19-4.65 24.2-14.78 10.58-11.88 37.44-19.88 39.34-6.3 2.85 20.28-23.36 6.48-41.59 25.29-15 15.51-25.63 12.84-28.24 6.28-1.72-4.32.59-8.73 6.29-10.49z" class="r"/><path fill="#cae8ef" d="M146.27 81.58l-9.76-43.41s-4 31.52-5.36 43.45c-.72 4.45 8 4.06 8 4.06s7.69-.11 7.12-4.1z" class="ad ae af"/><path fill="none" stroke="#82bbc4" stroke-linecap="round" stroke-linejoin="round" stroke-width="1.38" d="M145.46 78.9c-1.48.39-8.57 1.5-13.36-3.56m11.03-7.76a14.27 14.27 0 0 1-9.86-2.8m7.18-9.08a14.16 14.16 0 0 1-5.87-1.53"/><path fill="none" d="M146.27 81.58l-9.76-43.41s-4 31.52-5.36 43.45" class="ad ae af"/><path d="M121.48 107.45s1.63 6.24 6.11 5.3c4.25-.88 1-7.17 1-7.17m30.41-5.39s1.61 6.07 5.63 5c3.74-1 1-6.71 1-6.71" class="m"/><ellipse cx="146.84" cy="109.22" fill="#402b5e" rx="1.97" ry="3.14" transform="rotate(-10.87 146.88 109.27)"/><path d="M118.96 98.46l5.37-4.17m32.94-7.35l5.15 1.97" class="m"/></svg>