<svg id="sticker" xmlns="http://www.w3.org/2000/svg" xmlns:xlink="http://www.w3.org/1999/xlink" viewBox="0 0 252 252"><defs><style>.cls-1,.cls-18,.cls-22,.cls-27,.cls-30,.cls-48,.cls-50,.cls-51,.cls-52,.cls-8,.cls-9{fill:none;}.cls-15,.cls-2,.cls-23{fill:#fff;}.cls-3{fill:url(#linear-gradient);}.cls-4{clip-path:url(#clip-path);}.cls-5{opacity:0.6;}.cls-6{fill:#5a4ea4;}.cls-7{fill:url(#linear-gradient-2);}.cls-8,.cls-9{stroke:#443d3c;}.cls-15,.cls-18,.cls-22,.cls-23,.cls-26,.cls-27,.cls-29,.cls-30,.cls-8,.cls-9{stroke-miterlimit:10;}.cls-8{stroke-width:1.15px;}.cls-15,.cls-18,.cls-22,.cls-23,.cls-26,.cls-27,.cls-29,.cls-30,.cls-9{stroke-width:0.58px;}.cls-10{fill:#443d3c;}.cls-11{fill:#222f3f;}.cls-12{fill:#5b4732;}.cls-13{fill:#b28074;}.cls-14{fill:#5d5d72;}.cls-15{stroke:#5d5d72;}.cls-16{opacity:0.4;}.cls-17{clip-path:url(#clip-path-2);}.cls-18{stroke:#8995a3;}.cls-19{fill:#f4eed7;}.cls-20{fill:#5c6866;}.cls-21{clip-path:url(#clip-path-3);}.cls-22{stroke:#7d918d;}.cls-23{stroke:#a39d89;}.cls-24{fill:#f2dbc7;}.cls-25{fill:#665439;}.cls-26,.cls-29{fill:#f2da97;}.cls-26,.cls-27{stroke:#876a5c;}.cls-28{fill:#876a5c;}.cls-29,.cls-30{stroke:#5b3d34;}.cls-31{fill:#ac7ecd;}.cls-32{fill:#6b4e89;}.cls-33{fill:#ba5d43;}.cls-34{fill:#d6896e;}.cls-35{fill:#a3503a;}.cls-36{fill:#c66f54;}.cls-37{fill:#e0b789;}.cls-38{clip-path:url(#clip-path-4);}.cls-39{fill:#b181cf;opacity:0.38;}.cls-40{fill:#543d72;}.cls-41{fill:url(#radial-gradient);}.cls-42{fill:#96a3e2;}.cls-43{fill:#1c418c;}.cls-44{clip-path:url(#clip-path-5);}.cls-45{fill:#bbc6ef;}.cls-46{fill:#6b7fc6;}.cls-47{fill:#242730;stroke:#0e0f11;}.cls-47,.cls-48,.cls-49,.cls-50,.cls-51,.cls-52{stroke-linecap:round;stroke-linejoin:round;}.cls-47,.cls-48,.cls-49,.cls-50,.cls-51{stroke-width:1.38px;}.cls-48,.cls-52{stroke:#1c418c;}.cls-49{fill:#cae8ef;}.cls-49,.cls-51{stroke:#4b8087;}.cls-50{stroke:#82bbc4;}.cls-52{stroke-width:1.41px;}.cls-53{fill:#402b5e;}</style><linearGradient id="linear-gradient" x1="126" y1="173.46" x2="126" y2="25.86" gradientUnits="userSpaceOnUse"><stop offset="0.13" stop-color="#fcdb75"/><stop offset="0.41" stop-color="#bf78d6"/><stop offset="0.82" stop-color="#3e3896"/></linearGradient><clipPath id="clip-path"><circle class="cls-1" cx="126" cy="126" r="100.24"/></clipPath><linearGradient id="linear-gradient-2" x1="136.52" y1="187.82" x2="136.52" y2="151.48" gradientUnits="userSpaceOnUse"><stop offset="0" stop-color="#fcdb75"/><stop offset="1" stop-color="#fcdb75" stop-opacity="0"/></linearGradient><clipPath id="clip-path-2"><polygon class="cls-1" points="252.38 122.37 212.12 122.37 207.89 141.32 256.61 141.32 252.38 122.37"/></clipPath><clipPath id="clip-path-3"><polygon class="cls-1" points="90.03 126.74 62.59 126.74 59.71 139.66 92.91 139.66 90.03 126.74"/></clipPath><clipPath id="clip-path-4"><path class="cls-1" d="M165.14,177.59H35.83v16.25h4.94C44.69,186.37,55.47,181,68.16,181s23.46,5.36,27.38,12.83h9.89c3.92-7.47,14.69-12.83,27.38-12.83s23.47,5.36,27.39,12.83h9.89C174,186.37,184.78,181,197.47,181s23.47,5.36,27.39,12.83h4.94V177.59Z"/></clipPath><radialGradient id="radial-gradient" cx="187.58" cy="156.04" r="86.1" gradientUnits="userSpaceOnUse"><stop offset="0" stop-color="#ffdb80" stop-opacity="0.5"/><stop offset="1" stop-color="#ffdb80" stop-opacity="0"/></radialGradient><clipPath id="clip-path-5"><path class="cls-1" d="M77.33,152.8c20.52,20.63,91.15,31.14,102.35-21.58,10.37-48.73-36.31-63.42-63.5-49.5C84.33,98,106.78,132.56,94.67,142.2c-7.24,5.77-15.43,1.3-15.43,1.3s3.07-17-17.71-21.63c0,0-6,16.74,5.91,23.07,0,0-12.66.14-16.83,15.11C67.73,170,77.33,152.8,77.33,152.8Z"/></clipPath></defs><title>webhint_sticker_8</title><circle class="cls-2" cx="126" cy="126" r="108.03"/><circle class="cls-3" cx="126" cy="126" r="100.24"/><g class="cls-4"><g class="cls-5"><path class="cls-6" d="M96.75,126.3H93.39v-4.72H91.62c0-.23,0-.46,0-.69a10.68,10.68,0,0,0-8.08-10.35l-.31-3.11H81.62L81,98.79l-.65,8.64H78.67l-.31,3.11a10.67,10.67,0,0,0-3.4,1.52v-1.58H72v-3.92H68v9.12H64.68v-9.12h-4v6.33H58.14v-2.41H48v8H43.52v-4.2H39.33a13.24,13.24,0,1,0-18.81,13.11V158.8H33.93V144.27h6v4.19H50.14v-8h5.5v22.81h13V136.59H71v3.92h2v11.1h3.36v4.72H91.18v32.72h20.43V134.72H96.75Z"/><polygon class="cls-6" points="163.08 139.1 145.93 139.1 145.93 135.52 125.49 135.52 125.49 189.85 144.29 189.85 145.93 189.85 149 189.85 149 190.31 167.8 190.31 167.8 168.46 163.08 168.46 163.08 139.1"/><rect class="cls-6" x="195.7" y="158.49" width="18.79" height="31.13"/><rect class="cls-6" x="105.76" y="162.92" width="29.74" height="26.94"/></g><rect class="cls-7" x="39.01" y="148.18" width="195.02" height="40.88"/><path class="cls-8" d="M224.39,189c-27.19-25.9-27.11-76.9-27.11-76.9V71.77H194V112.4s-1.51,45.65,17.33,76.65"/><line class="cls-8" x1="197.28" y1="80.18" x2="193.99" y2="80.18"/><line class="cls-8" x1="193.99" y1="86.99" x2="197.28" y2="86.99"/><line class="cls-8" x1="193.99" y1="93.81" x2="197.28" y2="93.81"/><line class="cls-8" x1="193.99" y1="100.62" x2="197.28" y2="100.62"/><line class="cls-8" x1="193.99" y1="107.43" x2="197.28" y2="107.43"/><line class="cls-8" x1="193.99" y1="114.24" x2="197.28" y2="114.24"/><line class="cls-8" x1="193.99" y1="121.05" x2="197.28" y2="121.05"/><line class="cls-8" x1="193.99" y1="127.86" x2="198.46" y2="127.86"/><line class="cls-8" x1="194.82" y1="134.67" x2="199.47" y2="134.67"/><line class="cls-8" x1="195.64" y1="141.48" x2="200.78" y2="141.48"/><line class="cls-8" x1="196.77" y1="148.3" x2="202.43" y2="148.3"/><line class="cls-8" x1="204.32" y1="155.11" x2="198.41" y2="155.11"/><line class="cls-8" x1="200.1" y1="161.92" x2="206.85" y2="161.92"/><line class="cls-8" x1="202.04" y1="168.73" x2="210.08" y2="168.73"/><line class="cls-8" x1="204.35" y1="175.54" x2="213.7" y2="175.54"/><line class="cls-8" x1="207.8" y1="182.35" x2="218.33" y2="182.35"/><line class="cls-9" x1="197.1" y1="86.99" x2="194.32" y2="80.3"/><line class="cls-9" x1="194.32" y1="86.99" x2="197.1" y2="80.3"/><line class="cls-9" x1="197.03" y1="93.81" x2="194.24" y2="87.11"/><line class="cls-9" x1="194.24" y1="93.81" x2="197.03" y2="87.11"/><line class="cls-9" x1="197.03" y1="100.62" x2="194.24" y2="93.93"/><line class="cls-9" x1="194.24" y1="100.62" x2="197.03" y2="93.93"/><line class="cls-9" x1="197.03" y1="107.43" x2="194.24" y2="100.74"/><line class="cls-9" x1="194.24" y1="107.43" x2="197.03" y2="100.74"/><line class="cls-9" x1="197.03" y1="114.24" x2="194.24" y2="107.55"/><line class="cls-9" x1="194.24" y1="114.24" x2="197.03" y2="107.55"/><line class="cls-8" x1="194.24" y1="120.93" x2="197.54" y2="120.93"/><line class="cls-9" x1="197.28" y1="120.93" x2="194.5" y2="114.23"/><line class="cls-9" x1="194.5" y1="120.93" x2="197.28" y2="114.23"/><line class="cls-9" x1="198.02" y1="127.8" x2="194.5" y2="121.34"/><line class="cls-9" x1="194.84" y1="127.8" x2="197.62" y2="121.11"/><line class="cls-9" x1="199.03" y1="134.67" x2="194.84" y2="128.15"/><line class="cls-9" x1="195.51" y1="134.61" x2="198.29" y2="127.92"/><line class="cls-9" x1="200.36" y1="141.39" x2="195.51" y2="134.93"/><line class="cls-9" x1="196.42" y1="141.39" x2="199.21" y2="134.7"/><line class="cls-9" x1="202.01" y1="148.18" x2="196.42" y2="141.84"/><line class="cls-9" x1="197.4" y1="147.96" x2="200.54" y2="141.62"/><line class="cls-9" x1="203.9" y1="154.98" x2="197.66" y2="148.65"/><line class="cls-9" x1="198.82" y1="154.76" x2="202.11" y2="148.42"/><line class="cls-9" x1="206.53" y1="161.7" x2="198.94" y2="155.5"/><line class="cls-9" x1="200.27" y1="161.61" x2="204.04" y2="155.36"/><line class="cls-9" x1="209.41" y1="168.47" x2="200.78" y2="162.39"/><line class="cls-9" x1="202.47" y1="168.47" x2="206.47" y2="162.39"/><line class="cls-9" x1="213.07" y1="175.26" x2="202.74" y2="169.19"/><line class="cls-9" x1="204.81" y1="175.26" x2="209.59" y2="169.19"/><line class="cls-9" x1="217.67" y1="181.97" x2="205.34" y2="175.9"/><line class="cls-9" x1="207.9" y1="181.78" x2="213.39" y2="175.9"/><line class="cls-9" x1="224.16" y1="188.76" x2="208.31" y2="182.68"/><line class="cls-9" x1="211.35" y1="189.05" x2="218.13" y2="182.68"/><line class="cls-9" x1="197.1" y1="80.06" x2="194.32" y2="73.37"/><line class="cls-9" x1="194.32" y1="80.06" x2="197.1" y2="73.37"/><path class="cls-8" d="M163.56,189c27.19-25.9,27.11-76.9,27.11-76.9V71.77h3.26V112.4s1.51,45.65-17.33,76.65"/><line class="cls-8" x1="190.67" y1="80.18" x2="193.96" y2="80.18"/><line class="cls-8" x1="193.96" y1="86.99" x2="190.67" y2="86.99"/><line class="cls-8" x1="193.96" y1="93.81" x2="190.67" y2="93.81"/><line class="cls-8" x1="193.96" y1="100.62" x2="190.67" y2="100.62"/><line class="cls-8" x1="193.96" y1="107.43" x2="190.67" y2="107.43"/><line class="cls-8" x1="193.96" y1="114.24" x2="190.67" y2="114.24"/><line class="cls-8" x1="193.96" y1="121.05" x2="190.67" y2="121.05"/><line class="cls-8" x1="193.96" y1="127.86" x2="189.48" y2="127.86"/><line class="cls-8" x1="193.13" y1="134.67" x2="188.48" y2="134.67"/><line class="cls-8" x1="192.31" y1="141.48" x2="187.16" y2="141.48"/><line class="cls-8" x1="191.18" y1="148.3" x2="185.52" y2="148.3"/><line class="cls-8" x1="183.63" y1="155.11" x2="189.53" y2="155.11"/><line class="cls-8" x1="187.84" y1="161.92" x2="181.09" y2="161.92"/><line class="cls-8" x1="185.91" y1="168.73" x2="177.87" y2="168.73"/><line class="cls-8" x1="183.6" y1="175.54" x2="174.25" y2="175.54"/><line class="cls-8" x1="180.14" y1="182.35" x2="169.62" y2="182.35"/><line class="cls-9" x1="190.85" y1="86.99" x2="193.63" y2="80.3"/><line class="cls-9" x1="193.63" y1="86.99" x2="190.85" y2="80.3"/><line class="cls-9" x1="190.92" y1="93.81" x2="193.7" y2="87.11"/><line class="cls-9" x1="193.7" y1="93.81" x2="190.92" y2="87.11"/><line class="cls-9" x1="190.92" y1="100.62" x2="193.7" y2="93.93"/><line class="cls-9" x1="193.7" y1="100.62" x2="190.92" y2="93.93"/><line class="cls-9" x1="190.92" y1="107.43" x2="193.7" y2="100.74"/><line class="cls-9" x1="193.7" y1="107.43" x2="190.92" y2="100.74"/><line class="cls-9" x1="190.92" y1="114.24" x2="193.7" y2="107.55"/><line class="cls-9" x1="193.7" y1="114.24" x2="190.92" y2="107.55"/><line class="cls-8" x1="193.7" y1="120.93" x2="190.41" y2="120.93"/><line class="cls-9" x1="190.67" y1="120.93" x2="193.45" y2="114.23"/><line class="cls-9" x1="193.45" y1="120.93" x2="190.67" y2="114.23"/><line class="cls-9" x1="189.92" y1="127.8" x2="193.45" y2="121.34"/><line class="cls-9" x1="193.11" y1="127.8" x2="190.33" y2="121.11"/><line class="cls-9" x1="188.92" y1="134.67" x2="193.11" y2="128.15"/><line class="cls-9" x1="192.44" y1="134.61" x2="189.65" y2="127.92"/><line class="cls-9" x1="187.58" y1="141.39" x2="192.44" y2="134.93"/><line class="cls-9" x1="191.52" y1="141.39" x2="188.74" y2="134.7"/><line class="cls-9" x1="185.94" y1="148.18" x2="191.52" y2="141.84"/><line class="cls-9" x1="190.55" y1="147.96" x2="187.41" y2="141.62"/><line class="cls-9" x1="184.05" y1="154.98" x2="190.28" y2="148.65"/><line class="cls-9" x1="189.13" y1="154.76" x2="185.84" y2="148.42"/><line class="cls-9" x1="181.42" y1="161.7" x2="189.01" y2="155.5"/><line class="cls-9" x1="187.67" y1="161.61" x2="183.91" y2="155.36"/><line class="cls-9" x1="178.54" y1="168.47" x2="187.17" y2="162.39"/><line class="cls-9" x1="185.48" y1="168.47" x2="181.48" y2="162.39"/><line class="cls-9" x1="174.88" y1="175.26" x2="185.21" y2="169.19"/><line class="cls-9" x1="183.14" y1="175.26" x2="178.36" y2="169.19"/><line class="cls-9" x1="170.28" y1="181.97" x2="182.61" y2="175.9"/><line class="cls-9" x1="180.05" y1="181.78" x2="174.56" y2="175.9"/><line class="cls-9" x1="163.78" y1="188.76" x2="179.63" y2="182.68"/><line class="cls-9" x1="176.6" y1="189.05" x2="169.82" y2="182.68"/><line class="cls-9" x1="190.85" y1="80.06" x2="193.63" y2="73.37"/><line class="cls-9" x1="193.63" y1="80.06" x2="190.85" y2="73.37"/><rect class="cls-10" x="175.41" y="167.77" width="37.08" height="4.45"/><line class="cls-9" x1="175.6" y1="165.19" x2="212.49" y2="165.19"/><line class="cls-9" x1="176.44" y1="168.11" x2="176.44" y2="165.19"/><line class="cls-9" x1="179.63" y1="168.11" x2="179.63" y2="165.19"/><line class="cls-9" x1="182.82" y1="168.11" x2="182.82" y2="165.19"/><line class="cls-9" x1="186.01" y1="168.11" x2="186.01" y2="165.19"/><line class="cls-9" x1="189.2" y1="168.11" x2="189.2" y2="165.19"/><line class="cls-9" x1="192.39" y1="168.11" x2="192.39" y2="165.19"/><line class="cls-9" x1="195.58" y1="168.11" x2="195.58" y2="165.19"/><line class="cls-9" x1="198.77" y1="168.11" x2="198.77" y2="165.19"/><line class="cls-9" x1="201.96" y1="168.11" x2="201.96" y2="165.19"/><line class="cls-9" x1="205.15" y1="168.11" x2="205.15" y2="165.19"/><line class="cls-9" x1="208.34" y1="168.11" x2="208.34" y2="165.19"/><line class="cls-9" x1="211.53" y1="168.11" x2="211.53" y2="165.19"/><rect class="cls-10" x="185.21" y="143.51" width="17.53" height="2.71"/><line class="cls-9" x1="185.21" y1="140.92" x2="202.74" y2="140.92"/><line class="cls-9" x1="186.01" y1="143.84" x2="186.01" y2="140.92"/><line class="cls-9" x1="189.2" y1="143.84" x2="189.2" y2="140.92"/><line class="cls-9" x1="192.39" y1="143.84" x2="192.39" y2="140.92"/><line class="cls-9" x1="195.58" y1="143.84" x2="195.58" y2="140.92"/><line class="cls-9" x1="198.77" y1="143.84" x2="198.77" y2="140.92"/><line class="cls-9" x1="201.96" y1="143.84" x2="201.96" y2="140.92"/><path class="cls-8" d="M209.59,190c0-8.12-7-14.7-15.62-14.7s-15.61,6.58-15.61,14.7"/><line class="cls-8" x1="193.95" y1="172.22" x2="193.95" y2="175.54"/><line class="cls-8" x1="189.68" y1="175.9" x2="187.84" y2="171.27"/><line class="cls-8" x1="186.01" y1="177.38" x2="183.41" y2="175.26"/><line class="cls-8" x1="197.8" y1="175.9" x2="199.64" y2="171.27"/><line class="cls-8" x1="201.47" y1="177.38" x2="204.07" y2="175.26"/><rect class="cls-10" x="189.02" y="68.53" width="9.88" height="3.2"/><rect class="cls-10" x="190.72" y="67.48" width="6.51" height="3.2"/><circle class="cls-10" cx="193.98" cy="67.48" r="3.26"/><polygon class="cls-10" points="193.99 57.95 193.97 58.28 193.97 57.95 193.29 65.89 193.41 65.89 193.97 65.89 194.67 65.89 193.99 57.95"/><rect class="cls-11" x="218.43" y="112.4" width="0.97" height="6.15"/><rect class="cls-11" x="216.63" y="114.51" width="0.97" height="6.15"/><rect class="cls-12" x="215.04" y="116.37" width="6.25" height="10.46"/><rect class="cls-13" x="207.89" y="141.32" width="35.44" height="47.73"/><polygon class="cls-14" points="252.38 122.37 212.12 122.37 207.89 141.32 256.61 141.32 252.38 122.37"/><rect class="cls-15" x="212.48" y="145.19" width="5.68" height="12.57"/><line class="cls-15" x1="215.32" y1="145.19" x2="215.32" y2="157.76"/><line class="cls-15" x1="212.48" y1="151.47" x2="218.16" y2="151.47"/><rect class="cls-15" x="222.77" y="145.19" width="5.68" height="12.57"/><line class="cls-15" x1="225.61" y1="145.19" x2="225.61" y2="157.76"/><line class="cls-15" x1="222.77" y1="151.47" x2="228.45" y2="151.47"/><rect class="cls-15" x="233.06" y="145.19" width="5.68" height="12.57"/><line class="cls-15" x1="235.9" y1="145.19" x2="235.9" y2="157.76"/><line class="cls-15" x1="233.06" y1="151.47" x2="238.75" y2="151.47"/><rect class="cls-15" x="212.48" y="162.69" width="5.68" height="12.57"/><line class="cls-15" x1="215.32" y1="162.69" x2="215.32" y2="175.26"/><line class="cls-15" x1="212.48" y1="168.97" x2="218.16" y2="168.97"/><rect class="cls-15" x="222.77" y="162.69" width="5.68" height="12.57"/><line class="cls-15" x1="225.61" y1="162.69" x2="225.61" y2="175.26"/><line class="cls-15" x1="222.77" y1="168.97" x2="228.45" y2="168.97"/><rect class="cls-15" x="233.06" y="162.69" width="5.68" height="12.57"/><line class="cls-15" x1="235.9" y1="162.69" x2="235.9" y2="175.26"/><line class="cls-15" x1="233.06" y1="168.97" x2="238.75" y2="168.97"/><g class="cls-16"><g class="cls-17"><path class="cls-18" d="M218.73,122.37a4.6,4.6,0,0,1-9.2,0"/><path class="cls-18" d="M227.92,122.37a4.6,4.6,0,0,1-9.19,0"/><path class="cls-18" d="M237.11,122.37a4.6,4.6,0,0,1-9.19,0"/><path class="cls-18" d="M246.31,122.37a4.6,4.6,0,0,1-9.2,0"/><path class="cls-18" d="M255.5,122.37a4.6,4.6,0,0,1-9.19,0"/><path class="cls-18" d="M214.38,127a4.6,4.6,0,0,1-9.2,0"/><path class="cls-18" d="M223.57,127a4.6,4.6,0,1,1-9.19,0"/><path class="cls-18" d="M232.77,127a4.6,4.6,0,0,1-9.2,0"/><path class="cls-18" d="M242,127a4.6,4.6,0,1,1-9.19,0"/><path class="cls-18" d="M251.16,127a4.6,4.6,0,0,1-9.2,0"/><path class="cls-18" d="M260.35,127a4.6,4.6,0,1,1-9.19,0"/><path class="cls-18" d="M219,131.75a4.6,4.6,0,0,1-9.2,0"/><path class="cls-18" d="M228.16,131.75a4.6,4.6,0,1,1-9.19,0"/><path class="cls-18" d="M237.36,131.75a4.6,4.6,0,0,1-9.2,0"/><path class="cls-18" d="M246.55,131.75a4.6,4.6,0,1,1-9.19,0"/><path class="cls-18" d="M255.75,131.75a4.6,4.6,0,1,1-9.2,0"/><path class="cls-18" d="M214.62,136.35a4.6,4.6,0,1,1-9.19,0"/><path class="cls-18" d="M223.82,136.35a4.6,4.6,0,0,1-9.2,0"/><path class="cls-18" d="M233,136.35a4.6,4.6,0,1,1-9.19,0"/><path class="cls-18" d="M242.21,136.35a4.6,4.6,0,1,1-9.2,0"/><path class="cls-18" d="M251.4,136.35a4.6,4.6,0,1,1-9.19,0"/><path class="cls-18" d="M260.59,136.35a4.6,4.6,0,1,1-9.19,0"/></g></g><rect class="cls-11" x="81.66" y="116.86" width="0.91" height="5.76"/><rect class="cls-11" x="83.48" y="119.74" width="0.91" height="5.76"/><rect class="cls-12" x="80.1" y="120.89" width="5.85" height="9.8"/><rect class="cls-19" x="59.71" y="139.66" width="33.19" height="49.31"/><polygon class="cls-20" points="90.03 126.74 62.59 126.74 59.71 139.66 92.91 139.66 90.03 126.74"/><g class="cls-21"><path class="cls-22" d="M65.87,126.74a3.14,3.14,0,1,1-6.28,0"/><path class="cls-22" d="M72.16,126.74a3.15,3.15,0,1,1-6.29,0"/><path class="cls-22" d="M78.45,126.74a3.15,3.15,0,1,1-6.29,0"/><path class="cls-22" d="M84.74,126.74a3.15,3.15,0,1,1-6.29,0"/><path class="cls-22" d="M91,126.74a3.15,3.15,0,1,1-6.29,0"/><path class="cls-22" d="M97.31,126.74a3.14,3.14,0,1,1-6.28,0"/><path class="cls-22" d="M62.9,129.89a3.15,3.15,0,0,1-6.29,0"/><path class="cls-22" d="M69.19,129.89a3.15,3.15,0,0,1-6.29,0"/><path class="cls-22" d="M75.48,129.89a3.15,3.15,0,0,1-6.29,0"/><path class="cls-22" d="M81.77,129.89a3.15,3.15,0,0,1-6.29,0"/><path class="cls-22" d="M88.05,129.89a3.14,3.14,0,0,1-6.28,0"/><path class="cls-22" d="M94.34,129.89a3.15,3.15,0,0,1-6.29,0"/><path class="cls-22" d="M66,133.16a3.15,3.15,0,1,1-6.29,0"/><path class="cls-22" d="M72.33,133.16a3.15,3.15,0,1,1-6.29,0"/><path class="cls-22" d="M78.62,133.16a3.15,3.15,0,1,1-6.29,0"/><path class="cls-22" d="M84.9,133.16a3.14,3.14,0,1,1-6.28,0"/><path class="cls-22" d="M91.19,133.16a3.15,3.15,0,1,1-6.29,0"/><path class="cls-22" d="M97.48,133.16a3.15,3.15,0,1,1-6.29,0"/><path class="cls-22" d="M63.07,136.31a3.15,3.15,0,0,1-6.29,0"/><path class="cls-22" d="M69.36,136.31a3.15,3.15,0,0,1-6.29,0"/><path class="cls-22" d="M75.64,136.31a3.14,3.14,0,0,1-6.28,0"/><path class="cls-22" d="M81.93,136.31a3.15,3.15,0,0,1-6.29,0"/><path class="cls-22" d="M88.22,136.31a3.15,3.15,0,0,1-6.29,0"/><path class="cls-22" d="M94.51,136.31a3.15,3.15,0,0,1-6.29,0"/></g><rect class="cls-23" x="64.01" y="159.21" width="5.32" height="11.78"/><line class="cls-23" x1="66.67" y1="159.21" x2="66.67" y2="170.98"/><line class="cls-23" x1="64.01" y1="165.1" x2="69.33" y2="165.1"/><rect class="cls-23" x="73.65" y="159.21" width="5.32" height="11.78"/><line class="cls-23" x1="76.31" y1="159.21" x2="76.31" y2="170.98"/><line class="cls-23" x1="73.65" y1="165.1" x2="78.97" y2="165.1"/><rect class="cls-23" x="83.29" y="159.21" width="5.32" height="11.78"/><line class="cls-23" x1="85.95" y1="159.21" x2="85.95" y2="170.98"/><line class="cls-23" x1="83.29" y1="165.1" x2="88.61" y2="165.1"/><rect class="cls-23" x="64.01" y="175.6" width="5.32" height="11.78"/><line class="cls-23" x1="66.67" y1="175.6" x2="66.67" y2="187.38"/><line class="cls-23" x1="64.01" y1="181.49" x2="69.33" y2="181.49"/><rect class="cls-23" x="73.65" y="175.6" width="5.32" height="11.78"/><line class="cls-23" x1="76.31" y1="175.6" x2="76.31" y2="187.38"/><line class="cls-23" x1="73.65" y1="181.49" x2="78.97" y2="181.49"/><rect class="cls-23" x="83.29" y="175.6" width="5.32" height="11.78"/><line class="cls-23" x1="85.95" y1="175.6" x2="85.95" y2="187.38"/><line class="cls-23" x1="83.29" y1="181.49" x2="88.61" y2="181.49"/><rect class="cls-23" x="64.01" y="144.27" width="5.32" height="11.78"/><line class="cls-23" x1="66.67" y1="144.27" x2="66.67" y2="156.04"/><line class="cls-23" x1="64.01" y1="150.15" x2="69.33" y2="150.15"/><rect class="cls-23" x="73.65" y="144.27" width="5.32" height="11.78"/><line class="cls-23" x1="76.31" y1="144.27" x2="76.31" y2="156.04"/><line class="cls-23" x1="73.65" y1="150.15" x2="78.97" y2="150.15"/><rect class="cls-23" x="83.29" y="144.27" width="5.32" height="11.78"/><line class="cls-23" x1="85.95" y1="144.27" x2="85.95" y2="156.04"/><line class="cls-23" x1="83.29" y1="150.15" x2="88.61" y2="150.15"/><rect class="cls-11" x="29.83" y="113.33" width="0.91" height="5.76"/><rect class="cls-11" x="31.89" y="116.07" width="0.91" height="3.73"/><rect class="cls-11" x="57.24" y="113.98" width="0.91" height="5.76" transform="translate(115.4 233.72) rotate(-180)"/><rect class="cls-11" x="55.18" y="116.72" width="0.91" height="3.73" transform="translate(111.27 237.18) rotate(-180)"/><polygon class="cls-12" points="60.67 117.93 52.57 117.93 52.57 119.85 53.53 119.85 53.53 188.97 59.71 188.97 59.71 119.85 60.67 119.85 60.67 117.93"/><polygon class="cls-12" points="35.2 117.93 27.1 117.93 27.1 119.85 28.06 119.85 28.06 188.97 34.24 188.97 34.24 119.85 35.2 119.85 35.2 117.93"/><rect class="cls-24" x="30.42" y="136.59" width="26.19" height="52.38"/><polygon class="cls-25" points="57.86 136.59 29.58 136.59 31.88 122.99 55.55 122.99 57.86 136.59"/><rect class="cls-26" x="34.69" y="139.95" width="4.03" height="9.79"/><line class="cls-27" x1="36.7" y1="139.95" x2="36.7" y2="149.73"/><line class="cls-27" x1="38.72" y1="144.99" x2="34.69" y2="144.99"/><polygon class="cls-28" points="34.4 139.66 36.7 138.53 39.01 139.66 34.4 139.66"/><rect class="cls-26" x="41.7" y="139.95" width="4.03" height="9.79"/><line class="cls-27" x1="43.72" y1="139.95" x2="43.72" y2="149.73"/><line class="cls-27" x1="45.73" y1="144.99" x2="41.7" y2="144.99"/><polygon class="cls-28" points="41.42 139.66 43.72 138.53 46.02 139.66 41.42 139.66"/><rect class="cls-26" x="48.72" y="139.95" width="4.03" height="9.79"/><line class="cls-27" x1="50.73" y1="139.95" x2="50.73" y2="149.73"/><line class="cls-27" x1="52.75" y1="144.99" x2="48.72" y2="144.99"/><polygon class="cls-28" points="48.43 139.66 50.73 138.53 53.04 139.66 48.43 139.66"/><rect class="cls-26" x="34.69" y="154.41" width="4.03" height="9.79"/><line class="cls-27" x1="36.7" y1="154.41" x2="36.7" y2="164.2"/><line class="cls-27" x1="38.72" y1="159.45" x2="34.69" y2="159.45"/><polygon class="cls-28" points="34.4 154.12 36.7 153 39.01 154.12 34.4 154.12"/><rect class="cls-26" x="41.7" y="154.41" width="4.03" height="9.79"/><line class="cls-27" x1="43.72" y1="154.41" x2="43.72" y2="164.2"/><line class="cls-27" x1="45.73" y1="159.45" x2="41.7" y2="159.45"/><polygon class="cls-28" points="41.42 154.12 43.72 153 46.02 154.12 41.42 154.12"/><rect class="cls-26" x="48.72" y="154.41" width="4.03" height="9.79"/><line class="cls-27" x1="50.73" y1="154.41" x2="50.73" y2="164.2"/><line class="cls-27" x1="52.75" y1="159.45" x2="48.72" y2="159.45"/><polygon class="cls-28" points="48.43 154.12 50.73 153 53.04 154.12 48.43 154.12"/><rect class="cls-26" x="34.69" y="168.87" width="4.03" height="9.79"/><line class="cls-27" x1="36.7" y1="168.87" x2="36.7" y2="178.66"/><line class="cls-27" x1="38.72" y1="173.91" x2="34.69" y2="173.91"/><polygon class="cls-28" points="34.4 168.58 36.7 167.46 39.01 168.58 34.4 168.58"/><rect class="cls-26" x="41.7" y="168.87" width="4.03" height="9.79"/><line class="cls-27" x1="43.72" y1="168.87" x2="43.72" y2="178.66"/><line class="cls-27" x1="45.73" y1="173.91" x2="41.7" y2="173.91"/><polygon class="cls-28" points="41.42 168.58 43.72 167.46 46.02 168.58 41.42 168.58"/><rect class="cls-26" x="48.72" y="168.87" width="4.03" height="9.79"/><line class="cls-27" x1="50.73" y1="168.87" x2="50.73" y2="178.66"/><line class="cls-27" x1="52.75" y1="173.91" x2="48.72" y2="173.91"/><polygon class="cls-28" points="48.43 168.58 50.73 167.46 53.04 168.58 48.43 168.58"/><rect class="cls-12" x="29.58" y="181.85" width="28.2" height="7.12"/><path class="cls-29" d="M39.26,126.14h0a2,2,0,0,1,2,2v5.34a0,0,0,0,1,0,0H37.3a0,0,0,0,1,0,0V128.1A2,2,0,0,1,39.26,126.14Z"/><line class="cls-30" x1="39.26" y1="126.14" x2="39.26" y2="133.44"/><line class="cls-30" x1="37.3" y1="130.17" x2="41.22" y2="130.17"/><path class="cls-29" d="M48.18,126.14h0a2,2,0,0,1,2,2v5.34a0,0,0,0,1,0,0H46.22a0,0,0,0,1,0,0V128.1a2,2,0,0,1,2-2Z"/><line class="cls-30" x1="48.18" y1="126.14" x2="48.18" y2="133.44"/><line class="cls-30" x1="46.22" y1="130.17" x2="50.14" y2="130.17"/><rect class="cls-31" x="39.38" y="188.97" width="181.56" height="4.89"/><rect class="cls-32" x="41.01" y="193.84" width="179.39" height="48.66"/><rect class="cls-33" x="33.34" y="174.2" width="187.59" height="3.4"/><path class="cls-34" d="M165.14,177.59H35.83v16.25h4.94C44.69,186.37,55.47,181,68.16,181s23.46,5.36,27.38,12.83h9.89c3.92-7.47,14.69-12.83,27.38-12.83s23.47,5.36,27.39,12.83h9.89C174,186.37,184.78,181,197.47,181s23.47,5.36,27.39,12.83h4.94V177.59Z"/><polygon class="cls-35" points="100.68 180.34 100.68 186.76 104.52 186.76 100.68 180.34"/><polygon class="cls-36" points="103.94 193.86 100.68 193.86 100.68 186.76 104.52 186.76 103.94 193.86"/><polygon class="cls-36" points="100.68 180.31 100.68 186.74 96.84 186.74 100.68 180.31"/><polygon class="cls-37" points="97.42 193.84 100.68 193.84 100.68 186.74 96.84 186.74 97.42 193.84"/><polygon class="cls-35" points="165 180.34 165 186.76 168.84 186.76 165 180.34"/><polygon class="cls-36" points="168.26 193.86 165 193.86 165 186.76 168.84 186.76 168.26 193.86"/><polygon class="cls-36" points="165 180.31 165 186.74 161.16 186.74 165 180.31"/><polygon class="cls-37" points="161.74 193.84 165 193.84 165 186.74 161.16 186.74 161.74 193.84"/><g class="cls-38"><rect class="cls-36" x="79.09" y="181.34" width="8.49" height="3.17" rx="0.54" ry="0.54"/><rect class="cls-36" x="84.02" y="185.18" width="8.49" height="3.17" rx="0.54" ry="0.54"/><rect class="cls-36" x="179.25" y="179.43" width="8.49" height="3.17" rx="0.54" ry="0.54"/><rect class="cls-36" x="172.81" y="183.26" width="8.49" height="3.17" rx="0.54" ry="0.54"/></g><path class="cls-39" d="M68.12,53.72l-.44,0a9.36,9.36,0,0,0,.09-1.3,9.8,9.8,0,0,0-19.6,0c0,.28,0,.56,0,.84a8.07,8.07,0,1,0-4.23,15H68.12a7.26,7.26,0,0,0,0-14.51Z"/><path class="cls-39" d="M79.74,83.8h-.21a4.44,4.44,0,0,0,0-.63,4.79,4.79,0,1,0-9.57,0c0,.13,0,.27,0,.41A3.9,3.9,0,0,0,68,83a3.94,3.94,0,1,0,0,7.88H79.74a3.54,3.54,0,1,0,0-7.08Z"/><path class="cls-40" d="M94.83,201.49c-1.13,0-2,.33-2,.75s.9.76,2,.76,2-.34,2-.76S96,201.49,94.83,201.49Z"/><path class="cls-40" d="M98.32,203.88c-.81,0-1.47.24-1.47.54s.66.54,1.47.54,1.46-.24,1.46-.54S99.12,203.88,98.32,203.88Z"/><path class="cls-40" d="M107.31,193.84H93c.3,1.77,5.39,2,5.39,2s-3.17.14-3.17,1.39,3.17,1.48,3.17,1.48v0c-1.1.25-1.84.7-1.84,1.21,0,.74,1.51,1.34,3.45,1.41a.4.4,0,0,0-.08.23c0,.57,1.25,1,2.8,1s2.79-.47,2.79-1-.76-.83-1.83-1a.85.85,0,0,0,.44-.66c0-.54-.82-1-2-1.25.69-.07,3-.4,3-1.46,0-1.25-3.16-1.39-3.16-1.39S107,195.61,107.31,193.84Z"/><path class="cls-40" d="M205.15,193.86h-45s.24,2.21,5.62,3.07c0,0-4.13.67-4.13,2.79s6.11,2.49,6.11,2.49-10.33.19-10.33,2.54,13.33,2.08,13.33,2.08-4.41.34-4.41,2.13,6.82,2.11,6.82,2.11-6.76,3.71,3.23,5.82,22-13.24,22-13.24Z"/><ellipse class="cls-40" cx="159.07" cy="210.38" rx="4.48" ry="1.42"/><ellipse class="cls-40" cx="163.08" cy="214.35" rx="2.62" ry="0.83"/><circle class="cls-41" cx="187.58" cy="156.04" r="86.1"/></g><polygon class="cls-2" points="106.63 209.6 104.53 212.57 104.22 208.95 103.34 208.72 101.23 211.67 100.94 208.07 99.95 207.81 100.4 212.7 101.4 212.97 103.39 210.21 103.72 213.59 104.72 213.86 107.55 209.84 106.63 209.6"/><path class="cls-2" d="M111.15,210.72a2.6,2.6,0,0,0-2.39-.45,2.16,2.16,0,0,0-1,.67,2.46,2.46,0,0,0-.53,1.14,2.39,2.39,0,0,0,.08,1.25,2.19,2.19,0,0,0,.73,1,2.79,2.79,0,0,0,1.25.54,2.87,2.87,0,0,0,1.09,0,1.94,1.94,0,0,0,.88-.41l-.45-.76a1.67,1.67,0,0,1-1.32.26,1.6,1.6,0,0,1-.92-.48,1.23,1.23,0,0,1-.34-.88l3.55.67c0-.14.06-.24.08-.31a2.53,2.53,0,0,0-.06-1.29A2.16,2.16,0,0,0,111.15,210.72Zm-2.79,1.19a1.35,1.35,0,0,1,.58-.72,1.41,1.41,0,0,1,1.73.33,1.28,1.28,0,0,1,.26.88Z"/><path class="cls-2" d="M116.91,211.52a2.42,2.42,0,0,0-1.15-.43,2.12,2.12,0,0,0-.84,0,1.82,1.82,0,0,0-.7.37l.28-2.34-1.07-.13-.78,6.36,1,.13.07-.59a1.62,1.62,0,0,0,.6.56,1.89,1.89,0,0,0,.84.27,2.41,2.41,0,0,0,1.23-.14,2.13,2.13,0,0,0,.93-.73,2.55,2.55,0,0,0,.45-1.19,2.4,2.4,0,0,0-.15-1.26A2.16,2.16,0,0,0,116.91,211.52Zm-.72,3a1.3,1.3,0,0,1-1,.27,1.41,1.41,0,0,1-.67-.26,1.34,1.34,0,0,1-.43-.56,1.65,1.65,0,0,1-.09-.78,1.57,1.57,0,0,1,.28-.73,1.24,1.24,0,0,1,.55-.44,1.41,1.41,0,0,1,.71-.09,1.32,1.32,0,0,1,.93.51,1.48,1.48,0,0,1,.25,1.09A1.41,1.41,0,0,1,116.19,214.57Z"/><path class="cls-2" d="M121.6,211.58a2.48,2.48,0,0,0-.88.1,1.82,1.82,0,0,0-.69.4l.13-2.32-1.08-.06-.35,6.39,1.08.06.13-2.33a1.4,1.4,0,0,1,.4-1,1.27,1.27,0,0,1,1-.3,1,1,0,0,1,.79.35,1.23,1.23,0,0,1,.23.92l-.13,2.5,1.07.06.15-2.64a2,2,0,0,0-.44-1.53A1.93,1.93,0,0,0,121.6,211.58Z"/><rect class="cls-2" x="122.99" y="213.51" width="4.61" height="1.08" transform="translate(-89.54 337.99) rotate(-89.64)"/><path class="cls-2" d="M125.34,209.69a.69.69,0,0,0-.5.18.6.6,0,0,0-.2.46.58.58,0,0,0,.2.46.73.73,0,0,0,1,0,.62.62,0,0,0,.2-.48.55.55,0,0,0-.19-.44A.71.71,0,0,0,125.34,209.69Z"/><path class="cls-2" d="M131.25,212.06a1.94,1.94,0,0,0-1.42-.46,2.59,2.59,0,0,0-.91.21,1.72,1.72,0,0,0-.65.51l0-.6-1,0,.19,4.61,1.07,0-.09-2.33a1.44,1.44,0,0,1,.3-1.05,1.26,1.26,0,0,1,.93-.4,1.05,1.05,0,0,1,.82.28,1.24,1.24,0,0,1,.32.9l.11,2.5,1.07,0-.1-2.64A2,2,0,0,0,131.25,212.06Z"/><path class="cls-2" d="M135.22,215.05a.59.59,0,0,1-.49-.13.78.78,0,0,1-.22-.5l-.2-2.18,1.23-.12-.09-.86-1.23.12-.1-1-1.07.1.1,1-.76.07.08.86.76-.07.21,2.21a1.5,1.5,0,0,0,.52,1.11,1.62,1.62,0,0,0,1.21.29,2.42,2.42,0,0,0,.56-.13,1.28,1.28,0,0,0,.44-.28l-.37-.74A.89.89,0,0,1,135.22,215.05Z"/><path class="cls-2" d="M137.44,214.24a.64.64,0,0,0-.47.26.68.68,0,0,0-.14.54.69.69,0,0,0,.27.48.73.73,0,0,0,1-.12.74.74,0,0,0,.14-.54.73.73,0,0,0-.27-.49A.7.7,0,0,0,137.44,214.24Z"/><rect class="cls-2" x="139.07" y="210.68" width="1.08" height="4.61" transform="translate(-31.17 24.07) rotate(-8.87)"/><path class="cls-2" d="M139.6,209.69a.64.64,0,0,0,.12-.5.58.58,0,0,0-.26-.41.72.72,0,0,0-.52-.1.74.74,0,0,0-.46.26.59.59,0,0,0-.12.48.6.6,0,0,0,.27.43.69.69,0,0,0,.51.11A.66.66,0,0,0,139.6,209.69Z"/><path class="cls-2" d="M146,211.79a2.37,2.37,0,0,0-.56-1.13,2.16,2.16,0,0,0-1-.65,2.83,2.83,0,0,0-2.48.5,2.21,2.21,0,0,0-.69,1,2.29,2.29,0,0,0-.07,1.25,2.34,2.34,0,0,0,.55,1.14,2.19,2.19,0,0,0,1,.65,2.67,2.67,0,0,0,1.29,0,2.73,2.73,0,0,0,1.19-.55,2.29,2.29,0,0,0,.69-1A2.54,2.54,0,0,0,146,211.79Zm-1.24,1.31a1.42,1.42,0,0,1-1.93.4,1.44,1.44,0,0,1-.58-.95,1.46,1.46,0,0,1,.16-1.1,1.34,1.34,0,0,1,.89-.59,1.3,1.3,0,0,1,1,.2,1.43,1.43,0,0,1,.59.94A1.45,1.45,0,0,1,144.75,213.1Z"/><path class="cls-42" d="M156.86,123S185,133,172.8,164.22c0,0-20-10.71-23.83-35.14"/><path class="cls-43" d="M157,122.53a33.94,33.94,0,0,1,10.67,6.72,27.77,27.77,0,0,1,7.1,10.44,25.89,25.89,0,0,1,1.53,6.18,29.42,29.42,0,0,1,.13,6.36,43.76,43.76,0,0,1-2.91,12.28h0v0a.79.79,0,0,1-1,.47l-.13-.06a48.25,48.25,0,0,1-8.83-6.8,51.67,51.67,0,0,1-7.14-8.48l-.79-1.14c-.24-.4-.47-.8-.7-1.2-.46-.8-1-1.58-1.39-2.4a52.36,52.36,0,0,1-5.2-15.74.62.62,0,1,1,1.21-.23v0a50.55,50.55,0,0,0,2.93,10.38,46.12,46.12,0,0,0,2.27,4.89c.42.8.91,1.55,1.36,2.33l.7,1.16.78,1.1a49.33,49.33,0,0,0,7,8.18,46.17,46.17,0,0,0,8.54,6.47l-1.14.42h0a42.65,42.65,0,0,0,3-11.81,28.64,28.64,0,0,0-.06-6.07,24.33,24.33,0,0,0-1.39-5.88,26.19,26.19,0,0,0-6.67-10,33,33,0,0,0-10.19-6.6h0a.54.54,0,1,1,.4-1Z"/><path class="cls-42" d="M77.33,152.8c20.52,20.63,91.15,31.14,102.35-21.58,10.37-48.73-36.31-63.42-63.5-49.5C84.33,98,106.78,132.56,94.67,142.2c-7.24,5.77-15.43,1.3-15.43,1.3s3.07-17-17.71-21.63c0,0-6,16.74,5.91,23.07,0,0-12.66.14-16.83,15.11C67.73,170,77.33,152.8,77.33,152.8Z"/><g class="cls-44"><path class="cls-45" d="M179.68,134.48s-27.05-13.24-52.81,14.77C107.62,170.19,83.3,157,83.3,157l10.62,17.88,54.32,8.59L182.38,159l3.49-27Z"/><ellipse class="cls-46" cx="99.17" cy="118.06" rx="13.55" ry="5.04" transform="translate(-21.66 213.83) rotate(-88.37)"/><path class="cls-46" d="M108.54,128.06c1.42.14,2.33-2.85,2.56-5.65s-.42-4.71-1.73-4.51c-1,.15-2,2.1-2.24,4.91S107.54,128,108.54,128.06Z"/><ellipse class="cls-46" cx="104.9" cy="133.13" rx="2.41" ry="1.05" transform="translate(-48.94 204.26) rotate(-76.58)"/></g><path class="cls-47" d="M112,76.35s-2.67-3.72-6.12-5-1-7,5.1,0,4.61,8.93,4.61,8.93Z"/><path class="cls-48" d="M77.33,152.8c20.52,20.63,91.15,31.14,102.35-21.58,10.37-48.73-36.31-63.42-63.5-49.5C84.33,98,106.78,132.56,94.67,142.2c-7.24,5.77-15.43,1.3-15.43,1.3s3.07-17-17.71-21.63c0,0-6,16.74,5.91,23.07,0,0-12.66.14-16.83,15.11C67.73,170,77.33,152.8,77.33,152.8Z"/><path class="cls-42" d="M126.48,143.25s12.93,26.89-17.78,40.42c0,0-6.6-21.7,7.92-41.71"/><path class="cls-43" d="M127,143a34,34,0,0,1,2.81,12.3,27.45,27.45,0,0,1-2.33,12.4,25.52,25.52,0,0,1-3.28,5.47,29.81,29.81,0,0,1-4.39,4.59A43.82,43.82,0,0,1,109,184.41h0a.78.78,0,0,1-1-.38.69.69,0,0,1,0-.13,47.87,47.87,0,0,1-1.45-11,51.24,51.24,0,0,1,.92-11.05l.25-1.36c.1-.45.23-.9.34-1.35.24-.89.44-1.8.72-2.68a50.75,50.75,0,0,1,1.94-5.2,53.19,53.19,0,0,1,5.48-9.62.62.62,0,0,1,1,.69l0,0a50.54,50.54,0,0,0-5.25,9.42,48.16,48.16,0,0,0-1.85,5.08c-.26.86-.45,1.74-.67,2.61l-.32,1.31-.23,1.33a49,49,0,0,0-.8,10.75,46.88,46.88,0,0,0,1.48,10.61l-1.11-.51h0a42.13,42.13,0,0,0,10.42-6.29A28,28,0,0,0,123,172.3a24.35,24.35,0,0,0,3.17-5.15,26.4,26.4,0,0,0,2.35-11.81A33.2,33.2,0,0,0,126,143.48v0a.54.54,0,0,1,.28-.71A.54.54,0,0,1,127,143Z"/><path class="cls-47" d="M93.91,85.92c6.48-2,15.19-4.65,24.2-14.78,10.58-11.88,37.44-19.88,39.34-6.3,2.85,20.28-23.36,6.48-41.59,25.29-15,15.51-25.63,12.84-28.24,6.28C85.9,92.09,88.21,87.68,93.91,85.92Z"/><path class="cls-49" d="M146.27,81.58c-2.81-12.53-9.76-43.41-9.76-43.41s-4,31.52-5.36,43.45c-.72,4.45,8,4.06,8,4.06S146.84,85.57,146.27,81.58Z"/><path class="cls-50" d="M145.46,78.9c-1.48.39-8.57,1.5-13.36-3.56"/><path class="cls-50" d="M143.13,67.58a14.27,14.27,0,0,1-9.86-2.8"/><path class="cls-50" d="M140.45,55.7a14.16,14.16,0,0,1-5.87-1.53"/><path class="cls-51" d="M146.27,81.58c-2.81-12.53-9.76-43.41-9.76-43.41s-4,31.52-5.36,43.45"/><path class="cls-52" d="M121.48,107.45s1.63,6.24,6.11,5.3c4.25-.88,1-7.17,1-7.17"/><path class="cls-52" d="M159,100.19s1.61,6.07,5.63,5c3.74-1,1-6.71,1-6.71"/><ellipse class="cls-53" cx="146.84" cy="109.22" rx="1.97" ry="3.14" transform="translate(-17.97 29.66) rotate(-10.87)"/><line class="cls-52" x1="118.96" y1="98.46" x2="124.33" y2="94.29"/><line class="cls-52" x1="157.27" y1="86.94" x2="162.42" y2="88.91"/></svg>