<svg xmlns="http://www.w3.org/2000/svg" xmlns:xlink="http://www.w3.org/1999/xlink" viewBox="0 0 252 252"><defs><style>.af,.ar,.n,.o,.s,.t,.x,.z{fill:none}.aq{fill:#fff}.ao{clip-path:url(#c1)}.an{fill:url(#l1)}.a,.am{fill:#5e5396}.a,.b{opacity:.8}.as{fill:#351f4c}.h{fill:#305699}.ax{fill:url(#l2)}.g{fill:url(#l3)}.d{fill:url(#l4)}.ak{fill:url(#l5)}.al{fill:url(#l6)}.ai{fill:url(#l7)}.aj{fill:#1b4787}.c{fill:url(#r1)}.f{fill:#a6c7ed}.e{fill:#614882}.ap{fill:#e5d88c}.i{fill:#3a2856}.j{fill:#463166}.k{fill:#2c1f44}.ah{fill:#503b72}.l{fill:url(#l8)}.ag{fill:url(#l9)}.m{fill:#5b3d7a;stroke:#aefbff}.af,.m,.n,.o{stroke-miterlimit:10}.m,.n{stroke-width:.58px}.n{stroke:#745193}.p{fill:#745193}.af{stroke:#351f4c;stroke-width:1.73px}.o{stroke:#282d33;stroke-width:.29px}.ae{fill:#fff8d7}.ad{fill:url(#l10)}.ac{fill:#96a3e2}.ab{fill:#1c418c}.aa{clip-path:url(#c3)}.q{fill:#bbc6ef}.r{fill:#6b7fc6}.s,.x{stroke:#1c418c}.s,.t,.x,.y,.z{stroke-linecap:round;stroke-linejoin:round}.s,.t,.y,.z{stroke-width:1.56px}.y{fill:#cae8ef}.y,.z{stroke:#4b8087}.t{stroke:#82bbc4}.u{fill:#402b5e}.v{clip-path:url(#c4)}.w{fill:#e87ce1}.x{stroke-width:1.24px}.ba{stop-color:#fff}</style><clipPath id="c1"><path d="M221.6 164.3a50 50 0 0 0-78-56.9v-.2A42.7 42.7 0 0 0 121 86.6l-4-29a15.5 15.5 0 0 0-14.8-13.4h-.5a15.6 15.6 0 0 0-15.2 12.3l-2 9c-.8 4.3-1.9 9.2-3 14a18.7 18.7 0 0 0-4.9-3.8V68a18.1 18.1 0 0 0-36.1 0v7.7a19 19 0 0 0-7.2 26.4 18.9 18.9 0 0 0 3.6 4.5 15.7 15.7 0 0 0-13.5 14.6v.4a35.6 35.6 0 0 0 .2 4.6 41.7 41.7 0 0 0 .6 4.2 40.7 40.7 0 0 0 2.5 8 35.8 35.8 0 0 0 11.1 14.7l.8.5 5.4 3.8A25.8 25.8 0 0 0 26 182a25.8 25.8 0 0 0 25.8 25.8h151a25.8 25.8 0 0 0 25.8-25.8 25.7 25.7 0 0 0-7-17.7z" class="ar"/></clipPath><linearGradient id="l1" x1="96.4" x2="203.8" y1="137.2" y2="90.5" gradientUnits="userSpaceOnUse"><stop offset="0" stop-color="#8d63a8"/><stop offset="1" stop-color="#c98fd1"/></linearGradient><linearGradient id="l2" x1="57.2" x2="57.2" y1="97.8" y2="114.6" gradientUnits="userSpaceOnUse"><stop offset="0" stop-color="#ed1c24" stop-opacity=".9"/><stop offset="1" stop-color="#da1c5c" stop-opacity="0"/></linearGradient><linearGradient id="l3" x1="60" x2="60" y1="97.8" y2="114.6" xlink:href="#l2"/><linearGradient id="l4" x1="57.2" x2="57.2" y1="240.4" y2="257.3" gradientTransform="matrix(1 0 0 -.31 0 161.3)" gradientUnits="userSpaceOnUse"><stop offset="0" stop-color="#479ef4" stop-opacity=".5"/><stop offset="1" stop-color="#479ef4" stop-opacity="0"/></linearGradient><linearGradient id="l5" x1="60" x2="60" y1="240.4" y2="257.3" xlink:href="#l4"/><linearGradient id="l6" x1="57.2" x2="57.2" y1="-38.5" y2="-6.5" gradientTransform="matrix(1 0 0 .3 0 81.6)" gradientUnits="userSpaceOnUse"><stop class="ba" offset="0"/><stop class="ba" offset="1" stop-opacity="0"/></linearGradient><linearGradient id="l7" x1="60" x2="60" y1="-38.5" y2="-6.5" xlink:href="#l6"/><radialGradient id="r1" cx="58.6" cy="68" r="3.4" gradientUnits="userSpaceOnUse"><stop class="ba" offset="0" stop-opacity=".5"/><stop class="ba" offset="1" stop-opacity="0"/></radialGradient><linearGradient id="l8" x1="168.3" x2="168.3" y1="197.9" y2="160.4" gradientUnits="userSpaceOnUse"><stop offset="0" stop-color="#27aae1"/><stop offset="1" stop-color="#27aae1" stop-opacity="0"/></linearGradient><linearGradient id="l9" x1="1520.5" x2="1520.5" y1="197.9" y2="160.4" gradientTransform="matrix(-1 0 0 1 1702.3 0)" xlink:href="#l8"/><linearGradient id="l10" x1="122.1" x2="122.1" y1="216.2" y2="186.4" gradientUnits="userSpaceOnUse"><stop offset="0" stop-color="#e5d88c" stop-opacity=".8"/><stop offset="1" stop-color="#e5d88c" stop-opacity="0"/></linearGradient><clipPath id="c3"><path d="M145 186a69.6 69.6 0 0 1-71-2.8c-38-28-15.7-90.6 29-85.2 46.5 5.6 26.7 57 25 72.8s14.7 8.9 14.7 8.9-6-18.4 11.2-22.3c0 0 7.7 13.3-2.2 21.6 0 0 12.5-.7 17 9.7-13.2 12.9-23.7-2.8-23.7-2.8z" class="ar"/></clipPath><clipPath id="c4"><path d="M83.7 118.5l11.8 1.1s-1.2 9.1-8.4 8.2c-5.8-.7-3.4-9.3-3.4-9.3z" class="ar"/></clipPath></defs><path d="M149.5 97.8a54.4 54.4 0 0 1 25.4-6.2 55 55 0 0 1 52.3 71.7 30.7 30.7 0 0 1-24.4 49.4h-151a30.7 30.7 0 0 1-17.4-56 40.9 40.9 0 0 1-12.3-16.3 46.5 46.5 0 0 1-2.7-9c-.3-1.5-.6-3.1-.7-4.7a43 43 0 0 1-.2-5.2v-.5a20.6 20.6 0 0 1 10.3-16.7A24 24 0 0 1 35.6 73v-5a23 23 0 0 1 45-7l1.2-5.6a20.5 20.5 0 0 1 20-16.2h.7A20.4 20.4 0 0 1 121.9 57l3.6 26.4a47.5 47.5 0 0 1 18.8 15.5l1 1.4z" class="aq"/><g class="ao"><path d="M13 34.7h218.1v182.6H13z" class="an"/></g><g class="ao"><path d="M125.4 200.4v-13.1H116v13.1H97.2v-13.1h-9.4v6.9h-9.3v4.1h-7.9v-14.2h-9.4v5.8h-8.7v4.3h-7.3v-17.3h-23v30.8h11.7v.1h106.3v-7.4h-14.8z" class="a"/><g class="b"><path d="M189 193.4h-6.4v-18h-9.4v11.9h-9v20.4h18.4v-.3h6.4v.3h9.4v-17.8H189v3.5zm33.7-18.6h-8.2V170h-9.4v37.8h9.4v-.1h8.2v-32.9z" class="am"/></g><path d="M56.8 69.5h3.6a.7.7 0 0 1 .7.6v137.3h-5V70.1a.7.7 0 0 1 .7-.6z" class="as"/><path d="M49.6 96.7h18a4.3 4.3 0 0 0 3.7-2H46a4.3 4.3 0 0 0 3.7 2z" class="as"/><path d="M67.6 88h-18a4.3 4.3 0 0 0-3.7 6.6h25.4a4.4 4.4 0 0 0 .6-2.2 4.3 4.3 0 0 0-4.3-4.3z" class="h"/><path d="M56.1 96.7h2v21.2h-2z" class="ax"/><path d="M59 96.7h2v21.2h-2z" class="g"/><path d="M56.1 81.6h2v6.5h-2z" class="d"/><path d="M59 81.6h2v6.5h-2z" class="ak"/><path d="M56.8 69.5h1.4v12h-2V70.2a.7.7 0 0 1 .6-.6z" class="al"/><path d="M59 69.5h1.4a.7.7 0 0 1 .6.6v11.5h-2V69.5z" class="ai"/><circle cx="58.6" cy="68" r=".5" class="aq"/><path d="M50 88a4.4 4.4 0 0 0-3.3 3.6h4.2a9.8 9.8 0 0 1 1-2.1h1.7a18 18 0 0 0-.4 4.2H60v-4h2.5a18.4 18.4 0 0 1 .6 2.7h2.2a8 8 0 0 1 .3 1.5H69a11 11 0 0 0-1.3-4.2H70s-.3-1-2.1-1.6z" class="aj"/><circle cx="58.6" cy="68" r="3.4" class="c"/><circle cx="47.5" cy="90.2" r=".6" class="f"/><circle cx="47" cy="91.6" r=".3" class="f"/><path d="M198 178.9h14.9v28.9H198z" class="e"/><path d="M199.6 180.7h5.2v1.8h-5.2z" class="ap"/><path d="M206.9 180.7h4.2v3.4h-4.2zm0 8.5h4.2v3.4h-4.2z" class="i"/><path d="M206.9 184.9h4.2v3.4h-4.2zm-7.2 8.5h5.1v1.8h-5.1zm7.2 0h4.2v3.4h-4.2z" class="ap"/><path d="M199.6 184.9h5.2v1.8h-5.2z" class="i"/><path d="M199.7 189.2h5.1v1.8h-5.1z" class="ap"/><path d="M212.9 186.2h15.7v21.6h-15.7z" class="j"/><path d="M215.3 188.2h2.6v3.3h-2.6z" class="k"/><path d="M219.6 188.2h2.6v3.3h-2.6z" class="ap"/><path d="M224 188.2h2.6v3.3H224z" class="k"/><path d="M215.3 192.9h2.6v3.3h-2.6z" class="ap"/><path d="M219.6 192.9h2.6v3.3h-2.6z" class="k"/><path d="M224 192.9h2.6v3.3H224zm-8.7 4.7h2.6v3.3h-2.6z" class="ap"/><path d="M219.6 197.6h2.6v3.3h-2.6zm4.4 0h2.6v3.3H224zm-8.7 4.7h2.6v3.3h-2.6z" class="k"/><path d="M219.6 202.3h2.6v3.3h-2.6zm4.4 0h2.6v3.3H224z" class="ap"/><path d="M37.7 183.5h14.9v23.9H37.7zm47.3 2.1h7.4v22.2H85zm36.7 10.6h7.4v11.6h-7.4zm-11.5-7.8h7.4v19.4h-7.4z" class="ah"/><path d="M90.3 200.1h14.9v7.7H90.3zM66.8 203H87v4.8H66.8z" class="ah"/><path d="M103.1 205.4h20.2v2.4h-20.2zm21.6-6.3h20.2v8.7h-20.2z" class="ah"/><path d="M40.1 186.2H50v1.3h-9.9zm0 2.8H50v1.3h-9.9z" class="ap"/><path d="M40.1 191.8H50v1.3h-9.9z" class="as"/><path d="M40.1 194.5H50v1.3h-9.9z" class="ap"/><path d="M40.1 197.3H50v1.3h-9.9z" class="as"/><path d="M40.1 200.1H50v1.3h-9.9z" class="ap"/><path d="M40.1 202.8H50v1.3h-9.9zm121.1-3.7l13.6-52.6h.8l-11.9 52.6h-2.5z" class="as"/><path d="M189 199.1l-13.6-52.6h-.8l11.9 52.6h2.5z" class="as"/><path d="M161.2 199.1l13.6-52.6h.8l-11.9 52.6h-2.5z" class="l"/><path d="M189 199.1l-13.6-52.6h-.8l11.9 52.6h2.5z" class="ag"/><path d="M176.4 114H173c-2 0-2.1 5.4 0 5.4h3.4c2 0 2-5.4-.1-5.4zm11.8 2h-3.3c-2 0-2.1 5.4 0 5.4h3.4c2 0 2-5.3-.1-5.3zm10.3 6h-3.2c-2 0-2.2 5.4 0 5.4h3.3c2 0 2-5.4 0-5.4zm7.7 9.2H203c-2 0-2.1 5.4 0 5.4h3.3c2 0 2-5.4 0-5.4zm4.1 11.3h-3.2c-2 0-2.2 5.3 0 5.3h3.3c2 0 2-5.3 0-5.3zm0 11.9h-3.2c-2 0-2.2 5.4 0 5.4h3.3c2 0 2-5.4 0-5.4zm-4.1 11.3H203c-2 0-2.1 5.3 0 5.3h3.3c2 0 2-5.3 0-5.3zm-7.7 9.1h-3.2c-2 0-2.2 5.4 0 5.4h3.3c2 0 2-5.3 0-5.3zm-10.3 5.4h-3.3c-2 0-2.1 5.4 0 5.4h3.4c2 0 2-5.4-.1-5.4zm-12 2.7H173c-2 0-2.1 5.3 0 5.3h3.3c2 0 2-5.3 0-5.3zm-11.6-2.1h-3.3c-2 0-2.1 5.4 0 5.4h3.4c2 0 2-5.4-.1-5.4zm-10.4-6H151c-2 0-2.1 5.4 0 5.4h3.3c2 0 2-5.3 0-5.3zm-7.7-9.1h-3.2c-2 0-2.2 5.3 0 5.3h3.3c2 0 2-5.3 0-5.3zm-4.1-11.3h-3.2c-2 0-2.2 5.4 0 5.4h3.3c2 0 2-5.4 0-5.4zm0-11.9h-3.2c-2 0-2.2 5.4 0 5.4h3.3c2 0 2-5.4 0-5.4zm4.1-11.3h-3.2c-2 0-2.2 5.4 0 5.4h3.3c2 0 2-5.4 0-5.4zm7.7-9.2H151c-2 0-2.1 5.4 0 5.4h3.3c2 0 2-5.4 0-5.4zm10.4-6h-3.3c-2 0-2.1 5.4 0 5.4h3.4c2 0 2-5.3-.1-5.3z" class="m"/><path d="M174.8 146.5L144 200.2h3.1l28.5-53.7h-.8z" class="as"/><path d="M175.4 146.5l30.7 53.7h-3l-28.5-53.7h.8z" class="as"/><path d="M174.8 146.5V112m0 34.5L163 114.1m11.8 32.4l-22.2-26.4m22.2 26.4l-29.9-17.2m29.9 17.2l-34-6m34 6l-34 6m34-6l-29.9 17.3m29.9-17.3l-22.2 26.4m22.2-26.4L163 178.9m11.8-32.4V181m0-34.5l11.8 32.4m-11.8-32.4l22.1 26.4m-22.1-26.4l29.8 17.3m-29.8-17.3l33.9 6m-33.9-6l33.9-6m-33.9 6l29.8-17.2m-29.8 17.2l22.1-26.4m-22.1 26.4l11.8-32.4" class="n"/><circle cx="174.8" cy="146.5" r="15.1" class="n"/><circle cx="174.8" cy="146.5" r="9.7" class="n"/><path d="M135.5 192.5h78.6v10.1h-78.6z" class="as"/><path d="M138.4 202.4h72.8v5.3h-72.8z" class="as"/><path d="M177.2 133.1l-1.6 3.8v4.8l1.7-4.6-.1-4zm-4.7 0l-.3 4.1 1.7 4.5v-4.9l-1.4-3.7zm-4.5 1.6l1.2 3.9 3.1 3.7-1.6-4.6-2.7-3zm-3.6 3l2.4 3.3 4.2 2.3-3.1-3.7-3.5-1.9zm-2.4 4.1l3.4 2.3 4.8.7-4.2-2.4-4-.6zm-.8 4.6l3.9 1 4.8-.9-4.8-.9-3.9.8zm.8 4.7l4-.4 4.1-2.5-4.7.8-3.4 2.1zm2.3 4.1l3.6-1.8 3.1-3.7-4.2 2.4-2.5 3.1zm3.6 3.1l2.8-3 1.6-4.5-3.1 3.6-1.3 3.9zm4.4 1.6l1.7-3.7-.1-4.9-1.7 4.6.1 4zm4.8 0l.2-4.1-1.7-4.5v4.9l1.5 3.7zm4.4-1.6l-1.2-3.9-3.1-3.6 1.6 4.5 2.7 3zm3.6-3l-2.4-3.3-4.2-2.3 3.1 3.7 3.5 1.9zm2.4-4.1l-3.4-2.2-4.8-.8 4.3 2.5 3.9.5zm.8-4.6l-3.9-1-4.7.9 4.7.9 3.9-.8zm-.7-4.7l-4.1.5-4.1 2.5 4.8-.9 3.4-2.1zm-2.4-4.1l-3.6 1.8-3.1 3.8 4.2-2.4 2.5-3.2zm-3.6-3l-2.8 2.9-1.6 4.6 3.2-3.7 1.2-3.8z" class="p"/><circle cx="174.8" cy="146.5" r="34.5" class="af"/><circle cx="174.8" cy="146.5" r="4.4" class="as"/><path d="M86.5 192.6h1.2v1.2h-1.2z" class="as"/><path d="M88.3 192.6h1.2v1.2h-1.2z" class="ap"/><path d="M90 192.6h1.2v1.2H90z" class="as"/><path d="M86.5 195.1h1.2v1.2h-1.2z" class="ap"/><path d="M88.3 195.1h1.2v1.2h-1.2zm1.7 0h1.2v1.2H90zm-3.5 2.4h1.2v1.2h-1.2z" class="as"/><path d="M88.3 197.5h1.2v1.2h-1.2z" class="ap"/><path d="M90 197.5h1.2v1.2H90z" class="as"/><path d="M86.5 199.9h1.2v1.2h-1.2z" class="ap"/><path d="M88.3 199.9h1.2v1.2h-1.2z" class="as"/><path d="M90 199.9h1.2v1.2H90zm-3.5 2.4h1.2v1.2h-1.2zm1.8 0h1.2v1.2h-1.2z" class="ap"/><path d="M90 202.3h1.2v1.2H90zm-3.5 2.4h1.2v1.2h-1.2zm1.8 0h1.2v1.2h-1.2zm1.7 0h1.2v1.2H90zm-3.5-14.5h1.2v1.2h-1.2zm1.8 0h1.2v1.2h-1.2zm1.7 0h1.2v1.2H90zm5 12.8a1.2 1.2 0 0 1 1.2 1.1v3.6h-2.4v-3.6a1.2 1.2 0 0 1 1.2-1.2zm3.7 0a1.2 1.2 0 0 1 1.2 1.1v3.6h-2.4v-3.6a1.2 1.2 0 0 1 1.2-1.2zm3.7 0a1.2 1.2 0 0 1 1.2 1.1v3.6h-2.3v-3.6a1.2 1.2 0 0 1 1.1-1.2zm-31.2 1.2v3.5h-2v-1.5a2 2 0 0 1 2-2zm1.1 0h2v3.5h-2zm3.1 0h2v3.5h-2zm3.1 0h2v3.5h-2zm3.1 0a2 2 0 0 1 2 2v1.6h-2v-3.6zm29.3-8.3h6.3v.4h-6.3zm0 1.2h6.3v1h-6.3zm-.1 2h6.3v.4h-6.3zm0 1.2h6.3v1h-6.3zm0 2h6.3v.4h-6.3zm0 1.1h6.3v1h-6.3zm12.2-6.1h.7v2.2h-.7z" class="as"/><path d="M124.4 197.3h.7v2.2h-.7zm1.5 0h.7v2.2h-.7z" class="ap"/><path d="M127.3 197.3h.7v2.2h-.7zM123 200h.7v2.2h-.7zm1.4 0h.7v2.2h-.7z" class="as"/><path d="M125.9 200h.7v2.2h-.7z" class="ap"/><path d="M127.3 200h.7v2.2h-.7zm-4.3 2.7h.7v2.2h-.7z" class="as"/><path d="M124.4 202.7h.7v2.2h-.7z" class="ap"/><path d="M125.9 202.7h.7v2.2h-.7zm1.4 0h.7v2.2h-.7z" class="as"/><path d="M52.5 195.1h14.9v12.3H52.5z" class="ah"/><path d="M54.8 201.6h1.5v5.8h-1.5zm3.8 0h1.5v5.8h-1.5zm3.9 0H64v5.8h-1.5zm-7.7-4.6h1.5v2.1h-1.5zm3.8 0h1.5v2.1h-1.5zm3.9 0H64v2.1h-1.5z" class="ap"/><path d="M67.4 203.1v5.1" class="o"/><circle cx="67.4" cy="202.8" r=".8" class="ae"/><path d="M71 203.1v5.1" class="o"/><circle cx="71" cy="202.8" r=".8" class="ae"/><path d="M74.5 203.1v5.1" class="o"/><circle cx="74.5" cy="202.8" r=".8" class="ae"/><path d="M78 203.1v5.1" class="o"/><circle cx="78" cy="202.8" r=".8" class="ae"/><path d="M106.4 203.1v5.1" class="o"/><circle cx="106.4" cy="202.8" r=".8" class="ae"/><path d="M110.9 203.1v5.1" class="o"/><circle cx="110.9" cy="202.8" r=".8" class="ae"/><path d="M115.4 203.1v5.1" class="o"/><circle cx="115.4" cy="202.8" r=".8" class="ae"/><path d="M119.9 203.1v5.1" class="o"/><circle cx="119.9" cy="202.8" r=".8" class="ae"/><path d="M124.4 203.1v5.1" class="o"/><circle cx="124.4" cy="202.8" r=".8" class="ae"/><path d="M128.9 203.1v5.1" class="o"/><circle cx="128.9" cy="202.8" r=".8" class="ae"/><path d="M133.4 203.1v5.1" class="o"/><circle cx="133.4" cy="202.8" r=".8" class="ae"/><path d="M13 185.6h218.1V217H13z" class="ad"/><circle cx="93.3" cy="59" r=".6" class="aq"/><circle cx="116.5" cy="73.9" r=".6" class="aq"/><circle cx="170" cy="107.7" r=".6" class="aq"/><circle cx="213.2" cy="132" r=".6" class="aq"/><circle cx="219.7" cy="145.7" r=".6" class="aq"/><circle cx="192.1" cy="107.7" r=".6" class="aq"/><circle cx="207.4" cy="116.7" r=".6" class="aq"/><circle cx="68" cy="59" r=".6" class="aq"/><circle cx="71.5" cy="63.1" r=".6" class="aq"/><circle cx="47.8" cy="114.4" r=".6" class="aq"/><circle cx="66.4" cy="103" r=".6" class="aq"/><circle cx="32.6" cy="136.6" r=".6" class="aq"/><circle cx="127" cy="97.1" r=".6" class="aq"/><circle cx="152.6" cy="107.3" r=".3" class="aq"/><circle cx="172.3" cy="124.2" r=".3" class="aq"/><circle cx="165.7" cy="104.6" r=".3" class="aq"/><circle cx="43.1" cy="113.3" r=".3" class="aq"/><circle cx="43.8" cy="102.7" r=".3" class="aq"/><circle cx="47.4" cy="105.9" r=".3" class="aq"/><circle cx="176.3" cy="100.8" r=".3" class="aq"/><circle cx="130.5" cy="104" r=".3" class="aq"/><circle cx="41.4" cy="143.9" r=".3" class="aq"/><circle cx="50" cy="154.1" r=".3" class="aq"/><circle cx="34.3" cy="144.3" r=".3" class="aq"/><circle cx="45.6" cy="165.1" r=".3" class="aq"/><circle cx="48.4" cy="168.6" r=".3" class="aq"/><circle cx="121.7" cy="97.7" r=".3" class="aq"/><circle cx="143.5" cy="115.1" r=".3" class="aq"/><circle cx="138.3" cy="123" r=".3" class="aq"/><circle cx="39.4" cy="83.4" r=".3" class="aq"/><circle cx="38.7" cy="88.8" r=".3" class="aq"/><circle cx="66.1" cy="64.5" r=".3" class="aq"/><circle cx="111.8" cy="74.3" r=".3" class="aq"/><circle cx="91.4" cy="67.7" r=".3" class="aq"/><circle cx="113.7" cy="80.8" r=".3" class="aq"/><circle cx="81.2" cy="88.2" r=".3" class="aq"/><circle cx="84.6" cy="84.3" r=".3" class="aq"/><circle cx="196.9" cy="115.4" r=".3" class="aq"/><circle cx="194" cy="106.1" r=".3" class="aq"/><circle cx="211.3" cy="123.2" r=".3" class="aq"/><circle cx="200.1" cy="145.2" r=".3" class="aq"/><circle cx="215.9" cy="127.5" r=".3" class="aq"/><circle cx="216.6" cy="151.3" r=".3" class="aq"/><circle cx="213.8" cy="163.7" r=".3" class="aq"/></g><path d="M69.6 137s-9.1-13.8-30.5-15c0 0-1.4 25.5 28.1 23.7" class="ac"/><path d="M69 137.4a30.8 30.8 0 0 0-6-6 39 39 0 0 0-7.4-4.4l-2-.8a18 18 0 0 0-2-.8l-2-.6-2-.5c-1.4-.4-2.9-.5-4.3-.8s-2.8-.3-4.2-.4l1-1a25.4 25.4 0 0 0 1.8 9.9 19.5 19.5 0 0 0 5.9 8 22.2 22.2 0 0 0 9.1 4.3 37.6 37.6 0 0 0 10.3.7.7.7 0 0 1 0 1.4 39.2 39.2 0 0 1-10.6-.7 23.7 23.7 0 0 1-9.9-4.3 21.2 21.2 0 0 1-6.5-8.7 25.7 25.7 0 0 1-1.6-5.2 26 26 0 0 1-.5-5.5 1 1 0 0 1 1-.9l4.5.5a43.6 43.6 0 0 1 4.4 1l2.1.5 2.1.7a19.5 19.5 0 0 1 2.1.9c.7.2 1.4.5 2 .9a40.6 40.6 0 0 1 7.5 4.7 31.6 31.6 0 0 1 6.2 6.4.6.6 0 0 1-.1.9.6.6 0 0 1-.8-.1z" class="ab"/><path d="M145 186a69.6 69.6 0 0 1-71-2.8c-38-28-15.7-90.6 29-85.2 46.5 5.6 26.7 57 25 72.8s14.7 8.9 14.7 8.9-6-18.4 11.2-22.3c0 0 7.7 13.3-2.2 21.6 0 0 12.5-.7 17 9.7-13.2 12.9-23.7-2.8-23.7-2.8z" class="ac"/><g class="aa"><path d="M53.2 156.7s9.1-20.8 30-15.9c33.9 8 26.5 48.2 57.7 47.4L136 197l-61.7-3.3-27-22.8z" class="q"/><ellipse cx="131.9" cy="132.4" class="r" rx="12" ry="4.2" transform="rotate(-85.5 131.9 132.4)"/><path d="M124 141.3c-1.3 0-1.8-2.8-1.9-5.3s.7-4.1 1.8-3.8c.8.2 1.5 2 1.5 4.6s-.6 4.5-1.5 4.5z" class="r"/></g><path d="M145 186a69.6 69.6 0 0 1-71-2.8c-38-28-15.7-90.6 29-85.2 46.5 5.6 26.7 57 25 72.8s14.7 8.9 14.7 8.9-6-18.4 11.2-22.3c0 0 7.7 13.3-2.2 21.6 0 0 12.5-.7 17 9.7-13.2 12.9-23.7-2.8-23.7-2.8z" class="s"/><path d="M123.2 144.5s11-12.2 32.4-10.1c0 0-2.5 25.3-31.5 19" class="ac"/><path d="M122.7 144.1a31.7 31.7 0 0 1 7.1-5.4 40.3 40.3 0 0 1 8.2-3.5l2.1-.6a20.8 20.8 0 0 1 2.2-.5l2.2-.4 2.2-.3c1.5-.2 3-.1 4.5-.2s3 .1 4.5.2a1 1 0 0 1 .8 1 24.5 24.5 0 0 1-1.3 5.4 25.8 25.8 0 0 1-2.4 4.9 21.3 21.3 0 0 1-7.7 7.6 23.6 23.6 0 0 1-10.4 2.8 39.2 39.2 0 0 1-10.7-1 .6.6 0 0 1 .3-1.3 37.6 37.6 0 0 0 10.3.9 22.1 22.1 0 0 0 9.7-2.8 19.6 19.6 0 0 0 7-7.1 25.4 25.4 0 0 0 3.3-9.5l.9 1-4.3-.2h-4.3l-2.1.3-2.2.3a18.6 18.6 0 0 0-2 .4c-.8.2-1.5.3-2.1.6a39.4 39.4 0 0 0-8 3.2 30.5 30.5 0 0 0-6.9 5 .6.6 0 0 1-.8 0 .6.6 0 0 1 0-.8z" class="ab"/><path d="M107.3 100.5l-5.6-40.9s-6.2 28.8-8.4 39.7c-.7 3.4 7 4.3 7 4.3s7.4.8 7-3.1z" class="y"/><path d="M106.7 98c-1.4.2-8 .7-12-4.3m10.8-6.4a13.2 13.2 0 0 1-8.9-3.3m7.4-7.8a13.1 13.1 0 0 1-5.4-2" class="t"/><path d="M107.3 100.5l-5.6-40.9s-6.2 28.8-8.4 39.7" class="z"/><path d="M83.7 118.5l11.8 1.1s-1.2 9.1-8.4 8.2c-5.8-.7-3.4-9.3-3.4-9.3z" class="u"/><g class="v"><path d="M96.4 122.1s-11.1-1.8-15.3 5.4l10.3 2.5z" class="w"/></g><path d="M71.5 118.1c.3-2.3 1.9-4 3.4-3.7s2.6 2.3 2.2 4.6m26 4.2c.4-2.7 2.2-4.6 4-4.4s2.8 2.7 2.4 5.4" class="x"/><path d="M160.2 201.9l-1-2.8h-.7l-1 2.8-1-2.8h-.8l1.3 3.7h.9l.9-2.5 1 2.5h.8l1.4-3.7h-.8l-1 2.8zm4.8-2.6a1.9 1.9 0 0 0-1-.2 2 2 0 0 0-1 .2 1.8 1.8 0 0 0-.6.7 2 2 0 0 0-.3 1 2 2 0 0 0 .3 1 1.8 1.8 0 0 0 .7.7 2.3 2.3 0 0 0 1 .2 2.4 2.4 0 0 0 1-.1 1.5 1.5 0 0 0 .6-.5l-.5-.5a1.4 1.4 0 0 1-1 .4 1.3 1.3 0 0 1-.8-.2 1 1 0 0 1-.4-.7h2.9v-.3a2 2 0 0 0-.2-1 1.6 1.6 0 0 0-.6-.7zm-2 1.4a1.1 1.1 0 0 1 .4-.7 1 1 0 0 1 .7-.2 1 1 0 0 1 1 .9zm6.8-1.4a2 2 0 0 0-1-.2 1.8 1.8 0 0 0-.7.1 1.5 1.5 0 0 0-.5.4v-1.9h-.8v5.1h.8v-.4a1.4 1.4 0 0 0 .5.3 1.7 1.7 0 0 0 .7.2 2 2 0 0 0 1-.3 1.8 1.8 0 0 0 .7-.6 2 2 0 0 0 .2-1 2 2 0 0 0-.2-1 1.8 1.8 0 0 0-.7-.7zm-.3 2.5a1 1 0 0 1-.8.3 1.1 1.1 0 0 1-.5-.1 1 1 0 0 1-.4-.4 1.2 1.2 0 0 1-.2-.6 1.2 1.2 0 0 1 .2-.6 1 1 0 0 1 .4-.4 1.1 1.1 0 0 1 .5-.2 1 1 0 0 1 .8.4 1.3 1.3 0 0 1 0 1.6zm4.1-2.7a2 2 0 0 0-.7.1 1.4 1.4 0 0 0-.5.4v-1.9h-.9v5.1h.9V201a1.2 1.2 0 0 1 .3-.8 1 1 0 0 1 .7-.3.8.8 0 0 1 .7.2 1 1 0 0 1 .2.8v2h.9v-2.1a1.6 1.6 0 0 0-.4-1.3 1.6 1.6 0 0 0-1.2-.4zm2.7 0h.9v3.7h-.9zm.4-1.6a.6.6 0 0 0-.4.1.5.5 0 0 0 0 .8.6.6 0 0 0 .4.1.5.5 0 0 0 .4-.1.5.5 0 0 0 .2-.4.5.5 0 0 0-.2-.4.6.6 0 0 0-.4-.1zm3.7 1.6a2 2 0 0 0-.8.1 1.5 1.5 0 0 0-.5.4v-.5h-.8v3.7h.8V201a1.2 1.2 0 0 1 .3-.8 1 1 0 0 1 .8-.3.8.8 0 0 1 .6.2 1 1 0 0 1 .3.8v2h.8v-2.1a1.6 1.6 0 0 0-.4-1.3 1.6 1.6 0 0 0-1.1-.4zm4.1 3.1a.5.5 0 0 1-.4-.2.6.6 0 0 1-.1-.4V200h1v-.7h-1v-.9h-.9v.9h-.6v.7h.6v1.7a1.2 1.2 0 0 0 .4 1 1.3 1.3 0 0 0 .9.3 1.7 1.7 0 0 0 .5 0 .9.9 0 0 0 .3-.3l-.2-.6a.8.8 0 0 1-.5.2zm1.8-.5a.6.6 0 0 0-.4.2.6.6 0 0 0-.2.4.6.6 0 0 0 .2.4.6.6 0 0 0 .8 0 .6.6 0 0 0 .2-.4.6.6 0 0 0-.2-.4.6.6 0 0 0-.4-.2zm1.8-4.2a.6.6 0 0 0-.4.1.5.5 0 0 0 0 .8.6.6 0 0 0 .4.1.5.5 0 0 0 .4-.1.5.5 0 0 0 .2-.4.5.5 0 0 0-.2-.4.6.6 0 0 0-.4-.1zm-.4 1.6h.9v3.7h-.9zm5.3.9a1.7 1.7 0 0 0-.6-.7 2.3 2.3 0 0 0-2 0 1.7 1.7 0 0 0-.7.7 1.9 1.9 0 0 0-.3 1 2 2 0 0 0 .3 1 1.8 1.8 0 0 0 .7.7 2.3 2.3 0 0 0 2 0 1.8 1.8 0 0 0 .7-.7 2 2 0 0 0 .2-1 1.9 1.9 0 0 0-.2-1zm-.8 1.8a1 1 0 0 1-.8.3 1 1 0 0 1-.8-.3 1.3 1.3 0 0 1 0-1.7 1 1 0 0 1 .8-.3 1 1 0 0 1 .8.3 1.3 1.3 0 0 1 0 1.7z" class="aq"/></svg>