<svg id="sticker" xmlns="http://www.w3.org/2000/svg" xmlns:xlink="http://www.w3.org/1999/xlink" viewBox="0 0 252 252"><defs><style>.cls-1,.cls-28,.cls-30,.cls-31,.cls-39,.cls-41,.cls-42,.cls-46{fill:none;}.cls-2{fill:#fff;}.cls-3{clip-path:url(#clip-path);}.cls-4{fill:url(#linear-gradient);}.cls-5,.cls-7{fill:#5e5396;}.cls-5,.cls-6{opacity:0.8;}.cls-8{fill:#351f4c;}.cls-9{fill:#305699;}.cls-10{fill:url(#linear-gradient-2);}.cls-11{fill:url(#linear-gradient-3);}.cls-12{fill:url(#linear-gradient-4);}.cls-13{fill:url(#linear-gradient-5);}.cls-14{fill:url(#linear-gradient-6);}.cls-15{fill:url(#linear-gradient-7);}.cls-16{fill:#1b4787;}.cls-17{fill:url(#radial-gradient);}.cls-18{fill:#a6c7ed;}.cls-19{fill:#614882;}.cls-20{fill:#e5d88c;}.cls-21{fill:#3a2856;}.cls-22{fill:#463166;}.cls-23{fill:#2c1f44;}.cls-24{fill:#503b72;}.cls-25{fill:url(#linear-gradient-8);}.cls-26{fill:url(#linear-gradient-9);}.cls-27{fill:#5b3d7a;stroke:#aefbff;}.cls-27,.cls-28,.cls-30,.cls-31{stroke-miterlimit:10;}.cls-27,.cls-28{stroke-width:0.58px;}.cls-28{stroke:#745193;}.cls-29{fill:#745193;}.cls-30{stroke:#351f4c;stroke-width:1.73px;}.cls-31{stroke:#282d33;stroke-width:0.29px;}.cls-32{fill:#fff8d7;}.cls-33{fill:url(#linear-gradient-10);}.cls-34{fill:#96a3e2;}.cls-35{fill:#1c418c;}.cls-36{clip-path:url(#clip-path-3);}.cls-37{fill:#bbc6ef;}.cls-38{fill:#6b7fc6;}.cls-39,.cls-46{stroke:#1c418c;}.cls-39,.cls-40,.cls-41,.cls-42,.cls-46{stroke-linecap:round;stroke-linejoin:round;}.cls-39,.cls-40,.cls-41,.cls-42{stroke-width:1.56px;}.cls-40{fill:#cae8ef;}.cls-40,.cls-42{stroke:#4b8087;}.cls-41{stroke:#82bbc4;}.cls-43{fill:#402b5e;}.cls-44{clip-path:url(#clip-path-4);}.cls-45{fill:#e87ce1;}.cls-46{stroke-width:1.24px;}</style><clipPath id="clip-path"><path class="cls-1" d="M221.61,164.34a50,50,0,0,0-77.92-56.92l0-.21,0,0A42.66,42.66,0,0,0,121,86.63l-4-29.07a15.46,15.46,0,0,0-14.76-13.38l-.39,0h-.18A15.6,15.6,0,0,0,86.54,56.45l-2,9.12c-.89,4.22-1.94,9.14-3,13.93a18.74,18.74,0,0,0-4.91-3.83V68A18.11,18.11,0,0,0,40.5,68V75.7a19,19,0,0,0-7.23,26.45,18.85,18.85,0,0,0,3.63,4.4A15.65,15.65,0,0,0,23.42,121.2l0,.43a35.65,35.65,0,0,0,.18,4.59,41.66,41.66,0,0,0,.61,4.18,40.68,40.68,0,0,0,2.47,8.08,35.82,35.82,0,0,0,11.12,14.58l.76.57L44,157.42A25.83,25.83,0,0,0,26,182h0a25.82,25.82,0,0,0,25.82,25.82h151A25.82,25.82,0,0,0,228.61,182h0A25.74,25.74,0,0,0,221.61,164.34Z"/></clipPath><linearGradient id="linear-gradient" x1="96.36" y1="137.18" x2="203.85" y2="90.52" gradientUnits="userSpaceOnUse"><stop offset="0" stop-color="#8d63a8"/><stop offset="1" stop-color="#c98fd1"/></linearGradient><linearGradient id="linear-gradient-2" x1="57.18" y1="97.79" x2="57.18" y2="114.61" gradientUnits="userSpaceOnUse"><stop offset="0" stop-color="#ed1c24" stop-opacity="0.9"/><stop offset="1" stop-color="#da1c5c" stop-opacity="0"/></linearGradient><linearGradient id="linear-gradient-3" x1="60.05" y1="97.79" x2="60.05" y2="114.61" xlink:href="#linear-gradient-2"/><linearGradient id="linear-gradient-4" x1="57.18" y1="240.44" x2="57.18" y2="257.25" gradientTransform="matrix(1, 0, 0, -0.31, 0, 161.29)" gradientUnits="userSpaceOnUse"><stop offset="0" stop-color="#479ef4" stop-opacity="0.5"/><stop offset="1" stop-color="#479ef4" stop-opacity="0"/></linearGradient><linearGradient id="linear-gradient-5" x1="60.05" y1="240.44" x2="60.05" y2="257.25" xlink:href="#linear-gradient-4"/><linearGradient id="linear-gradient-6" x1="57.18" y1="-38.49" x2="57.18" y2="-6.46" gradientTransform="translate(0 81.6) scale(1 0.3)" gradientUnits="userSpaceOnUse"><stop offset="0" stop-color="#fff"/><stop offset="1" stop-color="#fff" stop-opacity="0"/></linearGradient><linearGradient id="linear-gradient-7" x1="60.05" y1="-38.49" x2="60.05" y2="-6.46" xlink:href="#linear-gradient-6"/><radialGradient id="radial-gradient" cx="58.61" cy="67.99" r="3.4" gradientUnits="userSpaceOnUse"><stop offset="0" stop-color="#fff" stop-opacity="0.5"/><stop offset="1" stop-color="#fff" stop-opacity="0"/></radialGradient><linearGradient id="linear-gradient-8" x1="168.35" y1="197.88" x2="168.35" y2="160.38" gradientUnits="userSpaceOnUse"><stop offset="0" stop-color="#27aae1"/><stop offset="1" stop-color="#27aae1" stop-opacity="0"/></linearGradient><linearGradient id="linear-gradient-9" x1="1520.46" y1="197.88" x2="1520.46" y2="160.38" gradientTransform="matrix(-1, 0, 0, 1, 1702.25, 0)" xlink:href="#linear-gradient-8"/><linearGradient id="linear-gradient-10" x1="122.06" y1="216.23" x2="122.06" y2="186.38" gradientUnits="userSpaceOnUse"><stop offset="0" stop-color="#e5d88c" stop-opacity="0.8"/><stop offset="1" stop-color="#e5d88c" stop-opacity="0"/></linearGradient><clipPath id="clip-path-3"><path class="cls-1" d="M145,185.92c-26.6,15.57-58.11,6.78-71-2.7-38-28-15.66-90.65,29-85.24,46.51,5.63,26.67,56.94,24.94,72.8s14.79,8.91,14.79,8.91-6.1-18.42,11.16-22.31c0,0,7.68,13.36-2.21,21.66,0,0,12.49-.7,17.09,9.62C155.5,201.57,145,185.92,145,185.92Z"/></clipPath><clipPath id="clip-path-4"><path class="cls-1" d="M83.7,118.45l11.75,1.15s-1.19,9.11-8.36,8.22C81.25,127.1,83.7,118.45,83.7,118.45Z"/></clipPath></defs><title>webhint_sticker_5</title><path class="cls-2" d="M149.51,97.79a54.36,54.36,0,0,1,25.35-6.17,54.93,54.93,0,0,1,52.3,71.69,30.72,30.72,0,0,1-24.37,49.43H51.84a30.73,30.73,0,0,1-17.4-56.06,40.86,40.86,0,0,1-12.3-16.29,46.55,46.55,0,0,1-2.76-9c-.3-1.53-.54-3.1-.69-4.67a42.91,42.91,0,0,1-.19-5.21l0-.55a20.6,20.6,0,0,1,10.29-16.7A23.91,23.91,0,0,1,35.6,73V68a23,23,0,0,1,44.95-7l1.2-5.6a20.53,20.53,0,0,1,20-16.17h.71A20.38,20.38,0,0,1,121.9,56.89l3.59,26.36a47.51,47.51,0,0,1,18.78,15.5c.28.38.72,1.07,1,1.46Z"/><g class="cls-3"><rect class="cls-4" x="13.03" y="34.74" width="218.08" height="182.57"/></g><g class="cls-3"><polygon class="cls-5" points="125.42 200.41 125.42 187.34 116 187.34 116 200.41 97.17 200.41 97.17 187.26 87.75 187.26 87.75 194.18 78.48 194.18 78.48 198.27 70.62 198.27 70.62 184.13 61.2 184.13 61.2 189.86 52.55 189.86 52.55 194.18 45.2 194.18 45.2 176.9 22.24 176.9 22.24 207.69 33.9 207.69 33.9 207.76 116 207.76 125.42 207.76 140.18 207.76 140.18 200.41 125.42 200.41"/><g class="cls-6"><polygon class="cls-7" points="189 193.4 182.57 193.4 182.57 175.4 173.15 175.4 173.15 187.26 164.15 187.26 164.15 207.69 173.15 207.69 173.57 207.69 182.57 207.69 182.57 207.42 189 207.42 189 207.69 198.41 207.69 198.41 189.86 189 189.86 189 193.4"/><polygon class="cls-7" points="222.69 174.85 214.52 174.85 214.52 169.98 205.1 169.98 205.1 207.76 214.52 207.76 214.52 207.69 222.69 207.69 222.69 174.85"/></g><path class="cls-8" d="M56.83,69.45h3.56a.68.68,0,0,1,.68.68V207.42a0,0,0,0,1,0,0H56.15a0,0,0,0,1,0,0V70.13A.68.68,0,0,1,56.83,69.45Z"/><path class="cls-8" d="M49.62,96.73h18a4.34,4.34,0,0,0,3.71-2.11H45.91A4.31,4.31,0,0,0,49.62,96.73Z"/><path class="cls-9" d="M67.61,88.08h-18a4.31,4.31,0,0,0-3.71,6.54H71.32a4.39,4.39,0,0,0,.61-2.21A4.33,4.33,0,0,0,67.61,88.08Z"/><rect class="cls-10" x="56.15" y="96.73" width="2.05" height="21.24"/><rect class="cls-11" x="59.02" y="96.73" width="2.05" height="21.24"/><rect class="cls-12" x="56.15" y="81.59" width="2.05" height="6.5"/><rect class="cls-13" x="59.02" y="81.59" width="2.05" height="6.5"/><path class="cls-14" d="M56.83,69.45H58.2a0,0,0,0,1,0,0V81.59a0,0,0,0,1,0,0H56.15a0,0,0,0,1,0,0V70.13A.68.68,0,0,1,56.83,69.45Z"/><path class="cls-15" d="M59,69.45h1.37a.68.68,0,0,1,.68.68V81.59a0,0,0,0,1,0,0H59a0,0,0,0,1,0,0V69.45A0,0,0,0,1,59,69.45Z"/><circle class="cls-2" cx="58.61" cy="67.99" r="0.5"/><path class="cls-16" d="M50,88.08a4.43,4.43,0,0,0-3.32,3.53h4.18a9.8,9.8,0,0,1,1-2.11h1.76a18.08,18.08,0,0,0-.46,4.18h6.89s0-3.32-.11-3.89h2.57a18.36,18.36,0,0,1,.62,2.59h2.14a7.93,7.93,0,0,1,.31,1.47H69a11.07,11.07,0,0,0-1.25-4.18h2.16s-.27-.91-2.14-1.59Z"/><circle class="cls-17" cx="58.61" cy="67.99" r="3.4"/><circle class="cls-18" cx="47.51" cy="90.19" r="0.55"/><circle class="cls-18" cx="46.95" cy="91.59" r="0.31"/><rect class="cls-19" x="198.01" y="178.89" width="14.88" height="28.87"/><rect class="cls-20" x="199.63" y="180.69" width="5.16" height="1.75"/><rect class="cls-21" x="206.93" y="180.69" width="4.18" height="3.44"/><rect class="cls-21" x="206.93" y="189.17" width="4.2" height="3.44"/><rect class="cls-20" x="206.93" y="184.93" width="4.18" height="3.44"/><rect class="cls-20" x="199.68" y="193.4" width="5.12" height="1.75"/><rect class="cls-20" x="206.93" y="193.4" width="4.23" height="3.44"/><rect class="cls-21" x="199.63" y="184.93" width="5.16" height="1.75"/><rect class="cls-20" x="199.65" y="189.17" width="5.14" height="1.75"/><rect class="cls-22" x="212.89" y="186.2" width="15.72" height="21.64"/><rect class="cls-23" x="215.25" y="188.2" width="2.64" height="3.27"/><rect class="cls-20" x="219.6" y="188.2" width="2.64" height="3.27"/><rect class="cls-23" x="223.96" y="188.2" width="2.64" height="3.27"/><rect class="cls-20" x="215.25" y="192.91" width="2.64" height="3.27"/><rect class="cls-23" x="219.6" y="192.91" width="2.64" height="3.27"/><rect class="cls-20" x="223.96" y="192.91" width="2.64" height="3.27"/><rect class="cls-20" x="215.25" y="197.63" width="2.64" height="3.27"/><rect class="cls-23" x="219.6" y="197.63" width="2.64" height="3.27"/><rect class="cls-23" x="223.96" y="197.63" width="2.64" height="3.27"/><rect class="cls-23" x="215.25" y="202.34" width="2.64" height="3.27"/><rect class="cls-20" x="219.6" y="202.34" width="2.64" height="3.27"/><rect class="cls-20" x="223.96" y="202.34" width="2.64" height="3.27"/><rect class="cls-24" x="37.67" y="183.52" width="14.88" height="23.9"/><rect class="cls-24" x="85.02" y="185.57" width="7.44" height="22.2"/><rect class="cls-24" x="121.7" y="196.15" width="7.44" height="11.61"/><rect class="cls-24" x="110.24" y="188.36" width="7.44" height="19.4"/><rect class="cls-24" x="90.33" y="200.05" width="14.92" height="7.72"/><rect class="cls-24" x="66.81" y="202.98" width="20.23" height="4.78"/><rect class="cls-24" x="103.12" y="205.38" width="20.23" height="2.39"/><rect class="cls-24" x="124.67" y="199.08" width="20.23" height="8.68"/><rect class="cls-20" x="40.14" y="186.2" width="9.95" height="1.31"/><rect class="cls-20" x="40.14" y="188.97" width="9.95" height="1.31"/><rect class="cls-8" x="40.14" y="191.75" width="9.95" height="1.31"/><rect class="cls-20" x="40.14" y="194.52" width="9.95" height="1.31"/><rect class="cls-8" x="40.14" y="197.3" width="9.95" height="1.31"/><rect class="cls-20" x="40.14" y="200.07" width="9.95" height="1.31"/><rect class="cls-8" x="40.14" y="202.85" width="9.95" height="1.31"/><polygon class="cls-8" points="161.16 199.08 174.76 146.51 175.55 146.52 163.68 199.08 161.16 199.08"/><polygon class="cls-8" points="188.98 199.08 175.38 146.51 174.59 146.52 186.46 199.08 188.98 199.08"/><polygon class="cls-25" points="161.16 199.08 174.76 146.51 175.55 146.52 163.68 199.08 161.16 199.08"/><polygon class="cls-26" points="188.98 199.08 175.38 146.51 174.59 146.52 186.46 199.08 188.98 199.08"/><path class="cls-27" d="M176.38,114h-3.25c-2.06,0-2.14,5.36,0,5.36h3.34C178.53,119.34,178.44,114,176.38,114Z"/><path class="cls-27" d="M188.17,116.06h-3.25c-2.06,0-2.14,5.35,0,5.35h3.34C190.32,121.41,190.23,116.06,188.17,116.06Z"/><path class="cls-27" d="M198.54,122h-3.25c-2.06,0-2.15,5.36,0,5.36h3.34C200.68,127.4,200.6,122,198.54,122Z"/><path class="cls-27" d="M206.23,131.21H203c-2.06,0-2.14,5.36,0,5.36h3.34C208.38,136.57,208.29,131.21,206.23,131.21Z"/><path class="cls-27" d="M210.33,142.46h-3.25c-2.06,0-2.15,5.36-.05,5.36h3.34C212.47,147.82,212.39,142.46,210.33,142.46Z"/><path class="cls-27" d="M210.33,154.43h-3.25c-2.06,0-2.15,5.36-.05,5.36h3.34C212.47,159.79,212.39,154.43,210.33,154.43Z"/><path class="cls-27" d="M206.23,165.68H203c-2.06,0-2.14,5.36,0,5.36h3.34C208.38,171,208.29,165.68,206.23,165.68Z"/><path class="cls-27" d="M198.54,174.85h-3.25c-2.06,0-2.15,5.36,0,5.36h3.34C200.68,180.21,200.6,174.85,198.54,174.85Z"/><path class="cls-27" d="M188.17,180.21h-3.25c-2.06,0-2.14,5.36,0,5.36h3.34C190.32,185.57,190.23,180.21,188.17,180.21Z"/><path class="cls-27" d="M176.22,182.89H173c-2.05,0-2.14,5.36,0,5.36h3.34C178.36,188.25,178.27,182.89,176.22,182.89Z"/><path class="cls-27" d="M164.59,180.84h-3.25c-2.06,0-2.14,5.36,0,5.36h3.34C166.74,186.2,166.65,180.84,164.59,180.84Z"/><path class="cls-27" d="M154.23,174.85H151c-2.05,0-2.14,5.36,0,5.36h3.34C156.37,180.21,156.28,174.85,154.23,174.85Z"/><path class="cls-27" d="M146.53,165.68h-3.25c-2.06,0-2.15,5.36-.05,5.36h3.34C148.68,171,148.59,165.68,146.53,165.68Z"/><path class="cls-27" d="M142.44,154.43h-3.26c-2.05,0-2.14,5.36,0,5.36h3.34C144.58,159.79,144.49,154.43,142.44,154.43Z"/><path class="cls-27" d="M142.44,142.53h-3.26c-2.05,0-2.14,5.36,0,5.36h3.34C144.58,147.89,144.49,142.53,142.44,142.53Z"/><path class="cls-27" d="M146.53,131.21h-3.25c-2.06,0-2.15,5.36-.05,5.36h3.34C148.68,136.57,148.59,131.21,146.53,131.21Z"/><path class="cls-27" d="M154.23,122H151c-2.05,0-2.14,5.36,0,5.36h3.34C156.37,127.4,156.28,122,154.23,122Z"/><path class="cls-27" d="M164.59,116.06h-3.25c-2.06,0-2.14,5.35,0,5.35h3.34C166.74,121.41,166.65,116.06,164.59,116.06Z"/><polygon class="cls-8" points="174.76 146.51 144.03 200.19 147.06 200.19 175.55 146.52 174.76 146.51"/><polygon class="cls-8" points="175.38 146.51 206.11 200.19 203.09 200.19 174.59 146.52 175.38 146.51"/><line class="cls-28" x1="174.76" y1="146.51" x2="174.76" y2="112.04"/><line class="cls-28" x1="174.76" y1="146.51" x2="162.97" y2="114.12"/><line class="cls-28" x1="174.76" y1="146.51" x2="152.6" y2="120.11"/><line class="cls-28" x1="174.76" y1="146.51" x2="144.9" y2="129.28"/><line class="cls-28" x1="174.76" y1="146.51" x2="140.81" y2="140.53"/><line class="cls-28" x1="174.76" y1="146.51" x2="140.81" y2="152.5"/><line class="cls-28" x1="174.76" y1="146.51" x2="144.9" y2="163.75"/><line class="cls-28" x1="174.76" y1="146.51" x2="152.6" y2="172.92"/><line class="cls-28" x1="174.76" y1="146.51" x2="162.97" y2="178.9"/><line class="cls-28" x1="174.76" y1="146.51" x2="174.76" y2="180.98"/><line class="cls-28" x1="174.76" y1="146.51" x2="186.55" y2="178.9"/><line class="cls-28" x1="174.76" y1="146.51" x2="196.91" y2="172.92"/><line class="cls-28" x1="174.76" y1="146.51" x2="204.61" y2="163.75"/><line class="cls-28" x1="174.76" y1="146.51" x2="208.7" y2="152.5"/><line class="cls-28" x1="174.76" y1="146.51" x2="208.7" y2="140.53"/><line class="cls-28" x1="174.76" y1="146.51" x2="204.61" y2="129.28"/><line class="cls-28" x1="174.76" y1="146.51" x2="196.91" y2="120.11"/><line class="cls-28" x1="174.76" y1="146.51" x2="186.55" y2="114.12"/><circle class="cls-28" cx="174.76" cy="146.51" r="15.1"/><circle class="cls-28" cx="174.76" cy="146.51" r="9.68"/><rect class="cls-8" x="135.47" y="192.51" width="78.57" height="10.06"/><rect class="cls-8" x="138.36" y="202.40" width="72.8" height="5.30"/><polygon class="cls-29" points="177.18 133.13 175.55 136.86 175.63 141.69 177.31 137.13 177.18 133.13"/><polygon class="cls-29" points="172.46 133.11 172.2 137.17 173.93 141.68 173.95 136.83 172.46 133.11"/><polygon class="cls-29" points="168.01 134.71 169.16 138.61 172.32 142.26 170.68 137.69 168.01 134.71"/><polygon class="cls-29" points="164.38 137.73 166.79 141 171.02 143.35 167.91 139.61 164.38 137.73"/><polygon class="cls-29" points="162 141.81 165.39 144.06 170.16 144.82 165.96 142.37 162 141.81"/><polygon class="cls-29" points="161.16 146.45 165.11 147.41 169.86 146.49 165.08 145.63 161.16 146.45"/><polygon class="cls-29" points="161.96 151.11 166 150.65 170.14 148.17 165.36 148.99 161.96 151.11"/><polygon class="cls-29" points="164.3 155.21 167.94 153.4 170.99 149.65 166.77 152.06 164.3 155.21"/><polygon class="cls-29" points="167.91 158.26 170.71 155.31 172.29 150.75 169.15 154.45 167.91 158.26"/><polygon class="cls-29" points="172.34 159.9 173.96 156.16 173.88 151.34 172.2 155.89 172.34 159.9"/><polygon class="cls-29" points="177.06 159.92 177.31 155.85 175.59 151.34 175.56 156.2 177.06 159.92"/><polygon class="cls-29" points="181.5 158.32 180.35 154.42 177.19 150.77 178.83 155.34 181.5 158.32"/><polygon class="cls-29" points="185.13 155.3 182.72 152.03 178.5 149.68 181.6 153.41 185.13 155.3"/><polygon class="cls-29" points="187.51 151.22 184.12 148.97 179.35 148.21 183.55 150.66 187.51 151.22"/><polygon class="cls-29" points="188.35 146.57 184.4 145.62 179.66 146.53 184.44 147.4 188.35 146.57"/><polygon class="cls-29" points="187.56 141.92 183.51 142.38 179.37 144.86 184.16 144.03 187.56 141.92"/><polygon class="cls-29" points="185.21 137.82 181.57 139.63 178.53 143.38 182.74 140.97 185.21 137.82"/><polygon class="cls-29" points="181.61 134.77 178.8 137.72 177.23 142.28 180.36 138.57 181.61 134.77"/><circle class="cls-30" cx="174.76" cy="146.51" r="34.48"/><circle class="cls-8" cx="174.76" cy="146.51" r="4.36"/><rect class="cls-8" x="86.51" y="192.64" width="1.24" height="1.24"/><rect class="cls-20" x="88.27" y="192.64" width="1.24" height="1.24"/><rect class="cls-8" x="90.03" y="192.64" width="1.24" height="1.24"/><rect class="cls-20" x="86.51" y="195.06" width="1.24" height="1.24"/><rect class="cls-8" x="88.27" y="195.06" width="1.24" height="1.24"/><rect class="cls-8" x="90.03" y="195.06" width="1.24" height="1.24"/><rect class="cls-8" x="86.51" y="197.47" width="1.24" height="1.24"/><rect class="cls-20" x="88.27" y="197.47" width="1.24" height="1.24"/><rect class="cls-8" x="90.03" y="197.47" width="1.24" height="1.24"/><rect class="cls-20" x="86.51" y="199.89" width="1.24" height="1.24"/><rect class="cls-8" x="88.27" y="199.89" width="1.24" height="1.24"/><rect class="cls-20" x="90.03" y="199.89" width="1.24" height="1.24"/><rect class="cls-20" x="86.51" y="202.31" width="1.24" height="1.24"/><rect class="cls-20" x="88.27" y="202.31" width="1.24" height="1.24"/><rect class="cls-8" x="90.03" y="202.31" width="1.24" height="1.24"/><rect class="cls-8" x="86.51" y="204.73" width="1.24" height="1.24"/><rect class="cls-8" x="88.27" y="204.73" width="1.24" height="1.24"/><rect class="cls-8" x="90.03" y="204.73" width="1.24" height="1.24"/><rect class="cls-8" x="86.51" y="190.22" width="1.24" height="1.24"/><rect class="cls-8" x="88.27" y="190.22" width="1.24" height="1.24"/><rect class="cls-8" x="90.03" y="190.22" width="1.24" height="1.24"/><path class="cls-8" d="M95,202.93h0a1.17,1.17,0,0,1,1.17,1.17v3.63a0,0,0,0,1,0,0H93.81a0,0,0,0,1,0,0V204.1A1.17,1.17,0,0,1,95,202.93Z"/><path class="cls-8" d="M98.7,202.93h0a1.17,1.17,0,0,1,1.17,1.17v3.63a0,0,0,0,1,0,0H97.53a0,0,0,0,1,0,0V204.1a1.17,1.17,0,0,1,1.17-1.17Z"/><path class="cls-8" d="M102.42,202.93h0a1.17,1.17,0,0,1,1.17,1.17v3.63a0,0,0,0,1,0,0h-2.34a0,0,0,0,1,0,0V204.1A1.17,1.17,0,0,1,102.42,202.93Z"/><path class="cls-8" d="M71.16,204.23h0a0,0,0,0,1,0,0v3.51a0,0,0,0,1,0,0h-2a0,0,0,0,1,0,0v-1.53A2,2,0,0,1,71.16,204.23Z"/><rect class="cls-8" x="72.27" y="204.23" width="1.98" height="3.51"/><rect class="cls-8" x="75.37" y="204.23" width="1.98" height="3.51"/><rect class="cls-8" x="78.47" y="204.23" width="1.98" height="3.51"/><path class="cls-8" d="M81.57,204.23h0a2,2,0,0,1,2,2v1.53a0,0,0,0,1,0,0h-2a0,0,0,0,1,0,0v-3.51A0,0,0,0,1,81.57,204.23Z"/><rect class="cls-8" x="110.91" y="195.9" width="6.27" height="0.39"/><rect class="cls-8" x="110.91" y="197.08" width="6.27" height="0.99"/><rect class="cls-8" x="110.83" y="199.08" width="6.27" height="0.39"/><rect class="cls-8" x="110.83" y="200.26" width="6.27" height="0.99"/><rect class="cls-8" x="110.75" y="202.27" width="6.27" height="0.39"/><rect class="cls-8" x="110.75" y="203.45" width="6.27" height="0.99"/><rect class="cls-8" x="122.99" y="197.32" width="0.71" height="2.16"/><rect class="cls-20" x="124.44" y="197.32" width="0.71" height="2.16"/><rect class="cls-20" x="125.88" y="197.32" width="0.71" height="2.16"/><rect class="cls-8" x="127.32" y="197.32" width="0.71" height="2.16"/><rect class="cls-8" x="122.99" y="200.01" width="0.71" height="2.16"/><rect class="cls-8" x="124.44" y="200.01" width="0.71" height="2.16"/><rect class="cls-20" x="125.88" y="200.01" width="0.71" height="2.16"/><rect class="cls-8" x="127.32" y="200.01" width="0.71" height="2.16"/><rect class="cls-8" x="122.99" y="202.7" width="0.71" height="2.16"/><rect class="cls-20" x="124.44" y="202.7" width="0.71" height="2.16"/><rect class="cls-8" x="125.88" y="202.7" width="0.71" height="2.16"/><rect class="cls-8" x="127.32" y="202.7" width="0.71" height="2.16"/><rect class="cls-24" x="52.55" y="195.12" width="14.88" height="12.3"/><rect class="cls-20" x="54.79" y="201.58" width="1.54" height="5.84"/><rect class="cls-20" x="58.64" y="201.58" width="1.54" height="5.84"/><rect class="cls-20" x="62.48" y="201.58" width="1.54" height="5.84"/><rect class="cls-20" x="54.79" y="196.97" width="1.54" height="2.13"/><rect class="cls-20" x="58.64" y="196.97" width="1.54" height="2.13"/><rect class="cls-20" x="62.48" y="196.97" width="1.54" height="2.13"/><line class="cls-31" x1="67.44" y1="203.07" x2="67.44" y2="208.19"/><circle class="cls-32" cx="67.43" cy="202.85" r="0.79"/><line class="cls-31" x1="70.97" y1="203.07" x2="70.97" y2="208.19"/><circle class="cls-32" cx="70.96" cy="202.85" r="0.79"/><line class="cls-31" x1="74.49" y1="203.07" x2="74.49" y2="208.19"/><circle class="cls-32" cx="74.48" cy="202.85" r="0.79"/><line class="cls-31" x1="78.02" y1="203.07" x2="78.02" y2="208.19"/><circle class="cls-32" cx="78" cy="202.85" r="0.79"/><line class="cls-31" x1="106.41" y1="203.07" x2="106.41" y2="208.19"/><circle class="cls-32" cx="106.4" cy="202.85" r="0.79"/><line class="cls-31" x1="110.92" y1="203.07" x2="110.92" y2="208.19"/><circle class="cls-32" cx="110.91" cy="202.85" r="0.79"/><line class="cls-31" x1="115.42" y1="203.07" x2="115.42" y2="208.19"/><circle class="cls-32" cx="115.41" cy="202.85" r="0.79"/><line class="cls-31" x1="119.93" y1="203.07" x2="119.93" y2="208.19"/><circle class="cls-32" cx="119.92" cy="202.85" r="0.79"/><line class="cls-31" x1="124.43" y1="203.07" x2="124.43" y2="208.19"/><circle class="cls-32" cx="124.42" cy="202.85" r="0.79"/><line class="cls-31" x1="128.94" y1="203.07" x2="128.94" y2="208.19"/><circle class="cls-32" cx="128.93" cy="202.85" r="0.79"/><line class="cls-31" x1="133.44" y1="203.07" x2="133.44" y2="208.19"/><circle class="cls-32" cx="133.43" cy="202.85" r="0.79"/><rect class="cls-33" x="13.03" y="185.57" width="218.08" height="31.39"/><circle class="cls-2" cx="93.3" cy="59.04" r="0.61"/><circle class="cls-2" cx="116.49" cy="73.93" r="0.61"/><circle class="cls-2" cx="170.03" cy="107.7" r="0.61"/><circle class="cls-2" cx="213.17" cy="132.03" r="0.61"/><circle class="cls-2" cx="219.69" cy="145.71" r="0.61"/><circle class="cls-2" cx="192.07" cy="107.7" r="0.61"/><circle class="cls-2" cx="207.39" cy="116.69" r="0.61"/><circle class="cls-2" cx="67.95" cy="59.04" r="0.61"/><circle class="cls-2" cx="71.47" cy="63.07" r="0.61"/><circle class="cls-2" cx="47.79" cy="114.37" r="0.61"/><circle class="cls-2" cx="66.44" cy="103" r="0.61"/><circle class="cls-2" cx="32.63" cy="136.57" r="0.61"/><circle class="cls-2" cx="126.99" cy="97.06" r="0.61"/><circle class="cls-2" cx="152.6" cy="107.35" r="0.35"/><circle class="cls-2" cx="172.33" cy="124.17" r="0.35"/><circle class="cls-2" cx="165.7" cy="104.61" r="0.35"/><circle class="cls-2" cx="43.14" cy="113.27" r="0.35"/><circle class="cls-2" cx="43.76" cy="102.66" r="0.35"/><circle class="cls-2" cx="47.44" cy="105.88" r="0.35"/><circle class="cls-2" cx="176.32" cy="100.85" r="0.35"/><circle class="cls-2" cx="130.48" cy="103.99" r="0.35"/><circle class="cls-2" cx="41.39" cy="143.95" r="0.35"/><circle class="cls-2" cx="49.98" cy="154.11" r="0.35"/><circle class="cls-2" cx="34.32" cy="144.29" r="0.35"/><circle class="cls-2" cx="45.57" cy="165.1" r="0.35"/><circle class="cls-2" cx="48.4" cy="168.62" r="0.35"/><circle class="cls-2" cx="121.72" cy="97.65" r="0.35"/><circle class="cls-2" cx="143.52" cy="115.08" r="0.35"/><circle class="cls-2" cx="138.35" cy="122.95" r="0.35"/><circle class="cls-2" cx="39.42" cy="83.44" r="0.35"/><circle class="cls-2" cx="38.73" cy="88.77" r="0.35"/><circle class="cls-2" cx="66.09" cy="64.51" r="0.35"/><circle class="cls-2" cx="111.78" cy="74.27" r="0.35"/><circle class="cls-2" cx="91.41" cy="67.71" r="0.35"/><circle class="cls-2" cx="113.7" cy="80.8" r="0.35"/><circle class="cls-2" cx="81.23" cy="88.16" r="0.35"/><circle class="cls-2" cx="84.58" cy="84.3" r="0.35"/><circle class="cls-2" cx="196.94" cy="115.42" r="0.35"/><circle class="cls-2" cx="194.02" cy="106.13" r="0.35"/><circle class="cls-2" cx="211.35" cy="123.17" r="0.35"/><circle class="cls-2" cx="200.12" cy="145.21" r="0.35"/><circle class="cls-2" cx="215.87" cy="127.54" r="0.35"/><circle class="cls-2" cx="216.56" cy="151.34" r="0.35"/><circle class="cls-2" cx="213.78" cy="163.72" r="0.35"/></g><path class="cls-34" d="M69.56,137.07s-9.07-13.82-30.48-15c0,0-1.41,25.4,28.17,23.66"/><path class="cls-35" d="M69.06,137.4a30.77,30.77,0,0,0-6.06-6A38.91,38.91,0,0,0,55.65,127c-.64-.32-1.32-.55-2-.83a17.91,17.91,0,0,0-2-.74l-2-.66-2.09-.5c-1.38-.39-2.82-.52-4.22-.77s-2.86-.26-4.28-.39l1-.92h0A25.37,25.37,0,0,0,41.87,132a19.52,19.52,0,0,0,5.9,8.07,22.24,22.24,0,0,0,9.16,4.23,37.6,37.6,0,0,0,10.28.75.67.67,0,0,1,.08,1.33,39.16,39.16,0,0,1-10.68-.63,23.66,23.66,0,0,1-9.86-4.39,21.22,21.22,0,0,1-6.55-8.67,25.67,25.67,0,0,1-1.58-5.21,26,26,0,0,1-.52-5.47h0V122a.92.92,0,0,1,1-.87h.06c1.48.17,3,.27,4.43.5a43.6,43.6,0,0,1,4.38.9l2.15.57,2.11.73a19.52,19.52,0,0,1,2.08.82c.68.3,1.38.56,2,.91a40.65,40.65,0,0,1,7.53,4.75,31.59,31.59,0,0,1,6.2,6.44.59.59,0,0,1-.14.83.6.6,0,0,1-.83-.13Z"/><path class="cls-34" d="M145,185.92c-26.6,15.57-58.11,6.78-71-2.7-38-28-15.66-90.65,29-85.24,46.51,5.63,26.67,56.94,24.94,72.8s14.79,8.91,14.79,8.91-6.1-18.42,11.16-22.31c0,0,7.68,13.36-2.21,21.66,0,0,12.49-.7,17.09,9.62C155.5,201.57,145,185.92,145,185.92Z"/><g class="cls-36"><path class="cls-37" d="M53.21,156.65s9.11-20.74,30-15.85c33.88,7.92,26.47,48.16,57.64,47.36L136,197,74.33,193.7l-27-22.77Z"/><ellipse class="cls-38" cx="131.87" cy="132.4" rx="12.02" ry="4.24" transform="translate(-10.58 253.35) rotate(-85.45)"/><path class="cls-38" d="M123.92,141.3c-1.2-.05-1.77-2.8-1.78-5.32s.65-4.12,1.73-3.8c.84.26,1.54,2.11,1.56,4.62S124.76,141.33,123.92,141.3Z"/><ellipse class="cls-38" cx="126.2" cy="145.37" rx="0.87" ry="2.16" transform="matrix(1, -0.07, 0.07, 1, -9.18, 8.51)"/></g><path class="cls-39" d="M145,185.92c-26.6,15.57-58.11,6.78-71-2.7-38-28-15.66-90.65,29-85.24,46.51,5.63,26.67,56.94,24.94,72.8s14.79,8.91,14.79,8.91-6.1-18.42,11.16-22.31c0,0,7.68,13.36-2.21,21.66,0,0,12.49-.7,17.09,9.62C155.5,201.57,145,185.92,145,185.92Z"/><path class="cls-34" d="M123.17,144.54s11.06-12.28,32.39-10.17c0,0-2.45,25.31-31.43,19.11"/><path class="cls-35" d="M122.72,144.14a31.74,31.74,0,0,1,7.11-5.42,40.28,40.28,0,0,1,8.16-3.56c.71-.24,1.44-.39,2.15-.59a20.75,20.75,0,0,1,2.18-.49l2.2-.4,2.22-.24c1.48-.21,3-.15,4.46-.22s3,.13,4.46.18a.91.91,0,0,1,.87.95v.11h0a24.54,24.54,0,0,1-1.34,5.32,25.83,25.83,0,0,1-2.35,4.92,21.34,21.34,0,0,1-7.77,7.56,23.63,23.63,0,0,1-10.41,2.85,39.19,39.19,0,0,1-10.65-1,.64.64,0,0,1,.27-1.26,37.58,37.58,0,0,0,10.29.81,22.1,22.1,0,0,0,9.7-2.8,19.56,19.56,0,0,0,7.06-7.08,25.36,25.36,0,0,0,3.28-9.51h0l.87,1.06c-1.43-.09-2.86-.24-4.29-.27s-2.87-.05-4.29.13l-2.14.18-2.12.35a18.58,18.58,0,0,0-2.1.42c-.7.18-1.41.31-2.09.53a39.39,39.39,0,0,0-7.93,3.26,30.54,30.54,0,0,0-6.89,5l0,0a.61.61,0,0,1-.85,0A.6.6,0,0,1,122.72,144.14Z"/><path class="cls-40" d="M107.26,100.5c-1.6-11.79-5.57-40.85-5.57-40.85S95.54,88.44,93.3,99.33c-.7,3.37,7,4.24,7,4.24S107.7,104.4,107.26,100.5Z"/><path class="cls-41" d="M106.72,98c-1.4.24-8,.7-12-4.34"/><path class="cls-41" d="M105.47,87.33A13.19,13.19,0,0,1,96.6,84"/><path class="cls-41" d="M103.94,76.15a13.12,13.12,0,0,1-5.29-1.88"/><path class="cls-42" d="M107.26,100.5c-1.6-11.79-5.57-40.85-5.57-40.85S95.54,88.44,93.3,99.33"/><path class="cls-43" d="M83.7,118.45l11.75,1.15s-1.19,9.11-8.36,8.22C81.25,127.1,83.7,118.45,83.7,118.45Z"/><g class="cls-44"><path class="cls-45" d="M96.38,122.1s-11.1-1.78-15.28,5.36L91.41,130Z"/></g><path class="cls-46" d="M71.47,118.14c.35-2.31,1.91-4,3.47-3.75s2.54,2.31,2.18,4.61"/><path class="cls-46" d="M103.12,123.19c.41-2.67,2.17-4.62,3.94-4.35s2.88,2.66,2.47,5.33"/><polygon class="cls-2" points="160.22 201.88 159.22 199.14 158.5 199.14 157.48 201.87 156.5 199.14 155.69 199.14 157.04 202.83 157.87 202.83 158.84 200.29 159.79 202.83 160.63 202.83 161.99 199.14 161.22 199.14 160.22 201.88"/><path class="cls-2" d="M165.05,199.34a1.9,1.9,0,0,0-1-.24,2,2,0,0,0-1,.24,1.82,1.82,0,0,0-.68.67,2,2,0,0,0-.24,1,1.91,1.91,0,0,0,.25,1,1.83,1.83,0,0,0,.71.67,2.32,2.32,0,0,0,1.08.24,2.35,2.35,0,0,0,.86-.15,1.49,1.49,0,0,0,.62-.45l-.46-.53a1.37,1.37,0,0,1-1,.4,1.29,1.29,0,0,1-.8-.24,1,1,0,0,1-.4-.65h2.9c0-.11,0-.19,0-.25a2,2,0,0,0-.24-1A1.58,1.58,0,0,0,165.05,199.34Zm-2,1.35a1.12,1.12,0,0,1,.35-.66,1.07,1.07,0,0,1,.71-.24,1,1,0,0,1,1,.9Z"/><path class="cls-2" d="M169.8,199.33a2.07,2.07,0,0,0-1-.23,1.76,1.76,0,0,0-.66.12,1.46,1.46,0,0,0-.52.37V197.7h-.87v5.13h.83v-.47a1.38,1.38,0,0,0,.53.39,1.73,1.73,0,0,0,.69.13,2.07,2.07,0,0,0,1-.23,1.8,1.8,0,0,0,.67-.67,2,2,0,0,0,.24-1,2,2,0,0,0-.24-1A1.8,1.8,0,0,0,169.8,199.33Zm-.28,2.49a1,1,0,0,1-.78.32,1.13,1.13,0,0,1-.56-.14,1.05,1.05,0,0,1-.4-.41,1.16,1.16,0,0,1-.14-.6,1.2,1.2,0,0,1,.14-.61,1.05,1.05,0,0,1,.4-.41,1.13,1.13,0,0,1,.56-.14,1,1,0,0,1,.78.32,1.28,1.28,0,0,1,0,1.67Z"/><path class="cls-2" d="M173.63,199.1a1.94,1.94,0,0,0-.7.12,1.4,1.4,0,0,0-.53.35V197.7h-.87v5.13h.87V201a1.16,1.16,0,0,1,.27-.82,1,1,0,0,1,.76-.29.82.82,0,0,1,.65.25,1,1,0,0,1,.23.73v2h.86v-2.11a1.64,1.64,0,0,0-.42-1.22A1.55,1.55,0,0,0,173.63,199.1Z"/><rect class="cls-2" x="176.27" y="199.14" width="0.86" height="3.7"/><path class="cls-2" d="M176.71,197.49a.57.57,0,0,0-.4.15.51.51,0,0,0,0,.74.57.57,0,0,0,.4.15.5.5,0,0,0,.39-.16.49.49,0,0,0,.16-.38.46.46,0,0,0-.16-.36A.58.58,0,0,0,176.71,197.49Z"/><path class="cls-2" d="M180.37,199.1a1.92,1.92,0,0,0-.74.13,1.5,1.5,0,0,0-.54.39v-.48h-.82v3.69h.87V201a1.16,1.16,0,0,1,.27-.82,1,1,0,0,1,.76-.29.84.84,0,0,1,.65.25,1,1,0,0,1,.23.73v2h.86v-2.11a1.64,1.64,0,0,0-.42-1.22A1.55,1.55,0,0,0,180.37,199.1Z"/><path class="cls-2" d="M184.51,202.17a.53.53,0,0,1-.39-.14.63.63,0,0,1-.13-.41v-1.76h1v-.69h-1v-.85h-.86v.85h-.61v.69h.61v1.78a1.22,1.22,0,0,0,.33.92,1.28,1.28,0,0,0,.94.32,1.7,1.7,0,0,0,.46-.06.87.87,0,0,0,.37-.19L185,202A.76.76,0,0,1,184.51,202.17Z"/><path class="cls-2" d="M186.29,201.73a.56.56,0,0,0-.4.16.57.57,0,0,0-.17.42.57.57,0,0,0,.17.41.58.58,0,0,0,.8,0,.57.57,0,0,0,.17-.41.61.61,0,0,0-.16-.42A.6.6,0,0,0,186.29,201.73Z"/><path class="cls-2" d="M188.14,197.49a.57.57,0,0,0-.4.15.51.51,0,0,0,0,.74.57.57,0,0,0,.4.15.54.54,0,0,0,.4-.16.52.52,0,0,0,.15-.38.46.46,0,0,0-.16-.36A.58.58,0,0,0,188.14,197.49Z"/><rect class="cls-2" x="187.7" y="199.14" width="0.86" height="3.7"/><path class="cls-2" d="M193.08,200a1.74,1.74,0,0,0-.7-.67,2.27,2.27,0,0,0-2,0,1.74,1.74,0,0,0-.7.67,1.88,1.88,0,0,0-.25,1,1.91,1.91,0,0,0,.25,1,1.81,1.81,0,0,0,.7.67,2.27,2.27,0,0,0,2,0,1.81,1.81,0,0,0,.7-.67,1.91,1.91,0,0,0,.25-1A1.88,1.88,0,0,0,193.08,200Zm-.93,1.81a1,1,0,0,1-.79.32,1,1,0,0,1-.78-.32,1.28,1.28,0,0,1,0-1.67,1,1,0,0,1,.78-.32,1.07,1.07,0,0,1,.79.32,1.28,1.28,0,0,1,0,1.67Z"/></svg>