<svg xmlns="http://www.w3.org/2000/svg" xmlns:xlink="http://www.w3.org/1999/xlink" viewBox="0 0 252 252"><defs><style>.k,.n,.z{fill:none}.m{fill:#fff}.l{fill:#9593c1}.k{stroke:#592d10;stroke-width:1.62px}.k,.v{stroke-linecap:round;stroke-linejoin:round}.u{stroke-width:1.6}.a{fill:#96a3e2}.w{fill:#1c418c}.b{fill:#6b7fc6}.c{fill:#060b1c}.d{fill:#2b5599}.e{fill:#b2794b}.f{fill:#9b633d}.g{fill:#844d2f}.h{fill:#836396}.i{fill:#604772}.j{fill:#9679aa}.y{stop-color:#ffdb80}</style><clipPath id="f"><rect class="n" x="23.8" y="81.3" width="204.5" height="135.4" rx="8.6" ry="8.6"/></clipPath><linearGradient id="a" x1="125.9" x2="125.9" y1="74.6" y2="183.3" gradientUnits="userSpaceOnUse"><stop stop-color="#5f94c4" offset="0"/><stop stop-color="#80b9d8" offset=".3"/><stop stop-color="#f2a85f" offset="1"/></linearGradient><radialGradient id="c" cx="82.5" cy="178.9" r="63.1" gradientUnits="userSpaceOnUse"><stop class="y" offset="0"/><stop class="y" stop-opacity="0" offset="1"/></radialGradient><linearGradient id="d" x1="125.9" x2="125.9" y1="252.6" y2="185.3" xlink:href="#a"/><radialGradient id="b" cx="20.9" cy="194.9" r="102.1" gradientUnits="userSpaceOnUse"><stop class="y" stop-opacity=".6" offset="0"/><stop class="y" stop-opacity="0" offset="1"/></radialGradient><clipPath id="e"><path class="n" d="M81.4 184.6s55.2 12 75.9-20.3c32.2-50.6-9.4-75-9.4-75-25.8-10.4-54.3 15-54.3 15-15.9 18.5-5.1 38-.7 54 5.4 19.3-11.5 17-11.5 17s2.3-16.9-18.7-17.8c0 0-1.5 18.3 9.6 21 0 0-11.5 1-12 19.2 0 0 18.5 3.2 21-13.1z"/></clipPath></defs><path class="m" d="M219.7 75.6h-8.5V62.3a7 7 0 0 0-6.6-7V36.9a7.2 7.2 0 0 0-14.4 0v18.4a7 7 0 0 0-6.6 7v13.3H32.3a14.2 14.2 0 0 0-14.2 14.2v118.3a14.2 14.2 0 0 0 14.2 14.2h187.4a14.2 14.2 0 0 0 14.2-14.2V89.8a14.2 14.2 0 0 0-14.2-14.2z"/><path class="m" d="M83.9 194.8l-.9 1a19.9 19.9 0 0 1-3.6 3.4 26.8 26.8 0 0 1-15.5 4.5 29.3 29.3 0 0 1-4.8-.3 6.8 6.8 0 0 1-5.6-7c0-4.4 1-13 6.3-19.2l.5-.5-.4-.6a27.2 27.2 0 0 1-3.3-8.8 43.8 43.8 0 0 1-.8-11.4 6.8 6.8 0 0 1 6.8-6.3h.3c9 .4 15.8 3.3 20.2 8.7l.3.4 1 1.2.7-1.4a6.1 6.1 0 0 1 .4-.7l.3-.4-.2-.5-1.8-5.6-1.7-5.2v-.3l-.2-.1a23 23 0 0 1-6.2-15 31 31 0 0 1 0-6.4l.2-.9-.9-.2-2.4-.6c-7.5-2-11.5-5.5-12-10.5-.6-7.8 8.5-12.6 15.4-15.5a6.9 6.9 0 0 1 2.4-.6h.8l3.1-1.6.8-.3-.3-1.5h.2v-1c-1-7-.9-13 .2-17.4a9.3 9.3 0 0 1 9.6-7.5h1.6c3.8 0 6.6-.9 8.3-2.8l1.5-1.6c3.9-4.1 8.7-9.3 15-9.3a11 11 0 0 1 6.3 2 49.5 49.5 0 0 1 14.2 16.3c.8 1.5 1.8 4 2.6 5.7l.7 1.6.3.6H178l-7.6 9.1a52.7 52.7 0 0 1-5.4 5.3l-.7.6.6.7a55 55 0 0 1 6.3 10l.1.3.3.2a6.8 6.8 0 0 1 3 3.6l1.2 3.2a6.9 6.9 0 0 1-.1 4.9l-.3.7v.3a54 54 0 0 1 .1 17.2v.4l.2.3a20.7 20.7 0 0 1 1.6 3c2.8 6.7 1.8 15.2-3 26v.2a43.4 43.4 0 0 1-1.2 4.8 7 7 0 0 1-3 3.8h-.1l-.2.3a168.5 168.5 0 0 1-15.4 22.4l-1.4 1.7-61.2 8.8z"/><g clip-path="url(#f)"><path d="M16.6 71.6h218.6v112.2H16.6z" fill="url(#a)"/><circle cx="82.5" cy="179" r="63.1" fill="url(#c)"/><g fill="#6c4284"><path d="m218.3 115.7h13.2v40.8h-13.2zm-39.7 32.6h-12.7v15.3h-10.7v12.5h-6.5v5.6h-9.1v2.1h34.6v-3.5h8.3v-2.7h10.4v-43h-14.3v13.7z" opacity=".3"/><path d="M58.8 166.5V164h-2.5v-4.8h-1V157h-1.8c-1-.4-1-6.1-1-6.1l.9-.6a22 22 0 0 0-.3-5.9l.9-.3s-.9-6.7-.7-7.4.5-.8.5-.8c2-.4 1.4-3.9 1.4-3.9s.3 0 1.8-1.3.6-2.4.6-2.4l.9-1.8-3.3-1.7-1.3 1.5-1.5-1.4c-.5-3.5-2.4-4.2-2.4-4.2l-1.6-2.5c1-1 .4-3.4.3-3.7l2.9-.1-2.8-.6a1.6 1.6 0 0 0 0-.3l2.7-1-3 .4a1.7 1.7 0 0 0-.4-.4l1.8-2.1-2.3 1.7a3 3 0 0 0-1-.2l-.4-2.7-.3 2.7a3.1 3.1 0 0 0-1 .3l-2.4-1.8 1.8 2.2a2.2 2.2 0 0 0-.3.4l-2.8-.1a28.4 28.4 0 0 1-.8-7.1 2.3 2.3 0 0 0-.6-2.6l.2-1.4h.7l.2-2.3h-1.4c2.4-1.4-.3-4-.3-4s.1.7-1.1 2c-.9 1-.6 1.6-.3 2h-1l.2 2.3h.7l.3 1.2a5.4 5.4 0 0 0 .1 2.7 29.6 29.6 0 0 0 1 9s-1.3 3-.5 5.3l.6-.2a4.5 4.5 0 0 0 0 1.7l.7.4a1.8 1.8 0 0 0 0 1.6c.5.7-.3 1.2-.3 1.2s1.4 1.7 1 3-2.2 5.3 0 5c0 0-1 3-.6 4.7a56.5 56.5 0 0 1 .6 5.8s-.8 2.3-.2 7.5c0 0 .7 6-1.4 6.3h-1.2v2.2H37v4.9h-2.5v2.3H36v15h-1.5v2.3h24.4v-2.3h-1.5v-15zM43.2 117a5.8 5.8 0 0 1-.8-2.4h1.3l-.5 2.4zm.5-3.3a2.4 2.4 0 0 0 0 .3l-1.3.2-.8-.2-.3-1z" opacity=".6"/></g><path d="M237.4 130.5H224v18.4h-3.3v-7.8h-7v-17.3h-14v46h10.7v14h27v-53.3zm-66.2 40.8h-9.6v12.5h26.1v-23h-16.5v10.5z" fill="#61586d"/><path d="M16.6 183.8h218.6v45H16.6z" fill="#bdbad8"/><path class="l" d="M58.6 183.8H34.5s-11.4 5.4 4.2 8.1c0 0-10.7 4 4 6 0 0-7 3.8 3.7 4.2h.4c10.6-.4 3.6-4.1 3.6-4.1 14.7-2 4-6 4-6 15.6-2.8 4.2-8.2 4.2-8.2z"/><ellipse class="l" cx="41.6" cy="204.9" rx="4.3" ry="1.5"/><ellipse class="l" cx="49.6" cy="207.7" rx="2.3" ry=".9"/><ellipse class="l" cx="45" cy="209.3" rx="1.6" ry=".7"/><ellipse class="l" cx="147.7" cy="207" rx="5.3" ry="1.9"/><ellipse class="l" cx="138.3" cy="212.4" rx="2.9" ry="1"/><ellipse class="l" cx="146.3" cy="213.1" rx="1.7" ry=".6"/><path class="l" d="M238 211.3s4.4 4-17 5.3c0 0-2 3.3-10.2 3.5h-.8c-8.1-.2-10.1-3.5-10.1-3.5-20.5-1.3-21.7-5-21.7-5-32.1-3-15.7-8.1-15.7-8.1-33.5-6.7-3.6-8.7-3.6-8.7 8-4.8-13.3-5-13.3-5l64.4 1.5h28.4z"/><ellipse class="l" cx="221.2" cy="214.6" rx="1.6" ry=".5"/><path class="l" d="M139.6 183.8s2.2 2.7 10 4c0 0-7.2.8-7.2 2.6 0 1.7 5.4 4.5 25.5 6 11.9 1 62.6-1 62.6-1v-11.6z"/><ellipse class="l" cx="177.2" cy="214.2" rx="26.2" ry="5.9"/><path d="M16.6 183.8h218.6v45H16.6z" fill="url(#d)" opacity=".2"/><circle cx="20.9" cy="194.9" r="102.1" fill="url(#b)"/></g><path class="m" d="M77.7 218.9s-3.2-10.3.5-12.2 6.8 5.7 6.8 5.7 4-13.3 12.8-12.6c5.9.6-3.4 12-3.4 12s12.4-8.2 11.8-3.3c-.8 5.8-7 10.4-7 10.4zm34.6-17.6c-1 1.6-3 3-3.7 2.5s-.7-2.6.2-4.4c.8-1.4 2.2-2.2 3.1-1.6s1.2 2 .4 3.4zm4.2 4.4c-.9.7-2.2 1-2.5.6s.2-1.6 1-2.3c.8-.6 1.7-.7 2-.2s.2 1.3-.5 2z"/><path class="u v" d="M79 103.8c-.4.2-22.3 8.8-4.6 13.3s28.1 2.6 28.1 2.6l-4.4-17.5z" fill="#66391b" stroke="#592d10"/><path class="a" d="m157.7 130.6s16 17.3 8.9 38.3c0 0-19-2.7-17.8-31"/><path class="w" d="M158.2 130.2a46.4 46.4 0 0 1 6 8.5 45.3 45.3 0 0 1 3.8 9.7c.2.9.5 1.7.6 2.6l.4 2.6c.2.8.2 1.7.2 2.6l.1 1.3v1.3l-.1 2.7-.4 2.6-.2 1.3-.3 1.2-.8 2.6a1 1 0 0 1-1 .6 20.4 20.4 0 0 1-9.1-4.5 24.3 24.3 0 0 1-6-8l-1-2.3-.8-2.4-.4-1.2-.2-1.2-.5-2.5-.4-4.9v-5a.7.7 0 0 1 .7-.6.7.7 0 0 1 .7.7v4.8l.5 4.8.5 2.3.2 1.2.4 1.1.7 2.3 1 2.1a22.4 22.4 0 0 0 5.7 7.4l1 .7 1 .7a20.3 20.3 0 0 0 2 1.1 17 17 0 0 0 4.2 1.5l-1 .6.6-2.4.4-1.1.2-1.3.4-2.4.2-2.5v-2.5c-.1-.9 0-1.7-.2-2.5l-.4-2.5-.5-2.5a43.9 43.9 0 0 0-3.6-9.3 45.7 45.7 0 0 0-5.6-8.4.7.7 0 0 1 0-1 .7.7 0 0 1 1 0z"/><path class="a" d="M81.4 184.6s55.2 12 75.9-20.3c32.2-50.6-9.4-75-9.4-75-25.8-10.4-54.3 15-54.3 15-15.9 18.5-5.1 38-.7 54 5.4 19.3-11.5 17-11.5 17s2.3-16.9-18.7-17.8c0 0-1.5 18.3 9.6 21 0 0-11.5 1-12 19.2 0 0 18.5 3.2 21-13.1z"/><g clip-path="url(#e)"><path d="m84 185.1s30.2 2.2 43.6-25.7c11.8-24.7 38-32.4 44.3-17 7 16.7-22 51.3-22 51.3l-55 8z" fill="#bbc6ef"/><path class="b" d="m93.6 130.2c0 7.8-2.5 13.4-4.8 13.4-3.2 0-6.4-5.2-7-12.3s1.5-12.5 4.7-13.4c4.7-1.3 7 5.2 7 12.3z"/><ellipse class="b" cx="100" cy="130.9" rx="2.6" ry="4.8"/><ellipse class="b" transform="rotate(-74.2 98 142)" cx="98" cy="142" rx="2.4" ry="1.6"/></g><circle class="c" cx="118.4" cy="119.2" r="3.8"/><circle class="m" cx="117" cy="118.4" r="1.3"/><path class="d" d="M120.5 119.1a.8.8 0 0 0-1 .6 1.3 1.3 0 0 1-1 1 .8.8 0 0 0-.6.8.8.8 0 0 0 .9.7 2 2 0 0 0 .4-.1 2.8 2.8 0 0 0 1.9-2 .8.8 0 0 0-.6-1z"/><circle class="c" cx="154.2" cy="107.8" r="3.8"/><circle class="m" cx="152.8" cy="107" r="1.3"/><path class="d" d="M156.3 107.7a.8.8 0 0 0-1 .5 1.3 1.3 0 0 1-1 1 .8.8 0 0 0-.7.9.8.8 0 0 0 1 .7 3 3 0 0 0 .3-.1 2.9 2.9 0 0 0 2-2 .8.8 0 0 0-.6-1z"/><g stroke="#1c418c"><path class="v z" d="M133.7 115s2 4.7 8 3m-28.9-1.3l9.4-2.9-.8-1.5m27.5-10.8l5.3-2" stroke-width="1.5"/><path class="u v z" d="M81.4 184.6s55.2 12 75.9-20.3c32.2-50.6-9.4-75-9.4-75-25.8-10.4-54.3 15-54.3 15-15.9 18.5-5.1 38-.7 54 5.4 19.3-11.5 17-11.5 17s2.3-16.9-18.7-17.8c0 0-1.5 18.3 9.6 21 0 0-11.5 1-12 19.2 0 0 18.5 3.2 21-13.1z"/></g><path class="e" d="M138.7 84l27.3 1.5s-19.1 22.7-51.3 20.2c-31.6-2.5-42.6 2.5-45.7 4.6a84.2 84.2 0 0 1 21-11.6l.4 1.8s39.3-4.3 48.3-16.5z"/><path d="m134.6 75.3a54.5 54.5 0 0 1 4 8.7c-9 12.2-48.2 16.5-48.2 16.5l-0.4-2.4-0.7-3.7s10-3.8 21-8.3c6.7-2.7 13.7-5.7 19.3-8.3l5-2.5z" fill="#7f4b28"/><path class="f" d="M96.7 84.4c.5 0 1 .8 1 1.7s-.5 1.8-1 1.8-1-.8-1-1.8.4-1.7 1-1.7z"/><path class="e" d="M96.7 84.4c-.6 0-1 .8-1 1.7s.4 1.8 1 1.8 1-.8 1-1.8-.5-1.7-1-1.7zM93.2 86c1 0 1.8-1.5 1.8-3.4s-.8-3.5-1.8-3.5-1.9 1.5-1.9 3.5.9 3.4 1.9 3.4zm36.4-8.3a835.7 835.7 0 0 1-40.3 16.6 50.9 50.9 0 0 1-.2-17.7c.3-1.3.8-3.2 4.2-3 3.6.1 9.6-.2 13.9-4.6s9.8-11.8 15-8.2c5.6 4 9.7 9.6 12.4 14.4l-5 2.5z"/><path class="f" d="M95 82.7c0 1.9-.8 3.4-1.8 3.4s-1.9-1.5-1.9-3.4.8-3.5 1.9-3.5 1.8 1.5 1.8 3.5z"/><path class="e" d="m68.8 110.4-0.9 0.8a4.7 4.7 0 0 1 1-0.8z"/><path class="k" d="M69 110.3a84.2 84.2 0 0 1 21-11.6V98l-.7-3.7a50.9 50.9 0 0 1-.2-17.7c.3-1.3.8-3.2 4.2-3 3.6.1 9.6-.2 13.9-4.6s9.8-11.8 15-8.2c5.6 4 9.7 9.6 12.4 14.4a54.5 54.5 0 0 1 4 8.7l27.4 1.5s-19.1 22.7-51.3 20.2c-31.6-2.5-42.6 2.5-45.7 4.6m-1.1 1l.9-.8m0 0a4.7 4.7 0 0 0-.9.8m.9-.8h.1"/><path class="k" d="m89.4 94.3s9.8-3.7 20.9-8.2a415.9 415.9 0 0 0 24.3-10.8m4.1 8.7c-9 12.2-48.3 16.5-48.3 16.5l-0.4-2.4v-0.1m24-28s0 11.2-3.7 16.1m10.1-17.9s3.8 8.3 9.2 9.5"/><path class="u v" d="M168.4 112.3s-31 78-77 50.2l.3 3.7s42.9 33.2 77.8-50.7z" fill="#844d2f" stroke="#592d10"/><path class="k" d="m90.8 182.6-2.1 7.1 12.6 3.3 3.8-1.2 6-21.4-2.7-2.3-12.2-2.3-5.4 16.8z"/><path class="g" d="m90.8 182.6-2.1 7.1 12.6 3.3 3.8-1.2 6-21.4-2.7-2.3-12.6-1.9-5 16.4z"/><path d="m108.4 168.1s-5.2 14.7-7.2 25.2l4-1.5 6-21.4z" fill="#773f2c"/><path class="k" d="m90.8 182.6-2.1 7.1 12.6 3.3 3.8-1.2 6-21.4-2.7-2.3-12.6-1.9-5 16.4z"/><path class="g" d="m107 170.6s-6 9.1-7.6 17.5a80.1 80.1 0 0 1-12.7-3 89.6 89.6 0 0 1 9-18.2"/><path d="M107.3 170.9a68.8 68.8 0 0 0-4.3 8.4 43 43 0 0 0-2.8 9 .8.8 0 0 1-.9.6 77.2 77.2 0 0 1-12.8-3 .8.8 0 0 1-.5-1 92.5 92.5 0 0 1 4-9.4 77 77 0 0 1 5-9 .8.8 0 0 1 1.1-.2.8.8 0 0 1 .2 1.1 74.8 74.8 0 0 0-4.9 8.8 93.6 93.6 0 0 0-3.9 9.2l-.5-1q3 1 6.2 1.7c2 .5 4.2 1 6.3 1.2l-.9.7a44.5 44.5 0 0 1 3.2-9.2 70.6 70.6 0 0 1 4.7-8.4.5.5 0 0 1 .6-.1.5.5 0 0 1 .2.6z" fill="#592d10"/><path class="a" d="m125.9 152.7s13.4 21.6 1.6 42.2c0 0-19.6-6.7-12.6-36.3"/><path class="w" d="M126.4 152.4a49.5 49.5 0 0 1 4.5 10.2 48.3 48.3 0 0 1 2.1 11l.2 2.8-.1 2.9-.3 2.8-.2 1.4-.3 1.3-.7 2.8-1 2.7c0 .4-.2.9-.4 1.3l-.6 1.3-1.3 2.5a1 1 0 0 1-1.2.5 22 22 0 0 1-8.6-6.7 26 26 0 0 1-4.7-9.7l-.6-2.6-.3-2.6-.2-1.4v-4l.6-5.3 1-5.2a.6.6 0 0 1 .7-.5.7.7 0 0 1 .5.8l-1 5c0 1.8-.2 3.5-.3 5.2v3.9l.1 1.3.3 2.5.6 2.5a24.2 24.2 0 0 0 4.6 9l.8 1 1 .8a19.8 19.8 0 0 0 1.8 1.6 18.3 18.3 0 0 0 4.3 2.5l-1.2.4 1.2-2.4.6-1.2.5-1.2 1-2.5.6-2.7.3-1.3.2-1.3.4-2.7.1-2.7v-2.7a47 47 0 0 0-1.8-10.7 48.8 48.8 0 0 0-4.2-10 .6.6 0 0 1 .2-.8.6.6 0 0 1 .8.2z"/><path class="h" d="M187.9 72.5h18.7V86h-18.7zM186.6 86H208v52.7h-21.4zm-1.8 52.7h25v33.1h-25z"/><path class="i" d="M187.9 72.5h18.7v1.6h-18.7zM186.6 86H208v1.6h-21.4zm-1.8 52.7h25v1.6h-25z"/><path d="m184.9 146.8h8.2v25h-8.2zm16.7 0h8.2v25h-8.2z" fill="#6c527f"/><path class="h" d="m180.3 151.7h4.6v20.1h-4.6z"/><path class="i" d="m180.3 151.7h4.6v1.6h-4.6z"/><path class="h" d="m209.7 151.7h4.6v20.1h-4.6z"/><path class="i" d="m209.7 151.7h4.6v1.6h-4.6z"/><path class="h" d="m174.1 171.8h46.5v8.7h-46.5z"/><path class="i" d="m174.1 171.8h46.5v1.6h-46.5z"/><path class="h" d="m189.2 66.4h16.2v6.1h-16.2z"/><path class="i" d="m190.4 62h13.8v4.4h-13.8z"/><path class="h" d="M193.4 59.9h7.8V62h-7.8z"/><path class="i" d="m194.7 56.6h5.3v3.3h-5.3z"/><path class="h" d="m195.2 54.4h4.3v2.2h-4.3z"/><path class="i" d="m195.5 45.6h3.6v8.8h-3.6z"/><path class="h" d="m196.1 42h2.4v3.6h-2.4z"/><path class="i" d="M198.5 42h-2.4l.7-1.3h1l.7 1.3zm-1.5-7.2h.6v5.9h-.6z"/><path class="j" d="M189 74.5h1.9v10.4H189zm3 0h1.9v10.4H192zm2.9 0h1.9v10.4h-1.9zm2.9 0h1.9v10.4h-1.9zm2.9 0h1.9v10.4h-1.9zm3 0h1.9v10.4h-1.9zm-16.1 13.7h1.7v20.4h-1.7zm2.2 0h1.7v20.4h-1.7zm2.2 0h1.7v20.4H192zm2.3 0h1.7v20.4h-1.7zm2.3 0h1.7v20.4h-1.7zm2.2 0h1.7v20.4h-1.7zm2.3 0h1.7v20.4h-1.7zm2.2 0h1.7v20.4h-1.7zm2.2 0h1.7v20.4h-1.7zm-17.9 22.2h1.7v27.4h-1.7zm2.2 0h1.7v27.4h-1.7zm2.2 0h1.7v27.4H192zm2.3 0h1.7v27.4h-1.7zm2.3 0h1.7v27.4h-1.7zm2.2 0h1.7v27.4h-1.7zm2.3 0h1.7v27.4h-1.7zm2.2 0h1.7v27.4h-1.7zm2.2 0h1.7v27.4h-1.7zm-15.6-40.7h1.6v2.9h-1.6zm2.6 0h1.6v2.9h-1.6zm7.8 0h1.6v2.9h-1.6zm2.6 0h1.6v2.9h-1.6zm-8-2.7h1.9v5.6h-1.9zm2.7 0h1.9v5.6h-1.9z"/><path d="m196.6 46.2h1.4v7.3h-1.4z" fill="#836396" opacity=".5"/><path class="j" d="m186.4 141.6h1.3v4h-1.3zm2.4 0h1.3v4h-1.3zm2.4 0h1.3v4h-1.3z"/><path class="h" d="M186 147.9h1.3v22.8H186zm2.4 0h1.3v22.8h-1.3zm2.4 0h1.3v22.8h-1.3zm11.9 0h1.3v22.8h-1.3zm2.4 0h1.3v22.8h-1.3zm2.3 0h1.3v22.8h-1.3z"/><path class="j" d="M194.3 141.6h1.3v29.1h-1.3zm2.4 0h1.3v29.1h-1.3zm2.4 0h1.3v29.1h-1.3zm3.2 0h1.3v4h-1.3zm2.4 0h1.3v4h-1.3zm2.4 0h1.3v4h-1.3zM182 154.9h1.3v15.8H182zm-6.2 19.5h1.3v2.6h-1.3zm2.6 0h1.3v2.6h-1.3zm2.6 0h1.3v2.6H181zm2.6 0h1.3v2.6h-1.3zm2.6 0h1.3v2.6h-1.3zm2.6 0h1.3v2.6h-1.3zm2.6 0h1.3v2.6h-1.3zm2.6 0h1.3v2.6H194zm2.6 0h1.3v2.6h-1.3zm2.7 0h1.3v2.6h-1.3zm2.5 0h1.3v2.6h-1.3zm2.6 0h1.3v2.6h-1.3zm2.7 0h1.3v2.6h-1.3zm2.6 0h1.3v2.6h-1.3zm2.6 0h1.3v2.6h-1.3zm2.6 0h1.3v2.6h-1.3zm2.6 0h1.3v2.6h-1.3zm-41.7 4h1.3v2.1h-1.3zm2.6 0h1.3v2.1h-1.3zm2.6 0h1.3v2.1H181zm2.6 0h1.3v2.1h-1.3zm2.6 0h1.3v2.1h-1.3zm2.6 0h1.3v2.1h-1.3zm2.6 0h1.3v2.1h-1.3zm2.6 0h1.3v2.1H194zm2.6 0h1.3v2.1h-1.3zm2.7 0h1.3v2.1h-1.3zm2.5 0h1.3v2.1h-1.3zm2.6 0h1.3v2.1h-1.3zm2.7 0h1.3v2.1h-1.3zm2.6 0h1.3v2.1h-1.3zm2.6 0h1.3v2.1h-1.3zm2.6 0h1.3v2.1h-1.3zm2.6 0h1.3v2.1h-1.3zm-6.2-23.5h1.3v15.8h-1.3z"/><path class="m" d="M179.3 208.7l-1.2-3.4h-.9l-1.2 3.4-1.2-3.4h-1l1.6 4.5h1.1l1.1-3.1 1.2 3.1h1l1.7-4.5h-1l-1.2 3.4zm5.9-3.1a2.3 2.3 0 0 0-1.2-.3 2.5 2.5 0 0 0-1.2.3 2.2 2.2 0 0 0-.8.8 2.3 2.3 0 0 0-.3 1.2 2.3 2.3 0 0 0 .3 1.2 2 2 0 0 0 .9.8 2.8 2.8 0 0 0 1.3.3 2.7 2.7 0 0 0 1-.2 1.9 1.9 0 0 0 .8-.5l-.5-.7a1.6 1.6 0 0 1-1.3.5 1.6 1.6 0 0 1-1-.3 1.3 1.3 0 0 1-.5-.8h3.6a2 2 0 0 0 0-.3 2.5 2.5 0 0 0-.3-1.2 2 2 0 0 0-.8-.8zm-2.4 1.6a1.2 1.2 0 0 1 1.2-1 1.2 1.2 0 0 1 .9.2 1.3 1.3 0 0 1 .4.8zm8.2-1.6a2.4 2.4 0 0 0-1.2-.3 2 2 0 0 0-.8.1 1.7 1.7 0 0 0-.6.5v-2.3h-1v6.2h1v-.5a1.6 1.6 0 0 0 .6.4 2.3 2.3 0 0 0 .9.2 2.4 2.4 0 0 0 1.2-.3 2 2 0 0 0 .8-.8 2.5 2.5 0 0 0 .3-1.2 2.4 2.4 0 0 0-.3-1.2 2.1 2.1 0 0 0-.9-.8zm-.3 3a1.3 1.3 0 0 1-1 .3 1.3 1.3 0 0 1-.7-.1 1.3 1.3 0 0 1-.5-.5 1.5 1.5 0 0 1-.2-.8 1.5 1.5 0 0 1 .2-.7 1.3 1.3 0 0 1 .5-.5 1.3 1.3 0 0 1 .7-.2 1.3 1.3 0 0 1 1 .4 1.6 1.6 0 0 1 0 2zm5-3.3a2.4 2.4 0 0 0-.9.1 1.7 1.7 0 0 0-.6.4v-2.2h-1v6.2h1v-2.2a1.4 1.4 0 0 1 .3-1 1.3 1.3 0 0 1 1-.4 1 1 0 0 1 .7.3 1.3 1.3 0 0 1 .3.9v2.4h1v-2.6a2 2 0 0 0-.5-1.4 1.9 1.9 0 0 0-1.3-.5zm3.2 0h1.1v4.5h-1.1zm.5-2a.7.7 0 0 0-.4.2.6.6 0 0 0 0 .9.7.7 0 0 0 .4.2.6.6 0 0 0 .5-.2.6.6 0 0 0 .2-.5.6.6 0 0 0-.2-.4.7.7 0 0 0-.5-.2zm4.6 2a2.3 2.3 0 0 0-1 .1 1.7 1.7 0 0 0-.6.5v-.6h-1v4.5h1v-2.3a1.4 1.4 0 0 1 .3-1 1.2 1.2 0 0 1 1-.3 1 1 0 0 1 .7.3 1.3 1.3 0 0 1 .3.9v2.4h1v-2.6a2 2 0 0 0-.5-1.4 1.9 1.9 0 0 0-1.3-.5zm5 3.7a.6.6 0 0 1-.5-.2.7.7 0 0 1-.1-.5v-2.1h1.2v-.8h-1.2v-1h-1v1h-.8v.8h.7v2.2a1.5 1.5 0 0 0 .4 1.1 1.6 1.6 0 0 0 1.2.4 2 2 0 0 0 .5 0 1.2 1.2 0 0 0 .5-.3l-.3-.8a.9.9 0 0 1-.6.2zm2.2-.5a.7.7 0 0 0-.5.2.7.7 0 0 0-.2.5.7.7 0 0 0 .2.5.7.7 0 0 0 .5.2.7.7 0 0 0 .4-.2.7.7 0 0 0 .2-.5.7.7 0 0 0-.2-.5.7.7 0 0 0-.4-.2zm2.2-5.2a.7.7 0 0 0-.5.2.6.6 0 0 0 0 .9.7.7 0 0 0 .5.2.7.7 0 0 0 .5-.2.6.6 0 0 0 .2-.5.6.6 0 0 0-.2-.4.7.7 0 0 0-.5-.2zm-.5 2h1.1v4.5h-1.1zm6.5 1.1a2.2 2.2 0 0 0-.8-.8 2.7 2.7 0 0 0-1.3-.3 2.6 2.6 0 0 0-1.2.3 2.1 2.1 0 0 0-.9.8 2.5 2.5 0 0 0 0 2.4 2 2 0 0 0 1 .8 2.5 2.5 0 0 0 1.1.3 2.6 2.6 0 0 0 1.3-.3 2.1 2.1 0 0 0 .8-.8 2.5 2.5 0 0 0 0-2.4zm-1.1 2.2a1.4 1.4 0 0 1-2 0 1.6 1.6 0 0 1 0-2 1.4 1.4 0 0 1 2 0 1.6 1.6 0 0 1 0 2z"/><path d="M168.7 183.8v-9.3h8.2v3.3h17.6v-10.3H216v3.3h5.3v-11.4h7v24.4h-59.6z" fill="#524960"/></svg>