<svg xmlns="http://www.w3.org/2000/svg" xmlns:xlink="http://www.w3.org/1999/xlink" id="sticker" viewBox="0 0 252 252"><defs><style>.a,.b,.d,.f,.o,.p,.s{fill:none}.r{fill:#fff}.q{opacity:.8}.a,.o,.p{stroke:#c13d8b}.a,.d,.o,.p{stroke-miterlimit:10}.p{stroke-width:3.43px}.o{stroke-width:1.72px}.a{stroke-width:1.98px}.n{fill:#c13d8b}.e{fill:#536596}.b,.d,.f{stroke-width:1.32px}.f{stroke:#2f4b6d}.b,.f,.t{stroke-linecap:round;stroke-linejoin:round}.t{stroke-width:1.32}.g{fill:#96a3e2}.h{fill:#6b7fc6}.b{stroke:#1c418c}.i{fill:#060b1c}.j{fill:#2b5599}.k{fill:#697b9e}.d{stroke:#3d506b}.l{fill:#4700a3}.m{fill:#92b4ea}</style><linearGradient id="l1" x1="126" x2="126" y1="173.19" y2="26.43" gradientUnits="userSpaceOnUse"><stop offset="0" stop-color="#f78e48"/><stop offset="1" stop-color="#f754d4"/></linearGradient><clipPath id="c1"><circle cx="126" cy="126" r="99.67" class="s"/></clipPath><radialGradient id="r1" cx="205.13" cy="150.85" r="44.83" gradientUnits="userSpaceOnUse"><stop offset="0" stop-color="#ffdb80"/><stop offset=".97" stop-color="#ffdb80" stop-opacity="0"/></radialGradient><linearGradient id="l2" x1="126.12" x2="126.12" y1="161.52" y2="238.38" xlink:href="#l1"/><clipPath id="c2"><path d="M7.75 44.85h241.6v113.29H7.75z" class="s"/></clipPath><clipPath id="c3"><path d="M7.7 158.09h241.6v113.29H7.7z" class="s"/></clipPath><clipPath id="c4"><path d="M168.6 156.56s13.25-55.56-31.29-58.28c-36.25-2.24-40.44 35.28-40 50.56.11 3.5.09 12.59-5.92 13.45S81.36 155 81.36 155s10.73-13.9-3.78-24.12c0 0-10.35 10.62-5 18.26 0 0-9.46-2.85-15.56 8.5 0 0 9.43 9.55 20.33 1.57 0 0 6.28 22.57 40.81 22.57s50.44-25.22 50.44-25.22z" class="s"/></clipPath></defs><circle cx="126" cy="126" r="107.42" class="r"/><circle cx="126" cy="126" r="99.67" fill="url(#l1)"/><g clip-path="url(#c1)"><circle cx="205.13" cy="150.85" r="44.83" fill="url(#r1)"/><path fill="url(#l2)" d="M23.11 158.16h206.02v81.49H23.11z"/><path fill="#0da9f7" fill-opacity=".54" d="M23.11 158.16h206.02v81.49H23.11z"/><g clip-path="url(#c2)"><g class="q"><path d="M20.63 141.58s38-15.35 36.35-55.67-15.3-5.76-11.55 6.09c3.82 12 32.23 30.21 50.75 7.82C124.73 65.3 134 66.55 129.71 87.67 126.22 105 119 135.36 68.14 150.52c-36.2 10.8-10.31-25.17-5.92-32 5-7.85 25.56-47.5-34.86-17.55" class="p"/><path d="M83.21 160.24v-50.52l28.91 25.26m-1.51 27.01v-78.3" class="o"/><path d="M53.99 107.59v59.58m-18.39 2.58v-35.21l18.39 29.43" class="a"/><path d="M143.2 163.97l-31.8-81.06M40.07 95.15V163" class="o"/><path d="M48.23 115.59l.3-.49-1.88-1.1.45-.76.44-.78 1.92 1.07.28-.5-1.93-1.06c.28-.51.56-1 .84-1.57l2 1 .25-.51-2-1h.06l.32-.66.57-1.19 2 .9.23-.52-2-.9c.12-.27.25-.54.36-.82l.34-.81 2 .82.21-.53-2-.82.01-.36.5-1.38 2.06.74.2-.54-2.08-.74c.25-.64.45-1.3.64-2l2.11.64.17-.55-2.11-.64.26-.84.24-.86 2.12.56.14-.55-2.12-.56.19-.78.23-.94 2.15.47.12-.56-2.3-.5h.15l.2-1 .18-1 2.17.38.1-.56-2.17-.38.17-.88c.06-.3.07-.58.11-.87l2.17.29.08-.56-2.17-.3.22-1.76 2.18.22.06-.57-2.37-.23h.16c0-.42.06-.83.1-1.25 0-.22 0-.46.05-.69l.51-.08h.31L56.1 89l.56-.09-.31-2h.81v-.34l.91-.12.2 2.18.57-.05-.2-2.2c.63 0 1.34-.08 2.08-.08v2.2h.58v-2.17c.59 0 1.2 0 1.82.12l-.28 2.17.57.07.28-2.17a13.27 13.27 0 0 1 1.83.39L64.88 89l.55.17.81-2.63-.24-.1a20.18 20.18 0 0 0-7.36-.61v.4-.38h-.29c-.94.08-1.91.22-2.89.38h-.43v-1.77h2.19v-.57h-2.19v-1.78h2.19v-.57h-2.37.15v-2.06l2.21-.11v-.58l-2.2.12v-.89l-.08-.88L57 77v-.61l-2.19.19-.16-1.77 2.18-.26-.09-.55-2.74.31.34 3.76c0 .75.07 1.5.1 2.24v5.03c0 .42 0 .74-.06 1.11-1 .19-2 .42-3.1.7l-.28.08a69.11 69.11 0 0 0-6.7 2.15l-.27.1a92.9 92.9 0 0 0-6.45 2.74l-.26.13a91.98 91.98 0 0 0-6.22 3.22l-.24.14A69.74 69.74 0 0 0 25 99.54l.33.46c.55-.39 1.12-.77 1.69-1.15l1.21 1.83.48-.32-1.21-1.83 1.5-.94 1.15 1.87.48-.3-1.14-1.87 1.5-.89 1.1 1.89.49-.28-1.1-1.91c.58-.34 1.18-.66 1.78-1l1 1.94.5-.27-1-1.93 1.53-.84 1 2 .52-.26-1-2c.51-.25 1-.51 1.57-.76l.94 2 .51-.25-.94-2c.61-.29 1.23-.56 1.84-.84l.89 2 .53-.23-.89-2c.54-.24 1.07-.47 1.61-.69l.83 2 .53-.22-.83-2 1.6-.61.77 2 .54-.2-.78-2.06c.65-.24 1.29-.47 1.91-.68l.71 2.07.55-.18-.7-2.04c.57-.19 1.13-.37 1.67-.53l.65 2.09.54-.17-.64-2.09 1.69-.49.57 2.14.55-.15-.57-2.13c.68-.18 1.34-.33 2-.47l.46 2.14.3-.06-.25 2-.17 1.25-.44 2.41-.2 1-.07.26-.3 1.22c-.17.71-.34 1.45-.56 2.15l-.34 1.12c-.22.73-.44 1.48-.72 2.19l.15.06h-.13l-.69 1.9-.68 1.62c-.34.84-.75 1.68-1.14 2.49l-.32.66-.13.24a77 77 0 0 1-1.66 3.06l-.47.78c-.44.72-.88 1.47-1.37 2.17l.09.06-.08-.05-.16.24a58.14 58.14 0 0 1-4.18 5.57l-.18.22a62.39 62.39 0 0 1-4.74 5.05l-.21.19A65.8 65.8 0 0 1 30 131.7l-.22.17a54.4 54.4 0 0 1-5.76 3.78l.28.51 1.74-1 1.15 1.84.49-.31-1.18-1.86.74-.48.73-.5 1.26 1.8.47-.32-1.26-1.8 1.44-1 1.32 1.74.45-.34-1.33-1.76c.54-.41 1.08-.84 1.62-1.28l1.4 1.71.44-.36-1.4-1.71 1.35-1.15 1.46 1.62.43-.38-1.46-1.62q.66-.58 1.32-1.2l1.5 1.59.42-.39-1.52-1.6 1.47-1.4 1.57 1.53.4-.41-1.57-1.53 1.25-1.33 1.62 1.47.38-.42-1.62-1.47c.41-.45.8-.89 1.18-1.34l1.66 1.42.38-.44-1.69-1.42 1.3-1.6 1.74 1.35.35-.45-1.77-1.36c.37-.48.72-1 1.07-1.42l1.78 1.29.33-.47-1.77-1.28 1-1.45 1.83 1.21.31-.48-1.84-1.22c.4-.57.76-1.15 1.11-1.73zM54.37 87v.53l-.06.74-.31-1.16zm13.73 1l-1.21 1.82.48.32 1.2-1.83a6.92 6.92 0 0 1 .78.63 6.64 6.64 0 0 1 .68.72L68.31 91l.36.45 1.71-1.34a8.29 8.29 0 0 1 1 1.73l-2 .75.2.54 2.58-1-.16-.21a8.5 8.5 0 0 0-2.24-3.4 9.7 9.7 0 0 0-3.45-2l-.19.55a9.76 9.76 0 0 1 1.98.93z" class="n"/><path d="M72 94.55l-2.17.19.05.57 2.18-.19v1.85l-2.18-.15v.57l2.18.15c0 .55-.13 1.14-.23 1.8L69.64 99l-.11.56 2.18.39c-.14.66-.3 1.34-.49 2l-2.11-.58-.15.56 2.11.57a52.9 52.9 0 0 1-.52 1.7l-2.07-.7-.18.54 2.07.7-.61 1.66-2-.8-.21.54 2.06.8c-.25.63-.52 1.25-.79 1.88l-2-.88-.23.52 2 .88c-.23.53-.48 1.06-.73 1.6l-2-1-.25.52 2 .94-.83 1.6-2-1-.26.51 2 1c-.31.59-.64 1.19-1 1.78l-1.92-1-.28.51 1.93 1-.85 1.52-1.9-1.08-.29.5 1.9 1.08-.86 1.51-1.89-1.11-.29.49 1.9 1.12-1 1.73-1.88-1.15-.3.49 1.88 1.15c-.32.5-.62 1-.93 1.47l-1.85-1.17-.3.49 1.87 1.16-.94 1.47-1.84-1.19-.31.48 1.85 1.2-1.11 1.68-1.83-1.22-.32.48 1.83 1.22-1 1.43-1.79-1.22-.32.47 1.81 1.2-1 1.43-1.8-1.25-.33.47 2.27 1.57.16-.23c1.44-2.06 2.71-3.95 3.89-5.75l.15-.23c1.11-1.72 2.42-3.76 3.69-5.9l.14-.24c1.2-2 2.34-4.06 3.4-6.11l.13-.25c1.14-2.2 2.1-4.28 2.94-6.38l.11-.27a41 41 0 0 0 2.03-6.86l-.5-.1.48.09v-.29a21.14 21.14 0 0 0 .41-3.7 13.07 13.07 0 0 0-.56-3.82l-.55.17a10.2 10.2 0 0 1 .45 2.2zm31.35-7.72c-.79 1-1.55 2-2.26 2.93l-1 1.35-.11.15c-.35.5-.7 1-1.06 1.46l.3.23-.22-.21-.17.22-.62.84a24.51 24.51 0 0 1-1.56 2l-.34.4a35.5 35.5 0 0 1-2 2.24l.22.23-.21-.21-.2.21a41.19 41.19 0 0 1-5.3 4.65l-.23.17a34.49 34.49 0 0 1-6.06 3.5l-.26.12a29.73 29.73 0 0 1-3.24 1.2l-.36.09c-.43.12-.87.25-1.32.33-.27.06-.54.12-.83.16l-.77.1.06.57c.22 0 .54 0 .81-.1l.85-.17.3-.06.52 2.14.56-.14-.53-2.14.51-.13.35-.1c.3-.09.58-.18.85-.28l.72 2.09.55-.19-.73-2.08c.6-.21 1.16-.43 1.67-.65l.88 2 .53-.23-.93-2.12v.09c.64-.29 1.26-.6 1.87-.92l1 2 .5-.27-1-2q.8-.43 1.56-.9l1.18 1.87.48-.31-1.17-1.86c.52-.32 1-.66 1.5-1l1.28 1.77.47-.34-1.44-2 .15.21c.59-.45 1.14-.88 1.65-1.3l1.41 1.71.44-.37-1.41-1.7c.49-.4.94-.8 1.37-1.18l1.49 1.6.42-.39-1.47-1.59c.46-.43.89-.85 1.3-1.28l1.56 1.52.4-.41-1.58-1.53c.5-.49 1-1 1.43-1.55l1.66 1.44.37-.43-1.66-1.44.25-.3.33-.39c.21-.23.4-.47.59-.71l1.73 1.37.36-.45L98 95l.64-.86.45-.61 1.77 1.29.34-.47-1.8-1.29c.33-.43.68-.91 1.07-1.47l.1-.15.09-.12 1.79 1.28.33-.46-1.78-1.28.55-.76.57-.75 1.74 1.32.35-.46-1.75-1.32c.38-.49.76-1 1.16-1.48l1.71 1.36.35-.45-2.15-1.71zm5.01-5.83a104.06 104.06 0 0 0-4.84 5.58l.44.36 1.38-1.67 1.66 1.42.37-.44-1.68-1.41 1.23-1.42 1.64 1.45.38-.43-1.62-1.44 1.27-1.39 1.6 1.49.39-.42-2-1.88zm5.53-5.39a78.52 78.52 0 0 0-5.34 5.16l.42.39c.51-.54 1-1 1.51-1.55l1.52 1.55.4-.41-1.55-1.55c.45-.45.9-.89 1.35-1.31l1.5 1.59.42-.39-1.51-1.59c.47-.44.94-.86 1.4-1.27l1.44 1.64.43-.37-1.82-2.08zm6.27-4.68a43.26 43.26 0 0 0-6.06 4.47l.38.43c.58-.5 1.13-1 1.68-1.39l1.36 1.72.45-.36-1.37-1.72q.78-.6 1.53-1.14l1.26 1.79.47-.32-1.26-1.79a27.5 27.5 0 0 1 1.61-1.05l1.12 1.88.49-.3-1.41-2.37z" class="n"/><path d="M128.05 71.41l.45-2.72h-.28a9 9 0 0 0-4.24.47 18.32 18.32 0 0 0-3.56 1.65l.28.49a17.7 17.7 0 0 1 2-1l.88 2 .52-.22-.87-2a11.73 11.73 0 0 1 1.93-.63l.45 2.14.56-.12-.45-2.13a7.45 7.45 0 0 1 2.14-.09l-.36 2.14zm2.37-1.23l.33.28-1.58 1.54.4.41 1.57-1.52a6.52 6.52 0 0 1 .65.9 10.66 10.66 0 0 1 .47 1l-2 .78.21.54 2-.79a12.19 12.19 0 0 1 .49 2l-2.16.35.09.56 2.73-.43-.05-.28a11.08 11.08 0 0 0-1.29-3.94 6.2 6.2 0 0 0-1.51-1.76 5.75 5.75 0 0 0-2.17-1l-.13.56a5.18 5.18 0 0 1 1.95.8z" class="n"/><path d="M133.64 75.74l-.57.08c.1.75.15 1.49.18 2.23h-2.2v.57h2.19v1.92l-2.24-.11V81l2.19.11c0 .65-.1 1.29-.16 1.89l-2.17-.22-.06.57 2.74.28v-.28a32.53 32.53 0 0 0 .1-7.61zm-.92 10l-2.18-.32-.08.57 2.17.32c-.09.6-.19 1.22-.31 1.86l-2.16-.39-.1.56 2.16.39-.37 1.84-2.14-.44-.11.56 2.7.56.06-.28c.58-2.79 1-5.12 1.21-7.32l-.57-.06c-.08.7-.17 1.41-.28 2.15zm-1.44 7.52l-2.14-.5-.13.56 2.14.49-.44 1.82-2.13-.53-.14.56 2.13.53-.47 1.81-2.1-.57-.14.56 2.66.71.08-.28c.66-2.44 1.24-4.85 1.73-7.15l-.56-.12-.49 2.11zm-30.34 46.55l-1.06-1.93-.51.28 1.07 1.93-1.62.87-1-1.93-.51.28 1 1.92-1.63.87-1-1.94-.51.27 1.29 2.44.25-.13c2.43-1.28 4.46-2.38 6.39-3.48l-.28-.5zm-6.65 3.54l-1-1.95-.51.26 1 2-1.64.83-1-2-.51.26 1 1.95-1.65.82-1-2-.52.25 1.21 2.48.26-.12c2.19-1.07 4.38-2.16 6.48-3.26l-.26-.51z" class="n"/><path d="M87.54 146.69l-.94-2-.52.24.94 2c-.56.27-1.12.52-1.67.77l-.91-2-.52.23.9 2c-.56.25-1.12.52-1.68.76l-.88-2-.52.23 1.11 2.52.26-.11c2.14-.94 4.36-2 6.6-3l-.25-.52zm-6.88 3.1l-.85-2-.53.23.86 2-1.71.7-.82-2-.53.21.82 2-1.72.68-.79-2-.53.21 1 2.58.27-.11c2.09-.79 4.3-1.69 6.74-2.76l-.23-.52zm-7.03 2.77l-.73-2.08-.54.2.73 2.06-1.75.6-.68-2.08-.55.18.68 2.08-1.77.55-.62-2.07-.55.16.78 2.65.28-.08a98.08 98.08 0 0 0 6.93-2.34l-.2-.54zm-7.24 2.25l-.53-2.13-.55.14.53 2.12c-.63.15-1.24.29-1.83.41l-.43-2.14-.56.11.43 2.14c-.63.12-1.25.23-1.86.32l-.29-2.17-.57.08.37 2.74h.29a52.66 52.66 0 0 0 7.24-1.59l-.16-.55-2.08.52zm-7.56 1.25l-.07-2.2h-.57l.07 2.2h-1c-.34 0-.66 0-1-.06l.24-2.18-.57-.06-.24 2.17a11.5 11.5 0 0 1-2-.42l.72-2.06-.54-.19-.91 2.61.27.09a13 13 0 0 0 4 .68h.64a24.54 24.54 0 0 0 3.18-.22l-.07-.57c-.74.15-1.46.15-2.15.21z" class="n"/><path d="M51.12 154.1l1.5-1.59-.42-.39-1.49 1.59a5.57 5.57 0 0 1-.7-.84 8 8 0 0 1-.51-1l2-.81-.22-.54-2 .82a8.6 8.6 0 0 1-.44-2l2.18-.16v-.57l-2.75.2v.28a8.36 8.36 0 0 0 1.27 4.08 7.23 7.23 0 0 0 3.46 2.7l.19-.53a6.83 6.83 0 0 1-2.07-1.24z" class="n"/></g><path d="M170.75 95.89v-6.83h-.69v-9.8h-.71v9.8h-.69v6.83l-2.44 5.05v55.12h6.97v-55.12l-2.44-5.05zm32.57 48.56l-2.5-2.49v-9.94l-2.9-2.9v-28.47l-3.4-9.96V79.34l-2.61-9.17-2.61 9.17v11.35l-3.4 9.96v28.47l-2.9 2.9v9.94l-2.49 2.49v16.39h5.39v3.13h12.02v-3.13h5.4v-16.39zm11.55-36.43v-8.23l-1.99-10.3-2.02 10.3v8.16h-.02l-2.29 7.01v45.79h8.59v-45.79l-2.27-6.94z" class="n"/><circle cx="221.19" cy="150.97" r="5.68" class="n"/><circle cx="205.74" cy="158.62" r="5.68" class="n"/><circle cx="91.54" cy="153.18" r="3.85" class="n"/><circle cx="87.06" cy="156.06" r="3.85" class="n"/><circle cx="93.48" cy="158.14" r="3.85" class="n"/><circle cx="43.54" cy="158.14" r="3.85" class="n"/><circle cx="218.71" cy="154.5" r="5.68" class="n"/></g><g clip-path="url(#c3)" opacity=".3"><g class="q"><path d="M20.58 174.65s38 15.35 36.35 55.67-15.3 5.76-11.55-6.06c3.82-12 32.23-30.21 50.75-7.82 28.55 34.49 37.78 33.24 33.53 12.12-3.49-17.36-10.75-47.69-61.57-62.85-36.2-10.8-10.31 25.17-5.92 32 5 7.85 25.56 47.5-34.86 17.55" class="p"/><path d="M83.16 155.99v50.52l28.91-25.26m-1.51-27.01v78.3" class="o"/><path d="M53.94 208.64v-59.58m-18.39-2.58v35.21l18.39-29.43" class="a"/><path d="M143.15 152.26l-31.8 81.06m-71.33-12.24v-67.85" class="o"/></g><path d="M170.71 220.34v6.83h-.7v9.8h-.71v-9.8h-.69v-6.83l-2.44-5.05v-55.12h6.97v55.12l-2.43 5.05zm32.56-48.56l-2.5 2.49v9.94l-2.9 2.9v28.47l-3.4 9.96v11.35l-2.61 9.17-2.61-9.17v-11.35l-3.4-9.96v-28.47l-2.9-2.9v-9.94l-2.49-2.49v-16.4h5.39v-3.12h12.02v3.12h5.4v16.4zm11.55 36.43v8.23l-1.98 10.3-2.03-10.3v-8.16h-.02l-2.29-7.01v-45.79h8.59v45.79l-2.27 6.94z" class="n"/><circle cx="221.14" cy="165.26" r="5.68" class="n"/><circle cx="205.69" cy="157.61" r="5.68" class="n"/><circle cx="91.49" cy="163.05" r="3.85" class="n"/><circle cx="87.01" cy="160.17" r="3.85" class="n"/><circle cx="93.43" cy="158.09" r="3.85" class="n"/><circle cx="43.49" cy="158.09" r="3.85" class="n"/><circle cx="218.66" cy="161.73" r="5.68" class="n"/></g><path d="M196.74 183.89l3.81 15.41s-30 33.23-81.27 29.3l-2-.17c1.52-13.54 9.23-35.52 9.23-35.52s44.38 0 70.23-9.02z" class="e"/><path fill="#455487" d="M196.74 183.89c-25.85 9-70.24 9-70.24 9a285 285 0 0 1-58.35-11.55s54.37-11.57 128.59 2.55z"/><path fill="#799adb" d="M126.5 192.91s-7.71 22-9.23 35.52c-49.64-4.39-61.71-28-61.71-28l12.59-19.09a285 285 0 0 0 58.35 11.57z"/><path fill="none" stroke="#a0bcea" stroke-miterlimit="10" stroke-width="1.32" d="M78.89 184.44S68.3 201.09 64.5 210.31m19.31-24.62s-7.92 17.7-11.36 30.06" opacity=".41"/><path d="M68.15 181.36s54.37-11.59 128.59 2.53l3.81 15.41s-30 33.23-81.27 29.3l-2-.17c-49.64-4.39-61.71-28-61.71-28z" class="f"/><path d="M68.15 181.36a285 285 0 0 0 58.35 11.55s44.39 0 70.24-9" class="f"/><path d="M126.5 192.91s-7.71 22-9.23 35.52v.5" class="f"/><g opacity=".47"><ellipse cx="104.97" cy="201.16" class="e" rx="4.91" ry="3.99" transform="rotate(-77.39 104.97 201.16)"/><ellipse cx="112.13" cy="208.87" class="e" rx="2.78" ry="2.21" transform="rotate(-77.39 112.13 208.88)"/><ellipse cx="104.27" cy="210.89" class="e" rx="1.69" ry="1.44" transform="rotate(-77.39 104.27 210.88)"/><ellipse cx="113.28" cy="199.55" class="e" rx="1" ry=".85" transform="rotate(-77.39 113.29 199.55)"/></g><path fill="#346fb7" d="M106.12 58.75h-.4a9.39 9.39 0 0 0 .08-1.19 9 9 0 0 0-18 0 6.51 6.51 0 0 0 0 .77A7.41 7.41 0 1 0 84 72.08h22.17a6.67 6.67 0 0 0 0-13.33zm82.65-16.46V30.57H161a15 15 0 0 0 0 29.93h45.5V42.29z" opacity=".5"/></g><path fill="#233460" d="M184.15 184c0 3.3-21.52 4.44-49.13 4.31-32.73-.15-48.18-3.76-51.43-5.64-2.29-1.32 24.3-3 51.43-3s49.13 1.91 49.13 4.33z"/><path d="M168.6 156.56s13.25-55.56-31.29-58.28c-36.25-2.24-40.44 35.28-40 50.56.11 3.5.09 12.59-5.92 13.45S81.36 155 81.36 155s10.73-13.9-3.78-24.12c0 0-10.35 10.62-5 18.26 0 0-9.46-2.85-15.56 8.5 0 0 9.43 9.55 20.33 1.57 0 0 6.28 22.57 40.81 22.57s50.44-25.22 50.44-25.22z" class="g"/><g clip-path="url(#c4)"><path fill="#bbc6ef" d="M82.49 168s22.79 15.53 36-2.89C133.74 144 156.89 140 167 162.48c9.54 21.28-62.58 33.39-62.58 33.39L72.1 181.75z"/><ellipse cx="101.92" cy="122.65" class="h" rx="10.02" ry="3.86" transform="rotate(-74.41 101.9 122.65)"/><ellipse cx="109.02" cy="126.88" class="h" rx="3.85" ry="1.87" transform="rotate(-74.41 109.02 126.88)"/><ellipse cx="104.69" cy="135.17" class="h" rx="2.52" ry="1.32" transform="rotate(-70.49 104.7 135.17)"/></g><path d="M168.6 156.56s13.18-54.56-31.29-58.28c-35.39-3-40.44 35.28-40 50.56.11 3.5.09 12.59-5.92 13.45S81.36 155 81.36 155s10.73-13.9-3.78-24.12c0 0-10.35 10.62-5 18.26 0 0-9.46-2.85-15.56 8.5 0 0 9.43 9.55 20.33 1.57 0 0 6.28 22.57 40.81 22.57s50.44-25.22 50.44-25.22z" class="b"/><path fill="#cae8ef" stroke="#4b8087" d="M148.92 103.65l4.16-38.71s-12.17 25-16.7 34.47c-1.55 3.33 5.32 6 5.32 6s6.74 2.26 7.22-1.76z" class="t"/><path fill="none" stroke="#82bbc4" d="M149 101.2c-1.34-.09-7.52-1.18-10.06-6.72m11.33-3.31a12.4 12.4 0 0 1-7.37-5.11m8.5-5.49a12.33 12.33 0 0 1-4.4-2.92" class="t"/><path fill="none" stroke="#4b8087" d="M148.92 103.65l4.16-38.71s-12.17 25-16.7 34.47" class="t"/><circle cx="126.88" cy="127.54" r="3.34" class="i"/><circle cx="125.61" cy="126.88" r="1.12" class="r"/><path d="M128.74 127.32a.72.72 0 0 0-.84.57 1.15 1.15 0 0 1-.84.87.72.72 0 0 0 .31 1.4l.36-.11a2.5 2.5 0 0 0 1.57-1.89.72.72 0 0 0-.56-.84z" class="j"/><circle cx="159.29" cy="128.01" r="3.34" class="i"/><circle cx="158.01" cy="127.35" r="1.12" class="r"/><path d="M161.14 127.79a.72.72 0 0 0-.84.57 1.13 1.13 0 0 1-.84.87.7.7 0 0 0-.54.85.71.71 0 0 0 .86.54 2.35 2.35 0 0 0 .35-.11 2.52 2.52 0 0 0 1.58-1.88.72.72 0 0 0-.57-.84z" class="j"/><path d="M140.4 129s0 3.46 3.31 3.7c2.95.22 3.31-3.53 3.31-3.53" class="b"/><path fill="#3d506b" d="M96.74 179.87h69.59l-2.82 2.37-62.19-.65-4.58-1.72z"/><path fill="#a6b3d1" d="M195.69 145.12a2 2 0 0 1 1.86 2.65l-13 36.11-45.34 1L150.68 148a4.07 4.07 0 0 1 3.89-2.86h41.12z"/><path d="M151.2 145.12h3.37a4.07 4.07 0 0 0-3.89 2.86l-11.49 36.9-2.86-.33.78-2.52 10.68-34.4a3.56 3.56 0 0 1 3.41-2.51z" class="k"/><path d="M136.33 184.55L99.84 183a2.45 2.45 0 0 1-2.43-2.44l39.7 1.5z" class="k"/><path d="M137.11 182l10.68-34.4a3.56 3.56 0 0 1 3.41-2.51h3.37m1.37.03h39.75a2 2 0 0 1 1.86 2.65l-13 36.11-45.34 1-2.86-.33" class="d"/><path d="M139.12 185.1l.07-.22L150.68 148a4.07 4.07 0 0 1 3.89-2.86h1.37m-19.61 39.41L99.84 183a2.45 2.45 0 0 1-2.43-2.44l39.7 1.5z" class="d"/><ellipse cx="170.44" cy="165" class="r" rx="9.73" ry="8.16" transform="rotate(-42.48 170.45 165)"/><path d="M171.85 157a9.94 9.94 0 0 0-9.44 8 6.52 6.52 0 0 0 6.62 8 9.94 9.94 0 0 0 9.44-8 6.56 6.56 0 0 0-6.62-8zm5.65 8a8.85 8.85 0 0 1-8.35 7.09 5.74 5.74 0 0 1-5.8-7.09 8.84 8.84 0 0 1 8.34-7.1 5.82 5.82 0 0 1 5.81 7.1z" class="l"/><path d="M174.66 163.13l.33-.48 1-1.26-2 1.05s-.09 0-.13.09a.58.58 0 0 0-.14.77.29.29 0 0 0 .22.12.66.66 0 0 0 .55-.12.65.65 0 0 0 .15-.17z" class="l"/><path d="M174.29 163.86a.86.86 0 0 1-.33 0 .74.74 0 0 1-.74-.89 1 1 0 0 1 .09-.28 2.07 2.07 0 0 0-1.39-.37c-2.76 0-3.43 1.3-3.72 2.92a2.21 2.21 0 0 1-.41 1.18 1.33 1.33 0 0 1-1.11.57c-.16 0-.76-.09-.76-.29h.08a1.48 1.48 0 0 0 1.39-1.21v-.33h-.57a1.52 1.52 0 0 0-1.11.53 1.06 1.06 0 0 0-1-.49h-.56l-.05.24a1 1 0 0 0 1 1.26h.2c-.07.41.21 2 4.39 2 1.62 0 4.1-.29 4.64-3.37a2.67 2.67 0 0 0-.04-1.47z" class="l"/><path d="M117.27 153.62s10.53 6.24 18 26.91c0 0-24 5.16-24.61-22.06" class="g"/><path fill="#1c418c" d="M117.51 153.23a32.08 32.08 0 0 1 6.21 5.57 55.44 55.44 0 0 1 5 6.63 70.07 70.07 0 0 1 4.06 7.23c.61 1.23 1.15 2.51 1.73 3.76l1.54 3.85v.11a.65.65 0 0 1-.36.85.69.69 0 0 1-.24.05 26.26 26.26 0 0 1-9.92-.2 18.41 18.41 0 0 1-8.82-4.49 19.18 19.18 0 0 1-5.11-8.42 33.31 33.31 0 0 1-1.44-9.69.52.52 0 0 1 1 0 32.71 32.71 0 0 0 1.5 9.35 17.89 17.89 0 0 0 4.89 7.84 17.21 17.21 0 0 0 8.25 4.06 24.82 24.82 0 0 0 9.29.07l-.56 1-1.39-3.8c-.54-1.24-1-2.5-1.63-3.73a69.48 69.48 0 0 0-3.84-7.17 55 55 0 0 0-4.75-6.58A30.8 30.8 0 0 0 117 154a.45.45 0 1 1 .51-.75z"/><path d="M140.18 213.91l-1.53-2.85-.79.12-.68 3.14-1.51-2.83-.89.13 2.07 3.83.91-.13.66-2.94 1.45 2.64.91-.13.91-4.27-.85.13-.66 3.16zm6.11-2.2a2.21 2.21 0 0 0-.49-1 1.87 1.87 0 0 0-.88-.58 2.14 2.14 0 0 0-1.1 0 2 2 0 0 0-1 .49 1.89 1.89 0 0 0-.59.88 2.18 2.18 0 0 0 0 1.11 2.11 2.11 0 0 0 .5 1 1.88 1.88 0 0 0 .93.57 2.51 2.51 0 0 0 1.22 0 2.45 2.45 0 0 0 .89-.36 1.74 1.74 0 0 0 .58-.63l-.62-.47a1.55 1.55 0 0 1-1 .67 1.49 1.49 0 0 1-.92-.08 1.09 1.09 0 0 1-.58-.61l3.14-.67a2.04 2.04 0 0 1-.08-.32zm-3.24.33a1.14 1.14 0 0 1 .23-.79 1.13 1.13 0 0 1 .7-.42 1.17 1.17 0 0 1 .83.1 1.15 1.15 0 0 1 .51.63zm7.78-2.7a1.94 1.94 0 0 0-.91-.52 2.29 2.29 0 0 0-1.1 0 1.83 1.83 0 0 0-.67.33 1.67 1.67 0 0 0-.45.54l-.55-2-.93.25 1.5 5.48.88-.24-.14-.51a1.44 1.44 0 0 0 .68.27 2.09 2.09 0 0 0 .78-.06 2.25 2.25 0 0 0 1-.54 1.83 1.83 0 0 0 .51-.91 2.18 2.18 0 0 0 0-1.13 2.23 2.23 0 0 0-.6-.96zm-.48 2.22a1.15 1.15 0 0 1-.75.57 1.23 1.23 0 0 1-.63 0 1.15 1.15 0 0 1-.54-.32 1.35 1.35 0 0 1-.34-.61 1.48 1.48 0 0 1 0-.69 1.1 1.1 0 0 1 .3-.55 1.23 1.23 0 0 1 .56-.31 1.11 1.11 0 0 1 .93.11 1.29 1.29 0 0 1 .58.8 1.26 1.26 0 0 1-.11 1zm4.76-4.21a1.67 1.67 0 0 0-1.32 0 2.07 2.07 0 0 0-.69.37 1.56 1.56 0 0 0-.44.56l-.66-2-.91.31 1.83 5.38.9-.31-.66-2a1.22 1.22 0 0 1 0-1 1.06 1.06 0 0 1 .69-.57 1 1 0 0 1 .77 0 1.17 1.17 0 0 1 .49.69l.72 2.1.9-.3-.75-2.22a1.75 1.75 0 0 0-.87-1.01zm1.11-1.76a.64.64 0 0 0 .47 0 .62.62 0 0 0 .35-.32.61.61 0 0 0 0-.46.49.49 0 0 0-.31-.3.64.64 0 0 0-.47 0 .58.58 0 0 0-.34.31.56.56 0 0 0 .29.76z" class="m"/><path d="M157.19 206.08h.96v4.09h-.96z" class="m" transform="rotate(-21.13 157.7 208.14)"/><path d="M161.92 204.57a1.75 1.75 0 0 0-1.32.08 2.19 2.19 0 0 0-.69.46 1.46 1.46 0 0 0-.37.63l-.22-.48-.83.36 1.63 3.75.88-.37-.83-1.9a1.31 1.31 0 0 1-.08-1 1.09 1.09 0 0 1 .64-.62.91.91 0 0 1 .77 0 1.15 1.15 0 0 1 .55.64l.89 2 .88-.38-.94-2.15a1.8 1.8 0 0 0-.96-1.02zm4.25 1.21a.53.53 0 0 1-.45.05.64.64 0 0 1-.33-.34l-.86-1.75 1-.48-.34-.69-1 .49-.42-.84-.86.42.42.84-.61.3.34.69.61-.3.87 1.76a1.36 1.36 0 0 0 .79.76 1.46 1.46 0 0 0 1.09-.15 1.57 1.57 0 0 0 .42-.29 1 1 0 0 0 .28-.36l-.55-.49a.78.78 0 0 1-.4.38zm2.04-1.41a.56.56 0 0 0-.47.06.6.6 0 0 0-.32.36.61.61 0 0 0 .06.49.63.63 0 1 0 1.11-.59.63.63 0 0 0-.38-.32z" class="m"/><path d="M168.66 200.67h.96v4.09h-.96z" class="m" transform="rotate(-29.36 169.13 202.7)"/><path d="M167.81 200.34a.58.58 0 0 0 .3-.36.54.54 0 0 0-.06-.46.5.5 0 0 0-.34-.26.68.68 0 0 0-.76.44.53.53 0 0 0 .05.44.56.56 0 0 0 .35.27.58.58 0 0 0 .46-.07zm6.27-.59a2.1 2.1 0 0 0-.8-.77 2 2 0 0 0-1.05-.23 2.4 2.4 0 0 0-1.1.37 2.33 2.33 0 0 0-.81.81 2 2 0 0 0-.27 1 2 2 0 0 0 .32 1.07 2.2 2.2 0 0 0 .81.77 1.94 1.94 0 0 0 1.06.23 2.27 2.27 0 0 0 1.09-.36 2.38 2.38 0 0 0 .82-.82 2 2 0 0 0 .26-1 2 2 0 0 0-.33-1.07zm-.63 1.48a1.17 1.17 0 0 1-.55.76 1.19 1.19 0 0 1-.93.15 1.26 1.26 0 0 1-.77-.61 1.24 1.24 0 0 1-.2-1 1.25 1.25 0 0 1 1.48-.91 1.26 1.26 0 0 1 .78.61 1.23 1.23 0 0 1 .19 1z" class="m"/></svg>