<svg id="sticker" xmlns="http://www.w3.org/2000/svg" xmlns:xlink="http://www.w3.org/1999/xlink" viewBox="0 0 252 252"><defs><style>.cls-1,.cls-10,.cls-16,.cls-18,.cls-26,.cls-8{fill:none;}.cls-2{fill:#fff;}.cls-3{fill:#3cafef;}.cls-4{clip-path:url(#clip-path);}.cls-5{fill:#2a95dd;}.cls-6{fill:#96a3e2;}.cls-7{fill:#6b7fc6;}.cls-8{stroke:#1c418c;}.cls-10,.cls-16,.cls-18,.cls-26,.cls-8,.cls-9{stroke-linecap:round;stroke-linejoin:round;}.cls-10,.cls-16,.cls-18,.cls-8,.cls-9{stroke-width:1.15px;}.cls-9{fill:#cae8ef;}.cls-16,.cls-9{stroke:#4b8087;}.cls-10{stroke:#82bbc4;}.cls-11{fill:#060b1c;}.cls-12{fill:#2b5599;}.cls-13{fill:#402b5e;}.cls-14{clip-path:url(#clip-path-2);}.cls-15{fill:#e87ce1;}.cls-17{fill:#1c418c;}.cls-18{stroke:#9bd5f9;}.cls-19{fill:#9bd5f9;}.cls-20{fill:#211f1f;}.cls-21{fill:#83d4ed;}.cls-22{fill:#f4cbb2;}.cls-23{fill:#ad5c51;}.cls-24{clip-path:url(#clip-path-3);}.cls-25{fill:#e8a3d3;}.cls-26{stroke:#211f1f;stroke-width:0.38px;}.cls-27{fill:#e5a785;}</style><clipPath id="clip-path"><circle class="cls-1" cx="126" cy="126" r="99.48"/></clipPath><clipPath id="clip-path-2"><path class="cls-1" d="M114.85,167.51l6,7.64s-3.57,2.94-5.9.48S114.85,167.51,114.85,167.51Z"/></clipPath><clipPath id="clip-path-3"><path class="cls-1" d="M110,87.51l6.38,4.9s-2.77,3.32-6,1S110,87.51,110,87.51Z"/></clipPath></defs><title>webhint_sticker_2</title><circle class="cls-2" cx="126" cy="126" r="107.21"/><circle class="cls-3" cx="126" cy="126" r="99.48"/><g class="cls-4"><path class="cls-5" d="M18.79,104.89s41.94-64.32,187-47.67c0,0,11.77-65.61-122.64-46.95S18.79,104.89,18.79,104.89Z"/><path class="cls-5" d="M18.79,139.9s52.23,33.41,100,9.77S199.73,106,259.9,120.76,176,247.44,176,247.44L59,242.57,2.84,211Z"/><path class="cls-3" d="M219,172.34s-32.88-8.72-102.31,5.76c0,0-25.62,7.61-48.47,0,0,0,15.86,18.18,62.39,11.76s77.75,14.9,77.75,14.9Z"/></g><path class="cls-6" d="M182.43,132.9s-2.46,17-17.51,8.44c-16.87-9.59-37.66-13.45-54.61,7.54-19.3,23.9,12,57.77,43.36,47,20.72-7.09,35.63-36.29,33.33-63.63,0,0,14.19-7.67,6.91-23.39,0,0-12.95,3.74-11.22,14.57,0,0-6.81-8.34-17.16-4.89C165.53,118.58,167,134.28,182.43,132.9Z"/><path class="cls-7" d="M167.54,155.45A10.14,10.14,0,0,1,157.19,165c-6.95,0-12.85-3.93-13.52-7.95-.62-3.74,2.73-8.11,11.6-8.11C162.23,149,167.54,151.66,167.54,155.45Z"/><path class="cls-7" d="M142.26,143.87c.24.55-.52,1.22-1.5,1.64s-2,.32-2.2-.22a1.36,1.36,0,0,1,1.17-1.72C140.84,143.35,142,143.32,142.26,143.87Z"/><path class="cls-7" d="M153.52,170.8c-.21.69-1.21.81-2.44.42s-1.91-1.54-1.69-2.23a1.72,1.72,0,0,1,2.51-.57C153.09,169.1,153.74,170.11,153.52,170.8Z"/><path class="cls-7" d="M165.11,167.8c-.23-1-2-1.2-4.32-.67s-3.8,2.2-3.57,3.21,2.23,1.78,4.41.88S165.34,168.82,165.11,167.8Z"/><ellipse class="cls-7" cx="151.66" cy="138.82" rx="3.39" ry="7.8" transform="translate(-19.84 252.21) rotate(-75.94)"/><path class="cls-7" d="M169.48,144.7c-.37,1.05-2.58,1.21-4.93.37s-4-2.36-3.6-3.4,2.5-.79,4.85.05S169.85,143.66,169.48,144.7Z"/><path class="cls-7" d="M140.32,137.28c.19,1-1.62,2-3.81,2.45s-4.14,0-4.34-1,1.46-2.09,3.69-2.33C137.63,136.22,140.12,136.29,140.32,137.28Z"/><path class="cls-8" d="M182.43,132.9s-2.46,17-17.51,8.44c-16.87-9.59-37.66-13.45-54.61,7.54-19.3,23.9,12,57.77,43.36,47,20.72-7.09,35.63-36.29,33.33-63.63,0,0,14.19-7.67,6.91-23.39,0,0-12.95,3.74-11.22,14.57,0,0-6.81-8.34-17.16-4.89C165.53,118.58,167,134.28,182.43,132.9Z"/><path class="cls-9" d="M134.26,149.53c-5.24-8.31-18.17-28.77-18.17-28.77s5.24,23.73,7.28,32.67c1.48,6.19,8.51,3.95,8.51,3.95S137.57,155,134.26,149.53Z"/><path class="cls-10" d="M133,147.81c-1,.66-5.79,3.27-10.54.86"/><path class="cls-10" d="M128.41,140.25a10.86,10.86,0,0,1-7.82.51"/><path class="cls-10" d="M123.43,132.38a10.92,10.92,0,0,1-4.62.4"/><circle class="cls-11" cx="111.81" cy="161.66" r="2.68"/><circle class="cls-2" cx="111.05" cy="160.8" r="0.9"/><path class="cls-12" d="M113.26,162a.57.57,0,0,0-.79.18.9.9,0,0,1-.88.4.59.59,0,0,0-.66.49.58.58,0,0,0,.49.65,1.51,1.51,0,0,0,.3,0,2,2,0,0,0,1.72-.95A.57.57,0,0,0,113.26,162Z"/><circle class="cls-11" cx="127.02" cy="179.24" r="2.68"/><circle class="cls-2" cx="126.26" cy="178.37" r="0.9"/><path class="cls-12" d="M128.47,179.61a.57.57,0,0,0-.79.18.9.9,0,0,1-.88.41.56.56,0,0,0-.65.49.57.57,0,0,0,.48.65l.3,0a2,2,0,0,0,1.72-1A.57.57,0,0,0,128.47,179.61Z"/><path class="cls-13" d="M114.85,167.51l6,7.64s-3.57,2.94-5.9.48S114.85,167.51,114.85,167.51Z"/><g class="cls-14"><path class="cls-15" d="M113.53,175.36s1.84-4.31,8.42-2.06l-.61,3.81-6.61.36Z"/></g><path class="cls-16" d="M134.26,149.53c-5.24-8.31-18.17-28.77-18.17-28.77s5.24,23.73,7.28,32.67c1.48,6.19,8.51,3.95,8.51,3.95S137.57,155,134.26,149.53Z"/><path class="cls-6" d="M142,194.22s.48,16.59,21.28,14.48c0,0-2.3-10.64-13.9-17.45"/><path class="cls-17" d="M142.57,194.21a15.87,15.87,0,0,0,2.1,6.63,14.3,14.3,0,0,0,4.85,4.93,19,19,0,0,0,6.63,2.2c1.17.16,2.36.16,3.54.24l3.57-.2-.61.84h0a24.16,24.16,0,0,0-2-5.13,29.86,29.86,0,0,0-6.93-8.72,34.46,34.46,0,0,0-4.54-3.31h0a.5.5,0,0,1,.53-.85,35.43,35.43,0,0,1,4.74,3.33,30.77,30.77,0,0,1,4.1,4.13,30.46,30.46,0,0,1,3.25,4.83,24.39,24.39,0,0,1,2.23,5.44h0v0a.66.66,0,0,1-.5.79l-.12,0-3.71.16c-1.24-.09-2.48-.11-3.71-.3a20,20,0,0,1-7.08-2.44,15.45,15.45,0,0,1-5.2-5.4,16.83,16.83,0,0,1-2.17-7.17.52.52,0,0,1,1-.08Z"/><circle class="cls-18" cx="59.18" cy="138.24" r="4.51"/><circle class="cls-19" cx="57.61" cy="137.26" r="0.98"/><circle class="cls-18" cx="180.46" cy="102.5" r="4.51"/><circle class="cls-19" cx="178.9" cy="101.51" r="0.98"/><circle class="cls-18" cx="58.25" cy="111.09" r="2.86"/><circle class="cls-19" cx="57.26" cy="110.46" r="0.62"/><circle class="cls-18" cx="64.41" cy="155.64" r="2.86"/><circle class="cls-19" cx="63.42" cy="155.02" r="0.62"/><circle class="cls-18" cx="175.96" cy="85.95" r="2.86"/><circle class="cls-19" cx="174.96" cy="85.32" r="0.62"/><circle class="cls-18" cx="77.97" cy="173.18" r="3.57"/><circle class="cls-19" cx="76.73" cy="172.4" r="0.78"/><circle class="cls-18" cx="61.11" cy="121.53" r="1.46"/><circle class="cls-18" cx="61.55" cy="165.55" r="1.46"/><circle class="cls-18" cx="83.63" cy="181.35" r="2.09"/><circle class="cls-18" cx="90.5" cy="182.8" r="1.46"/><circle class="cls-18" cx="175.69" cy="75.8" r="2.09"/><circle class="cls-18" cx="163.18" cy="92.97" r="2.09"/><circle class="cls-18" cx="184.97" cy="90.87" r="2.09"/><circle class="cls-18" cx="170.04" cy="70.92" r="1.46"/><path class="cls-20" d="M98.89,92.52s-1.31-3.66-16.16-4.43c0,0-11.53-.69-7.15-14.64,0,0,1.81-5.41-2.64-.55-5.23,5.73-5.84,20.68,9.49,21.63S98.89,92.52,98.89,92.52Z"/><ellipse class="cls-21" cx="71.91" cy="76.43" rx="0.91" ry="0.5" transform="translate(-22.33 122.61) rotate(-72.85)"/><ellipse class="cls-21" cx="70.88" cy="80.48" rx="1.09" ry="0.51" transform="translate(-19.75 137.83) rotate(-80.95)"/><ellipse class="cls-21" cx="71.22" cy="84.91" rx="0.57" ry="1.23" transform="translate(-19.83 21.73) rotate(-15.26)"/><ellipse class="cls-21" cx="73.73" cy="89.17" rx="0.66" ry="1.41" transform="translate(-41.85 83.7) rotate(-47.7)"/><ellipse class="cls-21" cx="78.24" cy="91.81" rx="0.72" ry="1.54" transform="translate(-35.18 132.9) rotate(-69.47)"/><path d="M92.78,94.51l3.39-4c-2.18-1-6.08-2-13-2.38,2.33,1,3.4,3.19.16,6.46A64,64,0,0,0,92.78,94.51Z"/><path class="cls-20" d="M72.26,113.72c-1.86,3.45-1.77-1.73-1.77-1.73s-.24-10.58,11.21-18.5c12.46-8.62,20.52.08,20.52.08,11.3,11.12,4.8,18.05,1.17,21.41-4.18,3.87-8.67,6.11-11.61,10.18-2.51,3.49-5.58,7.05-3.68.31,1.82-6.43,6.94-11.52,9.77-14,3.37-3,3.2-6,3.2-6-1.21,3.87-7.54,7.05-10.63,10.13-6.31,6.29-7.3,12.14-7.3,12.14-.85,4.28-2.36,4.62-2.84-.13-1.13-11.32,8.53-18.74,12-21.66,3.19-2.73,3.61-4,3.61-4-11.44,6.14-16.12,12.22-21,22.8-3.08,6.71-3.74,1.48-1.93-4.79,4.25-14.67,12.56-20.31,18.63-23.47C91.59,96.51,80.9,97.59,72.26,113.72Z"/><path d="M102.22,93.57A14.22,14.22,0,0,0,87.87,90.4c4.09.89,20.45,5.25,20.23,18C109.29,104.68,108.53,99.78,102.22,93.57Z"/><path class="cls-20" d="M126.4,107.06c-12.76-1-36-17.7-40.68-29.61C82.07,68.22,93.3,51,104,49.05c15.37-2.76,42.14,15.71,43.09,31.52C147.77,92,135.92,107.83,126.4,107.06Z"/><path class="cls-20" d="M103.11,52a19.47,19.47,0,0,1,9.16-13.76,20.87,20.87,0,0,1,7.79,15.07"/><path class="cls-20" d="M145.51,76.92A19.46,19.46,0,0,0,144,60.46,20.89,20.89,0,0,0,130,70"/><path class="cls-22" d="M108.1,96.15c10.53,7.7,19.39,11.11,26.16,4.52s4-15-.3-17.52-10.61-6.79-10.61-6.79l-1-.71s-6-4.69-9.69-8.06-12.56-3.42-16.79,5,1.7,15.86,12.23,23.56Z"/><circle class="cls-23" cx="115.19" cy="87.46" r="1.43"/><ellipse class="cls-2" cx="106.01" cy="77.21" rx="6.92" ry="4.76" transform="translate(-22.44 103.66) rotate(-47.7)"/><ellipse class="cls-23" cx="106.01" cy="79.04" rx="5.28" ry="3.4" transform="translate(-26.2 76.82) rotate(-35.75)"/><circle class="cls-2" cx="106.6" cy="77.46" r="0.95"/><ellipse class="cls-2" cx="126.85" cy="92.97" rx="6.92" ry="4.76" transform="translate(-27.28 124.23) rotate(-47.7)"/><ellipse class="cls-23" cx="126.85" cy="94.79" rx="5.28" ry="3.4" transform="translate(-31.48 91.96) rotate(-35.75)"/><circle class="cls-2" cx="127.45" cy="93.21" r="0.95"/><path class="cls-23" d="M110,87.51l6.38,4.9s-2.77,3.32-6,1S110,87.51,110,87.51Z"/><g class="cls-24"><path class="cls-25" d="M107.66,86.15s7.1,1.7,3.86,8.79l-5.88-4.52Z"/></g><path class="cls-26" d="M93,67.14s-15.6-8.57-27.55-9.92"/><path class="cls-26" d="M91.53,70.81s-16.78-5.94-28.79-5.34"/><path class="cls-26" d="M131.09,104.89s4.67,10.15,4,18.76"/><path class="cls-26" d="M127.5,105.94s1.23,4.94-.23,16.83"/><path class="cls-27" d="M107.69,97.31l0,0,0,0Z"/><path class="cls-27" d="M112.24,68.72c3.68,3.36,9.69,8.06,9.69,8.06l1,.7s6.29,4.3,10.62,6.79c3.22,1.85,5.55,7,3.75,12.24,2.59-5.6.15-11.38-3.3-13.36-4.32-2.49-10.61-6.79-10.61-6.79l-1-.71s-6-4.69-9.69-8.06-12.56-3.42-16.79,5a16.41,16.41,0,0,0-.71,1.65c.08-.17.16-.35.25-.53C99.68,65.3,108.56,65.35,112.24,68.72Z"/><path class="cls-27" d="M108.14,96.18h0l0,0Z"/><polygon class="cls-19" points="85.09 203.26 82.31 205.57 82.91 202.01 82.34 201.69 79.56 203.98 80.16 200.44 79.53 200.08 78.8 204.54 79.44 204.91 82.11 202.73 81.58 206.13 82.21 206.49 85.69 203.6 85.09 203.26"/><path class="cls-19" d="M88.68,205.26a2.28,2.28,0,0,0-2-.95,2,2,0,0,0-1,.37,2.36,2.36,0,0,0-1,2,1.92,1.92,0,0,0,.38,1,2.74,2.74,0,0,0,1.89,1,1.82,1.82,0,0,0,.87-.15l-.17-.63a1.72,1.72,0,0,1-2.11-.84,1.33,1.33,0,0,1,0-1l3.09,1.5.12-.2a2.36,2.36,0,0,0,.25-1.14A1.87,1.87,0,0,0,88.68,205.26Zm-.44,1.55-2.45-1.19a1.4,1.4,0,0,1,.78-.6,1.33,1.33,0,0,1,1,.1,1.36,1.36,0,0,1,.69.71A1.43,1.43,0,0,1,88.24,206.81Z"/><path class="cls-19" d="M93.63,207.4a2.23,2.23,0,0,0-.91-.67,1.93,1.93,0,0,0-.84-.16,1.57,1.57,0,0,0-.79.22l.89-2.16-.71-.29L89,209.82l.67.28.26-.62a1.66,1.66,0,0,0,.4.75,2,2,0,0,0,.72.5,2.37,2.37,0,0,0,1.13.17,1.91,1.91,0,0,0,1-.42,2.16,2.16,0,0,0,.69-.94,2.21,2.21,0,0,0,.18-1.14A2,2,0,0,0,93.63,207.4Zm-.47,1.85a1.67,1.67,0,0,1-.48.65,1.39,1.39,0,0,1-.67.29,1.41,1.41,0,0,1-.75-.11,1.37,1.37,0,0,1-.6-.45,1.4,1.4,0,0,1-.27-.68,1.75,1.75,0,0,1,.6-1.45,1.29,1.29,0,0,1,.67-.28,1.36,1.36,0,0,1,.74.11,1.46,1.46,0,0,1,.61.44,1.4,1.4,0,0,1,.27.68A1.62,1.62,0,0,1,93.16,209.25Z"/><path class="cls-19" d="M97.8,208.63a2.28,2.28,0,0,0-.88-.12,1.51,1.51,0,0,0-.74.24l.74-2.17-.72-.25L94.27,212l.73.24.7-2.06a1.44,1.44,0,0,1,.68-.87,1.31,1.31,0,0,1,1.05,0,1.08,1.08,0,0,1,.7.57,1.3,1.3,0,0,1,0,1L97.35,213l.72.25.8-2.31a1.85,1.85,0,0,0,0-1.45A1.79,1.79,0,0,0,97.8,208.63Z"/><path class="cls-19" d="M102,208.62a.46.46,0,0,0,0-.38.5.5,0,0,0-.32-.24.51.51,0,0,0-.4,0,.46.46,0,0,0-.24.3.5.5,0,0,0,0,.38.52.52,0,0,0,.32.24.5.5,0,0,0,.4,0A.48.48,0,0,0,102,208.62Z"/><rect class="cls-19" x="98.44" y="211.39" width="4.24" height="0.77" transform="translate(-131.06 248.04) rotate(-73.5)"/><path class="cls-19" d="M105.09,210.77a2.24,2.24,0,0,0-.92-.05,1.54,1.54,0,0,0-.73.34l.15-.62-.71-.17-1,4.11.74.19.52-2.13a1.42,1.42,0,0,1,.6-.92,1.33,1.33,0,0,1,1-.12,1.1,1.1,0,0,1,.74.5,1.27,1.27,0,0,1,.07,1l-.56,2.28.75.18.58-2.37a1.81,1.81,0,0,0-.14-1.44A1.74,1.74,0,0,0,105.09,210.77Z"/><path class="cls-19" d="M109.18,210.77l-.76-.15-.18.91-.7-.14-.13.62.71.14-.45,2.28a1.28,1.28,0,0,0,.15,1,1.41,1.41,0,0,0,.91.53,1.75,1.75,0,0,0,.51,0,1.08,1.08,0,0,0,.45-.13l-.13-.59a.92.92,0,0,1-.62.08.62.62,0,0,1-.45-.28.71.71,0,0,1-.06-.55l.44-2.25,1.2.24.12-.62-1.19-.24Z"/><path class="cls-19" d="M111.1,215.31a.56.56,0,0,0-.4.09.52.52,0,0,0-.23.36.53.53,0,0,0,.1.41.51.51,0,0,0,.35.22.5.5,0,0,0,.39-.09.59.59,0,0,0,.14-.78A.58.58,0,0,0,111.1,215.31Z"/><path class="cls-19" d="M113.85,210.67a.49.49,0,0,0-.39.1.48.48,0,0,0-.2.33.45.45,0,0,0,.1.37.49.49,0,0,0,.34.19.48.48,0,0,0,.39-.09.47.47,0,0,0,.2-.34.45.45,0,0,0-.09-.36A.56.56,0,0,0,113.85,210.67Z"/><rect class="cls-19" x="111.16" y="214.18" width="4.24" height="0.77" transform="translate(-115.35 295.81) rotate(-81.73)"/><path class="cls-19" d="M119,214.11a2,2,0,0,0-.7-.84,2.27,2.27,0,0,0-1.1-.39A2.24,2.24,0,0,0,116,213a1.91,1.91,0,0,0-.86.68,2.31,2.31,0,0,0-.4,1.08,2.29,2.29,0,0,0,.17,1.14,2.08,2.08,0,0,0,.71.85,2.24,2.24,0,0,0,1.1.39,2.31,2.31,0,0,0,1.15-.16,2,2,0,0,0,.86-.69,2.31,2.31,0,0,0,.4-1.08A2.29,2.29,0,0,0,119,214.11Zm-.87,1.82a1.28,1.28,0,0,1-.56.47,1.4,1.4,0,0,1-.74.11,1.33,1.33,0,0,1-.71-.26,1.39,1.39,0,0,1-.46-.58,1.47,1.47,0,0,1-.1-.79,1.5,1.5,0,0,1,.26-.76,1.4,1.4,0,0,1,.56-.47,1.45,1.45,0,0,1,.75-.1,1.41,1.41,0,0,1,.71.25,1.36,1.36,0,0,1,.45.58,1.69,1.69,0,0,1,.11.79A1.73,1.73,0,0,1,118.13,215.93Z"/></svg>