<svg xmlns="http://www.w3.org/2000/svg" viewBox="0 0 252 252"><defs><style>.e,.l,.o{fill:none}.k{fill:#fff}.i{fill:#3cafef}.a{fill:#96a3e2}.h{fill:#6b7fc6}.e,.m{stroke-linecap:round;stroke-linejoin:round}.n{stroke-width:1.1}.e{stroke-width:1.15px}.b{fill:#060b1c}.c{fill:#2b5599}.e{stroke:#9bd5f9}.d{fill:#9bd5f9}.j{fill:#211f1f}.f{fill:#83d4ed}.g{fill:#ad5c51}</style><clipPath id="c1"><circle cx="126" cy="126" r="99.5" class="l"/></clipPath><clipPath id="c2"><path d="M114.8 167.5l6 7.6s-3.5 3-5.9.5 0-8 0-8z" class="l"/></clipPath><clipPath id="c3"><path d="M110 87.5l6.4 5s-2.8 3.2-6 1-.4-6-.4-6z" class="l"/></clipPath></defs><circle cx="126" cy="126" r="107.2" class="k"/><circle cx="126" cy="126" r="99.5" class="i"/><g clip-path="url(#c1)"><path fill="#2a95dd" d="M18.8 104.9s42-64.3 187-47.7c0 0 11.8-65.6-122.7-47S18.8 105 18.8 105zm0 35s52.2 33.4 100 9.8 81-43.7 141.1-29S176 247.5 176 247.5l-117-4.8L2.8 211z"/><path d="M219 172.3s-32.9-8.7-102.3 5.8c0 0-25.6 7.6-48.5 0 0 0 15.9 18.2 62.4 11.8s77.8 14.9 77.8 14.9z" class="i"/></g><path d="M182.4 132.9s-2.4 17-17.5 8.4c-16.8-9.6-37.6-13.4-54.6 7.6-19.3 23.9 12 57.7 43.4 47 20.7-7.1 35.6-36.3 33.3-63.7 0 0 14.2-7.6 7-23.3 0 0-13 3.7-11.3 14.5 0 0-6.8-8.3-17.2-4.9 0 0 1.5 15.8 17 14.4z" class="a"/><path d="M167.5 155.4a10.1 10.1 0 0 1-10.3 9.6c-7 0-12.9-4-13.5-8-.7-3.7 2.7-8 11.6-8 7 0 12.2 2.7 12.2 6.4zm-25.2-11.5c.2.5-.6 1.2-1.5 1.6s-2 .3-2.2-.2a1.4 1.4 0 0 1 1.1-1.7c1.1-.3 2.3-.3 2.6.3zm11.2 26.9c-.2.7-1.2.8-2.4.4s-2-1.5-1.7-2.2a1.7 1.7 0 0 1 2.5-.6c1.2.7 1.8 1.7 1.6 2.4zm11.6-3c-.2-1-2-1.2-4.3-.7s-3.8 2.2-3.6 3.2 2.3 1.8 4.4 1 3.7-2.5 3.5-3.5z" class="h"/><ellipse cx="151.7" cy="138.8" class="h" rx="3.4" ry="7.8" transform="rotate(-75.9 151.7 138.8)"/><path d="M169.5 144.7c-.4 1-2.6 1.2-5 .4s-4-2.4-3.6-3.4 2.5-.8 4.9 0 4 2 3.7 3zm-29.2-7.4c.2 1-1.6 2-3.8 2.4s-4.1 0-4.3-1 1.4-2 3.7-2.3c1.7-.2 4.2-.1 4.4.9z" class="h"/><path stroke="#1c418c" d="M182.4 132.9s-2.4 17-17.5 8.4c-16.8-9.6-37.6-13.4-54.6 7.6-19.3 23.9 12 57.7 43.4 47 20.7-7.1 35.6-36.3 33.3-63.7 0 0 14.2-7.6 7-23.3 0 0-13 3.7-11.3 14.5 0 0-6.8-8.3-17.2-4.9 0 0 1.5 15.8 17 14.4z" class="m n o"/><path fill="#cae8ef" stroke="#4b8087" d="M134.3 149.5L116 120.8s5.2 23.7 7.3 32.6c1.4 6.2 8.5 4 8.5 4s5.7-2.4 2.4-7.9z" class="m n"/><path stroke="#82bbc4" d="M133 147.8c-1 .7-5.8 3.3-10.5.9m5.9-8.4a10.9 10.9 0 0 1-7.8.5m2.8-8.4a11 11 0 0 1-4.6.4" class="m n o"/><circle cx="111.8" cy="161.7" r="2.7" class="b"/><circle cx="111" cy="160.8" r=".9" class="k"/><path d="M113.3 162a.6.6 0 0 0-.8.2.9.9 0 0 1-1 .4.6.6 0 0 0-.6.5.6.6 0 0 0 .5.6 1.5 1.5 0 0 0 .3 0 2 2 0 0 0 1.7-1 .6.6 0 0 0-.1-.7z" class="c"/><circle cx="127" cy="179.2" r="2.7" class="b"/><circle cx="126.3" cy="178.4" r=".9" class="k"/><path d="M128.5 179.6a.6.6 0 0 0-.8.2.9.9 0 0 1-.9.4.6.6 0 0 0-.7.5.6.6 0 0 0 .5.6h.3a2 2 0 0 0 1.7-1 .6.6 0 0 0-.1-.7z" class="c"/><path fill="#402b5e" d="M114.8 167.5l6 7.6s-3.5 3-5.9.5 0-8 0-8z"/><path fill="#e87ce1" d="M113.5 175.4s1.9-4.3 8.5-2.1l-.7 3.8-6.6.4z" clip-path="url(#c2)"/><path stroke="#4b8087" d="M134.3 149.5L116 120.8s5.2 23.7 7.3 32.6c1.4 6.2 8.5 4 8.5 4s5.7-2.4 2.4-7.9z" class="m n o"/><path d="M142 194.2s.5 16.6 21.3 14.5c0 0-2.3-10.6-14-17.4" class="a"/><path fill="#1c418c" d="M142.6 194.2a15.9 15.9 0 0 0 2 6.6 14.3 14.3 0 0 0 5 5 19 19 0 0 0 6.5 2.2l3.6.2 3.6-.2-.7.9a24.2 24.2 0 0 0-2-5.2 29.9 29.9 0 0 0-6.9-8.7 34.5 34.5 0 0 0-4.5-3.3.5.5 0 0 1 .5-.9 35.4 35.4 0 0 1 4.7 3.4 30.8 30.8 0 0 1 4.1 4.1 30.5 30.5 0 0 1 3.3 4.8 24.4 24.4 0 0 1 2.2 5.5.7.7 0 0 1-.5.8l-3.8.1c-1.2 0-2.5 0-3.7-.3a20 20 0 0 1-7-2.4 15.4 15.4 0 0 1-5.3-5.4 16.8 16.8 0 0 1-2.2-7.2.5.5 0 0 1 1 0z"/><circle cx="59.2" cy="138.2" r="4.5" class="e"/><circle cx="57.6" cy="137.3" r="1" class="d"/><circle cx="180.5" cy="102.5" r="4.5" class="e"/><circle cx="178.9" cy="101.5" r="1" class="d"/><circle cx="58.3" cy="111.1" r="2.9" class="e"/><circle cx="57.3" cy="110.5" r=".6" class="d"/><circle cx="64.4" cy="155.6" r="2.9" class="e"/><circle cx="63.4" cy="155" r=".6" class="d"/><circle cx="176" cy="86" r="2.9" class="e"/><circle cx="175" cy="85.3" r=".6" class="d"/><circle cx="78" cy="173.2" r="3.6" class="e"/><circle cx="76.7" cy="172.4" r=".8" class="d"/><circle cx="61.1" cy="121.5" r="1.5" class="e"/><circle cx="61.5" cy="165.6" r="1.5" class="e"/><circle cx="83.6" cy="181.3" r="2.1" class="e"/><circle cx="90.5" cy="182.8" r="1.5" class="e"/><circle cx="175.7" cy="75.8" r="2.1" class="e"/><circle cx="163.2" cy="93" r="2.1" class="e"/><circle cx="185" cy="90.9" r="2.1" class="e"/><circle cx="170" cy="70.9" r="1.5" class="e"/><path d="M98.9 92.5s-1.3-3.6-16.2-4.4c0 0-11.5-.7-7.1-14.6 0 0 1.8-5.5-2.7-.6-5.2 5.7-5.8 20.7 9.5 21.6s16.5-2 16.5-2z" class="j"/><ellipse cx="71.9" cy="76.4" class="f" rx=".9" ry=".5" transform="rotate(-72.8 72 76.4)"/><ellipse cx="70.9" cy="80.5" class="f" rx="1.1" ry=".5" transform="rotate(-81 70.9 80.5)"/><ellipse cx="71.2" cy="84.9" class="f" rx=".6" ry="1.2" transform="rotate(-15.3 71.2 84.9)"/><ellipse cx="73.7" cy="89.2" class="f" rx=".7" ry="1.4" transform="rotate(-47.7 73.7 89.2)"/><ellipse cx="78.2" cy="91.8" class="f" rx=".7" ry="1.5" transform="rotate(-69.5 78.3 91.8)"/><path d="M92.8 94.5l3.4-4a38 38 0 0 0-13-2.4c2.3 1 3.4 3.2.1 6.5a64 64 0 0 0 9.5 0z"/><path d="M72.3 113.7c-1.9 3.5-1.8-1.7-1.8-1.7s-.2-10.6 11.2-18.5c12.5-8.6 20.5 0 20.5 0 11.3 11.2 4.8 18.1 1.2 21.5-4.2 3.8-8.7 6-11.6 10.2-2.5 3.4-5.6 7-3.7.3 1.8-6.5 7-11.6 9.8-14 3.3-3 3.2-6 3.2-6-1.2 3.8-7.6 7-10.7 10.1a25 25 0 0 0-7.3 12.1c-.8 4.3-2.3 4.7-2.8 0-1.1-11.4 8.5-18.8 12-21.8 3.2-2.7 3.6-4 3.6-4a42.3 42.3 0 0 0-21 22.8c-3 6.8-3.7 1.5-2-4.7a35.3 35.3 0 0 1 18.7-23.5s-10.7 1-19.3 17.2z" class="j"/><path d="M102.2 93.6A14.2 14.2 0 0 0 88 90.4c4 .9 20.4 5.3 20.2 18 1.2-3.7.4-8.6-5.9-14.8z"/><path d="M126.4 107c-12.8-1-36-17.6-40.7-29.5C82.1 68.2 93.3 51 104 49c15.4-2.7 42.1 15.8 43 31.6.8 11.4-11 27.2-20.6 26.5z" class="j"/><path d="M103.1 52a19.5 19.5 0 0 1 9.2-13.8 20.9 20.9 0 0 1 7.8 15.1M145.5 77a19.5 19.5 0 0 0-1.5-16.5 20.9 20.9 0 0 0-14 9.5" class="j"/><path fill="#f4cbb2" d="M108.1 96.2c10.5 7.7 19.4 11 26.2 4.5s4-15-.3-17.6l-10.7-6.7-1-.8s-6-4.6-9.6-8-12.6-3.4-16.8 5 1.7 15.9 12.2 23.6z"/><circle cx="115.2" cy="87.5" r="1.4" class="g"/><ellipse cx="106" cy="77.2" class="k" rx="6.9" ry="4.8" transform="rotate(-47.7 106 77.2)"/><ellipse cx="106" cy="79" class="g" rx="5.3" ry="3.4" transform="rotate(-35.7 106 79)"/><circle cx="106.6" cy="77.5" r=".9" class="k"/><ellipse cx="126.8" cy="93" class="k" rx="6.9" ry="4.8" transform="rotate(-47.7 126.9 93)"/><ellipse cx="126.8" cy="94.8" class="g" rx="5.3" ry="3.4" transform="rotate(-35.7 126.8 94.8)"/><circle cx="127.5" cy="93.2" r=".9" class="k"/><path d="M110 87.5l6.4 5s-2.8 3.2-6 1-.4-6-.4-6z" class="g"/><path fill="#e8a3d3" d="M107.7 86.2s7 1.7 3.8 8.7l-5.9-4.5z" clip-path="url(#c3)"/><path stroke="#211f1f" stroke-width=".4" d="M93 67.1s-15.6-8.5-27.6-9.9m26.1 13.6s-16.8-6-28.8-5.3m68.3 39.4s4.8 10.1 4 18.7m-7.5-17.6s1.2 4.9-.2 16.8" class="m o"/><path fill="#e5a785" d="M107.7 97.3zm4.5-28.6c3.7 3.4 9.7 8 9.7 8l1 .8s6.3 4.3 10.6 6.8c3.3 1.8 5.6 7 3.8 12.2 2.6-5.6.1-11.4-3.3-13.3-4.3-2.5-10.6-6.8-10.6-6.8l-1-.8s-6-4.6-9.7-8-12.6-3.4-16.8 5a16.4 16.4 0 0 0-.7 1.6l.2-.5c4.3-8.4 13.2-8.4 16.8-5zm-4.1 27.5z"/><path d="M85.1 203.3l-2.8 2.3.6-3.6-.6-.3-2.7 2.3.6-3.6-.7-.3-.7 4.4.6.4 2.7-2.2-.5 3.4.6.4 3.5-2.9-.6-.3zm3.6 2a2.3 2.3 0 0 0-2-1 2 2 0 0 0-1 .4 2.4 2.4 0 0 0-1 2 2 2 0 0 0 .4 1 2.7 2.7 0 0 0 1.9 1 1.8 1.8 0 0 0 .8-.2l-.1-.6a1.7 1.7 0 0 1-2.2-.8 1.3 1.3 0 0 1 0-1l3.1 1.5.2-.2a2.4 2.4 0 0 0 .2-1.2 1.9 1.9 0 0 0-.3-1zm-.5 1.5l-2.4-1.2a1.4 1.4 0 0 1 .8-.6 1.3 1.3 0 0 1 1 .1 1.4 1.4 0 0 1 .7.7 1.4 1.4 0 0 1 0 1zm5.4.6a2.2 2.2 0 0 0-.9-.7 2 2 0 0 0-.8-.1 1.6 1.6 0 0 0-.8.2l.9-2.2-.7-.3-2.3 5.5.7.3.2-.6a1.7 1.7 0 0 0 .4.7 2 2 0 0 0 .8.5 2.4 2.4 0 0 0 1 .2 2 2 0 0 0 1-.4 2.2 2.2 0 0 0 .8-1 2.2 2.2 0 0 0 .1-1.1 2 2 0 0 0-.4-1zm-.4 1.9a1.7 1.7 0 0 1-.5.6 1.4 1.4 0 0 1-.7.3 1.4 1.4 0 0 1-.7-.1 1.4 1.4 0 0 1-.6-.5 1.4 1.4 0 0 1-.3-.6 1.8 1.8 0 0 1 .6-1.5 1.3 1.3 0 0 1 .7-.3 1.4 1.4 0 0 1 .7.1 1.5 1.5 0 0 1 .6.5 1.4 1.4 0 0 1 .3.6 1.6 1.6 0 0 1-.1.8zm4.6-.7a2.3 2.3 0 0 0-.9 0 1.5 1.5 0 0 0-.7.1l.7-2.1-.7-.3-2 5.7.8.2.7-2a1.4 1.4 0 0 1 .7-.9 1.3 1.3 0 0 1 1 0 1 1 0 0 1 .7.6 1.3 1.3 0 0 1 0 1l-.8 2.1.8.3.8-2.4a1.9 1.9 0 0 0 0-1.4 1.8 1.8 0 0 0-1.1-.9zm4.2 0a.5.5 0 0 0 0-.4.5.5 0 0 0-.3-.2.5.5 0 0 0-.4 0 .5.5 0 0 0-.3.3.5.5 0 0 0 0 .4.5.5 0 0 0 .4.2.5.5 0 0 0 .4 0 .5.5 0 0 0 .2-.3zm-2.4 5.2l1.2-4 .8.2-1.2 4zm5.4-3a2.2 2.2 0 0 0-.8 0 1.5 1.5 0 0 0-.8.3l.2-.7-.7-.1-1 4 .7.3.5-2.2a1.4 1.4 0 0 1 .6-.9 1.3 1.3 0 0 1 1-.1 1.1 1.1 0 0 1 .8.5 1.3 1.3 0 0 1 0 1l-.5 2.3.7.2.6-2.4a1.8 1.8 0 0 0-.1-1.4 1.7 1.7 0 0 0-1.1-.8zm4.2 0l-.8-.2-.2 1-.7-.2v.6l.6.2-.4 2.2a1.3 1.3 0 0 0 .1 1 1.4 1.4 0 0 0 1 .6 1.8 1.8 0 0 0 .4 0 1 1 0 0 0 .5-.2l-.1-.6a1 1 0 0 1-.7.1.6.6 0 0 1-.4-.3.7.7 0 0 1 0-.5l.4-2.3 1.2.3v-.6l-1.1-.3zm1.9 4.5a.6.6 0 0 0-.4.1.5.5 0 0 0-.2.4.5.5 0 0 0 0 .4.5.5 0 0 0 .4.2.5.5 0 0 0 .4-.1.6.6 0 0 0 .1-.8.6.6 0 0 0-.3-.2zm2.7-4.6a.5.5 0 0 0-.3 0 .5.5 0 0 0-.2.4.5.5 0 0 0 0 .4.5.5 0 0 0 .4.2.5.5 0 0 0 .4-.1.5.5 0 0 0 .2-.4.5.5 0 0 0-.1-.3.6.6 0 0 0-.4-.2zm-1.2 5.9l.6-4.1h.8l-.6 4.2zm6.4-2.5a2 2 0 0 0-.7-.8 2.3 2.3 0 0 0-1.1-.4 2.2 2.2 0 0 0-1.2.1 2 2 0 0 0-.9.7 2.3 2.3 0 0 0-.4 1 2.3 2.3 0 0 0 .2 1.2 2 2 0 0 0 .7.8 2.2 2.2 0 0 0 1.1.4 2.3 2.3 0 0 0 1.2-.1 2 2 0 0 0 .8-.7 2.3 2.3 0 0 0 .4-1 2.3 2.3 0 0 0-.1-1.2zm-.9 1.8a1.3 1.3 0 0 1-.5.5 1.4 1.4 0 0 1-.8.1 1.3 1.3 0 0 1-.7-.2 1.4 1.4 0 0 1-.4-.6 1.5 1.5 0 0 1-.1-.8 1.5 1.5 0 0 1 .2-.8 1.4 1.4 0 0 1 .6-.4 1.4 1.4 0 0 1 .7-.1 1.4 1.4 0 0 1 .7.2 1.4 1.4 0 0 1 .5.6 1.7 1.7 0 0 1 .1.8 1.7 1.7 0 0 1-.3.7z" class="d"/></svg>