<svg id="sticker" xmlns="http://www.w3.org/2000/svg" xmlns:xlink="http://www.w3.org/1999/xlink" viewBox="0 0 252 252"><defs><style>.cls-1,.cls-22,.cls-27,.cls-58,.cls-60,.cls-61,.cls-69{fill:none;}.cls-2{fill:#fff;}.cls-3{fill:url(#linear-gradient);}.cls-4{clip-path:url(#clip-path);}.cls-5{fill:#f9eeca;opacity:0.8;}.cls-6,.cls-7{fill:#5c8ebf;}.cls-6{opacity:0.4;}.cls-8{fill:#13444f;}.cls-9{fill:#226172;}.cls-10{fill:#38ba51;}.cls-11{fill:#f5f5f5;}.cls-12{fill:#208431;}.cls-13{fill:#ede29f;}.cls-14{fill:#baad6e;}.cls-15{fill:#0f323a;}.cls-16{fill:#a9a9a9;}.cls-17{fill:#219fd6;}.cls-18{fill:#1981a5;}.cls-19{fill:#d86a44;}.cls-20{fill:#684841;}.cls-21{fill:#efb9ab;}.cls-22{stroke:#efb9ab;}.cls-22,.cls-27{stroke-miterlimit:10;stroke-width:0.57px;}.cls-23{fill:#d2d2d2;}.cls-24{fill:#3c4c56;}.cls-25{fill:#50616d;}.cls-26{fill:#f2e1c0;}.cls-27{stroke:#3c4c56;}.cls-28{fill:#e2a069;}.cls-29{fill:#efd2a3;}.cls-30{fill:#a5693c;}.cls-31{fill:#aa906a;}.cls-32{fill:#eaac7d;}.cls-33{fill:#bf8156;}.cls-34{fill:#0b2f35;}.cls-35{fill:#cc441f;}.cls-36{fill:#a33319;}.cls-37{fill:#eabd9b;opacity:0.3;}.cls-38{fill:url(#linear-gradient-2);}.cls-39{fill:#4a7689;}.cls-40{fill:#2e5968;}.cls-41{fill:#3796af;}.cls-42{fill:#1bacce;}.cls-43{fill:#15ccea;}.cls-44{fill:#b49485;}.cls-45{fill:#b6978a;}.cls-46{fill:#c1b8a9;}.cls-47{fill:#b0897d;}.cls-48{fill:#9da8b4;}.cls-49{fill:url(#radial-gradient);}.cls-50{fill:#e4f5f9;}.cls-51,.cls-65,.cls-71{fill:#d4dbe8;}.cls-51,.cls-71{stroke:#687c99;}.cls-51,.cls-57,.cls-58,.cls-59,.cls-60,.cls-61,.cls-67,.cls-68,.cls-69,.cls-71{stroke-linecap:round;stroke-linejoin:round;}.cls-51,.cls-57,.cls-58,.cls-59,.cls-60,.cls-61,.cls-67,.cls-68,.cls-69{stroke-width:1.38px;}.cls-52{fill:#475d77;}.cls-53,.cls-57{fill:#96a3e2;}.cls-54{clip-path:url(#clip-path-2);}.cls-55{fill:#bbc6ef;}.cls-56{fill:#6b7fc6;}.cls-57,.cls-58{stroke:#1c418c;}.cls-59{fill:#cae8ef;}.cls-59,.cls-61{stroke:#4b8087;}.cls-60{stroke:#82bbc4;}.cls-62{fill:#402b5e;}.cls-63{clip-path:url(#clip-path-3);}.cls-64{fill:#e87ce1;}.cls-66{fill:#687c99;}.cls-67{fill:#bfd4f7;stroke:#668dbc;}.cls-68{fill:#3579db;}.cls-68,.cls-69{stroke:#3c62a0;}.cls-70{fill:#2962ff;}.cls-71{stroke-width:0.86px;}.cls-72{fill:#060b1c;}.cls-73{fill:#2b5599;}</style><linearGradient id="linear-gradient" x1="126" y1="173.24" x2="126" y2="26.32" gradientUnits="userSpaceOnUse"><stop offset="0.19" stop-color="#9ac2d8"/><stop offset="0.38" stop-color="#d8b6e0"/><stop offset="1" stop-color="#3ba6f4"/></linearGradient><clipPath id="clip-path"><circle class="cls-1" cx="126" cy="126" r="99.78"/></clipPath><linearGradient id="linear-gradient-2" x1="125.61" y1="161.72" x2="125.61" y2="142.84" gradientUnits="userSpaceOnUse"><stop offset="0" stop-color="#fff" stop-opacity="0.4"/><stop offset="1" stop-color="#fff" stop-opacity="0"/></linearGradient><radialGradient id="radial-gradient" cx="204.28" cy="60.86" r="106.81" gradientUnits="userSpaceOnUse"><stop offset="0" stop-color="#fffee3" stop-opacity="0.7"/><stop offset="1" stop-color="#fffee3" stop-opacity="0"/></radialGradient><clipPath id="clip-path-2"><path class="cls-1" d="M162.18,167.25C87,202.53,80.75,127.08,80.75,127.08S79.28,93.57,114.2,93.57c30.25,0,31.25,33.51,31.25,33.51s-4,41,15,32.24c0,0-5-14,14.9-17.76,0,0,3.58,13.6-5.16,17.33,0,0,9.88,2,10,14.75C167.37,177.22,162.18,167.25,162.18,167.25Z"/></clipPath><clipPath id="clip-path-3"><path class="cls-1" d="M101.43,116.46l10.58,1.4s-1.07,7.65-7.47,6.92C99.33,124.19,101.43,116.46,101.43,116.46Z"/></clipPath></defs><title>webhint_sticker_6</title><circle class="cls-2" cx="126" cy="126" r="107.53"/><circle class="cls-3" cx="126" cy="126" r="99.78"/><g class="cls-4"><path class="cls-5" d="M63.83,64.61c-.19,0-.37,0-.55,0A12.66,12.66,0,0,0,63.39,63a12.33,12.33,0,0,0-24.65,0c0,.36,0,.71,0,1.06a10.15,10.15,0,1,0-5.32,18.8H63.83a9.13,9.13,0,0,0,0-18.25Z"/><path class="cls-5" d="M98.19,49.4l-.33,0a6.37,6.37,0,0,0,.07-1,7.31,7.31,0,0,0-14.61,0c0,.22,0,.42,0,.63a6,6,0,1,0-3.16,11.15h18a5.41,5.41,0,0,0,0-10.82Z"/><polygon class="cls-6" points="207.76 127.35 216.93 127.35 216.93 139.17 220.22 139.17 220.22 118.35 230.25 118.35 230.25 149.56 219.65 174.96 210.77 176.65 203.91 153.32 207.76 127.35"/><polygon class="cls-7" points="177.24 130.38 183.98 130.38 183.98 165.22 175.34 165.22 177.24 130.38"/><polygon class="cls-7" points="198.07 166.03 198.07 120.88 203.32 120.88 203.32 108.95 211.44 108.95 211.44 145.72 228.34 145.72 222.42 168.21 198.83 167.12 198.07 166.03"/><polygon class="cls-8" points="193.1 166.06 193.1 130.29 206.66 143.84 206.66 166.06 193.1 166.06"/><rect class="cls-9" x="161.69" y="122.8" width="16.91" height="43.24"/><rect class="cls-8" x="163.05" y="124.32" width="14.18" height="1.38"/><rect class="cls-8" x="163.05" y="126.66" width="14.18" height="1.38"/><rect class="cls-8" x="163.05" y="129" width="14.18" height="1.38"/><rect class="cls-8" x="163.05" y="131.34" width="14.18" height="1.38"/><rect class="cls-8" x="163.05" y="133.68" width="14.18" height="1.38"/><rect class="cls-8" x="163.05" y="136.02" width="14.18" height="1.38"/><rect class="cls-8" x="163.05" y="138.36" width="14.18" height="1.38"/><rect class="cls-8" x="163.05" y="140.7" width="14.18" height="1.38"/><rect class="cls-8" x="163.05" y="143.04" width="14.18" height="1.38"/><rect class="cls-8" x="163.05" y="145.38" width="14.18" height="1.38"/><rect class="cls-8" x="163.05" y="147.72" width="14.18" height="1.38"/><rect class="cls-8" x="163.05" y="150.06" width="14.18" height="1.38"/><rect class="cls-8" x="163.05" y="152.39" width="14.18" height="1.38"/><rect class="cls-8" x="163.05" y="154.73" width="14.18" height="1.38"/><rect class="cls-8" x="163.05" y="157.07" width="14.18" height="1.38"/><rect class="cls-8" x="163.05" y="159.41" width="14.18" height="1.38"/><rect class="cls-8" x="163.05" y="161.75" width="14.18" height="1.38"/><polygon class="cls-7" points="78.09 150.58 83.57 150.58 83.57 159.94 95.02 159.94 95.02 167.12 78.09 167.12 78.09 150.58"/><path class="cls-7" d="M36.6,91.6v41.49H48.18V91.6Zm5,11.88H39.07v-3.34h2.49Zm4.15-5.23H43.22V94.91h2.49Z"/><rect class="cls-7" x="23.99" y="109.4" width="14.47" height="17.89"/><rect class="cls-10" x="44" y="104.36" width="24.9" height="47.05"/><rect class="cls-11" x="43.46" y="103.48" width="25.99" height="1.77"/><rect class="cls-12" x="50.21" y="107.94" width="3.28" height="4.05"/><rect class="cls-12" x="59.42" y="107.94" width="3.28" height="4.05"/><rect class="cls-12" x="50.21" y="116.25" width="3.28" height="4.05"/><rect class="cls-12" x="59.42" y="116.25" width="3.28" height="4.05"/><rect class="cls-12" x="50.21" y="124.56" width="3.28" height="4.05"/><rect class="cls-12" x="59.42" y="124.56" width="3.28" height="4.05"/><polygon class="cls-13" points="41.04 114.87 41.04 113.49 38.55 113.49 38.55 110.78 37.5 110.78 37.5 112.41 36.97 112.41 36.97 110.78 36.07 110.78 36.07 114.87 41.04 114.87"/><polygon class="cls-13" points="32.49 151.46 32.49 115.73 52.01 115.73 52.01 122.24 57.72 122.24 57.72 150.58 32.49 151.46"/><rect class="cls-14" x="35.73" y="119.57" width="1.69" height="2.49"/><rect class="cls-14" x="37.86" y="119.57" width="1.69" height="2.49"/><rect class="cls-14" x="35.73" y="122.47" width="1.69" height="2.49"/><rect class="cls-14" x="37.86" y="122.47" width="1.69" height="2.49"/><rect class="cls-14" x="35.75" y="125.36" width="1.69" height="2.49"/><rect class="cls-14" x="37.88" y="125.36" width="1.69" height="2.49"/><rect class="cls-14" x="44.37" y="119.57" width="1.69" height="2.49"/><rect class="cls-14" x="46.49" y="119.57" width="1.69" height="2.49"/><rect class="cls-14" x="44.37" y="122.47" width="1.69" height="2.49"/><rect class="cls-14" x="46.49" y="122.47" width="1.69" height="2.49"/><rect class="cls-14" x="44.39" y="125.36" width="1.69" height="2.49"/><rect class="cls-14" x="46.51" y="125.36" width="1.69" height="2.49"/><rect class="cls-14" x="44.37" y="130.59" width="1.69" height="2.49"/><rect class="cls-14" x="46.49" y="130.59" width="1.69" height="2.49"/><rect class="cls-14" x="44.37" y="133.49" width="1.69" height="2.49"/><rect class="cls-14" x="46.49" y="133.49" width="1.69" height="2.49"/><rect class="cls-14" x="44.39" y="136.39" width="1.69" height="2.49"/><rect class="cls-14" x="46.51" y="136.39" width="1.69" height="2.49"/><rect class="cls-11" x="32" y="114.68" width="20.44" height="1.05"/><rect class="cls-11" x="52.03" y="121.54" width="6.25" height="1.05"/><rect class="cls-9" x="51.32" y="131.5" width="12.8" height="38.13"/><rect class="cls-15" x="53.48" y="134.11" width="2.27" height="2.27"/><rect class="cls-15" x="56.58" y="134.11" width="2.27" height="2.27"/><rect class="cls-15" x="59.68" y="134.11" width="2.27" height="2.27"/><rect class="cls-15" x="53.48" y="137.4" width="2.27" height="2.27"/><rect class="cls-15" x="56.58" y="137.4" width="2.27" height="2.27"/><rect class="cls-15" x="59.68" y="137.4" width="2.27" height="2.27"/><rect class="cls-15" x="53.48" y="140.7" width="2.27" height="2.27"/><rect class="cls-15" x="56.58" y="140.7" width="2.27" height="2.27"/><rect class="cls-15" x="59.68" y="140.7" width="2.27" height="2.27"/><rect class="cls-15" x="53.48" y="143.99" width="2.27" height="2.27"/><rect class="cls-15" x="56.58" y="143.99" width="2.27" height="2.27"/><rect class="cls-15" x="59.68" y="143.99" width="2.27" height="2.27"/><rect class="cls-15" x="53.48" y="147.29" width="2.27" height="2.27"/><rect class="cls-15" x="56.58" y="147.29" width="2.27" height="2.27"/><rect class="cls-15" x="59.68" y="147.29" width="2.27" height="2.27"/><rect class="cls-15" x="53.48" y="150.58" width="2.27" height="2.27"/><rect class="cls-15" x="56.58" y="150.58" width="2.27" height="2.27"/><rect class="cls-15" x="59.68" y="150.58" width="2.27" height="2.27"/><rect class="cls-15" x="53.48" y="153.87" width="2.27" height="2.27"/><rect class="cls-15" x="56.58" y="153.87" width="2.27" height="2.27"/><rect class="cls-15" x="59.68" y="153.87" width="2.27" height="2.27"/><rect class="cls-15" x="53.48" y="157.17" width="2.27" height="2.27"/><rect class="cls-15" x="56.58" y="157.17" width="2.27" height="2.27"/><rect class="cls-15" x="59.68" y="157.17" width="2.27" height="2.27"/><rect class="cls-15" x="53.48" y="160.46" width="2.27" height="2.27"/><rect class="cls-15" x="56.58" y="160.46" width="2.27" height="2.27"/><rect class="cls-15" x="59.68" y="160.46" width="2.27" height="2.27"/><rect class="cls-15" x="53.48" y="163.76" width="2.27" height="2.27"/><rect class="cls-15" x="56.58" y="163.76" width="2.27" height="2.27"/><rect class="cls-15" x="59.68" y="163.76" width="2.27" height="2.27"/><rect class="cls-16" x="42.89" y="139.89" width="5.24" height="4.12"/><rect class="cls-11" x="41.56" y="142.99" width="13.15" height="26.64"/><rect class="cls-16" x="44.04" y="145.33" width="2.82" height="2.82"/><rect class="cls-16" x="49.2" y="145.33" width="2.82" height="2.82"/><rect class="cls-16" x="44.04" y="150.2" width="2.82" height="2.82"/><rect class="cls-16" x="49.2" y="150.2" width="2.82" height="2.82"/><rect class="cls-16" x="44.04" y="155.07" width="2.82" height="2.82"/><rect class="cls-16" x="49.2" y="155.07" width="2.82" height="2.82"/><rect class="cls-16" x="44.04" y="159.94" width="2.82" height="2.82"/><rect class="cls-16" x="49.2" y="159.94" width="2.82" height="2.82"/><rect class="cls-16" x="44.04" y="164.81" width="2.82" height="2.82"/><rect class="cls-16" x="49.2" y="164.81" width="2.82" height="2.82"/><rect class="cls-17" x="20.17" y="127.29" width="21.39" height="44.01"/><rect class="cls-18" x="26.38" y="131.67" width="12.22" height="4.11"/><rect class="cls-18" x="26.38" y="138.88" width="4.11" height="4.11"/><rect class="cls-18" x="34.36" y="138.88" width="4.11" height="4.11"/><rect class="cls-18" x="26.38" y="146.09" width="4.11" height="4.11"/><rect class="cls-18" x="34.36" y="146.09" width="4.11" height="4.11"/><rect class="cls-18" x="26.45" y="153.3" width="4.11" height="4.11"/><rect class="cls-18" x="34.42" y="153.3" width="4.11" height="4.11"/><rect class="cls-11" x="19.64" y="126.13" width="22.58" height="1.77"/><rect class="cls-19" x="60.81" y="137.4" width="19.29" height="33.33"/><rect class="cls-11" x="60.22" y="136.99" width="20.46" height="2.21"/><path class="cls-20" d="M66.42,142.31h0a2.26,2.26,0,0,1,2.26,2.26v9.9a0,0,0,0,1,0,0H64.16a0,0,0,0,1,0,0v-9.9A2.26,2.26,0,0,1,66.42,142.31Z"/><path class="cls-20" d="M74.44,142.31h0a2.26,2.26,0,0,1,2.26,2.26v9.9a0,0,0,0,1,0,0H72.19a0,0,0,0,1,0,0v-9.9A2.26,2.26,0,0,1,74.44,142.31Z"/><path class="cls-21" d="M66.4,142a2.55,2.55,0,0,0-2.55,2.54v10.24h5.09V144.57A2.54,2.54,0,0,0,66.4,142Zm-.29.6v3.24H64.43v-1.3A2,2,0,0,1,66.11,142.63Zm.57,6.59h1.69v2.19H66.68Zm-.57,2.19H64.43v-2.19h1.68Zm.57-2.77v-2.19h1.69v2.19Zm-.57,0H64.43v-2.19h1.68ZM64.43,152h1.68v2.25H64.43Zm2.25,2.25V152h1.69v2.25Zm1.69-8.37H66.68v-3.24a2,2,0,0,1,1.69,1.94Z"/><path class="cls-21" d="M74.5,142A2.54,2.54,0,0,0,72,144.57v10.24H77V144.57A2.54,2.54,0,0,0,74.5,142Zm2,2.54v1.3H74.79v-3.24A2,2,0,0,1,76.47,144.57Zm-2.25,4.65v2.19H72.53v-2.19Zm-1.69-.58v-2.19h1.69v2.19Zm2.26.58h1.68v2.19H74.79Zm0-.58v-2.19h1.68v2.19Zm-.57-6v3.24H72.53v-1.3A2,2,0,0,1,74.22,142.63ZM72.53,152h1.69v2.25H72.53Zm2.26,2.25V152h1.68v2.25Z"/><rect class="cls-20" x="64.16" y="157.89" width="4.51" height="8.15"/><rect class="cls-20" x="72.24" y="158.3" width="4.55" height="4.17"/><rect class="cls-22" x="72.24" y="158.3" width="4.55" height="4.17"/><line class="cls-22" x1="76.59" y1="160.38" x2="72.43" y2="160.38"/><rect class="cls-23" x="20.73" y="166.03" width="208.01" height="2.18"/><rect class="cls-24" x="154.15" y="71.51" width="21.65" height="2.01"/><rect class="cls-24" x="153.92" y="74.81" width="22.11" height="3.72"/><rect class="cls-25" x="161.67" y="79.56" width="5.24" height="86.47"/><path class="cls-26" d="M171.58,163.88l1.7-.24c-.06-.38-5.34-38.58-5.34-51.64s3.39-32.12,3.42-32.31l-1.69-.31c0,.12-1.18,6.66-2.15,14.71h0s-.45,4-1.3,3.93-1.16-4.22-1.16-4.22l-.4-14.28-1.72,0,1.81,64.67h-5.23c1.39-11.61,2.83-25.35,2.83-32.23,0-13.2-3.41-32.42-3.45-32.62l-1.69.31c0,.19,3.42,19.26,3.42,32.31s-5.28,51.26-5.33,51.64l1.7.24c0-.18,1.16-8.39,2.38-18.48h5.4l.58,20.66,1.72-.05-.14-5.15h4.23C171.41,162.71,171.57,163.81,171.58,163.88Zm-5.5-33.59h1.42c.21,2.1.44,4.24.68,6.38h-1.92Zm.18-7.21c.45,0,.87,3.59,1.05,5.23,0,.26.05.52.07.79h-1.33l-.11-3.81C166,124.1,166,123.09,166.26,123.08Zm0,14.77h2c.25,2.16.5,4.3.75,6.38h-2.59Zm2.91,7.55c.28,2.38.57,4.65.83,6.74h-3.34l-.19-6.74Zm-2.3,14.29-.18-6.37h3.46c.32,2.47.6,4.64.83,6.37Z"/><path class="cls-26" d="M152.17,78.2h25.69a1.6,1.6,0,0,1-1.6,1.6H153.77a1.6,1.6,0,0,1-1.6-1.6Z"/><path class="cls-25" d="M165.39,74.43H149.64l.93.56a5.68,5.68,0,0,0,3,.82h22.91a5.68,5.68,0,0,0,2.95-.82l.93-.56Z"/><path class="cls-26" d="M165.39,74.43H149.64l.93-.57a5.78,5.78,0,0,1,3-.82h22.91a5.78,5.78,0,0,1,2.95.82l.93.57Z"/><path class="cls-26" d="M169.39,69.18a.9.9,0,0,1-.27-1.54l.88-.75H160l.88.75a.9.9,0,0,1-.27,1.54l-6.41,2.33H175.8Z"/><polygon class="cls-24" points="168.29 65.45 167.05 65.45 167.05 65.86 165.02 65.86 164.93 65.86 162.9 65.86 162.9 65.45 161.66 65.45 160.91 66.89 164.93 66.89 165.02 66.89 169.03 66.89 168.29 65.45"/><rect class="cls-24" x="163.93" y="64.4" width="2.09" height="1.46"/><line class="cls-27" x1="164.97" y1="65.13" x2="164.97" y2="54.58"/><rect class="cls-28" x="175.34" y="140.7" width="15.76" height="25.33"/><rect class="cls-29" x="179.15" y="142.08" width="8.13" height="23.95"/><rect class="cls-30" x="176.6" y="142.56" width="1.04" height="1"/><rect class="cls-30" x="176.6" y="144.72" width="1.04" height="1"/><rect class="cls-30" x="176.6" y="146.89" width="1.04" height="1"/><rect class="cls-30" x="176.6" y="149.06" width="1.04" height="1"/><rect class="cls-30" x="176.6" y="151.22" width="1.04" height="1"/><rect class="cls-30" x="176.6" y="153.39" width="1.04" height="1"/><rect class="cls-30" x="176.6" y="155.56" width="1.04" height="1"/><rect class="cls-30" x="176.6" y="157.72" width="1.04" height="1"/><rect class="cls-30" x="176.6" y="159.89" width="1.04" height="1"/><rect class="cls-30" x="176.6" y="162.06" width="1.04" height="1"/><rect class="cls-30" x="176.6" y="164.22" width="1.04" height="1"/><rect class="cls-30" x="188.69" y="142.56" width="1.04" height="1"/><rect class="cls-30" x="188.69" y="144.72" width="1.04" height="1"/><rect class="cls-30" x="188.69" y="146.89" width="1.04" height="1"/><rect class="cls-30" x="188.69" y="149.06" width="1.04" height="1"/><rect class="cls-30" x="188.69" y="151.22" width="1.04" height="1"/><rect class="cls-30" x="188.69" y="153.39" width="1.04" height="1"/><rect class="cls-30" x="188.69" y="155.56" width="1.04" height="1"/><rect class="cls-30" x="188.69" y="157.72" width="1.04" height="1"/><rect class="cls-30" x="188.69" y="159.89" width="1.04" height="1"/><rect class="cls-30" x="188.69" y="162.06" width="1.04" height="1"/><rect class="cls-30" x="188.69" y="164.22" width="1.04" height="1"/><rect class="cls-31" x="179.9" y="142.87" width="1.72" height="1.34"/><rect class="cls-31" x="182.26" y="142.87" width="1.72" height="1.34"/><rect class="cls-31" x="184.63" y="142.87" width="1.72" height="1.34"/><rect class="cls-31" x="179.9" y="144.97" width="1.72" height="1.34"/><rect class="cls-31" x="182.26" y="144.97" width="1.72" height="1.34"/><rect class="cls-31" x="184.63" y="144.97" width="1.72" height="1.34"/><rect class="cls-31" x="179.9" y="147.07" width="1.72" height="1.34"/><rect class="cls-31" x="182.26" y="147.07" width="1.72" height="1.34"/><rect class="cls-31" x="184.63" y="147.07" width="1.72" height="1.34"/><rect class="cls-31" x="179.9" y="149.17" width="1.72" height="1.34"/><rect class="cls-31" x="182.26" y="149.17" width="1.72" height="1.34"/><rect class="cls-31" x="184.63" y="149.17" width="1.72" height="1.34"/><rect class="cls-31" x="179.9" y="151.27" width="1.72" height="1.34"/><rect class="cls-31" x="182.26" y="151.27" width="1.72" height="1.34"/><rect class="cls-31" x="184.63" y="151.27" width="1.72" height="1.34"/><rect class="cls-31" x="179.9" y="153.38" width="1.72" height="1.34"/><rect class="cls-31" x="182.26" y="153.38" width="1.72" height="1.34"/><rect class="cls-31" x="184.63" y="153.38" width="1.72" height="1.34"/><rect class="cls-31" x="179.9" y="155.48" width="1.72" height="1.34"/><rect class="cls-31" x="182.26" y="155.48" width="1.72" height="1.34"/><rect class="cls-31" x="184.63" y="155.48" width="1.72" height="1.34"/><rect class="cls-31" x="179.9" y="157.58" width="1.72" height="1.34"/><rect class="cls-31" x="182.26" y="157.58" width="1.72" height="1.34"/><rect class="cls-31" x="184.63" y="157.58" width="1.72" height="1.34"/><rect class="cls-31" x="179.9" y="159.68" width="1.72" height="1.34"/><rect class="cls-31" x="182.26" y="159.68" width="1.72" height="1.34"/><rect class="cls-31" x="184.63" y="159.68" width="1.72" height="1.34"/><rect class="cls-31" x="179.9" y="161.78" width="1.72" height="1.34"/><rect class="cls-31" x="182.26" y="161.78" width="1.72" height="1.34"/><rect class="cls-31" x="184.63" y="161.78" width="1.72" height="1.34"/><rect class="cls-31" x="179.9" y="163.89" width="1.72" height="1.34"/><rect class="cls-31" x="182.26" y="163.89" width="1.72" height="1.34"/><rect class="cls-31" x="184.63" y="163.89" width="1.72" height="1.34"/><rect class="cls-32" x="177.12" y="137.4" width="12.09" height="3.29"/><rect class="cls-30" x="179.9" y="135.4" width="5.73" height="2.01"/><rect class="cls-33" x="178.13" y="138.6" width="10.03" height="1.15"/><rect class="cls-34" x="200.38" y="151.44" width="3.53" height="14.59"/><rect class="cls-35" x="189.21" y="149.56" width="11.72" height="16.48"/><rect class="cls-36" x="189.21" y="149.56" width="2.32" height="16.48"/><polygon class="cls-37" points="80.68 136.99 68.9 136.99 68.9 105.25 69.45 105.25 69.45 103.48 43.46 103.48 43.46 105.25 44 105.25 44 114.68 41.04 114.68 41.04 113.49 38.55 113.49 38.55 110.78 37.5 110.78 37.5 112.41 36.97 112.41 36.97 110.78 36.07 110.78 36.07 114.68 32 114.68 32 115.73 32.49 115.73 32.49 126.14 19.64 126.14 19.64 127.9 20.17 127.9 20.17 171.3 41.56 171.3 41.56 169.63 51.32 169.63 54.71 169.63 60.8 169.63 60.8 170.73 80.09 170.73 80.09 139.19 80.68 139.19 80.68 136.99"/><rect class="cls-38" x="16.04" y="141.37" width="219.15" height="24.67"/><path class="cls-39" d="M27.07,168.21H225.78S214.78,229,125.11,229,27.07,168.21,27.07,168.21Z"/><path class="cls-40" d="M80.09,168.21s1.14.85-2.25,2.09c0,0,4.18,2.34-.8,2.91,0,0,3.07,2.29-2.6,2.63,0,0,4.36,2.91-3,3.15S51,178.32,51,178.32L45.1,172l4.1-3.76Z"/><ellipse class="cls-40" cx="82.64" cy="174.29" rx="2.36" ry="0.67"/><ellipse class="cls-40" cx="85.71" cy="176.31" rx="1.18" ry="0.34"/><ellipse class="cls-40" cx="178.13" cy="182.46" rx="1.53" ry="0.58"/><path class="cls-40" d="M153,168.21s-.07,1.47,2.31,2c0,0-6.63.9.85,2.87,0,0-4,1.45,2,2.77,0,0-1.76,1.76,4.63,2.24-4.78-.22-3.32,3-.95,2.86,0,0-1.15,2,1.91,2.87a3.93,3.93,0,0,0,3.82,3.22c3.51,0,3-2.89,3-2.89s6-.13,2.71-2.1c0,0,6.38-2.36,1.39-4,0,0,6.11-2,2-3.14,0,0,4.94-2,1.45-2.7H184s-4.55,1.81,1.51,3.72c0,0-3.87,1.85.86,3.15,0,0-3.14,1.1.93,2.2,0,0-1.79,1.16,1.93,2,0,0-2.3,1.91,2.32,1.72a6.75,6.75,0,0,0,6.05-4.21s6-2.31,2.8-3.33c0,0,4-1.54.55-2.55,0,0,4.11-.92,1.21-2,0,0,5.68-2,1.77-2.62,0,0,2.76-1.37,2.75-2.1Z"/><ellipse class="cls-40" cx="203.91" cy="172.97" rx="3.01" ry="0.8"/><ellipse class="cls-40" cx="210.41" cy="175.51" rx="3.01" ry="0.8"/><ellipse class="cls-40" cx="179.86" cy="184.28" rx="1.13" ry="0.43"/><ellipse class="cls-40" cx="176.38" cy="185.67" rx="1.13" ry="0.43"/><path class="cls-41" d="M16.25,168.21s20.63-13.91,45.55,7.87,30.66-4.7,62.45-5.44c24.64-.58,37,25,60.16,22.43,26.07-2.86,17.19-16.12,53.86.19L177,236.52l-118-3L21.48,210.45Z"/><path class="cls-42" d="M43.28,196.13s5.53-23.3,24.25-21,27.69,18.53,49.27,12,33-5.26,53.16,2.53,22.47-19.9,52.46-9.59l-35.14,36.28L135,230.7H86.63L51.49,214.27Z"/><path class="cls-43" d="M44.42,208s13.37-18.91,55.48-1.72c27.29,11.14,42.92-40.22,99,5.54l-67.79,23.57-65.71-9.58-16.62-4.44Z"/><ellipse class="cls-42" cx="78.86" cy="171.25" rx="1.88" ry="0.53"/><ellipse class="cls-44" cx="73.29" cy="173.29" rx="1.22" ry="0.34"/><ellipse class="cls-45" cx="77.64" cy="175.3" rx="1.22" ry="0.34"/><ellipse class="cls-46" cx="188.85" cy="171.15" rx="1.88" ry="0.53"/><ellipse class="cls-47" cx="193.26" cy="173.18" rx="1.22" ry="0.34"/><ellipse class="cls-48" cx="188.35" cy="176.31" rx="1.22" ry="0.34"/><circle class="cls-49" cx="204.28" cy="60.86" r="106.81"/></g><polygon class="cls-50" points="132.47 214.92 131.2 211.95 130.4 212 129.44 215.08 128.19 212.12 127.29 212.17 129.02 216.18 129.94 216.12 130.85 213.25 132.06 216 132.98 215.95 134.26 211.78 133.41 211.83 132.47 214.92"/><path class="cls-50" d="M138.76,213.27a2.46,2.46,0,0,0-.4-1.07,1.9,1.9,0,0,0-.82-.64,2.24,2.24,0,0,0-1.1-.14,2.31,2.31,0,0,0-1.05.4,2,2,0,0,0-.65.84,2.13,2.13,0,0,0-.14,1.1,2,2,0,0,0,.41,1,1.87,1.87,0,0,0,.88.65,2.65,2.65,0,0,0,1.21.12,2.37,2.37,0,0,0,.92-.29,1.58,1.58,0,0,0,.63-.57l-.58-.53a1.5,1.5,0,0,1-1,.58,1.44,1.44,0,0,1-.91-.16,1.06,1.06,0,0,1-.52-.65l3.18-.4C138.77,213.43,138.76,213.34,138.76,213.27Zm-3.26,0a1.15,1.15,0,0,1,1-1.14,1.22,1.22,0,0,1,.81.18,1.15,1.15,0,0,1,.46.67Z"/><path class="cls-50" d="M143.49,211.3a1.83,1.83,0,0,0-.86-.59,2.14,2.14,0,0,0-1.1-.07,1.92,1.92,0,0,0-.69.27,1.59,1.59,0,0,0-.5.5l-.37-2.06-.95.17,1,5.6.89-.16-.09-.52a1.46,1.46,0,0,0,.66.32,1.85,1.85,0,0,0,.78,0,2.09,2.09,0,0,0,1-.45,1.87,1.87,0,0,0,.6-.86,2.24,2.24,0,0,0,.07-1.13A2.17,2.17,0,0,0,143.49,211.3Zm-.67,2.18a1.16,1.16,0,0,1-.79.5,1.25,1.25,0,0,1-.64,0,1.09,1.09,0,0,1-.51-.37,1.3,1.3,0,0,1-.28-.63,1.33,1.33,0,0,1,0-.69,1.12,1.12,0,0,1,.35-.52,1.16,1.16,0,0,1,.58-.27,1.18,1.18,0,0,1,.92.19,1.28,1.28,0,0,1,.5.85A1.29,1.29,0,0,1,142.82,213.48Z"/><path class="cls-50" d="M147.93,209.69a1.71,1.71,0,0,0-1.31-.15,2.16,2.16,0,0,0-.72.32,1.46,1.46,0,0,0-.48.51l-.49-2-.93.23,1.34,5.53.93-.23-.49-2a1.3,1.3,0,0,1,.09-1,1.07,1.07,0,0,1,.73-.5.91.91,0,0,1,.77.09,1.17,1.17,0,0,1,.43.73l.53,2.16.93-.23-.55-2.28A1.76,1.76,0,0,0,147.93,209.69Z"/><rect class="cls-50" x="149.94" y="208.64" width="0.96" height="4.09" transform="translate(-52.64 50.11) rotate(-16.14)"/><path class="cls-50" d="M149.2,208a.66.66,0,0,0,.46,0,.6.6,0,0,0,.38-.29.62.62,0,0,0,.05-.46.54.54,0,0,0-.28-.33.63.63,0,0,0-.47,0,.62.62,0,0,0-.37.28.53.53,0,0,0-.05.44A.5.5,0,0,0,149.2,208Z"/><path class="cls-50" d="M155,207.52a1.74,1.74,0,0,0-1.33,0,2.28,2.28,0,0,0-.72.4,1.48,1.48,0,0,0-.43.6l-.17-.5-.86.29,1.3,3.88.91-.31-.66-2a1.25,1.25,0,0,1,0-1,1.08,1.08,0,0,1,.69-.56,1,1,0,0,1,.77,0,1.18,1.18,0,0,1,.5.69l.7,2.11.91-.31-.75-2.22A1.73,1.73,0,0,0,155,207.52Z"/><path class="cls-50" d="M159.1,209.1a.54.54,0,0,1-.45,0,.66.66,0,0,1-.3-.38l-.71-1.81,1-.4-.28-.71-1,.4-.34-.88-.89.35.34.87-.63.25.28.71.63-.24.72,1.83a1.36,1.36,0,0,0,.71.83,1.46,1.46,0,0,0,1.1-.05,1.94,1.94,0,0,0,.45-.25,1.23,1.23,0,0,0,.31-.34l-.5-.54A.88.88,0,0,1,159.1,209.1Z"/><path class="cls-50" d="M161.26,207.87a.62.62,0,0,0-.48,0,.64.64,0,0,0,0,1.18.62.62,0,0,0,.48,0,.6.6,0,0,0,.34-.34.64.64,0,0,0,0-.49A.6.6,0,0,0,161.26,207.87Z"/><path class="cls-50" d="M160.75,203.85a.66.66,0,0,0,.8-.37.57.57,0,0,0,0-.46.5.5,0,0,0-.33-.29.62.62,0,0,0-.46,0,.59.59,0,0,0-.33.33.52.52,0,0,0,0,.44A.59.59,0,0,0,160.75,203.85Z"/><rect class="cls-50" x="161.86" y="204.25" width="0.96" height="4.09" transform="translate(-70.57 85.2) rotate(-24.33)"/><path class="cls-50" d="M167.52,203.77a2.15,2.15,0,0,0-.73-.84,2.07,2.07,0,0,0-1-.31,2.43,2.43,0,0,0-1.13.26,2.4,2.4,0,0,0-.88.75,1.88,1.88,0,0,0-.36,1,2,2,0,0,0,.23,1.09,2.19,2.19,0,0,0,.74.85,2,2,0,0,0,1,.32,2.28,2.28,0,0,0,1.12-.27,2.33,2.33,0,0,0,.89-.74,2.09,2.09,0,0,0,.36-1A2.2,2.2,0,0,0,167.52,203.77Zm-.75,1.42a1.16,1.16,0,0,1-.63.71,1.13,1.13,0,0,1-.93.07,1.24,1.24,0,0,1-.72-.67,1.28,1.28,0,0,1-.12-1,1.17,1.17,0,0,1,.62-.71,1.2,1.2,0,0,1,.94-.08,1.31,1.31,0,0,1,.73.68A1.27,1.27,0,0,1,166.77,205.19Z"/><path class="cls-51" d="M77,121.36s.36-10.35,7.52-6.78,2.94,7.78,2.94,7.78l-6.3,5.23S77.77,128.61,77,121.36Z"/><polygon class="cls-52" points="140.06 117.35 139.67 128.61 153.85 120.64 152.85 118.4 142.25 116.97 140.06 117.35"/><path class="cls-51" d="M136.17,126.06s24-6.63,12.43-7.35c-10-.62-10.36-.52-10.36-.52l-.13-1.45s17.22-1.25,17.89,2.76,5.92,37.1-17.14,36.67.15-21.3.15-21.3l-2.84-8.81"/><path class="cls-53" d="M162.18,167.25C87,202.53,80.75,127.08,80.75,127.08S79.28,93.57,114.2,93.57c30.25,0,31.25,33.51,31.25,33.51s-4,41,15,32.24c0,0-5-14,14.9-17.76,0,0,3.58,13.6-5.16,17.33,0,0,9.88,2,10,14.75C167.37,177.22,162.18,167.25,162.18,167.25Z"/><g class="cls-54"><path class="cls-55" d="M80.39,143.49s5.19-15.18,23.09-12c27.41,4.88,21.78,40.8,46.55,40.09l-3.87,7.9-49-3L75.69,156.22Z"/><ellipse class="cls-56" cx="142.61" cy="120.53" rx="3.38" ry="10.72" transform="translate(-12.98 17.3) rotate(-6.64)"/><path class="cls-56" d="M136.69,129.57c-.95,0-1.45-2.47-1.5-4.71s.45-3.69,1.31-3.41c.67.21,1.26,1.85,1.31,4.09S137.36,129.59,136.69,129.57Z"/></g><path class="cls-57" d="M66.68,131.5c-3.66-7.61-1-16.28-1-16.28a24.29,24.29,0,0,1,8.67,5.09Z"/><path class="cls-51" d="M81.19,126s-5.07-5.79-9.36-8c0,0-5.83,3-6.88,8.69,0,0-.38,17.47,21.49,18.62Z"/><path class="cls-58" d="M162.18,167.25C87,202.53,80.75,127.08,80.75,127.08S79.28,93.57,114.2,93.57c30.25,0,31.25,33.51,31.25,33.51s-4,41,15,32.24c0,0-5-14,14.9-17.76,0,0,3.58,13.6-5.16,17.33,0,0,9.88,2,10,14.75C167.37,177.22,162.18,167.25,162.18,167.25Z"/><path class="cls-59" d="M120.07,96.67c-2.4-10.34-8.32-35.81-8.32-35.81s-3.08,26.07-4.17,35.93c-.34,3,6.55,3.18,6.55,3.18S120.79,100.09,120.07,96.67Z"/><path class="cls-60" d="M119.39,94.46c-1.23.33-7.08,1.29-11.06-2.86"/><path class="cls-60" d="M117.39,85.12a11.72,11.72,0,0,1-8.16-2.26"/><path class="cls-60" d="M115.11,75.32a11.56,11.56,0,0,1-4.86-1.23"/><path class="cls-61" d="M120.07,96.67c-2.4-10.34-8.32-35.81-8.32-35.81s-3.08,26.07-4.17,35.93"/><path class="cls-62" d="M101.43,116.46l10.58,1.4s-1.07,7.65-7.47,6.92C99.33,124.19,101.43,116.46,101.43,116.46Z"/><g class="cls-63"><path class="cls-64" d="M112.78,119.6s-9.92-1.49-13.58,4.92l9.21,2.15Z"/></g><path class="cls-51" d="M80.23,130.05s5.12,51.13,46.89,46.59c34.18-3.71,18.52-34.06,19-50.64l-23.59,11.4-17.19,15s-5.44-2.81-5.72-2.81S84.43,135,84.43,135Z"/><path class="cls-65" d="M80.57,118.33c1.26,17.19,22.1,33.56,22.1,33.56S77,140.93,77,121.52"/><path class="cls-66" d="M81,118.3A29.46,29.46,0,0,0,83.73,128,50.09,50.09,0,0,0,89,136.7a76.39,76.39,0,0,0,6.62,7.76,82.61,82.61,0,0,0,7.51,6.88h0a.68.68,0,0,1,.11,1,.7.7,0,0,1-.81.21h0a62.27,62.27,0,0,1-9.22-5.21A52.8,52.8,0,0,1,85,140.55a34,34,0,0,1-6.24-8.63,23.58,23.58,0,0,1-2.48-10.4.68.68,0,0,1,.68-.69.69.69,0,0,1,.69.69A22.12,22.12,0,0,0,80,131.31a32.37,32.37,0,0,0,6,8.28,51.76,51.76,0,0,0,8,6.58,60.42,60.42,0,0,0,9,5.08h0l-.69,1.18a83.5,83.5,0,0,1-7.57-7.1,77.79,77.79,0,0,1-6.64-8,51.06,51.06,0,0,1-5.25-9,30.19,30.19,0,0,1-2.68-10,.46.46,0,1,1,.91-.08Z"/><path class="cls-51" d="M78.09,116.57s-2.43,4.18-.1,11.34"/><path class="cls-51" d="M103.48,153.87s-.86,18.75,16.62,23"/><path class="cls-51" d="M147.42,122.36c-29.95,9.6-42.65,30.08-42.65,30.08s21.58-19.72,45.79-25"/><path class="cls-67" d="M105.92,154.87l-4.11-.4L99,166.73a17.72,17.72,0,0,0,8.15.77Zm-1.17,10.57a13.37,13.37,0,0,1-3-.36c.14-1.05.43-2.62.43-2.62l2.38.1Z"/><path class="cls-67" d="M104.59,151.61s-2.68-1.51-3.75.64a8.66,8.66,0,0,0-.92,4.31s0,1.77,2.67,2c0,0,1.28-.44.81-2.19,0,0-1,.15-1.08-.42a4.21,4.21,0,0,1,.58-2.42c.22-.28,1.27.22,1.27.22S105.3,153.29,104.59,151.61Z"/><path class="cls-68" d="M117.76,141s.19,10-1.82,15.19c0,0-1.18,2.41,1.29,2.41,2.19,0,4.35-3.51,2.22-18.89Z"/><line class="cls-69" x1="116.76" y1="158.58" x2="115.66" y2="162.46"/><path class="cls-68" d="M91.16,143.32s-1.28,9.59,1.68,16.52c0,0,.9,1.83-1.68,1.82-2.06,0-4.39-4.49-1.57-20Z"/><line class="cls-69" x1="91.56" y1="161.64" x2="92.45" y2="165.44"/><path class="cls-70" d="M133.29,155.69c-.57-4.28-3.54-7.41-6.64-7s-5.17,4.21-4.6,8.49c.53,4,3.21,7.06,6.12,7l-.35-2.68c-2.33.1-4.45-1.33-4.12-1.91s1.53-.2,1.53-.2c-.47-.36-1.41-1.7-1.06-1.92s1.3.22,1.3.22-1.31-1.26-1-1.77,1.27-.17,1.27-.17-1.13-1.67-.76-2,1.39.43,1.39.43-1-1.66-.58-2,.71.18.89.41a5.29,5.29,0,0,1-.28-1.17c-.13-1,0-1.84.27-1.87s.6.74.73,1.74a5.57,5.57,0,0,1,0,1.2c.12-.27.39-.76.75-.63s-.06,2.05-.06,2.05.81-1,1.24-.78-.23,2.09-.23,2.09.81-.58,1.27-.17-.47,2-.47,2,.79-.68,1.2-.55-.16,1.66-.53,2.13c0,0,1-.7,1.53-.2s-1.21,2.4-3.48,2.9l.35,2.7C132,163.46,133.83,159.8,133.29,155.69Z"/><path class="cls-57" d="M162.46,140.41c9.42-7.33,10.3-18.76,10.3-18.76a44.58,44.58,0,0,0-15.25,2.11Z"/><path class="cls-65" d="M133.8,135.11s13.87-12,30.94-13.51c0,0-1.38,8.21,4,12.62,0,0-6.64,15.22-29,12.25"/><path class="cls-66" d="M133.44,134.7a62.18,62.18,0,0,1,7-5,69.37,69.37,0,0,1,7.6-4.09,56.69,56.69,0,0,1,8.1-3,48.86,48.86,0,0,1,8.51-1.65h0a.67.67,0,0,1,.75.58.91.91,0,0,1,0,.17v0a17.11,17.11,0,0,0-.12,3.29,16.28,16.28,0,0,0,.51,3.26,11.75,11.75,0,0,0,1.25,3,10.16,10.16,0,0,0,2.08,2.44h0l0,1s.09-.08,0,.05l-.13.24a5.46,5.46,0,0,1-.27.48c-.18.32-.37.63-.58.93-.39.61-.84,1.17-1.28,1.74a23.91,23.91,0,0,1-3.05,3.07,26,26,0,0,1-7.41,4.34,29.42,29.42,0,0,1-4.13,1.16,30.28,30.28,0,0,1-4.24.61,16.86,16.86,0,0,1-2.13.08h-2.14c-1.42-.09-2.83-.25-4.24-.37a.59.59,0,0,1,.09-1.18h.06c1.38.1,2.76.25,4.13.33l2.07,0a14.14,14.14,0,0,0,2.06-.09,28.09,28.09,0,0,0,4.08-.61,27.22,27.22,0,0,0,3.94-1.13,24.64,24.64,0,0,0,7-4.15,21.85,21.85,0,0,0,2.86-2.91c.41-.54.84-1.07,1.19-1.64.2-.28.37-.57.54-.86s.17-.29.24-.44l.11-.22a2.41,2.41,0,0,1,.26-.42l0,1h0a11.33,11.33,0,0,1-2.37-2.79,12.89,12.89,0,0,1-1.41-3.34,17.15,17.15,0,0,1-.55-3.54,19,19,0,0,1,.13-3.6l.74.8h0a46.8,46.8,0,0,0-8.28,1.54,53.81,53.81,0,0,0-7.94,2.88,68.72,68.72,0,0,0-7.5,4,62.71,62.71,0,0,0-6.92,4.87l0,0a.55.55,0,0,1-.77-.08A.54.54,0,0,1,133.44,134.7Z"/><path class="cls-71" d="M159.62,122.36s-3.1,11.66,5.7,16.63"/><path class="cls-71" d="M75,120.1a17.24,17.24,0,0,0-8.61,13.24"/><circle class="cls-72" cx="91.95" cy="115.45" r="3.07"/><circle class="cls-2" cx="91.25" cy="114.33" r="1.03"/><path class="cls-73" d="M93.51,116.15a.65.65,0,0,0-.92,0,1,1,0,0,1-1.08.29.66.66,0,0,0-.4,1.25,2,2,0,0,0,.33.08,2.32,2.32,0,0,0,2.13-.74A.66.66,0,0,0,93.51,116.15Z"/><circle class="cls-72" cx="122.06" cy="120.55" r="3.07"/><circle class="cls-2" cx="121.36" cy="119.43" r="1.03"/><path class="cls-73" d="M123.62,121.25a.66.66,0,0,0-.93,0,1,1,0,0,1-1.07.29.65.65,0,0,0-.82.43.64.64,0,0,0,.42.82,2,2,0,0,0,.33.08,2.29,2.29,0,0,0,2.12-.74A.65.65,0,0,0,123.62,121.25Z"/><path class="cls-2" d="M81,159.8c-.19-.05-7.66-3.23-8.46,1.27,0,0,.06,2.81,3.45.89A16.66,16.66,0,0,1,81,159.8Z"/><path class="cls-2" d="M85.23,163.51c-.26.08-11,1.55-8.8,7.24,0,0,2,3.18,4.54-1.34S85.23,163.51,85.23,163.51Z"/><ellipse class="cls-43" cx="69.88" cy="187.39" rx="3.06" ry="3.94" transform="translate(-64.57 39.33) rotate(-21.79)"/><ellipse class="cls-43" cx="77.35" cy="193.37" rx="1.4" ry="1.97" transform="translate(-66.26 42.53) rotate(-21.79)"/><ellipse class="cls-43" cx="156.24" cy="186.63" rx="4.17" ry="3.46" transform="matrix(0.56, -0.83, 0.83, 0.56, -85.92, 211.13)"/><ellipse class="cls-43" cx="164.92" cy="184.08" rx="2.48" ry="1.78" transform="translate(-75.18 125.45) rotate(-34.42)"/></svg>