<svg xmlns="http://www.w3.org/2000/svg" viewBox="0 0 252 252"><defs><style>.ad{stroke-miterlimit:10;stroke-width:.6}.a,.ac,.z{fill:none}.y{fill:#fff}.x{fill:#5c8ebf}.w{fill:#13444f}.v{fill:#226172}.d{fill:#f5f5f5}.c{fill:#a9a9a9}.b{fill:#684841}.e{fill:#3c4c56}.f{fill:#50616d}.g{fill:#f2e1c0}.h{fill:#a5693c}.i{fill:#2e5968}.u{fill:#1bacce}.t{fill:#15ccea}.j{fill:#e4f5f9}.k,.l{fill:#d4dbe8}.k{stroke:#687c99}.a,.aa,.k,.m,.n,.q{stroke-linecap:round;stroke-linejoin:round}.ab{stroke-width:1.4}.a,.k,.m,.n,.q{stroke-width:1.38px}.m{fill:#96a3e2}.o{fill:#6b7fc6}.m{stroke:#1c418c}.p{fill:#687c99}.n{fill:#bfd4f7;stroke:#668dbc}.q{fill:#3579db}.a,.q{stroke:#3c62a0}.r{fill:#060b1c}.s{fill:#2b5599}</style><linearGradient id="lg" x1="126" x2="126" y1="173.2" y2="26.3" gradientUnits="userSpaceOnUse"><stop offset=".2" stop-color="#9ac2d8"/><stop offset=".4" stop-color="#d8b6e0"/><stop offset="1" stop-color="#3ba6f4"/></linearGradient><clipPath id="cp"><circle cx="126" cy="126" r="99.8" class="z"/></clipPath><linearGradient id="lg2" x1="125.6" x2="125.6" y1="161.7" y2="142.8" gradientUnits="userSpaceOnUse"><stop offset="0" stop-color="#fff" stop-opacity=".4"/><stop offset="1" stop-color="#fff" stop-opacity="0"/></linearGradient><radialGradient id="rg" cx="204.3" cy="60.9" r="106.8" gradientUnits="userSpaceOnUse"><stop offset="0" stop-color="#fffee3" stop-opacity=".7"/><stop offset="1" stop-color="#fffee3" stop-opacity="0"/></radialGradient><clipPath id="cp2"><path d="M162.2 167.3C87 202.4 80.8 127 80.8 127s-1.5-33.5 33.4-33.5c30.3 0 31.3 33.5 31.3 33.5s-4 41 15 32.2c0 0-5-14 14.8-17.7 0 0 3.6 13.6-5.1 17.3 0 0 9.9 2 10 14.7-12.8 3.6-18-6.3-18-6.3z" class="z"/></clipPath><clipPath id="cp3"><path d="M101.4 116.5l10.6 1.4s-1 7.6-7.5 6.9c-5.2-.6-3-8.3-3-8.3z" class="z"/></clipPath></defs><circle cx="126" cy="126" r="107.5" class="y"/><circle cx="126" cy="126" r="99.8" fill="url(#lg)"/><g clip-path="url(#cp)"><path fill="#f9eeca" d="M63.8 64.6h-.5a12.7 12.7 0 0 0 0-1.6 12.3 12.3 0 0 0-24.6 0v1a10.2 10.2 0 1 0-5.3 19h30.4a9.1 9.1 0 0 0 0-18.3zm34.4-15.2h-.3a6.4 6.4 0 0 0 0-1 7.3 7.3 0 0 0-14.6 0v.6a6 6 0 1 0-3.1 11.2h18a5.4 5.4 0 0 0 0-10.8z" opacity=".8"/><path fill="#5c8ebf" d="M207.8 127.3h9.1v11.9h3.3v-20.9h10.1v31.3L219.7 175l-8.9 1.7-6.9-23.4 3.9-26z" opacity=".4"/><path d="M177.2 130.4h6.8v34.8h-8.7l1.9-34.8zm20.9 35.6v-45.1h5.2V109h8.1v36.7h16.9l-5.9 22.5-23.6-1.1-.7-1.1z" class="x"/><path d="M193.1 166.1v-35.8l13.6 13.5v22.3h-13.6z" class="w"/><path d="M161.7 122.8h16.9V166h-16.9z" class="v"/><path d="M163.1 124.3h14.2v1.4h-14.2zm0 2.4h14.2v1.4h-14.2zm0 2.3h14.2v1.4h-14.2zm0 2.3h14.2v1.4h-14.2zm0 2.4h14.2v1.4h-14.2zm0 2.3h14.2v1.4h-14.2zm0 2.4h14.2v1.4h-14.2zm0 2.3h14.2v1.4h-14.2zm0 2.3h14.2v1.4h-14.2zm0 2.4h14.2v1.4h-14.2zm0 2.3h14.2v1.4h-14.2zm0 2.4h14.2v1.4h-14.2zm0 2.3h14.2v1.4h-14.2zm0 2.3h14.2v1.4h-14.2zm0 2.4h14.2v1.4h-14.2zm0 2.3h14.2v1.4h-14.2zm0 2.4h14.2v1.4h-14.2z" class="w"/><path d="M78.1 150.6h5.5v9.3H95v7.2H78.1v-16.5zm-41.5-59v41.5h11.6V91.6zm5 11.9h-2.5V100h2.5zm4.2-5.3h-2.6V95h2.5z" class="x"/><path d="M24 109.4h14.5v17.9H24z" class="x"/><path fill="#38ba51" d="M44 104.4h24.9v47H44z"/><path d="M43.5 103.5h26v1.8h-26z" class="d"/><path fill="#208431" d="M50.2 107.9h3.3v4h-3.3zm9.2 0h3.3v4h-3.3zm-9.2 8.4h3.3v4h-3.3zm9.2 0h3.3v4h-3.3zm-9.2 8.3h3.3v4h-3.3zm9.2 0h3.3v4h-3.3z"/><path fill="#ede29f" d="M41 114.9v-1.4h-2.5v-2.7h-1v1.6H37v-1.6h-.9v4.1H41zm-8.5 36.6v-35.8H52v6.5h5.7v28.4l-25.2.9z"/><path fill="#baad6e" d="M35.7 119.6h1.7v2.5h-1.7zm2.2 0h1.7v2.5h-1.7zm-2.2 2.9h1.7v2.5h-1.7zm2.2 0h1.7v2.5h-1.7zm-2.1 2.9h1.7v2.5h-1.7zm2.1 0h1.7v2.5h-1.7zm6.5-5.8h1.7v2.5h-1.7zm2.1 0h1.7v2.5h-1.7zm-2.1 2.9h1.7v2.5h-1.7zm2.1 0h1.7v2.5h-1.7zm-2.1 2.9h1.7v2.5h-1.7zm2.1 0h1.7v2.5h-1.7zm-2.1 5.2h1.7v2.5h-1.7zm2.1 0h1.7v2.5h-1.7zm-2.1 2.9h1.7v2.5h-1.7zm2.1 0h1.7v2.5h-1.7zm-2.1 2.9h1.7v2.5h-1.7zm2.1 0h1.7v2.5h-1.7z"/><path d="M32 114.7h20.4v1.1H32zm20 6.8h6.3v1.1H52z" class="d"/><path d="M51.3 131.5h12.8v38.1H51.3z" class="v"/><path fill="#0f323a" d="M53.5 134.1h2.3v2.3h-2.3zm3.1 0h2.3v2.3h-2.3zm3.1 0H62v2.3h-2.3zm-6.2 3.3h2.3v2.3h-2.3zm3.1 0h2.3v2.3h-2.3zm3.1 0H62v2.3h-2.3zm-6.2 3.3h2.3v2.3h-2.3zm3.1 0h2.3v2.3h-2.3zm3.1 0H62v2.3h-2.3zm-6.2 3.3h2.3v2.3h-2.3zm3.1 0h2.3v2.3h-2.3zm3.1 0H62v2.3h-2.3zm-6.2 3.3h2.3v2.3h-2.3zm3.1 0h2.3v2.3h-2.3zm3.1 0H62v2.3h-2.3zm-6.2 3.3h2.3v2.3h-2.3zm3.1 0h2.3v2.3h-2.3zm3.1 0H62v2.3h-2.3zm-6.2 3.3h2.3v2.3h-2.3zm3.1 0h2.3v2.3h-2.3zm3.1 0H62v2.3h-2.3zm-6.2 3.3h2.3v2.3h-2.3zm3.1 0h2.3v2.3h-2.3zm3.1 0H62v2.3h-2.3zm-6.2 3.3h2.3v2.3h-2.3zm3.1 0h2.3v2.3h-2.3zm3.1 0H62v2.3h-2.3zm-6.2 3.3h2.3v2.3h-2.3zm3.1 0h2.3v2.3h-2.3zm3.1 0H62v2.3h-2.3z"/><path d="M42.9 139.9h5.2v4.1h-5.2z" class="c"/><path d="M41.6 143h13.2v26.6H41.6z" class="d"/><path d="M44 145.3h2.8v2.8H44zm5.2 0H52v2.8h-2.8zm-5.2 4.9h2.8v2.8H44zm5.2 0H52v2.8h-2.8zm-5.2 4.9h2.8v2.8H44zm5.2 0H52v2.8h-2.8zm-5.2 4.8h2.8v2.8H44zm5.2 0H52v2.8h-2.8zm-5.2 4.9h2.8v2.8H44zm5.2 0H52v2.8h-2.8z" class="c"/><path fill="#219fd6" d="M20.2 127.3h21.4v44H20.2z"/><path fill="#1981a5" d="M26.4 131.7h12.2v4.1H26.4zm0 7.2h4.1v4.1h-4.1zm8 0h4.1v4.1h-4.1zm-8 7.2h4.1v4.1h-4.1zm8 0h4.1v4.1h-4.1zm-8 7.2h4.1v4.1h-4.1zm8 0h4.1v4.1h-4.1z"/><path d="M19.6 126.1h22.6v1.8H19.6z" class="d"/><path fill="#d86a44" d="M60.8 137.4h19.3v33.3H60.8z"/><path d="M60.2 137h20.5v2.2H60.2z" class="d"/><path d="M66.4 142.3a2.3 2.3 0 0 1 2.3 2.3v9.9h-4.5v-10a2.3 2.3 0 0 1 2.2-2.2zm8 0a2.3 2.3 0 0 1 2.3 2.3v9.9h-4.5v-10a2.3 2.3 0 0 1 2.2-2.2z" class="b"/><path fill="#efb9ab" d="M66.4 142a2.5 2.5 0 0 0-2.5 2.5v10.3h5v-10.2a2.5 2.5 0 0 0-2.5-2.6zm-.3.6v3.2h-1.7v-1.3a2 2 0 0 1 1.7-1.9zm.6 6.6h1.7v2.2h-1.7zm-.6 2.2h-1.7v-2.2h1.7zm.6-2.8v-2.2h1.7v2.2zm-.6 0h-1.7v-2.2h1.7zm-1.7 3.4h1.7v2.3h-1.7zm2.3 2.3V152h1.7v2.3zm1.7-8.4h-1.7v-3.3a2 2 0 0 1 1.7 2zm6.1-3.9a2.5 2.5 0 0 0-2.5 2.6v10.2h5v-10.2a2.5 2.5 0 0 0-2.5-2.6zm2 2.5v1.3h-1.7v-3.2a2 2 0 0 1 1.7 2zm-2.3 4.7v2.2h-1.7v-2.2zm-1.6-.6v-2.2h1.7v2.2zm2.2.6h1.7v2.2h-1.7zm0-.6v-2.2h1.7v2.2zm-.5-6v3.2h-1.8v-1.3a2 2 0 0 1 1.7-1.9zm-1.8 9.4h1.7v2.3h-1.7zm2.3 2.3V152h1.7v2.3z"/><path d="M64.2 157.9h4.5v8.2h-4.5zm8 .4h4.5v4.2h-4.5z" class="b"/><path stroke="#efb9ab" d="M72.2 158.3h4.5v4.2h-4.5zm4.4 2.1h-4.2" class="ac ad"/><path fill="#d2d2d2" d="M20.7 166h208v2.2h-208z"/><path d="M154.2 71.5h21.6v2h-21.6zm-.3 3.3H176v3.7h-22.1z" class="e"/><path d="M161.7 79.6h5.2v86.5h-5.2z" class="f"/><path d="M171.6 163.9l1.7-.3c0-.3-5.4-38.5-5.4-51.6s3.4-32.1 3.5-32.3l-1.7-.3c0 .1-1.2 6.6-2.2 14.7s-.4 4-1.3 4-1.1-4.3-1.1-4.3l-.4-14.3h-1.8l1.8 64.7h-5.2a355 355 0 0 0 2.8-32.2 233 233 0 0 0-3.4-32.7l-1.7.4c0 .1 3.4 19.2 3.4 32.3s-5.2 51.2-5.3 51.6l1.7.2c0-.1 1.2-8.3 2.4-18.4h5.4l.6 20.6h1.7l-.2-5.2h4.3l.4 3zm-5.5-33.6h1.4l.7 6.4h-2zm.2-7.2c.4 0 .8 3.6 1 5.2v.8h-1.2l-.2-3.8c.1-1.2.1-2.2.4-2.2zm0 14.8h2l.7 6.3h-2.6zm2.9 7.5l.8 6.7h-3.3l-.2-6.7zm-2.3 14.3l-.2-6.4h3.5l.8 6.4z" class="g"/><path d="M152.2 78.2h25.7a1.6 1.6 0 0 1-1.6 1.6h-22.5a1.6 1.6 0 0 1-1.6-1.6z" class="g"/><path d="M165.4 74.4h-15.8l1 .6a5.7 5.7 0 0 0 3 .8h22.9a5.7 5.7 0 0 0 3-.8l.9-.6z" class="f"/><path d="M165.4 74.4h-15.8l1-.5a5.8 5.8 0 0 1 3-.9h22.9a5.8 5.8 0 0 1 3 .9l.9.5zm4-5.2a.9.9 0 0 1-.3-1.6l.9-.7h-10l.9.7a.9.9 0 0 1-.3 1.6l-6.4 2.3h21.6z" class="g"/><path d="M168.3 65.5h-1.2v.4h-4.2v-.4h-1.2l-.8 1.4h8.1l-.7-1.4z" class="e"/><path d="M163.9 64.4h2.1v1.5h-2.1z" class="e"/><path stroke="#3c4c56" d="M165 65.1V54.6" class="ac ad"/><path fill="#e2a069" d="M175.3 140.7h15.8V166h-15.8z"/><path fill="#efd2a3" d="M179.2 142.1h8.1V166h-8.1z"/><path d="M176.6 142.6h1v1h-1zm0 2.1h1v1h-1zm0 2.2h1v1h-1zm0 2.2h1v1h-1zm0 2.1h1v1h-1zm0 2.2h1v1h-1zm0 2.2h1v1h-1zm0 2.1h1v1h-1zm0 2.2h1v1h-1zm0 2.2h1v1h-1zm0 2.1h1v1h-1zm12.1-21.6h1v1h-1zm0 2.1h1v1h-1zm0 2.2h1v1h-1zm0 2.2h1v1h-1zm0 2.1h1v1h-1zm0 2.2h1v1h-1zm0 2.2h1v1h-1zm0 2.1h1v1h-1zm0 2.2h1v1h-1zm0 2.2h1v1h-1zm0 2.1h1v1h-1z" class="h"/><path fill="#aa906a" d="M179.9 142.9h1.7v1.3h-1.7zm2.4 0h1.7v1.3h-1.7zm2.3 0h1.7v1.3h-1.7zm-4.7 2.1h1.7v1.3h-1.7zm2.4 0h1.7v1.3h-1.7zm2.3 0h1.7v1.3h-1.7zm-4.7 2.1h1.7v1.3h-1.7zm2.4 0h1.7v1.3h-1.7zm2.3 0h1.7v1.3h-1.7zm-4.7 2.1h1.7v1.3h-1.7zm2.4 0h1.7v1.3h-1.7zm2.3 0h1.7v1.3h-1.7zm-4.7 2.1h1.7v1.3h-1.7zm2.4 0h1.7v1.3h-1.7zm2.3 0h1.7v1.3h-1.7zm-4.7 2.1h1.7v1.3h-1.7zm2.4 0h1.7v1.3h-1.7zm2.3 0h1.7v1.3h-1.7zm-4.7 2.1h1.7v1.3h-1.7zm2.4 0h1.7v1.3h-1.7zm2.3 0h1.7v1.3h-1.7zm-4.7 2.1h1.7v1.3h-1.7zm2.4 0h1.7v1.3h-1.7zm2.3 0h1.7v1.3h-1.7zm-4.7 2.1h1.7v1.3h-1.7zm2.4 0h1.7v1.3h-1.7zm2.3 0h1.7v1.3h-1.7zm-4.7 2.1h1.7v1.3h-1.7zm2.4 0h1.7v1.3h-1.7zm2.3 0h1.7v1.3h-1.7zm-4.7 2.1h1.7v1.3h-1.7zm2.4 0h1.7v1.3h-1.7zm2.3 0h1.7v1.3h-1.7z"/><path fill="#eaac7d" d="M177.1 137.4h12.1v3.3h-12.1z"/><path d="M179.9 135.4h5.7v2h-5.7z" class="h"/><path fill="#bf8156" d="M178.1 138.6h10v1.1h-10z"/><path fill="#0b2f35" d="M200.4 151.4h3.5V166h-3.5z"/><path fill="#cc441f" d="M189.2 149.6h11.7v16.5h-11.7z"/><path fill="#a33319" d="M189.2 149.6h2.3v16.5h-2.3z"/><path fill="#eabd9b" d="M80.7 137H68.9v-31.7h.6v-1.8h-26v1.8h.5v9.4h-3v-1.2h-2.5v-2.7h-1v1.6H37v-1.6h-.9v3.9H32v1h.5v10.4H19.6v1.8h.6v43.4h21.4v-1.7h19.2v1.1h19.3v-31.5h.6V137z" opacity=".3"/><path fill="url(#lg2)" d="M16 141.4h219.2v24.7H16z"/><path fill="#4a7689" d="M27 168.2h198.8S214.8 229 125 229s-98-60.8-98-60.8z"/><path d="M80 168.2s1.2.9-2.2 2.1c0 0 4.2 2.3-.8 3 0 0 3.1 2.2-2.6 2.5 0 0 4.4 3-3 3.2s-20.4-.7-20.4-.7l-5.9-6.3 4.1-3.8z" class="i"/><ellipse cx="82.6" cy="174.3" class="i" rx="2.4" ry=".7"/><ellipse cx="85.7" cy="176.3" class="i" rx="1.2" ry=".3"/><ellipse cx="178.1" cy="182.5" class="i" rx="1.5" ry=".6"/><path d="M153 168.2s0 1.5 2.3 2c0 0-6.6 1 .9 2.9 0 0-4 1.4 2 2.8 0 0-1.8 1.7 4.6 2.2-4.8-.2-3.3 3-1 2.9 0 0-1.1 2 2 2.8a4 4 0 0 0 3.8 3.2c3.5 0 3-2.8 3-2.8s6-.2 2.7-2.1c0 0 6.4-2.4 1.4-4 0 0 6-2 2-3.2 0 0 5-2 1.4-2.7h5.9s-4.5 1.8 1.5 3.7c0 0-3.9 1.9.9 3.2 0 0-3.2 1 .9 2.2 0 0-1.8 1.1 2 2 0 0-2.4 1.9 2.3 1.7a6.8 6.8 0 0 0 6-4.2s6-2.3 2.8-3.3c0 0 4-1.6.6-2.6 0 0 4-1 1.2-2 0 0 5.6-2 1.7-2.6 0 0 2.8-1.4 2.8-2.1z" class="i"/><ellipse cx="203.9" cy="173" class="i" rx="3" ry=".8"/><ellipse cx="210.4" cy="175.5" class="i" rx="3" ry=".8"/><ellipse cx="179.9" cy="184.3" class="i" rx="1.1" ry=".4"/><ellipse cx="176.4" cy="185.7" class="i" rx="1.1" ry=".4"/><path fill="#3796af" d="M16.3 168.2s20.6-13.9 45.5 7.9 30.7-4.7 62.5-5.5c24.6-.5 37 25 60.1 22.5 26-2.9 17.2-16.1 53.9.2L177 236.5l-118-3-37.5-23z"/><path d="M43.3 196.1s5.5-23.3 24.2-21 27.7 18.6 49.3 12 33-5.2 53.2 2.6 22.4-20 52.4-9.6l-35.1 36.3-52.3 14.3H86.6l-35.1-16.4z" class="u"/><path d="M44.4 208s13.4-19 55.5-1.7c27.3 11.1 43-40.2 99 5.5l-67.8 23.6-65.7-9.6-16.6-4.4z" class="t"/><ellipse cx="78.9" cy="171.3" class="u" rx="1.9" ry=".5"/><ellipse cx="73.3" cy="173.3" fill="#b49485" rx="1.2" ry=".3"/><ellipse cx="77.6" cy="175.3" fill="#b6978a" rx="1.2" ry=".3"/><ellipse cx="188.8" cy="171.2" fill="#c1b8a9" rx="1.9" ry=".5"/><ellipse cx="193.3" cy="173.2" fill="#b0897d" rx="1.2" ry=".3"/><ellipse cx="188.3" cy="176.3" fill="#9da8b4" rx="1.2" ry=".3"/><circle cx="204.3" cy="60.9" r="106.8" fill="url(#rg)"/></g><path d="M132.5 214.9l-1.3-3-.8.1-1 3.1-1.2-3-.9.1 1.7 4 .9-.1.9-2.8 1.3 2.7.9-.1 1.3-4.1h-.9l-.9 3.1zm6.3-1.6a2.5 2.5 0 0 0-.4-1.1 1.9 1.9 0 0 0-.9-.6 2.2 2.2 0 0 0-1-.2 2.3 2.3 0 0 0-1.1.4 2 2 0 0 0-.7.9 2.1 2.1 0 0 0-.1 1 2 2 0 0 0 .4 1 1.9 1.9 0 0 0 .9.7 2.6 2.6 0 0 0 1.2.1 2.4 2.4 0 0 0 1-.3 1.6 1.6 0 0 0 .5-.5l-.5-.6a1.5 1.5 0 0 1-1 .6 1.4 1.4 0 0 1-1-.1 1 1 0 0 1-.5-.7l3.2-.4v-.2zm-3.3 0a1.1 1.1 0 0 1 1-1.2 1.2 1.2 0 0 1 .8.2 1.1 1.1 0 0 1 .5.7zm8-2a1.8 1.8 0 0 0-.9-.6 2.1 2.1 0 0 0-1 0 2 2 0 0 0-.8.2 1.6 1.6 0 0 0-.5.5l-.3-2-1 .1 1 5.6 1-.1-.2-.6a1.5 1.5 0 0 0 .7.4 1.9 1.9 0 0 0 .8 0 2 2 0 0 0 1-.5 1.9 1.9 0 0 0 .6-.9 2.2 2.2 0 0 0 0-1 2.2 2.2 0 0 0-.4-1.1zm-.7 2.2a1.2 1.2 0 0 1-.8.5 1.3 1.3 0 0 1-.6 0 1 1 0 0 1-.5-.4 1.3 1.3 0 0 1-.3-.6 1.3 1.3 0 0 1 0-.7 1.1 1.1 0 0 1 .4-.5 1.2 1.2 0 0 1 .5-.3 1.2 1.2 0 0 1 1 .2 1.3 1.3 0 0 1 .5.8 1.3 1.3 0 0 1-.2 1zm5.2-3.8a1.7 1.7 0 0 0-1.4-.2 2.2 2.2 0 0 0-.7.4 1.5 1.5 0 0 0-.5.5l-.5-2-.9.2 1.3 5.5 1-.2-.5-2a1.3 1.3 0 0 1 0-1 1 1 0 0 1 .8-.5 1 1 0 0 1 .8 0 1.2 1.2 0 0 1 .4.8l.5 2.2 1-.3-.6-2.2a1.8 1.8 0 0 0-.8-1.2zM149.3 208.8l1-.3 1.1 4-1 .3zM149.2 208a.7.7 0 0 0 .5 0 .6.6 0 0 0 .3-.3.6.6 0 0 0 0-.4.5.5 0 0 0-.2-.4.6.6 0 0 0-.5 0 .6.6 0 0 0-.3.3.5.5 0 0 0 0 .4.5.5 0 0 0 .2.4zm5.8-.5a1.7 1.7 0 0 0-1.3 0 2.3 2.3 0 0 0-.8.4 1.5 1.5 0 0 0-.4.6l-.2-.5-.8.3 1.3 3.9.9-.3-.7-2a1.3 1.3 0 0 1 0-1 1 1 0 0 1 .7-.6 1 1 0 0 1 .8 0 1.2 1.2 0 0 1 .5.7l.7 2.1 1-.3-.8-2.2a1.7 1.7 0 0 0-.9-1zm4.1 1.6a.5.5 0 0 1-.5 0 .7.7 0 0 1-.2-.4l-.8-1.8 1-.4-.2-.7-1 .4-.4-.9-.9.4.4.8-.7.3.3.7.7-.2.7 1.8a1.4 1.4 0 0 0 .7.8 1.5 1.5 0 0 0 1 0 2 2 0 0 0 .5-.3 1.2 1.2 0 0 0 .3-.3l-.5-.6a.9.9 0 0 1-.4.4zm2.2-1.2a.6.6 0 0 0-.5 0 .6.6 0 0 0 0 1.1.6.6 0 0 0 .5 0 .6.6 0 0 0 .3-.3.6.6 0 0 0 0-.5.6.6 0 0 0-.3-.3zm-.5-4.1a.7.7 0 0 0 .7-.3.6.6 0 0 0 0-.5.5.5 0 0 0-.3-.3.6.6 0 0 0-.4 0 .6.6 0 0 0-.4.4.5.5 0 0 0 0 .4.6.6 0 0 0 .3.3zM161.1 204.6l1-.4 1.6 3.8-.9.4zM167.5 203.8a2.1 2.1 0 0 0-.7-.9 2 2 0 0 0-1-.3 2.4 2.4 0 0 0-1.1.3 2.4 2.4 0 0 0-1 .7 1.9 1.9 0 0 0-.3 1 2 2 0 0 0 .3 1.1 2.2 2.2 0 0 0 .7.9 2 2 0 0 0 1 .3 2.3 2.3 0 0 0 1.1-.3 2.3 2.3 0 0 0 .9-.7 2 2 0 0 0 .4-1 2.2 2.2 0 0 0-.3-1.1zm-.7 1.4a1.2 1.2 0 0 1-.7.7 1.1 1.1 0 0 1-.9 0 1.2 1.2 0 0 1-.7-.6 1.3 1.3 0 0 1-.1-1 1.2 1.2 0 0 1 .6-.7 1.2 1.2 0 0 1 1 0 1.3 1.3 0 0 1 .7.6 1.3 1.3 0 0 1 0 1z" class="j"/><path d="M77 121.4s.4-10.4 7.5-6.8 3 7.8 3 7.8l-6.3 5.2s-3.4 1-4.2-6.2z" class="k"/><path fill="#475d77" d="M140.1 117.3l-.4 11.3 14.1-8-1-2.2-10.5-1.4-2.2.3z"/><path d="M136.2 126s24-6.6 12.4-7.3c-10-.6-10.4-.5-10.4-.5v-1.5s17.1-1.2 17.8 2.8 6 37.1-17.1 36.7.1-21.3.1-21.3l-2.8-8.8" class="k"/><path fill="#96a3e2" d="M162.2 167.3C87 202.4 80.8 127 80.8 127s-1.5-33.5 33.4-33.5c30.3 0 31.3 33.5 31.3 33.5s-4 41 15 32.2c0 0-5-14 14.8-17.7 0 0 3.6 13.6-5.1 17.3 0 0 9.9 2 10 14.7-12.8 3.6-18-6.3-18-6.3z"/><g clip-path="url(#cp2)"><path fill="#bbc6ef" d="M80.4 143.5s5.2-15.2 23-12c27.5 4.9 21.9 40.8 46.6 40l-3.8 8-49-3-21.5-20.3z"/><ellipse cx="142.6" cy="120.5" class="o" rx="3.4" ry="10.7" transform="rotate(-6.6 142.6 120.5)"/><path d="M136.7 129.6c-1 0-1.5-2.5-1.5-4.7s.4-3.7 1.3-3.5c.7.3 1.3 1.9 1.3 4.1s-.4 4-1.1 4z" class="o"/></g><path d="M66.7 131.5c-3.7-7.6-1-16.3-1-16.3a24.3 24.3 0 0 1 8.7 5.1z" class="m"/><path d="M81.2 126s-5-5.8-9.4-8c0 0-5.8 3-6.8 8.7 0 0-.4 17.5 21.4 18.6z" class="k"/><path stroke="#1c418c" d="M162.2 167.3C87 202.4 80.8 127 80.8 127s-1.5-33.5 33.4-33.5c30.3 0 31.3 33.5 31.3 33.5s-4 41 15 32.2c0 0-5-14 14.8-17.7 0 0 3.6 13.6-5.1 17.3 0 0 9.9 2 10 14.7-12.8 3.6-18-6.3-18-6.3z" class="aa ab ac"/><path fill="#cae8ef" stroke="#4b8087" d="M120 96.7c-2.3-10.4-8.3-35.8-8.3-35.8l-4.1 35.9c-.4 3 6.5 3.2 6.5 3.2s6.7 0 6-3.3z" class="aa ab"/><path stroke="#82bbc4" d="M119.4 94.5c-1.2.3-7 1.2-11-2.9m9-6.5a11.7 11.7 0 0 1-8.2-2.2m5.9-7.6a11.6 11.6 0 0 1-4.8-1.2" class="aa ab ac"/><path stroke="#4b8087" d="M120 96.7c-2.3-10.4-8.3-35.8-8.3-35.8l-4.1 35.9" class="aa ab ac"/><path fill="#402b5e" d="M101.4 116.5l10.6 1.4s-1 7.6-7.5 6.9c-5.2-.6-3-8.3-3-8.3z"/><path fill="#e87ce1" d="M112.8 119.6s-10-1.5-13.6 5l9.2 2z" clip-path="url(#cp3)"/><path d="M80.2 130s5.2 51.2 47 46.6c34.1-3.7 18.4-34 19-50.6l-23.7 11.4-17.2 15s-5.4-2.8-5.7-2.8S84.4 135 84.4 135z" class="k"/><path d="M80.6 118.3c1.2 17.2 22 33.6 22 33.6S77 140.9 77 121.5" class="l"/><path d="M81 118.3a29.5 29.5 0 0 0 2.7 9.7 50 50 0 0 0 5.3 8.7 76.4 76.4 0 0 0 6.6 7.8 82.6 82.6 0 0 0 7.5 6.8.7.7 0 0 1 .1 1 .7.7 0 0 1-.8.2 62.3 62.3 0 0 1-9.2-5.2 52.8 52.8 0 0 1-8.2-6.8 34 34 0 0 1-6.2-8.6 23.6 23.6 0 0 1-2.5-10.4.7.7 0 0 1 .7-.7.7.7 0 0 1 .7.7 22.1 22.1 0 0 0 2.3 9.8 32.4 32.4 0 0 0 6 8.3 51.8 51.8 0 0 0 8 6.6 60.4 60.4 0 0 0 9 5l-.7 1.2a83.5 83.5 0 0 1-7.6-7 77.8 77.8 0 0 1-6.6-8 51 51 0 0 1-5.2-9 30.2 30.2 0 0 1-2.7-10 .5.5 0 1 1 .9-.1z" class="p"/><path d="M78 116.6s-2.3 4.1 0 11.3m25.5 26s-.9 18.7 16.6 23m27.3-54.5c-30 9.6-42.6 30-42.6 30s21.5-19.7 45.8-25" class="k"/><path d="M106 154.9l-4.2-.4-2.8 12.2a17.7 17.7 0 0 0 8.2.8zm-1.2 10.5a13.4 13.4 0 0 1-3-.3c0-1 .4-2.6.4-2.6h2.4z" class="n"/><path d="M104.6 151.6s-2.7-1.5-3.8.7a8.7 8.7 0 0 0-.9 4.3s0 1.7 2.7 2c0 0 1.3-.5.8-2.2 0 0-1 .1-1-.5a4.2 4.2 0 0 1 .5-2.4c.2-.2 1.3.3 1.3.3s1.1-.5.4-2.2z" class="n"/><path d="M117.8 141s.2 10-1.9 15.2c0 0-1.1 2.4 1.3 2.4 2.2 0 4.4-3.5 2.3-18.9z" class="q"/><path d="M116.8 158.6l-1.1 3.9" class="a"/><path d="M91.2 143.3s-1.3 9.6 1.6 16.5c0 0 1 1.9-1.6 1.9-2.1 0-4.4-4.5-1.6-20z" class="q"/><path d="M91.6 161.6l.9 3.8" class="a"/><path fill="#2962ff" d="M133.3 155.7c-.6-4.3-3.6-7.4-6.7-7s-5.1 4.2-4.6 8.5c.6 4 3.3 7 6.2 7l-.4-2.7c-2.3.1-4.4-1.3-4.1-2s1.5-.1 1.5-.1c-.4-.4-1.4-1.7-1-2s1.3.3 1.3.3-1.3-1.3-1-1.8 1.2-.1 1.2-.1-1-1.7-.7-2 1.4.4 1.4.4-1-1.7-.6-2 .7.2.9.4a5.3 5.3 0 0 1-.3-1.2c-.1-1 0-1.8.3-1.8s.6.7.7 1.7a5.6 5.6 0 0 1 0 1.2c.1-.3.4-.8.7-.6s0 2 0 2 .8-1 1.2-.8-.2 2.1-.2 2.1.8-.6 1.3-.1-.5 2-.5 2 .8-.7 1.2-.6-.2 1.7-.5 2.1c0 0 1-.7 1.5-.2s-1.2 2.4-3.5 3l.4 2.6c3-.5 4.8-4.2 4.3-8.3z"/><path d="M162.5 140.4a28.7 28.7 0 0 0 10.3-18.8 44.6 44.6 0 0 0-15.3 2.2z" class="m"/><path d="M133.8 135.1s13.9-12 31-13.5c0 0-1.4 8.2 4 12.6 0 0-6.7 15.2-29 12.3" class="l"/><path d="M133.4 134.7a62.2 62.2 0 0 1 7-5 69.4 69.4 0 0 1 7.6-4 56.7 56.7 0 0 1 8.1-3 48.9 48.9 0 0 1 8.5-1.7.7.7 0 0 1 .8.5 1 1 0 0 1 0 .2 17.1 17.1 0 0 0-.1 3.3 16.3 16.3 0 0 0 .5 3.3 11.8 11.8 0 0 0 1.2 3 10.2 10.2 0 0 0 2.1 2.4v1l-.1.3a5.5 5.5 0 0 1-.3.5l-.6.9-1.2 1.7a24 24 0 0 1-3 3.1 26 26 0 0 1-7.5 4.4 29.4 29.4 0 0 1-4.1 1.1 30.3 30.3 0 0 1-4.3.6 16.9 16.9 0 0 1-2.1.1h-2.1c-1.5 0-2.9-.2-4.3-.4a.6.6 0 0 1 .1-1.1l4.2.3h2a14.1 14.1 0 0 0 2.1-.1 28 28 0 0 0 4.1-.6 27.2 27.2 0 0 0 4-1.1 24.6 24.6 0 0 0 7-4.2 21.9 21.9 0 0 0 2.8-3l1.2-1.5.5-1c.1-.3.2-.2.3-.3v-.3a2.4 2.4 0 0 1 .3-.4v1a11.3 11.3 0 0 1-2.3-2.8 12.9 12.9 0 0 1-1.4-3.3 17.1 17.1 0 0 1-.6-3.6 19 19 0 0 1 .1-3.6l.8.8a46.8 46.8 0 0 0-8.3 1.6 53.8 53.8 0 0 0-8 2.9 68.7 68.7 0 0 0-7.4 4 62.7 62.7 0 0 0-7 4.8.6.6 0 0 1-.7 0 .5.5 0 0 1 .1-.8z" class="p"/><path fill="#d4dbe8" stroke="#687c99" stroke-width=".9" d="M159.6 122.4s-3 11.6 5.7 16.6M75 120.1a17.2 17.2 0 0 0-8.6 13.2" class="aa"/><circle cx="92" cy="115.5" r="3.1" class="r"/><circle cx="91.3" cy="114.3" r="1" class="y"/><path d="M93.5 116.2a.7.7 0 0 0-1 0 1 1 0 0 1-1 .2.7.7 0 0 0-.4 1.3 2 2 0 0 0 .3 0 2.3 2.3 0 0 0 2.2-.7.7.7 0 0 0 0-.8z" class="s"/><circle cx="122.1" cy="120.5" r="3.1" class="r"/><circle cx="121.4" cy="119.4" r="1" class="y"/><path d="M123.6 121.3a.7.7 0 0 0-1 0 1 1 0 0 1-1 .2.7.7 0 0 0-.8.5.6.6 0 0 0 .4.8 2 2 0 0 0 .4 0 2.3 2.3 0 0 0 2-.7.7.7 0 0 0 0-.8z" class="s"/><path d="M81 159.8c-.2 0-7.7-3.2-8.5 1.3 0 0 .1 2.8 3.5.9a16.7 16.7 0 0 1 5-2.2zm4.2 3.7c-.2 0-11 1.6-8.8 7.2 0 0 2 3.2 4.6-1.3s4.2-5.9 4.2-5.9z" class="y"/><ellipse cx="69.9" cy="187.4" class="t" rx="3.1" ry="3.9" transform="rotate(-21.8 69.9 187.4)"/><ellipse cx="77.3" cy="193.4" class="t" rx="1.4" ry="2" transform="rotate(-21.8 77.3 193.4)"/><ellipse cx="156.2" cy="186.6" class="t" rx="4.2" ry="3.5" transform="rotate(-55.9 155.7 186)"/><ellipse cx="164.9" cy="184.1" class="t" rx="2.5" ry="1.8" transform="rotate(-34.4 165 184)"/></svg>