<svg id="sticker" xmlns="http://www.w3.org/2000/svg" xmlns:xlink="http://www.w3.org/1999/xlink" viewBox="0 0 252 252"><defs><style>.cls-1,.cls-13,.cls-22,.cls-24,.cls-25,.cls-63,.cls-67,.cls-69,.cls-72,.cls-73{fill:none;}.cls-2{fill:#fff;}.cls-3{fill:url(#linear-gradient);}.cls-4{clip-path:url(#clip-path);}.cls-37,.cls-5{fill:#665782;}.cls-45,.cls-5,.cls-57{opacity:0.3;}.cls-6{fill:#53436d;}.cls-7{fill:#392151;}.cls-8{fill:#4d2d66;}.cls-9{fill:#9867ba;}.cls-10{fill:#381a4f;}.cls-11{fill:#392051;}.cls-12{fill:url(#linear-gradient-2);}.cls-13{stroke:#9867ba;}.cls-13,.cls-22,.cls-24,.cls-25{stroke-miterlimit:10;}.cls-13,.cls-22,.cls-24{stroke-width:0.58px;}.cls-14{fill:#7551a8;}.cls-15{clip-path:url(#clip-path-2);}.cls-16{fill:#7a66cc;}.cls-17{fill:#a298e2;}.cls-18{fill:#321a49;}.cls-19{fill:#968add;}.cls-20{fill:#89759b;}.cls-21{clip-path:url(#clip-path-3);}.cls-22{stroke:#614e75;}.cls-23{fill:#a595b7;}.cls-24,.cls-25{stroke:#7e6b96;}.cls-25{stroke-width:0.44px;opacity:0.5;}.cls-26{fill:#30283d;opacity:0.2;}.cls-27{fill:#f2e8b6;}.cls-28{fill:#332749;}.cls-29{fill:#71628e;}.cls-30{fill:#807391;}.cls-31{clip-path:url(#clip-path-4);}.cls-32{fill:#594d6d;}.cls-33{fill:#745991;}.cls-34{fill:#7e70a0;}.cls-35{fill:#9086b2;}.cls-36{fill:#b3acd1;}.cls-38{fill:#473b63;}.cls-39{fill:#857a9e;}.cls-40{fill:#8579b7;}.cls-41{fill:#796c96;}.cls-42{fill:#8377ad;}.cls-43{fill:#8572b2;}.cls-44{fill:url(#linear-gradient-3);}.cls-46{fill:url(#linear-gradient-4);}.cls-47{clip-path:url(#clip-path-5);}.cls-48{clip-path:url(#clip-path-6);}.cls-49{clip-path:url(#clip-path-7);}.cls-50{fill:url(#linear-gradient-5);}.cls-51{fill:url(#linear-gradient-6);}.cls-52{fill:url(#linear-gradient-7);}.cls-53{fill:url(#linear-gradient-8);}.cls-54{fill:url(#linear-gradient-9);}.cls-55{fill:url(#linear-gradient-10);}.cls-56{fill:#644662;opacity:0.38;}.cls-57{fill:#4c2e4b;}.cls-58{fill:url(#linear-gradient-11);}.cls-59,.cls-61{fill:#93a0df;}.cls-59,.cls-63,.cls-69{stroke:#1c4189;}.cls-59,.cls-60,.cls-63,.cls-67,.cls-69,.cls-71,.cls-72,.cls-73,.cls-74{stroke-linecap:round;stroke-linejoin:round;}.cls-59,.cls-60,.cls-67,.cls-69,.cls-71,.cls-72,.cls-73,.cls-74{stroke-width:1.58px;}.cls-60,.cls-66{fill:#592816;}.cls-60,.cls-67{stroke:#351a09;}.cls-62{clip-path:url(#clip-path-8);}.cls-63{stroke-width:1.26px;}.cls-64{fill:#b8c3ec;}.cls-65{fill:#6b7fc3;}.cls-68{fill:#331207;}.cls-70{fill:#351a09;}.cls-71{fill:#c7e5ec;}.cls-71,.cls-73{stroke:#4b8084;}.cls-72{stroke:#80b8c1;}.cls-74{fill:#193051;stroke:#01112b;}.cls-75{fill:#1c4189;}</style><linearGradient id="linear-gradient" x1="126" y1="35.22" x2="126" y2="171.16" gradientUnits="userSpaceOnUse"><stop offset="0" stop-color="#4e3870"/><stop offset="0.35" stop-color="#d87430"/><stop offset="0.65" stop-color="#e5ca45"/><stop offset="0.98" stop-color="#fff"/></linearGradient><clipPath id="clip-path"><circle class="cls-1" cx="126" cy="126" r="101.6"/></clipPath><linearGradient id="linear-gradient-2" x1="74.39" y1="103.92" x2="74.39" y2="185.6" gradientUnits="userSpaceOnUse"><stop offset="0.59" stop-color="#4e3870"/><stop offset="1" stop-color="#fffbe0"/></linearGradient><clipPath id="clip-path-2"><rect class="cls-1" x="-17.36" y="130.12" width="103.71" height="43.57"/></clipPath><clipPath id="clip-path-3"><polygon class="cls-1" points="85.74 188.75 85.74 145.43 88.21 145.43 88.21 142.37 97.84 142.37 97.84 188.75 85.74 188.75"/></clipPath><clipPath id="clip-path-4"><rect class="cls-1" x="113.6" y="133.72" width="28.15" height="55.13"/></clipPath><linearGradient id="linear-gradient-3" x1="141.46" y1="226.43" x2="141.46" y2="173.48" gradientUnits="userSpaceOnUse"><stop offset="0" stop-color="#4e3870"/><stop offset="0.3" stop-color="#c15dae"/><stop offset="0.52" stop-color="#d87430"/><stop offset="0.8" stop-color="#e5ca45"/><stop offset="0.98" stop-color="#fff"/></linearGradient><linearGradient id="linear-gradient-4" x1="74.37" y1="133.96" x2="74.37" y2="215.64" gradientTransform="matrix(1, 0, 0, -1, 0, 407.17)" xlink:href="#linear-gradient-2"/><clipPath id="clip-path-5"><rect class="cls-1" x="-17.38" y="203.44" width="103.71" height="43.57"/></clipPath><clipPath id="clip-path-6"><polygon class="cls-1" points="85.72 188.38 85.72 231.7 88.18 231.7 88.18 234.76 97.82 234.76 97.82 188.38 85.72 188.38"/></clipPath><clipPath id="clip-path-7"><rect class="cls-1" x="113.57" y="188.27" width="28.15" height="55.13"/></clipPath><linearGradient id="linear-gradient-5" x1="54.48" y1="192.6" x2="144.04" y2="192.6" gradientUnits="userSpaceOnUse"><stop offset="0" stop-color="#fff" stop-opacity="0"/><stop offset="0.52" stop-color="#fff" stop-opacity="0.5"/><stop offset="0.98" stop-color="#fff" stop-opacity="0"/></linearGradient><linearGradient id="linear-gradient-6" x1="109.66" y1="197.07" x2="199.22" y2="197.07" xlink:href="#linear-gradient-5"/><linearGradient id="linear-gradient-7" x1="145.25" y1="194.25" x2="234.81" y2="194.25" xlink:href="#linear-gradient-5"/><linearGradient id="linear-gradient-8" x1="15.54" y1="203.38" x2="105.1" y2="203.38" xlink:href="#linear-gradient-5"/><linearGradient id="linear-gradient-9" x1="10.77" y1="196.63" x2="100.33" y2="196.63" xlink:href="#linear-gradient-5"/><linearGradient id="linear-gradient-10" x1="28.86" y1="198.13" x2="118.42" y2="198.13" xlink:href="#linear-gradient-5"/><linearGradient id="linear-gradient-11" x1="134.99" y1="221.14" x2="134.99" y2="191.57" gradientUnits="userSpaceOnUse"><stop offset="0" stop-color="#4e3870" stop-opacity="0.8"/><stop offset="0.98" stop-color="#4e3870" stop-opacity="0"/></linearGradient><clipPath id="clip-path-8"><path class="cls-1" d="M90.55,177.87c11.67,8.75,53.78,14.07,76.43-18.67,21.59-31.22,7.59-63-27.42-68.85s-42,30.34-42,30.34c-3.5,21.59,9.92,26.26,9.92,39.67s-16.33,9.92-16.33,9.92S93,151.76,72.69,151.54c0,0-4.16,16.12,6.7,20.13,0,0-11.66,2.19-9.84,19.25,0,0,16.34,1.9,20.86-12.76"/></clipPath></defs><title>webhint_sticker_11</title><circle class="cls-2" cx="126" cy="126" r="109.5"/><circle class="cls-3" cx="126" cy="126" r="101.6"/><g class="cls-4"><polygon class="cls-5" points="30.36 188.85 30.36 131.1 39.89 137.51 39.89 161.04 48.25 161.04 48.25 127.4 58.56 127.4 58.56 160.85 76.06 160.85 76.06 156.57 92.01 156.57 92.01 168.92 106.99 168.92 106.99 148.98 124.49 148.98 124.49 172.32 138.88 172.32 138.88 157.74 159.1 157.74 159.1 176.02 163.19 176.02 163.19 152.88 184.19 152.88 184.19 163.77 189.05 163.77 189.05 157.16 198.78 157.16 198.78 126.04 206.75 126.04 206.75 118.65 215.11 118.65 215.11 115.73 232.81 115.73 232.81 188.66 30.36 188.85"/><rect class="cls-6" x="55.77" y="182.72" width="175.42" height="6.09"/><polygon class="cls-7" points="74.58 52.63 74.46 52.63 74.33 52.63 74.21 52.63 74.12 65.68 74.33 65.68 74.46 65.68 74.67 65.68 74.58 52.63"/><polygon class="cls-8" points="74.83 65.39 74.54 65.39 74.25 65.39 73.96 65.39 73.76 75.55 74.25 75.55 74.54 75.55 75.03 75.55 74.83 65.39"/><rect class="cls-9" x="67.35" y="95.36" width="14.1" height="3.7" rx="1.85" ry="1.85"/><rect class="cls-10" x="69.73" y="88.51" width="9.33" height="3.7" rx="1.85" ry="1.85"/><rect class="cls-11" x="69.14" y="94.19" width="10.5" height="1.17"/><path class="cls-11" d="M71.57,99h5.64a0,0,0,0,1,0,0v.48a.69.69,0,0,1-.69.69H72.26a.69.69,0,0,1-.69-.69V99A0,0,0,0,1,71.57,99Z"/><path class="cls-8" d="M74.39,90.69H68l.58,3.5H80.23l.58-3.5Z"/><polygon class="cls-12" points="76.31 100.1 74.58 99.62 74.58 99.52 74.39 99.57 74.21 99.52 74.21 99.62 72.48 100.1 69.41 188.85 74.21 188.85 74.58 188.85 79.38 188.85 76.31 100.1"/><line class="cls-13" x1="73.45" y1="100.28" x2="73.45" y2="188.42"/><line class="cls-13" x1="75.34" y1="100.28" x2="75.34" y2="188.42"/><rect class="cls-10" x="72.5" y="85.15" width="3.79" height="3.35"/><polygon class="cls-14" points="75.34 74.97 74.72 74.97 74.07 74.97 73.45 74.97 73 85.13 74.07 85.13 74.72 85.13 75.79 85.13 75.34 74.97"/><g class="cls-15"><ellipse class="cls-16" cx="35.74" cy="183.65" rx="50.66" ry="37"/><ellipse class="cls-17" cx="35.74" cy="183.65" rx="47.6" ry="34.76"/><ellipse class="cls-16" cx="35.74" cy="183.65" rx="44.71" ry="32.65"/></g><rect class="cls-8" x="-13.3" y="173.71" width="97.84" height="15.14"/><rect class="cls-18" x="56.93" y="178.83" width="5.8" height="2.44" rx="0.32" ry="0.32"/><rect class="cls-18" x="63.13" y="178.83" width="5.8" height="2.44" rx="0.32" ry="0.32"/><rect class="cls-18" x="69.33" y="178.83" width="5.8" height="2.44" rx="0.32" ry="0.32"/><rect class="cls-18" x="33.3" y="178.83" width="5.8" height="2.44" rx="0.32" ry="0.32"/><rect class="cls-18" x="39.5" y="178.83" width="5.8" height="2.44" rx="0.32" ry="0.32"/><rect class="cls-18" x="45.7" y="178.83" width="5.8" height="2.44" rx="0.32" ry="0.32"/><rect class="cls-18" x="-8.7" y="183.24" width="93.25" height="5.62"/><rect class="cls-19" x="53.25" y="183.02" width="0.66" height="5.83"/><rect class="cls-19" x="65.43" y="182.98" width="0.66" height="5.83"/><rect class="cls-16" x="-13.59" y="182.51" width="98.6" height="0.69"/><rect class="cls-18" x="75.48" y="172.96" width="0.92" height="4.21"/><rect class="cls-18" x="66.48" y="172.96" width="0.92" height="4.21"/><rect class="cls-18" x="57.48" y="172.96" width="0.92" height="4.21"/><rect class="cls-18" x="48.48" y="172.96" width="0.92" height="4.21"/><rect class="cls-18" x="39.48" y="172.96" width="0.92" height="4.21"/><rect class="cls-18" x="30.47" y="172.96" width="0.92" height="4.21"/><rect class="cls-18" x="21.47" y="172.96" width="0.92" height="4.21"/><rect class="cls-18" x="12.47" y="172.96" width="0.92" height="4.21"/><rect class="cls-18" x="3.47" y="172.96" width="0.92" height="4.21"/><rect class="cls-16" x="-13.73" y="174.63" width="98.6" height="1.39"/><rect class="cls-18" x="-13.66" y="176.82" width="98.6" height="0.96"/><path class="cls-6" d="M93.69,142.49v-1.21A2.33,2.33,0,0,1,96,139h0a1.12,1.12,0,0,0,1.12-1.12V132.4h.29v10Z"/><rect class="cls-6" x="88.6" y="141.58" width="5.5" height="1.21"/><rect class="cls-6" x="86.05" y="143.75" width="2.16" height="1.68"/><polygon class="cls-20" points="85.74 188.75 85.74 145.43 88.21 145.43 88.21 142.37 97.84 142.37 97.84 188.75 85.74 188.75"/><g class="cls-21"><line class="cls-22" x1="84.09" y1="141.86" x2="99.67" y2="141.86"/><line class="cls-22" x1="84.09" y1="143.02" x2="99.67" y2="143.02"/><line class="cls-22" x1="84.09" y1="144.19" x2="99.67" y2="144.19"/><line class="cls-22" x1="84.09" y1="145.36" x2="99.67" y2="145.36"/><line class="cls-22" x1="84.09" y1="146.52" x2="99.67" y2="146.52"/><line class="cls-22" x1="84.09" y1="147.69" x2="99.67" y2="147.69"/><line class="cls-22" x1="84.09" y1="148.86" x2="99.67" y2="148.86"/><line class="cls-22" x1="84.09" y1="150.02" x2="99.67" y2="150.02"/><line class="cls-22" x1="84.09" y1="151.19" x2="99.67" y2="151.19"/><line class="cls-22" x1="84.09" y1="152.36" x2="99.67" y2="152.36"/><line class="cls-22" x1="84.09" y1="153.52" x2="99.67" y2="153.52"/><line class="cls-22" x1="84.09" y1="154.69" x2="99.67" y2="154.69"/><line class="cls-22" x1="84.09" y1="155.86" x2="99.67" y2="155.86"/><line class="cls-22" x1="84.09" y1="157.03" x2="99.67" y2="157.03"/><line class="cls-22" x1="84.09" y1="158.19" x2="99.67" y2="158.19"/><line class="cls-22" x1="84.09" y1="159.36" x2="99.67" y2="159.36"/><line class="cls-22" x1="84.09" y1="160.53" x2="99.67" y2="160.53"/><line class="cls-22" x1="84.09" y1="161.69" x2="99.67" y2="161.69"/><line class="cls-22" x1="84.09" y1="162.86" x2="99.67" y2="162.86"/><line class="cls-22" x1="84.09" y1="164.03" x2="99.67" y2="164.03"/><line class="cls-22" x1="84.09" y1="165.19" x2="99.67" y2="165.19"/><line class="cls-22" x1="84.09" y1="166.36" x2="99.67" y2="166.36"/><line class="cls-22" x1="84.09" y1="167.53" x2="99.67" y2="167.53"/><line class="cls-22" x1="84.09" y1="168.69" x2="99.67" y2="168.69"/><line class="cls-22" x1="84.09" y1="169.86" x2="99.67" y2="169.86"/><line class="cls-22" x1="84.09" y1="171.03" x2="99.67" y2="171.03"/><line class="cls-22" x1="84.09" y1="172.19" x2="99.67" y2="172.19"/><line class="cls-22" x1="84.09" y1="173.36" x2="99.67" y2="173.36"/><line class="cls-22" x1="84.09" y1="174.53" x2="99.67" y2="174.53"/><line class="cls-22" x1="84.09" y1="175.69" x2="99.67" y2="175.69"/><line class="cls-22" x1="84.09" y1="176.86" x2="99.67" y2="176.86"/><line class="cls-22" x1="84.09" y1="178.03" x2="99.67" y2="178.03"/><line class="cls-22" x1="84.09" y1="179.2" x2="99.67" y2="179.2"/><line class="cls-22" x1="84.09" y1="180.36" x2="99.67" y2="180.36"/><line class="cls-22" x1="84.09" y1="181.53" x2="99.67" y2="181.53"/><line class="cls-22" x1="84.09" y1="182.7" x2="99.67" y2="182.7"/><line class="cls-22" x1="84.09" y1="183.86" x2="99.67" y2="183.86"/><line class="cls-22" x1="84.09" y1="185.03" x2="99.67" y2="185.03"/><line class="cls-22" x1="84.09" y1="186.2" x2="99.67" y2="186.2"/><line class="cls-22" x1="84.09" y1="187.36" x2="99.67" y2="187.36"/><line class="cls-22" x1="84.09" y1="188.53" x2="99.67" y2="188.53"/><line class="cls-22" x1="84.09" y1="189.7" x2="99.67" y2="189.7"/><line class="cls-22" x1="84.09" y1="190.86" x2="99.67" y2="190.86"/></g><rect class="cls-23" x="93.69" y="142.29" width="4.3" height="46.46"/><line class="cls-24" x1="93.69" y1="145.99" x2="97.99" y2="145.99"/><line class="cls-24" x1="93.69" y1="150.95" x2="97.99" y2="150.95"/><line class="cls-24" x1="93.69" y1="155.91" x2="97.99" y2="155.91"/><line class="cls-24" x1="93.69" y1="160.87" x2="97.99" y2="160.87"/><line class="cls-24" x1="93.69" y1="165.83" x2="97.99" y2="165.83"/><line class="cls-24" x1="93.69" y1="170.79" x2="97.99" y2="170.79"/><line class="cls-24" x1="93.69" y1="175.75" x2="97.99" y2="175.75"/><line class="cls-24" x1="93.69" y1="180.71" x2="97.99" y2="180.71"/><line class="cls-24" x1="93.69" y1="185.67" x2="97.99" y2="185.67"/><line class="cls-25" x1="95.4" y1="142.27" x2="95.4" y2="188.85"/><line class="cls-25" x1="96.38" y1="142.27" x2="96.38" y2="188.85"/><polygon class="cls-26" points="85.75 147.14 92.75 188.85 85.79 188.76 85.75 147.14"/><rect class="cls-27" x="88.73" y="144.5" width="0.93" height="0.56"/><rect class="cls-27" x="92.17" y="144.5" width="0.93" height="0.56"/><rect class="cls-27" x="86.48" y="145.66" width="1.45" height="0.56"/><rect class="cls-27" x="90.45" y="145.67" width="0.92" height="0.56"/><rect class="cls-27" x="92.17" y="145.67" width="0.92" height="0.56"/><rect class="cls-27" x="88.72" y="146.84" width="0.92" height="0.56"/><rect class="cls-27" x="90.44" y="146.84" width="0.92" height="0.56"/><rect class="cls-27" x="88.72" y="148" width="0.92" height="0.56"/><rect class="cls-27" x="86.47" y="147.99" width="1.45" height="0.56"/><rect class="cls-27" x="92.16" y="148" width="0.92" height="0.56"/><rect class="cls-27" x="88.71" y="149.17" width="0.92" height="0.56"/><rect class="cls-27" x="88.71" y="150.34" width="0.92" height="0.56"/><rect class="cls-27" x="86.46" y="150.33" width="1.45" height="0.56"/><rect class="cls-27" x="92.15" y="150.34" width="0.92" height="0.56"/><rect class="cls-27" x="90.42" y="151.5" width="0.92" height="0.56"/><rect class="cls-27" x="92.14" y="151.5" width="0.92" height="0.56"/><rect class="cls-27" x="88.7" y="152.67" width="0.92" height="0.56"/><rect class="cls-27" x="90.42" y="152.67" width="0.92" height="0.56"/><rect class="cls-27" x="88.69" y="153.84" width="0.92" height="0.56"/><rect class="cls-27" x="86.44" y="153.83" width="1.45" height="0.56"/><rect class="cls-27" x="90.41" y="153.84" width="0.92" height="0.56"/><rect class="cls-27" x="92.13" y="155" width="0.92" height="0.56"/><rect class="cls-27" x="86.43" y="156.16" width="1.45" height="0.56"/><rect class="cls-27" x="90.4" y="156.17" width="0.92" height="0.56"/><rect class="cls-27" x="92.12" y="156.17" width="0.92" height="0.56"/><rect class="cls-27" x="88.68" y="157.34" width="0.92" height="0.56"/><rect class="cls-27" x="88.68" y="158.5" width="0.92" height="0.56"/><rect class="cls-27" x="86.42" y="158.49" width="1.45" height="0.56"/><rect class="cls-27" x="90.4" y="158.5" width="0.92" height="0.56"/><rect class="cls-27" x="92.12" y="158.5" width="0.92" height="0.56"/><rect class="cls-27" x="88.67" y="159.67" width="0.92" height="0.56"/><rect class="cls-27" x="92.11" y="159.67" width="0.92" height="0.56"/><rect class="cls-27" x="88.67" y="160.84" width="0.92" height="0.56"/><rect class="cls-27" x="90.39" y="160.84" width="0.92" height="0.56"/><rect class="cls-27" x="86.41" y="162" width="1.45" height="0.56"/><rect class="cls-27" x="90.38" y="162" width="0.92" height="0.56"/><rect class="cls-27" x="92.1" y="162" width="0.92" height="0.56"/><rect class="cls-27" x="88.66" y="163.17" width="0.92" height="0.56"/><rect class="cls-27" x="86.41" y="163.16" width="1.45" height="0.56"/><rect class="cls-27" x="90.38" y="163.17" width="0.92" height="0.56"/><rect class="cls-27" x="92.09" y="164.34" width="0.92" height="0.56"/><rect class="cls-27" x="88.65" y="165.51" width="0.92" height="0.56"/><rect class="cls-27" x="90.37" y="165.51" width="0.92" height="0.56"/><rect class="cls-27" x="92.09" y="165.51" width="0.92" height="0.56"/><rect class="cls-27" x="86.39" y="166.66" width="1.45" height="0.56"/><rect class="cls-27" x="90.36" y="166.67" width="0.92" height="0.56"/><rect class="cls-27" x="88.64" y="167.84" width="0.92" height="0.56"/><rect class="cls-27" x="90.36" y="167.84" width="0.92" height="0.56"/><rect class="cls-27" x="92.08" y="167.84" width="0.92" height="0.56"/><rect class="cls-27" x="88.63" y="169.01" width="0.92" height="0.56"/><rect class="cls-27" x="86.38" y="169" width="1.45" height="0.56"/><rect class="cls-27" x="92.07" y="169.01" width="0.92" height="0.56"/><rect class="cls-27" x="88.63" y="170.17" width="0.92" height="0.56"/><rect class="cls-27" x="90.35" y="170.17" width="0.92" height="0.56"/><rect class="cls-27" x="86.37" y="171.33" width="1.45" height="0.56"/><rect class="cls-27" x="90.35" y="171.34" width="0.92" height="0.56"/><rect class="cls-27" x="92.06" y="171.34" width="0.92" height="0.56"/><rect class="cls-27" x="88.62" y="172.51" width="0.92" height="0.56"/><rect class="cls-27" x="86.37" y="173.66" width="1.45" height="0.56"/><rect class="cls-27" x="92.06" y="173.67" width="0.92" height="0.56"/><rect class="cls-27" x="86.36" y="174.83" width="1.45" height="0.56"/><rect class="cls-27" x="90.33" y="174.84" width="0.92" height="0.56"/><rect class="cls-27" x="92.05" y="174.84" width="0.92" height="0.56"/><rect class="cls-27" x="88.61" y="176.01" width="0.92" height="0.56"/><rect class="cls-27" x="90.33" y="176.01" width="0.92" height="0.56"/><rect class="cls-27" x="88.6" y="177.17" width="0.92" height="0.56"/><rect class="cls-27" x="86.35" y="177.16" width="1.45" height="0.56"/><rect class="cls-27" x="90.32" y="177.17" width="0.92" height="0.56"/><rect class="cls-27" x="92.04" y="177.17" width="0.92" height="0.56"/><rect class="cls-27" x="92.04" y="178.34" width="0.92" height="0.56"/><rect class="cls-27" x="86.34" y="179.5" width="1.45" height="0.56"/><rect class="cls-27" x="90.31" y="179.51" width="0.92" height="0.56"/><rect class="cls-27" x="92.03" y="179.51" width="0.92" height="0.56"/><rect class="cls-27" x="88.59" y="180.67" width="0.92" height="0.56"/><rect class="cls-27" x="86.34" y="180.67" width="1.45" height="0.56"/><rect class="cls-27" x="90.31" y="180.67" width="0.92" height="0.56"/><rect class="cls-27" x="88.58" y="181.84" width="0.92" height="0.56"/><rect class="cls-27" x="92.02" y="181.84" width="0.92" height="0.56"/><rect class="cls-27" x="88.58" y="183.01" width="0.92" height="0.56"/><rect class="cls-27" x="86.33" y="183" width="1.45" height="0.56"/><rect class="cls-27" x="90.3" y="183.01" width="0.92" height="0.56"/><rect class="cls-27" x="92.02" y="183.01" width="0.92" height="0.56"/><rect class="cls-27" x="90.29" y="184.17" width="0.92" height="0.56"/><rect class="cls-27" x="92.01" y="184.17" width="0.92" height="0.56"/><rect class="cls-27" x="88.57" y="185.34" width="0.92" height="0.56"/><rect class="cls-27" x="86.32" y="185.33" width="1.45" height="0.56"/><rect class="cls-27" x="90.29" y="185.34" width="0.92" height="0.56"/><rect class="cls-27" x="92.01" y="185.34" width="0.92" height="0.56"/><rect class="cls-27" x="88.57" y="186.51" width="0.92" height="0.56"/><rect class="cls-27" x="92.01" y="186.51" width="0.92" height="0.56"/><rect class="cls-27" x="88.56" y="187.68" width="0.92" height="0.56"/><rect class="cls-27" x="86.31" y="187.67" width="1.45" height="0.56"/><rect class="cls-27" x="92" y="187.68" width="0.92" height="0.56"/><rect class="cls-27" x="88.73" y="143.34" width="0.93" height="0.56"/><rect class="cls-27" x="90.45" y="143.34" width="0.93" height="0.56"/><rect class="cls-28" x="101.25" y="111.6" width="2.99" height="0.66"/><rect class="cls-28" x="106.82" y="103.38" width="0.53" height="9.29"/><rect class="cls-6" x="100.18" y="112.26" width="12.25" height="76.59"/><rect class="cls-29" x="99.69" y="113.11" width="0.88" height="75.75"/><rect class="cls-29" x="111.65" y="113.11" width="0.88" height="75.75"/><rect class="cls-27" x="104.94" y="114.01" width="2.33" height="0.83"/><rect class="cls-27" x="108.13" y="114.01" width="2.33" height="0.83"/><rect class="cls-27" x="101.75" y="115.59" width="2.33" height="0.83"/><rect class="cls-27" x="104.94" y="115.59" width="2.33" height="0.83"/><rect class="cls-27" x="108.13" y="115.59" width="2.33" height="0.83"/><rect class="cls-27" x="101.75" y="117.16" width="2.33" height="0.83"/><rect class="cls-27" x="104.94" y="117.16" width="2.33" height="0.83"/><rect class="cls-27" x="101.75" y="118.73" width="2.33" height="0.83"/><rect class="cls-27" x="104.94" y="118.73" width="2.33" height="0.83"/><rect class="cls-27" x="108.13" y="118.73" width="2.33" height="0.83"/><rect class="cls-27" x="101.75" y="120.31" width="2.33" height="0.83"/><rect class="cls-27" x="108.13" y="120.31" width="2.33" height="0.83"/><rect class="cls-27" x="101.75" y="121.88" width="2.33" height="0.83"/><rect class="cls-27" x="104.94" y="121.88" width="2.33" height="0.83"/><rect class="cls-27" x="108.13" y="121.88" width="2.33" height="0.83"/><rect class="cls-27" x="101.75" y="123.46" width="2.33" height="0.83"/><rect class="cls-27" x="104.94" y="123.46" width="2.33" height="0.83"/><rect class="cls-27" x="104.94" y="125.03" width="2.33" height="0.83"/><rect class="cls-27" x="108.13" y="125.03" width="2.33" height="0.83"/><rect class="cls-27" x="101.75" y="126.61" width="2.33" height="0.83"/><rect class="cls-27" x="104.94" y="126.61" width="2.33" height="0.83"/><rect class="cls-27" x="108.13" y="126.61" width="2.33" height="0.83"/><rect class="cls-27" x="101.75" y="128.18" width="2.33" height="0.83"/><rect class="cls-27" x="108.13" y="128.18" width="2.33" height="0.83"/><rect class="cls-27" x="101.75" y="129.75" width="2.33" height="0.83"/><rect class="cls-27" x="108.13" y="129.75" width="2.33" height="0.83"/><rect class="cls-27" x="101.75" y="131.33" width="2.33" height="0.83"/><rect class="cls-27" x="104.94" y="131.33" width="2.33" height="0.83"/><rect class="cls-27" x="108.13" y="132.9" width="2.33" height="0.83"/><rect class="cls-27" x="101.75" y="134.48" width="2.33" height="0.83"/><rect class="cls-27" x="104.94" y="134.48" width="2.33" height="0.83"/><rect class="cls-27" x="101.75" y="136.05" width="2.33" height="0.83"/><rect class="cls-27" x="104.94" y="136.05" width="2.33" height="0.83"/><rect class="cls-27" x="108.13" y="136.05" width="2.33" height="0.83"/><rect class="cls-27" x="101.75" y="139.2" width="2.33" height="0.83"/><rect class="cls-27" x="104.94" y="139.2" width="2.33" height="0.83"/><rect class="cls-27" x="108.13" y="139.2" width="2.33" height="0.83"/><rect class="cls-27" x="104.94" y="140.77" width="2.33" height="0.83"/><rect class="cls-27" x="101.75" y="142.35" width="2.33" height="0.83"/><rect class="cls-27" x="104.94" y="142.35" width="2.33" height="0.83"/><rect class="cls-27" x="108.13" y="142.35" width="2.33" height="0.83"/><rect class="cls-27" x="101.75" y="143.92" width="2.33" height="0.83"/><rect class="cls-27" x="108.13" y="143.92" width="2.33" height="0.83"/><rect class="cls-27" x="104.94" y="145.49" width="2.33" height="0.83"/><rect class="cls-27" x="108.13" y="145.49" width="2.33" height="0.83"/><rect class="cls-27" x="101.75" y="147.07" width="2.33" height="0.83"/><rect class="cls-27" x="104.94" y="147.07" width="2.33" height="0.83"/><rect class="cls-27" x="104.94" y="148.64" width="2.33" height="0.83"/><rect class="cls-27" x="108.13" y="148.64" width="2.33" height="0.83"/><rect class="cls-27" x="101.75" y="150.22" width="2.33" height="0.83"/><rect class="cls-27" x="104.94" y="150.22" width="2.33" height="0.83"/><rect class="cls-27" x="108.13" y="150.22" width="2.33" height="0.83"/><rect class="cls-27" x="101.75" y="151.79" width="2.33" height="0.83"/><rect class="cls-27" x="108.13" y="151.79" width="2.33" height="0.83"/><rect class="cls-27" x="101.75" y="153.36" width="2.33" height="0.83"/><rect class="cls-27" x="104.94" y="153.36" width="2.33" height="0.83"/><rect class="cls-27" x="104.94" y="154.94" width="2.33" height="0.83"/><rect class="cls-27" x="108.13" y="154.94" width="2.33" height="0.83"/><rect class="cls-27" x="101.75" y="156.51" width="2.33" height="0.83"/><rect class="cls-27" x="108.13" y="156.51" width="2.33" height="0.83"/><rect class="cls-27" x="101.75" y="158.09" width="2.33" height="0.83"/><rect class="cls-27" x="104.94" y="158.09" width="2.33" height="0.83"/><rect class="cls-27" x="108.13" y="158.09" width="2.33" height="0.83"/><rect class="cls-27" x="101.75" y="159.66" width="2.33" height="0.83"/><rect class="cls-27" x="104.94" y="159.66" width="2.33" height="0.83"/><rect class="cls-27" x="108.13" y="161.23" width="2.33" height="0.83"/><rect class="cls-27" x="101.75" y="162.81" width="2.33" height="0.83"/><rect class="cls-27" x="104.94" y="162.81" width="2.33" height="0.83"/><rect class="cls-27" x="108.13" y="162.81" width="2.33" height="0.83"/><rect class="cls-27" x="101.75" y="164.38" width="2.33" height="0.83"/><rect class="cls-27" x="104.94" y="164.38" width="2.33" height="0.83"/><rect class="cls-27" x="104.94" y="167.53" width="2.33" height="0.83"/><rect class="cls-27" x="108.13" y="167.53" width="2.33" height="0.83"/><rect class="cls-27" x="101.75" y="169.1" width="2.33" height="0.83"/><polyline class="cls-27" points="110.46 169.1 110.46 169.93 108.13 169.93 108.13 169.1"/><rect class="cls-27" x="101.75" y="170.68" width="2.33" height="0.83"/><rect class="cls-27" x="104.94" y="170.68" width="2.33" height="0.83"/><rect class="cls-27" x="108.13" y="170.68" width="2.33" height="0.83"/><rect class="cls-27" x="101.75" y="172.25" width="2.33" height="0.83"/><rect class="cls-27" x="108.13" y="172.25" width="2.33" height="0.83"/><rect class="cls-27" x="101.75" y="173.83" width="2.33" height="0.83"/><rect class="cls-27" x="104.94" y="173.83" width="2.33" height="0.83"/><rect class="cls-27" x="104.94" y="175.4" width="2.33" height="0.83"/><rect class="cls-27" x="101.75" y="176.97" width="2.33" height="0.83"/><rect class="cls-27" x="104.94" y="176.97" width="2.33" height="0.83"/><rect class="cls-27" x="108.13" y="176.97" width="2.33" height="0.83"/><rect class="cls-27" x="101.75" y="178.55" width="2.33" height="0.83"/><rect class="cls-27" x="108.13" y="178.55" width="2.33" height="0.83"/><rect class="cls-27" x="108.13" y="180.12" width="2.33" height="0.83"/><rect class="cls-27" x="101.75" y="181.7" width="2.33" height="0.83"/><rect class="cls-27" x="104.94" y="181.7" width="2.33" height="0.83"/><rect class="cls-27" x="104.94" y="183.27" width="2.33" height="0.83"/><rect class="cls-27" x="108.13" y="183.27" width="2.33" height="0.83"/><rect class="cls-27" x="101.75" y="184.84" width="2.33" height="0.83"/><rect class="cls-27" x="104.94" y="184.84" width="2.33" height="0.83"/><rect class="cls-27" x="108.13" y="184.84" width="2.33" height="0.83"/><rect class="cls-27" x="101.75" y="186.42" width="2.33" height="0.83"/><rect class="cls-27" x="108.13" y="186.42" width="2.33" height="0.83"/><rect class="cls-30" x="113.6" y="133.72" width="28.15" height="55.13"/><g class="cls-31"><rect class="cls-32" x="113.16" y="134.84" width="29.1" height="1.26"/><rect class="cls-32" x="113.16" y="137.25" width="29.1" height="1.26"/><rect class="cls-32" x="113.16" y="139.65" width="29.1" height="1.26"/><rect class="cls-32" x="113.16" y="142.06" width="29.1" height="1.26"/><rect class="cls-32" x="113.16" y="144.47" width="29.1" height="1.26"/><rect class="cls-32" x="113.16" y="146.87" width="29.1" height="1.26"/><rect class="cls-32" x="113.16" y="149.28" width="29.1" height="1.26"/><rect class="cls-32" x="113.16" y="151.69" width="29.1" height="1.26"/><rect class="cls-32" x="113.16" y="154.09" width="29.1" height="1.26"/><rect class="cls-32" x="113.16" y="156.5" width="29.1" height="1.26"/><rect class="cls-32" x="113.16" y="158.91" width="29.1" height="1.26"/><rect class="cls-32" x="113.16" y="161.31" width="29.1" height="1.26"/><rect class="cls-32" x="113.16" y="163.72" width="29.1" height="1.26"/><rect class="cls-32" x="113.16" y="166.13" width="29.1" height="1.26"/><rect class="cls-32" x="113.16" y="168.53" width="29.1" height="1.26"/><rect class="cls-32" x="113.16" y="170.94" width="29.1" height="1.26"/><rect class="cls-32" x="113.16" y="173.35" width="29.1" height="1.26"/><rect class="cls-32" x="113.16" y="175.75" width="29.1" height="1.26"/><rect class="cls-32" x="113.16" y="178.16" width="29.1" height="1.26"/><rect class="cls-32" x="113.16" y="180.57" width="29.1" height="1.26"/><rect class="cls-32" x="113.16" y="182.97" width="29.1" height="1.26"/><rect class="cls-32" x="113.16" y="185.38" width="29.1" height="1.26"/><rect class="cls-32" x="113.16" y="187.79" width="29.1" height="1.26"/></g><rect class="cls-27" x="114.89" y="136.1" width="1.98" height="1.13"/><rect class="cls-27" x="118.76" y="136.1" width="1.98" height="1.13"/><rect class="cls-27" x="122.62" y="136.1" width="1.98" height="1.13"/><rect class="cls-27" x="126.49" y="136.1" width="1.98" height="1.13"/><rect class="cls-27" x="130.36" y="136.1" width="1.98" height="1.13"/><rect class="cls-27" x="134.23" y="136.1" width="1.98" height="1.13"/><rect class="cls-27" x="138.1" y="136.1" width="1.98" height="1.13"/><rect class="cls-27" x="118.76" y="138.51" width="1.98" height="1.13"/><rect class="cls-27" x="122.62" y="138.51" width="1.98" height="1.13"/><rect class="cls-27" x="130.36" y="138.51" width="1.98" height="1.13"/><rect class="cls-27" x="134.23" y="138.51" width="1.98" height="1.13"/><rect class="cls-27" x="138.1" y="138.51" width="1.98" height="1.13"/><rect class="cls-27" x="114.89" y="140.92" width="1.98" height="1.13"/><rect class="cls-27" x="118.76" y="140.92" width="1.98" height="1.13"/><rect class="cls-27" x="122.62" y="140.92" width="1.98" height="1.13"/><rect class="cls-27" x="126.49" y="140.92" width="1.98" height="1.13"/><rect class="cls-27" x="130.36" y="140.92" width="1.98" height="1.13"/><rect class="cls-27" x="138.1" y="140.92" width="1.98" height="1.13"/><rect class="cls-27" x="114.89" y="143.33" width="1.98" height="1.13"/><rect class="cls-27" x="126.49" y="143.33" width="1.98" height="1.13"/><rect class="cls-27" x="130.36" y="143.33" width="1.98" height="1.13"/><rect class="cls-27" x="134.23" y="143.33" width="1.98" height="1.13"/><rect class="cls-27" x="138.1" y="143.33" width="1.98" height="1.13"/><rect class="cls-27" x="114.89" y="145.74" width="1.98" height="1.13"/><rect class="cls-27" x="122.62" y="145.74" width="1.98" height="1.13"/><rect class="cls-27" x="126.49" y="145.74" width="1.98" height="1.13"/><rect class="cls-27" x="138.1" y="145.74" width="1.98" height="1.13"/><rect class="cls-27" x="114.89" y="148.14" width="1.98" height="1.13"/><rect class="cls-27" x="118.76" y="148.14" width="1.98" height="1.13"/><rect class="cls-27" x="122.62" y="148.14" width="1.98" height="1.13"/><rect class="cls-27" x="126.49" y="148.14" width="1.98" height="1.13"/><rect class="cls-27" x="130.36" y="148.14" width="1.98" height="1.13"/><rect class="cls-27" x="134.23" y="148.14" width="1.98" height="1.13"/><rect class="cls-27" x="138.1" y="148.14" width="1.98" height="1.13"/><rect class="cls-27" x="126.49" y="150.55" width="1.98" height="1.13"/><rect class="cls-27" x="130.36" y="150.55" width="1.98" height="1.13"/><rect class="cls-27" x="138.1" y="150.55" width="1.98" height="1.13"/><rect class="cls-27" x="114.89" y="152.96" width="1.98" height="1.13"/><rect class="cls-27" x="118.76" y="152.96" width="1.98" height="1.13"/><rect class="cls-27" x="122.62" y="152.96" width="1.98" height="1.13"/><rect class="cls-27" x="126.49" y="152.96" width="1.98" height="1.13"/><rect class="cls-27" x="130.36" y="152.96" width="1.98" height="1.13"/><rect class="cls-27" x="134.23" y="152.96" width="1.98" height="1.13"/><rect class="cls-27" x="118.76" y="155.37" width="1.98" height="1.13"/><rect class="cls-27" x="134.23" y="155.37" width="1.98" height="1.13"/><rect class="cls-27" x="138.1" y="155.37" width="1.98" height="1.13"/><rect class="cls-27" x="114.89" y="157.77" width="1.98" height="1.13"/><rect class="cls-27" x="118.76" y="157.77" width="1.98" height="1.13"/><rect class="cls-27" x="122.62" y="157.77" width="1.98" height="1.13"/><rect class="cls-27" x="126.49" y="157.77" width="1.98" height="1.13"/><rect class="cls-27" x="130.36" y="157.77" width="1.98" height="1.13"/><rect class="cls-27" x="134.23" y="157.77" width="1.98" height="1.13"/><rect class="cls-27" x="138.1" y="157.77" width="1.98" height="1.13"/><rect class="cls-27" x="114.89" y="160.18" width="1.98" height="1.13"/><rect class="cls-27" x="122.62" y="160.18" width="1.98" height="1.13"/><rect class="cls-27" x="130.36" y="160.18" width="1.98" height="1.13"/><rect class="cls-27" x="138.1" y="160.18" width="1.98" height="1.13"/><rect class="cls-27" x="118.76" y="162.59" width="1.98" height="1.13"/><rect class="cls-27" x="122.62" y="162.59" width="1.98" height="1.13"/><rect class="cls-27" x="126.49" y="162.59" width="1.98" height="1.13"/><rect class="cls-27" x="130.36" y="162.59" width="1.98" height="1.13"/><rect class="cls-27" x="134.23" y="162.59" width="1.98" height="1.13"/><rect class="cls-27" x="138.1" y="162.59" width="1.98" height="1.13"/><rect class="cls-27" x="114.89" y="165" width="1.98" height="1.13"/><rect class="cls-27" x="130.36" y="165" width="1.98" height="1.13"/><rect class="cls-27" x="134.23" y="165" width="1.98" height="1.13"/><rect class="cls-27" x="138.1" y="165" width="1.98" height="1.13"/><rect class="cls-27" x="114.89" y="167.41" width="1.98" height="1.13"/><rect class="cls-27" x="118.76" y="167.41" width="1.98" height="1.13"/><rect class="cls-27" x="122.62" y="167.41" width="1.98" height="1.13"/><rect class="cls-27" x="126.49" y="167.41" width="1.98" height="1.13"/><rect class="cls-27" x="130.36" y="167.41" width="1.98" height="1.13"/><rect class="cls-27" x="138.1" y="167.41" width="1.98" height="1.13"/><rect class="cls-27" x="118.76" y="169.81" width="1.98" height="1.13"/><rect class="cls-27" x="122.62" y="169.81" width="1.98" height="1.13"/><rect class="cls-27" x="130.36" y="169.81" width="1.98" height="1.13"/><rect class="cls-27" x="134.23" y="169.81" width="1.98" height="1.13"/><rect class="cls-27" x="138.1" y="169.81" width="1.98" height="1.13"/><rect class="cls-27" x="114.89" y="172.22" width="1.98" height="1.13"/><rect class="cls-27" x="118.76" y="172.22" width="1.98" height="1.13"/><rect class="cls-27" x="126.49" y="172.22" width="1.98" height="1.13"/><rect class="cls-27" x="130.36" y="172.22" width="1.98" height="1.13"/><rect class="cls-27" x="134.23" y="172.22" width="1.98" height="1.13"/><rect class="cls-27" x="138.1" y="172.22" width="1.98" height="1.13"/><rect class="cls-27" x="118.76" y="174.63" width="1.98" height="1.13"/><rect class="cls-27" x="122.62" y="174.63" width="1.98" height="1.13"/><rect class="cls-27" x="126.49" y="174.63" width="1.98" height="1.13"/><rect class="cls-27" x="130.36" y="174.63" width="1.98" height="1.13"/><rect class="cls-27" x="138.1" y="174.63" width="1.98" height="1.13"/><rect class="cls-27" x="114.89" y="177.04" width="1.98" height="1.13"/><rect class="cls-27" x="122.62" y="177.04" width="1.98" height="1.13"/><rect class="cls-27" x="126.49" y="177.04" width="1.98" height="1.13"/><rect class="cls-27" x="134.23" y="177.04" width="1.98" height="1.13"/><rect class="cls-27" x="114.89" y="179.44" width="1.98" height="1.13"/><rect class="cls-27" x="118.76" y="179.44" width="1.98" height="1.13"/><rect class="cls-27" x="122.62" y="179.44" width="1.98" height="1.13"/><rect class="cls-27" x="126.49" y="179.44" width="1.98" height="1.13"/><rect class="cls-27" x="130.36" y="179.44" width="1.98" height="1.13"/><rect class="cls-27" x="134.23" y="179.44" width="1.98" height="1.13"/><rect class="cls-27" x="138.1" y="179.44" width="1.98" height="1.13"/><rect class="cls-27" x="118.76" y="181.85" width="1.98" height="1.13"/><rect class="cls-27" x="126.49" y="181.85" width="1.98" height="1.13"/><rect class="cls-27" x="134.23" y="181.85" width="1.98" height="1.13"/><rect class="cls-27" x="138.1" y="181.85" width="1.98" height="1.13"/><rect class="cls-27" x="114.89" y="184.26" width="1.98" height="1.13"/><rect class="cls-27" x="122.62" y="184.26" width="1.98" height="1.13"/><rect class="cls-27" x="130.36" y="184.26" width="1.98" height="1.13"/><rect class="cls-27" x="138.1" y="184.26" width="1.98" height="1.13"/><rect class="cls-27" x="114.89" y="186.67" width="1.98" height="1.13"/><rect class="cls-27" x="126.49" y="186.67" width="1.98" height="1.13"/><rect class="cls-27" x="130.36" y="186.67" width="1.98" height="1.13"/><rect class="cls-27" x="134.23" y="186.67" width="1.98" height="1.13"/><rect class="cls-27" x="138.1" y="186.67" width="1.98" height="1.13"/><rect class="cls-33" x="176.56" y="133.01" width="0.36" height="7.05"/><rect class="cls-6" x="172.89" y="139.86" width="7.86" height="4.95"/><rect class="cls-6" x="170.44" y="142.29" width="12.69" height="8.35"/><rect class="cls-6" x="169.1" y="145.22" width="15.36" height="11.26"/><rect class="cls-6" x="168.6" y="149.47" width="16.36" height="39.38"/><rect class="cls-34" x="184.46" y="147.87" width="1.8" height="40.99"/><rect class="cls-34" x="167.3" y="147.87" width="1.8" height="40.99"/><rect class="cls-34" x="168.34" y="154.87" width="16.97" height="0.53"/><rect class="cls-34" x="168.34" y="160.75" width="16.97" height="0.53"/><rect class="cls-34" x="168.34" y="166.64" width="16.97" height="0.53"/><rect class="cls-34" x="168.34" y="172.52" width="16.97" height="0.53"/><rect class="cls-34" x="168.34" y="178.4" width="16.97" height="0.53"/><rect class="cls-34" x="168.34" y="184.29" width="16.97" height="0.53"/><rect class="cls-35" x="169.1" y="151.65" width="15.36" height="3.22"/><rect class="cls-36" x="171.44" y="151.65" width="10.67" height="3.22"/><rect class="cls-35" x="170.43" y="148.43" width="12.7" height="3.22"/><rect class="cls-36" x="172.37" y="148.43" width="8.82" height="3.22"/><rect class="cls-35" x="173.34" y="145.21" width="6.87" height="3.22"/><rect class="cls-36" x="174.95" y="145.21" width="3.65" height="3.22"/><rect class="cls-35" x="174.08" y="142.33" width="5.4" height="2.88"/><rect class="cls-36" x="175.34" y="142.33" width="2.87" height="2.88"/><rect class="cls-35" x="175.05" y="139.89" width="3.45" height="2.44"/><rect class="cls-36" x="175.67" y="139.89" width="2.21" height="2.44"/><rect class="cls-33" x="176.28" y="145.24" width="1" height="43.37"/><rect class="cls-37" x="193.67" y="146.43" width="37.78" height="42.42"/><rect class="cls-38" x="192.85" y="171.5" width="29.99" height="1.82"/><rect class="cls-38" x="192.85" y="155.31" width="35.28" height="2.18"/><rect class="cls-38" x="192.85" y="153.3" width="35.28" height="1.08"/><rect class="cls-39" x="193.67" y="146.43" width="37.78" height="1.63"/><rect class="cls-38" x="194.48" y="145.03" width="1.2" height="9.12"/><rect class="cls-38" x="203.99" y="145.03" width="1.2" height="9.12"/><rect class="cls-38" x="213.51" y="145.03" width="1.2" height="9.12"/><rect class="cls-38" x="223.03" y="145.03" width="1.2" height="9.12"/><path class="cls-38" d="M204.32,149.18l-1.77,1.11a1.76,1.76,0,0,0-.83,1.5v1.74h2.79Z"/><path class="cls-38" d="M204.88,149.18l1.77,1.11a1.76,1.76,0,0,1,.83,1.5v1.74h-2.79Z"/><path class="cls-38" d="M213.87,149.18l-1.76,1.11a1.77,1.77,0,0,0-.84,1.5v1.74h2.8Z"/><path class="cls-38" d="M214.43,149.18l1.77,1.11a1.76,1.76,0,0,1,.83,1.5v1.74h-2.79Z"/><path class="cls-38" d="M223.35,149.18l-1.76,1.11a1.77,1.77,0,0,0-.84,1.5v1.74h2.8Z"/><path class="cls-38" d="M223.91,149.18l1.77,1.11a1.76,1.76,0,0,1,.83,1.5v1.74h-2.79Z"/><path class="cls-38" d="M195.25,149.18l1.77,1.11a1.76,1.76,0,0,1,.83,1.5v1.74h-2.79Z"/><path class="cls-38" d="M195.44,157.42h2.49a0,0,0,0,1,0,0v.92a.65.65,0,0,1-.65.65h-1.19a.65.65,0,0,1-.65-.65v-.92A0,0,0,0,1,195.44,157.42Z"/><path class="cls-38" d="M195.44,170.08h2.49a0,0,0,0,1,0,0v.74a.65.65,0,0,1-.65.65h-1.19a.65.65,0,0,1-.65-.65v-.74A0,0,0,0,1,195.44,170.08Z" transform="translate(393.36 341.54) rotate(180)"/><rect class="cls-40" x="196.1" y="158.99" width="1.17" height="11.09"/><path class="cls-38" d="M205.34,157.42h2.49a0,0,0,0,1,0,0v.92a.65.65,0,0,1-.65.65H206a.65.65,0,0,1-.65-.65v-.92A0,0,0,0,1,205.34,157.42Z"/><path class="cls-38" d="M205.34,170.08h2.49a0,0,0,0,1,0,0v.74a.65.65,0,0,1-.65.65H206a.65.65,0,0,1-.65-.65v-.74A0,0,0,0,1,205.34,170.08Z" transform="translate(413.16 341.54) rotate(180)"/><rect class="cls-40" x="206" y="158.99" width="1.17" height="11.09"/><path class="cls-38" d="M215.24,157.42h2.49a0,0,0,0,1,0,0v.92a.65.65,0,0,1-.65.65h-1.19a.65.65,0,0,1-.65-.65v-.92A0,0,0,0,1,215.24,157.42Z"/><path class="cls-38" d="M215.24,170.08h2.49a0,0,0,0,1,0,0v.74a.65.65,0,0,1-.65.65h-1.19a.65.65,0,0,1-.65-.65v-.74A0,0,0,0,1,215.24,170.08Z" transform="translate(432.96 341.54) rotate(180)"/><rect class="cls-40" x="215.9" y="158.99" width="1.17" height="11.09"/><path class="cls-38" d="M201.68,159.66h0a2,2,0,0,1,2,2v7.13a0,0,0,0,1,0,0h-3.91a0,0,0,0,1,0,0v-7.13A2,2,0,0,1,201.68,159.66Z"/><path class="cls-38" d="M211.43,159.66h0a2,2,0,0,1,2,2v7.13a0,0,0,0,1,0,0h-3.91a0,0,0,0,1,0,0v-7.13A2,2,0,0,1,211.43,159.66Z"/><rect class="cls-41" x="193.67" y="173.47" width="27.86" height="6.64"/><path class="cls-38" d="M201.49,175.89h0a2,2,0,0,1,2,2v5.8a0,0,0,0,1,0,0h-3.91a0,0,0,0,1,0,0v-5.8A2,2,0,0,1,201.49,175.89Z"/><path class="cls-42" d="M198.71,183.6h5.56a0,0,0,0,1,0,0v.6a.93.93,0,0,1-.93.93h-3.7a.93.93,0,0,1-.93-.93v-.6A0,0,0,0,1,198.71,183.6Z"/><path class="cls-38" d="M210.1,175.83h0a2,2,0,0,1,2,2v5.8a0,0,0,0,1,0,0h-3.91a0,0,0,0,1,0,0v-5.8A2,2,0,0,1,210.1,175.83Z"/><path class="cls-42" d="M207.32,183.55h5.56a0,0,0,0,1,0,0v.6a.93.93,0,0,1-.93.93h-3.7a.93.93,0,0,1-.93-.93v-.6a0,0,0,0,1,0,0Z"/><polygon class="cls-37" points="211.17 156.61 230.73 141.28 230.73 156.61 211.17 156.61"/><path class="cls-43" d="M229.85,143.08v12.66H213.7l16.15-12.66m1.75-3.6-23,18h23v-18Z"/><rect class="cls-44" x="32.79" y="188.37" width="217.33" height="58.34"/><g class="cls-45"><polygon class="cls-5" points="30.34 188.27 30.34 246.03 39.87 239.61 39.87 216.08 48.23 216.08 48.23 249.73 58.54 249.73 58.54 216.28 76.04 216.28 76.04 220.56 91.99 220.56 91.99 208.21 106.96 208.21 106.96 228.15 124.46 228.15 124.46 204.8 138.85 204.8 138.85 219.39 159.08 219.39 159.08 201.11 163.16 201.11 163.16 224.25 184.17 224.25 184.17 213.36 189.03 213.36 189.03 219.97 198.75 219.97 198.75 251.09 206.73 251.09 206.73 258.48 215.09 258.48 215.09 261.39 232.79 261.39 232.79 188.47 30.34 188.27"/><rect class="cls-6" x="55.81" y="188.31" width="175.42" height="6.09"/><polygon class="cls-46" points="76.28 277.03 74.55 277.51 74.55 277.61 74.37 277.56 74.19 277.61 74.19 277.51 72.46 277.03 69.39 188.27 74.19 188.27 74.55 188.27 79.35 188.27 76.28 277.03"/><line class="cls-13" x1="73.42" y1="276.84" x2="73.42" y2="188.71"/><line class="cls-13" x1="75.32" y1="276.84" x2="75.32" y2="188.71"/><g class="cls-47"><ellipse class="cls-16" cx="35.72" cy="193.48" rx="50.66" ry="37"/><ellipse class="cls-17" cx="35.72" cy="193.48" rx="47.6" ry="34.76"/><ellipse class="cls-16" cx="35.72" cy="193.48" rx="44.71" ry="32.65"/></g><rect class="cls-8" x="-13.32" y="188.27" width="97.84" height="15.14"/><rect class="cls-18" x="56.91" y="195.86" width="5.8" height="2.44" rx="0.32" ry="0.32"/><rect class="cls-18" x="63.11" y="195.86" width="5.8" height="2.44" rx="0.32" ry="0.32"/><rect class="cls-18" x="69.31" y="195.86" width="5.8" height="2.44" rx="0.32" ry="0.32"/><rect class="cls-18" x="33.28" y="195.86" width="5.8" height="2.44" rx="0.32" ry="0.32"/><rect class="cls-18" x="39.48" y="195.86" width="5.8" height="2.44" rx="0.32" ry="0.32"/><rect class="cls-18" x="45.68" y="195.86" width="5.8" height="2.44" rx="0.32" ry="0.32"/><rect class="cls-18" x="-8.73" y="188.27" width="93.25" height="5.62"/><rect class="cls-19" x="53.23" y="188.27" width="0.66" height="5.83"/><rect class="cls-19" x="65.4" y="188.31" width="0.66" height="5.83"/><rect class="cls-16" x="-13.61" y="193.92" width="98.6" height="0.69"/><rect class="cls-18" x="75.46" y="199.96" width="0.92" height="4.21"/><rect class="cls-18" x="66.46" y="199.96" width="0.92" height="4.21"/><rect class="cls-18" x="57.45" y="199.96" width="0.92" height="4.21"/><rect class="cls-18" x="48.45" y="199.96" width="0.92" height="4.21"/><rect class="cls-18" x="39.45" y="199.96" width="0.92" height="4.21"/><rect class="cls-18" x="30.45" y="199.96" width="0.92" height="4.21"/><rect class="cls-18" x="21.45" y="199.96" width="0.92" height="4.21"/><rect class="cls-18" x="12.45" y="199.96" width="0.92" height="4.21"/><rect class="cls-18" x="3.45" y="199.96" width="0.92" height="4.21"/><rect class="cls-16" x="-13.76" y="201.11" width="98.6" height="1.39"/><rect class="cls-18" x="-13.69" y="199.35" width="98.6" height="0.96"/><path class="cls-6" d="M93.66,234.64v1.21A2.34,2.34,0,0,0,96,238.18h0a1.13,1.13,0,0,1,1.13,1.12v5.43h.29v-10Z"/><rect class="cls-6" x="88.58" y="234.33" width="5.5" height="1.21"/><rect class="cls-6" x="86.02" y="231.7" width="2.16" height="1.68"/><polygon class="cls-20" points="85.72 188.38 85.72 231.7 88.18 231.7 88.18 234.76 97.82 234.76 97.82 188.38 85.72 188.38"/><g class="cls-48"><line class="cls-22" x1="84.07" y1="235.27" x2="99.64" y2="235.27"/><line class="cls-22" x1="84.07" y1="234.1" x2="99.64" y2="234.1"/><line class="cls-22" x1="84.07" y1="232.94" x2="99.64" y2="232.94"/><line class="cls-22" x1="84.07" y1="231.77" x2="99.64" y2="231.77"/><line class="cls-22" x1="84.07" y1="230.6" x2="99.64" y2="230.6"/><line class="cls-22" x1="84.07" y1="229.44" x2="99.64" y2="229.44"/><line class="cls-22" x1="84.07" y1="228.27" x2="99.64" y2="228.27"/><line class="cls-22" x1="84.07" y1="227.1" x2="99.64" y2="227.1"/><line class="cls-22" x1="84.07" y1="225.94" x2="99.64" y2="225.94"/><line class="cls-22" x1="84.07" y1="224.77" x2="99.64" y2="224.77"/><line class="cls-22" x1="84.07" y1="223.6" x2="99.64" y2="223.6"/><line class="cls-22" x1="84.07" y1="222.44" x2="99.64" y2="222.44"/><line class="cls-22" x1="84.07" y1="221.27" x2="99.64" y2="221.27"/><line class="cls-22" x1="84.07" y1="220.1" x2="99.64" y2="220.1"/><line class="cls-22" x1="84.07" y1="218.94" x2="99.64" y2="218.94"/><line class="cls-22" x1="84.07" y1="217.77" x2="99.64" y2="217.77"/><line class="cls-22" x1="84.07" y1="216.6" x2="99.64" y2="216.6"/><line class="cls-22" x1="84.07" y1="215.43" x2="99.64" y2="215.43"/><line class="cls-22" x1="84.07" y1="214.27" x2="99.64" y2="214.27"/><line class="cls-22" x1="84.07" y1="213.1" x2="99.64" y2="213.1"/><line class="cls-22" x1="84.07" y1="211.93" x2="99.64" y2="211.93"/><line class="cls-22" x1="84.07" y1="210.77" x2="99.64" y2="210.77"/><line class="cls-22" x1="84.07" y1="209.6" x2="99.64" y2="209.6"/><line class="cls-22" x1="84.07" y1="208.43" x2="99.64" y2="208.43"/><line class="cls-22" x1="84.07" y1="207.27" x2="99.64" y2="207.27"/><line class="cls-22" x1="84.07" y1="206.1" x2="99.64" y2="206.1"/><line class="cls-22" x1="84.07" y1="204.93" x2="99.64" y2="204.93"/><line class="cls-22" x1="84.07" y1="203.77" x2="99.64" y2="203.77"/><line class="cls-22" x1="84.07" y1="202.6" x2="99.64" y2="202.6"/><line class="cls-22" x1="84.07" y1="201.43" x2="99.64" y2="201.43"/><line class="cls-22" x1="84.07" y1="200.27" x2="99.64" y2="200.27"/><line class="cls-22" x1="84.07" y1="199.1" x2="99.64" y2="199.1"/><line class="cls-22" x1="84.07" y1="197.93" x2="99.64" y2="197.93"/><line class="cls-22" x1="84.07" y1="196.76" x2="99.64" y2="196.76"/><line class="cls-22" x1="84.07" y1="195.6" x2="99.64" y2="195.6"/><line class="cls-22" x1="84.07" y1="194.43" x2="99.64" y2="194.43"/><line class="cls-22" x1="84.07" y1="193.26" x2="99.64" y2="193.26"/><line class="cls-22" x1="84.07" y1="192.1" x2="99.64" y2="192.1"/><line class="cls-22" x1="84.07" y1="190.93" x2="99.64" y2="190.93"/><line class="cls-22" x1="84.07" y1="189.76" x2="99.64" y2="189.76"/><line class="cls-22" x1="84.07" y1="188.6" x2="99.64" y2="188.6"/><line class="cls-22" x1="84.07" y1="187.43" x2="99.64" y2="187.43"/><line class="cls-22" x1="84.07" y1="186.26" x2="99.64" y2="186.26"/></g><rect class="cls-23" x="93.66" y="188.38" width="4.3" height="46.46"/><line class="cls-24" x1="93.66" y1="231.13" x2="97.97" y2="231.13"/><line class="cls-24" x1="93.66" y1="226.17" x2="97.97" y2="226.17"/><line class="cls-24" x1="93.66" y1="221.21" x2="97.97" y2="221.21"/><line class="cls-24" x1="93.66" y1="216.26" x2="97.97" y2="216.26"/><line class="cls-24" x1="93.66" y1="211.3" x2="97.97" y2="211.3"/><line class="cls-24" x1="93.66" y1="206.34" x2="97.97" y2="206.34"/><line class="cls-24" x1="93.66" y1="201.38" x2="97.97" y2="201.38"/><line class="cls-24" x1="93.66" y1="196.42" x2="97.97" y2="196.42"/><line class="cls-24" x1="93.66" y1="191.46" x2="97.97" y2="191.46"/><line class="cls-25" x1="95.38" y1="234.86" x2="95.38" y2="188.28"/><line class="cls-25" x1="96.36" y1="234.86" x2="96.36" y2="188.28"/><polygon class="cls-26" points="85.72 229.99 92.72 188.27 85.77 188.37 85.72 229.99"/><rect class="cls-27" x="88.7" y="232.07" width="0.93" height="0.56"/><rect class="cls-27" x="92.14" y="232.07" width="0.93" height="0.56"/><rect class="cls-27" x="86.45" y="230.91" width="1.45" height="0.56"/><rect class="cls-27" x="90.42" y="230.9" width="0.92" height="0.56"/><rect class="cls-27" x="92.14" y="230.9" width="0.92" height="0.56"/><rect class="cls-27" x="88.7" y="229.74" width="0.92" height="0.56"/><rect class="cls-27" x="90.42" y="229.74" width="0.92" height="0.56"/><rect class="cls-27" x="88.69" y="228.57" width="0.92" height="0.56"/><rect class="cls-27" x="86.44" y="228.58" width="1.45" height="0.56"/><rect class="cls-27" x="92.13" y="228.57" width="0.92" height="0.56"/><rect class="cls-27" x="88.69" y="227.4" width="0.92" height="0.56"/><rect class="cls-27" x="88.68" y="226.24" width="0.92" height="0.56"/><rect class="cls-27" x="86.43" y="226.24" width="1.45" height="0.56"/><rect class="cls-27" x="92.12" y="226.24" width="0.92" height="0.56"/><rect class="cls-27" x="90.4" y="225.07" width="0.92" height="0.56"/><rect class="cls-27" x="92.12" y="225.07" width="0.92" height="0.56"/><rect class="cls-27" x="88.67" y="223.9" width="0.92" height="0.56"/><rect class="cls-27" x="90.39" y="223.9" width="0.92" height="0.56"/><rect class="cls-27" x="88.67" y="222.73" width="0.92" height="0.56"/><rect class="cls-27" x="86.42" y="222.74" width="1.45" height="0.56"/><rect class="cls-27" x="90.39" y="222.73" width="0.92" height="0.56"/><rect class="cls-27" x="92.1" y="221.57" width="0.92" height="0.56"/><rect class="cls-27" x="86.41" y="220.41" width="1.45" height="0.56"/><rect class="cls-27" x="90.38" y="220.4" width="0.92" height="0.56"/><rect class="cls-27" x="92.1" y="220.4" width="0.92" height="0.56"/><rect class="cls-27" x="88.66" y="219.23" width="0.92" height="0.56"/><rect class="cls-27" x="88.65" y="218.07" width="0.92" height="0.56"/><rect class="cls-27" x="86.4" y="218.08" width="1.45" height="0.56"/><rect class="cls-27" x="90.37" y="218.07" width="0.92" height="0.56"/><rect class="cls-27" x="92.09" y="218.07" width="0.92" height="0.56"/><rect class="cls-27" x="88.65" y="216.9" width="0.92" height="0.56"/><rect class="cls-27" x="92.09" y="216.9" width="0.92" height="0.56"/><rect class="cls-27" x="88.64" y="215.73" width="0.92" height="0.56"/><rect class="cls-27" x="90.36" y="215.73" width="0.92" height="0.56"/><rect class="cls-27" x="86.39" y="214.58" width="1.45" height="0.56"/><rect class="cls-27" x="90.36" y="214.57" width="0.92" height="0.56"/><rect class="cls-27" x="92.08" y="214.57" width="0.92" height="0.56"/><rect class="cls-27" x="88.63" y="213.4" width="0.92" height="0.56"/><rect class="cls-27" x="86.38" y="213.41" width="1.45" height="0.56"/><rect class="cls-27" x="90.35" y="213.4" width="0.92" height="0.56"/><rect class="cls-27" x="92.07" y="212.23" width="0.92" height="0.56"/><rect class="cls-27" x="88.62" y="211.07" width="0.92" height="0.56"/><rect class="cls-27" x="90.34" y="211.07" width="0.92" height="0.56"/><rect class="cls-27" x="92.06" y="211.07" width="0.92" height="0.56"/><rect class="cls-27" x="86.37" y="209.91" width="1.45" height="0.56"/><rect class="cls-27" x="90.34" y="209.9" width="0.92" height="0.56"/><rect class="cls-27" x="88.61" y="208.73" width="0.92" height="0.56"/><rect class="cls-27" x="90.33" y="208.73" width="0.92" height="0.56"/><rect class="cls-27" x="92.05" y="208.73" width="0.92" height="0.56"/><rect class="cls-27" x="88.61" y="207.57" width="0.92" height="0.56"/><rect class="cls-27" x="86.36" y="207.57" width="1.45" height="0.56"/><rect class="cls-27" x="92.05" y="207.57" width="0.92" height="0.56"/><rect class="cls-27" x="88.61" y="206.4" width="0.92" height="0.56"/><rect class="cls-27" x="90.33" y="206.4" width="0.92" height="0.56"/><rect class="cls-27" x="86.35" y="205.24" width="1.45" height="0.56"/><rect class="cls-27" x="90.32" y="205.23" width="0.92" height="0.56"/><rect class="cls-27" x="92.04" y="205.23" width="0.92" height="0.56"/><rect class="cls-27" x="88.6" y="204.06" width="0.92" height="0.56"/><rect class="cls-27" x="86.34" y="202.91" width="1.45" height="0.56"/><rect class="cls-27" x="92.03" y="202.9" width="0.92" height="0.56"/><rect class="cls-27" x="86.34" y="201.74" width="1.45" height="0.56"/><rect class="cls-27" x="90.31" y="201.73" width="0.92" height="0.56"/><rect class="cls-27" x="92.03" y="201.73" width="0.92" height="0.56"/><rect class="cls-27" x="88.58" y="200.56" width="0.92" height="0.56"/><rect class="cls-27" x="90.3" y="200.56" width="0.92" height="0.56"/><rect class="cls-27" x="88.58" y="199.4" width="0.92" height="0.56"/><rect class="cls-27" x="86.33" y="199.41" width="1.45" height="0.56"/><rect class="cls-27" x="90.3" y="199.4" width="0.92" height="0.56"/><rect class="cls-27" x="92.02" y="199.4" width="0.92" height="0.56"/><rect class="cls-27" x="92.01" y="198.23" width="0.92" height="0.56"/><rect class="cls-27" x="86.32" y="197.07" width="1.45" height="0.56"/><rect class="cls-27" x="90.29" y="197.06" width="0.92" height="0.56"/><rect class="cls-27" x="92.01" y="197.06" width="0.92" height="0.56"/><rect class="cls-27" x="88.56" y="195.9" width="0.92" height="0.56"/><rect class="cls-27" x="86.31" y="195.91" width="1.45" height="0.56"/><rect class="cls-27" x="90.28" y="195.9" width="0.92" height="0.56"/><rect class="cls-27" x="88.56" y="194.73" width="0.92" height="0.56"/><rect class="cls-27" x="92" y="194.73" width="0.92" height="0.56"/><rect class="cls-27" x="88.56" y="193.56" width="0.92" height="0.56"/><rect class="cls-27" x="86.3" y="193.57" width="1.45" height="0.56"/><rect class="cls-27" x="90.28" y="193.56" width="0.92" height="0.56"/><rect class="cls-27" x="91.99" y="193.56" width="0.92" height="0.56"/><rect class="cls-27" x="90.27" y="192.4" width="0.92" height="0.56"/><rect class="cls-27" x="91.99" y="192.4" width="0.92" height="0.56"/><rect class="cls-27" x="88.55" y="191.23" width="0.92" height="0.56"/><rect class="cls-27" x="86.3" y="191.24" width="1.45" height="0.56"/><rect class="cls-27" x="90.27" y="191.23" width="0.92" height="0.56"/><rect class="cls-27" x="91.99" y="191.23" width="0.92" height="0.56"/><rect class="cls-27" x="88.54" y="190.06" width="0.92" height="0.56"/><rect class="cls-27" x="91.98" y="190.06" width="0.92" height="0.56"/><rect class="cls-27" x="88.54" y="188.9" width="0.92" height="0.56"/><rect class="cls-27" x="86.29" y="188.9" width="1.45" height="0.56"/><rect class="cls-27" x="91.98" y="188.9" width="0.92" height="0.56"/><rect class="cls-27" x="88.7" y="233.23" width="0.93" height="0.56"/><rect class="cls-27" x="90.42" y="233.23" width="0.93" height="0.56"/><rect class="cls-6" x="100.15" y="188.27" width="12.25" height="76.59"/><rect class="cls-29" x="99.67" y="188.27" width="0.88" height="75.75"/><rect class="cls-29" x="111.63" y="188.27" width="0.88" height="75.75"/><rect class="cls-27" x="104.91" y="251.27" width="2.33" height="0.83"/><rect class="cls-27" x="108.1" y="251.27" width="2.33" height="0.83"/><rect class="cls-27" x="101.72" y="249.7" width="2.33" height="0.83"/><rect class="cls-27" x="104.91" y="249.7" width="2.33" height="0.83"/><rect class="cls-27" x="108.1" y="249.7" width="2.33" height="0.83"/><rect class="cls-27" x="101.72" y="248.12" width="2.33" height="0.83"/><rect class="cls-27" x="108.1" y="248.12" width="2.33" height="0.83"/><rect class="cls-27" x="101.72" y="246.55" width="2.33" height="0.83"/><rect class="cls-27" x="108.1" y="246.55" width="2.33" height="0.83"/><rect class="cls-27" x="101.72" y="244.97" width="2.33" height="0.83"/><rect class="cls-27" x="104.91" y="244.97" width="2.33" height="0.83"/><rect class="cls-27" x="108.1" y="243.4" width="2.33" height="0.83"/><rect class="cls-27" x="101.72" y="241.83" width="2.33" height="0.83"/><rect class="cls-27" x="104.91" y="241.83" width="2.33" height="0.83"/><rect class="cls-27" x="101.72" y="240.25" width="2.33" height="0.83"/><rect class="cls-27" x="104.91" y="240.25" width="2.33" height="0.83"/><rect class="cls-27" x="108.1" y="240.25" width="2.33" height="0.83"/><rect class="cls-27" x="101.72" y="237.1" width="2.33" height="0.83"/><rect class="cls-27" x="104.91" y="237.1" width="2.33" height="0.83"/><rect class="cls-27" x="108.1" y="237.1" width="2.33" height="0.83"/><rect class="cls-27" x="104.91" y="235.53" width="2.33" height="0.83"/><rect class="cls-27" x="101.72" y="233.96" width="2.33" height="0.83"/><rect class="cls-27" x="104.91" y="233.96" width="2.33" height="0.83"/><rect class="cls-27" x="108.1" y="233.96" width="2.33" height="0.83"/><rect class="cls-27" x="101.72" y="232.38" width="2.33" height="0.83"/><rect class="cls-27" x="108.1" y="232.38" width="2.33" height="0.83"/><rect class="cls-27" x="104.91" y="230.81" width="2.33" height="0.83"/><rect class="cls-27" x="108.1" y="230.81" width="2.33" height="0.83"/><rect class="cls-27" x="101.72" y="229.23" width="2.33" height="0.83"/><rect class="cls-27" x="104.91" y="229.23" width="2.33" height="0.83"/><rect class="cls-27" x="104.91" y="227.66" width="2.33" height="0.83"/><rect class="cls-27" x="108.1" y="227.66" width="2.33" height="0.83"/><rect class="cls-27" x="101.72" y="226.09" width="2.33" height="0.83"/><rect class="cls-27" x="104.91" y="226.09" width="2.33" height="0.83"/><rect class="cls-27" x="108.1" y="226.09" width="2.33" height="0.83"/><rect class="cls-27" x="101.72" y="224.51" width="2.33" height="0.83"/><rect class="cls-27" x="108.1" y="224.51" width="2.33" height="0.83"/><rect class="cls-27" x="101.72" y="222.94" width="2.33" height="0.83"/><rect class="cls-27" x="104.91" y="222.94" width="2.33" height="0.83"/><rect class="cls-27" x="104.91" y="221.36" width="2.33" height="0.83"/><rect class="cls-27" x="108.1" y="221.36" width="2.33" height="0.83"/><rect class="cls-27" x="101.72" y="219.79" width="2.33" height="0.83"/><rect class="cls-27" x="108.1" y="219.79" width="2.33" height="0.83"/><rect class="cls-27" x="101.72" y="218.22" width="2.33" height="0.83"/><rect class="cls-27" x="104.91" y="218.22" width="2.33" height="0.83"/><rect class="cls-27" x="108.1" y="218.22" width="2.33" height="0.83"/><rect class="cls-27" x="101.72" y="216.64" width="2.33" height="0.83"/><rect class="cls-27" x="104.91" y="216.64" width="2.33" height="0.83"/><rect class="cls-27" x="108.1" y="215.07" width="2.33" height="0.83"/><rect class="cls-27" x="101.72" y="213.49" width="2.33" height="0.83"/><rect class="cls-27" x="104.91" y="213.49" width="2.33" height="0.83"/><rect class="cls-27" x="108.1" y="213.49" width="2.33" height="0.83"/><rect class="cls-27" x="101.72" y="211.92" width="2.33" height="0.83"/><rect class="cls-27" x="104.91" y="211.92" width="2.33" height="0.83"/><rect class="cls-27" x="104.91" y="208.77" width="2.33" height="0.83"/><rect class="cls-27" x="108.1" y="208.77" width="2.33" height="0.83"/><rect class="cls-27" x="101.72" y="207.2" width="2.33" height="0.83"/><polyline class="cls-27" points="110.44 208.02 110.44 207.2 108.1 207.2 108.1 208.02"/><rect class="cls-27" x="101.72" y="205.62" width="2.33" height="0.83"/><rect class="cls-27" x="104.91" y="205.62" width="2.33" height="0.83"/><rect class="cls-27" x="108.1" y="205.62" width="2.33" height="0.83"/><rect class="cls-27" x="101.72" y="204.05" width="2.33" height="0.83"/><rect class="cls-27" x="108.1" y="204.05" width="2.33" height="0.83"/><rect class="cls-27" x="101.72" y="202.47" width="2.33" height="0.83"/><rect class="cls-27" x="104.91" y="202.47" width="2.33" height="0.83"/><rect class="cls-27" x="104.91" y="200.9" width="2.33" height="0.83"/><rect class="cls-27" x="101.72" y="199.33" width="2.33" height="0.83"/><rect class="cls-27" x="104.91" y="199.33" width="2.33" height="0.83"/><rect class="cls-27" x="108.1" y="199.33" width="2.33" height="0.83"/><rect class="cls-27" x="101.72" y="197.75" width="2.33" height="0.83"/><rect class="cls-27" x="108.1" y="197.75" width="2.33" height="0.83"/><rect class="cls-27" x="108.1" y="196.18" width="2.33" height="0.83"/><rect class="cls-27" x="101.72" y="194.6" width="2.33" height="0.83"/><rect class="cls-27" x="104.91" y="194.6" width="2.33" height="0.83"/><rect class="cls-27" x="104.91" y="193.03" width="2.33" height="0.83"/><rect class="cls-27" x="108.1" y="193.03" width="2.33" height="0.83"/><rect class="cls-27" x="101.72" y="191.46" width="2.33" height="0.83"/><rect class="cls-27" x="104.91" y="191.46" width="2.33" height="0.83"/><rect class="cls-27" x="108.1" y="191.46" width="2.33" height="0.83"/><rect class="cls-27" x="101.72" y="189.88" width="2.33" height="0.83"/><rect class="cls-27" x="108.1" y="189.88" width="2.33" height="0.83"/><rect class="cls-30" x="113.57" y="188.27" width="28.15" height="55.13"/><g class="cls-49"><rect class="cls-32" x="113.14" y="241.02" width="29.1" height="1.26"/><rect class="cls-32" x="113.14" y="238.62" width="29.1" height="1.26"/><rect class="cls-32" x="113.14" y="236.21" width="29.1" height="1.26"/><rect class="cls-32" x="113.14" y="233.8" width="29.1" height="1.26"/><rect class="cls-32" x="113.14" y="231.4" width="29.1" height="1.26"/><rect class="cls-32" x="113.14" y="228.99" width="29.1" height="1.26"/><rect class="cls-32" x="113.14" y="226.58" width="29.1" height="1.26"/><rect class="cls-32" x="113.14" y="224.18" width="29.1" height="1.26"/><rect class="cls-32" x="113.14" y="221.77" width="29.1" height="1.26"/><rect class="cls-32" x="113.14" y="219.36" width="29.1" height="1.26"/><rect class="cls-32" x="113.14" y="216.96" width="29.1" height="1.26"/><rect class="cls-32" x="113.14" y="214.55" width="29.1" height="1.26"/><rect class="cls-32" x="113.14" y="212.14" width="29.1" height="1.26"/><rect class="cls-32" x="113.14" y="209.74" width="29.1" height="1.26"/><rect class="cls-32" x="113.14" y="207.33" width="29.1" height="1.26"/><rect class="cls-32" x="113.14" y="204.92" width="29.1" height="1.26"/><rect class="cls-32" x="113.14" y="202.52" width="29.1" height="1.26"/><rect class="cls-32" x="113.14" y="200.11" width="29.1" height="1.26"/><rect class="cls-32" x="113.14" y="197.7" width="29.1" height="1.26"/><rect class="cls-32" x="113.14" y="195.3" width="29.1" height="1.26"/><rect class="cls-32" x="113.14" y="192.89" width="29.1" height="1.26"/><rect class="cls-32" x="113.14" y="190.48" width="29.1" height="1.26"/><rect class="cls-32" x="113.14" y="188.08" width="29.1" height="1.26"/></g><rect class="cls-27" x="114.86" y="239.89" width="1.98" height="1.13"/><rect class="cls-27" x="118.73" y="239.89" width="1.98" height="1.13"/><rect class="cls-27" x="122.6" y="239.89" width="1.98" height="1.13"/><rect class="cls-27" x="126.47" y="239.89" width="1.98" height="1.13"/><rect class="cls-27" x="130.34" y="239.89" width="1.98" height="1.13"/><rect class="cls-27" x="134.21" y="239.89" width="1.98" height="1.13"/><rect class="cls-27" x="138.08" y="239.89" width="1.98" height="1.13"/><rect class="cls-27" x="118.73" y="237.49" width="1.98" height="1.13"/><rect class="cls-27" x="122.6" y="237.49" width="1.98" height="1.13"/><rect class="cls-27" x="130.34" y="237.49" width="1.98" height="1.13"/><rect class="cls-27" x="134.21" y="237.49" width="1.98" height="1.13"/><rect class="cls-27" x="138.08" y="237.49" width="1.98" height="1.13"/><rect class="cls-27" x="114.86" y="235.08" width="1.98" height="1.13"/><rect class="cls-27" x="118.73" y="235.08" width="1.98" height="1.13"/><rect class="cls-27" x="122.6" y="235.08" width="1.98" height="1.13"/><rect class="cls-27" x="126.47" y="235.08" width="1.98" height="1.13"/><rect class="cls-27" x="130.34" y="235.08" width="1.98" height="1.13"/><rect class="cls-27" x="138.08" y="235.08" width="1.98" height="1.13"/><rect class="cls-27" x="114.86" y="232.67" width="1.98" height="1.13"/><rect class="cls-27" x="126.47" y="232.67" width="1.98" height="1.13"/><rect class="cls-27" x="130.34" y="232.67" width="1.98" height="1.13"/><rect class="cls-27" x="134.21" y="232.67" width="1.98" height="1.13"/><rect class="cls-27" x="138.08" y="232.67" width="1.98" height="1.13"/><rect class="cls-27" x="114.86" y="230.26" width="1.98" height="1.13"/><rect class="cls-27" x="122.6" y="230.26" width="1.98" height="1.13"/><rect class="cls-27" x="126.47" y="230.26" width="1.98" height="1.13"/><rect class="cls-27" x="138.08" y="230.26" width="1.98" height="1.13"/><rect class="cls-27" x="114.86" y="227.85" width="1.98" height="1.13"/><rect class="cls-27" x="118.73" y="227.85" width="1.98" height="1.13"/><rect class="cls-27" x="122.6" y="227.85" width="1.98" height="1.13"/><rect class="cls-27" x="126.47" y="227.85" width="1.98" height="1.13"/><rect class="cls-27" x="130.34" y="227.85" width="1.98" height="1.13"/><rect class="cls-27" x="134.21" y="227.85" width="1.98" height="1.13"/><rect class="cls-27" x="138.08" y="227.85" width="1.98" height="1.13"/><rect class="cls-27" x="126.47" y="225.45" width="1.98" height="1.13"/><rect class="cls-27" x="130.34" y="225.45" width="1.98" height="1.13"/><rect class="cls-27" x="138.08" y="225.45" width="1.98" height="1.13"/><rect class="cls-27" x="114.86" y="223.04" width="1.98" height="1.13"/><rect class="cls-27" x="118.73" y="223.04" width="1.98" height="1.13"/><rect class="cls-27" x="122.6" y="223.04" width="1.98" height="1.13"/><rect class="cls-27" x="126.47" y="223.04" width="1.98" height="1.13"/><rect class="cls-27" x="130.34" y="223.04" width="1.98" height="1.13"/><rect class="cls-27" x="134.21" y="223.04" width="1.98" height="1.13"/><rect class="cls-27" x="118.73" y="220.63" width="1.98" height="1.13"/><rect class="cls-27" x="134.21" y="220.63" width="1.98" height="1.13"/><rect class="cls-27" x="138.08" y="220.63" width="1.98" height="1.13"/><rect class="cls-27" x="114.86" y="218.22" width="1.98" height="1.13"/><rect class="cls-27" x="118.73" y="218.22" width="1.98" height="1.13"/><rect class="cls-27" x="122.6" y="218.22" width="1.98" height="1.13"/><rect class="cls-27" x="126.47" y="218.22" width="1.98" height="1.13"/><rect class="cls-27" x="130.34" y="218.22" width="1.98" height="1.13"/><rect class="cls-27" x="134.21" y="218.22" width="1.98" height="1.13"/><rect class="cls-27" x="138.08" y="218.22" width="1.98" height="1.13"/><rect class="cls-27" x="114.86" y="215.82" width="1.98" height="1.13"/><rect class="cls-27" x="122.6" y="215.82" width="1.98" height="1.13"/><rect class="cls-27" x="130.34" y="215.82" width="1.98" height="1.13"/><rect class="cls-27" x="138.08" y="215.82" width="1.98" height="1.13"/><rect class="cls-27" x="118.73" y="213.41" width="1.98" height="1.13"/><rect class="cls-27" x="122.6" y="213.41" width="1.98" height="1.13"/><rect class="cls-27" x="126.47" y="213.41" width="1.98" height="1.13"/><rect class="cls-27" x="130.34" y="213.41" width="1.98" height="1.13"/><rect class="cls-27" x="134.21" y="213.41" width="1.98" height="1.13"/><rect class="cls-27" x="138.08" y="213.41" width="1.98" height="1.13"/><rect class="cls-27" x="114.86" y="211" width="1.98" height="1.13"/><rect class="cls-27" x="130.34" y="211" width="1.98" height="1.13"/><rect class="cls-27" x="134.21" y="211" width="1.98" height="1.13"/><rect class="cls-27" x="138.08" y="211" width="1.98" height="1.13"/><rect class="cls-27" x="114.86" y="208.59" width="1.98" height="1.13"/><rect class="cls-27" x="118.73" y="208.59" width="1.98" height="1.13"/><rect class="cls-27" x="122.6" y="208.59" width="1.98" height="1.13"/><rect class="cls-27" x="126.47" y="208.59" width="1.98" height="1.13"/><rect class="cls-27" x="130.34" y="208.59" width="1.98" height="1.13"/><rect class="cls-27" x="138.08" y="208.59" width="1.98" height="1.13"/><rect class="cls-27" x="118.73" y="206.18" width="1.98" height="1.13"/><rect class="cls-27" x="122.6" y="206.18" width="1.98" height="1.13"/><rect class="cls-27" x="130.34" y="206.18" width="1.98" height="1.13"/><rect class="cls-27" x="134.21" y="206.18" width="1.98" height="1.13"/><rect class="cls-27" x="138.08" y="206.18" width="1.98" height="1.13"/><rect class="cls-27" x="114.86" y="203.78" width="1.98" height="1.13"/><rect class="cls-27" x="118.73" y="203.78" width="1.98" height="1.13"/><rect class="cls-27" x="126.47" y="203.78" width="1.98" height="1.13"/><rect class="cls-27" x="130.34" y="203.78" width="1.98" height="1.13"/><rect class="cls-27" x="134.21" y="203.78" width="1.98" height="1.13"/><rect class="cls-27" x="138.08" y="203.78" width="1.98" height="1.13"/><rect class="cls-27" x="118.73" y="201.37" width="1.98" height="1.13"/><rect class="cls-27" x="122.6" y="201.37" width="1.98" height="1.13"/><rect class="cls-27" x="126.47" y="201.37" width="1.98" height="1.13"/><rect class="cls-27" x="130.34" y="201.37" width="1.98" height="1.13"/><rect class="cls-27" x="138.08" y="201.37" width="1.98" height="1.13"/><rect class="cls-27" x="114.86" y="198.96" width="1.98" height="1.13"/><rect class="cls-27" x="122.6" y="198.96" width="1.98" height="1.13"/><rect class="cls-27" x="126.47" y="198.96" width="1.98" height="1.13"/><rect class="cls-27" x="134.21" y="198.96" width="1.98" height="1.13"/><rect class="cls-27" x="114.86" y="196.55" width="1.98" height="1.13"/><rect class="cls-27" x="118.73" y="196.55" width="1.98" height="1.13"/><rect class="cls-27" x="122.6" y="196.55" width="1.98" height="1.13"/><rect class="cls-27" x="126.47" y="196.55" width="1.98" height="1.13"/><rect class="cls-27" x="130.34" y="196.55" width="1.98" height="1.13"/><rect class="cls-27" x="134.21" y="196.55" width="1.98" height="1.13"/><rect class="cls-27" x="138.08" y="196.55" width="1.98" height="1.13"/><rect class="cls-27" x="118.73" y="194.14" width="1.98" height="1.13"/><rect class="cls-27" x="126.47" y="194.14" width="1.98" height="1.13"/><rect class="cls-27" x="134.21" y="194.14" width="1.98" height="1.13"/><rect class="cls-27" x="138.08" y="194.14" width="1.98" height="1.13"/><rect class="cls-27" x="114.86" y="191.74" width="1.98" height="1.13"/><rect class="cls-27" x="122.6" y="191.74" width="1.98" height="1.13"/><rect class="cls-27" x="130.34" y="191.74" width="1.98" height="1.13"/><rect class="cls-27" x="138.08" y="191.74" width="1.98" height="1.13"/><rect class="cls-27" x="114.86" y="189.33" width="1.98" height="1.13"/><rect class="cls-27" x="126.47" y="189.33" width="1.98" height="1.13"/><rect class="cls-27" x="130.34" y="189.33" width="1.98" height="1.13"/><rect class="cls-27" x="134.21" y="189.33" width="1.98" height="1.13"/><rect class="cls-27" x="138.08" y="189.33" width="1.98" height="1.13"/><rect class="cls-33" x="176.54" y="237.07" width="0.36" height="7.05"/><rect class="cls-6" x="172.86" y="232.32" width="7.86" height="4.95"/><rect class="cls-6" x="170.42" y="226.49" width="12.69" height="8.35"/><rect class="cls-6" x="169.07" y="220.65" width="15.36" height="11.26"/><rect class="cls-6" x="168.58" y="188.27" width="16.36" height="39.38"/><rect class="cls-34" x="184.44" y="188.27" width="1.8" height="40.99"/><rect class="cls-34" x="167.27" y="188.27" width="1.8" height="40.99"/><rect class="cls-34" x="168.32" y="221.72" width="16.97" height="0.53"/><rect class="cls-34" x="168.32" y="215.84" width="16.97" height="0.53"/><rect class="cls-34" x="168.32" y="209.96" width="16.97" height="0.53"/><rect class="cls-34" x="168.32" y="204.07" width="16.97" height="0.53"/><rect class="cls-34" x="168.32" y="198.19" width="16.97" height="0.53"/><rect class="cls-34" x="168.32" y="192.31" width="16.97" height="0.53"/><rect class="cls-35" x="169.07" y="222.26" width="15.36" height="3.22"/><rect class="cls-36" x="171.42" y="222.26" width="10.67" height="3.22"/><rect class="cls-35" x="170.4" y="225.48" width="12.7" height="3.22"/><rect class="cls-36" x="172.34" y="225.48" width="8.82" height="3.22"/><rect class="cls-35" x="173.32" y="228.7" width="6.87" height="3.22"/><rect class="cls-36" x="174.93" y="228.7" width="3.65" height="3.22"/><rect class="cls-35" x="174.05" y="231.92" width="5.4" height="2.88"/><rect class="cls-36" x="175.32" y="231.92" width="2.87" height="2.88"/><rect class="cls-35" x="175.03" y="234.79" width="3.45" height="2.44"/><rect class="cls-36" x="175.65" y="234.79" width="2.21" height="2.44"/><rect class="cls-33" x="176.26" y="188.51" width="1" height="43.37"/><rect class="cls-37" x="193.65" y="188.27" width="37.78" height="42.42"/><rect class="cls-38" x="192.83" y="203.81" width="29.99" height="1.82"/><rect class="cls-38" x="192.83" y="219.63" width="35.28" height="2.18"/><rect class="cls-38" x="192.83" y="222.75" width="35.28" height="1.08"/><rect class="cls-39" x="193.65" y="229.07" width="37.78" height="1.63"/><rect class="cls-38" x="194.45" y="222.99" width="1.2" height="9.12"/><rect class="cls-38" x="203.97" y="222.99" width="1.2" height="9.12"/><rect class="cls-38" x="213.49" y="222.99" width="1.2" height="9.12"/><rect class="cls-38" x="223" y="222.99" width="1.2" height="9.12"/><path class="cls-38" d="M204.3,227.94l-1.77-1.1a1.79,1.79,0,0,1-.83-1.51v-1.74h2.79Z"/><path class="cls-38" d="M204.86,227.94l1.76-1.1a1.8,1.8,0,0,0,.84-1.51v-1.74h-2.8Z"/><path class="cls-38" d="M213.85,227.94l-1.77-1.1a1.79,1.79,0,0,1-.83-1.51v-1.74H214Z"/><path class="cls-38" d="M214.41,227.94l1.77-1.1a1.79,1.79,0,0,0,.83-1.51v-1.74h-2.8Z"/><path class="cls-38" d="M223.33,227.94l-1.77-1.1a1.79,1.79,0,0,1-.83-1.51v-1.74h2.79Z"/><path class="cls-38" d="M223.89,227.94l1.77-1.1a1.79,1.79,0,0,0,.83-1.51v-1.74H223.7Z"/><path class="cls-38" d="M195.23,227.94l1.77-1.1a1.81,1.81,0,0,0,.83-1.51v-1.74H195Z"/><path class="cls-38" d="M196.06,218.14h1.19a.65.65,0,0,1,.65.65v.92a0,0,0,0,1,0,0h-2.49a0,0,0,0,1,0,0v-.92A.65.65,0,0,1,196.06,218.14Z"/><path class="cls-38" d="M196.06,205.66h1.19a.65.65,0,0,1,.65.65v.74a0,0,0,0,1,0,0h-2.49a0,0,0,0,1,0,0v-.74A.65.65,0,0,1,196.06,205.66Z" transform="translate(393.32 412.71) rotate(180)"/><rect class="cls-40" x="196.07" y="207.05" width="1.17" height="11.09"/><path class="cls-38" d="M206,218.14h1.19a.65.65,0,0,1,.65.65v.92a0,0,0,0,1,0,0h-2.49a0,0,0,0,1,0,0v-.92A.65.65,0,0,1,206,218.14Z"/><path class="cls-38" d="M206,205.66h1.19a.65.65,0,0,1,.65.65v.74a0,0,0,0,1,0,0h-2.49a0,0,0,0,1,0,0v-.74A.65.65,0,0,1,206,205.66Z" transform="translate(413.12 412.71) rotate(180)"/><rect class="cls-40" x="205.97" y="207.05" width="1.17" height="11.09"/><path class="cls-38" d="M215.86,218.14h1.19a.65.65,0,0,1,.65.65v.92a0,0,0,0,1,0,0h-2.49a0,0,0,0,1,0,0v-.92A.65.65,0,0,1,215.86,218.14Z"/><path class="cls-38" d="M215.86,205.66h1.19a.65.65,0,0,1,.65.65v.74a0,0,0,0,1,0,0h-2.49a0,0,0,0,1,0,0v-.74A.65.65,0,0,1,215.86,205.66Z" transform="translate(432.92 412.71) rotate(180)"/><rect class="cls-40" x="215.87" y="207.05" width="1.17" height="11.09"/><path class="cls-38" d="M199.7,208.38h3.91a0,0,0,0,1,0,0v7.13a2,2,0,0,1-2,2h0a2,2,0,0,1-2-2v-7.13a0,0,0,0,1,0,0Z"/><path class="cls-38" d="M209.45,208.38h3.91a0,0,0,0,1,0,0v7.13a2,2,0,0,1-2,2h0a2,2,0,0,1-2-2v-7.13A0,0,0,0,1,209.45,208.38Z"/><rect class="cls-41" x="193.65" y="197.02" width="27.86" height="6.64"/><path class="cls-38" d="M199.51,193.48h3.91a0,0,0,0,1,0,0v5.8a2,2,0,0,1-2,2h0a2,2,0,0,1-2-2v-5.8a0,0,0,0,1,0,0Z"/><path class="cls-42" d="M199.62,192h3.7a.93.93,0,0,1,.93.93v.6a0,0,0,0,1,0,0h-5.56a0,0,0,0,1,0,0v-.6A.93.93,0,0,1,199.62,192Z"/><path class="cls-38" d="M208.12,193.54H212a0,0,0,0,1,0,0v5.8a2,2,0,0,1-2,2h0a2,2,0,0,1-2-2v-5.8A0,0,0,0,1,208.12,193.54Z"/><path class="cls-42" d="M208.23,192h3.7a.93.93,0,0,1,.93.93v.6a0,0,0,0,1,0,0h-5.56a0,0,0,0,1,0,0V193A.93.93,0,0,1,208.23,192Z"/><polygon class="cls-37" points="211.14 220.52 230.71 220.52 230.71 235.85 211.14 220.52"/><path class="cls-43" d="M229.83,221.39v12.66l-16.15-12.66h16.15m1.75-1.75h-23l23,18v-18Z"/></g><rect class="cls-50" x="51.27" y="191.31" width="95.39" height="2.56"/><rect class="cls-51" x="106.45" y="195.79" width="95.39" height="2.56"/><rect class="cls-52" x="142.04" y="192.97" width="95.39" height="2.56"/><rect class="cls-53" x="12.33" y="202.1" width="95.39" height="2.56"/><rect class="cls-54" x="7.56" y="195.59" width="95.39" height="2.07"/><rect class="cls-55" x="25.65" y="197.09" width="95.39" height="2.07"/><path class="cls-56" d="M190.79,68.89c.21,0,.42,0,.63,0a14.78,14.78,0,0,1-.13-1.9,14.3,14.3,0,1,1,28.6,0c0,.42,0,.82-.06,1.23A11.78,11.78,0,1,1,226,90.06H190.79a10.59,10.59,0,1,1,0-21.17Z"/><path class="cls-57" d="M177,53.55l-.31,0a6.93,6.93,0,1,0-13.79-.92,5.68,5.68,0,0,0,0,.59,5.71,5.71,0,1,0-3,10.57H177a5.13,5.13,0,0,0,0-10.26Z"/><rect class="cls-58" x="31.72" y="191.77" width="206.53" height="54.84"/></g><polygon class="cls-2" points="108.18 211.16 106.13 214.22 105.72 210.56 104.83 210.34 102.76 213.38 102.38 209.74 101.38 209.49 101.94 214.44 102.96 214.69 104.91 211.85 105.32 215.27 106.34 215.52 109.13 211.39 108.18 211.16"/><path class="cls-2" d="M112.77,212.19a2.46,2.46,0,0,0-1.15-.5,2.49,2.49,0,0,0-1.28.1,2.23,2.23,0,0,0-1,.7,2.5,2.5,0,0,0-.51,1.16,2.45,2.45,0,0,0,.11,1.27,2.25,2.25,0,0,0,.76,1,3.2,3.2,0,0,0,2.39.51A2,2,0,0,0,113,216l-.47-.76a1.72,1.72,0,0,1-1.34.29,1.67,1.67,0,0,1-.94-.46,1.28,1.28,0,0,1-.37-.89l3.62.6a2.12,2.12,0,0,0,.07-.32,2.56,2.56,0,0,0-.09-1.3A2.17,2.17,0,0,0,112.77,212.19ZM110,213.46a1.28,1.28,0,0,1,.57-.75,1.37,1.37,0,0,1,.92-.16,1.32,1.32,0,0,1,.83.46,1.3,1.3,0,0,1,.29.88Z"/><path class="cls-2" d="M118.62,212.88a2.36,2.36,0,0,0-1.19-.42,2.12,2.12,0,0,0-.84.07,1.79,1.79,0,0,0-.71.4l.24-2.38-1.09-.11-.65,6.46,1,.1.06-.6a1.67,1.67,0,0,0,.61.57,2.39,2.39,0,0,0,.86.25,2.48,2.48,0,0,0,1.25-.17,2.18,2.18,0,0,0,.92-.76,2.55,2.55,0,0,0,.43-1.22,2.42,2.42,0,0,0-.18-1.27A2.12,2.12,0,0,0,118.62,212.88Zm-.17,2.08a1.47,1.47,0,0,1-.5,1,1.32,1.32,0,0,1-1,.3,1.4,1.4,0,0,1-.68-.25,1.31,1.31,0,0,1-.45-.56,1.57,1.57,0,0,1-.1-.79,1.46,1.46,0,0,1,.26-.74,1.2,1.2,0,0,1,.54-.46,1.39,1.39,0,0,1,.73-.11,1.31,1.31,0,0,1,.94.5A1.44,1.44,0,0,1,118.45,215Z"/><path class="cls-2" d="M123.35,212.83a2.28,2.28,0,0,0-.89.13,1.74,1.74,0,0,0-.69.42l.08-2.37-1.09,0-.22,6.49,1.09,0,.08-2.36a1.47,1.47,0,0,1,.39-1,1.21,1.21,0,0,1,1-.33,1,1,0,0,1,.81.34,1.25,1.25,0,0,1,.26.93l-.08,2.53,1.09,0,.09-2.67a2.05,2.05,0,0,0-.48-1.55A2,2,0,0,0,123.35,212.83Z"/><rect class="cls-2" x="126.64" y="212.91" width="1.09" height="4.67" transform="translate(-3.08 1.85) rotate(-0.82)"/><path class="cls-2" d="M127.13,210.83a.72.72,0,0,0-.5.19.66.66,0,0,0,0,.94.71.71,0,0,0,.51.18.69.69,0,0,0,.5-.2.67.67,0,0,0,.19-.49.64.64,0,0,0-.21-.45A.74.74,0,0,0,127.13,210.83Z"/><path class="cls-2" d="M133.12,213.11a1.93,1.93,0,0,0-1.44-.43,2.59,2.59,0,0,0-.92.22,1.79,1.79,0,0,0-.65.53l0-.6-1,.07.29,4.66,1.09-.07-.14-2.36a1.41,1.41,0,0,1,.28-1.06,1.24,1.24,0,0,1,.93-.42,1,1,0,0,1,.84.26,1.29,1.29,0,0,1,.35.9l.15,2.53,1.1-.07-.17-2.67A2,2,0,0,0,133.12,213.11Z"/><path class="cls-2" d="M137.24,216.05a.66.66,0,0,1-.5-.12.73.73,0,0,1-.22-.5l-.26-2.21,1.24-.14-.1-.87-1.24.14-.13-1.06-1.08.13.12,1.06-.77.09.11.87.76-.09.26,2.23a1.57,1.57,0,0,0,.56,1.12,1.63,1.63,0,0,0,1.22.26,1.71,1.71,0,0,0,.57-.15,1.38,1.38,0,0,0,.44-.28l-.39-.74A1,1,0,0,1,137.24,216.05Z"/><path class="cls-2" d="M139.45,215.19a.69.69,0,0,0-.48.27.7.7,0,0,0-.13.55.72.72,0,0,0,.82.61.71.71,0,0,0,.6-.82.66.66,0,0,0-.28-.49A.69.69,0,0,0,139.45,215.19Z"/><path class="cls-2" d="M141.08,210.81a.68.68,0,0,0,.46-.28.69.69,0,0,0,.11-.51.61.61,0,0,0-.28-.41.77.77,0,0,0-1,.18.63.63,0,0,0-.12.5.65.65,0,0,0,.28.42A.7.7,0,0,0,141.08,210.81Z"/><rect class="cls-2" x="141.07" y="211.53" width="1.09" height="4.67" transform="translate(-35.3 28.14) rotate(-10.1)"/><path class="cls-2" d="M148.07,212.51a2.46,2.46,0,0,0-.59-1.13,2.14,2.14,0,0,0-1-.63,2.67,2.67,0,0,0-1.32,0,2.73,2.73,0,0,0-1.18.58,2.19,2.19,0,0,0-.68,1,2.58,2.58,0,0,0,.54,2.42,2.17,2.17,0,0,0,1.06.63,2.52,2.52,0,0,0,1.31,0,2.66,2.66,0,0,0,1.19-.58,2.3,2.3,0,0,0,.68-1A2.51,2.51,0,0,0,148.07,212.51Zm-1.23,1.37a1.37,1.37,0,0,1-.89.61,1.28,1.28,0,0,1-1-.18,1.44,1.44,0,0,1-.62-.94,1.51,1.51,0,0,1,.15-1.12,1.31,1.31,0,0,1,.88-.61,1.34,1.34,0,0,1,1.06.17,1.63,1.63,0,0,1,.47,2.07Z"/><path class="cls-59" d="M170.19,149.09s15.36-6.52,18.77-27.43-4.67-21.78-4.67-21.78S169.7,116,170.09,133.33,170.19,149.09,170.19,149.09Z"/><path class="cls-60" d="M173.08,75.87c4.69,7.38-13.75,27.47-41.18,44.87s-53.16,25.31-58.14,18.12c-4.21-6.06,13.36-28.12,40.79-45.52S168.4,68.48,173.08,75.87Z"/><path class="cls-61" d="M90.55,177.87c11.67,8.75,53.78,14.07,76.43-18.67,21.59-31.22,7.59-63-27.42-68.85s-42,30.34-42,30.34c-3.5,21.59,9.92,26.26,9.92,39.67s-16.33,9.92-16.33,9.92S93,151.76,72.69,151.54c0,0-4.16,16.12,6.7,20.13,0,0-11.66,2.19-9.84,19.25,0,0,16.34,1.9,20.86-12.76"/><g class="cls-62"><path class="cls-63" d="M125.31,120.5s1.76,4.37,5.64,3.06c2.8-.94,1-5,1-5"/><path class="cls-63" d="M155.94,112.81s1.57,3.93,5.06,2.75c2.51-.85.87-4.45.87-4.45"/><path class="cls-63" d="M143.64,120.59s2.29,7,7.05,5.3c3-1.11,1.9-7.58,1.9-7.58"/><path class="cls-64" d="M92.89,179s27.9,3.8,34.86-12.1c6.71-15.36,31.26-44.78,48.13-19.84,18.16,26.85-56.59,52.22-56.59,52.22l-20.86-8.46Z"/><ellipse class="cls-65" cx="101.67" cy="132.95" rx="4.98" ry="13.48" transform="translate(-25.34 23.95) rotate(-11.96)"/><path class="cls-65" d="M112.46,140c1.39-.2,1.69-3.32,1.37-6.12s-1.32-4.5-2.54-4c-1,.38-1.52,2.52-1.2,5.31S111.48,140.13,112.46,140Z"/><ellipse class="cls-65" cx="110.68" cy="145.2" rx="1.03" ry="2.42" transform="translate(-7.89 6.37) rotate(-3.18)"/><line class="cls-63" x1="122.86" y1="110.26" x2="126.94" y2="105.89"/><line class="cls-63" x1="154.29" y1="98.96" x2="158.59" y2="100.27"/></g><path class="cls-66" d="M92.55,109.75s-7.44-14.44-1.22-20.47,9-14.39,12.84-19,6.8-5.73,11.47-3.6a47.19,47.19,0,0,0,15.27,4.19c5.51.41,9,8.94,9,8.94L117.1,101Z"/><path class="cls-67" d="M92.55,109.75s-7.44-14.44-1.22-20.47,9-14.39,12.84-19,6.8-5.73,11.47-3.6a47.19,47.19,0,0,0,15.27,4.19c5.51.41,9,8.94,9,8.94L117.1,101Z"/><path class="cls-68" d="M90.75,105.81S105,84.91,139.46,78.69l2.34,5.44L114.91,104,93.08,112Z"/><path class="cls-69" d="M90.41,178.16c-4.52,14.66-20.86,12.76-20.86,12.76-1.82-17.06,9.84-19.25,9.84-19.25-10.86-4-6.7-20.13-6.7-20.13,20.27.22,18.45,18.74,18.45,18.74s16.33,3.5,16.33-9.92-13.42-18.08-9.92-39.67c0,0,7-36.17,42-30.34S188.57,128,167,159.2c-22.65,32.74-64.76,27.42-76.43,18.67"/><path class="cls-70" d="M108.24,71.6a14.14,14.14,0,0,1-.5,5.13,24,24,0,0,1-1.89,4.71,33.84,33.84,0,0,1-2.71,4.27c-.51.67-1.06,1.31-1.58,2l-1.7,1.87a.79.79,0,0,1-1.11,0,.78.78,0,0,1,0-1.11v0l0,0,1.7-1.75c.52-.62,1.06-1.22,1.57-1.85a30.07,30.07,0,0,0,2.72-4,22.22,22.22,0,0,0,1.94-4.41,13.2,13.2,0,0,0,.62-4.66V71.7a.48.48,0,0,1,.43-.52A.49.49,0,0,1,108.24,71.6Z"/><path class="cls-70" d="M115,68.56a38.09,38.09,0,0,0,3.35,1.91A31.42,31.42,0,0,0,121.92,72a19.8,19.8,0,0,0,3.66,1,10.17,10.17,0,0,0,3.61,0h0a.8.8,0,0,1,.94.6.79.79,0,0,1-.61.94h0a11.7,11.7,0,0,1-4.18-.11,21.16,21.16,0,0,1-3.87-1.19,31.26,31.26,0,0,1-3.59-1.74,37.17,37.17,0,0,1-3.38-2.1.49.49,0,0,1,.54-.81Z"/><path class="cls-67" d="M95.12,131.1S108.64,94.92,154.05,93"/><g id="_Group_" data-name="&lt;Group&gt;"><path class="cls-66" d="M173.08,75.87c1.9,3,0,8.07-4.75,14.21l-13.82,2.54c-45.7,3.11-59.73,37.26-59.73,37.26L81.21,141.51c-3.61,0-6.19-.84-7.45-2.65-4.21-6.06,13.36-28.12,40.78-45.52S168.4,68.48,173.08,75.87Z"/><path class="cls-67" d="M81.21,141.51c-3.61,0-6.19-.84-7.45-2.65-4.21-6.06,13.36-28.12,40.78-45.52s53.86-24.86,58.54-17.47c1.9,3,0,8.07-4.75,14.21"/><path class="cls-67" d="M94.78,129.88s14-34.15,59.73-37.26"/></g><path class="cls-71" d="M134,97.51c2-11.93,6.92-41.33,6.92-41.33s5.36,29.44,7.3,40.57c.6,3.45-7.23,4.09-7.23,4.09S133.45,101.45,134,97.51Z"/><path class="cls-72" d="M134.64,94.94c1.41.29,8.14,1,12.38-4"/><path class="cls-72" d="M136.24,84.18A13.42,13.42,0,0,0,145.36,81"/><path class="cls-72" d="M138.14,72.87a13.51,13.51,0,0,0,5.44-1.74"/><path class="cls-73" d="M134,97.51c2-11.93,6.92-41.33,6.92-41.33s5.36,29.44,7.3,40.57"/><path class="cls-59" d="M184.92,100.08c-8.07-3.07-26.16-3.21-26,.48s22.46,7.49,22.46,7.49"/><path class="cls-74" d="M106.11,161.82s13,13.71,41.23,16.63c0,0-4.28,3.4-19.25,7.2,0,0-18-5.35-23.73-18.87Z"/><path class="cls-74" d="M105.72,160.36s42.45,6.13,72.64-32.23l-.15,5.69S155.6,168,105.14,164.59Z"/><path class="cls-61" d="M117.6,152.85s-8.76,17.25,2.53,39.66c0,0,26.61-13.34,7.63-42.37"/><path class="cls-75" d="M118.16,153.14a35.91,35.91,0,0,0-2.59,9.66,45.13,45.13,0,0,0-.24,10.06c0,.83.21,1.66.3,2.5l.17,1.24c.07.42.17.83.25,1.24l.51,2.46.7,2.42c.41,1.64,1.11,3.17,1.67,4.75s1.4,3.06,2.1,4.59l-1.35-.45h0a29.74,29.74,0,0,0,9-7.63,22.87,22.87,0,0,0,4.77-10.74,23.68,23.68,0,0,0,.17-6,28.88,28.88,0,0,0-1.21-5.87,44.44,44.44,0,0,0-5.24-10.92.67.67,0,0,1,1.12-.73A45.85,45.85,0,0,1,133.88,161a31.62,31.62,0,0,1,1.36,6.17,26,26,0,0,1-.1,6.35,24.76,24.76,0,0,1-5,11.63,31.73,31.73,0,0,1-9.59,8.3h0l0,0a1,1,0,0,1-1.28-.42l0,0c-.69-1.59-1.46-3.16-2.08-4.78l-.87-2.45c-.14-.42-.31-.82-.43-1.24l-.34-1.26-.68-2.51-.48-2.57c-.08-.42-.18-.85-.24-1.28l-.15-1.29c-.08-.87-.23-1.73-.26-2.6a46.3,46.3,0,0,1,.43-10.39,37.24,37.24,0,0,1,2.9-10,.63.63,0,0,1,1.15.53Z"/></svg>