<svg xmlns="http://www.w3.org/2000/svg" xmlns:xlink="http://www.w3.org/1999/xlink" viewBox="0 0 252 252"><defs><style>.aq{stroke-width:1.58}.ar{stroke:#4b8084}.an,.as,.c,.f,.j,.n,.r,.y{fill:none}.am{fill:#fff}.ae,.af{fill:#665782}.af{opacity:.3}.ah{fill:#53436d}.aj{fill:#4d2d66}.ag{fill:#381a4f}.c{stroke:#9867ba}.c,.f,.r,.y{stroke-miterlimit:10}.c,.r,.y{stroke-width:.58px}.a{fill:#7a66cc}.b{fill:#a298e2}.e{fill:#321a49}.d{fill:#968add}.ad{fill:#89759b}.r{stroke:#614e75}.ac{fill:#a595b7}.f,.y{stroke:#7e6b96}.f{stroke-width:.44px;opacity:.5}.g{fill:#30283d;opacity:.2}.s{fill:#f2e8b6}.t{fill:#71628e}.u{fill:#807391}.v{fill:#594d6d}.z{fill:#745991}.q{fill:#7e70a0}.al{fill:#9086b2}.w{fill:#b3acd1}.p{fill:#473b63}.ab{fill:#857a9e}.l{fill:#8579b7}.ak{fill:#796c96}.h{fill:#8377ad}.aa{fill:#8572b2}.i,.x{fill:#93a0df}.i,.n{stroke:#1c4189}.ap,.i,.j,.k,.n{stroke-linecap:round;stroke-linejoin:round}.i,.j,.k{stroke-width:1.58px}.m{fill:#592816}.j{stroke:#351a09}.n{stroke-width:1.26px}.o{fill:#6b7fc3}.k{fill:#193051;stroke:#01112b}</style><linearGradient id="l1" x1="126" x2="126" y1="35.22" y2="171.16" gradientUnits="userSpaceOnUse"><stop offset="0" stop-color="#4e3870"/><stop offset=".35" stop-color="#d87430"/><stop offset=".65" stop-color="#e5ca45"/><stop offset=".98" stop-color="#fff"/></linearGradient><clipPath id="c1"><circle cx="126" cy="126" r="101.6" class="an"/></clipPath><linearGradient id="l2" x1="74.39" x2="74.39" y1="103.92" y2="185.6" gradientUnits="userSpaceOnUse"><stop offset=".59" stop-color="#4e3870"/><stop offset="1" stop-color="#fffbe0"/></linearGradient><clipPath id="c2"><path d="M-17.36 130.12H86.35v43.57H-17.36z" class="an"/></clipPath><clipPath id="c3"><path d="M85.74 188.75v-43.32h2.47v-3.06h9.63v46.38h-12.1z" class="an"/></clipPath><clipPath id="c4"><path d="M113.6 133.72h28.15v55.13H113.6z" class="an"/></clipPath><linearGradient id="l3" x1="141.46" x2="141.46" y1="226.43" y2="173.48" gradientUnits="userSpaceOnUse"><stop offset="0" stop-color="#4e3870"/><stop offset=".3" stop-color="#c15dae"/><stop offset=".52" stop-color="#d87430"/><stop offset=".8" stop-color="#e5ca45"/><stop offset=".98" stop-color="#fff"/></linearGradient><linearGradient id="l4" x1="74.37" x2="74.37" y1="133.96" y2="215.64" gradientTransform="matrix(1 0 0 -1 0 407.17)" xlink:href="#l2"/><clipPath id="c5"><path d="M-17.38 203.44H86.33v43.57H-17.38z" class="an"/></clipPath><clipPath id="c6"><path d="M85.72 188.38v43.32h2.46v3.06h9.64v-46.38h-12.1z" class="an"/></clipPath><clipPath id="c7"><path d="M113.57 188.27h28.15v55.13h-28.15z" class="an"/></clipPath><linearGradient id="l5" x1="54.48" x2="144.04" y1="192.6" y2="192.6" gradientUnits="userSpaceOnUse"><stop offset="0" stop-color="#fff" stop-opacity="0"/><stop offset=".52" stop-color="#fff" stop-opacity=".5"/><stop offset=".98" stop-color="#fff" stop-opacity="0"/></linearGradient><linearGradient id="l6" x1="109.66" x2="199.22" y1="197.07" y2="197.07" xlink:href="#l5"/><linearGradient id="l7" x1="145.25" x2="234.81" y1="194.25" y2="194.25" xlink:href="#l5"/><linearGradient id="l8" x1="15.54" x2="105.1" y1="203.38" y2="203.38" xlink:href="#l5"/><linearGradient id="l9" x1="10.77" x2="100.33" y1="196.63" y2="196.63" xlink:href="#l5"/><linearGradient id="l10" x1="28.86" x2="118.42" y1="198.13" y2="198.13" xlink:href="#l5"/><linearGradient id="l11" x1="134.99" x2="134.99" y1="221.14" y2="191.57" gradientUnits="userSpaceOnUse"><stop offset="0" stop-color="#4e3870" stop-opacity=".8"/><stop offset=".98" stop-color="#4e3870" stop-opacity="0"/></linearGradient><clipPath id="c8"><path d="M90.55 177.87c11.67 8.75 53.78 14.07 76.43-18.67 21.59-31.22 7.59-63-27.42-68.85s-42 30.34-42 30.34c-3.5 21.59 9.92 26.26 9.92 39.67s-16.33 9.92-16.33 9.92 1.85-18.52-18.46-18.74c0 0-4.16 16.12 6.7 20.13 0 0-11.66 2.19-9.84 19.25 0 0 16.34 1.9 20.86-12.76" class="an"/></clipPath></defs><circle cx="126" cy="126" r="109.5" class="am"/><circle cx="126" cy="126" r="101.6" fill="url(#l1)"/><g clip-path="url(#c1)"><path d="M30.36 188.85V131.1l9.53 6.41v23.53h8.36V127.4h10.31v33.45h17.5v-4.28h15.95v12.35h14.98v-19.94h17.5v23.34h14.39v-14.58h20.22v18.28h4.09v-23.14h21v10.89h4.86v-6.61h9.73v-31.12h7.97v-7.39h8.36v-2.92h17.7v72.93l-202.45.19z" class="af"/><path d="M55.77 182.72h175.42v6.09H55.77z" class="ah"/><path fill="#392151" d="M74.58 52.63h-.37l-.09 13.05h.55l-.09-13.05z"/><path d="M74.83 65.39h-.87l-.2 10.16h1.27l-.2-10.16z" class="aj"/><rect width="14.1" height="3.7" x="67.35" y="95.36" fill="#9867ba" rx="1.85" ry="1.85"/><rect width="9.33" height="3.7" x="69.73" y="88.51" class="ag" rx="1.85" ry="1.85"/><path fill="#392051" d="M69.14 94.19h10.5v1.17h-10.5zM71.57 99h5.64v.48a.69.69 0 0 1-.69.69h-4.26a.69.69 0 0 1-.69-.69V99z"/><path d="M74.39 90.69H68l.58 3.5h11.65l.58-3.5z" class="aj"/><path fill="url(#l2)" d="M76.31 100.1l-1.73-.48v-.1l-.19.05-.18-.05v.1l-1.73.48-3.07 88.75h9.97l-3.07-88.75z"/><path d="M73.45 100.28v88.14m1.89-88.14v88.14" class="c"/><path d="M72.5 85.15h3.79v3.35H72.5z" class="ag"/><path fill="#7551a8" d="M75.34 74.97h-1.89L73 85.13h2.79l-.45-10.16z"/><g clip-path="url(#c2)"><ellipse cx="35.74" cy="183.65" class="a" rx="50.66" ry="37"/><ellipse cx="35.74" cy="183.65" class="b" rx="47.6" ry="34.76"/><ellipse cx="35.74" cy="183.65" class="a" rx="44.71" ry="32.65"/></g><path d="M-13.3 173.71h97.84v15.14H-13.3z" class="aj"/><rect width="5.8" height="2.44" x="56.93" y="178.83" class="e" rx=".32" ry=".32"/><rect width="5.8" height="2.44" x="63.13" y="178.83" class="e" rx=".32" ry=".32"/><rect width="5.8" height="2.44" x="69.33" y="178.83" class="e" rx=".32" ry=".32"/><rect width="5.8" height="2.44" x="33.3" y="178.83" class="e" rx=".32" ry=".32"/><rect width="5.8" height="2.44" x="39.5" y="178.83" class="e" rx=".32" ry=".32"/><rect width="5.8" height="2.44" x="45.7" y="178.83" class="e" rx=".32" ry=".32"/><path d="M-8.7 183.24h93.25v5.62H-8.7z" class="e"/><path d="M53.25 183.02h.66v5.83h-.66zm12.18-.04h.66v5.83h-.66z" class="d"/><path d="M-13.59 182.51h98.6v.69h-98.6z" class="a"/><path d="M75.48 172.96h.92v4.21h-.92zm-9 0h.92v4.21h-.92zm-9 0h.92v4.21h-.92zm-9 0h.92v4.21h-.92zm-9 0h.92v4.21h-.92zm-9.01 0h.92v4.21h-.92zm-9 0h.92v4.21h-.92zm-9 0h.92v4.21h-.92zm-9 0h.92v4.21h-.92z" class="e"/><path d="M-13.73 174.63h98.6v1.39h-98.6z" class="a"/><path d="M-13.66 176.82h98.6v.96h-98.6z" class="e"/><path d="M93.69 142.49v-1.21A2.33 2.33 0 0 1 96 139a1.12 1.12 0 0 0 1.12-1.12v-5.48h.29v10z" class="ah"/><path d="M88.6 141.58h5.5v1.21h-5.5zm-2.55 2.17h2.16v1.68h-2.16z" class="ah"/><path d="M85.74 188.75v-43.32h2.47v-3.06h9.63v46.38h-12.1z" class="ad"/><path d="M84.09 141.86h15.58m-15.58 1.16h15.58m-15.58 1.17h15.58m-15.58 1.17h15.58m-15.58 1.16h15.58m-15.58 1.17h15.58m-15.58 1.17h15.58m-15.58 1.16h15.58m-15.58 1.17h15.58m-15.58 1.17h15.58m-15.58 1.16h15.58m-15.58 1.17h15.58m-15.58 1.17h15.58m-15.58 1.17h15.58m-15.58 1.16h15.58m-15.58 1.17h15.58m-15.58 1.17h15.58m-15.58 1.16h15.58m-15.58 1.17h15.58m-15.58 1.17h15.58m-15.58 1.16h15.58m-15.58 1.17h15.58m-15.58 1.17h15.58m-15.58 1.16h15.58m-15.58 1.17h15.58m-15.58 1.17h15.58m-15.58 1.16h15.58m-15.58 1.17h15.58m-15.58 1.17h15.58m-15.58 1.16h15.58m-15.58 1.17h15.58m-15.58 1.17h15.58m-15.58 1.17h15.58m-15.58 1.16h15.58m-15.58 1.17h15.58m-15.58 1.17h15.58m-15.58 1.16h15.58m-15.58 1.17h15.58m-15.58 1.17h15.58m-15.58 1.16h15.58m-15.58 1.17h15.58m-15.58 1.17h15.58m-15.58 1.16h15.58" class="r" clip-path="url(#c3)"/><path d="M93.69 142.29h4.3v46.46h-4.3z" class="ac"/><path d="M93.69 145.99h4.3m-4.3 4.96h4.3m-4.3 4.96h4.3m-4.3 4.96h4.3m-4.3 4.96h4.3m-4.3 4.96h4.3m-4.3 4.96h4.3m-4.3 4.96h4.3m-4.3 4.96h4.3" class="y"/><path d="M95.4 142.27v46.58m.98-46.58v46.58" class="f"/><path d="M85.75 147.14l7 41.71-6.96-.09-.04-41.62z" class="g"/><path d="M88.73 144.5h.93v.56h-.93zm3.44 0h.93v.56h-.93zm-5.69 1.16h1.45v.56h-1.45zm3.97.01h.92v.56h-.92zm1.72 0h.92v.56h-.92zm-3.45 1.17h.92v.56h-.92zm1.72 0h.92v.56h-.92zM88.72 148h.92v.56h-.92zm-2.25-.01h1.45v.56h-1.45zm5.69.01h.92v.56h-.92zm-3.45 1.17h.92v.56h-.92zm0 1.17h.92v.56h-.92zm-2.25-.01h1.45v.56h-1.45zm5.69.01h.92v.56h-.92zm-1.73 1.16h.92v.56h-.92zm1.72 0h.92v.56h-.92zm-3.44 1.17h.92v.56h-.92zm1.72 0h.92v.56h-.92zm-1.73 1.17h.92v.56h-.92zm-2.25-.01h1.45v.56h-1.45zm3.97.01h.92v.56h-.92zm1.72 1.16h.92v.56h-.92zm-5.7 1.16h1.45v.56h-1.45zm3.97.01h.92v.56h-.92zm1.72 0h.92v.56h-.92zm-3.44 1.17h.92v.56h-.92zm0 1.16h.92v.56h-.92zm-2.26-.01h1.45v.56h-1.45zm3.98.01h.92v.56h-.92zm1.72 0h.92v.56h-.92zm-3.45 1.17h.92v.56h-.92zm3.44 0h.92v.56h-.92zm-3.44 1.17h.92v.56h-.92zm1.72 0h.92v.56h-.92zM86.41 162h1.45v.56h-1.45zm3.97 0h.92v.56h-.92zm1.72 0h.92v.56h-.92zm-3.44 1.17h.92v.56h-.92zm-2.25-.01h1.45v.56h-1.45zm3.97.01h.92v.56h-.92zm1.71 1.17h.92v.56h-.92zm-3.44 1.17h.92v.56h-.92zm1.72 0h.92v.56h-.92zm1.72 0h.92v.56h-.92zm-5.7 1.15h1.45v.56h-1.45zm3.97.01h.92v.56h-.92zm-1.72 1.17h.92v.56h-.92zm1.72 0h.92v.56h-.92zm1.72 0H93v.56h-.92zm-3.45 1.17h.92v.56h-.92zm-2.25-.01h1.45v.56h-1.45zm5.69.01h.92v.56h-.92zm-3.44 1.16h.92v.56h-.92zm1.72 0h.92v.56h-.92zm-3.98 1.16h1.45v.56h-1.45zm3.98.01h.92v.56h-.92zm1.71 0h.92v.56h-.92zm-3.44 1.17h.92v.56h-.92zm-2.25 1.15h1.45v.56h-1.45zm5.69.01h.92v.56h-.92zm-5.7 1.16h1.45v.56h-1.45zm3.97.01h.92v.56h-.92zm1.72 0h.92v.56h-.92zm-3.44 1.17h.92v.56h-.92zm1.72 0h.92v.56h-.92zm-1.73 1.16h.92v.56h-.92zm-2.25-.01h1.45v.56h-1.45zm3.97.01h.92v.56h-.92zm1.72 0h.92v.56h-.92zm0 1.17h.92v.56h-.92zm-5.7 1.16h1.45v.56h-1.45zm3.97.01h.92v.56h-.92zm1.72 0h.92v.56h-.92zm-3.44 1.16h.92v.56h-.92zm-2.25 0h1.45v.56h-1.45zm3.97 0h.92v.56h-.92zm-1.73 1.17h.92v.56h-.92zm3.44 0h.92v.56h-.92zm-3.44 1.17h.92v.56h-.92zm-2.25-.01h1.45v.56h-1.45zm3.97.01h.92v.56h-.92zm1.72 0h.92v.56h-.92zm-1.73 1.16h.92v.56h-.92zm1.72 0h.92v.56h-.92zm-3.44 1.17h.92v.56h-.92zm-2.25-.01h1.45v.56h-1.45zm3.97.01h.92v.56h-.92zm1.72 0h.92v.56h-.92zm-3.44 1.17h.92v.56h-.92zm3.44 0h.92v.56h-.92zm-3.45 1.17h.92v.56h-.92zm-2.25-.01h1.45v.56h-1.45zm5.69.01h.92v.56H92zm-3.27-44.34h.93v.56h-.93zm1.72 0h.93v.56h-.93z" class="s"/><path fill="#332749" d="M101.25 111.6h2.99v.66h-2.99zm5.57-8.22h.53v9.29h-.53z"/><path d="M100.18 112.26h12.25v76.59h-12.25z" class="ah"/><path d="M99.69 113.11h.88v75.75h-.88zm11.96 0h.88v75.75h-.88z" class="t"/><path d="M104.94 114.01h2.33v.83h-2.33zm3.19 0h2.33v.83h-2.33zm-6.38 1.58h2.33v.83h-2.33zm3.19 0h2.33v.83h-2.33zm3.19 0h2.33v.83h-2.33zm-6.38 1.57h2.33v.83h-2.33zm3.19 0h2.33v.83h-2.33zm-3.19 1.57h2.33v.83h-2.33zm3.19 0h2.33v.83h-2.33zm3.19 0h2.33v.83h-2.33zm-6.38 1.58h2.33v.83h-2.33zm6.38 0h2.33v.83h-2.33zm-6.38 1.57h2.33v.83h-2.33zm3.19 0h2.33v.83h-2.33zm3.19 0h2.33v.83h-2.33zm-6.38 1.58h2.33v.83h-2.33zm3.19 0h2.33v.83h-2.33zm0 1.57h2.33v.83h-2.33zm3.19 0h2.33v.83h-2.33zm-6.38 1.58h2.33v.83h-2.33zm3.19 0h2.33v.83h-2.33zm3.19 0h2.33v.83h-2.33zm-6.38 1.57h2.33v.83h-2.33zm6.38 0h2.33v.83h-2.33zm-6.38 1.57h2.33v.83h-2.33zm6.38 0h2.33v.83h-2.33zm-6.38 1.58h2.33v.83h-2.33zm3.19 0h2.33v.83h-2.33zm3.19 1.57h2.33v.83h-2.33zm-6.38 1.58h2.33v.83h-2.33zm3.19 0h2.33v.83h-2.33zm-3.19 1.57h2.33v.83h-2.33zm3.19 0h2.33v.83h-2.33zm3.19 0h2.33v.83h-2.33zm-6.38 3.15h2.33v.83h-2.33zm3.19 0h2.33v.83h-2.33zm3.19 0h2.33v.83h-2.33zm-3.19 1.57h2.33v.83h-2.33zm-3.19 1.58h2.33v.83h-2.33zm3.19 0h2.33v.83h-2.33zm3.19 0h2.33v.83h-2.33zm-6.38 1.57h2.33v.83h-2.33zm6.38 0h2.33v.83h-2.33zm-3.19 1.57h2.33v.83h-2.33zm3.19 0h2.33v.83h-2.33zm-6.38 1.58h2.33v.83h-2.33zm3.19 0h2.33v.83h-2.33zm0 1.57h2.33v.83h-2.33zm3.19 0h2.33v.83h-2.33zm-6.38 1.58h2.33v.83h-2.33zm3.19 0h2.33v.83h-2.33zm3.19 0h2.33v.83h-2.33zm-6.38 1.57h2.33v.83h-2.33zm6.38 0h2.33v.83h-2.33zm-6.38 1.57h2.33v.83h-2.33zm3.19 0h2.33v.83h-2.33zm0 1.58h2.33v.83h-2.33zm3.19 0h2.33v.83h-2.33zm-6.38 1.57h2.33v.83h-2.33zm6.38 0h2.33v.83h-2.33zm-6.38 1.58h2.33v.83h-2.33zm3.19 0h2.33v.83h-2.33zm3.19 0h2.33v.83h-2.33zm-6.38 1.57h2.33v.83h-2.33zm3.19 0h2.33v.83h-2.33zm3.19 1.57h2.33v.83h-2.33zm-6.38 1.58h2.33v.83h-2.33zm3.19 0h2.33v.83h-2.33zm3.19 0h2.33v.83h-2.33zm-6.38 1.57h2.33v.83h-2.33zm3.19 0h2.33v.83h-2.33zm0 3.15h2.33v.83h-2.33zm3.19 0h2.33v.83h-2.33zm-6.38 1.57h2.33v.83h-2.33zm8.71 0v.83h-2.33v-.83m-6.38 1.58h2.33v.83h-2.33zm3.19 0h2.33v.83h-2.33zm3.19 0h2.33v.83h-2.33zm-6.38 1.57h2.33v.83h-2.33zm6.38 0h2.33v.83h-2.33zm-6.38 1.58h2.33v.83h-2.33zm3.19 0h2.33v.83h-2.33zm0 1.57h2.33v.83h-2.33zm-3.19 1.57h2.33v.83h-2.33zm3.19 0h2.33v.83h-2.33zm3.19 0h2.33v.83h-2.33zm-6.38 1.58h2.33v.83h-2.33zm6.38 0h2.33v.83h-2.33zm0 1.57h2.33v.83h-2.33zm-6.38 1.58h2.33v.83h-2.33zm3.19 0h2.33v.83h-2.33zm0 1.57h2.33v.83h-2.33zm3.19 0h2.33v.83h-2.33zm-6.38 1.57h2.33v.83h-2.33zm3.19 0h2.33v.83h-2.33zm3.19 0h2.33v.83h-2.33zm-6.38 1.58h2.33v.83h-2.33zm6.38 0h2.33v.83h-2.33z" class="s"/><path d="M113.6 133.72h28.15v55.13H113.6z" class="u"/><path d="M113.16 134.84h29.1v1.26h-29.1zm0 2.41h29.1v1.26h-29.1zm0 2.4h29.1v1.26h-29.1zm0 2.41h29.1v1.26h-29.1zm0 2.41h29.1v1.26h-29.1zm0 2.4h29.1v1.26h-29.1zm0 2.41h29.1v1.26h-29.1zm0 2.41h29.1v1.26h-29.1zm0 2.4h29.1v1.26h-29.1zm0 2.41h29.1v1.26h-29.1zm0 2.41h29.1v1.26h-29.1zm0 2.4h29.1v1.26h-29.1zm0 2.41h29.1v1.26h-29.1zm0 2.41h29.1v1.26h-29.1zm0 2.4h29.1v1.26h-29.1zm0 2.41h29.1v1.26h-29.1zm0 2.41h29.1v1.26h-29.1zm0 2.4h29.1v1.26h-29.1zm0 2.41h29.1v1.26h-29.1zm0 2.41h29.1v1.26h-29.1zm0 2.4h29.1v1.26h-29.1zm0 2.41h29.1v1.26h-29.1zm0 2.41h29.1v1.26h-29.1z" class="v" clip-path="url(#c4)"/><path d="M114.89 136.1h1.98v1.13h-1.98zm3.87 0h1.98v1.13h-1.98zm3.86 0h1.98v1.13h-1.98zm3.87 0h1.98v1.13h-1.98zm3.87 0h1.98v1.13h-1.98zm3.87 0h1.98v1.13h-1.98zm3.87 0h1.98v1.13h-1.98zm-19.34 2.41h1.98v1.13h-1.98zm3.86 0h1.98v1.13h-1.98zm7.74 0h1.98v1.13h-1.98zm3.87 0h1.98v1.13h-1.98zm3.87 0h1.98v1.13h-1.98zm-23.21 2.41h1.98v1.13h-1.98zm3.87 0h1.98v1.13h-1.98zm3.86 0h1.98v1.13h-1.98zm3.87 0h1.98v1.13h-1.98zm3.87 0h1.98v1.13h-1.98zm7.74 0h1.98v1.13h-1.98zm-23.21 2.41h1.98v1.13h-1.98zm11.6 0h1.98v1.13h-1.98zm3.87 0h1.98v1.13h-1.98zm3.87 0h1.98v1.13h-1.98zm3.87 0h1.98v1.13h-1.98zm-23.21 2.41h1.98v1.13h-1.98zm7.73 0h1.98v1.13h-1.98zm3.87 0h1.98v1.13h-1.98zm11.61 0h1.98v1.13h-1.98zm-23.21 2.4h1.98v1.13h-1.98zm3.87 0h1.98v1.13h-1.98zm3.86 0h1.98v1.13h-1.98zm3.87 0h1.98v1.13h-1.98zm3.87 0h1.98v1.13h-1.98zm3.87 0h1.98v1.13h-1.98zm3.87 0h1.98v1.13h-1.98zm-11.61 2.41h1.98v1.13h-1.98zm3.87 0h1.98v1.13h-1.98zm7.74 0h1.98v1.13h-1.98zm-23.21 2.41h1.98v1.13h-1.98zm3.87 0h1.98v1.13h-1.98zm3.86 0h1.98v1.13h-1.98zm3.87 0h1.98v1.13h-1.98zm3.87 0h1.98v1.13h-1.98zm3.87 0h1.98v1.13h-1.98zm-15.47 2.41h1.98v1.13h-1.98zm15.47 0h1.98v1.13h-1.98zm3.87 0h1.98v1.13h-1.98zm-23.21 2.4h1.98v1.13h-1.98zm3.87 0h1.98v1.13h-1.98zm3.86 0h1.98v1.13h-1.98zm3.87 0h1.98v1.13h-1.98zm3.87 0h1.98v1.13h-1.98zm3.87 0h1.98v1.13h-1.98zm3.87 0h1.98v1.13h-1.98zm-23.21 2.41h1.98v1.13h-1.98zm7.73 0h1.98v1.13h-1.98zm7.74 0h1.98v1.13h-1.98zm7.74 0h1.98v1.13h-1.98zm-19.34 2.41h1.98v1.13h-1.98zm3.86 0h1.98v1.13h-1.98zm3.87 0h1.98v1.13h-1.98zm3.87 0h1.98v1.13h-1.98zm3.87 0h1.98v1.13h-1.98zm3.87 0h1.98v1.13h-1.98zM114.89 165h1.98v1.13h-1.98zm15.47 0h1.98v1.13h-1.98zm3.87 0h1.98v1.13h-1.98zm3.87 0h1.98v1.13h-1.98zm-23.21 2.41h1.98v1.13h-1.98zm3.87 0h1.98v1.13h-1.98zm3.86 0h1.98v1.13h-1.98zm3.87 0h1.98v1.13h-1.98zm3.87 0h1.98v1.13h-1.98zm7.74 0h1.98v1.13h-1.98zm-19.34 2.4h1.98v1.13h-1.98zm3.86 0h1.98v1.13h-1.98zm7.74 0h1.98v1.13h-1.98zm3.87 0h1.98v1.13h-1.98zm3.87 0h1.98v1.13h-1.98zm-23.21 2.41h1.98v1.13h-1.98zm3.87 0h1.98v1.13h-1.98zm7.73 0h1.98v1.13h-1.98zm3.87 0h1.98v1.13h-1.98zm3.87 0h1.98v1.13h-1.98zm3.87 0h1.98v1.13h-1.98zm-19.34 2.41h1.98v1.13h-1.98zm3.86 0h1.98v1.13h-1.98zm3.87 0h1.98v1.13h-1.98zm3.87 0h1.98v1.13h-1.98zm7.74 0h1.98v1.13h-1.98zm-23.21 2.41h1.98v1.13h-1.98zm7.73 0h1.98v1.13h-1.98zm3.87 0h1.98v1.13h-1.98zm7.74 0h1.98v1.13h-1.98zm-19.34 2.4h1.98v1.13h-1.98zm3.87 0h1.98v1.13h-1.98zm3.86 0h1.98v1.13h-1.98zm3.87 0h1.98v1.13h-1.98zm3.87 0h1.98v1.13h-1.98zm3.87 0h1.98v1.13h-1.98zm3.87 0h1.98v1.13h-1.98zm-19.34 2.41h1.98v1.13h-1.98zm7.73 0h1.98v1.13h-1.98zm7.74 0h1.98v1.13h-1.98zm3.87 0h1.98v1.13h-1.98zm-23.21 2.41h1.98v1.13h-1.98zm7.73 0h1.98v1.13h-1.98zm7.74 0h1.98v1.13h-1.98zm7.74 0h1.98v1.13h-1.98zm-23.21 2.41h1.98v1.13h-1.98zm11.6 0h1.98v1.13h-1.98zm3.87 0h1.98v1.13h-1.98zm3.87 0h1.98v1.13h-1.98zm3.87 0h1.98v1.13h-1.98z" class="s"/><path d="M176.56 133.01h.36v7.05h-.36z" class="z"/><path d="M172.89 139.86h7.86v4.95h-7.86z" class="ah"/><path d="M170.44 142.29h12.69v8.35h-12.69z" class="ah"/><path d="M169.1 145.22h15.36v11.26H169.1z" class="ah"/><path d="M168.6 149.47h16.36v39.38H168.6z" class="ah"/><path d="M184.46 147.87h1.8v40.99h-1.8zm-17.16 0h1.8v40.99h-1.8z" class="q"/><path d="M168.34 154.87h16.97v.53h-16.97zm0 5.88h16.97v.53h-16.97zm0 5.89h16.97v.53h-16.97zm0 5.88h16.97v.53h-16.97zm0 5.88h16.97v.53h-16.97zm0 5.89h16.97v.53h-16.97z" class="q"/><path d="M169.1 151.65h15.36v3.22H169.1z" class="al"/><path d="M171.44 151.65h10.67v3.22h-10.67z" class="w"/><path d="M170.43 148.43h12.7v3.22h-12.7z" class="al"/><path d="M172.37 148.43h8.82v3.22h-8.82z" class="w"/><path d="M173.34 145.21h6.87v3.22h-6.87z" class="al"/><path d="M174.95 145.21h3.65v3.22h-3.65z" class="w"/><path d="M174.08 142.33h5.4v2.88h-5.4z" class="al"/><path d="M175.34 142.33h2.87v2.88h-2.87z" class="w"/><path d="M175.05 139.89h3.45v2.44h-3.45z" class="al"/><path d="M175.67 139.89h2.21v2.44h-2.21z" class="w"/><path d="M176.28 145.24h1v43.37h-1z" class="z"/><path d="M193.67 146.43h37.78v42.42h-37.78z" class="ae"/><path d="M192.85 171.5h29.99v1.82h-29.99zm0-16.19h35.28v2.18h-35.28zm0-2.01h35.28v1.08h-35.28z" class="p"/><path d="M193.67 146.43h37.78v1.63h-37.78z" class="ab"/><path d="M194.48 145.03h1.2v9.12h-1.2zm9.51 0h1.2v9.12h-1.2zm9.52 0h1.2v9.12h-1.2zm9.52 0h1.2v9.12h-1.2z" class="p"/><path d="M204.32 149.18l-1.77 1.11a1.76 1.76 0 0 0-.83 1.5v1.74h2.79zm.56 0l1.77 1.11a1.76 1.76 0 0 1 .83 1.5v1.74h-2.79zm8.99 0l-1.76 1.11a1.77 1.77 0 0 0-.84 1.5v1.74h2.8zm.56 0l1.77 1.11a1.76 1.76 0 0 1 .83 1.5v1.74h-2.79zm8.92 0l-1.76 1.11a1.77 1.77 0 0 0-.84 1.5v1.74h2.8zm.56 0l1.77 1.11a1.76 1.76 0 0 1 .83 1.5v1.74h-2.79zm-28.66 0l1.77 1.11a1.76 1.76 0 0 1 .83 1.5v1.74h-2.79zm.19 8.24h2.49v.92a.65.65 0 0 1-.65.65h-1.19a.65.65 0 0 1-.65-.65v-.92zm2.48 14.04h-2.49v-.74a.65.65 0 0 1 .65-.65h1.19a.65.65 0 0 1 .65.65v.74z" class="p"/><path d="M196.1 158.99h1.17v11.09h-1.17z" class="l"/><path d="M205.34 157.42h2.49v.92a.65.65 0 0 1-.65.65H206a.65.65 0 0 1-.65-.65v-.92h-.01zm2.48 14.04h-2.49v-.74a.65.65 0 0 1 .65-.65h1.18a.65.65 0 0 1 .65.65v.74h.01z" class="p"/><path d="M206 158.99h1.17v11.09H206z" class="l"/><path d="M215.24 157.42h2.49v.92a.65.65 0 0 1-.65.65h-1.19a.65.65 0 0 1-.65-.65v-.92zm2.48 14.04h-2.49v-.74a.65.65 0 0 1 .65-.65h1.19a.65.65 0 0 1 .65.65v.74z" class="p"/><path d="M215.9 158.99h1.17v11.09h-1.17z" class="l"/><path d="M201.68 159.66a2 2 0 0 1 2 2v7.13h-3.91v-7.13a2 2 0 0 1 1.91-2zm9.75 0a2 2 0 0 1 2 2v7.13h-3.91v-7.13a2 2 0 0 1 1.91-2z" class="p"/><path d="M193.67 173.47h27.86v6.64h-27.86z" class="ak"/><path d="M201.49 175.89a2 2 0 0 1 2 2v5.8h-3.91v-5.8a2 2 0 0 1 1.91-2z" class="p"/><path d="M198.71 183.6h5.56v.6a.93.93 0 0 1-.93.93h-3.7a.93.93 0 0 1-.93-.93v-.6z" class="h"/><path d="M210.1 175.83a2 2 0 0 1 2 2v5.8h-3.91v-5.8a2 2 0 0 1 1.91-2z" class="p"/><path d="M207.32 183.55h5.56v.6a.93.93 0 0 1-.93.93h-3.7a.93.93 0 0 1-.93-.93v-.6z" class="h"/><path d="M211.17 156.61l19.56-15.33v15.33h-19.56z" class="ae"/><path d="M229.85 143.08v12.66H213.7l16.15-12.66m1.75-3.6l-23 18h23v-18z" class="aa"/><path fill="url(#l3)" d="M32.79 188.37h217.33v58.34H32.79z"/><g opacity=".3"><path d="M30.34 188.27v57.76l9.53-6.42v-23.53h8.36v33.65h10.31v-33.45h17.5v4.28h15.95v-12.35h14.97v19.94h17.5V204.8h14.39v14.59h20.23v-18.28h4.08v23.14h21.01v-10.89h4.86v6.61h9.72v31.12h7.98v7.39h8.36v2.91h17.7v-72.92l-202.45-.2z" class="af"/><path d="M55.81 188.31h175.42v6.09H55.81z" class="ah"/><path fill="url(#l4)" d="M76.28 277.03l-1.73.48v.1l-.18-.05-.18.05v-.1l-1.73-.48-3.07-88.76h9.96l-3.07 88.76z"/><path d="M73.42 276.84v-88.13m1.9 88.13v-88.13" class="c"/><g clip-path="url(#c5)"><ellipse cx="35.72" cy="193.48" class="a" rx="50.66" ry="37"/><ellipse cx="35.72" cy="193.48" class="b" rx="47.6" ry="34.76"/><ellipse cx="35.72" cy="193.48" class="a" rx="44.71" ry="32.65"/></g><path d="M-13.32 188.27h97.84v15.14h-97.84z" class="aj"/><rect width="5.8" height="2.44" x="56.91" y="195.86" class="e" rx=".32" ry=".32"/><rect width="5.8" height="2.44" x="63.11" y="195.86" class="e" rx=".32" ry=".32"/><rect width="5.8" height="2.44" x="69.31" y="195.86" class="e" rx=".32" ry=".32"/><rect width="5.8" height="2.44" x="33.28" y="195.86" class="e" rx=".32" ry=".32"/><rect width="5.8" height="2.44" x="39.48" y="195.86" class="e" rx=".32" ry=".32"/><rect width="5.8" height="2.44" x="45.68" y="195.86" class="e" rx=".32" ry=".32"/><path d="M-8.73 188.27h93.25v5.62H-8.73z" class="e"/><path d="M53.23 188.27h.66v5.83h-.66zm12.17.04h.66v5.83h-.66z" class="d"/><path d="M-13.61 193.92h98.6v.69h-98.6z" class="a"/><path d="M75.46 199.96h.92v4.21h-.92zm-9 0h.92v4.21h-.92zm-9.01 0h.92v4.21h-.92zm-9 0h.92v4.21h-.92zm-9 0h.92v4.21h-.92zm-9 0h.92v4.21h-.92zm-9 0h.92v4.21h-.92zm-9 0h.92v4.21h-.92zm-9 0h.92v4.21h-.92z" class="e"/><path d="M-13.76 201.11h98.6v1.39h-98.6z" class="a"/><path d="M-13.69 199.35h98.6v.96h-98.6z" class="e"/><path d="M93.66 234.64v1.21a2.34 2.34 0 0 0 2.34 2.33 1.13 1.13 0 0 1 1.13 1.12v5.43h.29v-10z" class="ah"/><path d="M88.58 234.33h5.5v1.21h-5.5zm-2.56-2.63h2.16v1.68h-2.16z" class="ah"/><path d="M85.72 188.38v43.32h2.46v3.06h9.64v-46.38h-12.1z" class="ad"/><path d="M84.07 235.27h15.57m-15.57-1.17h15.57m-15.57-1.16h15.57m-15.57-1.17h15.57m-15.57-1.17h15.57m-15.57-1.16h15.57m-15.57-1.17h15.57m-15.57-1.17h15.57m-15.57-1.16h15.57m-15.57-1.17h15.57m-15.57-1.17h15.57m-15.57-1.16h15.57m-15.57-1.17h15.57m-15.57-1.17h15.57m-15.57-1.16h15.57m-15.57-1.17h15.57m-15.57-1.17h15.57m-15.57-1.17h15.57m-15.57-1.16h15.57m-15.57-1.17h15.57m-15.57-1.17h15.57m-15.57-1.16h15.57m-15.57-1.17h15.57m-15.57-1.17h15.57m-15.57-1.16h15.57m-15.57-1.17h15.57m-15.57-1.17h15.57m-15.57-1.16h15.57m-15.57-1.17h15.57m-15.57-1.17h15.57m-15.57-1.16h15.57m-15.57-1.17h15.57m-15.57-1.17h15.57m-15.57-1.17h15.57m-15.57-1.16h15.57m-15.57-1.17h15.57m-15.57-1.17h15.57m-15.57-1.16h15.57m-15.57-1.17h15.57m-15.57-1.17h15.57m-15.57-1.16h15.57m-15.57-1.17h15.57m-15.57-1.17h15.57" class="r" clip-path="url(#c6)"/><path d="M93.66 188.38h4.3v46.46h-4.3z" class="ac"/><path d="M93.66 231.13h4.31m-4.31-4.96h4.31m-4.31-4.96h4.31m-4.31-4.95h4.31m-4.31-4.96h4.31m-4.31-4.96h4.31m-4.31-4.96h4.31m-4.31-4.96h4.31m-4.31-4.96h4.31" class="y"/><path d="M95.38 234.86v-46.58m.98 46.58v-46.58" class="f"/><path d="M85.72 229.99l7-41.72-6.95.1-.05 41.62z" class="g"/><path d="M88.7 232.07h.93v.56h-.93zm3.44 0h.93v.56h-.93zm-5.69-1.16h1.45v.56h-1.45zm3.97-.01h.92v.56h-.92zm1.72 0h.92v.56h-.92zm-3.44-1.16h.92v.56h-.92zm1.72 0h.92v.56h-.92zm-1.73-1.17h.92v.56h-.92zm-2.25.01h1.45v.56h-1.45zm5.69-.01h.92v.56h-.92zm-3.44-1.17h.92v.56h-.92zm-.01-1.16h.92v.56h-.92zm-2.25 0h1.45v.56h-1.45zm5.69 0h.92v.56h-.92zm-1.72-1.17h.92v.56h-.92zm1.72 0h.92v.56h-.92zm-3.45-1.17h.92v.56h-.92zm1.72 0h.92v.56h-.92zm-1.72-1.17h.92v.56h-.92zm-2.25.01h1.45v.56h-1.45zm3.97-.01h.92v.56h-.92zm1.71-1.16h.92v.56h-.92zm-5.69-1.16h1.45v.56h-1.45zm3.97-.01h.92v.56h-.92zm1.72 0h.92v.56h-.92zm-3.44-1.17h.92v.56h-.92zm-.01-1.16h.92v.56h-.92zm-2.25.01h1.45v.56H86.4zm3.97-.01h.92v.56h-.92zm1.72 0h.92v.56h-.92zm-3.44-1.17h.92v.56h-.92zm3.44 0h.92v.56h-.92zm-3.45-1.17h.92v.56h-.92zm1.72 0h.92v.56h-.92zm-3.97-1.15h1.45v.56h-1.45zm3.97-.01h.92v.56h-.92zm1.72 0H93v.56h-.92zm-3.45-1.17h.92v.56h-.92zm-2.25.01h1.45v.56h-1.45zm3.97-.01h.92v.56h-.92zm1.72-1.17h.92v.56h-.92zm-3.45-1.16h.92v.56h-.92zm1.72 0h.92v.56h-.92zm1.72 0h.92v.56h-.92zm-5.69-1.16h1.45v.56h-1.45zm3.97-.01h.92v.56h-.92zm-1.73-1.17h.92v.56h-.92zm1.72 0h.92v.56h-.92zm1.72 0h.92v.56h-.92zm-3.44-1.16h.92v.56h-.92zm-2.25 0h1.45v.56h-1.45zm5.69 0h.92v.56h-.92zm-3.44-1.17h.92v.56h-.92zm1.72 0h.92v.56h-.92zm-3.98-1.16h1.45v.56h-1.45zm3.97-.01h.92v.56h-.92zm1.72 0h.92v.56h-.92zm-3.44-1.17h.92v.56h-.92zm-2.26-1.15h1.45v.56h-1.45zm5.69-.01h.92v.56h-.92zm-5.69-1.16h1.45v.56h-1.45zm3.97-.01h.92v.56h-.92zm1.72 0h.92v.56h-.92zm-3.45-1.17h.92v.56h-.92zm1.72 0h.92v.56h-.92zm-1.72-1.16h.92v.56h-.92zm-2.25.01h1.45v.56h-1.45zm3.97-.01h.92v.56h-.92zm1.72 0h.92v.56h-.92zm-.01-1.17h.92v.56h-.92zm-5.69-1.16h1.45v.56h-1.45zm3.97-.01h.92v.56h-.92zm1.72 0h.92v.56h-.92zm-3.45-1.16h.92v.56h-.92zm-2.25.01h1.45v.56h-1.45zm3.97-.01h.92v.56h-.92zm-1.72-1.17h.92v.56h-.92zm3.44 0h.92v.56H92zm-3.44-1.17h.92v.56h-.92zm-2.26.01h1.45v.56H86.3zm3.98-.01h.92v.56h-.92zm1.71 0h.92v.56h-.92zm-1.72-1.16h.92v.56h-.92zm1.72 0h.92v.56h-.92zm-3.44-1.17h.92v.56h-.92zm-2.25.01h1.45v.56H86.3zm3.97-.01h.92v.56h-.92zm1.72 0h.92v.56h-.92zm-3.45-1.17h.92v.56h-.92zm3.44 0h.92v.56h-.92zm-3.44-1.16h.92v.56h-.92zm-2.25 0h1.45v.56h-1.45zm5.69 0h.92v.56h-.92zm-3.28 44.33h.93v.56h-.93zm1.72 0h.93v.56h-.93z" class="s"/><path d="M100.15 188.27h12.25v76.59h-12.25z" class="ah"/><path d="M99.67 188.27h.88v75.75h-.88zm11.96 0h.88v75.75h-.88z" class="t"/><path d="M104.91 251.27h2.33v.83h-2.33zm3.19 0h2.33v.83h-2.33zm-6.38-1.57h2.33v.83h-2.33zm3.19 0h2.33v.83h-2.33zm3.19 0h2.33v.83h-2.33zm-6.38-1.58h2.33v.83h-2.33zm6.38 0h2.33v.83h-2.33zm-6.38-1.57h2.33v.83h-2.33zm6.38 0h2.33v.83h-2.33zm-6.38-1.58h2.33v.83h-2.33zm3.19 0h2.33v.83h-2.33zm3.19-1.57h2.33v.83h-2.33zm-6.38-1.57h2.33v.83h-2.33zm3.19 0h2.33v.83h-2.33zm-3.19-1.58h2.33v.83h-2.33zm3.19 0h2.33v.83h-2.33zm3.19 0h2.33v.83h-2.33zm-6.38-3.15h2.33v.83h-2.33zm3.19 0h2.33v.83h-2.33zm3.19 0h2.33v.83h-2.33zm-3.19-1.57h2.33v.83h-2.33zm-3.19-1.57h2.33v.83h-2.33zm3.19 0h2.33v.83h-2.33zm3.19 0h2.33v.83h-2.33zm-6.38-1.58h2.33v.83h-2.33zm6.38 0h2.33v.83h-2.33zm-3.19-1.57h2.33v.83h-2.33zm3.19 0h2.33v.83h-2.33zm-6.38-1.58h2.33v.83h-2.33zm3.19 0h2.33v.83h-2.33zm0-1.57h2.33v.83h-2.33zm3.19 0h2.33v.83h-2.33zm-6.38-1.57h2.33v.83h-2.33zm3.19 0h2.33v.83h-2.33zm3.19 0h2.33v.83h-2.33zm-6.38-1.58h2.33v.83h-2.33zm6.38 0h2.33v.83h-2.33zm-6.38-1.57h2.33v.83h-2.33zm3.19 0h2.33v.83h-2.33zm0-1.58h2.33v.83h-2.33zm3.19 0h2.33v.83h-2.33zm-6.38-1.57h2.33v.83h-2.33zm6.38 0h2.33v.83h-2.33zm-6.38-1.57h2.33v.83h-2.33zm3.19 0h2.33v.83h-2.33zm3.19 0h2.33v.83h-2.33zm-6.38-1.58h2.33v.83h-2.33zm3.19 0h2.33v.83h-2.33zm3.19-1.57h2.33v.83h-2.33zm-6.38-1.58h2.33v.83h-2.33zm3.19 0h2.33v.83h-2.33zm3.19 0h2.33v.83h-2.33zm-6.38-1.57h2.33v.83h-2.33zm3.19 0h2.33v.83h-2.33zm0-3.15h2.33v.83h-2.33zm3.19 0h2.33v.83h-2.33zm-6.38-1.57h2.33v.83h-2.33zm8.72.82v-.82h-2.34v.82m-6.38-2.4h2.33v.83h-2.33zm3.19 0h2.33v.83h-2.33zm3.19 0h2.33v.83h-2.33zm-6.38-1.57h2.33v.83h-2.33zm6.38 0h2.33v.83h-2.33zm-6.38-1.58h2.33v.83h-2.33zm3.19 0h2.33v.83h-2.33zm0-1.57h2.33v.83h-2.33zm-3.19-1.57h2.33v.83h-2.33zm3.19 0h2.33v.83h-2.33zm3.19 0h2.33v.83h-2.33zm-6.38-1.58h2.33v.83h-2.33zm6.38 0h2.33v.83h-2.33zm0-1.57h2.33v.83h-2.33zm-6.38-1.58h2.33v.83h-2.33zm3.19 0h2.33v.83h-2.33zm0-1.57h2.33v.83h-2.33zm3.19 0h2.33v.83h-2.33zm-6.38-1.57h2.33v.83h-2.33zm3.19 0h2.33v.83h-2.33zm3.19 0h2.33v.83h-2.33zm-6.38-1.58h2.33v.83h-2.33zm6.38 0h2.33v.83h-2.33z" class="s"/><path d="M113.57 188.27h28.15v55.13h-28.15z" class="u"/><path d="M113.14 241.02h29.1v1.26h-29.1zm0-2.4h29.1v1.26h-29.1zm0-2.41h29.1v1.26h-29.1zm0-2.41h29.1v1.26h-29.1zm0-2.4h29.1v1.26h-29.1zm0-2.41h29.1v1.26h-29.1zm0-2.41h29.1v1.26h-29.1zm0-2.4h29.1v1.26h-29.1zm0-2.41h29.1v1.26h-29.1zm0-2.41h29.1v1.26h-29.1zm0-2.4h29.1v1.26h-29.1zm0-2.41h29.1v1.26h-29.1zm0-2.41h29.1v1.26h-29.1zm0-2.4h29.1V211h-29.1zm0-2.41h29.1v1.26h-29.1zm0-2.41h29.1v1.26h-29.1zm0-2.4h29.1v1.26h-29.1zm0-2.41h29.1v1.26h-29.1zm0-2.41h29.1v1.26h-29.1zm0-2.4h29.1v1.26h-29.1zm0-2.41h29.1v1.26h-29.1zm0-2.41h29.1v1.26h-29.1zm0-2.4h29.1v1.26h-29.1z" class="v" clip-path="url(#c7)"/><path d="M114.86 239.89h1.98v1.13h-1.98zm3.87 0h1.98v1.13h-1.98zm3.87 0h1.98v1.13h-1.98zm3.87 0h1.98v1.13h-1.98zm3.87 0h1.98v1.13h-1.98zm3.87 0h1.98v1.13h-1.98zm3.87 0h1.98v1.13h-1.98zm-19.35-2.4h1.98v1.13h-1.98zm3.87 0h1.98v1.13h-1.98zm7.74 0h1.98v1.13h-1.98zm3.87 0h1.98v1.13h-1.98zm3.87 0h1.98v1.13h-1.98zm-23.22-2.41h1.98v1.13h-1.98zm3.87 0h1.98v1.13h-1.98zm3.87 0h1.98v1.13h-1.98zm3.87 0h1.98v1.13h-1.98zm3.87 0h1.98v1.13h-1.98zm7.74 0h1.98v1.13h-1.98zm-23.22-2.41h1.98v1.13h-1.98zm11.61 0h1.98v1.13h-1.98zm3.87 0h1.98v1.13h-1.98zm3.87 0h1.98v1.13h-1.98zm3.87 0h1.98v1.13h-1.98zm-23.22-2.41h1.98v1.13h-1.98zm7.74 0h1.98v1.13h-1.98zm3.87 0h1.98v1.13h-1.98zm11.61 0h1.98v1.13h-1.98zm-23.22-2.41h1.98v1.13h-1.98zm3.87 0h1.98v1.13h-1.98zm3.87 0h1.98v1.13h-1.98zm3.87 0h1.98v1.13h-1.98zm3.87 0h1.98v1.13h-1.98zm3.87 0h1.98v1.13h-1.98zm3.87 0h1.98v1.13h-1.98zm-11.61-2.4h1.98v1.13h-1.98zm3.87 0h1.98v1.13h-1.98zm7.74 0h1.98v1.13h-1.98zm-23.22-2.41h1.98v1.13h-1.98zm3.87 0h1.98v1.13h-1.98zm3.87 0h1.98v1.13h-1.98zm3.87 0h1.98v1.13h-1.98zm3.87 0h1.98v1.13h-1.98zm3.87 0h1.98v1.13h-1.98zm-15.48-2.41h1.98v1.13h-1.98zm15.48 0h1.98v1.13h-1.98zm3.87 0h1.98v1.13h-1.98zm-23.22-2.41h1.98v1.13h-1.98zm3.87 0h1.98v1.13h-1.98zm3.87 0h1.98v1.13h-1.98zm3.87 0h1.98v1.13h-1.98zm3.87 0h1.98v1.13h-1.98zm3.87 0h1.98v1.13h-1.98zm3.87 0h1.98v1.13h-1.98zm-23.22-2.4h1.98v1.13h-1.98zm7.74 0h1.98v1.13h-1.98zm7.74 0h1.98v1.13h-1.98zm7.74 0h1.98v1.13h-1.98zm-19.35-2.41h1.98v1.13h-1.98zm3.87 0h1.98v1.13h-1.98zm3.87 0h1.98v1.13h-1.98zm3.87 0h1.98v1.13h-1.98zm3.87 0h1.98v1.13h-1.98zm3.87 0h1.98v1.13h-1.98zM114.86 211h1.98v1.13h-1.98zm15.48 0h1.98v1.13h-1.98zm3.87 0h1.98v1.13h-1.98zm3.87 0h1.98v1.13h-1.98zm-23.22-2.41h1.98v1.13h-1.98zm3.87 0h1.98v1.13h-1.98zm3.87 0h1.98v1.13h-1.98zm3.87 0h1.98v1.13h-1.98zm3.87 0h1.98v1.13h-1.98zm7.74 0h1.98v1.13h-1.98zm-19.35-2.41h1.98v1.13h-1.98zm3.87 0h1.98v1.13h-1.98zm7.74 0h1.98v1.13h-1.98zm3.87 0h1.98v1.13h-1.98zm3.87 0h1.98v1.13h-1.98zm-23.22-2.4h1.98v1.13h-1.98zm3.87 0h1.98v1.13h-1.98zm7.74 0h1.98v1.13h-1.98zm3.87 0h1.98v1.13h-1.98zm3.87 0h1.98v1.13h-1.98zm3.87 0h1.98v1.13h-1.98zm-19.35-2.41h1.98v1.13h-1.98zm3.87 0h1.98v1.13h-1.98zm3.87 0h1.98v1.13h-1.98zm3.87 0h1.98v1.13h-1.98zm7.74 0h1.98v1.13h-1.98zm-23.22-2.41h1.98v1.13h-1.98zm7.74 0h1.98v1.13h-1.98zm3.87 0h1.98v1.13h-1.98zm7.74 0h1.98v1.13h-1.98zm-19.35-2.41h1.98v1.13h-1.98zm3.87 0h1.98v1.13h-1.98zm3.87 0h1.98v1.13h-1.98zm3.87 0h1.98v1.13h-1.98zm3.87 0h1.98v1.13h-1.98zm3.87 0h1.98v1.13h-1.98zm3.87 0h1.98v1.13h-1.98zm-19.35-2.41h1.98v1.13h-1.98zm7.74 0h1.98v1.13h-1.98zm7.74 0h1.98v1.13h-1.98zm3.87 0h1.98v1.13h-1.98zm-23.22-2.4h1.98v1.13h-1.98zm7.74 0h1.98v1.13h-1.98zm7.74 0h1.98v1.13h-1.98zm7.74 0h1.98v1.13h-1.98zm-23.22-2.41h1.98v1.13h-1.98zm11.61 0h1.98v1.13h-1.98zm3.87 0h1.98v1.13h-1.98zm3.87 0h1.98v1.13h-1.98zm3.87 0h1.98v1.13h-1.98z" class="s"/><path d="M176.54 237.07h.36v7.05h-.36z" class="z"/><path d="M172.86 232.32h7.86v4.95h-7.86z" class="ah"/><path d="M170.42 226.49h12.69v8.35h-12.69z" class="ah"/><path d="M169.07 220.65h15.36v11.26h-15.36z" class="ah"/><path d="M168.58 188.27h16.36v39.38h-16.36z" class="ah"/><path d="M184.44 188.27h1.8v40.99h-1.8zm-17.17 0h1.8v40.99h-1.8z" class="q"/><path d="M168.32 221.72h16.97v.53h-16.97zm0-5.88h16.97v.53h-16.97zm0-5.88h16.97v.53h-16.97zm0-5.89h16.97v.53h-16.97zm0-5.88h16.97v.53h-16.97zm0-5.88h16.97v.53h-16.97z" class="q"/><path d="M169.07 222.26h15.36v3.22h-15.36z" class="al"/><path d="M171.42 222.26h10.67v3.22h-10.67z" class="w"/><path d="M170.4 225.48h12.7v3.22h-12.7z" class="al"/><path d="M172.34 225.48h8.82v3.22h-8.82z" class="w"/><path d="M173.32 228.7h6.87v3.22h-6.87z" class="al"/><path d="M174.93 228.7h3.65v3.22h-3.65z" class="w"/><path d="M174.05 231.92h5.4v2.88h-5.4z" class="al"/><path d="M175.32 231.92h2.87v2.88h-2.87z" class="w"/><path d="M175.03 234.79h3.45v2.44h-3.45z" class="al"/><path d="M175.65 234.79h2.21v2.44h-2.21z" class="w"/><path d="M176.26 188.51h1v43.37h-1z" class="z"/><path d="M193.65 188.27h37.78v42.42h-37.78z" class="ae"/><path d="M192.83 203.81h29.99v1.82h-29.99zm0 15.82h35.28v2.18h-35.28zm0 3.12h35.28v1.08h-35.28z" class="p"/><path d="M193.65 229.07h37.78v1.63h-37.78z" class="ab"/><path d="M194.45 222.99h1.2v9.12h-1.2zm9.52 0h1.2v9.12h-1.2zm9.52 0h1.2v9.12h-1.2zm9.51 0h1.2v9.12H223z" class="p"/><path d="M204.3 227.94l-1.77-1.1a1.79 1.79 0 0 1-.83-1.51v-1.74h2.79zm.56 0l1.76-1.1a1.8 1.8 0 0 0 .84-1.51v-1.74h-2.8zm8.99 0l-1.77-1.1a1.79 1.79 0 0 1-.83-1.51v-1.74H214zm.56 0l1.77-1.1a1.79 1.79 0 0 0 .83-1.51v-1.74h-2.8zm8.92 0l-1.77-1.1a1.79 1.79 0 0 1-.83-1.51v-1.74h2.79zm.56 0l1.77-1.1a1.79 1.79 0 0 0 .83-1.51v-1.74h-2.79zm-28.66 0l1.77-1.1a1.81 1.81 0 0 0 .83-1.51v-1.74H195zm.83-9.8h1.19a.65.65 0 0 1 .65.65v.92h-2.49v-.92a.65.65 0 0 1 .65-.65zm1.2-11.1h-1.19a.65.65 0 0 1-.65-.65v-.74h2.49v.74a.65.65 0 0 1-.65.65z" class="p"/><path d="M196.07 207.05h1.17v11.09h-1.17z" class="l"/><path d="M206 218.14h1.19a.65.65 0 0 1 .65.65v.92h-2.49v-.92a.65.65 0 0 1 .65-.65zm1.12-11.1h-1.19a.65.65 0 0 1-.65-.65v-.74h2.49v.74a.65.65 0 0 1-.65.65z" class="p"/><path d="M205.97 207.05h1.17v11.09h-1.17z" class="l"/><path d="M215.86 218.14h1.19a.65.65 0 0 1 .65.65v.92h-2.49v-.92a.65.65 0 0 1 .65-.65zm1.2-11.1h-1.19a.65.65 0 0 1-.65-.65v-.74h2.49v.74a.65.65 0 0 1-.65.65z" class="p"/><path d="M215.87 207.05h1.17v11.09h-1.17z" class="l"/><path d="M199.7 208.38h3.91v7.13a2 2 0 0 1-2 2 2 2 0 0 1-2-2v-7.13zm9.75 0h3.91v7.13a2 2 0 0 1-2 2 2 2 0 0 1-2-2v-7.13h.09z" class="p"/><path d="M193.65 197.02h27.86v6.64h-27.86z" class="ak"/><path d="M199.51 193.48h3.91v5.8a2 2 0 0 1-2 2 2 2 0 0 1-2-2v-5.8z" class="p"/><path d="M199.62 192h3.7a.93.93 0 0 1 .93.93v.6h-5.56v-.6a.93.93 0 0 1 .93-.93z" class="h"/><path d="M208.12 193.54H212v5.8a2 2 0 0 1-2 2 2 2 0 0 1-2-2v-5.8h.12z" class="p"/><path d="M208.23 192h3.7a.93.93 0 0 1 .93.93v.6h-5.56V193a.93.93 0 0 1 .93-1z" class="h"/><path d="M211.14 220.52h19.57v15.33l-19.57-15.33z" class="ae"/><path d="M229.83 221.39v12.66l-16.15-12.66h16.15m1.75-1.75h-23l23 18v-18z" class="aa"/></g><path fill="url(#l5)" d="M51.27 191.31h95.39v2.56H51.27z"/><path fill="url(#l6)" d="M106.45 195.79h95.39v2.56h-95.39z"/><path fill="url(#l7)" d="M142.04 192.97h95.39v2.56h-95.39z"/><path fill="url(#l8)" d="M12.33 202.1h95.39v2.56H12.33z"/><path fill="url(#l9)" d="M7.56 195.59h95.39v2.07H7.56z"/><path fill="url(#l10)" d="M25.65 197.09h95.39v2.07H25.65z"/><path fill="#644662" d="M190.79 68.89h.63a14.78 14.78 0 0 1-.13-1.9 14.3 14.3 0 1 1 28.6 0c0 .42 0 .82-.06 1.23A11.78 11.78 0 1 1 226 90.06h-35.21a10.59 10.59 0 1 1 0-21.17z" opacity=".38"/><path fill="#4c2e4b" d="M177 53.55h-.31a6.93 6.93 0 1 0-13.79-.92 5.68 5.68 0 0 0 0 .59 5.71 5.71 0 1 0-3 10.57H177a5.13 5.13 0 0 0 0-10.26z" opacity=".3"/><path fill="url(#l11)" d="M31.72 191.77h206.53v54.84H31.72z"/></g><path d="M108.18 211.16l-2.05 3.06-.41-3.66-.89-.22-2.07 3.04-.38-3.64-1-.25.56 4.95 1.02.25 1.95-2.84.41 3.42 1.02.25 2.79-4.13-.95-.23zm4.59 1.03a2.46 2.46 0 0 0-1.15-.5 2.49 2.49 0 0 0-1.28.1 2.23 2.23 0 0 0-1 .7 2.5 2.5 0 0 0-.51 1.16 2.45 2.45 0 0 0 .11 1.27 2.25 2.25 0 0 0 .76 1 3.2 3.2 0 0 0 2.39.51 2 2 0 0 0 .91-.43l-.47-.76a1.72 1.72 0 0 1-1.34.29 1.67 1.67 0 0 1-.94-.46 1.28 1.28 0 0 1-.37-.89l3.62.6a2.12 2.12 0 0 0 .07-.32 2.56 2.56 0 0 0-.09-1.3 2.17 2.17 0 0 0-.71-.97zm-2.77 1.27a1.28 1.28 0 0 1 .57-.75 1.37 1.37 0 0 1 .92-.16 1.32 1.32 0 0 1 .83.46 1.3 1.3 0 0 1 .29.88zm8.62-.58a2.36 2.36 0 0 0-1.19-.42 2.12 2.12 0 0 0-.84.07 1.79 1.79 0 0 0-.71.4l.24-2.38-1.09-.11-.65 6.46 1 .1.06-.6a1.67 1.67 0 0 0 .61.57 2.39 2.39 0 0 0 .86.25 2.48 2.48 0 0 0 1.25-.17 2.18 2.18 0 0 0 .92-.76 2.55 2.55 0 0 0 .43-1.22 2.42 2.42 0 0 0-.18-1.27 2.12 2.12 0 0 0-.71-.92zm-.17 2.08a1.47 1.47 0 0 1-.5 1 1.32 1.32 0 0 1-1 .3 1.4 1.4 0 0 1-.68-.25 1.31 1.31 0 0 1-.45-.56 1.57 1.57 0 0 1-.1-.79 1.46 1.46 0 0 1 .26-.74 1.2 1.2 0 0 1 .54-.46 1.39 1.39 0 0 1 .73-.11 1.31 1.31 0 0 1 .94.5 1.44 1.44 0 0 1 .26 1.15zm4.9-2.13a2.28 2.28 0 0 0-.89.13 1.74 1.74 0 0 0-.69.42l.08-2.37h-1.09l-.22 6.49h1.09l.08-2.36a1.47 1.47 0 0 1 .39-1 1.21 1.21 0 0 1 1-.33 1 1 0 0 1 .81.34 1.25 1.25 0 0 1 .26.93l-.08 2.53h1.09l.09-2.67a2.05 2.05 0 0 0-.48-1.55 2 2 0 0 0-1.44-.56zm3.25.1l1.08-.02.07 4.67-1.09.02zm.53-2.1a.72.72 0 0 0-.5.19.66.66 0 0 0 0 .94.71.71 0 0 0 .51.18.69.69 0 0 0 .5-.2.67.67 0 0 0 .19-.49.64.64 0 0 0-.21-.45.74.74 0 0 0-.49-.17zm5.99 2.28a1.93 1.93 0 0 0-1.44-.43 2.59 2.59 0 0 0-.92.22 1.79 1.79 0 0 0-.65.53v-.6l-1 .07.29 4.66 1.09-.07-.14-2.36a1.41 1.41 0 0 1 .28-1.06 1.24 1.24 0 0 1 .93-.42 1 1 0 0 1 .84.26 1.29 1.29 0 0 1 .35.9l.15 2.53 1.1-.07-.17-2.67a2 2 0 0 0-.71-1.49zm4.12 2.94a.66.66 0 0 1-.5-.12.73.73 0 0 1-.22-.5l-.26-2.21 1.24-.14-.1-.87-1.24.14-.13-1.06-1.08.13.12 1.06-.77.09.11.87.76-.09.26 2.23a1.57 1.57 0 0 0 .56 1.12 1.63 1.63 0 0 0 1.22.26 1.71 1.71 0 0 0 .57-.15 1.38 1.38 0 0 0 .44-.28l-.39-.74a1 1 0 0 1-.59.26zm2.21-.86a.69.69 0 0 0-.48.27.7.7 0 0 0-.13.55.72.72 0 0 0 .82.61.71.71 0 0 0 .6-.82.66.66 0 0 0-.28-.49.69.69 0 0 0-.53-.12zm1.63-4.38a.68.68 0 0 0 .46-.28.69.69 0 0 0 .11-.51.61.61 0 0 0-.28-.41.77.77 0 0 0-1 .18.63.63 0 0 0-.12.5.65.65 0 0 0 .28.42.7.7 0 0 0 .55.1zm-.4.84l1.07-.19.82 4.6-1.07.19zm7.39.86a2.46 2.46 0 0 0-.59-1.13 2.14 2.14 0 0 0-1-.63 2.67 2.67 0 0 0-1.32 0 2.73 2.73 0 0 0-1.18.58 2.19 2.19 0 0 0-.68 1 2.58 2.58 0 0 0 .54 2.42 2.17 2.17 0 0 0 1.06.63 2.52 2.52 0 0 0 1.31 0 2.66 2.66 0 0 0 1.19-.58 2.3 2.3 0 0 0 .68-1 2.51 2.51 0 0 0-.01-1.29zm-1.23 1.37a1.37 1.37 0 0 1-.89.61 1.28 1.28 0 0 1-1-.18 1.44 1.44 0 0 1-.62-.94 1.51 1.51 0 0 1 .15-1.12 1.31 1.31 0 0 1 .88-.61 1.34 1.34 0 0 1 1.06.17 1.63 1.63 0 0 1 .47 2.07z" class="am"/><path d="M170.19 149.09s15.36-6.52 18.77-27.43-4.67-21.78-4.67-21.78-14.59 16.12-14.2 33.45.1 15.76.1 15.76z" class="i"/><path fill="#592816" stroke="#351a09" d="M173.08 75.87c4.69 7.38-13.75 27.47-41.18 44.87s-53.16 25.31-58.14 18.12c-4.21-6.06 13.36-28.12 40.79-45.52s53.85-24.86 58.53-17.47z" class="ap aq"/><path d="M90.55 177.87c11.67 8.75 53.78 14.07 76.43-18.67 21.59-31.22 7.59-63-27.42-68.85s-42 30.34-42 30.34c-3.5 21.59 9.92 26.26 9.92 39.67s-16.33 9.92-16.33 9.92 1.85-18.52-18.46-18.74c0 0-4.16 16.12 6.7 20.13 0 0-11.66 2.19-9.84 19.25 0 0 16.34 1.9 20.86-12.76" class="x"/><g clip-path="url(#c8)"><path d="M125.31 120.5s1.76 4.37 5.64 3.06c2.8-.94 1-5 1-5m23.99-5.75s1.57 3.93 5.06 2.75c2.51-.85.87-4.45.87-4.45m-18.23 9.48s2.29 7 7.05 5.3c3-1.11 1.9-7.58 1.9-7.58" class="n"/><path fill="#b8c3ec" d="M92.89 179s27.9 3.8 34.86-12.1c6.71-15.36 31.26-44.78 48.13-19.84 18.16 26.85-56.59 52.22-56.59 52.22l-20.86-8.46z"/><ellipse cx="101.67" cy="132.95" class="o" rx="4.98" ry="13.48" transform="rotate(-11.96 101.65 132.93)"/><path d="M112.46 140c1.39-.2 1.69-3.32 1.37-6.12s-1.32-4.5-2.54-4c-1 .38-1.52 2.52-1.2 5.31s1.39 4.94 2.37 4.81z" class="o"/><ellipse cx="110.68" cy="145.2" class="o" rx="1.03" ry="2.42" transform="rotate(-3.18 110.8 145.3)"/><path d="M122.86 110.26l4.08-4.37m27.35-6.93l4.3 1.31" class="n"/></g><path d="M92.55 109.75s-7.44-14.44-1.22-20.47 9-14.39 12.84-19 6.8-5.73 11.47-3.6a47.19 47.19 0 0 0 15.27 4.19c5.51.41 9 8.94 9 8.94L117.1 101z" class="m"/><path d="M92.55 109.75s-7.44-14.44-1.22-20.47 9-14.39 12.84-19 6.8-5.73 11.47-3.6a47.19 47.19 0 0 0 15.27 4.19c5.51.41 9 8.94 9 8.94L117.1 101z" class="j"/><path fill="#331207" d="M90.75 105.81s14.25-20.9 48.71-27.12l2.34 5.44L114.91 104l-21.83 8z"/><path stroke="#1c4189" d="M90.41 178.16c-4.52 14.66-20.86 12.76-20.86 12.76-1.82-17.06 9.84-19.25 9.84-19.25-10.86-4-6.7-20.13-6.7-20.13 20.27.22 18.45 18.74 18.45 18.74s16.33 3.5 16.33-9.92-13.42-18.08-9.92-39.67c0 0 7-36.17 42-30.34S188.57 128 167 159.2c-22.65 32.74-64.76 27.42-76.43 18.67" class="as ap aq"/><path fill="#351a09" d="M108.24 71.6a14.14 14.14 0 0 1-.5 5.13 24 24 0 0 1-1.89 4.71 33.84 33.84 0 0 1-2.71 4.27c-.51.67-1.06 1.31-1.58 2l-1.7 1.87a.79.79 0 0 1-1.11 0 .78.78 0 0 1 0-1.11l1.7-1.75c.52-.62 1.06-1.22 1.57-1.85a30.07 30.07 0 0 0 2.72-4 22.22 22.22 0 0 0 1.94-4.41 13.2 13.2 0 0 0 .62-4.66v-.1a.48.48 0 0 1 .43-.52.49.49 0 0 1 .51.42zm6.76-3.04a38.09 38.09 0 0 0 3.35 1.91 31.42 31.42 0 0 0 3.57 1.53 19.8 19.8 0 0 0 3.66 1 10.17 10.17 0 0 0 3.61 0 .8.8 0 0 1 .94.6.79.79 0 0 1-.61.94 11.7 11.7 0 0 1-4.18-.11 21.16 21.16 0 0 1-3.87-1.19 31.26 31.26 0 0 1-3.59-1.74 37.17 37.17 0 0 1-3.38-2.1.49.49 0 0 1 .54-.81z"/><path d="M95.12 131.1s13.52-36.18 58.93-38.1" class="j"/><path d="M173.08 75.87c1.9 3 0 8.07-4.75 14.21l-13.82 2.54c-45.7 3.11-59.73 37.26-59.73 37.26l-13.57 11.63c-3.61 0-6.19-.84-7.45-2.65-4.21-6.06 13.36-28.12 40.78-45.52s53.86-24.86 58.54-17.47z" class="m"/><path d="M81.21 141.51c-3.61 0-6.19-.84-7.45-2.65-4.21-6.06 13.36-28.12 40.78-45.52s53.86-24.86 58.54-17.47c1.9 3 0 8.07-4.75 14.21m-73.55 39.8s14-34.15 59.73-37.26" class="j"/><path fill="#c7e5ec" d="M134 97.51l6.92-41.33s5.36 29.44 7.3 40.57c.6 3.45-7.23 4.09-7.23 4.09s-7.54.61-6.99-3.33z" class="ap aq ar"/><path stroke="#80b8c1" d="M134.64 94.94c1.41.29 8.14 1 12.38-4m-10.78-6.76a13.42 13.42 0 0 0 9.12-3.18m-7.22-8.13a13.51 13.51 0 0 0 5.44-1.74" class="as ap aq"/><path d="M134 97.51l6.92-41.33s5.36 29.44 7.3 40.57" class="as ap aq ar"/><path d="M184.92 100.08c-8.07-3.07-26.16-3.21-26 .48s22.46 7.49 22.46 7.49" class="i"/><path d="M106.11 161.82s13 13.71 41.23 16.63c0 0-4.28 3.4-19.25 7.2 0 0-18-5.35-23.73-18.87z" class="k"/><path d="M105.72 160.36s42.45 6.13 72.64-32.23l-.15 5.69S155.6 168 105.14 164.59z" class="k"/><path d="M117.6 152.85s-8.76 17.25 2.53 39.66c0 0 26.61-13.34 7.63-42.37" class="x"/><path fill="#1c4189" d="M118.16 153.14a35.91 35.91 0 0 0-2.59 9.66 45.13 45.13 0 0 0-.24 10.06c0 .83.21 1.66.3 2.5l.17 1.24c.07.42.17.83.25 1.24l.51 2.46.7 2.42c.41 1.64 1.11 3.17 1.67 4.75s1.4 3.06 2.1 4.59l-1.35-.45a29.74 29.74 0 0 0 9-7.63 22.87 22.87 0 0 0 4.77-10.74 23.68 23.68 0 0 0 .17-6 28.88 28.88 0 0 0-1.21-5.87 44.44 44.44 0 0 0-5.24-10.92.67.67 0 0 1 1.12-.73 45.85 45.85 0 0 1 5.59 11.28 31.62 31.62 0 0 1 1.36 6.17 26 26 0 0 1-.1 6.35 24.76 24.76 0 0 1-5 11.63 31.73 31.73 0 0 1-9.59 8.3 1 1 0 0 1-1.28-.42c-.69-1.59-1.46-3.16-2.08-4.78l-.87-2.45c-.14-.42-.31-.82-.43-1.24l-.34-1.26-.68-2.51-.48-2.57c-.08-.42-.18-.85-.24-1.28l-.15-1.29c-.08-.87-.23-1.73-.26-2.6a46.3 46.3 0 0 1 .43-10.39 37.24 37.24 0 0 1 2.9-10 .63.63 0 0 1 1.15.53z"/></svg>