<svg xmlns="http://www.w3.org/2000/svg" viewBox="0 0 460 360"><defs><style>.b,.d{fill:none}.k{fill:#96a3e2}.a{fill:#1c418c}.j{fill:#6b7fc6}.d{stroke:#1c418c}.b,.d,.m{stroke-linecap:round;stroke-linejoin:round}.m{stroke-width:3.8}.d{stroke-width:3.77px}.f{fill:#060b1c}.g{fill:#fff}.h{fill:#2b5599}.b{stroke:#9bd5f9;stroke-width:3.55px}.i{fill:#9bd5f9}</style><clipPath id="c"><path fill="none" d="M74.3 225s25 59.2 107.3 85.7c169.7 54.6 261.1-167.9 138.2-221C198.3 37.2 154 145 135.6 195.3c-10.4 28.6-48.3 9-48.3 9S112.9 158 70.9 138c0 0-28.6 35.2-5.3 59.4 0 0-32.2-9.4-50.7 30.3 0 0 26.4 26 59.4-2.7z"/></clipPath></defs><path d="M293.1 250s44.1 25.1 12 78c0 0-18.8-17-26.7-53.3" class="k"/><path d="M293.8 248.8a43 43 0 0 1 4.7 3.3 54.3 54.3 0 0 1 4.3 3.7 53.6 53.6 0 0 1 7.4 8.7 48.4 48.4 0 0 1 8.2 21.3 55.2 55.2 0 0 1 .1 11.4c0 1-.2 2-.3 2.9l-.2 1.4-.3 1.4-.6 2.8-.8 2.8a87.8 87.8 0 0 1-9.1 20.7 2.4 2.4 0 0 1-3.3.9 2.9 2.9 0 0 1-.4-.3 39.1 39.1 0 0 1-5.2-6l-2.3-3-2.2-3.3a115.2 115.2 0 0 1-7.4-13.4l-3-7-1.4-3.6-1.2-3.7-.6-1.8-.5-1.8-1-3.7-1.7-7.4a1.5 1.5 0 0 1 2.9-.8v.1l1.9 7.2 1 3.6.6 1.8.7 1.7 1.2 3.5 1.4 3.4 3.1 6.8a111.2 111.2 0 0 0 7.6 12.7 93.1 93.1 0 0 0 9.3 11.1l-3.7.6a83.9 83.9 0 0 0 9.2-19.5l.8-2.5.6-2.7.3-1.3.2-1.3.4-2.6a51 51 0 0 0 .1-10.6 45 45 0 0 0-7.1-20 50.5 50.5 0 0 0-6.8-8.3 48.3 48.3 0 0 0-8.3-6.7 1.3 1.3 0 0 1 1.4-2.3z" class="a"/><path d="M74.3 225s25 59.2 107.3 85.7c169.7 54.6 261.1-167.9 138.2-221C198.3 37.2 154 145 135.6 195.3c-10.4 28.6-48.3 9-48.3 9S112.9 158 70.9 138c0 0-28.6 35.2-5.3 59.4 0 0-32.2-9.4-50.7 30.3 0 0 26.4 26 59.4-2.7z" class="k"/><g clip-path="url(#c)"><path fill="#bbc6ef" d="M90.3 250s64 52.3 98 39 137-73.5 177.5-18.4-222 85-222 85l-81-40z"/><ellipse cx="181.9" cy="120.9" class="j" rx="41.7" ry="21.7" transform="rotate(-55.1 181.9 120.9)"/><path d="M189.3 172.3c4.4 4.3 13-.4 19-6.5s7.5-12.7 2.8-15.9c-3.6-2.4-10.5-.5-16.5 5.7s-8.4 13.7-5.3 16.8z" class="j"/><ellipse cx="171.5" cy="174" class="j" rx="7.4" ry="4.5" transform="rotate(-39.9 171.5 174)"/></g><path d="M74.3 225s25 59.2 107.3 85.7c169.7 54.6 261.1-167.9 138.2-221C198.3 37.2 154 145 135.6 195.3c-10.4 28.6-48.3 9-48.3 9S112.9 158 70.9 138c0 0-28.6 35.2-5.3 59.4 0 0-32.2-9.4-50.7 30.3 0 0 26.4 26 59.4-2.7z" class="d"/><path fill="#cae8ef" stroke="#4b8087" d="M334.5 127.1l48-109.3s-58.7 61.8-80.7 85.3c-11.2 11.6 7.8 25.8 7.8 25.8s17.3 12 24.9-1.8z" class="m"/><path fill="none" stroke="#82bbc4" stroke-linecap="round" stroke-linejoin="round" stroke-width="3.8" d="M337 120c-3.8-1.5-21-10.4-23.2-29m36.2.9A38.1 38.1 0 0 1 333.2 70m29.8-8a38.1 38.1 0 0 1-10.2-12.6"/><path fill="none" stroke="#4b8087" d="M334.5 127.1l48-109.3s-58.7 61.8-80.7 85.3" class="m"/><path d="M199.8 265.2s14.5 61.5-61 77c0 0-.5-31.6 26-69.6" class="k"/><path d="M201.2 264.8a53.2 53.2 0 0 1 1 7 64 64 0 0 1 .3 7.1 66.4 66.4 0 0 1-1.7 14 60.2 60.2 0 0 1-12.5 25.4 68.6 68.6 0 0 1-10.3 9.9l-2.9 2-1.5 1-1.5 1-3 1.8-3.1 1.7a109.5 109.5 0 0 1-26.6 9.1h-.1a2.6 2.6 0 0 1-3.1-2 3 3 0 0 1 0-.6 28.7 28.7 0 0 1 .3-5l.6-4.7c.2-1.6.6-3.2 1-4.7l1-4.7a144.7 144.7 0 0 1 6-18.2c1.3-2.9 2.5-5.8 4-8.6l2-4.3 2.4-4.2 1.1-2 1.2-2 2.5-4c1.7-2.7 3.6-5.3 5.4-7.9a1.4 1.4 0 0 1 2.4 1.6c-1.7 2.7-3.5 5.3-5 8l-2.4 4-1.2 2-1 2-2 4.1-2 4.3c-1.3 2.8-2.4 5.7-3.5 8.5a137 137 0 0 0-5.2 17.8l-1 4.5a67.7 67.7 0 0 0-1 9l-.2 2.3v2.2l-3.2-2.6a104.7 104.7 0 0 0 25.6-8.2l3-1.5 2.9-1.7 1.4-.8 1.4-1 2.8-1.8a64.3 64.3 0 0 0 9.8-9 56.3 56.3 0 0 0 12.2-23.5 64 64 0 0 0 1.8-13.3 66 66 0 0 0 0-6.7 52.4 52.4 0 0 0-.9-6.6 1.5 1.5 0 0 1 3-.7z" class="a"/><circle cx="251.7" cy="197.4" r="9.4" class="f"/><circle cx="249" cy="194.5" r="3.2" class="g"/><path d="M256.8 198.6a2 2 0 0 0-2.7.7 3.2 3.2 0 0 1-3 1.5 2 2 0 1 0-.5 4 6 6 0 0 0 1 0 7 7 0 0 0 6-3.4 2 2 0 0 0-.8-2.8z" class="h"/><circle cx="345.2" cy="195.5" r="9.4" class="f"/><circle cx="342.5" cy="192.5" r="3.2" class="g"/><path d="M350.3 196.7a2 2 0 0 0-2.7.7 3.2 3.2 0 0 1-3 1.5 2 2 0 1 0-.6 4 7.2 7.2 0 0 0 1 0 7 7 0 0 0 6-3.4 2 2 0 0 0-.7-2.8z" class="h"/><path d="M292.8 198.4s.8 9 8.6 9.1 8.4-9.2 8.4-9.2" class="d"/><circle cx="419.4" cy="71.6" r="13.9" class="b"/><circle cx="414.5" cy="68.6" r="3" class="i"/><circle cx="436.3" cy="116.3" r="8.8" class="b"/><circle cx="433.3" cy="114.3" r="1.9" class="i"/><circle cx="419.4" cy="148.9" r="4.5" class="b"/></svg>