<svg id="nellie0" xmlns="http://www.w3.org/2000/svg" xmlns:xlink="http://www.w3.org/1999/xlink" viewBox="0 0 460 360"><defs><style>.cls-1,.cls-10,.cls-14,.cls-7,.cls-9{fill:none;}.cls-2{fill:#96a3e2;}.cls-3{fill:#1c418c;}.cls-4{clip-path:url(#clip-path);}.cls-5{fill:#bbc6ef;}.cls-6{fill:#6b7fc6;}.cls-7{stroke:#1c418c;}.cls-10,.cls-14,.cls-7,.cls-8,.cls-9{stroke-linecap:round;stroke-linejoin:round;}.cls-10,.cls-7,.cls-8,.cls-9{stroke-width:3.77px;}.cls-8{fill:#cae8ef;}.cls-10,.cls-8{stroke:#4b8087;}.cls-9{stroke:#82bbc4;}.cls-11{fill:#060b1c;}.cls-12{fill:#fff;}.cls-13{fill:#2b5599;}.cls-14{stroke:#9bd5f9;stroke-width:3.55px;}.cls-15{fill:#9bd5f9;}</style><clipPath id="clip-path"><path class="cls-1" d="M74.26,225s25,59.17,107.34,85.67c169.74,54.64,261.14-167.86,138.16-221C198.26,37.17,154,145,135.6,195.34c-10.4,28.52-48.34,9-48.34,9S112.93,158,70.93,138c0,0-28.67,35.18-5.33,59.43,0,0-32.16-9.43-50.75,30.24C14.85,227.67,41.26,253.67,74.26,225Z"/></clipPath></defs><title>illustration_web_webhint_0</title><path class="cls-2" d="M293.13,250s44.11,25.11,12,78c0,0-18.81-16.93-26.68-53.27"/><path class="cls-3" d="M293.79,248.85a43.05,43.05,0,0,1,4.74,3.26,54.33,54.33,0,0,1,4.3,3.72,53.64,53.64,0,0,1,7.37,8.67,48.37,48.37,0,0,1,8.16,21.26,55.16,55.16,0,0,1,.16,11.49c-.1.95-.25,1.9-.37,2.85l-.19,1.42-.29,1.4-.58,2.81-.77,2.75a87.78,87.78,0,0,1-9.17,20.75,2.39,2.39,0,0,1-3.27.84,2.88,2.88,0,0,1-.38-.28l0,0h0c-1.06-1-1.89-1.94-2.76-2.94s-1.68-2-2.47-3-1.57-2.05-2.3-3.11-1.47-2.12-2.17-3.2a115.22,115.22,0,0,1-7.43-13.45c-1-2.35-2.11-4.66-3-7.06-.45-1.2-.93-2.38-1.36-3.58l-1.2-3.63-.6-1.82-.52-1.84-1-3.68c-.63-2.46-1.14-4.95-1.72-7.43a1.48,1.48,0,0,1,2.88-.72l0,.09c.64,2.41,1.21,4.83,1.9,7.21l1.11,3.56.56,1.78.64,1.75,1.27,3.49c.45,1.16.95,2.29,1.42,3.43.91,2.31,2.06,4.51,3.09,6.75a111.18,111.18,0,0,0,7.55,12.72c.69,1,1.4,2,2.15,3s1.5,1.94,2.28,2.88,1.57,1.86,2.39,2.75,1.69,1.79,2.48,2.5h0l-3.68.54a83.86,83.86,0,0,0,9.18-19.47l.78-2.56.61-2.61.3-1.3.21-1.32c.13-.88.3-1.76.41-2.64a51,51,0,0,0,.11-10.63,45,45,0,0,0-7.11-19.9,50.53,50.53,0,0,0-6.76-8.35,48.28,48.28,0,0,0-8.3-6.75l-.06,0a1.34,1.34,0,0,1,1.39-2.3Z"/><path class="cls-2" d="M74.26,225s25,59.17,107.34,85.67c169.74,54.64,261.14-167.86,138.16-221C198.26,37.17,154,145,135.6,195.34c-10.4,28.52-48.34,9-48.34,9S112.93,158,70.93,138c0,0-28.67,35.18-5.33,59.43,0,0-32.16-9.43-50.75,30.24C14.85,227.67,41.26,253.67,74.26,225Z"/><g class="cls-4"><path class="cls-5" d="M90.3,250s64,52.3,98,39,137-73.48,177.5-18.4-222,85.07-222,85.07l-81-40Z"/><ellipse class="cls-6" cx="181.9" cy="120.9" rx="41.69" ry="21.67" transform="translate(-21.27 201.05) rotate(-55.14)"/><path class="cls-6" d="M189.34,172.35c4.4,4.3,13-.4,19-6.59s7.45-12.63,2.79-15.81c-3.63-2.48-10.56-.51-16.58,5.68S186.21,169.3,189.34,172.35Z"/><ellipse class="cls-6" cx="171.46" cy="174.01" rx="7.42" ry="4.5" transform="translate(-71.71 150.66) rotate(-39.94)"/></g><path class="cls-7" d="M74.26,225s25,59.17,107.34,85.67c169.74,54.64,261.14-167.86,138.16-221C198.26,37.17,154,145,135.6,195.34c-10.4,28.52-48.34,9-48.34,9S112.93,158,70.93,138c0,0-28.67,35.18-5.33,59.43,0,0-32.16-9.43-50.75,30.24C14.85,227.67,41.26,253.67,74.26,225Z"/><path class="cls-8" d="M334.5,127.12C348.35,95.57,382.44,17.8,382.44,17.8s-58.67,61.82-80.66,85.34c-11.15,11.58,7.79,25.77,7.79,25.77S326.89,140.94,334.5,127.12Z"/><path class="cls-9" d="M337,120c-3.83-1.52-20.91-10.41-23.21-28.94"/><path class="cls-9" d="M350,91.87c-5.8-3.7-13.94-10.74-16.84-21.73"/><path class="cls-9" d="M363.09,62a38.15,38.15,0,0,1-10.26-12.64"/><path class="cls-10" d="M334.5,127.12C348.35,95.57,382.44,17.8,382.44,17.8s-58.67,61.82-80.66,85.34"/><path class="cls-2" d="M199.76,265.17s14.5,61.56-61,77c0,0-.5-31.53,26-69.53"/><path class="cls-3" d="M201.21,264.83a53.19,53.19,0,0,1,1,7.06,64,64,0,0,1,.24,7.06,66.4,66.4,0,0,1-1.66,14,60.16,60.16,0,0,1-12.47,25.37A68.56,68.56,0,0,1,178,328.18c-.95.72-1.93,1.38-2.9,2.07l-1.46,1-1.52.92-3,1.84L166,335.66a109.5,109.5,0,0,1-26.65,9.17h-.05a2.6,2.6,0,0,1-3.11-2,3,3,0,0,1-.06-.59c0-.93.06-1.71.13-2.54s.14-1.62.22-2.43c.18-1.61.39-3.21.66-4.79s.54-3.17.89-4.73.69-3.12,1.09-4.67a144.74,144.74,0,0,1,6-18.14c1.3-2.9,2.46-5.85,3.92-8.67.71-1.42,1.39-2.86,2.12-4.26l2.3-4.17,1.14-2.08,1.25-2,2.49-4c1.71-2.66,3.55-5.23,5.32-7.85a1.43,1.43,0,0,1,2.4,1.56l-.05.08c-1.65,2.63-3.38,5.22-5,7.88l-2.31,4-1.15,2-1,2.08-2.11,4.14c-.67,1.39-1.28,2.81-1.93,4.22-1.33,2.79-2.37,5.71-3.53,8.57a137,137,0,0,0-5.2,17.72c-.34,1.5-.65,3-.89,4.52s-.5,3-.7,4.53-.36,3-.48,4.54c-.05.75-.11,1.51-.13,2.25s-.05,1.53,0,2.16l-3.22-2.59h0a104.71,104.71,0,0,0,25.61-8.18l3-1.48,2.9-1.67,1.46-.83,1.38-.93c.92-.63,1.86-1.23,2.76-1.88a64.3,64.3,0,0,0,9.83-9,56.32,56.32,0,0,0,12.16-23.48,64,64,0,0,0,1.87-13.3,65.93,65.93,0,0,0-.08-6.74,52.36,52.36,0,0,0-.82-6.61v-.06a1.49,1.49,0,0,1,2.91-.62Z"/><circle class="cls-11" cx="251.74" cy="197.43" r="9.39"/><circle class="cls-12" cx="248.99" cy="194.46" r="3.16"/><path class="cls-13" d="M256.83,198.63a2,2,0,0,0-2.76.7,3.17,3.17,0,0,1-3,1.48,2,2,0,1,0-.5,4,6,6,0,0,0,1,.06,7.09,7.09,0,0,0,6-3.47A2,2,0,0,0,256.83,198.63Z"/><circle class="cls-11" cx="345.24" cy="195.47" r="9.39"/><circle class="cls-12" cx="342.49" cy="192.51" r="3.16"/><path class="cls-13" d="M350.33,196.68a2,2,0,0,0-2.76.69,3.16,3.16,0,0,1-3.05,1.49,2,2,0,1,0-.5,4,7.18,7.18,0,0,0,1,.05,7.08,7.08,0,0,0,6-3.46A2,2,0,0,0,350.33,196.68Z"/><path class="cls-7" d="M292.77,198.36s.87,9,8.62,9.18,8.42-9.27,8.42-9.27"/><circle class="cls-14" cx="419.35" cy="71.64" r="13.91"/><circle class="cls-15" cx="414.52" cy="68.61" r="3.03"/><circle class="cls-14" cx="436.33" cy="116.25" r="8.82"/><circle class="cls-15" cx="433.26" cy="114.32" r="1.92"/><circle class="cls-14" cx="419.35" cy="148.91" r="4.5"/></svg>