<svg id="sticker" xmlns="http://www.w3.org/2000/svg" viewBox="0 0 252 252"><defs><style>.cls-1{fill:#fff;}.cls-2{fill:#4700a3;}.cls-3{fill:#18186d;}.cls-4{fill:#4046dd;}</style></defs><title>webhint_sticker_1</title><path class="cls-1" d="M205.85,189H187a5.22,5.22,0,0,1-3.31-9.26,90.78,90.78,0,0,0,33.27-70c.18-49.88-40.33-90.89-90.22-91.28a90.93,90.93,0,0,0-58.4,161.23A5.22,5.22,0,0,1,65,189H46.15a11.1,11.1,0,0,0-11.09,11.09v22.33A11.09,11.09,0,0,0,46.15,233.5h159.7a11.09,11.09,0,0,0,11.09-11.08V200.09A11.1,11.1,0,0,0,205.85,189Z"/><path class="cls-2" d="M126,28.92A80.06,80.06,0,1,0,206.46,109,80,80,0,0,0,126,28.92ZM196.71,109a71.2,71.2,0,0,1-71.12,71.12c-39.41,0-70.7-31.7-70.7-71.12A71.18,71.18,0,0,1,126,37.86C165,38.26,196.71,70,196.71,109Z"/><path class="cls-2" d="M165,90.28l2.44-4.88,7.72-12.59L157.29,83.37c-.41.41-.81.41-1.22.81a5.67,5.67,0,0,0,0,7.73,3.51,3.51,0,0,0,2.44,1.21,5.87,5.87,0,0,0,5.28-1.21A5.73,5.73,0,0,0,165,90.28Z"/><path class="cls-2" d="M162.57,97.59a7.84,7.84,0,0,1-3.25.41,9,9,0,0,1-8.94-8.94,6.84,6.84,0,0,1,.41-2.84,23.84,23.84,0,0,0-14.63-3.66c-27.63,0-32.1,13-32.1,29.26a19.73,19.73,0,0,1-2,11.78,10.79,10.79,0,0,1-10.15,5.69c-1.63,0-7.73-.81-8.13-2.84h.81a11.9,11.9,0,0,0,11.79-12.19V111H90.65a12.71,12.71,0,0,0-10.16,5.29,13.13,13.13,0,0,0-10.57-4.88H64.23v2.44a12.66,12.66,0,0,0,12.6,12.6h2c0,4.06,5.69,20.31,47.55,20.31,16.25,0,40.63-2.84,40.63-33.72A29.63,29.63,0,0,0,162.57,97.59Z"/><polygon class="cls-3" points="70.87 218.23 66.73 207.06 64.6 207.06 60.38 218.18 56.33 207.06 53.93 207.06 59.12 221.03 61.54 221.03 65.63 210.44 69.66 221.03 72.08 221.03 77.3 207.06 75.03 207.06 70.87 218.23"/><path class="cls-3" d="M88.75,207.84a7,7,0,0,0-3.57-.91,7.08,7.08,0,0,0-3.6.91,6.5,6.5,0,0,0-2.5,2.54,7.8,7.8,0,0,0,0,7.35,6.58,6.58,0,0,0,2.65,2.55,8.31,8.31,0,0,0,3.93.9,8.1,8.1,0,0,0,3.14-.58,6,6,0,0,0,2.36-1.68l-1.39-1.63a5.2,5.2,0,0,1-4,1.68,5.27,5.27,0,0,1-3.44-1.12,4.3,4.3,0,0,1-1.62-3H92c0-.32,0-.57,0-.77a7.85,7.85,0,0,0-.88-3.74A6.44,6.44,0,0,0,88.75,207.84Zm-8,5.23a4.5,4.5,0,0,1,1.43-2.9,4.75,4.75,0,0,1,6.09,0,4.48,4.48,0,0,1,1.43,2.89Z"/><path class="cls-3" d="M106.62,207.83a7.29,7.29,0,0,0-3.63-.9,6.66,6.66,0,0,0-2.77.57,5.38,5.38,0,0,0-2.11,1.67v-7.69H95.58V221H98v-2.22a5.46,5.46,0,0,0,2.13,1.77,6.68,6.68,0,0,0,2.85.6,7.29,7.29,0,0,0,3.63-.89,6.49,6.49,0,0,0,2.52-2.52,7.55,7.55,0,0,0,.91-3.73,7.47,7.47,0,0,0-.91-3.71A6.44,6.44,0,0,0,106.62,207.83Zm.25,8.78a4.4,4.4,0,0,1-1.68,1.74,5,5,0,0,1-4.81,0,4.36,4.36,0,0,1-1.69-1.74,5.78,5.78,0,0,1,0-5.13,4.27,4.27,0,0,1,1.69-1.73,5,5,0,0,1,4.81,0,4.31,4.31,0,0,1,1.68,1.73,5.62,5.62,0,0,1,0,5.13Z"/><path class="cls-3" d="M121,206.93a7.26,7.26,0,0,0-2.86.55,5.26,5.26,0,0,0-2.07,1.56v-7.56h-2.53V221h2.53v-7.2a4.66,4.66,0,0,1,1.19-3.43,4.35,4.35,0,0,1,3.24-1.2,3.68,3.68,0,0,1,2.79,1,4.31,4.31,0,0,1,1,3.06V221h2.53v-8a6.09,6.09,0,0,0-1.56-4.52A5.78,5.78,0,0,0,121,206.93Z"/><rect class="cls-3" x="131.49" y="207.06" width="2.53" height="13.96"/><path class="cls-3" d="M132.76,201.08a1.67,1.67,0,0,0-1.23.49,1.61,1.61,0,0,0-.48,1.17,1.57,1.57,0,0,0,.48,1.16,1.7,1.7,0,0,0,1.23.48,1.67,1.67,0,0,0,1.22-.49,1.63,1.63,0,0,0,.49-1.2,1.51,1.51,0,0,0-.49-1.15A1.73,1.73,0,0,0,132.76,201.08Z"/><path class="cls-3" d="M146.3,206.93a7.14,7.14,0,0,0-3,.58,5,5,0,0,0-2.07,1.66v-2.11h-2.43v14h2.53v-7.2a4.66,4.66,0,0,1,1.19-3.43,4.35,4.35,0,0,1,3.24-1.2,3.68,3.68,0,0,1,2.79,1,4.31,4.31,0,0,1,1,3.06V221h2.53v-8a6.1,6.1,0,0,0-1.57-4.52A5.78,5.78,0,0,0,146.3,206.93Z"/><path class="cls-3" d="M161.87,219.05a2.1,2.1,0,0,1-1.62-.61,2.42,2.42,0,0,1-.56-1.73v-7.57h4v-2.08h-4V204h-2.53v3.05h-2.38v2.08h2.38v7.67a4.32,4.32,0,0,0,1.15,3.24,4.48,4.48,0,0,0,3.27,1.13,5.67,5.67,0,0,0,1.69-.25,3.65,3.65,0,0,0,1.37-.72l-.79-1.82A3.07,3.07,0,0,1,161.87,219.05Z"/><path class="cls-4" d="M168.56,217.57a1.75,1.75,0,0,0-1.26.52,1.72,1.72,0,0,0-.53,1.28,1.78,1.78,0,0,0,1.79,1.81,1.68,1.68,0,0,0,1.23-.51,1.77,1.77,0,0,0,.51-1.3,1.71,1.71,0,0,0-.5-1.29A1.65,1.65,0,0,0,168.56,217.57Z"/><path class="cls-4" d="M175.2,201.08a1.63,1.63,0,0,0-1.22.49,1.58,1.58,0,0,0-.49,1.17,1.54,1.54,0,0,0,.49,1.16,1.66,1.66,0,0,0,1.22.48,1.71,1.71,0,0,0,1.23-.49,1.67,1.67,0,0,0,.49-1.2,1.54,1.54,0,0,0-.49-1.15A1.77,1.77,0,0,0,175.2,201.08Z"/><rect class="cls-4" x="173.94" y="207.06" width="2.53" height="13.96"/><path class="cls-4" d="M193.58,210.37a6.67,6.67,0,0,0-2.58-2.53,8.12,8.12,0,0,0-7.47,0,6.66,6.66,0,0,0-2.6,2.53,7.73,7.73,0,0,0,0,7.35,6.68,6.68,0,0,0,2.6,2.54,8,8,0,0,0,7.47,0,6.7,6.7,0,0,0,2.58-2.54,7.73,7.73,0,0,0,0-7.35Zm-2.23,6.24a4.31,4.31,0,0,1-1.67,1.74,5,5,0,0,1-4.82,0,4.49,4.49,0,0,1-1.69-1.74,5.62,5.62,0,0,1,0-5.13,4.4,4.4,0,0,1,1.69-1.73,5.07,5.07,0,0,1,4.82,0,4.22,4.22,0,0,1,1.67,1.73,5.7,5.7,0,0,1,0,5.13Z"/></svg>