<svg xmlns="http://www.w3.org/2000/svg" viewBox="0 0 1500 500"><defs><style>.aa,.ah,.g,.j,.p,.s{fill:none}.u{fill:#2b89b2}.t{fill:#1773a5}.z{fill:#3a6d70}.s{stroke:#6f648c;stroke-width:2px}.ab,.g,.p,.s,.w{stroke-linecap:round;stroke-linejoin:round}.a{fill:#0b5668}.b{fill:#117796}.c{fill:#2193ad}.r{fill:#d8b491}.d{fill:#363c49}.o{fill:#4d5768}.v{fill:#97a1d0}.q{fill:#204389}.y{fill:#6d7fbd}.p{stroke:#204389;stroke-width:2.79px}.e{fill:#0e121d}.n{fill:#fff}.f{fill:#2b5599}.g{stroke:#9cd2f2;stroke-width:2.62px}.h{fill:#9cd2f2}.w{fill:#c15a3a;stroke:#8e2d1c;stroke-width:2.7px}.k{fill:#230906}.m{fill:#f4e4e4}.l{fill:#1a3b6b}.ag,.j{stroke-miterlimit:10}.x{fill:#7f2a57}.j{stroke:#3d506b;stroke-width:2.3px}.i{fill:#4700a0}.ac{stop-color:#25a9e0}.ad{stroke-width:2.8}.ae{stroke:#4c8086}.af{stroke-width:2.7}</style><clipPath id="c1"><path d="M0 0h1499v500H0z" class="aa"/></clipPath><clipPath id="c2"><ellipse cx="252.7" cy="298.7" class="aa" rx="71.7" ry="81.8" transform="rotate(-74 252.7 298.7)"/></clipPath><clipPath id="c3"><path d="M1320.7 506.6s-39.9-31.3-14.7-55.6c19.8-19 38.5 11.5 56.5 3.5s17.5-31-42-33.8-49.3-72.7-10-64.7c32.3 6.6 61.3 51.3 71.5 31 9.4-18.6-55-86.7-42.5-122 11.8-32.7 80.2-45.5 78.7 32.5s8.3 122.5 30.8 104-9-92.5 51-92.5l40 2.5 18.5 223.5-226-10z" class="aa"/></clipPath><clipPath id="c4"><path d="M-9 378s19.5-42 50-19.5c0 0 12.8 9.5 10 22s26.3 17.3 26.8 1.3-21-57.8 26.7-53 38 64.4 0 73-61 22.2-51 38.2 30.8 12 39 6.8 28.8-17.3 42.3-3c0 0 9-29 37.4-24.8 0 0-21.8-48.8 4-55.3 29.3-7.2 34.7 10.7 25.8 30.6-7.5 16.7.5 26.2 11.5 15.4 11.7-11.4 42-38.4 56.5-12 13 23.9-3.5 38.3-71.5 55 0 0-17.5 1.3-16 11s14.3 5 14.3 5 33.7-12 20.4 15.8-41 32.5-41 32.5l-199.4-4.8z" class="aa"/></clipPath><clipPath id="c5"><path d="M1137.1 239.2s-14.3 45.3-73 70.5c-121 52-203.8-105.3-117-153 85.7-47 125.8 29.2 142.8 65 9.6 20.2 36.2 3.2 36.2 3.2s-22.1-32.3 7.4-49.9c0 0 23.5 23.9 8 43.3 0 0 23-9.1 39.4 18.7.1 0-17.5 21-43.8 2.2z" class="aa"/></clipPath><linearGradient id="l1" x1="750" x2="750" y1="476.6" y2="198.8" gradientUnits="userSpaceOnUse"><stop class="ac" offset="0" stop-opacity=".4"/><stop class="ac" offset="1" stop-opacity="0"/></linearGradient><clipPath id="c6"><path d="M-7.5-690.1H1509v500H-7.5z" class="aa"/></clipPath></defs><g clip-path="url(#c1)"><path fill="#49a9df" d="M0 0h1499v500H0z"/><path fill="#2a92da" d="M0 89s118.2-36.8 344.9 36.7c201.2 65.2 388.3 26.2 388.3 26.2s-178.1 80.3-392 16.4C108 98.6 0 207.3 0 207.3zm1579.5-5.2s-154.8-59.5-322.6 57.6-380.8 144-494.5 119.8c0 0 253.2 89.6 512.6-64.8s429 79.2 429 79.2zM597 68.7s171.6-85.1 406.7-7C1292 157.3 1581-81 1581-81S914.1-191 597 68.7z"/><path fill="#2b89b2" d="M1526.5 227.7a34.5 34.5 0 0 0-68.2-10.3 44.9 44.9 0 0 0-55 22.3 68.8 68.8 0 0 0-100.5 31.3 45.3 45.3 0 0 0-80.1 29c0 1.4 0 2.8.2 4.2a22.5 22.5 0 0 0-18 17 30.8 30.8 0 0 0-8-1 31.2 31.2 0 1 0 31.2 31.2l-.1-2.6a22.5 22.5 0 0 0 17.2-9.6 45.3 45.3 0 0 0 59-11.8 68.8 68.8 0 0 0 130.5-23.6 45 45 0 0 0 35.7-8.2 51.8 51.8 0 0 0 45 24.6c28 0 51-21 51-46.8a48 48 0 0 0-39.9-45.7z" opacity=".7"/><path d="M1299.5-6.3s-38.4 46-11 106.8-8.6 70-22.3 101c-11.5 26.2-8.6 72.2 33.3 127l44.7-20.5s-67.7-50.7-40.7-117.5 15.3-61.3-3.5-100c-21-43.2 18.5-96.8 18.5-96.8z" class="t"/><path d="M1361-6.3s-21.4 32-2.8 68.9-25.9 51.5-35.2 86.3 42.6 29.4 42.3 72.8-21 98.4-21 98.4l41.4-6s45.4-36.3 13.9-97.3c-27-52.1-58-55.1-23-106.5 38.4-56.1-10-54.5-12-71-2.6-21.3 17.7-45.6 17.7-45.6z" class="t"/><path fill="#225443" d="M1307.5-12.5s32.7 41-1.6 73.2-40.4 55.3-10.9 78.3 32.5 41 12 76-44 49.5 3 99.5c23.3 24.8 24.5 13.5 24.5 13.5l2-21s-59-25.6-30.2-76 59.7-77 16.7-114.5 23.5-38 13-119zm79.5 2.6s49.6 35.5 29.1 84.2-29.1 55.1-6.4 103.6-31.4 117.8-31.4 117.8h29.4s51.9-35.2 22-115.2c-6.8-18.5-21.7-63.8-6-98.8 25.8-57.1-2-100.7-2-100.7z"/><path d="M182.7 286s24.3-42.1 13.1-73c-10.6-29.2 11-57 11-57s-12.8 27.4.3 57.8c15.7 36.2-4.4 78.2-4.4 78.2zM129-10.5s14 44.1 2.5 86-26.5 74.5-10 127-3.5 94.8-3.5 94.8h39.5S152.5 255 129 196s40.5-93.7 18-203.3z" class="u"/><path d="M86.2 289.3s-15.7-68.3 3.4-107 22-91.6 6.2-129.8 2-79.2 2-79.2l31.2 4S102.3 19 106 48.7s22.7 68.7-8.1 135C76.3 230 96.4 267 110.5 285.2a93.4 93.4 0 0 0 11 12.1z" class="u"/><path d="M69.1 291.7s28.4-66.2 4.3-107-23.8-94 2.2-130.1 3.8-79.2 3.8-79.2l-45.2.1s34.9 44.8 27 74-38.6 65.6.2 135.5-43.8 110.3-43.8 110.3zM180 0s-32.5 29-16 77.5 11.6 63.1 5 79.2c-13.3 32.3 15.2 75.6 5.7 97.2s-17.2 43.4-17.2 43.4l30 7.7s30.4-11 12.2-76.3c-7-25-33.6-42.9-23-71.4s24-47-3-77.5C148.7 51.6 197 0 197 0z" class="u"/><path d="M56.3-2.3S54.3 26 41.5 43s21.8 35.3 16.8 62.3-33 45.3-12 71.3 31.5 54 6 106.7l29 6s29-50-21.3-117c0 0-19-18.6 5.7-61.6S41 70 49 49.7s22-43 19.3-57zm97.5-8.2s2.3 34.4 9 55.9c9.7 30.6-33.8 51-40.5 83.6s28.5 59.5 33.5 78.3 1.7 39.2-19 73l29.7 11.7s33.5-26.3 6.8-87c-20.3-46-40-52.3-23.9-82.3 20.1-37.6 34.4-45 22.4-76-14-35.9 4.7-53 4.7-53z" class="t"/><path d="M140.5 0s-35.2 13.7-32.8 49 53.9 34.2 18 91.7C111 164.2 81 200.7 110 252.5c5.2 9.3 8 15.2 7.3 41.8l29.4 3s-19.2-34.2-30.7-50.6-1.5-60.7 25-94 3.4-62.4-9.5-77.1C114 55.5 117 27 164 0z" class="z"/><path d="M72.7 0S98 20.7 76.3 53s-29.6 44.3-15.6 60.7 39.6 26.3.3 72.6-8.3 61.4-.7 73.7 7.4 20.7-7.3 37.3l32.1-4s8.2-18-14.1-39.3-19-43.7.7-64 56.3-57.3 8-78.7c0 0-27.3-8.5-9-27.6 19.2-20.2 41.6-34 17-83.7z" class="z"/><ellipse cx="252.7" cy="298.7" fill="#53476b" rx="71.7" ry="81.8" transform="rotate(-74 252.7 298.7)"/><g clip-path="url(#c2)" opacity=".7"><path d="M291.5 233.8s-23.5 1.9-15.8 13.2m4.1-2.8s12.5 9.3-1 13.5 0 19.8 0 19.8m38.9-23.8s-24.4-11.9-23.9 7.1 19 2 11-3.3-6 3.3-6 3.3m-1.5 27.9s25.4-11.8 18.4 5.5-4.5 31-4.5 31" class="s"/><path d="M305.8 292s-14.5 18-18.6 3.2 18.6-17.7 18.6-17.7 18.2.4 13.7-7.9M297.3 238s-8.8 4.2-7.5 9 12.9-3.8 12.9-3.8M264.8 224s9 8.8-7.1 12-17-14-17-14" class="s"/><path d="M251 224a8.1 8.1 0 0 0 8 5.2c6.3 0 2-6 2-6m24.1 4.6s-24.5 8.2-22.6 17.9-15 25.5-28.2 11.1 3.5-19.6 11.2-14.8" class="s"/><path d="M237.8 247s6.4 7.6 12 1.5-.5-9.5-.5-9.5m19.7 14s-13.6 8.8-6.5 20-9 22.2-26.8 7" class="s"/><path d="M249.3 278.5s-22.1-19.5-26-1.8 4 26.1 4 26.1m-7.3-78s14.5 13.5-2 18.4-30 13.1-19.3 24" class="s"/><path d="M198.7 230.5S207 244 213 239s3.4-11.2 3.4-11.2M176.7 258s13.7.3 12.4 14.7a67 67 0 0 0 2.9 26m-22-29.4s13.5-4.5 10.8 11.9-10 13-10 13m39-27s-8.4-4.9.6-10.2 11.6 2.2 8.3 5.6-7 6-8.9 4.6zm-7.1 5.5s6.1 7.8 1.1 19.3m7.4.4s-3.6-12.6 2-12.3 5.5 17.2 5.5 17.2m46.1 6.5s-1.5-18.5 6.2-17.8 9.7 25.8 9.7 25.8m53.1-38s-11.5 1-8.6 11.5 10.3 14.4 15.1 13.6-1.5 10.4-1.5 10.4m-1.3 5.5s-8.9-14-12.8-8-.9 19.7-.9 19.7" class="s"/></g><path d="M340.5 319.8s8-49 7.4-63.4c-.5-11.3 19-4.2 19.6 2.1.6 6.6-7.6 56.6-15.3 61.3s-11.7 0-11.7 0z" class="a"/><path fill="#0b6c82" d="M349.2 328.4s29.1-102.7 41.8-101.7 14.3 17.6 9 25.3-48.3 76.3-49.3 89.8-1.5-13.4-1.5-13.4zm-.5 3.4s9.9-108-4.3-113.3-22.9 9.2-20.2 18.8 21.8 93.2 17.4 106 7.1-11.6 7.1-11.6z"/><path d="M352.7 334.8s43.7-69.3 54.4-68.8 11.9 9 10.2 14-41 33.7-53 61.8l-13-7z" class="b"/><path d="M363.6 336.6s39.6-42.6 49-37.1 5.9 19.1 1.5 20.1-35.9 15.5-41 26.5-9.5-9.5-9.5-9.5z" class="c"/><path d="M340.8 334.8s8-39.5 2.3-50.3-23.6-.6-20.4 5.3c5.2 9.8 10.9 35.4 7.6 42z" class="b"/><path d="M342.3 334.8s6.3-47.1 22-40.1c14.6 6.4-7.3 39.6-13.6 47.1s-8.4-7-8.4-7z" class="c"/><ellipse cx="334" cy="225.7" class="a" rx="6.6" ry="2.7" transform="rotate(-30 334 225.6)"/><ellipse cx="330.1" cy="285" class="a" rx="4.3" ry="1.9" transform="rotate(-30 330.1 285)"/><ellipse cx="395.9" cy="233.3" class="a" rx="1.7" ry="4.7" transform="rotate(-48.6 396 233.4)"/><path d="M414.2 276.6c-.8.5-2.6-.7-4-2.7s-1.7-4-1-4.6 3.3.3 4.6 2.4 1.2 4.3.4 4.9z" class="a"/><path fill="#4e7f7c" d="M-41 299.4S355 186 539.5 508H-23.3z"/><path fill="#f4eac1" d="M1500 265s-157 15.3-307.4 87.2c-117.6 56.2-257.7-32.1-436.3-10.5A1068.2 1068.2 0 0 0 306.1 500H1500z"/><ellipse cx="500.7" cy="432.8" class="r" rx="9.2" ry="3.5" transform="rotate(-12.8 500.6 432.8)"/><ellipse cx="520.2" cy="423.7" class="r" rx="6.3" ry="2.4" transform="rotate(-12.8 520 423.6)"/><ellipse cx="517.9" cy="434.3" class="r" rx="4.6" ry="1.8" transform="rotate(-12.8 517.8 434.2)"/><ellipse cx="1233.2" cy="357.5" class="r" rx="6.4" ry="2.5" transform="rotate(-22.7 1233.4 357.5)"/><ellipse cx="1218.3" cy="360.2" class="r" rx="4.4" ry="1.7" transform="rotate(-22.7 1218.6 360.2)"/><ellipse cx="1224" cy="365.3" class="r" rx="3.2" ry="1.2" transform="rotate(-22.7 1224.2 365.3)"/><path d="M1320.7 506.6s-39.9-31.3-14.7-55.6c19.8-19 38.5 11.5 56.5 3.5s17.5-31-42-33.8-49.3-72.7-10-64.7c32.3 6.6 61.3 51.3 71.5 31 9.4-18.6-55-86.7-42.5-122 11.8-32.7 80.2-45.5 78.7 32.5s8.3 122.5 30.8 104-9-92.5 51-92.5l40 2.5 18.5 223.5-226-10z" class="d"/><g clip-path="url(#c3)"><ellipse cx="1410.5" cy="294.8" class="o" rx="20.5" ry="27.8" transform="rotate(-11 1411 294.8)"/><ellipse cx="1366.8" cy="302.5" class="o" rx="6.2" ry="9.2" transform="rotate(-20.3 1367.2 302.5)"/><ellipse cx="1379.3" cy="323.8" class="o" rx="4.7" ry="6.2"/><ellipse cx="1316.6" cy="413.9" class="o" rx="15.3" ry="23.3" transform="rotate(-73.4 1316.6 413.9)"/><ellipse cx="1346.6" cy="394.1" class="o" rx="5.2" ry="7.6" transform="rotate(-60 1346.6 394)"/></g><path d="M-9 378s19.5-42 50-19.5c0 0 12.8 9.5 10 22s26.3 17.3 26.8 1.3-21-57.8 26.7-53 38 64.4 0 73-61 22.2-51 38.2 30.8 12 39 6.8 28.8-17.3 42.3-3c0 0 9-29 37.4-24.8 0 0-21.8-48.8 4-55.3 29.3-7.2 34.7 10.7 25.8 30.6-7.5 16.7.5 26.2 11.5 15.4 11.7-11.4 42-38.4 56.5-12 13 23.9-3.5 38.3-71.5 55 0 0-17.5 1.3-16 11s14.3 5 14.3 5 33.7-12 20.4 15.8-41 32.5-41 32.5l-199.4-4.8z" class="d"/><g clip-path="url(#c4)"><ellipse cx="126.3" cy="381.9" class="o" rx="19.8" ry="11.1" transform="rotate(-60 126.3 381.9)"/><ellipse cx="153" cy="429.4" class="o" rx="13.3" ry="9.2" transform="rotate(-30 153 429.4)"/><ellipse cx="114.6" cy="360" class="o" rx="5.9" ry="4.5" transform="rotate(-76 114.6 360)"/><ellipse cx="245.6" cy="399.8" class="o" rx="5.9" ry="4.5" transform="rotate(-42.4 245.6 399.7)"/><ellipse cx="240.3" cy="411.8" class="o" rx="3" ry="2.3" transform="rotate(-42.4 240.2 411.8)"/></g><path d="M965.5 270.3s-30.7 21.6-3.3 58.2c0 0 12.6-13.8 15.9-41" class="v"/><path d="M966.1 271.1a36 36 0 0 0-5.6 5.6 37.1 37.1 0 0 0-4.4 6.6 33.2 33.2 0 0 0-3.9 15.1 38 38 0 0 0 .9 7.9l.5 1.9.2 1 .3.9.6 1.8.8 1.9a61.9 61.9 0 0 0 8.1 13.6l-2.7-.1a41.8 41.8 0 0 0 3.2-4.2l1.5-2.3 1.3-2.3a81.8 81.8 0 0 0 4.7-9.9c.6-1.7 1.3-3.4 1.8-5.2l.8-2.6.7-2.7.4-1.3.2-1.3.6-2.7.9-5.5a1.1 1.1 0 0 1 2.2.3l-.8 5.6-.5 2.8-.2 1.4-.3 1.3-.7 2.8-.7 2.7-1.7 5.4a84 84 0 0 1-4.5 10.4l-1.4 2.5-1.5 2.5a41.8 41.8 0 0 1-3.4 4.7 1.8 1.8 0 0 1-2.5.1 3 3 0 0 1-.2-.3 65.3 65.3 0 0 1-8.2-14.5l-.8-2-.6-2-.3-1-.3-1-.4-2a40.6 40.6 0 0 1-.7-8.5 35.7 35.7 0 0 1 4.5-16.2 39.4 39.4 0 0 1 4.8-7 37.5 37.5 0 0 1 6.2-5.7 1 1 0 0 1 1.2 1.6z" class="q"/><path d="M1137.1 239.2s-14.3 45.3-73 70.5c-121 52-203.8-105.3-117-153 85.7-47 125.8 29.2 142.8 65 9.6 20.2 36.2 3.2 36.2 3.2s-22.1-32.3 7.4-49.9c0 0 23.5 23.9 8 43.3 0 0 23-9.1 39.4 18.7.1 0-17.5 21-43.8 2.2z" class="v"/><g clip-path="url(#c5)"><path fill="#bcc4e3" d="M1127 258.7s-43.4 43-69.3 35.5-105.9-44.5-131.8-1.2 169.2 47.1 169.2 47.1l56.8-35z"/><ellipse cx="1050.7" cy="170.1" class="y" rx="16" ry="30.8" transform="rotate(-40.3 1050.7 170.1)"/><path d="M1048.8 208.5c-3 3.5-9.6.6-14.5-3.5s-6.3-8.8-3.1-11.5c2.5-2 7.7-1 12.6 3s7 9.5 5 12z" class="y"/><ellipse cx="1062.1" cy="208.5" class="y" rx="3.3" ry="5.5" transform="rotate(-55.2 1067.7 208.4)"/></g><path d="M1137.1 239.2s-14.3 45.3-73 70.5c-121 52-203.8-105.3-117-153 85.7-47 125.8 29.2 142.8 65 9.6 20.2 36.2 3.2 36.2 3.2s-22.1-32.3 7.4-49.9c0 0 23.5 23.9 8 43.3 0 0 23-9.1 39.4 18.7.1 0-17.5 21-43.8 2.2z" class="p"/><path fill="#c9e8ef" d="M938.9 185.3l-42.9-77s47.5 41.3 65.3 57.1c9 7.7-4 19.5-4 19.5s-11.8 10.1-18.4.4z" class="ae ab ad"/><path stroke="#81bac3" d="M936.5 180.3c2.7-1.4 14.7-9.1 15.1-23m-26.6 3.2c4-3.2 9.5-8.9 11-17.2m-22.7-3.9a28.2 28.2 0 0 0 6.7-10" class="ah ab ad"/><path d="M938.9 185.3l-42.9-77s47.5 41.3 65.3 57.1" class="ah ae ab ad"/><path d="M1040.8 273.7s-14 44.6 40.8 60.1c0 0 2-23.2-15.4-52.6" class="v"/><path d="M1041.9 274a44.8 44.8 0 0 0-1.4 9.8 46.8 46.8 0 0 0 .6 10 41.4 41.4 0 0 0 7.7 18 47 47 0 0 0 6.8 7l1.9 1.6 1 .8 1 .7 2 1.4 2.1 1.2a77.7 77.7 0 0 0 18.5 7.4l-2.5 1.8a50.5 50.5 0 0 0 0-6.7l-.3-3.3-.4-3.4a102.2 102.2 0 0 0-2.9-13.4l-2.1-6.5-1.2-3.2-1.3-3.2-.7-1.6-.7-1.5-1.5-3.1-3.2-6.1a1 1 0 0 1 1.8-1l3.5 6 1.6 3.1.9 1.6.7 1.6 1.4 3.1 1.4 3.3 2.4 6.6a102.9 102.9 0 0 1 3.4 13.7l.6 3.5.4 3.5a55.8 55.8 0 0 1 .2 7.3 1.8 1.8 0 0 1-1.9 1.8 1.7 1.7 0 0 1-.5 0h-.2a81.2 81.2 0 0 1-19-8.3l-2.3-1.3-2.2-1.6-1-.7-1-.8-2-1.7a50.4 50.4 0 0 1-7.1-7.8 44.5 44.5 0 0 1-7.8-19.4 49.3 49.3 0 0 1-.5-10.4 46 46 0 0 1 1.7-10.4 1.1 1.1 0 0 1 2.2.6z" class="q"/><circle cx="1004.6" cy="231.3" r="6.9" class="e"/><circle cx="1006.5" cy="228.9" r="2.3" class="n"/><path d="M1001 232.5a1.5 1.5 0 0 1 2 .3 2.4 2.4 0 0 0 2.4 1 1.5 1.5 0 1 1 .7 2.8 6 6 0 0 1-.8.1 5.2 5.2 0 0 1-4.6-2.1 1.5 1.5 0 0 1 .3-2z" class="f"/><circle cx="935.7" cy="236.3" r="6.9" class="e"/><circle cx="937.5" cy="234" r="2.3" class="n"/><path d="M932 237.6a1.5 1.5 0 0 1 2.2.3 2.3 2.3 0 0 0 2.3.9 1.5 1.5 0 1 1 .7 2.9 3.9 3.9 0 0 1-.8 0 5.2 5.2 0 0 1-4.6-2 1.5 1.5 0 0 1 .3-2.1z" class="f"/><path d="M974.5 234.8s0 6.7-5.7 7.4-6.8-6.3-6.8-6.3" class="p"/><circle cx="854.6" cy="237.3" r="10.3" class="g"/><circle cx="857.9" cy="234.7" r="2.2" class="h"/><circle cx="802.3" cy="118.5" r="10.3" class="g"/><circle cx="805.6" cy="116" r="2.2" class="h"/><circle cx="450.5" cy="260.7" r="10.3" class="g"/><circle cx="453.9" cy="258.1" r="2.2" class="h"/><circle cx="839.7" cy="163.9" r="6.5" class="g"/><circle cx="841.8" cy="162.3" r="1.4" class="h"/><circle cx="813.3" cy="211.5" r="3.3" class="g"/><circle cx="828" cy="75.5" r="6.7" class="g"/><circle cx="843.2" cy="280.4" r="3.3" class="g"/><circle cx="448.3" cy="208.2" r="3.3" class="g"/><circle cx="485.4" cy="177" r="3.3" class="g"/><circle cx="821.3" cy="40.7" r="3.3" class="h"/><circle cx="804.5" cy="56.2" r="5.5" class="h"/><circle cx="846.6" cy="126" r="5.5" class="h"/><circle cx="476.6" cy="231.6" r="5.5" class="h"/><circle cx="1215.7" cy="250" r="10.3" class="g"/><circle cx="1219.1" cy="247.4" r="2.2" class="h"/><circle cx="1245.2" cy="283.7" r="3.3" class="g"/><circle cx="1219.1" cy="189.5" r="3.3" class="g"/><circle cx="1236.3" cy="217" r="5.5" class="h"/><ellipse cx="583" cy="370.3" class="w" rx="23.4" ry="13.2" transform="rotate(-16.5 583 370.3)"/><path d="M612.5 353.2s-19.5-.7-11.5-26.9l15 18.6z" class="w"/><path d="M614.7 355.1c23.1-3.2 20.5-34-6.4-37 0 0 6.8 11.3 2.7 20.4s-2.6 17.5 3.7 16.6zM566 382.8a19.3 19.3 0 0 0-2.1 8.3m.3-37.8s4.6 3.7 6 8.3m19.6-16.2s-2 5.6-.5 10.2M573.5 385a19.1 19.1 0 0 0 .8 8.6m30.6-22.4a19.2 19.2 0 0 1 6.3 5.8m-11.3.3a19.1 19.1 0 0 1 4 7.6" class="w"/><circle cx="564" cy="353" r="4" class="k"/><circle cx="562.7" cy="352.3" r="1.1" class="m"/><path d="M566.3 352.7a.8.8 0 0 0-1 .6 1.3 1.3 0 0 1-1 1 .8.8 0 1 0 .2 1.5 1.9 1.9 0 0 0 .4 0 2.9 2.9 0 0 0 2-2 .8.8 0 0 0-.6-1.1z" class="l"/><circle cx="589.4" cy="345.8" r="4" class="k"/><circle cx="588.1" cy="345.1" r="1.1" class="m"/><path d="M591.7 345.5a.8.8 0 0 0-1 .6 1.3 1.3 0 0 1-1 1 .8.8 0 0 0 .2 1.5 2 2 0 0 0 .4 0 2.8 2.8 0 0 0 2-2 .8.8 0 0 0-.6-1.1z" class="l"/><path stroke="#8e2d1c" d="M546.8 364.7s-2 15.7 13 10.2m45.9-9.7s13.4 2.5 10-8.8" class="ah ab af"/><path d="M547.4 365s14.8-12.7-7.6-28.3l-.3 24z" class="w"/><path d="M546.9 367.8c-20.1 11.8-37.2-14-18-33 0 0 1.7 13 10.5 17.6s13 12.2 7.5 15.4z" class="w"/><path fill="#e59470" d="M1219.4 413.7c-10-4.7-37-16.7-42.2-2.3 0 0-9.4 4.9-5 10.5 0 0-10 10.3 7.5 13.6 0 0 3.1 11.6 17.4 7.7 0 0 21.5 15.5 26.3-23.9.3-2.1-1.3-4.3-4-5.6z"/><path stroke="#f4cd9d" d="M1197.2 443.2c2-.2 3.4-13.2 26-22.5m-43.4 14.8c1.6-.9 12.1-17.7 42.9-19.2m-50.5 5.7c-.7-2 20-15 47.2-8.3" class="ah af ag"/><path stroke="#d43e2b" d="M1219.4 413.7c-11.2-6.9-40.3-14.2-42.2-2.3 0 0-9.4 4.9-5 10.5 0 0-10 10.3 7.5 13.6 0 0 3.1 11.6 17.4 7.7 0 0 21.5 15.5 26.3-23.9.3-2.1-1.4-4-4-5.6z" class="ah ab af"/><path fill="#bf3c78" stroke="#7f2a57" d="M991 403.7s34.8-6 41.3-2.7-19.6 18.7-19.6 18.7 25.3 11.3 22.8 16.8-38.7-4.2-38.7-4.2-14.8 22.2-25 22.2c-8.6 0 .5-28.2.5-28.2s-34.5 7.8-37.3.9c-3.3-8.2 34.8-16 34.8-16s-14.5-15.4-11-18.5c5.2-4.7 32.2 11 32.2 11z" class="ab af"/><g opacity=".6"><ellipse cx="994.2" cy="410.3" class="x" rx="4.1" ry="1.9"/><ellipse cx="1001.7" cy="414.5" class="x" rx="2.1" ry="1"/></g><path fill="#7e8daa" stroke="#3d506b" stroke-width="2.3" d="M837.7 352.8l3 6.8 68.5-26.6c4-1.5 5.5-3.9 4.7-8.2l-119.9 15-78.5 22.3h85.8z" class="ag"/><path d="M836.5 352.5l77.4-27.7" class="j"/><path fill="#3d506b" d="M815.2 343.5l58.2-7.8-55.4 19.1-2.8-11.3z" opacity=".3"/><path fill="#a3b0ce" d="M659.3 269.3a5.6 5.6 0 0 0-4.3 8.1l49.5 97.3 128.3-13.2-45.4-100a11.6 11.6 0 0 0-12-6.8l-3.9.5z"/><path fill="#697b9b" d="M784.9 253.5l-9.5 1.2a11.6 11.6 0 0 1 12 6.7l45.4 100.1 8-2-45.4-100a10.2 10.2 0 0 0-10.5-6z"/><path d="M771.5 255.2l-112.2 14a5.6 5.6 0 0 0-4.3 8.2l49.5 97.3 128.3-13.2 8-2-45.4-100a10.2 10.2 0 0 0-10.5-6l-9.5 1.2" class="j"/><path d="M833.1 362.1l-.3-.6-45.4-100a11.6 11.6 0 0 0-12-6.8l-3.9.5" class="j"/><ellipse cx="739.3" cy="313.3" class="n" rx="23.1" ry="27.8" transform="rotate(-54.8 739.2 313.3)"/><path d="M732.2 291.3c-12.6 1.6-19.5 12.7-15.6 24.9s17.1 20.7 29.7 19.1 19.5-12.6 15.6-24.8-17.2-20.7-29.7-19.2zm27 19.5c3.4 10.8-2.7 20.7-13.8 22.1s-22.7-6.2-26.1-17 2.6-20.7 13.7-22.1 22.7 6.3 26.2 17z" class="i"/><path d="M748.6 306.8l.2-1.4 1.1-3.7-4.1 3.5-.3.3a1.7 1.7 0 0 0 .7 2 1.3 1.3 0 0 0 .8.3 1.5 1.5 0 0 0 1.4-.5 1.1 1.1 0 0 0 .2-.5z" class="i"/><path d="M748.5 309a2 2 0 0 1-.8.1 3.2 3.2 0 0 1-3.3-2.1 2 2 0 0 1-.2-.8 7.7 7.7 0 0 0-4.4-.5c-7.8 1-8 4.7-6.5 9.2a5.4 5.4 0 0 1 .5 3.3 2.4 2.4 0 0 1-2.4 2c-.4 0-2.2 0-2.5-.6h.2a2.7 2.7 0 0 0 2.3-3.7l-.1-.3-.2-.6-1.6.2a2.9 2.9 0 0 0-2.4 1.8 4.5 4.5 0 0 0-3.4-1l-1.6.2.2.6a4.5 4.5 0 0 0 4.6 3h.6c.4 1 3.4 5.4 15.2 3.9 4.6-.6 11.2-2.2 8.5-10.7a10 10 0 0 0-2.7-4z" class="i"/><path fill="#f4eac1" stroke="#ceac7c" stroke-width="3.8" d="M652.7 391.8s92.7-65.5 245.6-26.4" class="ab"/><path fill="url(#l1)" d="M0 0h1500v500H0z"/></g></svg>