<svg xmlns="http://www.w3.org/2000/svg" xmlns:xlink="http://www.w3.org/1999/xlink" viewBox="0 0 252 252"><defs><style>.cls-1,.cls-11,.cls-12,.cls-27,.cls-29,.cls-30,.cls-32,.cls-33,.cls-35,.cls-52{fill:none;}.cls-2{isolation:isolate;}.cls-3{fill:#fff;}.cls-4{fill:url(#linear-gradient);}.cls-5{clip-path:url(#clip-path);}.cls-6{fill:url(#radial-gradient);}.cls-7{fill:#fff8c2;}.cls-8{fill:#e6834e;}.cls-9{fill:#e26e41;}.cls-10{fill:#ce5530;}.cls-11,.cls-12{stroke:#b2243b;stroke-miterlimit:10;}.cls-11{stroke-width:1.15px;}.cls-12{stroke-width:0.58px;}.cls-13,.cls-19{fill:#b2243b;}.cls-14{fill:url(#radial-gradient-2);}.cls-15{fill:#f0b270;}.cls-16{fill:#3d697f;}.cls-17{fill:#2a4d63;}.cls-18{fill:#8ec6dd;}.cls-19{opacity:0.38;}.cls-20{fill:#96a3e2;}.cls-21{fill:#1c418c;}.cls-22,.cls-43{fill:#c64063;}.cls-22{stroke:#661433;}.cls-22,.cls-26,.cls-27,.cls-28,.cls-29,.cls-30,.cls-31,.cls-32,.cls-33,.cls-34,.cls-35,.cls-52{stroke-linecap:round;stroke-linejoin:round;}.cls-22,.cls-26,.cls-27,.cls-28,.cls-29,.cls-30,.cls-31,.cls-32,.cls-33,.cls-34,.cls-35{stroke-width:1.28px;}.cls-23{clip-path:url(#clip-path-2);}.cls-24{fill:#bbc6ef;}.cls-25{fill:#6b7fc6;}.cls-26,.cls-45{fill:#0f181c;}.cls-26,.cls-28,.cls-30{stroke:#1a2f3a;}.cls-27{stroke:#1c418c;}.cls-28,.cls-46{fill:#31424c;}.cls-29{stroke:#466877;}.cls-31,.cls-47{fill:#cae8ef;}.cls-31,.cls-33{stroke:#4b8087;}.cls-32{stroke:#82bbc4;}.cls-34,.cls-48{fill:#202e35;}.cls-34{stroke:#13242b;}.cls-35{stroke:#18424c;}.cls-36{fill:url(#linear-gradient-2);}.cls-37{fill:url(#linear-gradient-3);}.cls-38{fill:#ffe9f8;mix-blend-mode:overlay;}.cls-39{fill:#395866;}.cls-40{fill:#233f49;}.cls-41{fill:url(#linear-gradient-4);}.cls-42{clip-path:url(#clip-path-3);}.cls-44{clip-path:url(#clip-path-4);}.cls-49{fill:url(#linear-gradient-5);}.cls-50{fill:url(#linear-gradient-6);}.cls-51{mix-blend-mode:screen;fill:url(#radial-gradient-3);}.cls-52{stroke:#fff;stroke-width:1.38px;}</style><linearGradient id="linear-gradient" x1="126" y1="173.45" x2="126" y2="25.89" gradientUnits="userSpaceOnUse"><stop offset="0.01" stop-color="#ffdb80"/><stop offset="1" stop-color="#f15a29"/></linearGradient><clipPath id="clip-path"><circle class="cls-1" cx="126" cy="126" r="100.21"/></clipPath><radialGradient id="radial-gradient" cx="202.6" cy="116.37" r="107.25" gradientUnits="userSpaceOnUse"><stop offset="0" stop-color="#ffdb80"/><stop offset="1" stop-color="#ffdb80" stop-opacity="0"/></radialGradient><radialGradient id="radial-gradient-2" cx="202.6" cy="116.37" r="52.51" gradientUnits="userSpaceOnUse"><stop offset="0" stop-color="#ffdb80" stop-opacity="0.6"/><stop offset="1" stop-color="#ffdb80" stop-opacity="0"/></radialGradient><clipPath id="clip-path-2"><path class="cls-1" d="M165.55,173.27c-53.09,26.62-86.24-7.78-84.88-37.26C82.11,104.8,102.73,91.89,133,99.33c27.77,6.81,23.45,34.81,20.72,52.94s13.09,13.95,13.09,13.95S169.43,152,187.61,155c0,0,.38,15.27-11.56,15.7,0,0,10.2,2.7,5.3,18.82C163.66,184.32,165.55,173.27,165.55,173.27Z"/></clipPath><linearGradient id="linear-gradient-2" x1="93.24" y1="107.72" x2="93.24" y2="126.23" gradientUnits="userSpaceOnUse"><stop offset="0" stop-color="#f95a35"/><stop offset="1" stop-color="#e54193"/></linearGradient><linearGradient id="linear-gradient-3" x1="123.71" y1="116.17" x2="123.71" y2="134.68" xlink:href="#linear-gradient-2"/><linearGradient id="linear-gradient-4" x1="62.32" y1="112.68" x2="73.64" y2="77.86" xlink:href="#linear-gradient"/><clipPath id="clip-path-3"><polygon class="cls-1" points="70.25 78.9 59.74 112.64 64.95 113.29 75.06 82.86 70.25 78.9"/></clipPath><clipPath id="clip-path-4"><path class="cls-1" d="M58.51,112.61c1.27,10.89,6.8,4.17,9.45-3.74,2.79-8.37,2.54-13.28-.29-13.5-2.59-.2-4.89,7.53-6.38,12.53s-2.21,2.75-2.21,2.75,1.14-4-.42-4.48c0,0-1.45,4-.65,5,0,0-1,0-2.12,4.6C57.62,115.67,58.51,112.61,58.51,112.61Z"/></clipPath><linearGradient id="linear-gradient-5" x1="2380.09" y1="537.52" x2="2380.09" y2="542.65" gradientTransform="matrix(0.24, -0.97, -0.97, -0.24, 28.05, 2542.92)" xlink:href="#linear-gradient-2"/><linearGradient id="linear-gradient-6" x1="2382.62" y1="539.01" x2="2382.62" y2="544.14" gradientTransform="matrix(0.24, -0.97, -0.97, -0.24, 25.97, 2545.76)" xlink:href="#linear-gradient-2"/><radialGradient id="radial-gradient-3" cx="72.65" cy="78.9" r="18.27" gradientUnits="userSpaceOnUse"><stop offset="0" stop-color="#fff" stop-opacity="0.7"/><stop offset="0.99" stop-color="#fff" stop-opacity="0"/></radialGradient></defs><title>webhint_sticker_7</title><g class="cls-2"><g id="sticker"><circle class="cls-3" cx="126" cy="126" r="108"/><circle class="cls-4" cx="126" cy="126" r="100.21"/><g class="cls-5"><circle class="cls-6" cx="202.6" cy="116.37" r="107.25"/><circle class="cls-7" cx="202.6" cy="116.37" r="21.88"/><path class="cls-8" d="M25.79,144.36h9.85v7.19H47.19v-19.5s11.66-.14,11.66,0v14.13H61.4l3.05,3v4.91h5.43V137.68H94V166.9H30.31Z"/><path class="cls-8" d="M150.3,150.59h11.83V138.13h13.68s-.38,6.23,0,6.23h5.25V126.31h17.57v17.08h8.92V108.48h9.93l3.21-3.21V98.55h7.87v69H152.22Z"/><polygon class="cls-9" points="207.15 79.17 207.15 79.34 207.15 79.17 194.59 171.31 206.85 171.31 207.44 171.31 219.7 171.31 207.15 79.17"/><path class="cls-10" d="M230.18,143.39h-9.73v9.5H208.37v-6.33H194.59v4h-3.87v8.92H163.48v-5.13h-5.39v-6.47H144.54v17.83h87.23v3.65C231.77,168.43,230.18,143.39,230.18,143.39Z"/><path class="cls-10" d="M31.9,167.57V147.91H42v12.85H52.22s1.87,1.5,1.68,1.68,13.5,0,13.5,0v-4.7h9.67V161h4.75v6Z"/><path class="cls-11" d="M170.87,87.08c0,26.9-28.84,48.7-64.41,48.7S42,114,42,87.08"/><line class="cls-12" x1="46.97" y1="106.62" x2="46.97" y2="137.33"/><line class="cls-12" x1="50.32" y1="110.99" x2="50.32" y2="138.13"/><line class="cls-12" x1="53.67" y1="115" x2="53.67" y2="137.97"/><line class="cls-12" x1="57.02" y1="118.31" x2="57.02" y2="137.97"/><line class="cls-12" x1="60.37" y1="121.31" x2="60.37" y2="138.13"/><line class="cls-12" x1="63.72" y1="123.52" x2="63.72" y2="138.13"/><line class="cls-12" x1="67.07" y1="125.96" x2="67.07" y2="138.13"/><line class="cls-12" x1="70.42" y1="127.52" x2="70.42" y2="138.13"/><line class="cls-12" x1="73.77" y1="128.58" x2="73.77" y2="137.35"/><line class="cls-12" x1="77.12" y1="130.05" x2="77.12" y2="137.35"/><line class="cls-12" x1="80.47" y1="131.65" x2="80.47" y2="137.35"/><line class="cls-12" x1="83.82" y1="132.69" x2="83.82" y2="137.35"/><line class="cls-12" x1="87.17" y1="133.56" x2="87.17" y2="137.35"/><line class="cls-12" x1="90.52" y1="134.02" x2="90.52" y2="137.35"/><line class="cls-12" x1="93.86" y1="134.85" x2="93.86" y2="137.35"/><line class="cls-12" x1="97.21" y1="135.02" x2="97.21" y2="137.7"/><line class="cls-12" x1="100.56" y1="135.45" x2="100.56" y2="137.7"/><line class="cls-12" x1="103.91" y1="135.68" x2="103.91" y2="137.7"/><line class="cls-12" x1="165.48" y1="106.62" x2="165.48" y2="137.33"/><line class="cls-12" x1="168.84" y1="98.55" x2="168.84" y2="137.18"/><line class="cls-12" x1="162.13" y1="110.99" x2="162.13" y2="138.13"/><line class="cls-12" x1="158.79" y1="115" x2="158.79" y2="137.97"/><line class="cls-12" x1="155.44" y1="118.31" x2="155.44" y2="137.97"/><line class="cls-12" x1="152.09" y1="121.31" x2="152.09" y2="138.13"/><line class="cls-12" x1="148.74" y1="123.52" x2="148.74" y2="138.13"/><line class="cls-12" x1="145.39" y1="125.96" x2="145.39" y2="138.13"/><line class="cls-12" x1="142.04" y1="127.52" x2="142.04" y2="138.13"/><line class="cls-12" x1="138.69" y1="128.58" x2="138.69" y2="137.35"/><line class="cls-12" x1="135.34" y1="130.05" x2="135.34" y2="137.35"/><line class="cls-12" x1="131.99" y1="131.65" x2="131.99" y2="137.35"/><line class="cls-12" x1="128.64" y1="132.69" x2="128.64" y2="137.35"/><line class="cls-12" x1="125.29" y1="133.56" x2="125.29" y2="137.35"/><line class="cls-12" x1="121.94" y1="134.02" x2="121.94" y2="137.35"/><line class="cls-12" x1="118.59" y1="134.85" x2="118.59" y2="137.35"/><line class="cls-12" x1="115.24" y1="135.02" x2="115.24" y2="137.7"/><line class="cls-12" x1="111.89" y1="135.45" x2="111.89" y2="137.7"/><line class="cls-12" x1="108.55" y1="135.68" x2="108.55" y2="137.7"/><path class="cls-11" d="M235.29,136.13c-35.57,0-64.42-21.8-64.42-48.69"/><line class="cls-12" x1="175.81" y1="106.97" x2="175.81" y2="137.68"/><line class="cls-12" x1="179.16" y1="111.34" x2="179.16" y2="138.48"/><line class="cls-12" x1="182.51" y1="115.36" x2="182.51" y2="138.32"/><line class="cls-12" x1="185.86" y1="118.66" x2="185.86" y2="138.32"/><line class="cls-12" x1="189.21" y1="121.66" x2="189.21" y2="138.48"/><line class="cls-12" x1="192.56" y1="123.87" x2="192.56" y2="138.48"/><line class="cls-12" x1="195.91" y1="126.31" x2="195.91" y2="138.48"/><line class="cls-12" x1="199.26" y1="127.87" x2="199.26" y2="138.48"/><line class="cls-12" x1="202.6" y1="128.93" x2="202.6" y2="137.7"/><line class="cls-12" x1="205.95" y1="130.4" x2="205.95" y2="137.7"/><line class="cls-12" x1="209.3" y1="132" x2="209.3" y2="137.7"/><line class="cls-12" x1="212.65" y1="133.04" x2="212.65" y2="137.7"/><line class="cls-12" x1="216" y1="133.91" x2="216" y2="137.7"/><line class="cls-12" x1="219.35" y1="134.37" x2="219.35" y2="137.7"/><line class="cls-12" x1="222.7" y1="135.2" x2="222.7" y2="137.7"/><line class="cls-12" x1="226.05" y1="135.37" x2="226.05" y2="138.05"/><line class="cls-12" x1="229.4" y1="135.8" x2="229.4" y2="138.05"/><line class="cls-12" x1="232.75" y1="136.03" x2="232.75" y2="138.05"/><path class="cls-11" d="M-22.47,136.13c35.58,0,64.42-21.8,64.42-48.69"/><line class="cls-12" x1="37.01" y1="106.97" x2="37.01" y2="137.68"/><line class="cls-12" x1="33.66" y1="111.34" x2="33.66" y2="138.48"/><line class="cls-12" x1="30.31" y1="115.36" x2="30.31" y2="138.32"/><line class="cls-12" x1="26.96" y1="118.66" x2="26.96" y2="138.32"/><line class="cls-12" x1="23.61" y1="121.66" x2="23.61" y2="138.48"/><line class="cls-12" x1="20.27" y1="123.87" x2="20.27" y2="138.48"/><line class="cls-12" x1="16.92" y1="126.31" x2="16.92" y2="138.48"/><line class="cls-12" x1="13.57" y1="127.87" x2="13.57" y2="138.48"/><line class="cls-12" x1="10.22" y1="128.93" x2="10.22" y2="137.7"/><line class="cls-12" x1="6.87" y1="130.4" x2="6.87" y2="137.7"/><line class="cls-12" x1="3.52" y1="132" x2="3.52" y2="137.7"/><line class="cls-12" x1="0.17" y1="133.04" x2="0.17" y2="137.7"/><path class="cls-13" d="M54.2,142.39a1.92,1.92,0,0,0,1.92-1.92v-3.11H54.68V122a1.06,1.06,0,0,0-.62-1V107.36a.88.88,0,0,0-.51-.8V96.49a.63.63,0,0,0-.48-.6V86.27a.51.51,0,0,0-.51-.52h-.13V84.12a.29.29,0,0,0-.58,0v1.63h-.13a.52.52,0,0,0-.52.52v1.17H42.86V86.27a.52.52,0,0,0-.52-.52h-.13V84.12a.29.29,0,1,0-.57,0v1.63H41.5a.51.51,0,0,0-.51.52v9.62a.62.62,0,0,0-.47.6v10.07a.87.87,0,0,0-.52.8v13.69a1.06,1.06,0,0,0-.62,1v15.36H37.94v3.11a1.92,1.92,0,0,0,1.92,1.92H40v11.8H38.74V158H38v6.25h7.87V158h-.75v-3.83H43.85v-11.8H44a1.91,1.91,0,0,0,1.92-1.92v-3.11H44.46V124.3H49.6v13.06H48.16v3.11a1.92,1.92,0,0,0,1.92,1.92h.14v11.8H49V158H48.2v6.25h7.87V158h-.74v-3.83H54.06v-11.8ZM43.33,106.56V98.68h7.4v7.88a.88.88,0,0,0-.51.8v.86H43.85v-.86A.87.87,0,0,0,43.33,106.56Zm7.87-17.2v6.53a.62.62,0,0,0-.47.6v.27h-7.4v-.27a.62.62,0,0,0-.47-.6V89.36Zm-6.74,33V122a1.05,1.05,0,0,0-.61-1V110.14h6.37v10.91a1,1,0,0,0-.62,1v.38Z"/><path class="cls-13" d="M183,142.39a1.92,1.92,0,0,0,1.92-1.92v-3.11h-1.44V122a1,1,0,0,0-.62-1V107.36a.88.88,0,0,0-.51-.8V96.49a.62.62,0,0,0-.47-.6V86.27a.52.52,0,0,0-.52-.52h-.13V84.12a.29.29,0,0,0-.58,0v1.63h-.13a.51.51,0,0,0-.51.52v1.17h-8.35V86.27a.51.51,0,0,0-.51-.52H171V84.12a.28.28,0,0,0-.28-.29.29.29,0,0,0-.29.29v1.63h-.13a.52.52,0,0,0-.52.52v9.62a.62.62,0,0,0-.47.6v10.07a.87.87,0,0,0-.52.8v13.69a1.05,1.05,0,0,0-.61,1v15.36h-1.44v3.11a1.92,1.92,0,0,0,1.92,1.92h.13v11.8h-1.26V158h-.75v6.25h7.87V158h-.74v-3.83h-1.27v-11.8h.14a1.92,1.92,0,0,0,1.92-1.92v-3.11h-1.44V124.3h5.13v13.06H177v3.11a1.92,1.92,0,0,0,1.92,1.92H179v11.8h-1.27V158H177v6.25h7.87V158h-.75v-3.83h-1.27v-11.8Zm-10.86-35.83V98.68h7.39v7.88a.88.88,0,0,0-.51.8v.86h-6.37v-.86A.88.88,0,0,0,172.14,106.56ZM180,89.36v6.53a.62.62,0,0,0-.48.6v.27h-7.39v-.27a.63.63,0,0,0-.48-.6V89.36Zm-6.74,33V122a1.06,1.06,0,0,0-.62-1V110.14H179v10.91a1,1,0,0,0-.62,1v.38Z"/><rect class="cls-13" x="23.44" y="137.31" width="206.74" height="2.59"/><path class="cls-11" d="M181.06,87.08c0,26.9-28.85,48.7-64.42,48.7S52.22,114,52.22,87.08"/><line class="cls-12" x1="57.15" y1="106.62" x2="57.15" y2="137.33"/><line class="cls-12" x1="60.5" y1="110.99" x2="60.5" y2="138.13"/><line class="cls-12" x1="63.85" y1="115" x2="63.85" y2="137.97"/><line class="cls-12" x1="67.2" y1="118.31" x2="67.2" y2="137.97"/><line class="cls-12" x1="70.55" y1="121.31" x2="70.55" y2="138.13"/><line class="cls-12" x1="73.9" y1="123.52" x2="73.9" y2="138.13"/><line class="cls-12" x1="77.25" y1="125.96" x2="77.25" y2="138.13"/><line class="cls-12" x1="80.6" y1="127.52" x2="80.6" y2="138.13"/><line class="cls-12" x1="83.95" y1="128.58" x2="83.95" y2="137.35"/><line class="cls-12" x1="87.3" y1="130.05" x2="87.3" y2="137.35"/><line class="cls-12" x1="90.65" y1="131.65" x2="90.65" y2="137.35"/><line class="cls-12" x1="94" y1="132.69" x2="94" y2="137.35"/><line class="cls-12" x1="97.35" y1="133.56" x2="97.35" y2="137.35"/><line class="cls-12" x1="100.7" y1="134.02" x2="100.7" y2="137.35"/><line class="cls-12" x1="104.05" y1="134.85" x2="104.05" y2="137.35"/><line class="cls-12" x1="107.39" y1="135.02" x2="107.39" y2="137.7"/><line class="cls-12" x1="110.74" y1="135.45" x2="110.74" y2="137.7"/><line class="cls-12" x1="114.09" y1="135.68" x2="114.09" y2="137.7"/><line class="cls-12" x1="175.66" y1="106.62" x2="175.66" y2="137.33"/><line class="cls-12" x1="179.02" y1="98.55" x2="179.02" y2="137.18"/><line class="cls-12" x1="172.32" y1="110.99" x2="172.32" y2="138.13"/><line class="cls-12" x1="168.97" y1="115" x2="168.97" y2="137.97"/><line class="cls-12" x1="165.62" y1="118.31" x2="165.62" y2="137.97"/><line class="cls-12" x1="162.27" y1="121.31" x2="162.27" y2="138.13"/><line class="cls-12" x1="158.92" y1="123.52" x2="158.92" y2="138.13"/><line class="cls-12" x1="155.57" y1="125.96" x2="155.57" y2="138.13"/><line class="cls-12" x1="152.22" y1="127.52" x2="152.22" y2="138.13"/><line class="cls-12" x1="148.87" y1="128.58" x2="148.87" y2="137.35"/><line class="cls-12" x1="145.52" y1="130.05" x2="145.52" y2="137.35"/><line class="cls-12" x1="142.17" y1="131.65" x2="142.17" y2="137.35"/><line class="cls-12" x1="138.82" y1="132.69" x2="138.82" y2="137.35"/><line class="cls-12" x1="135.47" y1="133.56" x2="135.47" y2="137.35"/><line class="cls-12" x1="132.12" y1="134.02" x2="132.12" y2="137.35"/><line class="cls-12" x1="128.77" y1="134.85" x2="128.77" y2="137.35"/><line class="cls-12" x1="125.42" y1="135.02" x2="125.42" y2="137.7"/><line class="cls-12" x1="122.08" y1="135.45" x2="122.08" y2="137.7"/><line class="cls-12" x1="118.73" y1="135.68" x2="118.73" y2="137.7"/><path class="cls-11" d="M245.47,136.13c-35.57,0-64.41-21.8-64.41-48.69"/><line class="cls-12" x1="185.99" y1="106.97" x2="185.99" y2="137.68"/><line class="cls-12" x1="189.34" y1="111.34" x2="189.34" y2="138.48"/><line class="cls-12" x1="192.69" y1="115.36" x2="192.69" y2="138.32"/><line class="cls-12" x1="196.04" y1="118.66" x2="196.04" y2="138.32"/><line class="cls-12" x1="199.39" y1="121.66" x2="199.39" y2="138.48"/><line class="cls-12" x1="202.74" y1="123.87" x2="202.74" y2="138.48"/><line class="cls-12" x1="206.09" y1="126.31" x2="206.09" y2="138.48"/><line class="cls-12" x1="209.44" y1="127.87" x2="209.44" y2="138.48"/><line class="cls-12" x1="212.79" y1="128.93" x2="212.79" y2="137.7"/><line class="cls-12" x1="216.14" y1="130.4" x2="216.14" y2="137.7"/><line class="cls-12" x1="219.48" y1="132" x2="219.48" y2="137.7"/><line class="cls-12" x1="222.83" y1="133.04" x2="222.83" y2="137.7"/><line class="cls-12" x1="226.18" y1="133.91" x2="226.18" y2="137.7"/><line class="cls-12" x1="229.53" y1="134.37" x2="229.53" y2="137.7"/><line class="cls-12" x1="232.88" y1="135.2" x2="232.88" y2="137.7"/><line class="cls-12" x1="236.23" y1="135.37" x2="236.23" y2="138.05"/><line class="cls-12" x1="239.58" y1="135.8" x2="239.58" y2="138.05"/><line class="cls-12" x1="242.93" y1="136.03" x2="242.93" y2="138.05"/><path class="cls-11" d="M-12.29,136.13c35.58,0,64.42-21.8,64.42-48.69"/><line class="cls-12" x1="47.19" y1="106.97" x2="47.19" y2="137.68"/><line class="cls-12" x1="43.84" y1="111.34" x2="43.84" y2="138.48"/><line class="cls-12" x1="40.49" y1="115.36" x2="40.49" y2="138.32"/><line class="cls-12" x1="37.14" y1="118.66" x2="37.14" y2="138.32"/><line class="cls-12" x1="33.8" y1="121.66" x2="33.8" y2="138.48"/><line class="cls-12" x1="30.45" y1="123.87" x2="30.45" y2="138.48"/><line class="cls-12" x1="27.1" y1="126.31" x2="27.1" y2="138.48"/><line class="cls-12" x1="23.75" y1="127.87" x2="23.75" y2="138.48"/><line class="cls-12" x1="20.4" y1="128.93" x2="20.4" y2="137.7"/><line class="cls-12" x1="17.05" y1="130.4" x2="17.05" y2="137.7"/><line class="cls-12" x1="13.7" y1="132" x2="13.7" y2="137.7"/><line class="cls-12" x1="10.35" y1="133.04" x2="10.35" y2="137.7"/><line class="cls-12" x1="7" y1="133.91" x2="7" y2="137.7"/><line class="cls-12" x1="3.65" y1="134.37" x2="3.65" y2="137.7"/><line class="cls-12" x1="0.3" y1="135.2" x2="0.3" y2="137.7"/><circle class="cls-14" cx="202.6" cy="116.37" r="52.51"/><ellipse class="cls-15" cx="72.76" cy="174.51" rx="2.22" ry="0.71"/><ellipse class="cls-15" cx="79.47" cy="173.54" rx="1.49" ry="0.48"/><rect class="cls-16" x="28.74" y="164.27" width="197.47" height="71.01"/><path class="cls-17" d="M36.36,164.27H82.11s-1.84,2.42-7.09,3c0,0,3.3.4,3.31,1.58,0,1.66-8.5,2.4-8.5,2.4s5.59,0,5.59,1.74c0,2.46-14.46,3.63-14.46,3.63s4.2,0,4.17,1.44c0,2.3-11.11,2.63-11.11,2.63s4.68.75,4.68,2.19c0,1.92-9.34,3-9.34,3l-6,1.71-15.18-20-.57-2.78.5-.52Z"/><ellipse class="cls-17" cx="70.71" cy="180.83" rx="4.06" ry="1.29"/><ellipse class="cls-17" cx="173.03" cy="197.69" rx="4.06" ry="1.29"/><ellipse class="cls-17" cx="71.09" cy="190.99" rx="2.03" ry="0.65"/><ellipse class="cls-17" cx="179.02" cy="199.77" rx="2.03" ry="0.65"/><ellipse class="cls-17" cx="73.98" cy="193.35" rx="1.02" ry="0.32"/><ellipse class="cls-17" cx="61.36" cy="188.37" rx="6.51" ry="2.07"/><ellipse class="cls-17" cx="184.07" cy="194.32" rx="6.51" ry="2.07"/><path class="cls-17" d="M161.09,164.27s2.3,5.91,12.66,5.91c0,0,3.09,7.84,17,7.84,0,0-8.48,1.08-8.48,4.39s13.37,3.88,13.37,3.88-4.31.65-4.31,3.53,16.83,4.5,16.83,4.5l18.63-28.58-.62-1.47Z"/><ellipse class="cls-15" cx="77.13" cy="175.69" rx="1.49" ry="0.48"/><ellipse class="cls-15" cx="161.67" cy="184.59" rx="2.22" ry="0.71"/><ellipse class="cls-15" cx="187.13" cy="182.95" rx="1.64" ry="0.53"/><ellipse class="cls-15" cx="190.14" cy="185.53" rx="2.2" ry="0.7"/><ellipse class="cls-15" cx="164.01" cy="182.26" rx="0.74" ry="0.24"/><ellipse class="cls-15" cx="190.69" cy="182.19" rx="0.74" ry="0.24"/><ellipse class="cls-15" cx="168.38" cy="183.62" rx="1.49" ry="0.48"/><path class="cls-18" d="M143.1,216.57c-1.24-.45-2,.85-2.5,2.66-1.32-4.09-3.47-9-6.48-9.2-1.9-.13-2.33,2.66-2.11,6.24-3.77-8.76-10.21-22.16-14.37-22.35-3.85-.18-.89,13.84,1.88,24.45C115,214.26,108.35,209,104.69,210c-5.89,1.59,11.94,21.52,17.63,23.17,2.58.75,3.21-1.29,3.14-3.73l8.47-1.59c.43,1.86.76,3.09.76,3.09l5.11-4.22V227l5-.79S146.49,217.8,143.1,216.57Z"/><path class="cls-18" d="M102.67,196.48c1.58,2.79,1.94,6.34,1,6.88s-3.8-1.61-5.38-4.39-2.28-5.38-.67-6.29S101.09,193.7,102.67,196.48Z"/><path class="cls-18" d="M105.05,185.44c.77,1.89.71,4.17.07,4.43s-2.28-1.33-3.05-3.22-1-3.59.09-4S104.28,183.54,105.05,185.44Z"/><path class="cls-18" d="M145.44,201.79c-.19,2-1.3,4-2,4s-1.4-2.23-1.2-4.27.78-3.65,1.95-3.53S145.64,199.75,145.44,201.79Z"/><path class="cls-19" d="M102.59,32,102,32a12.55,12.55,0,0,0,.11-1.64,12.38,12.38,0,0,0-24.76,0c0,.36,0,.71,0,1.06A10.2,10.2,0,1,0,72.1,50.33h30.49a9.17,9.17,0,0,0,0-18.33Z"/><path class="cls-19" d="M160.55,46.91h-.32a5.9,5.9,0,0,0,.07-1A7.15,7.15,0,0,0,146,46c0,.21,0,.41,0,.62a5.89,5.89,0,1,0-3.09,10.91h17.61a5.3,5.3,0,1,0,0-10.59Z"/></g><polygon class="cls-18" points="58.21 179.8 55.1 180.72 56.88 178.01 56.4 177.36 53.29 178.27 55.07 175.59 54.53 174.86 52.13 178.53 52.69 179.27 55.6 178.44 53.97 180.98 54.52 181.72 58.72 180.48 58.21 179.8"/><path class="cls-18" d="M57.38,183.6a1.15,1.15,0,0,1,.26-.81l2.1,2.45.22-.17a2.28,2.28,0,0,0,.68-.92,1.89,1.89,0,0,0,.09-1.05,2.22,2.22,0,0,0-.5-1,2.19,2.19,0,0,0-.92-.66,1.91,1.91,0,0,0-1.06-.09,2.15,2.15,0,0,0-1,.5,2.06,2.06,0,0,0-.64.92,1.84,1.84,0,0,0-.06,1.09,2.67,2.67,0,0,0,.57,1.09,2.49,2.49,0,0,0,.75.61,1.8,1.8,0,0,0,.84.21l.11-.78a1.48,1.48,0,0,1-1.06-.56A1.45,1.45,0,0,1,57.38,183.6Zm1.55-1.41a1.2,1.2,0,0,1,.71.42,1.1,1.1,0,0,1,.3.78,1.08,1.08,0,0,1-.3.75l-1.52-1.77A1.19,1.19,0,0,1,58.93,182.19Z"/><path class="cls-18" d="M64.24,187.94a1.88,1.88,0,0,0,0-1.05,2.19,2.19,0,0,0-.55-.95,1.93,1.93,0,0,0-.61-.44,1.68,1.68,0,0,0-.7-.14l1.52-1.45-.67-.7-4.12,4,.63.66.38-.37a1.41,1.41,0,0,0,.1.73,1.83,1.83,0,0,0,.43.66,2.13,2.13,0,0,0,.93.6,2,2,0,0,0,1,0,2.2,2.2,0,0,0,1-.57A2.27,2.27,0,0,0,64.24,187.94Zm-1.28.25a1.3,1.3,0,0,1-.91.4,1.14,1.14,0,0,1-.86-.39,1.17,1.17,0,0,1-.32-.56,1.09,1.09,0,0,1,0-.62,1.36,1.36,0,0,1,.38-.59,1.24,1.24,0,0,1,.6-.35,1.12,1.12,0,0,1,.63,0,1.3,1.3,0,0,1,.54.34,1.17,1.17,0,0,1,.35.88A1.3,1.3,0,0,1,63,188.19Z"/><path class="cls-18" d="M68.05,190.77a1.68,1.68,0,0,0-.6-1.18,2.06,2.06,0,0,0-.67-.43,1.53,1.53,0,0,0-.69-.12l1.41-1.52-.71-.66-3.88,4.2.71.65L65,190.18a1.26,1.26,0,0,1,.85-.46,1.08,1.08,0,0,1,.83.33,1,1,0,0,1,.35.7,1.13,1.13,0,0,1-.37.76l-1.51,1.64.7.66,1.6-1.73A1.76,1.76,0,0,0,68.05,190.77Z"/><rect class="cls-18" x="66.54" y="192.92" width="4.11" height="0.96" transform="translate(-123.2 120.42) rotate(-49.64)"/><path class="cls-18" d="M70.81,191.48a.63.63,0,0,0,.41-.21.52.52,0,0,0,.13-.42.67.67,0,0,0-.24-.41.61.61,0,0,0-.44-.15.51.51,0,0,0-.4.2.5.5,0,0,0-.13.42.59.59,0,0,0,.23.41A.58.58,0,0,0,70.81,191.48Z"/><path class="cls-18" d="M73.77,195.45a1.7,1.7,0,0,0-.7-1.12,2.12,2.12,0,0,0-.74-.39,1.55,1.55,0,0,0-.74,0l.33-.42-.72-.56-2.53,3.24.76.6,1.28-1.64a1.23,1.23,0,0,1,.81-.54,1.12,1.12,0,0,1,.85.26,1,1,0,0,1,.41.66,1.17,1.17,0,0,1-.3.8l-1.37,1.76.75.59,1.45-1.86A1.77,1.77,0,0,0,73.77,195.45Z"/><path class="cls-18" d="M76.74,196l-.79-.56-.54.77-.55-.39-.45.63.56.39-1.14,1.62a1.34,1.34,0,0,0-.29,1,1.43,1.43,0,0,0,.65.9,1.8,1.8,0,0,0,.46.23,1.06,1.06,0,0,0,.45.07l.18-.71a.84.84,0,0,1-.54-.18.55.55,0,0,1-.26-.37.65.65,0,0,1,.15-.46l1.13-1.6.9.64.44-.63-.9-.64Z"/><path class="cls-18" d="M76.69,200.53a.58.58,0,0,0-.47-.1.61.61,0,0,0-.41.28.67.67,0,0,0-.1.49.61.61,0,0,0,.28.39.6.6,0,0,0,.47.1.64.64,0,0,0,.41-.28.67.67,0,0,0,.1-.49A.61.61,0,0,0,76.69,200.53Z"/><rect class="cls-18" x="76.82" y="200.47" width="4.11" height="0.96" transform="translate(-133.22 160.78) rotate(-57.84)"/><path class="cls-18" d="M80.34,198.64a.59.59,0,0,0,.46.08.56.56,0,0,0,.44-.7.6.6,0,0,0-.29-.36.64.64,0,0,0-.46-.1.55.55,0,0,0-.37.26.57.57,0,0,0-.07.44A.68.68,0,0,0,80.34,198.64Z"/><path class="cls-18" d="M83.86,201.77a2.54,2.54,0,0,0-2-1.12,2,2,0,0,0-1.05.26,2.07,2.07,0,0,0-.78.8,2.19,2.19,0,0,0-.3,1.09,1.93,1.93,0,0,0,.3,1A2.5,2.5,0,0,0,82,205a2,2,0,0,0,1-.26,2.2,2.2,0,0,0,.79-.81,2,2,0,0,0,.29-1.08A2,2,0,0,0,83.86,201.77ZM83,203.41a1.27,1.27,0,0,1-.77.63,1.16,1.16,0,0,1-.94-.12,1.2,1.2,0,0,1-.58-.75,1.28,1.28,0,0,1,.17-1,1.25,1.25,0,0,1,.76-.64,1.25,1.25,0,0,1,1.52.87A1.29,1.29,0,0,1,83,203.41Z"/><path class="cls-20" d="M85.13,135s-8.34-15.34-21.87-23.39c0,0-11.65,30.35,23.31,43"/><path class="cls-21" d="M84.63,135.22a69.37,69.37,0,0,0-4.42-6.67,77.44,77.44,0,0,0-5.1-6.18,62.75,62.75,0,0,0-5.76-5.54,50.5,50.5,0,0,0-6.47-4.63h0l1.08-.38a35.47,35.47,0,0,0-1.79,13.24,29.31,29.31,0,0,0,3.65,12.8,30.94,30.94,0,0,0,9,9.89,48.08,48.08,0,0,0,12,6.25.6.6,0,0,1,.36.78.6.6,0,0,1-.78.36A49.35,49.35,0,0,1,74,148.79a32.06,32.06,0,0,1-9.39-10.27,30.6,30.6,0,0,1-3.89-13.38,37.11,37.11,0,0,1,.25-7,33.71,33.71,0,0,1,1.57-6.86.72.72,0,0,1,.92-.45l.15.08h0a51.75,51.75,0,0,1,6.62,4.84,63,63,0,0,1,5.82,5.73,75.71,75.71,0,0,1,5.12,6.33,69.2,69.2,0,0,1,4.43,6.86.57.57,0,0,1-1,.56Z"/><path class="cls-22" d="M151.45,119.31s32.22,30.08,22.58,31.23-29.49-17.79-29.49-17.79Z"/><path class="cls-20" d="M165.55,173.27c-53.09,26.62-86.24-7.78-84.88-37.26C82.11,104.8,102.73,91.89,133,99.33c27.77,6.81,23.45,34.81,20.72,52.94s13.09,13.95,13.09,13.95S169.43,152,187.61,155c0,0,.38,15.27-11.56,15.7,0,0,10.2,2.7,5.3,18.82C163.66,184.32,165.55,173.27,165.55,173.27Z"/><g class="cls-23"><path class="cls-24" d="M79.09,148.1S93.85,128,120.73,159.51c18.39,21.58,44.82,13.76,44.82,13.76l-9.64,16.23-49.3,7.8-31-22.2-3.16-24.51Z"/><ellipse class="cls-25" cx="155.05" cy="132.52" rx="5.19" ry="12.34"/><path class="cls-25" d="M144.39,140.89c-1.47-.14-1.91-3-1.68-5.53s1.21-4.11,2.51-3.7c1,.33,1.7,2.26,1.47,4.8S145.43,141,144.39,140.89Z"/><ellipse class="cls-25" cx="146.79" cy="145.2" rx="2.19" ry="1.08" transform="translate(-1.2 289.17) rotate(-88.9)"/></g><path class="cls-26" d="M118.36,96.53s25.89,5.57,26.76,12l2.16-19.15-13.78-5Z"/><path class="cls-27" d="M165.55,173.27c-53.09,26.62-86.24-7.78-84.88-37.26C82.11,104.8,102.73,91.89,133,99.33c27.77,6.81,23.45,34.81,20.72,52.94s13.09,13.95,13.09,13.95S169.43,152,187.61,155c0,0,.38,15.27-11.56,15.7,0,0,10.2,2.7,5.3,18.82C163.66,184.32,165.55,173.27,165.55,173.27Z"/><path class="cls-28" d="M137.59,81.63c-10.45-2.1-27.43,16.18-27.43,16.18a69.33,69.33,0,0,1,9.76,2.62c4.53-6.71,8.51-11.06,14.23-8.82,6.13,2.4,7.08,6.53.06,15.37a113.1,113.1,0,0,1,29.08,24.24s3.36-5.18,6-17.84S148,83.74,137.59,81.63Z"/><path class="cls-29" d="M155.69,91.32s7.6,8.12-4.24,28"/><path class="cls-30" d="M137.59,81.63c-10.45-2.1-27.43,16.18-27.43,16.18a69.33,69.33,0,0,1,9.76,2.62c4.53-6.71,8.51-11.06,14.23-8.82,6.13,2.4,7.08,6.53.06,15.37a113.1,113.1,0,0,1,29.08,24.24s3.36-5.18,6-17.84S148,83.74,137.59,81.63Z"/><path class="cls-31" d="M120.73,97.47l13.2-38.16s.37,28.83.43,39.72c.2,4.09-7.6,2.86-7.6,2.86S119.81,101,120.73,97.47Z"/><path class="cls-32" d="M121.73,95.13c1.3.5,7.58,2.22,12.41-1.85"/><path class="cls-32" d="M125,85.16a12.92,12.92,0,0,0,9.17-1.53"/><path class="cls-32" d="M128.6,74.72a12.91,12.91,0,0,0,5.45-.79"/><path class="cls-33" d="M120.73,97.47l13.2-38.16s.37,28.83.43,39.72"/><path class="cls-34" d="M138.09,101.06c-4.43-3.11-12.84-5.93-17.5-5.93-1.81,0-3.7,1.18-4,2.74-.33,2,1.22,2.13,2.64,2.44A42,42,0,0,1,134.21,107C134.42,107.09,137,103.57,138.09,101.06Z"/><path class="cls-35" d="M103.47,114.61s8.66-4.73,11.87,3.71"/><circle class="cls-36" cx="93.24" cy="116.16" r="10.34"/><circle class="cls-35" cx="93.24" cy="116.16" r="10.34"/><circle class="cls-37" cx="123.71" cy="124.61" r="10.34"/><circle class="cls-35" cx="123.71" cy="124.61" r="10.34"/><path class="cls-38" d="M93.24,107a9.18,9.18,0,0,0-8.51,12.6c6.24-4.51,13.56-6,17.16-6.46A9.18,9.18,0,0,0,93.24,107Z"/><path class="cls-38" d="M123.74,115.65a9.18,9.18,0,0,0-9.18,9.18,9.06,9.06,0,0,0,.67,3.42c6.24-4.51,13.56-6,17.16-6.47A9.17,9.17,0,0,0,123.74,115.65Z"/><path class="cls-27" d="M106.61,124.74c-.14,0-3.23-2.73-4.65.1-1.2,2.4,2.69,3.26,2.69,3.26s-4.1-1-4.49,1.87,4,3,4,3"/><path class="cls-20" d="M123.8,155.87S109,178.55,135.05,194.32c0,0,8.49-18.75-2.23-38.45"/><path class="cls-21" d="M124.21,156.13a29.8,29.8,0,0,0-3.7,10.38,23.78,23.78,0,0,0,.73,10.9,24.28,24.28,0,0,0,5.55,9.4,38.43,38.43,0,0,0,8.64,6.88h0l-1.06.33a41.94,41.94,0,0,0,2.59-9.37,45,45,0,0,0,.54-9.77l-.05-1.22-.14-1.22c-.1-.81-.16-1.63-.29-2.43a43.41,43.41,0,0,0-1.07-4.78,46,46,0,0,0-3.62-9.1l0,0a.56.56,0,1,1,1-.5,47.31,47.31,0,0,1,3.8,9.3,45.41,45.41,0,0,1,1.14,4.91c.15.82.22,1.66.33,2.49l.15,1.25.06,1.26a45.69,45.69,0,0,1-.46,10.05,43.31,43.31,0,0,1-2.61,9.77.71.71,0,0,1-.93.39l-.11-.05h0a40.35,40.35,0,0,1-8.88-7.24,25.77,25.77,0,0,1-5.72-9.95,25.17,25.17,0,0,1-.64-11.44,30.72,30.72,0,0,1,4-10.73.49.49,0,0,1,.67-.17.5.5,0,0,1,.17.67Z"/><circle class="cls-3" cx="89.39" cy="110.38" r="1.53"/><circle class="cls-3" cx="86.83" cy="112.85" r="0.8"/><circle class="cls-3" cx="119.28" cy="119.85" r="1.53"/><circle class="cls-3" cx="116.71" cy="122.32" r="0.8"/><polygon class="cls-39" points="66.81 75.78 69.88 75.78 77.07 82.4 66.14 115.2 57.99 114.27 56.26 113.28 66.81 75.78"/><polygon class="cls-40" points="69.88 75.78 57.99 114.27 56.26 113.28 66.81 75.78 69.88 75.78"/><polygon class="cls-30" points="66.81 75.78 69.88 75.78 77.07 82.4 66.14 115.2 57.99 114.27 56.26 113.28 66.81 75.78"/><polygon class="cls-41" points="70.25 78.9 59.74 112.64 64.95 113.29 75.06 82.86 70.25 78.9"/><g class="cls-42"><path class="cls-20" d="M67.74,108.27s2-3.46,3.71-4.62c0,0-2,8.88-5.63,9.71"/><path class="cls-43" d="M64.52,99.33S59.45,105,60,106s3.73-2.59,3.73-2.59Z"/><path class="cls-20" d="M58.51,112.61c1.27,10.89,6.8,4.17,9.45-3.74,2.79-8.37,2.54-13.28-.29-13.5-2.59-.2-4.89,7.53-6.38,12.53s-2.21,2.75-2.21,2.75,1.14-4-.42-4.48c0,0-1.45,4-.65,5,0,0-1,0-2.12,4.6C57.62,115.67,58.51,112.61,58.51,112.61Z"/><g class="cls-44"><path class="cls-24" d="M66.94,112.19s.83-6.4-4,0c-3.3,4.39-4.44.41-4.44.41l-.82,5,2.75,5.63,4.24-3.64,2.5-6.26Z"/><ellipse class="cls-25" cx="63.04" cy="102.57" rx="3.47" ry="0.47" transform="translate(-54.37 129.22) rotate(-71.22)"/><path class="cls-25" d="M63,105.56c.12.07.41-.65.63-1.34s.3-1.18.17-1.16-.33.47-.55,1.16A3,3,0,0,0,63,105.56Z"/><ellipse class="cls-25" cx="62.44" cy="106.53" rx="0.62" ry="0.1" transform="translate(-58.31 132.33) rotate(-71.68)"/></g><path class="cls-45" d="M69,95.69s-2.34-.39-3,1.23l1.62-5.23L69,91.37Z"/><path class="cls-46" d="M69,90.35c.93.2.43,6.27.43,6.27a2.24,2.24,0,0,0-.93,0c.31-2.1.43-3.54-.18-3.36s-1.11,1.21-1.43,4.06a19.9,19.9,0,0,0-4.3,4.32,48.93,48.93,0,0,1,1.23-5.16C64.79,92.92,68.06,90.16,69,90.35Z"/><path class="cls-1" d="M66.81,91.61s-1.28,1.6-2.29,7.72"/><path class="cls-1" d="M69,90.35c.93.2.43,6.27.43,6.27a2.24,2.24,0,0,0-.93,0c.31-2.1.43-3.54-.18-3.36s-1.11,1.21-1.43,4.06a19.9,19.9,0,0,0-4.3,4.32,48.93,48.93,0,0,1,1.23-5.16C64.79,92.92,68.06,90.16,69,90.35Z"/><path class="cls-47" d="M68.71,95.77c.75-3.2,2.61-11.07,2.61-11.07s-2.7,7.61-3.72,10.5c-.39,1.06.27,1.3.27,1.3S68.45,96.77,68.71,95.77Z"/><path class="cls-1" d="M68.86,95.08c-.14,0-.74,0-.71-1.39"/><path class="cls-1" d="M69.55,92.2c-.2-.06-.47-.29-.5-1.07"/><path class="cls-1" d="M70.27,89.17a.88.88,0,0,1-.31-.6"/><path class="cls-1" d="M68.71,95.77c.75-3.2,2.61-11.07,2.61-11.07s-2.7,7.61-3.72,10.5"/><path class="cls-48" d="M67.15,95.46c.6-.5,1.46-.64,1.79-.3a1.32,1.32,0,0,1,0,1c-.16.56-.28.48-.41.46a2.1,2.1,0,0,0-1.67.68A13.67,13.67,0,0,1,67.15,95.46Z"/><path class="cls-1" d="M68.33,101.56s-.17-1.88-1.18.12"/><ellipse class="cls-49" cx="68.91" cy="102.71" rx="2.94" ry="0.92" transform="translate(-48.89 140.38) rotate(-73.88)"/><ellipse class="cls-1" cx="68.91" cy="102.71" rx="2.94" ry="0.92" transform="matrix(0.28, -0.96, 0.96, 0.28, -48.89, 140.38)"/><ellipse class="cls-50" cx="65.98" cy="102.74" rx="2.94" ry="0.92" transform="translate(-51.04 137.59) rotate(-73.88)"/><ellipse class="cls-1" cx="65.98" cy="102.74" rx="2.94" ry="0.92" transform="translate(-51.04 137.59) rotate(-73.88)"/><path class="cls-38" d="M69.76,100.27c.36.37.27,1.76-.2,3.1a6.34,6.34,0,0,1-.37.86,6.4,6.4,0,0,0-.61-3C69,100.42,69.48,100,69.76,100.27Z"/><path class="cls-38" d="M66.81,100.37c.36.36.26,1.75-.21,3.09a6.37,6.37,0,0,1-.36.86,6.31,6.31,0,0,0-.61-2.95C66.05,100.51,66.53,100.08,66.81,100.37Z"/><path class="cls-1" d="M67.17,104s.48-.49.32.36S67,105,67,105s.38,0,.14.82-.56.5-.56.5"/><path class="cls-20" d="M63.07,111s-1.06,7.07-4.36,9.37a38.26,38.26,0,0,1,3.73-10"/></g><ellipse class="cls-40" cx="71.72" cy="79.19" rx="0.3" ry="0.16" transform="translate(-31.41 107.08) rotate(-62.97)"/><ellipse class="cls-40" cx="72.29" cy="79.6" rx="0.3" ry="0.16" transform="translate(-31.47 107.82) rotate(-62.97)"/><circle class="cls-51" cx="72.65" cy="78.9" r="18.27"/><line class="cls-52" x1="75.05" y1="74.04" x2="76.54" y2="71.42"/><line class="cls-52" x1="77.6" y1="76.12" x2="80.82" y2="73.9"/><line class="cls-52" x1="79.16" y1="78.92" x2="81.86" y2="78.88"/></g></g></svg>