<svg viewBox="0 0 252 252" xmlns="http://www.w3.org/2000/svg"><path d="M205.8 189H187a5.2 5.2 0 0 1-3.3-9.3 90.8 90.8 0 0 0 33.3-70 91.2 91.2 0 0 0-90.3-91.2 91 91 0 0 0-58.4 161.2A5.2 5.2 0 0 1 65 189H46.1a11.1 11.1 0 0 0-11 11v22.4a11 11 0 0 0 11 11.1H206a11 11 0 0 0 11-11V200a11.1 11.1 0 0 0-11-11.1z" fill="#fff"/><g fill="#4700a3"><path d="M126 29a80 80 0 1 0 80.5 80A80 80 0 0 0 126 29zm70.7 80a71.2 71.2 0 0 1-71.1 71.1A70.6 70.6 0 0 1 54.9 109 71.2 71.2 0 0 1 126 37.9c39 .4 70.7 32.1 70.7 71.1z"/><path d="M165 90.3l2.4-4.9 7.8-12.6-18 10.6c-.3.4-.7.4-1.1.8a5.7 5.7 0 0 0 0 7.7 3.5 3.5 0 0 0 2.4 1.2 5.9 5.9 0 0 0 5.3-1.2 5.7 5.7 0 0 0 1.2-1.6z"/><path d="M162.6 97.6a7.8 7.8 0 0 1-3.3.4 9 9 0 0 1-9-9 6.8 6.8 0 0 1 .5-2.8 23.8 23.8 0 0 0-14.6-3.6c-27.7 0-32.1 13-32.1 29.2a19.7 19.7 0 0 1-2 11.8 10.8 10.8 0 0 1-10.2 5.7c-1.6 0-7.7-.8-8.1-2.8h.8a11.9 11.9 0 0 0 11.8-12.2V111h-5.8a12.7 12.7 0 0 0-10.1 5.3 13.1 13.1 0 0 0-10.6-4.9h-5.7v2.5a12.7 12.7 0 0 0 12.6 12.6h2c0 4 5.7 20.3 47.6 20.3 16.2 0 40.6-2.9 40.6-33.8a29.6 29.6 0 0 0-4.4-15.4z"/></g><path d="M70.9 218.2l-4.2-11.1h-2.1l-4.2 11.1-4.1-11.1h-2.4l5.2 13.9h2.4l4.1-10.6 4.1 10.6h2.4l5.2-13.9H75l-4.1 11.1zm17.9-10.4a7 7 0 0 0-3.6-.9 7 7 0 0 0-3.6 1 6.5 6.5 0 0 0-2.5 2.5 7.8 7.8 0 0 0 0 7.3 6.6 6.6 0 0 0 2.6 2.6 8.3 8.3 0 0 0 4 .9 8.1 8.1 0 0 0 3.1-.6 6 6 0 0 0 2.4-1.7l-1.4-1.6a5.2 5.2 0 0 1-4 1.7 5.3 5.3 0 0 1-3.5-1.2 4.3 4.3 0 0 1-1.6-3H92v-.7a7.8 7.8 0 0 0-.9-3.8 6.4 6.4 0 0 0-2.3-2.5zm-8 5.3a4.5 4.5 0 0 1 1.4-3 4.8 4.8 0 0 1 6 0 4.5 4.5 0 0 1 1.5 3zm25.8-5.3a7.3 7.3 0 0 0-3.6-.9 6.7 6.7 0 0 0-2.8.6 5.4 5.4 0 0 0-2 1.7v-7.7h-2.6V221H98v-2.2a5.5 5.5 0 0 0 2.1 1.7 6.7 6.7 0 0 0 2.9.7 7.3 7.3 0 0 0 3.6-1 6.5 6.5 0 0 0 2.5-2.5 7.5 7.5 0 0 0 1-3.7 7.5 7.5 0 0 0-1-3.7 6.4 6.4 0 0 0-2.5-2.5zm.3 8.8a4.4 4.4 0 0 1-1.7 1.8 5 5 0 0 1-4.8 0 4.4 4.4 0 0 1-1.7-1.8 5.8 5.8 0 0 1 0-5.1 4.3 4.3 0 0 1 1.7-1.7 5 5 0 0 1 4.8 0 4.3 4.3 0 0 1 1.7 1.7 5.6 5.6 0 0 1 0 5.1zM121 207a7.3 7.3 0 0 0-2.9.5 5.3 5.3 0 0 0-2 1.5v-7.5h-2.6V221h2.6v-7.2a4.7 4.7 0 0 1 1.2-3.4 4.3 4.3 0 0 1 3.2-1.2 3.7 3.7 0 0 1 2.8 1 4.3 4.3 0 0 1 1 3v7.8h2.5v-8a6 6 0 0 0-1.5-4.5 5.8 5.8 0 0 0-4.3-1.6zm10.5.1h2.5v14h-2.5zm1.3-6.1a1.7 1.7 0 0 0-1.3.6 1.6 1.6 0 0 0-.4 1.1 1.6 1.6 0 0 0 .4 1.2 1.7 1.7 0 0 0 1.3.5 1.7 1.7 0 0 0 1.2-.5 1.6 1.6 0 0 0 .5-1.2 1.5 1.5 0 0 0-.5-1.2 1.7 1.7 0 0 0-1.2-.4zm13.5 6a7.1 7.1 0 0 0-3 .5 5 5 0 0 0-2 1.7V207h-2.5v14h2.5v-7.2a4.7 4.7 0 0 1 1.2-3.5 4.3 4.3 0 0 1 3.3-1.2 3.7 3.7 0 0 1 2.8 1 4.3 4.3 0 0 1 1 3v7.8h2.5v-8a6.1 6.1 0 0 0-1.6-4.5 5.8 5.8 0 0 0-4.2-1.6zm15.6 12a2.1 2.1 0 0 1-1.7-.6 2.4 2.4 0 0 1-.5-1.7v-7.6h4v-2h-4V204h-2.5v3h-2.4v2.1h2.4v7.7a4.3 4.3 0 0 0 1.1 3.2 4.5 4.5 0 0 0 3.3 1.2 5.7 5.7 0 0 0 1.7-.3 3.6 3.6 0 0 0 1.3-.7l-.7-1.8a3 3 0 0 1-2 .7z" fill="#18186d"/><path d="M168.6 217.6a1.8 1.8 0 0 0-1.3.5 1.7 1.7 0 0 0-.5 1.3 1.8 1.8 0 0 0 1.8 1.8 1.7 1.7 0 0 0 1.2-.5 1.8 1.8 0 0 0 .5-1.3 1.7 1.7 0 0 0-.5-1.3 1.6 1.6 0 0 0-1.2-.5zm6.6-16.6a1.6 1.6 0 0 0-1.2.6 1.6 1.6 0 0 0-.5 1.1 1.5 1.5 0 0 0 .5 1.2 1.7 1.7 0 0 0 1.2.5 1.7 1.7 0 0 0 1.2-.5 1.7 1.7 0 0 0 .5-1.2 1.5 1.5 0 0 0-.5-1.2 1.8 1.8 0 0 0-1.2-.4zm-1.3 6.1h2.5v14h-2.5zm19.7 3.3a6.7 6.7 0 0 0-2.6-2.6 8.1 8.1 0 0 0-7.5 0 6.7 6.7 0 0 0-2.6 2.6 7.7 7.7 0 0 0 0 7.3 6.7 6.7 0 0 0 2.6 2.6 8 8 0 0 0 7.5 0 6.7 6.7 0 0 0 2.6-2.6 7.7 7.7 0 0 0 0-7.3zm-2.2 6.2a4.3 4.3 0 0 1-1.7 1.8 5 5 0 0 1-4.8 0 4.5 4.5 0 0 1-1.7-1.8 5.6 5.6 0 0 1 0-5.1 4.4 4.4 0 0 1 1.7-1.7 5 5 0 0 1 4.8 0 4.2 4.2 0 0 1 1.7 1.7 5.7 5.7 0 0 1 0 5.1z" fill="#4046dd"/></svg>