<svg xmlns="http://www.w3.org/2000/svg" xmlns:xlink="http://www.w3.org/1999/xlink" viewBox="0 0 252 252"><defs><style>.a,.b,.c,.d,.f,.v,.z{fill:none}.s{fill:#fff}.a,.b{stroke:#b2243b;stroke-miterlimit:10}.a{stroke-width:1.15px}.b{stroke-width:.58px}.j{fill:#b2243b}.r{fill:#f0b270}.e{fill:#2a4d63}.q{fill:#8ec6dd}.u{fill:#96a3e2}.l{fill:#1c418c}.c,.d,.f,.x{stroke-linecap:round;stroke-linejoin:round}.x{stroke-width:1.3}.c,.d,.f{stroke-width:1.28px}.m{fill:#bbc6ef}.n{fill:#6b7fc6}.d{stroke:#1a2f3a}.c{stroke:#1c418c}.f{stroke:#18424c}.o{fill:#ffe9f8;mix-blend-mode:overlay}.p{fill:#233f49}</style><linearGradient id="l1" x1="126" x2="126" y1="173.4" y2="25.9" gradientUnits="userSpaceOnUse"><stop offset="0" stop-color="#ffdb80"/><stop offset="1" stop-color="#f15a29"/></linearGradient><clipPath id="c1"><circle cx="126" cy="126" r="100.2" class="v"/></clipPath><radialGradient id="r1" cx="202.6" cy="116.4" r="107.3" gradientUnits="userSpaceOnUse"><stop offset="0" stop-color="#ffdb80"/><stop offset="1" stop-color="#ffdb80" stop-opacity="0"/></radialGradient><radialGradient id="r2" cx="202.6" cy="116.4" r="52.5" gradientUnits="userSpaceOnUse"><stop offset="0" stop-color="#ffdb80" stop-opacity=".6"/><stop offset="1" stop-color="#ffdb80" stop-opacity="0"/></radialGradient><clipPath id="c2"><path d="M165.6 173.3c-53.1 26.6-86.3-7.8-85-37.3 1.5-31.2 22.1-44.1 52.4-36.7 27.8 6.8 23.4 34.8 20.7 53s13.1 14 13.1 14 2.6-14.3 20.8-11.3c0 0 .4 15.3-11.5 15.7 0 0 10.2 2.7 5.3 18.8-17.7-5.2-15.8-16.2-15.8-16.2z" class="v"/></clipPath><linearGradient id="l2" x1="93.2" x2="93.2" y1="107.7" y2="126.2" gradientUnits="userSpaceOnUse"><stop offset="0" stop-color="#f95a35"/><stop offset="1" stop-color="#e54193"/></linearGradient><linearGradient id="l3" x1="123.7" x2="123.7" y1="116.2" y2="134.7" xlink:href="#l2"/><linearGradient id="l4" x1="62.3" x2="73.6" y1="112.7" y2="77.9" xlink:href="#l1"/><clipPath id="c3"><path d="M70.3 78.9l-10.6 33.7 5.3.7 10.1-30.4-4.8-4z" class="v"/></clipPath><clipPath id="c4"><path d="M58.5 112.6c1.3 10.9 6.8 4.2 9.5-3.7 2.7-8.4 2.5-13.3-.3-13.5-2.6-.2-5 7.5-6.4 12.5s-2.2 2.8-2.2 2.8 1.1-4-.4-4.5c0 0-1.5 4-.7 5 0 0-1 0-2.1 4.6 1.7-.1 2.6-3.2 2.6-3.2z" class="v"/></clipPath><linearGradient id="l5" x1="2380.1" x2="2380.1" y1="537.5" y2="542.6" gradientTransform="matrix(.24 -.97 -.97 -.24 28 2543)" xlink:href="#l2"/><linearGradient id="l6" x1="2382.6" x2="2382.6" y1="539" y2="544.1" gradientTransform="matrix(.24 -.97 -.97 -.24 26 2545.8)" xlink:href="#l2"/><radialGradient id="r3" cx="72.7" cy="78.9" r="18.3" gradientUnits="userSpaceOnUse"><stop offset="0" stop-color="#fff" stop-opacity=".7"/><stop offset="1" stop-color="#fff" stop-opacity="0"/></radialGradient></defs><g style="isolation:isolate"><circle cx="126" cy="126" r="108" class="s"/><circle cx="126" cy="126" r="100.2" fill="url(#l1)"/><g clip-path="url(#c1)"><circle cx="202.6" cy="116.4" r="107.3" fill="url(#r1)"/><circle cx="202.6" cy="116.4" r="21.9" fill="#fff8c2"/><path fill="#e6834e" d="M25.8 144.4h9.8v7.2h11.6V132s11.6-.2 11.6 0v14h2.6l3 3v5H70v-16.4h24v29.2H30.3zm124.5 6.2h11.8V138h13.7s-.4 6.3 0 6.3h5.3v-18h17.5v17h9v-35h9.9l3.2-3.1v-6.8h7.9v69h-76.4z"/><path fill="#e26e41" d="M207.2 79.2v.1-.1l-12.6 92.1h25.1l-12.5-92.1z"/><path fill="#ce5530" d="M230.2 143.4h-9.7v9.5h-12.1v-6.3h-13.8v4h-3.9v8.9h-27.2v-5.2H158V148h-13.6v17.8h87.3v3.7l-1.6-26zM31.9 167.6v-19.7H42v12.9h10.2s1.9 1.5 1.7 1.6 13.5 0 13.5 0v-4.7h9.7v3.3h4.7v6z"/><path d="M170.9 87c0 27-28.9 48.8-64.4 48.8S42 114 42 87" class="a"/><path d="M47 106.6v30.7m3.3-26.3v27.1m3.4-23.1v23m3.3-19.7V138m3.4-16.7v16.8m3.3-14.6v14.6m3.4-12.1v12.1m3.3-10.6v10.6m3.4-9.5v8.7m3.3-7.2v7.2m3.4-5.6v5.6m3.3-4.6v4.6m3.4-3.7v3.7m3.3-3.3v3.3m3.4-2.5v2.5m3.3-2.3v2.7m3.4-2.3v2.3m3.3-2v2m61.6-31.1v30.7m3.3-38.8v38.7m-6.7-26.2v27.1m-3.3-23.1v23m-3.4-19.7V138m-3.3-16.7v16.8m-3.4-14.6v14.6m-3.3-12.1v12.1m-3.4-10.6v10.6m-3.3-9.5v8.7m-3.4-7.2v7.2m-3.3-5.6v5.6m-3.4-4.6v4.6m-3.3-3.7v3.7m-3.4-3.3v3.3m-3.3-2.5v2.5m-3.4-2.3v2.7m-3.3-2.3v2.3m-3.4-2v2" class="b"/><path d="M235.3 136.1c-35.6 0-64.4-21.8-64.4-48.7" class="a"/><path d="M175.8 107v30.7m3.4-26.4v27.2m3.3-23.1v22.9m3.4-19.6v19.6m3.3-16.6v16.8m3.4-14.6v14.6m3.3-12.2v12.2m3.4-10.6v10.6m3.3-9.6v8.8m3.3-7.3v7.3m3.4-5.7v5.7m3.4-4.7v4.7m3.3-3.8v3.8m3.3-3.3v3.3m3.4-2.5v2.5m3.4-2.3v2.7m3.3-2.3v2.3m3.4-2.1v2.1" class="b"/><path d="M-22.5 136.1c35.6 0 64.5-21.8 64.5-48.7" class="a"/><path d="M37 107v30.7m-3.3-26.4v27.2m-3.4-23.1v22.9M27 118.7v19.6m-3.4-16.6v16.8m-3.3-14.6v14.6m-3.4-12.2v12.2m-3.3-10.6v10.6m-3.4-9.6v8.8m-3.3-7.3v7.3M3.5 132v5.7M.2 133v4.7" class="b"/><path d="M54.2 142.4a2 2 0 0 0 2-2v-3h-1.5V122a1 1 0 0 0-.6-1v-13.6a.9.9 0 0 0-.5-.8V96.5a.6.6 0 0 0-.5-.6v-9.6a.5.5 0 0 0-.5-.6h-.2v-1.6a.3.3 0 0 0-.5 0v1.7h-.2a.5.5 0 0 0-.5.5v1.1h-8.3v-1.1a.5.5 0 0 0-.6-.6v-1.6a.3.3 0 1 0-.7 0v1.7h-.1a.5.5 0 0 0-.5.5v9.6a.6.6 0 0 0-.5.6v10a.9.9 0 0 0-.5.9V121a1 1 0 0 0-.6 1v15.4h-1.5v3.1a2 2 0 0 0 2 2h.1v11.7h-1.3v3.8H38v6.3h7.9V158H45v-3.8h-1.3v-11.8h.2a2 2 0 0 0 2-2v-3h-1.5v-13.1h5.1v13h-1.4v3.2a2 2 0 0 0 1.9 1.9h.1v11.8H49v3.8h-.8v6.3h7.9V158h-.8v-3.8h-1.2v-11.8zm-10.9-35.8v-8h7.4v8a.9.9 0 0 0-.5.8v.8h-6.4v-.8a.9.9 0 0 0-.5-.8zm7.9-17.2v6.5a.6.6 0 0 0-.5.6v.3h-7.4v-.3a.6.6 0 0 0-.4-.6v-6.5zm-6.7 33v-.4a1 1 0 0 0-.7-1v-10.9h6.4v11a1 1 0 0 0-.6 1v.3zm138.5 20a2 2 0 0 0 2-2v-3h-1.5V122a1 1 0 0 0-.6-1v-13.6a.9.9 0 0 0-.6-.8V96.5a.6.6 0 0 0-.4-.6v-9.6a.5.5 0 0 0-.5-.6h-.2v-1.6a.3.3 0 0 0-.5 0v1.7h-.2a.5.5 0 0 0-.5.5v1.1h-8.3v-1.1a.5.5 0 0 0-.5-.6h-.2v-1.6a.3.3 0 0 0-.3-.3.3.3 0 0 0-.3.3v1.7h-.1a.5.5 0 0 0-.5.5v9.6a.6.6 0 0 0-.5.6v10a.9.9 0 0 0-.5.9V121a1 1 0 0 0-.6 1v15.4h-1.5v3.1a2 2 0 0 0 2 2v11.7h-1.2v3.8h-.7v6.3h7.8V158h-.7v-3.8h-1.3v-11.8h.2a2 2 0 0 0 1.9-2v-3h-1.4v-13.1h5v13H177v3.2a2 2 0 0 0 2 1.9v11.8h-1.3v3.8h-.7v6.3h7.9V158h-.8v-3.8H183v-11.8zm-10.9-35.8v-8h7.4v8a.9.9 0 0 0-.5.8v.8h-6.4v-.8a.9.9 0 0 0-.5-.8zm7.9-17.2v6.5a.6.6 0 0 0-.5.6v.3h-7.4v-.3a.6.6 0 0 0-.4-.6v-6.5zm-6.7 33v-.4a1 1 0 0 0-.7-1v-10.9h6.4v11a1 1 0 0 0-.6 1v.3z" class="j"/><path d="M23.4 137.3h206.7v2.6H23.4z" class="j"/><path d="M181 87c0 27-28.8 48.8-64.4 48.8S52.2 114 52.2 87" class="a"/><path d="M57.1 106.6v30.7m3.4-26.3v27.1m3.4-23.1v23m3.3-19.7V138m3.3-16.7v16.8m3.4-14.6v14.6m3.4-12.1v12.1m3.3-10.6v10.6m3.4-9.5v8.7m3.3-7.2v7.2m3.4-5.6v5.6m3.3-4.6v4.6m3.3-3.7v3.7m3.4-3.3v3.3m3.3-2.5v2.5m3.4-2.3v2.7m3.3-2.3v2.3m3.4-2v2m61.6-31.1v30.7m3.3-38.8v38.7m-6.7-26.2v27.1M169 115v23m-3.4-19.7V138m-3.3-16.7v16.8m-3.4-14.6v14.6m-3.3-12.1v12.1m-3.4-10.6v10.6m-3.3-9.5v8.7m-3.4-7.2v7.2m-3.3-5.6v5.6m-3.4-4.6v4.6m-3.3-3.7v3.7m-3.4-3.3v3.3m-3.3-2.5v2.5m-3.4-2.3v2.7m-3.3-2.3v2.3m-3.4-2v2" class="b"/><path d="M245.5 136.1c-35.6 0-64.4-21.8-64.4-48.7" class="a"/><path d="M186 107v30.7m3.3-26.4v27.2m3.4-23.1v22.9m3.3-19.6v19.6m3.4-16.6v16.8m3.3-14.6v14.6m3.4-12.2v12.2m3.3-10.6v10.6m3.4-9.6v8.8m3.3-7.3v7.3m3.4-5.7v5.7m3.3-4.7v4.7m3.4-3.8v3.8m3.3-3.3v3.3m3.4-2.5v2.5m3.3-2.3v2.7m3.4-2.3v2.3m3.3-2.1v2.1" class="b"/><path d="M-12.3 136.1c35.6 0 64.4-21.8 64.4-48.7" class="a"/><path d="M47.2 107v30.7m-3.4-26.4v27.2m-3.3-23.1v22.9m-3.4-19.6v19.6m-3.3-16.6v16.8m-3.4-14.6v14.6m-3.3-12.2v12.2m-3.3-10.6v10.6m-3.4-9.6v8.8m-3.3-7.3v7.3m-3.4-5.7v5.7m-3.4-4.7v4.7M7 133.9v3.8m-3.4-3.3v3.3m-3.3-2.5v2.5" class="b"/><circle cx="202.6" cy="116.4" r="52.5" fill="url(#r2)"/><ellipse cx="72.8" cy="174.5" class="r" rx="2.2" ry=".7"/><ellipse cx="79.5" cy="173.5" class="r" rx="1.5" ry=".5"/><path fill="#3d697f" d="M28.7 164.3h197.5v71H28.7z"/><path d="M36.4 164.3H82s-1.8 2.4-7 3c0 0 3.2.4 3.2 1.5 0 1.7-8.5 2.5-8.5 2.5s5.6 0 5.6 1.7c0 2.5-14.4 3.6-14.4 3.6s4.2 0 4.1 1.5c0 2.3-11 2.6-11 2.6s4.6.7 4.6 2.2c0 1.9-9.3 3-9.3 3l-6 1.7-15.2-20-.6-2.8.5-.5z" class="e"/><ellipse cx="70.7" cy="180.8" class="e" rx="4.1" ry="1.3"/><ellipse cx="173" cy="197.7" class="e" rx="4.1" ry="1.3"/><ellipse cx="71.1" cy="191" class="e" rx="2" ry=".7"/><ellipse cx="179" cy="199.8" class="e" rx="2" ry=".7"/><ellipse cx="74" cy="193.3" class="e" rx="1" ry=".3"/><ellipse cx="61.4" cy="188.4" class="e" rx="6.5" ry="2.1"/><ellipse cx="184.1" cy="194.3" class="e" rx="6.5" ry="2.1"/><path d="M161 164.3s2.4 5.9 12.8 5.9c0 0 3 7.8 17 7.8 0 0-8.5 1.1-8.5 4.4s13.3 3.9 13.3 3.9-4.3.6-4.3 3.5 16.9 4.5 16.9 4.5l18.6-28.6-.6-1.4z" class="e"/><ellipse cx="77.1" cy="175.7" class="r" rx="1.5" ry=".5"/><ellipse cx="161.7" cy="184.6" class="r" rx="2.2" ry=".7"/><ellipse cx="187.1" cy="182.9" class="r" rx="1.6" ry=".5"/><ellipse cx="190.1" cy="185.5" class="r" rx="2.2" ry=".7"/><ellipse cx="164" cy="182.3" class="r" rx=".7" ry=".2"/><ellipse cx="190.7" cy="182.2" class="r" rx=".7" ry=".2"/><ellipse cx="168.4" cy="183.6" class="r" rx="1.5" ry=".5"/><path d="M143.1 216.6c-1.2-.5-2 .8-2.5 2.6-1.3-4-3.5-9-6.5-9.2-1.9-.1-2.3 2.7-2 6.3-3.9-8.8-10.3-22.2-14.5-22.4-3.8-.2-.9 13.9 2 24.5-4.6-4.1-11.3-9.4-15-8.4-5.8 1.6 12 21.5 17.7 23.2 2.6.7 3.2-1.3 3.2-3.8l8.4-1.5.8 3 5.1-4.2v.3l5-.8s1.7-8.4-1.7-9.6zm-40.4-20.1c1.5 2.8 2 6.3 1 6.9s-3.8-1.7-5.4-4.4-2.3-5.4-.7-6.3 3.5 1 5 3.8zm2.3-11.1c.8 2 .8 4.2.1 4.5s-2.3-1.4-3-3.3-1-3.5 0-4 2.2 1 3 2.8zm40.4 16.4c-.2 2-1.3 4-2 4s-1.4-2.2-1.2-4.3.8-3.6 2-3.5 1.4 1.8 1.2 3.8z" class="q"/><path fill="#b2243b" d="M102.6 32h-.6a12.6 12.6 0 0 0 .1-1.6 12.4 12.4 0 0 0-24.7 0v1a10.2 10.2 0 1 0-5.3 19h30.5a9.2 9.2 0 0 0 0-18.4zm58 15h-.4a5.9 5.9 0 0 0 .1-1 7.2 7.2 0 0 0-14.3 0v.6a5.9 5.9 0 1 0-3 11h17.5a5.3 5.3 0 1 0 0-10.7z" opacity=".4"/></g><path d="M58.2 179.8l-3.1.9 1.8-2.7-.5-.6-3.1.9 1.8-2.7-.6-.7-2.4 3.6.6.8 2.9-.9L54 181l.5.7 4.2-1.2-.5-.7zm-.8 3.8a1.1 1.1 0 0 1 .2-.8l2.1 2.4.3-.1a2.3 2.3 0 0 0 .6-1 1.9 1.9 0 0 0 .1-1 2.2 2.2 0 0 0-.5-1 2.2 2.2 0 0 0-.9-.7 2 2 0 0 0-1 0 2.1 2.1 0 0 0-1 .4 2 2 0 0 0-.7 1 1.8 1.8 0 0 0 0 1 2.7 2.7 0 0 0 .5 1.1 2.5 2.5 0 0 0 .8.7 1.8 1.8 0 0 0 .8.2l.1-.8a1.5 1.5 0 0 1-1-.6 1.4 1.4 0 0 1-.4-.8zm1.5-1.4a1.2 1.2 0 0 1 .7.4 1.1 1.1 0 0 1 .3.8 1 1 0 0 1-.3.7l-1.5-1.7a1.2 1.2 0 0 1 .8-.2zm5.3 5.8a1.9 1.9 0 0 0 0-1.1 2.2 2.2 0 0 0-.5-1 2 2 0 0 0-.6-.4 1.7 1.7 0 0 0-.7-.1l1.5-1.5-.7-.7-4 4 .5.7.4-.4a1.4 1.4 0 0 0 .1.7 1.8 1.8 0 0 0 .5.7 2.1 2.1 0 0 0 .9.6 2 2 0 0 0 1 0 2.2 2.2 0 0 0 1-.6 2.3 2.3 0 0 0 .6-1zm-1.2.2a1.3 1.3 0 0 1-1 .4 1.1 1.1 0 0 1-.8-.4 1.2 1.2 0 0 1-.3-.6 1 1 0 0 1 0-.6 1.4 1.4 0 0 1 .3-.6 1.2 1.2 0 0 1 .6-.3 1.1 1.1 0 0 1 .7 0 1.3 1.3 0 0 1 .5.3 1.2 1.2 0 0 1 .4.9 1.3 1.3 0 0 1-.4.9zm5 2.6a1.7 1.7 0 0 0-.6-1.2 2 2 0 0 0-.6-.4 1.5 1.5 0 0 0-.7-.2l1.4-1.5-.7-.6-3.9 4.2.7.6 1.4-1.5a1.3 1.3 0 0 1 .8-.5 1 1 0 0 1 .9.4 1 1 0 0 1 .3.7 1.1 1.1 0 0 1-.3.7l-1.6 1.6.7.7 1.6-1.7a1.8 1.8 0 0 0 .6-1.3zm-1.1 3.9l2.6-3.1.8.6-2.7 3.1zm3.9-3.2a.6.6 0 0 0 .4-.2.5.5 0 0 0 .1-.5.7.7 0 0 0-.2-.4.6.6 0 0 0-.4-.1.5.5 0 0 0-.4.2.5.5 0 0 0-.2.4.6.6 0 0 0 .3.4.6.6 0 0 0 .4.2zm3 3.9a1.7 1.7 0 0 0-.7-1 2.1 2.1 0 0 0-.8-.5 1.6 1.6 0 0 0-.7 0l.3-.4-.7-.5-2.5 3.2.7.6 1.3-1.6a1.2 1.2 0 0 1 .8-.6 1.1 1.1 0 0 1 .9.3 1 1 0 0 1 .4.6 1.2 1.2 0 0 1-.3.8l-1.4 1.8.8.6 1.4-1.9a1.8 1.8 0 0 0 .5-1.4zm2.9.6l-.8-.6-.5.8-.5-.4-.5.7.6.3-1.2 1.7a1.3 1.3 0 0 0-.3 1 1.4 1.4 0 0 0 .7.9 1.8 1.8 0 0 0 .4.2 1 1 0 0 0 .5 0l.2-.6a.8.8 0 0 1-.6-.2.6.6 0 0 1-.2-.4.7.7 0 0 1 .1-.5l1.2-1.6.9.7.4-.7-.9-.6zm0 4.5a.6.6 0 0 0-.5 0 .6.6 0 0 0-.4.2.7.7 0 0 0 0 .5.6.6 0 0 0 .2.4.6.6 0 0 0 .5 0 .6.6 0 0 0 .4-.2.7.7 0 0 0 0-.5.6.6 0 0 0-.2-.4zm.7 2l2.1-3.5.9.6-2.2 3.4zm2.9-3.9a.6.6 0 0 0 .5.1.6.6 0 0 0 .4-.7.6.6 0 0 0-.3-.3.6.6 0 0 0-.4-.1.6.6 0 0 0-.4.2.6.6 0 0 0 0 .5.7.7 0 0 0 .2.3zm3.6 3.2a2.5 2.5 0 0 0-2-1.2 2 2 0 0 0-1 .3 2 2 0 0 0-.9.8 2.2 2.2 0 0 0-.3 1.1 2 2 0 0 0 .3 1 2.5 2.5 0 0 0 2 1.2 2 2 0 0 0 1-.3 2.2 2.2 0 0 0 .8-.8 2 2 0 0 0 .3-1 2 2 0 0 0-.2-1.1zm-.9 1.6a1.3 1.3 0 0 1-.8.6 1.2 1.2 0 0 1-1 0 1.2 1.2 0 0 1-.5-.8 1.3 1.3 0 0 1 .2-1 1.3 1.3 0 0 1 .7-.7 1.3 1.3 0 0 1 1.6.9 1.3 1.3 0 0 1-.2 1z" class="q"/><path d="M85.1 135s-8.3-15.3-21.8-23.4c0 0-11.7 30.4 23.3 43" class="u"/><path d="M84.6 135.2a69.4 69.4 0 0 0-4.4-6.6 77.4 77.4 0 0 0-5-6.2 62.8 62.8 0 0 0-5.9-5.6 50.5 50.5 0 0 0-6.4-4.6l1-.4a35.5 35.5 0 0 0-1.7 13.3 29.3 29.3 0 0 0 3.6 12.8 31 31 0 0 0 9 9.9 48 48 0 0 0 12 6.2.6.6 0 0 1 .4.8.6.6 0 0 1-.8.3 49.4 49.4 0 0 1-12.4-6.3 32 32 0 0 1-9.4-10.3 30.6 30.6 0 0 1-3.9-13.4 37.1 37.1 0 0 1 .3-7 33.7 33.7 0 0 1 1.5-6.8.7.7 0 0 1 1-.5l.1.1a51.8 51.8 0 0 1 6.6 4.8 63 63 0 0 1 5.9 5.8 75.7 75.7 0 0 1 5 6.3 69.2 69.2 0 0 1 4.5 6.9.6.6 0 0 1-1 .5z" class="l"/><path fill="#c64063" stroke="#661433" d="M151.4 119.3s32.3 30 22.6 31.2-29.5-17.8-29.5-17.8z" class="x"/><path d="M165.6 173.3c-53.1 26.6-86.3-7.8-85-37.3 1.5-31.2 22.1-44.1 52.4-36.7 27.8 6.8 23.4 34.8 20.7 53s13.1 14 13.1 14 2.6-14.3 20.8-11.3c0 0 .4 15.3-11.5 15.7 0 0 10.2 2.7 5.3 18.8-17.7-5.2-15.8-16.2-15.8-16.2z" class="u"/><g clip-path="url(#c2)"><path d="M79 148.1s14.8-20.1 41.7 11.4c18.4 21.6 44.9 13.8 44.9 13.8l-9.7 16.2-49.3 7.8-31-22.2-3.1-24.5z" class="m"/><ellipse cx="155.1" cy="132.5" class="n" rx="5.2" ry="12.3"/><path d="M144.4 140.9c-1.5-.2-2-3-1.7-5.5s1.2-4.2 2.5-3.7c1 .3 1.7 2.2 1.5 4.8s-1.3 4.5-2.3 4.4z" class="n"/><ellipse cx="146.8" cy="145.2" class="n" rx="2.2" ry="1.1" transform="rotate(-88.9 146.8 145.2)"/></g><path fill="#0f181c" stroke="#1a2f3a" d="M118.4 96.5s25.8 5.6 26.7 12l2.2-19.1-13.8-5z" class="x"/><path d="M165.6 173.3c-53.1 26.6-86.3-7.8-85-37.3 1.5-31.2 22.1-44.1 52.4-36.7 27.8 6.8 23.4 34.8 20.7 53s13.1 14 13.1 14 2.6-14.3 20.8-11.3c0 0 .4 15.3-11.5 15.7 0 0 10.2 2.7 5.3 18.8-17.7-5.2-15.8-16.2-15.8-16.2z" class="c"/><path fill="#31424c" stroke="#1a2f3a" d="M137.6 81.6c-10.5-2-27.4 16.2-27.4 16.2a69.3 69.3 0 0 1 9.7 2.6c4.5-6.7 8.5-11 14.2-8.8 6.2 2.4 7.1 6.5.1 15.4a113.1 113.1 0 0 1 29 24.2s3.5-5.2 6-17.8-21.2-29.7-31.6-31.8z" class="x"/><path stroke="#466877" d="M155.7 91.3s7.6 8.1-4.2 28" class="x z"/><path d="M137.6 81.6c-10.5-2-27.4 16.2-27.4 16.2a69.3 69.3 0 0 1 9.7 2.6c4.5-6.7 8.5-11 14.2-8.8 6.2 2.4 7.1 6.5.1 15.4a113.1 113.1 0 0 1 29 24.2s3.5-5.2 6-17.8-21.2-29.7-31.6-31.8z" class="d"/><path fill="#cae8ef" stroke="#4b8087" d="M120.7 97.5L134 59.3l.5 39.7c.2 4.1-7.6 2.9-7.6 2.9s-7-.9-6-4.4z" class="x"/><path fill="none" stroke="#82bbc4" stroke-linecap="round" stroke-linejoin="round" stroke-width="1.3" d="M121.7 95.1c1.3.5 7.6 2.3 12.4-1.8m-9.1-8.1a13 13 0 0 0 9.2-1.6m-5.6-8.9a13 13 0 0 0 5.5-.8"/><path stroke="#4b8087" d="M120.7 97.5L134 59.3l.5 39.7" class="x z"/><path fill="#202e35" stroke="#13242b" d="M138 101c-4.3-3-12.7-5.9-17.4-5.9-1.8 0-3.7 1.2-4 2.8-.3 2 1.2 2.1 2.6 2.4a42 42 0 0 1 15 6.7c.2 0 2.8-3.4 3.9-6z" class="x"/><path d="M103.5 114.6s8.6-4.7 11.8 3.7" class="f"/><circle cx="93.2" cy="116.2" r="10.3" fill="url(#l2)"/><circle cx="93.2" cy="116.2" r="10.3" class="f"/><circle cx="123.7" cy="124.6" r="10.3" fill="url(#l3)"/><circle cx="123.7" cy="124.6" r="10.3" class="f"/><path d="M93.2 107a9.2 9.2 0 0 0-8.5 12.6 40 40 0 0 1 17.2-6.5 9.2 9.2 0 0 0-8.7-6.1zm30.5 8.7a9.2 9.2 0 0 0-9.1 9.1 9 9 0 0 0 .6 3.5 39 39 0 0 1 17.2-6.5 9.2 9.2 0 0 0-8.7-6.1z" class="o"/><path d="M106.6 124.7c-.1 0-3.2-2.7-4.6.1-1.2 2.4 2.6 3.3 2.6 3.3s-4-1-4.4 1.9 4 3 4 3" class="c"/><path d="M123.8 155.9s-14.8 22.7 11.3 38.4c0 0 8.4-18.7-2.3-38.4" class="u"/><path d="M124.2 156.1a29.8 29.8 0 0 0-3.7 10.4 23.8 23.8 0 0 0 .7 11 24.3 24.3 0 0 0 5.6 9.3 38.4 38.4 0 0 0 8.6 6.9l-1 .3a42 42 0 0 0 2.6-9.3 45 45 0 0 0 .5-9.8v-1.2l-.2-1.3-.3-2.4a43.4 43.4 0 0 0-1-4.8 46 46 0 0 0-3.7-9 .6.6 0 1 1 1-.6 47.3 47.3 0 0 1 3.8 9.3 45.4 45.4 0 0 1 1.2 5l.3 2.4.2 1.3v1.2a45.7 45.7 0 0 1-.4 10 43.3 43.3 0 0 1-2.7 9.9.7.7 0 0 1-.9.4l-.1-.1a40.4 40.4 0 0 1-8.9-7.2 25.8 25.8 0 0 1-5.7-10 25.2 25.2 0 0 1-.6-11.4 30.7 30.7 0 0 1 4-10.8.5.5 0 0 1 .6-.1.5.5 0 0 1 .2.6z" class="l"/><circle cx="89.4" cy="110.4" r="1.5" class="s"/><circle cx="86.8" cy="112.8" r=".8" class="s"/><circle cx="119.3" cy="119.8" r="1.5" class="s"/><circle cx="116.7" cy="122.3" r=".8" class="s"/><path fill="#395866" d="M66.8 75.8h3.1l7.2 6.6-11 32.8-8.1-.9-1.7-1 10.5-37.5z"/><path d="M69.9 75.8L58 114.3l-1.7-1 10.5-37.5h3.1z" class="p"/><path d="M66.8 75.8h3.1l7.2 6.6-11 32.8-8.1-.9-1.7-1 10.5-37.5z" class="d"/><path fill="url(#l4)" d="M70.3 78.9l-10.6 33.7 5.3.7 10.1-30.4-4.8-4z"/><g clip-path="url(#c3)"><path d="M67.7 108.3s2-3.5 3.7-4.7c0 0-2 9-5.6 9.8" class="u"/><path fill="#c64063" d="M64.5 99.3s-5 5.7-4.5 6.7 3.7-2.6 3.7-2.6z"/><path d="M58.5 112.6c1.3 10.9 6.8 4.2 9.5-3.7 2.7-8.4 2.5-13.3-.3-13.5-2.6-.2-5 7.5-6.4 12.5s-2.2 2.8-2.2 2.8 1.1-4-.4-4.5c0 0-1.5 4-.7 5 0 0-1 0-2.1 4.6 1.7-.1 2.6-3.2 2.6-3.2z" class="u"/><g clip-path="url(#c4)"><path d="M67 112.2s.8-6.4-4 0c-3.4 4.4-4.5.4-4.5.4l-.8 5 2.7 5.6 4.3-3.6 2.5-6.3z" class="m"/><ellipse cx="63" cy="102.6" class="n" rx="3.5" ry=".5" transform="rotate(-71.2 63 102.6)"/><path d="M63 105.6l.6-1.4.2-1.1c-.1 0-.3.4-.5 1.1a3 3 0 0 0-.3 1.4z" class="n"/><ellipse cx="62.4" cy="106.5" class="n" rx=".6" ry=".1" transform="rotate(-71.7 62.5 106.5)"/></g><path fill="#0f181c" d="M69 95.7s-2.3-.4-3 1.2l1.6-5.2 1.4-.3z"/><path fill="#31424c" d="M69 90.3c1 .2.4 6.3.4 6.3a2.2 2.2 0 0 0-.9 0c.3-2 .4-3.5-.2-3.3s-1 1.2-1.4 4a19.9 19.9 0 0 0-4.3 4.3 49 49 0 0 1 1.2-5.1c1-3.6 4.3-6.3 5.2-6.2z"/><path d="M66.8 91.6s-1.3 1.6-2.3 7.7m4.5-9c1 .2.4 6.3.4 6.3a2.2 2.2 0 0 0-.9 0c.3-2 .4-3.5-.2-3.3s-1 1.2-1.4 4a19.9 19.9 0 0 0-4.3 4.3 49 49 0 0 1 1.2-5.1c1-3.6 4.3-6.3 5.2-6.2z" class="v"/><path fill="#cae8ef" d="M68.7 95.8l2.6-11.1-3.7 10.5c-.4 1 .3 1.3.3 1.3s.5.3.8-.7z"/><path d="M68.9 95c-.2 0-.8 0-.8-1.3m1.4-1.5c-.2 0-.4-.3-.5-1m1.3-2a.9.9 0 0 1-.3-.6" class="v"/><path d="M68.7 95.8l2.6-11.1-3.7 10.5" class="v"/><path fill="#202e35" d="M67.2 95.5c.6-.5 1.4-.7 1.7-.3a1.3 1.3 0 0 1 0 1c-.1.5-.2.4-.4.4a2.1 2.1 0 0 0-1.6.7 13.7 13.7 0 0 1 .3-1.8z"/><path d="M68.3 101.6s-.1-2-1.1 0" class="v"/><ellipse cx="68.9" cy="102.7" fill="url(#l5)" rx="2.9" ry=".9" transform="rotate(-73.9 68.9 102.7)"/><ellipse cx="68.9" cy="102.7" class="v" rx="2.9" ry=".9" transform="rotate(-73.7 69.1 102.8)"/><ellipse cx="66" cy="102.7" fill="url(#l6)" rx="2.9" ry=".9" transform="rotate(-73.9 66 102.7)"/><ellipse cx="66" cy="102.7" class="v" rx="2.9" ry=".9" transform="rotate(-73.9 66 102.7)"/><path d="M69.8 100.3c.3.3.2 1.7-.2 3a6.3 6.3 0 0 1-.4 1 6.4 6.4 0 0 0-.6-3c.4-.9.9-1.3 1.2-1zm-3 .1c.4.3.3 1.7-.2 3a6.4 6.4 0 0 1-.4 1 6.3 6.3 0 0 0-.6-3c.5-.9 1-1.3 1.2-1z" class="o"/><path d="M67.2 104s.4-.5.3.4-.5.6-.5.6.4 0 .1.8-.5.5-.5.5" class="v"/><path d="M63 111s-1 7-4.3 9.4a38.3 38.3 0 0 1 3.7-10" class="u"/></g><ellipse cx="71.7" cy="79.2" class="p" rx=".3" ry=".2" transform="rotate(-63 71.7 79.2)"/><ellipse cx="72.3" cy="79.6" class="p" rx=".3" ry=".2" transform="rotate(-63 72.3 79.6)"/><circle cx="72.7" cy="78.9" r="18.3" fill="url(#r3)" style="mix-blend-mode:screen"/><path fill="none" stroke="#fff" stroke-linecap="round" stroke-linejoin="round" stroke-width="1.4" d="M75 74l1.5-2.6m1.1 4.7l3.2-2.2m-1.6 5h2.7"/></g></svg>