<svg xmlns="http://www.w3.org/2000/svg" xmlns:xlink="http://www.w3.org/1999/xlink" viewBox="0 0 252 252"><defs><style>.ah{stroke-width:1.39}.ai{stroke-width:1.16}.ag,.aj,.b,.e,.q{fill:none}.x{fill:#fff}.af{opacity:.8}.a{fill:#9b4a33}.u{fill:#d6ab8d}.w{fill:#5a5a6b}.v{fill:#b38568}.s{fill:#7a543b}.e{stroke:#3f3f4f}.ai,.b,.e,.q{stroke-miterlimit:10}.b,.e,.q{stroke-width:.58px}.m{fill:#996948}.l{fill:#4f1e08}.k{fill:#ac5321}.j{fill:#924016}.b{stroke:#a18c7c}.ah{stroke-linecap:round;stroke-linejoin:round}.ae{fill:#3f4b4f}.q{stroke:#3f4b4f}.cls-44{fill:#d9e8e8}.z{fill:#93a0df}.aa{fill:#1c4189}.ab{fill:#060b1c}.ac{fill:#2b5596}.ak{stop-color:#c68cce}.al{stop-color:#fff}.am{stop-opacity:.6}.an{stop-opacity:0}</style><linearGradient id="l1" x1="126" x2="126" y1="168.9" y2="34.97" gradientUnits="userSpaceOnUse"><stop offset="0" stop-color="#eea468"/><stop offset=".35" stop-color="#d1dbd9"/><stop offset=".65" stop-color="#c1e9ea"/><stop offset=".98" stop-color="#a183c4"/></linearGradient><clipPath id="c1"><circle cx="126" cy="126" r="100.98" class="ag"/></clipPath><linearGradient id="l2" x1="46.67" x2="46.67" y1="69.99" y2="156.83" gradientUnits="userSpaceOnUse"><stop class="ak am" offset="0"/><stop class="ak an" offset=".98"/></linearGradient><linearGradient id="l3" x1="146.05" x2="146.05" y1="55.2" y2="128.16" xlink:href="#l2"/><linearGradient id="l4" x1="207.91" x2="207.91" y1="103.62" y2="190.66" xlink:href="#l2"/><clipPath id="c2"><circle cx="152.87" cy="112.59" r="8.03" class="ag"/></clipPath><linearGradient id="l5" x1="2962.08" x2="2962.08" y1="169.76" y2="473.59" gradientTransform="rotate(180 1544.4 207.34)" gradientUnits="userSpaceOnUse"><stop class="al am" offset="0"/><stop class="al an" offset=".98"/></linearGradient><clipPath id="c3"><path d="M164.13 164.79s-16.53 16.58-39.29 16.53C59.58 181.16 67 119.85 79 107.68s52.66-13.63 57 21.32 28 29.56 28 29.56-.6-17.56 15.64-15.66c0 0 1.52 16-7.47 17.76 0 0 9.93 5.29 7 19.44.02 0-13.67 1.8-15.04-15.31z" class="ag"/></clipPath><clipPath id="c4"><path d="M88.7 134.74c5.52-3.58 14.33-3.58 14.33-3.58s-.16 7.4-6.11 8.88c-4.37 1.09-7.42-1.88-8.22-5.3z" class="ag"/></clipPath></defs><circle cx="126" cy="126" r="108.82" class="x"/><circle cx="126" cy="126" r="100.98" fill="url(#l1)"/><g clip-path="url(#c1)"><g class="af"><path fill="url(#l2)" d="M76.18 116.72a42.19 42.19 0 1 0-63.75 18.62 45.5 45.5 0 1 0 63.75-18.62z"/><path fill="url(#l3)" d="M170.84 138.4a25.18 25.18 0 0 1 23.85-25.15 25.19 25.19 0 0 1 14.55-20.92A26.51 26.51 0 0 0 186.83 80a27.1 27.1 0 0 0-5 .47 33.8 33.8 0 1 0-64.29 17.07A48.22 48.22 0 1 0 173.88 166v-15.59a25.07 25.07 0 0 1-3.04-12.01z"/><path fill="url(#l4)" d="M245 115.21a25.18 25.18 0 0 0-50.29-2 25.2 25.2 0 0 0-20.81 37.16v57.75h60.94L245 157.46l-5-27.13a25.06 25.06 0 0 0 5-15.12z"/></g><path fill="#827ba8" d="M59.22 119a38.4 38.4 0 0 0 .61-6.74 37.27 37.27 0 0 0-.31-4.75c2.78-.48 4.81-2 4.81-3.79 0-2.17-2.95-3.93-6.61-4a38.06 38.06 0 0 0-5.1-9.85 3.63 3.63 0 0 0 2.34-3c0-2.19-3-4-6.72-4a10.44 10.44 0 0 0-1.88.16 38.6 38.6 0 0 0-9-5.74 2.57 2.57 0 0 0 .16-.86c0-2.19-3-4-6.71-4A8.87 8.87 0 0 0 25.47 74a38.61 38.61 0 0 0-4-.21 39.11 39.11 0 0 0-5.22.36 9.72 9.72 0 0 0-4.48-1C8.05 73.26 5 75 5 77.22a2.34 2.34 0 0 0 0 .38 38.39 38.39 0 0 0-8.46 5.49A11.28 11.28 0 0 0-5 83c-3.71 0-6.72 1.77-6.72 4a3.55 3.55 0 0 0 2.15 2.9 38.28 38.28 0 0 0-5.18 10c-3.69 0-6.67 1.78-6.67 4 0 1.81 2.06 3.33 4.87 3.8a39.17 39.17 0 0 0-.3 4.74 38.65 38.65 0 0 0 .65 7c-3 .4-5.22 2-5.22 3.86 0 2.18 3 4 6.71 4h.83a38.59 38.59 0 0 0 5.73 9.52c-1.91.7-3.19 1.94-3.19 3.36 0 2.19 3 4 6.72 4a10.3 10.3 0 0 0 3.59-.62 38.82 38.82 0 0 0 7.25 4.16A3 3 0 0 0 5 149.66c0 2.19 3 4 6.72 4 3.21 0 5.9-1.33 6.56-3.11 1 .08 2.08.14 3.14.14s2.11-.06 3.15-.14c.66 1.78 3.34 3.11 6.56 3.11 3.71 0 6.71-1.77 6.71-4a2.93 2.93 0 0 0-1.13-2.2 38.68 38.68 0 0 0 7.39-4.26 10.13 10.13 0 0 0 3.83.72c3.71 0 6.72-1.78 6.72-4 0-1.49-1.41-2.8-3.49-3.47a38.21 38.21 0 0 0 5.84-9.64h.66c3.71 0 6.71-1.78 6.71-4-.04-1.81-2.21-3.36-5.15-3.81zm-34.59 29.76c-.86.07-1.72.12-2.59.13v-31h.3l7.5 28c-2.58.19-4.62 1.37-5.21 2.87zm-11.54-3l7.49-28h.3v31c-.87 0-1.73-.06-2.59-.13-.59-1.37-2.63-2.55-5.2-2.86zm-27.59-26.57a35.65 35.65 0 0 1-.65-6.33h31v.3l-26.22 7a9.75 9.75 0 0 0-4.13-.97zm1.5-19.28a36.49 36.49 0 0 1 2.48-5.43L16.35 110a2.36 2.36 0 0 0-.12.28L-8 103.78c0-1.88-2.15-3.41-5-3.87zm63.91 3.83a.43.43 0 0 1 0 .05l-24.22 6.49a2.33 2.33 0 0 0-.11-.28l26.87-15.52a36 36 0 0 1 2.48 5.43c-2.93.44-5.03 1.98-5.03 3.83zm-27.44 3.31l7.12-26.57h.26a8.68 8.68 0 0 0 5.47-1.68c1 .45 2 .94 2.95 1.48l-15.52 26.89zm5.94-26.65l-7.07 26.35h-.3v-31c.74 0 1.48 0 2.2.1a2.46 2.46 0 0 0-.12.76c0 1.81 2.26 3.39 5.29 3.79zm-8.53 26.31h-.3L13.68 81c2.77-.49 4.79-2 4.79-3.8a2.6 2.6 0 0 0-.44-1.4c.94-.09 1.89-.13 2.85-.15zm-9.12-25.52h.76l6.94 25.89a2.36 2.36 0 0 0-.28.12L3.66 80.29c.73-.41 1.47-.79 2.22-1.15a8.26 8.26 0 0 0 5.88 2.05zM27 112.86h31a36.59 36.59 0 0 1-.59 6 9.32 9.32 0 0 0-4.65 1.18L27 113.16v-.3zm31-1.16H27c0-.1 0-.2-.05-.3l24.21-6.49c.85 1.62 3.4 2.79 6.42 2.79h.17a35.53 35.53 0 0 1 .32 4zm-5.12-18.23L26 109a1.88 1.88 0 0 0-.18-.24l18.57-18.59a10.2 10.2 0 0 0 3.85.72 10.89 10.89 0 0 0 2.69-.33Q52 92 52.88 93.47zm-9.57-3.86L25 107.93l-.24-.18 15.51-26.88a35.71 35.71 0 0 1 4.07 2.84c-1.7.72-2.81 1.89-2.81 3.22a3.34 3.34 0 0 0 1.78 2.68zM2.66 80.87l15.51 26.88-.24.18L-.28 89.72a3.42 3.42 0 0 0 1.94-2.79c0-1.38-1.18-2.59-3-3.3a36.62 36.62 0 0 1 4-2.76zM-5 90.89a10.43 10.43 0 0 0 3.66-.64l18.5 18.5-.18.24-26.93-15.52c.61-1 1.28-2 2-3a10.34 10.34 0 0 0 2.95.42zm-9.71 16.81c3 0 5.58-1.18 6.43-2.8l24.26 6.5v.3h-31a37.65 37.65 0 0 1 .28-4zM-9 121.06l25.28-6.78a2.36 2.36 0 0 0 .12.28l-26.88 15.52a35.74 35.74 0 0 1-1.63-3.28c2.42-.6 4.12-2 4.12-3.65A2.92 2.92 0 0 0-9 121.06zm-.9 10l26.88-15.52.18.24-20.33 20.31a12.19 12.19 0 0 0-1.5-.1 10.79 10.79 0 0 0-1.64.13 36.79 36.79 0 0 1-3.64-5.03zm8.14 5.28l19.74-19.74.24.18L2.66 143.7c-.7-.42-1.37-.86-2-1.32A3.14 3.14 0 0 0 2.05 140c0-1.63-1.58-3-3.86-3.63zm5.47 7.9l15.47-26.84.28.11-7.55 28.19h-.15a10.44 10.44 0 0 0-3.71.65 35.23 35.23 0 0 1-4.39-2.08zm27.51 1.43H31l-7.56-28.19.29-.11 15.51 26.87a35.23 35.23 0 0 1-4.39 2.08 10.39 10.39 0 0 0-3.68-.62zm9.1-2l-15.57-26.86.24-.18 19.83 19.83c-2.12.66-3.56 2-3.56 3.49a3 3 0 0 0 1.23 2.29c-.72.51-1.49 1-2.22 1.46zM48 136a11.86 11.86 0 0 0-1.82.15l-20.37-20.34a1.88 1.88 0 0 0 .18-.24l26.89 15.52a37.53 37.53 0 0 1-3.6 5A11.11 11.11 0 0 0 48 136zm5.48-5.91l-26.9-15.53a2.33 2.33 0 0 0 .11-.28l25 6.71a2.75 2.75 0 0 0-.8 1.87c0 1.69 1.78 3.12 4.29 3.7a34.86 34.86 0 0 1-1.73 3.52z" opacity=".3"/><path fill="#827ba8" d="M87.16 159.24v-12.27H73.3v2.75h-2.19v2.46h-2.36v-5.4l-2.95-6.2-3 6.2v8.15h-2.93v-5.79h-8.31l-3.16 27.32h30.07l-.85 5.91h41.71v-23.13H87.16z" class="af"/><path fill="#343e54" d="M181.47 193s6.78-2.91 13.21-.68c7.18 2.51 10.74-.39 10.74-.39l-1.24 14.88-20.48-1.64z"/><path fill="#c36d4e" d="M35.45 187.5h150.56v20.1H35.45z"/><path d="M35.45 187.5h150.56v3.09H35.45z" class="a"/><rect width="6.6" height="3.04" x="133.9" y="191.95" class="a" rx=".51" ry=".51"/><rect width="6.6" height="3.04" x="137.2" y="194.99" class="a" rx=".51" ry=".51"/><rect width="6.6" height="3.04" x="77.62" y="191.95" class="a" rx=".51" ry=".51" transform="rotate(-180 80.92 193.47)"/><rect width="6.6" height="3.04" x="74.33" y="194.99" class="a" rx=".51" ry=".51" transform="rotate(-180 77.63 196.51)"/><path fill="#4a5470" d="M51.35 201.76s10.85-6.51 29.57-1.45c18.27 4.92 18.36-9 51.27 1 19.18 5.81 19.4-7.91 48.91 0 27 7.24 34.94-4.82 34.94-4.82l-3 37.7-159.84.61z"/><path fill="#8492af" d="M177.9 214.8s-14.28-8.52-39.18-3.32c-5.59 1.16-11.39-1.92-15.42-2.61-8.2-1.4-13.64-.88-20.34 3 0 0 9.27-4.25 23.77.68 18.55 6.31 23.92-4 41.89 6.25 11.94 6.78 9.28-4 9.28-4zm-164.14-2.08s15.6 1.83 43.05-5.81c6.16-1.72 12.56.93 16.62 1.46 8.38 1.11 16.14 1.55 24.21-3.13 0 0-10.27 4.95-26.62-.73-20.94-7.28-26.68 7.25-47.65-2-14.49-6.44-9.61 10.21-9.61 10.21z"/><path fill="#492e1b" d="M41.41 102.75a.29.29 0 0 0-.29.29v4.64a.29.29 0 0 0 .58 0V103a.29.29 0 0 0-.29-.25z"/><path fill="#b08366" d="M35.11 125.69h1.9v9.03h-1.9zm5.35 0h1.9v9.03h-1.9zm5.36 0h1.9v9.03h-1.9z"/><path fill="#f0d8be" d="M32.21 134.64h18.41v52.86H32.21zm3.85-21.24h10.71v4.9H36.06z"/><path d="M31.27 134.09h20.29v4.17H31.27zm0-11.62h20.29v4.17H31.27z" class="u"/><path fill="#b58465" d="M36.06 118.3h10.71v4.17H36.06z"/><path d="M41.41 106.26a5.36 5.36 0 0 1 5.36 5.36v1.79H36.06v-1.79a5.36 5.36 0 0 1 5.35-5.36z" class="w"/><path d="M31.27 157.38h20.29v4.17H31.27z" class="u"/><circle cx="41.41" cy="146.97" r="6.51" class="u"/><path d="M50.62 146.97h3v40.53h-3zm-21.41 0h3v40.53h-3z" class="u"/><path d="M29.41 146.97h23.82v10.41H29.41zm18.32 20.27l-6.35-5.02-6.35 5.02h2.24v12.05h8.22v-12.05h2.24z" class="u"/><path d="M31.09 179.29h21.37v8.21H31.09z" class="u"/><path d="M39.1 167.24h4.57v7.85H39.1z" class="v"/><circle cx="41.41" cy="146.97" r="3.75" class="v"/><path d="M39.1 176.46h4.57v1.52H39.1zm-5.19-23.27h2.32v4.83h-2.32zm4.06 0h2.32v4.83h-2.32zm4.05 0h2.32v4.83h-2.32zm4.06 0h2.32v4.83h-2.32z" class="v"/><path fill="#f5e6d0" d="M87.93 160.54v8.41H58.67v-8.41h-5.05v26.96h39.36v-26.96h-5.05z"/><path d="M53.62 160.54l2.53-9.38 2.52 9.38h-5.05z" class="w"/><path d="M56.23 164.31a.68.68 0 0 1 .68.68V172h-1.36v-7a.68.68 0 0 1 .68-.69z" class="s"/><path d="M87.93 160.54l2.52-9.38 2.53 9.38h-5.05z" class="w"/><path d="M90.54 164.31a.68.68 0 0 1 .68.68V172h-1.36v-7a.68.68 0 0 1 .68-.69z" class="s"/><path d="M58.67 168.95l5.29-7.4h18.17l5.8 7.4H58.67zm5.68 2.21a1.55 1.55 0 0 1 1.55 1.55v14.8h-3.1v-14.8a1.55 1.55 0 0 1 1.55-1.55z" class="w"/><path d="M62.8 177h3.09m-3.09 5.37h3.09" class="e"/><path d="M70.29 171.16a1.55 1.55 0 0 1 1.55 1.55v14.8h-3.09v-14.8a1.55 1.55 0 0 1 1.54-1.55z" class="w"/><path d="M68.75 177h3.09m-3.09 5.37h3.09" class="e"/><path d="M76.24 171.16a1.55 1.55 0 0 1 1.55 1.55v14.8h-3.1v-14.8a1.55 1.55 0 0 1 1.55-1.55z" class="w"/><path d="M74.69 177h3.09m-3.09 5.37h3.09" class="e"/><path d="M82.18 171.16a1.55 1.55 0 0 1 1.55 1.55v14.8h-3.1v-14.8a1.55 1.55 0 0 1 1.55-1.55z" class="w"/><path d="M80.63 177h3.09m-3.09 5.37h3.09" class="e"/><path d="M92.98 166.63h35.89v20.87H92.98z" class="v"/><path d="M92.98 168.17h4.67v19.33h-4.67zm31.22 0h4.67v19.33h-4.67z" class="m"/><path fill="#633b25" d="M105.45 179.33a4.09 4.09 0 0 1 4.09 4.09v4.09h-8.17v-4.09a4.09 4.09 0 0 1 4.09-4.09zm10.98.03a4.09 4.09 0 0 1 4.09 4.09v4.09h-8.17v-4.09a4.09 4.09 0 0 1 4.09-4.09z"/><path d="M97.64 176.03h26.55v2.03H97.64z" class="m"/><path fill="#d54c33" d="M128.87 164.28h13.52v23.22h-13.52z"/><path fill="#fdfbfc" stroke="#814134" d="M131.08 167.47h8.77v17.61h-8.77z" class="ai"/><path fill="none" stroke="#814134" stroke-miterlimit="10" stroke-width=".58" d="M131.08 181.82h8.77m-8.61-3.06h8.77m-5.93 6.33v-15.61m2.76 15.61v-15.61"/><path d="M165.9 78.85a.58.58 0 0 0-.56-.58V77.2a.29.29 0 0 0-.58 0v1.07a.58.58 0 0 0 0 1.15v6a.29.29 0 0 0 .58 0v-6a.57.57 0 0 0 .56-.57zM162 56.84a.58.58 0 0 0-.56-.58v-1.07a.29.29 0 0 0-.58 0v1.07a.58.58 0 0 0 0 1.15v6a.29.29 0 0 0 .58 0v-6a.57.57 0 0 0 .56-.57zm-16.1 0a.58.58 0 0 0-.56-.58v-1.07a.29.29 0 0 0-.58 0v1.07a.58.58 0 0 0 0 1.15v6a.29.29 0 0 0 .58 0v-6a.57.57 0 0 0 .56-.57zm-3.99 22.01a.58.58 0 0 0-.56-.58V77.2a.29.29 0 0 0-.58 0v1.07a.58.58 0 0 0 0 1.15v6a.29.29 0 1 0 .58 0v-6a.57.57 0 0 0 .56-.57zm12.03-44.94a.57.57 0 0 0-.56-.57v-1.07a.29.29 0 1 0-.58 0v1.07a.58.58 0 0 0 0 1.15v6a.29.29 0 0 0 .58 0v-6a.58.58 0 0 0 .56-.58z" class="l"/><path d="M140.77 85.89h24.59V187.5h-24.59z" class="k"/><path d="M162.07 101.69h3.29v85.81h-3.29zm-21.3 0h3.29v85.81h-3.29zm0-4.16h24.59v4.16h-24.59zm0-12.61h24.59v2.79h-24.59z" class="j"/><path d="M140.77 124.6h24.59v2.79h-24.59z" class="j"/><path fill="none" stroke="#68290d" stroke-miterlimit="10" stroke-width=".58" d="M163.18 101.69v22.91m1.23-22.91v22.91m-1.39 2.8v60.13m1.23-60.13v60.13m-22.4-85.86v22.92m1.23-22.92v22.92m-1.39 2.79v60.14m1.23-60.14v60.14"/><path d="M144.06 142.58h17.8v2.79h-17.8z" class="j"/><path d="M159.59 129.65a.94.94 0 0 1 .94.94v9.74h-1.88v-9.74a.94.94 0 0 1 .94-.94zm-4.35 0a.94.94 0 0 1 .94.94v9.74h-1.88v-9.74a.94.94 0 0 1 .94-.94zm-4.35 0a.94.94 0 0 1 .94.94v9.74h-1.88v-9.74a.94.94 0 0 1 .94-.94zm-4.35 0a.94.94 0 0 1 .94.94v9.74h-1.88v-9.74a.94.94 0 0 1 .94-.94z" class="l"/><path d="M144.06 161.49h17.8v2.79h-17.8z" class="j"/><path d="M159.59 148.56a.94.94 0 0 1 .94.94v9.74h-1.88v-9.74a.94.94 0 0 1 .94-.94zm-4.35 0a.94.94 0 0 1 .94.94v9.74h-1.88v-9.74a.94.94 0 0 1 .94-.94zm-4.35 0a.94.94 0 0 1 .94.94v9.74h-1.88v-9.74a.94.94 0 0 1 .94-.94zm-4.35 0a.94.94 0 0 1 .94.94v9.74h-1.88v-9.74a.94.94 0 0 1 .94-.94z" class="l"/><path d="M144.06 180.4h17.8v2.79h-17.8z" class="j"/><path d="M159.59 167.47a.94.94 0 0 1 .94.94v9.74h-1.88v-9.74a.94.94 0 0 1 .94-.94zm-4.35 0a.94.94 0 0 1 .94.94v9.74h-1.88v-9.74a.94.94 0 0 1 .94-.94zm-4.35 0a.94.94 0 0 1 .94.94v9.74h-1.88v-9.74a.94.94 0 0 1 .94-.94zm-4.35 0a.94.94 0 0 1 .94.94v9.74h-1.88v-9.74a.94.94 0 0 1 .94-.94zm7.3-72.47v-4a.94.94 0 1 0-1.88 0v4zm4.35 0v-4a.95.95 0 1 0-1.89 0v4zm4.34 0v-4a.95.95 0 1 0-1.89 0v4zm-17.37 0v-4a.94.94 0 1 0-1.88 0v4zm4.34 0v-4a.94.94 0 1 0-1.88 0v4zm11.91-19.94h-16.69l-3.95 9.86h24.59l-3.95-9.86z" class="l"/><path d="M144.74 64.46h16.7v10.6h-16.7z" class="k"/><path d="M144.74 62.99h16.7v2.46h-16.7z" class="j"/><path d="M153.09 38.1c-2.44 10.39-8.35 24.9-8.35 24.9h16.7s-5.9-14.51-8.35-24.9zm5.27 34.6v-4a.95.95 0 0 0-1.89 0v4zm-8.71 0v-4a.94.94 0 0 0-1.88 0v4zm4.35 0v-4a.95.95 0 0 0-1.89 0v4z" class="l"/><circle cx="152.87" cy="112.59" r="8.03" fill="#fdf9eb"/><circle cx="152.87" cy="112.59" r="6.28" class="b"/><circle cx="152.87" cy="112.59" r="4.96" class="b"/><path d="M152.87 107.84v-3.64m-2.37 4.28l-1.82-3.16m.08 4.9l-3.15-1.83m2.52 4.2h-3.64m4.27 2.37l-3.15 1.82m4.89-.08l-1.82 3.15m4.19-2.51v3.64m2.38-4.28l1.82 3.15m-.08-4.89l3.15 1.82m-2.52-4.19h3.64m-4.27-2.37l3.15-1.83m-4.89.09l1.82-3.16" class="b" clip-path="url(#c2)"/><path fill="none" stroke="#302015" stroke-linecap="round" stroke-linejoin="round" stroke-width=".58" d="M151.93 113.01l7.32-3.3m-6.95 3.67l3.03-4.2"/><path d="M186.02 168.05h43.92v1.94h-43.92z" class="ae"/><path stroke="#3f4b4f" d="M185.22 185.09S192.69 172 219.14 172" class="ai aj"/><path d="M185.38 169.35l8 8.01v-7.79l5.37 5.37v-5.59l4.06 4.07v-4.07l3.43 3.43v-3.43l2.93 2.93v-2.93l2.74 2.74v-2.74l2.49 2.49v-2.49l2.31 2.31v-2.31l2.43 2.44" class="q"/><path d="M186.02 134.64h43.92v1.3h-43.92zm0 3.76h43.92v1.3h-43.92z" class="ae"/><path d="M186.01 139.1l3.82-3.81 3.84 3.81 3.81-3.81 3.84 3.81 3.81-3.81 3.84 3.81 3.82-3.81 3.84 3.81 3.81-3.81 3.84 3.81 3.81-3.81 3.84 3.81 3.81-3.81 3.85 3.81 3.81-3.81 3.84 3.81" class="q"/><path d="M186.01 135.29l3.82 3.81 3.84-3.81 3.81 3.81 3.84-3.81 3.81 3.81 3.84-3.81 3.82 3.81 3.84-3.81 3.81 3.81 3.84-3.81 3.81 3.81 3.84-3.81 3.81 3.81 3.85-3.81 3.81 3.81 3.84-3.81" class="q"/><path fill="none" stroke="#e0b222" stroke-linecap="round" stroke-linejoin="round" stroke-width=".58" d="M175.69 103.6v-3.88m-.95 1.21h1.89"/><path fill="none" stroke="#3f4b4f" stroke-linecap="round" stroke-linejoin="round" stroke-width=".58" d="M167.82 118.99v-2.89m-.7.9h1.4m15.03 1.99v-2.89m-.7.9h1.4"/><path d="M168.33 122.66h14.3v11.98h-14.3z" class="ae"/><path d="M165.36 134.71h20.66v52.79h-20.66z" class="cls-44"/><path d="M165.36 126h4.93v10.69h-4.93z" class="cls-44"/><path d="M165.36 126h4.93l-2.47-8.1-2.46 8.1z" class="ae"/><path d="M181.09 126.1h4.93v10.69h-4.93z" class="cls-44"/><path d="M181.09 126.1h4.92l-2.46-8.1-2.46 8.1zm.02 35.79a.78.78 0 0 1 .78.78v6.68h-1.57v-6.68a.78.78 0 0 1 .78-.78zm-3.61 0a.78.78 0 0 1 .78.78v6.68h-1.57v-6.68a.78.78 0 0 1 .79-.78zm-3.62 0a.78.78 0 0 1 .78.78v6.68h-1.56v-6.68a.78.78 0 0 1 .78-.78zm-3.62 0a.78.78 0 0 1 .78.78v6.68h-1.57v-6.68a.78.78 0 0 1 .79-.78zm10.85 15.18a.78.78 0 0 1 .78.78v6.68h-1.57v-6.68a.78.78 0 0 1 .79-.78zm-3.61 0a.78.78 0 0 1 .78.78v6.68h-1.57v-6.68a.78.78 0 0 1 .79-.78zm-3.62 0a.78.78 0 0 1 .78.78v6.68h-1.56v-6.68a.78.78 0 0 1 .78-.78zm-3.62 0a.78.78 0 0 1 .78.78v6.68h-1.57v-6.68a.78.78 0 0 1 .79-.78z" class="ae"/><path fill="#3f4b4f" stroke="#8ba09f" d="M175.88 138.72c-1.8.51-4.4 3.37-4.4 5.79v8.86h8.8v-8.86c0-2.42-2.6-5.28-4.4-5.79z" class="ai"/><path fill="none" stroke="#8ba09f" stroke-miterlimit="10" stroke-width=".58" d="M173.38 140.47v12.9m4.86-12.9v12.9m-2.43-14.32v14.32m-4.32-7.16h8.48m-8.48 3.34h8.48"/><path d="M178.33 134.71h-5.29v-5.83l2.62-3.48 2.67 3.48v5.83z" class="cls-44"/><path d="M176.05 102.7h-.73l-4.48 20.22h9.7l-4.49-20.22z" class="ae"/><path fill="#bfd8d7" d="M165.36 156.36h20.66v2.88h-20.66zm0 15.41h20.66v2.88h-20.66z"/><path d="M167.82 128.12a.55.55 0 0 1 .55.55v4.67h-1.1v-4.67a.55.55 0 0 1 .55-.55zm15.73 0a.55.55 0 0 1 .55.55v4.67H183v-4.67a.55.55 0 0 1 .55-.55z" class="ae"/><circle cx="126.72" cy="92.99" r="151.91" fill="url(#l5)" opacity=".3"/></g><path d="M83.39 44.98l.54 3.31-2.54-2.18-.73.41.52 3.3-2.51-2.17-.81.46 3.44 2.92.83-.47-.47-3.09 2.39 2.01.82-.47-.72-4.46-.76.43zm4.87 1.47a1.48 1.48 0 0 1-1 .15 1.19 1.19 0 0 1-.73-.47l3-1.43c0-.12-.08-.21-.11-.28a2.24 2.24 0 0 0-.74-.91 1.94 1.94 0 0 0-1-.37 2.12 2.12 0 0 0-1.11.23 2.25 2.25 0 0 0-.9.73 2 2 0 0 0-.37 1 2.18 2.18 0 0 0 .22 1.13 2.25 2.25 0 0 0 .75.89 2 2 0 0 0 1.07.34 2.56 2.56 0 0 0 1.23-.28 2.47 2.47 0 0 0 .81-.58 1.7 1.7 0 0 0 .43-.77l-.74-.33a1.53 1.53 0 0 1-.81.95zm-2-.91a1.23 1.23 0 0 1 0-.85 1.15 1.15 0 0 1 .61-.6 1.22 1.22 0 0 1 .85-.1 1.17 1.17 0 0 1 .67.51zM94 41.33a1.83 1.83 0 0 0-1-.42 2.24 2.24 0 0 0-1.13.16 2.08 2.08 0 0 0-.65.42 1.66 1.66 0 0 0-.4.61l-.81-2-.92.38 2.21 5.46.88-.36-.21-.51a1.45 1.45 0 0 0 .73.19 2.1 2.1 0 0 0 .8-.15 2.27 2.27 0 0 0 .92-.67 1.92 1.92 0 0 0 .43-1 2.4 2.4 0 0 0-.17-1.16 2.22 2.22 0 0 0-.68-.95zm-.22 2.34a1.16 1.16 0 0 1-.69.68 1.27 1.27 0 0 1-.66.09 1.21 1.21 0 0 1-.59-.26 1.57 1.57 0 0 1-.53-1.3 1.16 1.16 0 0 1 .25-.59 1.19 1.19 0 0 1 .53-.4 1.28 1.28 0 0 1 1 0 1.35 1.35 0 0 1 .68.76 1.3 1.3 0 0 1-.03 1.02zm4.85-4.54a1.77 1.77 0 0 0-1.36 0 2.16 2.16 0 0 0-.72.39 1.54 1.54 0 0 0-.45.57l-.68-2-.94.31 1.86 5.59.94-.32-.68-2a1.27 1.27 0 0 1 0-1 1.14 1.14 0 0 1 .71-.58.92.92 0 0 1 .8 0 1.21 1.21 0 0 1 .51.71l.73 2.18.94-.31-.77-2.31a1.81 1.81 0 0 0-.89-1.23zm1.74-.96l.95-.27 1.16 4.08-.95.27zm-.19-.84a.61.61 0 0 0 .48 0 .6.6 0 0 0 .44-.77.52.52 0 0 0-.29-.34.72.72 0 0 0-.87.25.62.62 0 0 0-.06.46.57.57 0 0 0 .3.4zm6.27-.28a1.79 1.79 0 0 0-1.36-.16 2.32 2.32 0 0 0-.78.35 1.44 1.44 0 0 0-.5.57l-.13-.53-.92.22 1 4.12 1-.23-.5-2.08a1.37 1.37 0 0 1 .09-1 1.15 1.15 0 0 1 .77-.52 1 1 0 0 1 .79.1 1.21 1.21 0 0 1 .45.76l.53 2.23 1-.23-.57-2.36a1.82 1.82 0 0 0-.87-1.24zm4.19 2.31a.57.57 0 0 1-.46-.09.63.63 0 0 1-.23-.44l-.35-2 1.12-.2-.13-.78-1.12.19-.16-1-1 .17.16.95-.69.12.14.78.69-.12.35 2a1.39 1.39 0 0 0 .55 1 1.53 1.53 0 0 0 1.13.17 1.63 1.63 0 0 0 .5-.16 1.15 1.15 0 0 0 .39-.28l-.4-.65a.87.87 0 0 1-.49.34zm1.93-.84a.63.63 0 0 0-.54.75.64.64 0 0 0 .74.55.64.64 0 0 0 .55-.75.65.65 0 0 0-.26-.44.64.64 0 0 0-.49-.11zm1.28-3.19l.98-.13.54 4.2-.98.14zm.82-.99a.54.54 0 0 0 .12-.46.5.5 0 0 0-.23-.38.69.69 0 0 0-.9.12.6.6 0 0 0-.12.45.55.55 0 0 0 .23.39.61.61 0 0 0 .47.11.59.59 0 0 0 .43-.23zm5.57 1.34a2 2 0 0 0-.86-.7 2.47 2.47 0 0 0-1.19-.18 2.38 2.38 0 0 0-1.13.38 1.92 1.92 0 0 0-.73.84 2.14 2.14 0 0 0-.2 1.13 2.24 2.24 0 0 0 .39 1.1 2 2 0 0 0 .87.7 2.53 2.53 0 0 0 2.31-.2 2.06 2.06 0 0 0 .74-.84 2.19 2.19 0 0 0 .19-1.14 2.11 2.11 0 0 0-.39-1.09zm-.88 2.16a1.19 1.19 0 0 1-.87.44 1.22 1.22 0 0 1-.93-.28 1.36 1.36 0 0 1-.43-.93 1.28 1.28 0 0 1 .27-1 1.29 1.29 0 0 1 1.8-.15 1.32 1.32 0 0 1 .43.92 1.27 1.27 0 0 1-.27 1z" class="x"/><path d="M96.67 162s-14.6 20-36.52 2.83c0 0 13.28-13.33 33.6-10.54" class="z"/><path d="M97.11 162.34a28.37 28.37 0 0 1-7.91 6.9 23 23 0 0 1-10 3.18 23.75 23.75 0 0 1-10.42-1.67 36.32 36.32 0 0 1-9.1-5.25.79.79 0 0 1-.17-1.11l.1-.11a39.91 39.91 0 0 1 7.54-5.41 42.55 42.55 0 0 1 8.47-3.65l1.1-.35 1.12-.28c.75-.17 1.5-.38 2.25-.53a41.9 41.9 0 0 1 4.58-.6 43.65 43.65 0 0 1 9.21.24.62.62 0 0 1-.13 1.23 42.24 42.24 0 0 0-8.92-.14 38.89 38.89 0 0 0-4.42.64c-.73.14-1.45.35-2.17.53l-1.08.28-1.06.35a41.74 41.74 0 0 0-8.14 3.62 38.13 38.13 0 0 0-7.14 5.23l-.08-1.23a35.1 35.1 0 0 0 8.64 5.15 22.22 22.22 0 0 0 9.78 1.71 21.76 21.76 0 0 0 9.51-2.88 27.38 27.38 0 0 0 7.64-6.48.54.54 0 0 1 .76-.08.55.55 0 0 1 .04.71z" class="aa"/><path d="M164.13 164.79s-16.53 16.58-39.29 16.53C59.58 181.16 67 119.85 79 107.68s52.66-13.63 57 21.32 28 29.56 28 29.56-.6-17.56 15.64-15.66c0 0 1.52 16-7.47 17.76 0 0 9.93 5.29 7 19.44.02 0-13.67 1.8-15.04-15.31z" class="z"/><path fill="#b8c3ec" d="M164.13 164.79a44.85 44.85 0 0 1-30.73-4.2c-11.55-6.24-50.05-17.44-44.4 11.21s61.65 15.2 61.65 15.2l12-14.35z" clip-path="url(#c3)"/><path stroke="#1c4189" d="M164.13 164.79s-16.53 16.58-39.29 16.53C59.58 181.16 67 119.85 79 107.68s52.66-13.63 57 21.32 28 29.56 28 29.56-.6-17.56 15.64-15.66c0 0 1.52 16-7.47 17.76 0 0 9.93 5.29 7 19.44.02 0-13.67 1.8-15.04-15.31z" class="ah aj"/><circle cx="81.17" cy="136.14" r="3.1" class="ab"/><circle cx="80.08" cy="135.37" r="1.04" class="x"/><path d="M82.9 136.19a.67.67 0 0 0-.85.41 1.06 1.06 0 0 1-.89.69.65.65 0 0 0-.6.71.66.66 0 0 0 .71.61l.34-.05a2.37 2.37 0 0 0 1.7-1.53.66.66 0 0 0-.41-.84z" class="ac"/><circle cx="111.28" cy="129.19" r="3.1" class="ab"/><circle cx="110.19" cy="128.42" r="1.04" class="x"/><path d="M113 129.24a.65.65 0 0 0-.84.41 1.08 1.08 0 0 1-.89.69.66.66 0 1 0 .11 1.32 2.15 2.15 0 0 0 .34 0 2.33 2.33 0 0 0 1.69-1.53.66.66 0 0 0-.41-.89z" class="ac"/><path fill="#402b5e" d="M88.7 134.74c5.52-3.58 14.33-3.58 14.33-3.58s-.16 7.4-6.11 8.88c-4.37 1.09-7.42-1.88-8.22-5.3z"/><path fill="#e57cde" d="M104.44 130.46s-11.32 2.84-12.39 11.36l10.87-1.8z" clip-path="url(#c4)"/><path fill="#efc725" d="M131.22 127.38s-18.34 22.19-36.31 23.06c-18.73.91-23.9-10.8-23.9-10.8s-1.39 2.54.55 8.48c2.31 7.07 11 11.46 25.11 10.73 16.79-.87 31.12-14.1 39.57-31.47z"/><path fill="none" stroke="#bc8313" stroke-miterlimit="10" stroke-width="1.39" d="M131.22 127.38s-18.34 22.19-36.31 23.06c-18.73.91-23.9-10.8-23.9-10.8s-1.39 2.54.55 8.48c2.31 7.07 11 11.46 25.11 10.73 16.79-.87 31.12-14.1 39.57-31.47zm-6.38 6.71a9.75 9.75 0 0 0 3.76 5.74m-11.54.97s-.19 3.59 3.47 7.69m-12.72-1.79a13 13 0 0 0 2 8.81m-14.11-5.18s-1.16 3.06.17 8.81m-10.18-9.29s-1.63 3.1-.15 8.51m-7.48-11.51s-1.63 3.48 0 9"/><path fill="#0d131c" stroke="#39557c" d="M71 140.3s17.4-17.68 64.62-11.54c0 0 2.18 1.68 4.65-5.51s15.31-61.57-31.13-62.15-53 50-42.77 75.67c.01 0 1.8 4.32 4.63 3.53z" class="ah"/><path fill="none" stroke="#39557c" stroke-linecap="round" stroke-linejoin="round" stroke-width="1.39" d="M134.56 81.52a8.87 8.87 0 0 1 1.68 3.82M128.33 79a11.69 11.69 0 0 1 1.91 2.84m2.6 6.37a14.42 14.42 0 0 1 .67 3.64" opacity=".6"/><path d="M135.44 147.52s25.46-4.24 19.74-32.69c0 0-18.63 6.13-25.56 26.36" class="z"/><path d="M135.35 147a28.48 28.48 0 0 0 9.65-4.1 22.64 22.64 0 0 0 7.15-7.52 23.13 23.13 0 0 0 3-9.91 36.64 36.64 0 0 0-.75-10.48l1.06.62a40.16 40.16 0 0 0-8.22 4.21 42.86 42.86 0 0 0-7.19 5.9l-.83.82-.77.88-1.51 1.77a42 42 0 0 0-2.66 3.82 43.76 43.76 0 0 0-4 8.38.62.62 0 0 1-1.28-.39 45.54 45.54 0 0 1 6.79-12.66c.49-.64 1-1.23 1.54-1.85l.79-.91.84-.86a43.94 43.94 0 0 1 7.37-6.17 41.5 41.5 0 0 1 8.56-4.49.8.8 0 0 1 1 .47v.13a38.15 38.15 0 0 1 .64 10.93 24.85 24.85 0 0 1-3.32 10.48 24.08 24.08 0 0 1-7.65 7.84 29.58 29.58 0 0 1-10.13 4.14.54.54 0 0 1-.64-.43.53.53 0 0 1 .42-.63z" class="aa"/></svg>