<svg id="sticker" xmlns="http://www.w3.org/2000/svg" xmlns:xlink="http://www.w3.org/1999/xlink" viewBox="0 0 252 252"><defs><style>.cls-1,.cls-25,.cls-30,.cls-34,.cls-36,.cls-38,.cls-40,.cls-41,.cls-42,.cls-43,.cls-46,.cls-53,.cls-60,.cls-63{fill:none;}.cls-2{fill:#fff;}.cls-3{fill:url(#linear-gradient);}.cls-4{clip-path:url(#clip-path);}.cls-5{opacity:0.8;}.cls-6{fill:url(#linear-gradient-2);}.cls-7{fill:url(#linear-gradient-3);}.cls-8{fill:url(#linear-gradient-4);}.cls-10,.cls-9{fill:#827ba8;}.cls-48,.cls-9{opacity:0.3;}.cls-11{fill:#343e54;}.cls-12{fill:#c36d4e;}.cls-13{fill:#9b4a33;}.cls-14{fill:#4a5470;}.cls-15{fill:#8492af;}.cls-16{fill:#492e1b;}.cls-17{fill:#b08366;}.cls-18{fill:#f0d8be;}.cls-19{fill:#d6ab8d;}.cls-20{fill:#b58465;}.cls-21{fill:#5a5a6b;}.cls-22{fill:#b38568;}.cls-23{fill:#f5e6d0;}.cls-24{fill:#7a543b;}.cls-25{stroke:#3f3f4f;}.cls-25,.cls-29,.cls-30,.cls-34,.cls-36,.cls-40,.cls-41,.cls-45,.cls-46,.cls-60{stroke-miterlimit:10;}.cls-25,.cls-30,.cls-34,.cls-36,.cls-38,.cls-41,.cls-42,.cls-43,.cls-46{stroke-width:0.58px;}.cls-26{fill:#996948;}.cls-27{fill:#633b25;}.cls-28{fill:#d54c33;}.cls-29{fill:#fdfbfc;}.cls-29,.cls-30{stroke:#814134;}.cls-29,.cls-40,.cls-45{stroke-width:1.16px;}.cls-31{fill:#4f1e08;}.cls-32{fill:#ac5321;}.cls-33{fill:#924016;}.cls-34{stroke:#68290d;}.cls-35{fill:#fdf9eb;}.cls-36{stroke:#a18c7c;}.cls-37{clip-path:url(#clip-path-2);}.cls-38{stroke:#302015;}.cls-38,.cls-42,.cls-43,.cls-53,.cls-61,.cls-63{stroke-linecap:round;stroke-linejoin:round;}.cls-39,.cls-45{fill:#3f4b4f;}.cls-40,.cls-41,.cls-43{stroke:#3f4b4f;}.cls-42{stroke:#e0b222;}.cls-44{fill:#d9e8e8;}.cls-45,.cls-46{stroke:#8ba09f;}.cls-47{fill:#bfd8d7;}.cls-48{fill:url(#linear-gradient-5);}.cls-49{fill:#93a0df;}.cls-50{fill:#1c4189;}.cls-51{clip-path:url(#clip-path-3);}.cls-52{fill:#b8c3ec;}.cls-53{stroke:#1c4189;}.cls-53,.cls-60,.cls-61,.cls-63{stroke-width:1.39px;}.cls-54{fill:#060b1c;}.cls-55{fill:#2b5596;}.cls-56{fill:#402b5e;}.cls-57{clip-path:url(#clip-path-4);}.cls-58{fill:#e57cde;}.cls-59{fill:#efc725;}.cls-60{stroke:#bc8313;}.cls-61{fill:#0d131c;}.cls-61,.cls-63{stroke:#39557c;}.cls-62{opacity:0.6;}</style><linearGradient id="linear-gradient" x1="126" y1="168.9" x2="126" y2="34.97" gradientUnits="userSpaceOnUse"><stop offset="0" stop-color="#eea468"/><stop offset="0.35" stop-color="#d1dbd9"/><stop offset="0.65" stop-color="#c1e9ea"/><stop offset="0.98" stop-color="#a183c4"/></linearGradient><clipPath id="clip-path"><circle class="cls-1" cx="126" cy="126" r="100.98"/></clipPath><linearGradient id="linear-gradient-2" x1="46.67" y1="69.99" x2="46.67" y2="156.83" gradientUnits="userSpaceOnUse"><stop offset="0" stop-color="#c68cce" stop-opacity="0.6"/><stop offset="0.98" stop-color="#c68cce" stop-opacity="0"/></linearGradient><linearGradient id="linear-gradient-3" x1="146.05" y1="55.2" x2="146.05" y2="128.16" xlink:href="#linear-gradient-2"/><linearGradient id="linear-gradient-4" x1="207.91" y1="103.62" x2="207.91" y2="190.66" xlink:href="#linear-gradient-2"/><clipPath id="clip-path-2"><circle class="cls-1" cx="152.87" cy="112.59" r="8.03"/></clipPath><linearGradient id="linear-gradient-5" x1="2962.08" y1="169.76" x2="2962.08" y2="473.59" gradientTransform="translate(3088.8 414.67) rotate(180)" gradientUnits="userSpaceOnUse"><stop offset="0" stop-color="#fff" stop-opacity="0.6"/><stop offset="0.98" stop-color="#fff" stop-opacity="0"/></linearGradient><clipPath id="clip-path-3"><path class="cls-1" d="M164.13,164.79s-16.53,16.58-39.29,16.53C59.58,181.16,67,119.85,79,107.68S131.66,94.05,136,129,164,158.56,164,158.56,163.4,141,179.64,142.9c0,0,1.52,16-7.47,17.76,0,0,9.93,5.29,7,19.44C179.19,180.1,165.5,181.9,164.13,164.79Z"/></clipPath><clipPath id="clip-path-4"><path class="cls-1" d="M88.7,134.74c5.52-3.58,14.33-3.58,14.33-3.58s-.16,7.4-6.11,8.88C92.55,141.13,89.5,138.16,88.7,134.74Z"/></clipPath></defs><title>webhint_sticker_9</title><circle class="cls-2" cx="126" cy="126" r="108.82"/><circle class="cls-3" cx="126" cy="126" r="100.98"/><g class="cls-4"><g class="cls-5"><path class="cls-6" d="M76.18,116.72a42.19,42.19,0,1,0-63.75,18.62,45.5,45.5,0,1,0,63.75-18.62Z"/><path class="cls-7" d="M170.84,138.4a25.18,25.18,0,0,1,23.85-25.15,25.19,25.19,0,0,1,14.55-20.92A26.51,26.51,0,0,0,186.83,80a27.1,27.1,0,0,0-5,.47,33.8,33.8,0,1,0-64.29,17.07A48.22,48.22,0,1,0,173.88,166V150.41A25.07,25.07,0,0,1,170.84,138.4Z"/><path class="cls-8" d="M245,115.21a25.18,25.18,0,0,0-50.29-2,25.2,25.2,0,0,0-20.81,37.16v57.75h60.94L245,157.46l-5-27.13A25.06,25.06,0,0,0,245,115.21Z"/></g><path class="cls-9" d="M59.22,119a38.4,38.4,0,0,0,.61-6.74,37.27,37.27,0,0,0-.31-4.75c2.78-.48,4.81-2,4.81-3.79,0-2.17-2.95-3.93-6.61-4a38.06,38.06,0,0,0-5.1-9.85,3.63,3.63,0,0,0,2.34-3c0-2.19-3-4-6.72-4a10.44,10.44,0,0,0-1.88.16,38.6,38.6,0,0,0-9-5.74,2.57,2.57,0,0,0,.16-.86c0-2.19-3-4-6.71-4a8.87,8.87,0,0,0-5.34,1.57,38.61,38.61,0,0,0-4-.21,39.11,39.11,0,0,0-5.22.36,9.72,9.72,0,0,0-4.48-1C8.05,73.26,5,75,5,77.22a2.34,2.34,0,0,0,0,.38,38.39,38.39,0,0,0-8.46,5.49A11.28,11.28,0,0,0-5,83c-3.71,0-6.72,1.77-6.72,4a3.55,3.55,0,0,0,2.15,2.9,38.28,38.28,0,0,0-5.18,10c-3.69,0-6.67,1.78-6.67,4,0,1.81,2.06,3.33,4.87,3.8a39.17,39.17,0,0,0-.3,4.74,38.65,38.65,0,0,0,.65,7c-3,.4-5.22,2-5.22,3.86,0,2.18,3,4,6.71,4,.28,0,.56,0,.83,0a38.59,38.59,0,0,0,5.73,9.52c-1.91.7-3.19,1.94-3.19,3.36,0,2.19,3,4,6.72,4a10.3,10.3,0,0,0,3.59-.62,38.82,38.82,0,0,0,7.25,4.16A3,3,0,0,0,5,149.66c0,2.19,3,4,6.72,4,3.21,0,5.9-1.33,6.56-3.11,1,.08,2.08.14,3.14.14s2.11-.06,3.15-.14c.66,1.78,3.34,3.11,6.56,3.11,3.71,0,6.71-1.77,6.71-4a2.93,2.93,0,0,0-1.13-2.2,38.68,38.68,0,0,0,7.39-4.26,10.13,10.13,0,0,0,3.83.72c3.71,0,6.72-1.78,6.72-4,0-1.49-1.41-2.8-3.49-3.47A38.21,38.21,0,0,0,57,126.81l.66,0c3.71,0,6.71-1.78,6.71-4C64.33,121,62.16,119.45,59.22,119ZM24.63,148.76c-.86.07-1.72.12-2.59.13v-31l.3,0,7.5,28C27.26,146.08,25.22,147.26,24.63,148.76Zm-11.54-3,7.49-28,.3,0v31c-.87,0-1.73-.06-2.59-.13C17.7,147.26,15.66,146.08,13.09,145.77ZM-14.5,119.19a35.65,35.65,0,0,1-.65-6.33h31c0,.1,0,.2,0,.3l-26.22,7A9.75,9.75,0,0,0-14.5,119.19ZM-13,99.91a36.49,36.49,0,0,1,2.48-5.43L16.35,110a2.36,2.36,0,0,0-.12.28L-8,103.78v0C-8,101.9-10.15,100.37-13,99.91Zm63.91,3.83a.43.43,0,0,1,0,.05l-24.22,6.49a2.33,2.33,0,0,0-.11-.28L53.45,94.48a36,36,0,0,1,2.48,5.43C53,100.35,50.9,101.89,50.9,103.74Zm-27.44,3.31,7.12-26.57h.26a8.68,8.68,0,0,0,5.47-1.68c1,.45,2,.94,2.95,1.48L23.75,107.17ZM29.41,80.4l-7.07,26.35-.3,0v-31c.74,0,1.48,0,2.2.1a2.46,2.46,0,0,0-.12.76C24.12,78.42,26.38,80,29.41,80.4Zm-8.53,26.31-.3,0L13.68,81c2.77-.49,4.79-2,4.79-3.8a2.6,2.6,0,0,0-.44-1.4c.94-.09,1.89-.13,2.85-.15ZM11.76,81.19c.26,0,.51,0,.76,0l6.94,25.89a2.36,2.36,0,0,0-.28.12L3.66,80.29c.73-.41,1.47-.79,2.22-1.15A8.26,8.26,0,0,0,11.76,81.19ZM27,112.86h31a36.59,36.59,0,0,1-.59,6,9.32,9.32,0,0,0-4.65,1.18L27,113.16C27,113.06,27,113,27,112.86Zm31-1.16H27c0-.1,0-.2-.05-.3l24.21-6.49c.85,1.62,3.4,2.79,6.42,2.79h.17A35.53,35.53,0,0,1,58.07,111.7ZM52.88,93.47,26,109a1.88,1.88,0,0,0-.18-.24L44.39,90.17a10.2,10.2,0,0,0,3.85.72,10.89,10.89,0,0,0,2.69-.33Q52,92,52.88,93.47Zm-9.57-3.86L25,107.93l-.24-.18L40.27,80.87a35.71,35.71,0,0,1,4.07,2.84c-1.7.72-2.81,1.89-2.81,3.22A3.34,3.34,0,0,0,43.31,89.61ZM2.66,80.87l15.51,26.88-.24.18L-.28,89.72a3.42,3.42,0,0,0,1.94-2.79c0-1.38-1.18-2.59-3-3.3A36.62,36.62,0,0,1,2.66,80.87ZM-5,90.89a10.43,10.43,0,0,0,3.66-.64l18.5,18.5-.18.24L-9.95,93.47c.61-1,1.28-2,2-3A10.34,10.34,0,0,0-5,90.89Zm-9.71,16.81c3,0,5.58-1.18,6.43-2.8l24.26,6.5c0,.1,0,.2,0,.3h-31a37.65,37.65,0,0,1,.28-4ZM-9,121.06l25.28-6.78a2.36,2.36,0,0,0,.12.28l-26.88,15.52a35.74,35.74,0,0,1-1.63-3.28c2.42-.6,4.12-2,4.12-3.65A2.92,2.92,0,0,0-9,121.06Zm-.9,10,26.88-15.52.18.24L-3.17,136.09a12.19,12.19,0,0,0-1.5-.1,10.79,10.79,0,0,0-1.64.13A36.79,36.79,0,0,1-9.95,131.09Zm8.14,5.28,19.74-19.74c.08.07.16.12.24.18L2.66,143.7c-.7-.42-1.37-.86-2-1.32A3.14,3.14,0,0,0,2.05,140C2.05,138.37.47,137-1.81,136.37Zm5.47,7.9L19.18,117.4l.28.11L11.91,145.7h-.15a10.44,10.44,0,0,0-3.71.65A35.23,35.23,0,0,1,3.66,144.27Zm27.51,1.43H31l-7.56-28.19.29-.11,15.51,26.87a35.23,35.23,0,0,1-4.39,2.08A10.39,10.39,0,0,0,31.17,145.7Zm9.1-2L24.75,116.81c.08-.06.16-.11.24-.18l19.83,19.83c-2.12.66-3.56,2-3.56,3.49a3,3,0,0,0,1.23,2.29C41.77,142.75,41,143.24,40.27,143.7ZM48,136a11.86,11.86,0,0,0-1.82.15L25.81,115.81a1.88,1.88,0,0,0,.18-.24l26.89,15.52a37.53,37.53,0,0,1-3.6,5A11.11,11.11,0,0,0,48,136Zm5.48-5.91L26.58,114.56a2.33,2.33,0,0,0,.11-.28l25,6.71a2.75,2.75,0,0,0-.8,1.87c0,1.69,1.78,3.12,4.29,3.7A34.86,34.86,0,0,1,53.45,130.08Z"/><g class="cls-5"><polygon class="cls-10" points="87.16 159.24 87.16 146.97 73.3 146.97 73.3 149.72 71.11 149.72 71.11 152.18 68.75 152.18 68.75 146.78 65.8 140.58 62.8 146.78 62.8 154.93 59.87 154.93 59.87 149.14 51.56 149.14 48.4 176.46 78.47 176.46 77.62 182.37 119.33 182.37 119.33 159.24 87.16 159.24"/></g><path class="cls-11" d="M181.47,193s6.78-2.91,13.21-.68c7.18,2.51,10.74-.39,10.74-.39l-1.24,14.88-20.48-1.64Z"/><rect class="cls-12" x="35.45" y="187.5" width="150.56" height="20.1"/><rect class="cls-13" x="35.45" y="187.5" width="150.56" height="3.09"/><rect class="cls-13" x="133.9" y="191.95" width="6.6" height="3.04" rx="0.51" ry="0.51"/><rect class="cls-13" x="137.2" y="194.99" width="6.6" height="3.04" rx="0.51" ry="0.51"/><rect class="cls-13" x="77.62" y="191.95" width="6.6" height="3.04" rx="0.51" ry="0.51" transform="translate(161.84 386.94) rotate(-180)"/><rect class="cls-13" x="74.33" y="194.99" width="6.6" height="3.04" rx="0.51" ry="0.51" transform="translate(155.25 393.02) rotate(-180)"/><path class="cls-14" d="M51.35,201.76s10.85-6.51,29.57-1.45c18.27,4.92,18.36-9,51.27,1,19.18,5.81,19.4-7.91,48.91,0,27,7.24,34.94-4.82,34.94-4.82l-3,37.7-159.84.61Z"/><path class="cls-15" d="M177.9,214.8s-14.28-8.52-39.18-3.32c-5.59,1.16-11.39-1.92-15.42-2.61-8.2-1.4-13.64-.88-20.34,3,0,0,9.27-4.25,23.77.68,18.55,6.31,23.92-4,41.89,6.25C180.56,225.58,177.9,214.8,177.9,214.8Z"/><path class="cls-15" d="M13.76,212.72s15.6,1.83,43.05-5.81c6.16-1.72,12.56.93,16.62,1.46,8.38,1.11,16.14,1.55,24.21-3.13,0,0-10.27,4.95-26.62-.73-20.94-7.28-26.68,7.25-47.65-2C8.88,196.07,13.76,212.72,13.76,212.72Z"/><path class="cls-16" d="M41.41,102.75a.29.29,0,0,0-.29.29v4.64a.29.29,0,0,0,.58,0V103A.29.29,0,0,0,41.41,102.75Z"/><rect class="cls-17" x="35.11" y="125.69" width="1.9" height="9.03"/><rect class="cls-17" x="40.46" y="125.69" width="1.9" height="9.03"/><rect class="cls-17" x="45.82" y="125.69" width="1.9" height="9.03"/><rect class="cls-18" x="32.21" y="134.64" width="18.41" height="52.86"/><rect class="cls-18" x="36.06" y="113.4" width="10.71" height="4.9"/><rect class="cls-19" x="31.27" y="134.09" width="20.29" height="4.17"/><rect class="cls-19" x="31.27" y="122.47" width="20.29" height="4.17"/><rect class="cls-20" x="36.06" y="118.3" width="10.71" height="4.17"/><path class="cls-21" d="M41.41,106.26h0a5.36,5.36,0,0,1,5.36,5.36v1.79a0,0,0,0,1,0,0H36.06a0,0,0,0,1,0,0v-1.79A5.36,5.36,0,0,1,41.41,106.26Z"/><rect class="cls-19" x="31.27" y="157.38" width="20.29" height="4.17"/><circle class="cls-19" cx="41.41" cy="146.97" r="6.51"/><rect class="cls-19" x="50.62" y="146.97" width="3" height="40.53"/><rect class="cls-19" x="29.21" y="146.97" width="3" height="40.53"/><rect class="cls-19" x="29.41" y="146.97" width="23.82" height="10.41"/><polygon class="cls-19" points="47.73 167.24 41.38 162.22 35.03 167.24 37.27 167.24 37.27 179.29 45.49 179.29 45.49 167.24 47.73 167.24"/><rect class="cls-19" x="31.09" y="179.29" width="21.37" height="8.21"/><rect class="cls-22" x="39.1" y="167.24" width="4.57" height="7.85"/><circle class="cls-22" cx="41.41" cy="146.97" r="3.75"/><rect class="cls-22" x="39.1" y="176.46" width="4.57" height="1.52"/><rect class="cls-22" x="33.91" y="153.19" width="2.32" height="4.83"/><rect class="cls-22" x="37.97" y="153.19" width="2.32" height="4.83"/><rect class="cls-22" x="42.02" y="153.19" width="2.32" height="4.83"/><rect class="cls-22" x="46.08" y="153.19" width="2.32" height="4.83"/><polygon class="cls-23" points="87.93 160.54 87.93 168.95 58.67 168.95 58.67 160.54 53.62 160.54 53.62 187.5 58.67 187.5 87.93 187.5 92.98 187.5 92.98 160.54 87.93 160.54"/><polygon class="cls-21" points="53.62 160.54 56.15 151.16 58.67 160.54 53.62 160.54"/><path class="cls-24" d="M56.23,164.31h0a.68.68,0,0,1,.68.68V172a0,0,0,0,1,0,0H55.55a0,0,0,0,1,0,0V165A.68.68,0,0,1,56.23,164.31Z"/><polygon class="cls-21" points="87.93 160.54 90.45 151.16 92.98 160.54 87.93 160.54"/><path class="cls-24" d="M90.54,164.31h0a.68.68,0,0,1,.68.68V172a0,0,0,0,1,0,0H89.86a0,0,0,0,1,0,0V165A.68.68,0,0,1,90.54,164.31Z"/><polygon class="cls-21" points="58.67 168.95 63.96 161.55 82.13 161.55 87.93 168.95 58.67 168.95"/><path class="cls-21" d="M64.35,171.16h0a1.55,1.55,0,0,1,1.55,1.55v14.8a0,0,0,0,1,0,0H62.8a0,0,0,0,1,0,0v-14.8A1.55,1.55,0,0,1,64.35,171.16Z"/><line class="cls-25" x1="62.8" y1="177" x2="65.89" y2="177"/><line class="cls-25" x1="62.8" y1="182.37" x2="65.89" y2="182.37"/><path class="cls-21" d="M70.29,171.16h0a1.55,1.55,0,0,1,1.55,1.55v14.8a0,0,0,0,1,0,0H68.75a0,0,0,0,1,0,0v-14.8A1.55,1.55,0,0,1,70.29,171.16Z"/><line class="cls-25" x1="68.75" y1="177" x2="71.84" y2="177"/><line class="cls-25" x1="68.75" y1="182.37" x2="71.84" y2="182.37"/><path class="cls-21" d="M76.24,171.16h0a1.55,1.55,0,0,1,1.55,1.55v14.8a0,0,0,0,1,0,0H74.69a0,0,0,0,1,0,0v-14.8A1.55,1.55,0,0,1,76.24,171.16Z"/><line class="cls-25" x1="74.69" y1="177" x2="77.78" y2="177"/><line class="cls-25" x1="74.69" y1="182.37" x2="77.78" y2="182.37"/><path class="cls-21" d="M82.18,171.16h0a1.55,1.55,0,0,1,1.55,1.55v14.8a0,0,0,0,1,0,0H80.63a0,0,0,0,1,0,0v-14.8A1.55,1.55,0,0,1,82.18,171.16Z"/><line class="cls-25" x1="80.63" y1="177" x2="83.72" y2="177"/><line class="cls-25" x1="80.63" y1="182.37" x2="83.72" y2="182.37"/><rect class="cls-22" x="92.98" y="166.63" width="35.89" height="20.87"/><rect class="cls-26" x="92.98" y="168.17" width="4.67" height="19.33"/><rect class="cls-26" x="124.2" y="168.17" width="4.67" height="19.33"/><path class="cls-27" d="M105.45,179.33h0a4.09,4.09,0,0,1,4.09,4.09v4.09a0,0,0,0,1,0,0h-8.17a0,0,0,0,1,0,0v-4.09a4.09,4.09,0,0,1,4.09-4.09Z"/><path class="cls-27" d="M116.43,179.36h0a4.09,4.09,0,0,1,4.09,4.09v4.09a0,0,0,0,1,0,0h-8.17a0,0,0,0,1,0,0v-4.09a4.09,4.09,0,0,1,4.09-4.09Z"/><rect class="cls-26" x="97.64" y="176.03" width="26.55" height="2.03"/><rect class="cls-28" x="128.87" y="164.28" width="13.52" height="23.22"/><rect class="cls-29" x="131.08" y="167.47" width="8.77" height="17.61"/><line class="cls-30" x1="131.08" y1="181.82" x2="139.85" y2="181.82"/><line class="cls-30" x1="131.24" y1="178.76" x2="140.01" y2="178.76"/><line class="cls-30" x1="134.08" y1="185.09" x2="134.08" y2="169.48"/><line class="cls-30" x1="136.84" y1="185.09" x2="136.84" y2="169.48"/><path class="cls-31" d="M165.9,78.85a.58.58,0,0,0-.56-.58V77.2a.29.29,0,0,0-.58,0v1.07a.58.58,0,0,0,0,1.15v6a.29.29,0,0,0,.58,0v-6A.57.57,0,0,0,165.9,78.85Z"/><path class="cls-31" d="M162,56.84a.58.58,0,0,0-.56-.58V55.19a.29.29,0,0,0-.58,0v1.07a.58.58,0,0,0,0,1.15v6a.29.29,0,0,0,.58,0v-6A.57.57,0,0,0,162,56.84Z"/><path class="cls-31" d="M145.9,56.84a.58.58,0,0,0-.56-.58V55.19a.29.29,0,0,0-.58,0v1.07a.58.58,0,0,0,0,1.15v6a.29.29,0,0,0,.58,0v-6A.57.57,0,0,0,145.9,56.84Z"/><path class="cls-31" d="M141.91,78.85a.58.58,0,0,0-.56-.58V77.2a.29.29,0,0,0-.58,0v1.07a.58.58,0,0,0,0,1.15v6a.29.29,0,1,0,.58,0v-6A.57.57,0,0,0,141.91,78.85Z"/><path class="cls-31" d="M153.94,33.91a.57.57,0,0,0-.56-.57V32.27a.29.29,0,1,0-.58,0v1.07a.58.58,0,0,0,0,1.15v6a.29.29,0,0,0,.58,0v-6A.58.58,0,0,0,153.94,33.91Z"/><rect class="cls-32" x="140.77" y="85.89" width="24.59" height="101.61"/><rect class="cls-33" x="162.07" y="101.69" width="3.29" height="85.81"/><rect class="cls-33" x="140.77" y="101.69" width="3.29" height="85.81"/><rect class="cls-33" x="140.77" y="97.53" width="24.59" height="4.16"/><rect class="cls-33" x="140.77" y="84.92" width="24.59" height="2.79"/><rect class="cls-33" x="140.77" y="124.6" width="24.59" height="2.79"/><line class="cls-34" x1="163.18" y1="101.69" x2="163.18" y2="124.6"/><line class="cls-34" x1="164.41" y1="101.69" x2="164.41" y2="124.6"/><line class="cls-34" x1="163.02" y1="127.4" x2="163.02" y2="187.53"/><line class="cls-34" x1="164.25" y1="127.4" x2="164.25" y2="187.53"/><line class="cls-34" x1="141.85" y1="101.67" x2="141.85" y2="124.59"/><line class="cls-34" x1="143.08" y1="101.67" x2="143.08" y2="124.59"/><line class="cls-34" x1="141.69" y1="127.38" x2="141.69" y2="187.52"/><line class="cls-34" x1="142.92" y1="127.38" x2="142.92" y2="187.52"/><rect class="cls-33" x="144.06" y="142.58" width="17.8" height="2.79"/><path class="cls-31" d="M159.59,129.65h0a.94.94,0,0,1,.94.94v9.74a0,0,0,0,1,0,0h-1.88a0,0,0,0,1,0,0v-9.74A.94.94,0,0,1,159.59,129.65Z"/><path class="cls-31" d="M155.24,129.65h0a.94.94,0,0,1,.94.94v9.74a0,0,0,0,1,0,0H154.3a0,0,0,0,1,0,0v-9.74A.94.94,0,0,1,155.24,129.65Z"/><path class="cls-31" d="M150.89,129.65h0a.94.94,0,0,1,.94.94v9.74a0,0,0,0,1,0,0h-1.88a0,0,0,0,1,0,0v-9.74a.94.94,0,0,1,.94-.94Z"/><path class="cls-31" d="M146.54,129.65h0a.94.94,0,0,1,.94.94v9.74a0,0,0,0,1,0,0h-1.88a0,0,0,0,1,0,0v-9.74A.94.94,0,0,1,146.54,129.65Z"/><rect class="cls-33" x="144.06" y="161.49" width="17.8" height="2.79"/><path class="cls-31" d="M159.59,148.56h0a.94.94,0,0,1,.94.94v9.74a0,0,0,0,1,0,0h-1.88a0,0,0,0,1,0,0V149.5A.94.94,0,0,1,159.59,148.56Z"/><path class="cls-31" d="M155.24,148.56h0a.94.94,0,0,1,.94.94v9.74a0,0,0,0,1,0,0H154.3a0,0,0,0,1,0,0V149.5a.94.94,0,0,1,.94-.94Z"/><path class="cls-31" d="M150.89,148.56h0a.94.94,0,0,1,.94.94v9.74a0,0,0,0,1,0,0h-1.88a0,0,0,0,1,0,0V149.5A.94.94,0,0,1,150.89,148.56Z"/><path class="cls-31" d="M146.54,148.56h0a.94.94,0,0,1,.94.94v9.74a0,0,0,0,1,0,0h-1.88a0,0,0,0,1,0,0V149.5a.94.94,0,0,1,.94-.94Z"/><rect class="cls-33" x="144.06" y="180.4" width="17.8" height="2.79"/><path class="cls-31" d="M159.59,167.47h0a.94.94,0,0,1,.94.94v9.74a0,0,0,0,1,0,0h-1.88a0,0,0,0,1,0,0v-9.74A.94.94,0,0,1,159.59,167.47Z"/><path class="cls-31" d="M155.24,167.47h0a.94.94,0,0,1,.94.94v9.74a0,0,0,0,1,0,0H154.3a0,0,0,0,1,0,0v-9.74A.94.94,0,0,1,155.24,167.47Z"/><path class="cls-31" d="M150.89,167.47h0a.94.94,0,0,1,.94.94v9.74a0,0,0,0,1,0,0h-1.88a0,0,0,0,1,0,0v-9.74A.94.94,0,0,1,150.89,167.47Z"/><path class="cls-31" d="M146.54,167.47h0a.94.94,0,0,1,.94.94v9.74a0,0,0,0,1,0,0h-1.88a0,0,0,0,1,0,0v-9.74A.94.94,0,0,1,146.54,167.47Z"/><path class="cls-31" d="M153.84,95v-4a.94.94,0,1,0-1.88,0v4Z"/><path class="cls-31" d="M158.19,95v-4a.95.95,0,1,0-1.89,0v4Z"/><path class="cls-31" d="M162.53,95v-4a.95.95,0,1,0-1.89,0v4Z"/><path class="cls-31" d="M145.16,95v-4a.94.94,0,1,0-1.88,0v4Z"/><path class="cls-31" d="M149.5,95v-4a.94.94,0,1,0-1.88,0v4Z"/><polygon class="cls-31" points="161.41 75.06 144.72 75.06 140.77 84.92 165.36 84.92 161.41 75.06"/><rect class="cls-32" x="144.74" y="64.46" width="16.7" height="10.6"/><rect class="cls-33" x="144.74" y="62.99" width="16.7" height="2.46"/><path class="cls-31" d="M153.09,38.1C150.65,48.49,144.74,63,144.74,63h16.7S155.54,48.49,153.09,38.1Z"/><path class="cls-31" d="M158.36,72.7v-4a.95.95,0,0,0-1.89,0v4Z"/><path class="cls-31" d="M149.65,72.7v-4a.94.94,0,0,0-1.88,0v4Z"/><path class="cls-31" d="M154,72.7v-4a.95.95,0,0,0-1.89,0v4Z"/><circle class="cls-35" cx="152.87" cy="112.59" r="8.03"/><circle class="cls-36" cx="152.87" cy="112.59" r="6.28"/><circle class="cls-36" cx="152.87" cy="112.59" r="4.96"/><g class="cls-37"><line class="cls-36" x1="152.87" y1="107.84" x2="152.87" y2="104.2"/><line class="cls-36" x1="150.5" y1="108.48" x2="148.68" y2="105.32"/><line class="cls-36" x1="148.76" y1="110.22" x2="145.61" y2="108.39"/><line class="cls-36" x1="148.13" y1="112.59" x2="144.49" y2="112.59"/><line class="cls-36" x1="148.76" y1="114.96" x2="145.61" y2="116.78"/><line class="cls-36" x1="150.5" y1="116.7" x2="148.68" y2="119.85"/><line class="cls-36" x1="152.87" y1="117.34" x2="152.87" y2="120.98"/><line class="cls-36" x1="155.25" y1="116.7" x2="157.07" y2="119.85"/><line class="cls-36" x1="156.99" y1="114.96" x2="160.14" y2="116.78"/><line class="cls-36" x1="157.62" y1="112.59" x2="161.26" y2="112.59"/><line class="cls-36" x1="156.99" y1="110.22" x2="160.14" y2="108.39"/><line class="cls-36" x1="155.25" y1="108.48" x2="157.07" y2="105.32"/></g><line class="cls-38" x1="151.93" y1="113.01" x2="159.25" y2="109.71"/><line class="cls-38" x1="152.3" y1="113.38" x2="155.33" y2="109.18"/><rect class="cls-39" x="186.02" y="168.05" width="43.92" height="1.94"/><path class="cls-40" d="M185.22,185.09S192.69,172,219.14,172"/><polyline class="cls-41" points="185.38 169.35 193.38 177.36 193.38 169.57 198.75 174.94 198.75 169.35 202.81 173.42 202.81 169.35 206.24 172.78 206.24 169.35 209.17 172.28 209.17 169.35 211.91 172.09 211.91 169.35 214.4 171.84 214.4 169.35 216.71 171.66 216.71 169.35 219.14 171.79"/><rect class="cls-39" x="186.02" y="134.64" width="43.92" height="1.3"/><rect class="cls-39" x="186.02" y="138.4" width="43.92" height="1.3"/><polyline class="cls-41" points="186.01 139.1 189.83 135.29 193.67 139.1 197.48 135.29 201.32 139.1 205.13 135.29 208.97 139.1 212.79 135.29 216.63 139.1 220.44 135.29 224.28 139.1 228.09 135.29 231.93 139.1 235.74 135.29 239.59 139.1 243.4 135.29 247.24 139.1"/><polyline class="cls-41" points="186.01 135.29 189.83 139.1 193.67 135.29 197.48 139.1 201.32 135.29 205.13 139.1 208.97 135.29 212.79 139.1 216.63 135.29 220.44 139.1 224.28 135.29 228.09 139.1 231.93 135.29 235.74 139.1 239.59 135.29 243.4 139.1 247.24 135.29"/><line class="cls-42" x1="175.69" y1="103.6" x2="175.69" y2="99.72"/><line class="cls-42" x1="174.74" y1="100.93" x2="176.63" y2="100.93"/><line class="cls-43" x1="167.82" y1="118.99" x2="167.82" y2="116.1"/><line class="cls-43" x1="167.12" y1="117" x2="168.52" y2="117"/><line class="cls-43" x1="183.55" y1="118.99" x2="183.55" y2="116.1"/><line class="cls-43" x1="182.85" y1="117" x2="184.25" y2="117"/><rect class="cls-39" x="168.33" y="122.66" width="14.3" height="11.98"/><rect class="cls-44" x="165.36" y="134.71" width="20.66" height="52.79"/><rect class="cls-44" x="165.36" y="126" width="4.93" height="10.69"/><polygon class="cls-39" points="165.36 126 170.29 126 167.82 117.9 165.36 126"/><rect class="cls-44" x="181.09" y="126.1" width="4.93" height="10.69"/><polygon class="cls-39" points="181.09 126.1 186.01 126.1 183.55 118 181.09 126.1"/><path class="cls-39" d="M181.11,161.89h0a.78.78,0,0,1,.78.78v6.68a0,0,0,0,1,0,0h-1.57a0,0,0,0,1,0,0v-6.68a.78.78,0,0,1,.78-.78Z"/><path class="cls-39" d="M177.5,161.89h0a.78.78,0,0,1,.78.78v6.68a0,0,0,0,1,0,0h-1.57a0,0,0,0,1,0,0v-6.68A.78.78,0,0,1,177.5,161.89Z"/><path class="cls-39" d="M173.88,161.89h0a.78.78,0,0,1,.78.78v6.68a0,0,0,0,1,0,0H173.1a0,0,0,0,1,0,0v-6.68A.78.78,0,0,1,173.88,161.89Z"/><path class="cls-39" d="M170.26,161.89h0a.78.78,0,0,1,.78.78v6.68a0,0,0,0,1,0,0h-1.57a0,0,0,0,1,0,0v-6.68A.78.78,0,0,1,170.26,161.89Z"/><path class="cls-39" d="M181.11,177.07h0a.78.78,0,0,1,.78.78v6.68a0,0,0,0,1,0,0h-1.57a0,0,0,0,1,0,0v-6.68A.78.78,0,0,1,181.11,177.07Z"/><path class="cls-39" d="M177.5,177.07h0a.78.78,0,0,1,.78.78v6.68a0,0,0,0,1,0,0h-1.57a0,0,0,0,1,0,0v-6.68A.78.78,0,0,1,177.5,177.07Z"/><path class="cls-39" d="M173.88,177.07h0a.78.78,0,0,1,.78.78v6.68a0,0,0,0,1,0,0H173.1a0,0,0,0,1,0,0v-6.68A.78.78,0,0,1,173.88,177.07Z"/><path class="cls-39" d="M170.26,177.07h0a.78.78,0,0,1,.78.78v6.68a0,0,0,0,1,0,0h-1.57a0,0,0,0,1,0,0v-6.68A.78.78,0,0,1,170.26,177.07Z"/><path class="cls-45" d="M175.88,138.72h0c-1.8.51-4.4,3.37-4.4,5.79v8.86h8.8v-8.86C180.28,142.09,177.68,139.23,175.88,138.72Z"/><line class="cls-46" x1="173.38" y1="140.47" x2="173.38" y2="153.37"/><line class="cls-46" x1="178.24" y1="140.47" x2="178.24" y2="153.37"/><line class="cls-46" x1="175.81" y1="139.05" x2="175.81" y2="153.37"/><line class="cls-46" x1="171.49" y1="146.21" x2="179.97" y2="146.21"/><line class="cls-46" x1="171.49" y1="149.55" x2="179.97" y2="149.55"/><polygon class="cls-44" points="178.33 134.71 173.04 134.71 173.04 128.88 175.66 125.4 178.33 128.88 178.33 134.71"/><polygon class="cls-39" points="176.05 102.7 175.32 102.7 170.84 122.92 180.54 122.92 176.05 102.7"/><rect class="cls-47" x="165.36" y="156.36" width="20.66" height="2.88"/><rect class="cls-47" x="165.36" y="171.77" width="20.66" height="2.88"/><path class="cls-39" d="M167.82,128.12h0a.55.55,0,0,1,.55.55v4.67a0,0,0,0,1,0,0h-1.1a0,0,0,0,1,0,0v-4.67A.55.55,0,0,1,167.82,128.12Z"/><path class="cls-39" d="M183.55,128.12h0a.55.55,0,0,1,.55.55v4.67a0,0,0,0,1,0,0H183a0,0,0,0,1,0,0v-4.67A.55.55,0,0,1,183.55,128.12Z"/><circle class="cls-48" cx="126.72" cy="92.99" r="151.91"/></g><polygon class="cls-2" points="83.39 44.98 83.93 48.29 81.39 46.11 80.66 46.52 81.18 49.82 78.67 47.65 77.86 48.11 81.3 51.03 82.13 50.56 81.66 47.47 84.05 49.48 84.87 49.01 84.15 44.55 83.39 44.98"/><path class="cls-2" d="M88.26,46.45a1.48,1.48,0,0,1-1,.15,1.19,1.19,0,0,1-.73-.47l3-1.43c0-.12-.08-.21-.11-.28a2.24,2.24,0,0,0-.74-.91,1.94,1.94,0,0,0-1-.37,2.12,2.12,0,0,0-1.11.23,2.25,2.25,0,0,0-.9.73,2,2,0,0,0-.37,1,2.18,2.18,0,0,0,.22,1.13,2.25,2.25,0,0,0,.75.89,2,2,0,0,0,1.07.34,2.56,2.56,0,0,0,1.23-.28,2.47,2.47,0,0,0,.81-.58,1.7,1.7,0,0,0,.43-.77l-.74-.33A1.53,1.53,0,0,1,88.26,46.45Zm-2-.91a1.23,1.23,0,0,1,0-.85,1.15,1.15,0,0,1,.61-.6,1.22,1.22,0,0,1,.85-.1,1.17,1.17,0,0,1,.67.51Z"/><path class="cls-2" d="M94,41.33a1.83,1.83,0,0,0-1-.42,2.24,2.24,0,0,0-1.13.16,2.08,2.08,0,0,0-.65.42,1.66,1.66,0,0,0-.4.61l-.81-2-.92.38,2.21,5.46.88-.36-.21-.51a1.45,1.45,0,0,0,.73.19,2.1,2.1,0,0,0,.8-.15,2.27,2.27,0,0,0,.92-.67,1.92,1.92,0,0,0,.43-1,2.4,2.4,0,0,0-.17-1.16A2.22,2.22,0,0,0,94,41.33Zm-.22,2.34a1.16,1.16,0,0,1-.69.68,1.27,1.27,0,0,1-.66.09,1.21,1.21,0,0,1-.59-.26,1.57,1.57,0,0,1-.53-1.3,1.16,1.16,0,0,1,.25-.59,1.19,1.19,0,0,1,.53-.4,1.28,1.28,0,0,1,1,0,1.35,1.35,0,0,1,.68.76A1.3,1.3,0,0,1,93.74,43.67Z"/><path class="cls-2" d="M98.63,39.13a1.77,1.77,0,0,0-1.36,0,2.16,2.16,0,0,0-.72.39,1.54,1.54,0,0,0-.45.57l-.68-2-.94.31,1.86,5.59.94-.32-.68-2a1.27,1.27,0,0,1,0-1,1.14,1.14,0,0,1,.71-.58.92.92,0,0,1,.8,0,1.21,1.21,0,0,1,.51.71l.73,2.18.94-.31-.77-2.31A1.81,1.81,0,0,0,98.63,39.13Z"/><rect class="cls-2" x="100.93" y="37.96" width="0.99" height="4.24" transform="translate(-7.1 29.33) rotate(-15.91)"/><path class="cls-2" d="M100.18,37.33a.61.61,0,0,0,.48,0,.6.6,0,0,0,.44-.77.52.52,0,0,0-.29-.34.72.72,0,0,0-.87.25.62.62,0,0,0-.06.46A.57.57,0,0,0,100.18,37.33Z"/><path class="cls-2" d="M106.45,37.05a1.79,1.79,0,0,0-1.36-.16,2.32,2.32,0,0,0-.78.35,1.44,1.44,0,0,0-.5.57l-.13-.53-.92.22,1,4.12,1-.23-.5-2.08a1.37,1.37,0,0,1,.09-1,1.15,1.15,0,0,1,.77-.52,1,1,0,0,1,.79.1,1.21,1.21,0,0,1,.45.76l.53,2.23,1-.23-.57-2.36A1.82,1.82,0,0,0,106.45,37.05Z"/><path class="cls-2" d="M110.64,39.36a.57.57,0,0,1-.46-.09.63.63,0,0,1-.23-.44l-.35-2,1.12-.2-.13-.78-1.12.19-.16-1-1,.17.16.95-.69.12.14.78.69-.12.35,2a1.39,1.39,0,0,0,.55,1,1.53,1.53,0,0,0,1.13.17,1.63,1.63,0,0,0,.5-.16,1.15,1.15,0,0,0,.39-.28l-.4-.65A.87.87,0,0,1,110.64,39.36Z"/><path class="cls-2" d="M112.57,38.52a.63.63,0,0,0-.54.75.64.64,0,0,0,.74.55.64.64,0,0,0,.55-.75.65.65,0,0,0-.26-.44A.64.64,0,0,0,112.57,38.52Z"/><rect class="cls-2" x="114.11" y="35.25" width="0.99" height="4.24" transform="translate(-3.85 15.05) rotate(-7.39)"/><path class="cls-2" d="M114.67,34.34a.54.54,0,0,0,.12-.46.5.5,0,0,0-.23-.38.69.69,0,0,0-.9.12.6.6,0,0,0-.12.45.55.55,0,0,0,.23.39.61.61,0,0,0,.47.11A.59.59,0,0,0,114.67,34.34Z"/><path class="cls-2" d="M120.24,35.68a2,2,0,0,0-.86-.7,2.47,2.47,0,0,0-1.19-.18,2.38,2.38,0,0,0-1.13.38,1.92,1.92,0,0,0-.73.84,2.14,2.14,0,0,0-.2,1.13,2.24,2.24,0,0,0,.39,1.1,2,2,0,0,0,.87.7,2.53,2.53,0,0,0,2.31-.2,2.06,2.06,0,0,0,.74-.84,2.19,2.19,0,0,0,.19-1.14A2.11,2.11,0,0,0,120.24,35.68Zm-.88,2.16a1.19,1.19,0,0,1-.87.44,1.22,1.22,0,0,1-.93-.28,1.36,1.36,0,0,1-.43-.93,1.28,1.28,0,0,1,.27-1,1.29,1.29,0,0,1,1.8-.15,1.32,1.32,0,0,1,.43.92A1.27,1.27,0,0,1,119.36,37.84Z"/><path class="cls-49" d="M96.67,162s-14.6,20-36.52,2.83c0,0,13.28-13.33,33.6-10.54"/><path class="cls-50" d="M97.11,162.34a28.37,28.37,0,0,1-7.91,6.9,23,23,0,0,1-10,3.18,23.75,23.75,0,0,1-10.42-1.67,36.32,36.32,0,0,1-9.1-5.25h0a.79.79,0,0,1-.17-1.11l.1-.11a39.91,39.91,0,0,1,7.54-5.41,42.55,42.55,0,0,1,8.47-3.65l1.1-.35,1.12-.28c.75-.17,1.5-.38,2.25-.53a41.9,41.9,0,0,1,4.58-.6,43.65,43.65,0,0,1,9.21.24.62.62,0,0,1-.13,1.23h0a42.24,42.24,0,0,0-8.92-.14,38.89,38.89,0,0,0-4.42.64c-.73.14-1.45.35-2.17.53l-1.08.28-1.06.35a41.74,41.74,0,0,0-8.14,3.62,38.13,38.13,0,0,0-7.14,5.23l-.08-1.23h0a35.1,35.1,0,0,0,8.64,5.15,22.22,22.22,0,0,0,9.78,1.71,21.76,21.76,0,0,0,9.51-2.88,27.38,27.38,0,0,0,7.64-6.48l0,0a.54.54,0,0,1,.76-.08A.55.55,0,0,1,97.11,162.34Z"/><path class="cls-49" d="M164.13,164.79s-16.53,16.58-39.29,16.53C59.58,181.16,67,119.85,79,107.68S131.66,94.05,136,129,164,158.56,164,158.56,163.4,141,179.64,142.9c0,0,1.52,16-7.47,17.76,0,0,9.93,5.29,7,19.44C179.19,180.1,165.5,181.9,164.13,164.79Z"/><g class="cls-51"><path class="cls-52" d="M164.13,164.79a44.85,44.85,0,0,1-30.73-4.2C121.85,154.35,83.35,143.15,89,171.8S150.65,187,150.65,187l12-14.35Z"/></g><path class="cls-53" d="M164.13,164.79s-16.53,16.58-39.29,16.53C59.58,181.16,67,119.85,79,107.68S131.66,94.05,136,129,164,158.56,164,158.56,163.4,141,179.64,142.9c0,0,1.52,16-7.47,17.76,0,0,9.93,5.29,7,19.44C179.19,180.1,165.5,181.9,164.13,164.79Z"/><circle class="cls-54" cx="81.17" cy="136.14" r="3.1"/><circle class="cls-2" cx="80.08" cy="135.37" r="1.04"/><path class="cls-55" d="M82.9,136.19a.67.67,0,0,0-.85.41,1.06,1.06,0,0,1-.89.69.65.65,0,0,0-.6.71.66.66,0,0,0,.71.61l.34-.05a2.37,2.37,0,0,0,1.7-1.53A.66.66,0,0,0,82.9,136.19Z"/><circle class="cls-54" cx="111.28" cy="129.19" r="3.1"/><circle class="cls-2" cx="110.19" cy="128.42" r="1.04"/><path class="cls-55" d="M113,129.24a.65.65,0,0,0-.84.41,1.08,1.08,0,0,1-.89.69.66.66,0,1,0,.11,1.32,2.15,2.15,0,0,0,.34,0,2.33,2.33,0,0,0,1.69-1.53A.66.66,0,0,0,113,129.24Z"/><path class="cls-56" d="M88.7,134.74c5.52-3.58,14.33-3.58,14.33-3.58s-.16,7.4-6.11,8.88C92.55,141.13,89.5,138.16,88.7,134.74Z"/><g class="cls-57"><path class="cls-58" d="M104.44,130.46s-11.32,2.84-12.39,11.36l10.87-1.8Z"/></g><path class="cls-59" d="M131.22,127.38s-18.34,22.19-36.31,23.06c-18.73.91-23.9-10.8-23.9-10.8s-1.39,2.54.55,8.48c2.31,7.07,11,11.46,25.11,10.73,16.79-.87,31.12-14.1,39.57-31.47Z"/><path class="cls-60" d="M131.22,127.38s-18.34,22.19-36.31,23.06c-18.73.91-23.9-10.8-23.9-10.8s-1.39,2.54.55,8.48c2.31,7.07,11,11.46,25.11,10.73,16.79-.87,31.12-14.1,39.57-31.47Z"/><path class="cls-60" d="M124.84,134.09a9.75,9.75,0,0,0,3.76,5.74"/><path class="cls-60" d="M117.06,140.8s-.19,3.59,3.47,7.69"/><path class="cls-60" d="M107.81,146.7a13,13,0,0,0,2,8.81"/><path class="cls-60" d="M95.7,150.33s-1.16,3.06.17,8.81"/><path class="cls-60" d="M85.69,149.85s-1.63,3.1-.15,8.51"/><path class="cls-60" d="M78.06,146.85s-1.63,3.48,0,9"/><path class="cls-61" d="M71,140.3s17.4-17.68,64.62-11.54c0,0,2.18,1.68,4.65-5.51s15.31-61.57-31.13-62.15-53,50-42.77,75.67C66.38,136.77,68.17,141.09,71,140.3Z"/><g class="cls-62"><path class="cls-63" d="M134.56,81.52a8.87,8.87,0,0,1,1.68,3.82"/><path class="cls-63" d="M128.33,79a11.69,11.69,0,0,1,1.91,2.84"/><path class="cls-63" d="M132.84,88.21a14.42,14.42,0,0,1,.67,3.64"/></g><path class="cls-49" d="M135.44,147.52s25.46-4.24,19.74-32.69c0,0-18.63,6.13-25.56,26.36"/><path class="cls-50" d="M135.35,147A28.48,28.48,0,0,0,145,142.9a22.64,22.64,0,0,0,7.15-7.52,23.13,23.13,0,0,0,3-9.91,36.64,36.64,0,0,0-.75-10.48h0l1.06.62a40.16,40.16,0,0,0-8.22,4.21,42.86,42.86,0,0,0-7.19,5.9l-.83.82-.77.88c-.5.59-1,1.16-1.51,1.77a42,42,0,0,0-2.66,3.82,43.76,43.76,0,0,0-4,8.38v0A.62.62,0,0,1,129,141a45.54,45.54,0,0,1,6.79-12.66c.49-.64,1-1.23,1.54-1.85l.79-.91.84-.86a43.94,43.94,0,0,1,7.37-6.17,41.5,41.5,0,0,1,8.56-4.49.8.8,0,0,1,1,.47l0,.13v0h0a38.15,38.15,0,0,1,.64,10.93,24.85,24.85,0,0,1-3.32,10.48,24.08,24.08,0,0,1-7.65,7.84,29.58,29.58,0,0,1-10.13,4.14.54.54,0,0,1-.64-.43.53.53,0,0,1,.42-.63Z"/></svg>