<svg xmlns="http://www.w3.org/2000/svg" viewBox="0 0 252 252"><defs><style>.ak,.am,.b,.f,.g{fill:none}.an,.g{stroke-width:1.66}.aj{fill:#fff}.al,.b{stroke-linecap:round;stroke-linejoin:round}.a,.b,.f{stroke-width:.57px}.ai{fill:#7addb7}.c{fill:#e8d4b1}.e{fill:#ceb791}.a,.d{fill:#f8f6ef}.a,.f{stroke:#ceb791}.a,.f,.g{stroke-miterlimit:10}.h{fill:#b2976f}.ah{fill:#58ba92}.p{fill:#ede68a}.i{fill:#686458}.j{fill:#ddd9ce}.m{fill:#998b6d}.o{fill:#89795f}.k{fill:#89795c}.l{fill:#a07d3f}.af{fill:#e2c791}.n{fill:#c6a761}.ag{fill:#efd7ab}.ae{opacity:.6}.ad{fill:#ceb074}.ac{fill:#e9faff;opacity:.5}.q{fill:#d3ba6c}.ab{fill:#bca153}.r{fill:#3aa595}.b{stroke:#685446}.s{fill:#161719}.t{fill:#a51717}.aa{fill:#d6ab22}.u{fill:#4976b7;opacity:.7}.v{fill:#93a0df}.w{fill:#6b7fc3}.x{fill:#1c4189}.y{fill:#ce8441}.g{stroke:#875e27}.z{fill:#ead98f}</style><linearGradient id="l1" x1="126" x2="126" y1="167.4" y2="69.78" gradientUnits="userSpaceOnUse"><stop offset=".02" stop-color="#fff"/><stop offset=".31" stop-color="#f7f4e8"/><stop offset=".75" stop-color="#75bcfc"/><stop offset="1" stop-color="#3384e5"/></linearGradient><clipPath id="c1"><rect width="203.08" height="147.19" x="24.46" y="62.54" class="ak" rx="11.34" ry="11.34"/></clipPath><linearGradient id="l2" x1="125.9" x2="125.9" y1="156.42" y2="185.12" gradientUnits="userSpaceOnUse"><stop offset="0" stop-color="#5894e4" stop-opacity=".3"/><stop offset="1" stop-color="#5894e4" stop-opacity="0"/></linearGradient><clipPath id="c2"><path d="M85.89 66.34h-.68l-.26 23.2h1.2l-.26-23.2z" class="ak"/></clipPath><clipPath id="c3"><path d="M75.98 150.39h156.26v36.69H75.98z" class="ak"/></clipPath><clipPath id="c4"><path d="M76.74 166.84c44.9 37.49 117.36-13.25 94.29-58.71-19.89-39.21-56.29-26.28-67.76-12.7-20.46 24.2-4.34 49.23-7.78 59.94s-17 4-17 4 5.64-13.13-11.61-20.48c0 0-6.54 14.65 2.28 20.53 0 0-11-2-13.7 15.13 6.54 1.59 15.33 2.17 21.28-7.71z" class="ak"/></clipPath><clipPath id="c5"><path d="M148.62 111.16a35.36 35.36 0 0 0-18 2.65c.15 3.13 6 10.91 12.94 9.66 8.35-1.47 5.06-12.31 5.06-12.31z" class="ak"/></clipPath></defs><path d="M216.2 56h-71.62l-1.8-13.88a7.35 7.35 0 0 0-7-6.38h-.31a7.37 7.37 0 0 0-7.16 5.75L125.15 56H35.8A17.86 17.86 0 0 0 18 73.87v124.52a17.86 17.86 0 0 0 17.8 17.84h180.4a17.86 17.86 0 0 0 17.85-17.84V73.87A17.86 17.86 0 0 0 216.2 56z" class="aj"/><rect width="203.08" height="147.19" x="24.46" y="62.54" fill="url(#l1)" rx="11.34" ry="11.34"/><g clip-path="url(#c1)"><path fill="url(#l2)" d="M19.56 142.85h15.46v-35.87l15.27-15.27v33.44H66.7v5.74h4.69v2.65h3.63v-8.77h2.85v6.83H80v11.06h10.9v-7.4h65.43v17.5h10.29v-13.81h65.62v52.37H19.56v-48.47z"/><path fill="#4e8ac6" d="M172.64 103.83h27.62v70.55h-27.62z"/><path fill="#a7c8e8" d="M183.43 134.04h10.58v1.33h-10.58zm-8.46-6.6h4.53v1.33h-4.53zm0 3.3h11.85v1.33h-11.85zm0 3.3h7.45v1.33h-7.45zm0 26.39h22.97v1.33h-22.97zm0-23.09h3.51v1.33h-3.51zm0 3.3h10.98v1.33h-10.98zm0 16.5h22.97v1.33h-22.97zm0-33h14.54v1.33h-14.54zm0-13.19h7.83v1.33h-7.83zm5.02-3.3h10.36v1.33h-10.36zm-5.02 0h4v1.33h-4zm0 9.9h12.58v1.33h-12.58zm0 3.29h5.55v1.33h-5.55zm15.55 3.3h2.09v1.33h-2.09zm-8.98-3.3h16.4v1.33h-16.4zm12.09 3.3h4.31v1.33h-4.31zm-13.11 3.3h17.42v1.33h-17.42zm8.04-9.89h9.37v1.33h-9.37zm2.81-9.9h6.57v1.33h-6.57zm-7.56 3.3h14.13v1.33h-14.13zm-8.84 3.3h22.97v1.33h-22.97zm12.86 16.49h10.11v1.33h-10.11zm-12.86 16.5h22.97v1.33h-22.97zm0 6.6h22.97v1.33h-22.97zm0-3.3h22.97v1.33h-22.97zm0-6.6h22.97v1.33h-22.97zm20.06-9.9h2.9v1.33h-2.9zm-8.07 6.6h10.98v1.33h-10.98zm-7.46-3.3h18.44v1.33H179.5z" opacity=".4"/><path stroke="#7a6d42" stroke-width=".57" d="M216.18 89.14v-8.12" class="al am"/><path d="M216.1 101.62s-19.32 0-26.87 20.54H243c-7.59-20.56-26.9-20.54-26.9-20.54z" class="ai"/><path d="M188.21 122.18h39.33v25.73h-39.33z" class="c"/><path d="M187.82 122.16h40.3v2.3h-40.3z" class="e"/><path fill="#ede4d6" d="M187.83 124.45h8.63v23.45h-8.63z"/><path d="M201.49 122.63h1.87v15.55h-1.87zm14.96.32h1.87v15.55h-1.87zm6.91-.21h1.87v15.55h-1.87z" class="e"/><path d="M187.82 126.27h40.3v2.3h-40.3z" class="e"/><path d="M205.53 129.71h3.11v6.44h-3.11z" class="a"/><path d="M207.09 129.71v6.44m-1.56-4.26h3.12m-3.12 2.09h3.12" class="f"/><path d="M210.73 129.71h3.11v6.44h-3.11z" class="a"/><path d="M212.28 129.71v6.44m-1.55-4.26h3.11m-3.11 2.09h3.11" class="f"/><path d="M199 130.1a.74.74 0 0 1 .74.74v4.66h-1.48v-4.66a.74.74 0 0 1 .74-.74zm0 11.54a.74.74 0 0 1 .74.74v2.7h-1.48v-2.7a.74.74 0 0 1 .74-.74zm21.84-11.54a.74.74 0 0 1 .74.74v4.66h-1.48v-4.66a.74.74 0 0 1 .74-.74z" class="h"/><path d="M187.82 137.03h40.3v2.3h-40.3z" class="e"/><path d="M208.42 148.39l20.47-11.05-.34 11.71-20.13-.66z" class="c"/><path d="M183.43 147.91h44.11v27.52h-44.11z" class="c"/><path d="M190.8 147.91h1.82v27.52h-1.82zm-7.98 0h1.82v27.52h-1.82z" class="e"/><path d="M183.06 147.91h44.48v2.3h-44.48zm.67 3.29h43.81v.77h-43.81zm4 2.54a2.08 2.08 0 0 1 2.08 2.08V164h-4.15v-8.17a2.08 2.08 0 0 1 2.07-2.09z" class="e"/><path d="M186.43 156.87h2.59v6.37h-2.59z" class="d"/><path d="M187.73 154.38a1.54 1.54 0 0 0-1.54 1.53v.33h3.07v-.33a1.54 1.54 0 0 0-1.53-1.53z" class="h"/><path d="M187.73 156.71v6.82m-1.67-5.39h3.43m-3.43 1.68h3.43m-3.48 1.69h3.43" class="f"/><path d="M204.51 153.74a2.08 2.08 0 0 1 2.08 2.08V164h-4.15v-8.17a2.08 2.08 0 0 1 2.07-2.09z" class="e"/><path d="M203.21 156.87h2.59v6.37h-2.59z" class="d"/><path d="M204.51 154.38a1.54 1.54 0 0 0-1.54 1.53v.33H206v-.33a1.54 1.54 0 0 0-1.49-1.53z" class="h"/><path d="M204.51 156.71v6.82m-1.66-5.39h3.42m-3.42 1.68h3.42m-3.48 1.69h3.43" class="f"/><path d="M210.06 149.68h4.34v25.75h-4.34zm18.06-14.65l-23.34 13.3 4.59 1.35 18.75-10.69v-3.96z" class="e"/><path d="M182.83 132.54h9.79v15.37h-9.79z" class="c"/><path d="M187.73 136.41a2.69 2.69 0 0 1 2.69 2.69v7.32H185v-7.32a2.69 2.69 0 0 1 2.73-2.69z" class="h"/><path d="M182.24 131.78h10.81v1.44h-10.81z" class="e"/><path d="M184.26 133.13v15.22h-1.44v-15.22zm8.35-.1v15.22h-1.44v-15.22z" class="e"/><path d="M182.99 136.15h9.46l-4.81-2.28-4.65 2.28z" class="e"/><path d="M187.64 124.29a4.81 4.81 0 0 1 4.81 4.81v2.68h-9.63v-2.68a4.81 4.81 0 0 1 4.81-4.81z" class="ai"/><path d="M204.72 141.64a.74.74 0 0 1 .74.74v2.7H204v-2.7a.74.74 0 0 1 .72-.74z" class="h"/><path d="M216.1 101.77v-.15s-19.32 0-26.87 20.54h2c6.05-16.57 19.77-19.77 24.87-20.39z" class="ah"/><path d="M216.1 101.62s-11.12.86-13.89 20.66h5.07s.52-15.87 9.56-20.66z" class="ah"/><path d="M216.16 101.77v-.15s19.31 0 26.87 20.54h-2c-6.03-16.57-19.77-19.77-24.87-20.39z" class="ah"/><path d="M216.16 101.62s11.12.86 13.89 20.66H225s-.53-15.87-9.56-20.66z" class="ah"/><path d="M210.67 101.01h10.86v1.22h-10.86zm0-5.8h10.86v1.22h-10.86z" class="ah"/><ellipse cx="215.89" cy="109.51" class="ah" rx="1.49" ry="1.2"/><ellipse cx="215.89" cy="116.13" class="ah" rx="2.37" ry="2.08"/><ellipse cx="202.42" cy="109.74" class="ah" rx="1.2" ry=".76" transform="rotate(-47.83 202.41 109.74)"/><ellipse cx="198.05" cy="116.13" class="ah" rx="2.08" ry="1.29" transform="rotate(-64.51 198.05 116.13)"/><ellipse cx="229.11" cy="109.74" class="ah" rx=".76" ry="1.2" transform="rotate(-42.17 229.12 109.74)"/><ellipse cx="233.49" cy="116.13" class="ah" rx="1.29" ry="2.08" transform="rotate(-25.49 233.45 116.12)"/><path d="M211.64 95.81h1.23v5.38h-1.23zm3.92 0h1.23v5.38h-1.23zm3.92 0h1.23v5.38h-1.23z" class="ah"/><path d="M216.68 86.07h-1a23.9 23.9 0 0 1-4.33 9.14H221a24.05 24.05 0 0 1-4.32-9.14z" class="p"/><circle cx="216.18" cy="83.73" r="1.23" class="p"/><path fill="#d6ba6e" d="M214.79 95.21a29.16 29.16 0 0 0 1-8.07 20.87 20.87 0 0 1-3.09 8.07zm2.61 0a29.64 29.64 0 0 1-1-8.07 21 21 0 0 0 3.1 8.07z"/><path fill="#6ca6ed" d="M170.19 173.92v6.27h-5.64v6.89h28.67v-11.66l-23.03-1.5z" opacity=".3"/><path fill="#62676b" d="M83.49 89.54h4.12v5.61h-4.12z"/><path fill="#c9c5b9" d="M89.24 187.08h-7.27L83.69 111h3.83l1.72 76.08z"/><path d="M85.6 111.89a8.08 8.08 0 0 0 7.74-5.81H77.87a8.07 8.07 0 0 0 7.73 5.81z" class="i"/><path d="M77.87 106.08h15.47a7.66 7.66 0 0 0 .21-1H77.66a7.66 7.66 0 0 0 .21 1zm15.79-2.25a8.06 8.06 0 1 0-16.11 0h16.11z" class="j"/><path d="M77.55 103.83a7.86 7.86 0 0 0 .11 1.3h15.89a7.86 7.86 0 0 0 .11-1.3z" class="i"/><path fill="#a5a092" d="M82.86 114.56h5.5v1.1h-5.5zm0 1.96h5.5v1.1h-5.5zm0-21.37h5.5v1.1h-5.5zm-.06-5.61h5.5v1.1h-5.5z"/><ellipse cx="81.33" cy="99.8" class="aj" rx="1.1" ry=".88" transform="rotate(-63.16 81.34 99.8)"/><path d="M85.89 66.34h-.68l-.26 23.2h1.2l-.26-23.2z" class="j"/><path fill="#ba3f2b" d="M84.01 65.76h3.19v1.63h-3.19zm0 3.17h3.19v1.63h-3.19zm0 3.16h3.19v1.63h-3.19zm0 3.16h3.19v1.63h-3.19zm0 3.17h3.19v1.63h-3.19zm0 3.16h3.19v1.63h-3.19zm0 3.16h3.19v1.63h-3.19zm0 3.17h3.19v1.63h-3.19z" clip-path="url(#c2)"/><path fill="#33604d" d="M44.11 119.41a16.64 16.64 0 0 1-.73-2c-.12-.86-.45-1.3-.78-1.45h-.1l-.36-.92-.32 1-.17.07-.48-.8-.54 1.61c-.78 1-.82 2.62-1.38 3.7-1.16 2.25-3.77 1.8-4.2 4.58-.2 1.24.35 2.34.5 3.53a17.6 17.6 0 0 0 .15 2.6c.55 1.44 1.9.89 3.54.89a10.87 10.87 0 0 1-.11-1.28s.35-4.91 1.48-3.84l1.51 1.29c.55 1-.76 2.83 0 3.24 1 .56 1-.92 1.12-1.75a10.79 10.79 0 0 0 .27-2.71c0-.09-.49-.31-.8-.58-.69-.61.1-2.11.08-3 0-.4-.66-.83-.54-1.29s.1-1.49.19-1.79 1.08.27 1.35.15c.44-.25.51-.66.32-1.25zm-11.05.93a16.38 16.38 0 0 1 .25-3.11 1.51 1.51 0 0 0-1.24-1.77c-1-.15-1.61-.2-2.4 1.85-.78-3.88-2.21 1.55-3.21-.51-.5-1 1-1.54.15-2.54-.53-.65-1.53-.06-1.72-.26-.32-.36-.42-2.66-.28-3.91a2.88 2.88 0 0 0 .39-5.63 3.42 3.42 0 0 0 2.26-3.68 3.71 3.71 0 0 0-2.37 1.67c0-.17-.24-.9-.6-.9-.29.57-.47-.19-.61.9a2.06 2.06 0 0 0-.31-.46v2.36l.23.08a1 1 0 0 0-.23.07v5.5a2.56 2.56 0 0 0 .68.13 8.12 8.12 0 0 1-.06 2.22 3.42 3.42 0 0 1-.62 1.79v18.25a49.2 49.2 0 0 0 8.25 0h2.76V122a1.74 1.74 0 0 0-1.32-1.66zm-9-3.86c-1 .6-.88-1.62 0-1.42.24.07.24 1.29.02 1.42z"/><path fill="#79b2f2" d="M22.81 187.08h208.47v24.89H22.81z"/><g clip-path="url(#c3)"><path d="M99.17 157.47H101l.42 2.48h-2.67l.42-2.48zm2.02 3.87l1.43-1.05h-2.54v1.05h1.11z" class="m"/><path d="M102.64 160.29h-2.54v-.34h2.54z" class="o"/><path d="M98.98 161.34l-1.43-1.05h2.53v1.05h-1.1z" class="m"/><path d="M97.55 159.95h2.54v.34h-2.54z" class="o"/><path d="M100.03 170.15l-2.29-.25 1.4-8.39h1.89l1.4 8.39-2.29.25v.01h-.11v-.01z" class="k"/><path d="M147.06 169.02h-.99v-2.65h.99zm-2.57 0h-.99v-2.65h.99zm-2.56 0h-.99v-2.65h.99zm-2.59 0h-.99v-2.65h.99zm-2.56 0h-.99v-2.65h.99zm-2.59 0h-.99v-2.65h.99zm-2.57 0h-.99v-2.65h.99zm-2.56 0h-.99v-2.65h.99zm-2.57.56h-.99v-2.65h.99zm-2.57 0h-.99v-2.65h.99zm-2.58.59h-.99v-2.65h.99zm-2.57.57h-.99v-2.65h.99zm-2.58 0h-.99v-2.65h.99zm-2.57.58h-.99v-2.65h.99zm-2.57.57h-.99v-2.65h.99zm-2.58 0h-.99v-2.65h.99zm-2.57.56h-.99v-2.65h.99zm-9.75.93h-.99v-2.65h.99zm-2.63 0h-.99v-2.65h.99zm-2.63 0h-.99v-2.65h.99zm-2.63 0h-.99v-2.65h.99zm-2.63 0h-.99v-2.65h.99zm-2.63 0h-.99v-2.65H83zm-2.63 0h-.99v-2.65h.99zm-2.63 0h-.99v-2.65h.99zm-2.65 0h-.99v-2.65h.99zm-2.61 0h-.99v-2.65h.99zm-2.63 0h-.99v-2.65h.99z" class="l"/><path d="M148.17 174c-.19-1.81-.58-2.39 0-4.75-5.19 0-25.91-.12-45.71 4.08v13.74h4.91s1.8-9.48 17.76-11.44c13.41-1.63 19.36-1.63 23.04-1.63z" class="af"/><path d="M148.17 169.83c-5.19 0-25.91-.12-45.71 4.09v-1.51c19.8-4.21 40.52-4.09 45.71-4.09z" class="n"/><path d="M102.47 187.1H66.18v-12.7h36.29z" class="af"/><path d="M102.47 174.38H66.18v-1.54h36.29z" class="n"/><path d="M102.47 171.44H66.18v-1.54h36.29z" class="m"/><path d="M148.17 167c-5.19 0-25.91-.12-45.71 4.09v-1.51c19.8-4.2 40.52-4.09 45.71-4.09z" class="m"/><path d="M103.07 174.37h-6v-3.89a1.26 1.26 0 0 1 1.26-1.26h3.49a1.26 1.26 0 0 1 1.26 1.26v3.89h-.01z" class="m"/><path d="M97.18 174.9h5.81l1.97 7.14h-9.75l1.97-7.14zm7.71 12.18H95.3v-5.04h9.59z" class="ag"/><path d="M101.59 161.51H98.6v-.34h2.99z" class="o"/><rect width="5.16" height="2.44" x="77.57" y="177.5" class="n" rx=".39" ry=".39" transform="rotate(-180 80.16 178.72)"/><rect width="2.38" height="1.13" x="97.1" y="182.97" class="n" rx=".22" ry=".22" transform="rotate(-180 98.3 183.53)"/><rect width="2.38" height="1.13" x="96.14" y="184.19" class="n" rx=".22" ry=".22" transform="rotate(-180 97.33 184.75)"/><rect width="5.16" height="2.44" x="80.16" y="180.3" class="n" rx=".39" ry=".39" transform="rotate(-180 82.74 181.52)"/><path d="M100.89 179.18v-.08h3.26l.16.57h-3.21l1.07 2.45-.53.23-1.38-3.17.53-.23.1.23zm-5.05.44l.16-.58h3.26v.09l.1-.24.53.23-1.38 3.17-.53-.23 1.07-2.44h-3.21zm3.72-1.49l-.1-.24h-3.14l.16-.57h2.76l-.88-2.21.54-.21 1.19 3.01 1.16-2.95.54.21-.88 2.21h2.76l.16.57h-3.14v-.01l-.1.24-.53-.21.02-.05-.52.21z" class="ad ae"/><path d="M103.53 175.42h-6.86v-1.04h6.86zm1.93 7.14H94.72v-1.04h10.74z" class="n"/><circle cx="100.08" cy="178.6" r="1.6" class="n"/><circle cx="100.15" cy="155.31" r="1.57" class="ac"/><circle cx="99.5" cy="154.77" r=".35" class="aj"/><circle cx="99.15" cy="155.51" r=".2" class="aj"/></g><path fill="#a58941" d="M22.81 182.04h53.17v5.04H22.81z"/><path d="M22.81 144.36h50.87v5.04H22.81z" class="q"/><path fill="#aa8b3f" d="M22.81 149.41h49.27v2.49H22.81zm0-8.45h49.27v3.4H22.81z"/><path d="M72.08 140.96l1.6-2.9H22.81v2.9h49.27z" class="q"/><path d="M62.97 180.33h7.46v1.71h-7.46zm0-28.43h7.46v1.71h-7.46z" class="ab"/><path d="M64.12 153.61h5.16v26.71h-5.16z" class="q"/><path d="M51.71 180.33h7.46v1.71h-7.46zm0-28.43h7.46v1.71h-7.46z" class="ab"/><path d="M52.86 153.61h5.16v26.71h-5.16z" class="q"/><path d="M40.45 180.33h7.46v1.71h-7.46zm0-28.43h7.46v1.71h-7.46z" class="ab"/><path d="M41.6 153.61h5.16v26.71H41.6z" class="q"/><path d="M29.19 180.33h7.46v1.71h-7.46zm0-28.43h7.46v1.71h-7.46z" class="ab"/><path d="M30.34 153.61h5.16v26.71h-5.16z" class="q"/><path d="M22.81 136.12h50.87v1.94H22.81zm-.33-4.52h23.8v1.94h-23.8z" class="ab"/><path fill="#dbc27d" d="M22.81 133.54h22.81v10.82H22.81z"/><path d="M22.81 135.26h21.08v7.59H22.81z" class="ab"/><circle cx="211.07" cy="162.36" r="6.38" class="r"/><path d="M211.07 159.25v14.52m.01-10.53l3.62-3.42m-3.62 6.96l-3.78-3.25" class="b"/><circle cx="224.83" cy="162.36" r="6.38" class="r"/><path d="M224.83 159.25v14.52m.01-8.18l3.63-3.41m-3.63 1.62l-3.45-2.97" class="b"/><path d="M196.51 157.47h-1.83l-.42 2.48h2.67l-.42-2.48zm-2.02 3.87l-1.43-1.05h2.54v1.05h-1.11z" class="m"/><path d="M193.06 159.95h2.54v.34h-2.54z" class="o"/><path d="M196.7 161.34l1.43-1.05h-2.53v1.05h1.1z" class="m"/><path d="M198.14 160.29h-2.54v-.34h2.54z" class="o"/><path d="M195.65 170.15l2.29-.25-1.4-8.39h-1.89l-1.4 8.39 2.29.25v.01h.11v-.01z" class="k"/><path d="M148.61 166.36h.99v2.65h-.99zm2.57 0h.99v2.65h-.99zm2.58 0h.99v2.65h-.99zm2.57 0h.99v2.65h-.99zm2.57 0h.99v2.65h-.99zm2.58 0h.99v2.65h-.99zm2.57 0h.99v2.65h-.99zm2.57 0h.99v2.65h-.99zm2.58.58h.99v2.65h-.99zm2.57 0h.99v2.65h-.99zm2.57.57h.99v2.65h-.99zm2.58.57h.99v2.65h-.99zm2.57 0h.99v2.65h-.99zm2.58.58h.99v2.65h-.99zm2.57.57h.99v2.65h-.99zm2.57 0h.99v2.65h-.99zm2.58.58h.99v2.65h-.99zm9.75.93h.99v2.65h-.99zm2.63 0h.99v2.65h-.99zm2.63 0h.99v2.65h-.99zm2.63 0h.99v2.65h-.99zm2.63 0h.99v2.65h-.99zm2.63 0h.99v2.65h-.99zm2.63 0h.99v2.65h-.99zm2.63 0h.99v2.65h-.99zm2.63 0h.99v2.65h-.99zm2.63 0h.99v2.65h-.99zm2.63 0h.99v2.65h-.99z" class="l"/><path d="M147.51 174c-1.56-1.31-.89-2.37 0-4.75 5.19 0 25.91-.12 45.71 4.08v13.74h-4.91s-1.8-9.48-17.76-11.44C157.14 174 151.19 174 147.51 174z" class="af"/><path d="M147.51 169.83c5.19 0 25.91-.12 45.71 4.09v-1.51c-19.8-4.21-40.52-4.09-45.71-4.09z" class="n"/><path d="M193.22 174.38h36.29v12.7h-36.29z" class="af"/><path d="M193.22 172.84h36.29v1.54h-36.29z" class="n"/><path d="M193.22 169.9h36.29v1.54h-36.29zm-45.71-2.9c5.19 0 25.91-.12 45.71 4.09v-1.51c-19.8-4.2-40.52-4.09-45.71-4.09z" class="m"/><path d="M193.88 169.23h3.44a1.26 1.26 0 0 1 1.26 1.26v3.89h-6v-3.89a1.26 1.26 0 0 1 1.3-1.26z" class="m"/><path d="M198.5 174.9h-5.81l-1.97 7.14h9.75l-1.97-7.14zm-7.7 7.14h9.59v5.04h-9.59z" class="ag"/><path d="M194.1 161.17h2.99v.34h-2.99z" class="o"/><rect width="5.16" height="2.44" x="207.13" y="177.5" class="n" rx=".39" ry=".39"/><rect width="2.38" height="1.13" x="193.11" y="182.97" class="n" rx=".22" ry=".22"/><rect width="2.38" height="1.13" x="191.86" y="184.19" class="n" rx=".22" ry=".22"/><rect width="5.16" height="2.44" x="210.36" y="180.3" class="n" rx=".39" ry=".39"/><circle cx="195.53" cy="155.31" r="1.57" class="ac"/><circle cx="194.87" cy="154.77" r=".35" class="aj"/><circle cx="194.52" cy="155.51" r=".2" class="aj"/><path d="M194.79 179.18v-.08h-3.26l-.16.57h3.21l-1.07 2.45.53.23 1.38-3.17-.53-.23-.1.23zm5.05.44l-.16-.58h-3.26v.09l-.1-.24-.53.23 1.38 3.17.53-.23-1.07-2.44h3.21zm-3.71-1.49l.09-.24h3.14l-.16-.57h-2.76l.88-2.21-.54-.21-1.19 3.01-1.16-2.95-.54.21.88 2.21h-2.76l-.16.57h3.14v-.01l.1.24.53-.21-.02-.05.53.21z" class="ad ae"/><path d="M192.17 174.38h6.86v1.04h-6.86zm-1.94 7.14h10.74v1.04h-10.74z" class="n"/><circle cx="195.6" cy="178.6" r="1.6" class="n"/><path d="M31.87 74.83l8.06 18.26 8.51-18.48-16.57.22z" class="s"/><path d="M48.56 74.83l8.06 18.26L65.13 74l-16.57.83z" class="t"/><path d="M65.13 74l7.72 17.5 8.94-18.42-16.66.92z" class="aa"/><path d="M82.06 73.1l9.04 16.08 7.93-17.67-16.97 1.59z" class="s"/><path d="M99.03 71.34l9.13 15.16 7.83-17.32-16.96 2.16z" class="t"/><path d="M115.99 69.09l9.13 15.16 7.98-17.64-17.11 2.48z" class="aa"/><path d="M131.67 66.62l9.13 15.15 6.46-18.68-15.59 3.53z" class="s"/><path d="M147.26 63.15l9.24 15.94 6.78-20.7-16.02 4.76z" class="t"/><path d="M163.52 58.27l9.23 15.95 6.79-20.71-16.02 4.76zM14.8 74.83l8.47 19.18 8.6-19.18H14.8z" class="aa"/><path stroke="#565351" d="M17.36 74.64s92 3.25 148.68-17.22" class="al am"/><path d="M214.7 211.07h16.58v-24h-43s1.25 2.9 8 2.9c0 0-7.1.17-7.28 1.92s10 2.1 10 2.1-3.25.22-3.24 1.22 5 2.22 9 2.29c0 0-2.08.15-2 .79s3.28 1.58 6.86 1.72c0 0-6 .65-5.73 2.16s7.38 2.79 7.38 2.79-9.46-.21-10.39 1.65 5.96 4.46 13.82 4.46z" class="u"/><ellipse cx="190.08" cy="195.65" class="u" rx="3.32" ry=".93"/><ellipse cx="96.4" cy="200.07" class="u" rx="3.32" ry=".93"/><ellipse cx="195.79" cy="198.14" class="u" rx="2.07" ry=".58"/><ellipse cx="91.31" cy="202.77" class="u" rx="2.07" ry=".58"/><path d="M22.81 187.08h84.56s-.57 2.33-5.45 2.83c0 0 7-.12 7 1.41 0 2-13.49 3-13.49 3s4.16.57 4.23 1.93-13.34 1.94-13.34 1.94 3.8.3 3.73 1.3-8 1.93-8 1.93 2.59.36 2.59 1.5-7.24 1.87-7.24 1.87 5.45 0 5.59 1.27-9.61 2.17-9.61 2.17 8 0 7.89 1.87-7.47 1.9-7.47 1.9H58s-4.81-2.85.64-3.64c0 0-5-.21-5.38-1.93s4.31-2.08 4.31-2.08-4.67-.36-4.74-2.08S58 200 58 200s-10.12-.64-10.12-2.79 5.77-2.21 5.77-2.21-7.89-.28-10.76-1.65c0 0-3.3 1.94-9.18 1.94 0 0 5.24.5 5.24 2.44s-9.76 2.44-9.76 2.44 6 .21 6 1.72-8.68 2.72-8.68 2.72 5.38.43 5.38 2-7.39 2.58-7.39 2.58 6-.27 5.88 1.8-8.46 2.06-8.46 2.06z" class="u"/></g><path d="M135.57 199.59l-1.16-3.18h-.84l-1.18 3.16-1.13-3.16h-.95l1.57 4.29h.97l1.12-2.96 1.11 2.96h.96l1.59-4.29h-.9l-1.16 3.18zm5.61-2.95a2.19 2.19 0 0 0-1.12-.28 2.29 2.29 0 0 0-1.14.28 2 2 0 0 0-.79.78 2.26 2.26 0 0 0-.29 1.13 2.21 2.21 0 0 0 .3 1.14 2 2 0 0 0 .83.78 2.61 2.61 0 0 0 1.24.28 2.87 2.87 0 0 0 1-.17 1.86 1.86 0 0 0 .73-.53l-.54-.62a1.52 1.52 0 0 1-1.16.47 1.49 1.49 0 0 1-.93-.28 1.14 1.14 0 0 1-.46-.75h3.36v-.3a2.34 2.34 0 0 0-.28-1.16 1.9 1.9 0 0 0-.75-.77zm-2.34 1.57a1.2 1.2 0 0 1 .4-.76 1.24 1.24 0 0 1 .82-.29 1.21 1.21 0 0 1 .82.29 1.17 1.17 0 0 1 .39.76zm7.85-1.58a2.29 2.29 0 0 0-1.12-.27 2.15 2.15 0 0 0-.77.14 1.7 1.7 0 0 0-.6.43v-2.19h-1v6h1v-.56a1.54 1.54 0 0 0 .61.46 2.16 2.16 0 0 0 .81.15 2.29 2.29 0 0 0 1.12-.27 2 2 0 0 0 .78-.78 2.5 2.5 0 0 0 0-2.3 2 2 0 0 0-.83-.81zm-.32 2.89a1.2 1.2 0 0 1-.91.37 1.28 1.28 0 0 1-.65-.16 1.16 1.16 0 0 1-.46-.47 1.57 1.57 0 0 1 0-1.42 1.16 1.16 0 0 1 .46-.47 1.28 1.28 0 0 1 .65-.16 1.2 1.2 0 0 1 .91.37 1.34 1.34 0 0 1 .36 1 1.32 1.32 0 0 1-.36.94zm4.77-3.16a2.14 2.14 0 0 0-.82.14 1.62 1.62 0 0 0-.61.4v-2.16h-1v6h1v-2.17a1.3 1.3 0 0 1 .32-1 1.12 1.12 0 0 1 .87-.34 1 1 0 0 1 .76.29 1.19 1.19 0 0 1 .26.85v2.33h1v-2.46a1.91 1.91 0 0 0-.49-1.41 1.82 1.82 0 0 0-1.29-.47zm3.07.05h1v4.29h-1zm.5-1.92a.65.65 0 0 0-.46.18.57.57 0 0 0-.18.43.58.58 0 0 0 .18.43.69.69 0 0 0 .46.17.62.62 0 0 0 .46-.18.61.61 0 0 0 .18-.45.54.54 0 0 0-.18-.41.67.67 0 0 0-.46-.17zm4.29 1.87a2.26 2.26 0 0 0-.85.15 1.59 1.59 0 0 0-.63.45v-.55h-.95v4.29h1v-2.17a1.34 1.34 0 0 1 .32-1 1.15 1.15 0 0 1 .88-.34 1 1 0 0 1 .75.29 1.19 1.19 0 0 1 .27.85v2.33h1v-2.46a1.87 1.87 0 0 0-.49-1.41 1.82 1.82 0 0 0-1.3-.43zm4.76 3.56a.57.57 0 0 1-.44-.16.69.69 0 0 1-.15-.48v-2h1.15v-.8h-1.15v-1h-1v1h-.7v.8h.7v2.07a1.39 1.39 0 0 0 .39 1.07 1.5 1.5 0 0 0 1.09.37 1.9 1.9 0 0 0 .54-.07 1.17 1.17 0 0 0 .43-.22l-.28-.71a.88.88 0 0 1-.58.13zm2.08-.5a.64.64 0 0 0-.47.18.65.65 0 0 0-.19.48.62.62 0 0 0 .19.48.63.63 0 0 0 .47.19.62.62 0 0 0 .46-.19.63.63 0 0 0 .2-.48.69.69 0 0 0-.19-.48.67.67 0 0 0-.47-.18zm1.64-3.01h1v4.29h-1zm.52-1.92a.65.65 0 0 0-.46.18.57.57 0 0 0-.18.43.58.58 0 0 0 .18.43.69.69 0 0 0 .46.17.62.62 0 0 0 .46-.18.61.61 0 0 0 .18-.45.54.54 0 0 0-.18-.41.67.67 0 0 0-.46-.17zm5.72 2.93a2.12 2.12 0 0 0-.82-.78 2.61 2.61 0 0 0-2.35 0 2 2 0 0 0-.81.78 2.15 2.15 0 0 0-.3 1.13 2.21 2.21 0 0 0 .3 1.14 2 2 0 0 0 .81.78 2.61 2.61 0 0 0 2.35 0 2.12 2.12 0 0 0 .82-.78 2.3 2.3 0 0 0 .29-1.14 2.24 2.24 0 0 0-.29-1.13zm-1.08 2.1a1.22 1.22 0 0 1-.92.37 1.2 1.2 0 0 1-.91-.37 1.32 1.32 0 0 1-.36-1 1.34 1.34 0 0 1 .36-1 1.2 1.2 0 0 1 .91-.37 1.22 1.22 0 0 1 .92.37 1.34 1.34 0 0 1 .36 1 1.32 1.32 0 0 1-.36 1z" class="aj"/><path fill="#93a0df" stroke="#1c4189" d="M165.3 134.52s10.13-12.81 23.33-16.64c0 0 10.79 7.56-5.45 26.2-14.05 16.13-38.64 7.75-38.64 7.75z" class="al an"/><path d="M76.74 166.84c44.9 37.49 117.36-13.25 94.29-58.71-19.89-39.21-56.29-26.28-67.76-12.7-20.46 24.2-4.34 49.23-7.78 59.94s-17 4-17 4 5.64-13.13-11.61-20.48c0 0-6.54 14.65 2.28 20.53 0 0-11-2-13.7 15.13 6.54 1.59 15.33 2.17 21.28-7.71z" class="v"/><g clip-path="url(#c4)"><ellipse cx="94.51" cy="122.55" class="w" rx="13.23" ry="4.67" transform="rotate(-88.05 94.51 122.55)"/><path d="M102.1 133.26c1.31.1 2.27-2.84 2.6-5.59s-.2-4.59-1.42-4.36c-1 .17-2 2.1-2.28 4.85s.16 5.03 1.1 5.1z" class="w"/><ellipse cx="99.1" cy="137.43" class="w" rx="2.38" ry=".96" transform="rotate(-79.77 99.1 137.43)"/><path fill="#b8c3ec" d="M77.51 167.47s25.34 10.66 36.15-1.2c11.18-12.28 35.55-49.19 60.62-19.51 0 0-29.26 56.23-83.57 36.15z"/></g><path stroke="#1c4189" d="M76.74 166.84c44.9 37.49 117.36-13.25 94.29-58.71-19.89-39.21-56.29-26.28-67.76-12.7-20.46 24.2-4.34 49.23-7.78 59.94s-17 4-17 4 5.64-13.13-11.61-20.48c0 0-6.54 14.65 2.28 20.53 0 0-11-2-13.7 15.13 6.54 1.59 15.33 2.17 21.28-7.71z" class="al am an"/><path fill="#c7e5ec" stroke="#4b8084" d="M125.77 85.53l9.45-42.91s4 31.11 5.48 42.88c.45 3.64-7.78 3.89-7.78 3.89s-7.92.24-7.15-3.86z" class="al an"/><path stroke="#80b8c1" d="M126.56 82.88c1.46.38 8.47 1.44 13.17-3.57m-10.92-7.62a14 14 0 0 0 9.72-2.81M131.4 60a14.08 14.08 0 0 0 5.79-1.54" class="al am an"/><path stroke="#4b8084" d="M125.77 85.53l9.45-42.91s4 31.11 5.48 42.88" class="al am an"/><path fill="#402b5e" d="M148.72 110.63a39.84 39.84 0 0 0-18.11 3.18c.15 3.13 6 10.91 12.94 9.66 8.36-1.47 5.17-12.84 5.17-12.84z"/><path stroke="#1c4189" stroke-width="1.32" d="M161 110.53c-.48-2.44-2.32-3.92-4-3.6s-2.49 2.34-2 4.78m-31.73 6.52c-.56-2.82-2.63-4.42-4.5-4.06s-2.83 2.57-2.28 5.4" class="al am"/><path fill="#e57cde" d="M129.53 117.17s15.8-3.65 22.6 5.11l-14.57 4.53z" clip-path="url(#c5)"/><path fill="#99a3b5" stroke="#585d66" stroke-miterlimit="10" stroke-width="1.49" d="M196.59 89.67a1.16 1.16 0 0 0-1.09 1l-1.23 8.7a1 1 0 1 1-2-.29l1.22-8.7a1.16 1.16 0 0 0-.76-1.29 1.13 1.13 0 0 0-1.46.92L190 98.8a1 1 0 0 1-2-.28l1.23-8.71a1.18 1.18 0 0 0-.77-1.29 1.12 1.12 0 0 0-1.45.92l-1.21 8.76a1 1 0 0 1-2-.28l1.23-8.7a1.16 1.16 0 0 0-.77-1.29 1.12 1.12 0 0 0-1.45.91l-1.38 9.77-.28 2v.37a1.94 1.94 0 0 0 .87 1.9l4.73 3.09c-1 4.85-6 30-6.32 35.28a25.32 25.32 0 0 0 .61 7.47 1 1 0 0 0 2 .28 25.25 25.25 0 0 0 2.65-7c1.13-5.14 3.28-30.73 3.69-35.66l5.41-1.65A1.93 1.93 0 0 0 196 103l.06-.37.27-2 1.41-9.63a1.12 1.12 0 0 0-1.15-1.33z"/><path d="M191.3 130.93s5.58-17.51-7.19-19.22a48.74 48.74 0 0 0 5 10.73" class="v"/><path d="M190.51 130.68a30.27 30.27 0 0 0 1.07-5.63 19 19 0 0 0-.24-5.65 8.94 8.94 0 0 0-2.46-4.73 8.84 8.84 0 0 0-4.88-2.14l.9-1.07a53.09 53.09 0 0 0 2 5.48 39.71 39.71 0 0 0 2.69 5.18.59.59 0 0 1-1 .64 40 40 0 0 1-3-5.24 53.46 53.46 0 0 1-2.31-5.57.82.82 0 0 1 .5-1 .91.91 0 0 1 .4 0 9.66 9.66 0 0 1 8.74 8.16 20.54 20.54 0 0 1 .27 6.15 30.78 30.78 0 0 1-1.14 6 .83.83 0 0 1-1 .56.82.82 0 0 1-.56-1z" class="x"/><path fill="#9b4e31" d="M208.49 82.15C188 74 171.56 82 170.87 82.34a5.81 5.81 0 0 0 2.56 11 5.72 5.72 0 0 0 2.56-.6c.52-.25 12.73-6 28.22.18a5.8 5.8 0 0 0 4.28-10.78z"/><path stroke="#e8b128" stroke-width="2.3" d="M171.84 84.29c1.07-1.57 5.25-4.86 9.66-3.18 1.82.72 4.64 1.4 6.71-1.24 1.53-1.94 6.14-1.85 7.92.77 2 3 4.4 2.61 5.84 1.71a4.29 4.29 0 0 1 6 1.94" class="al am"/><path d="M115.46 189.38c.54.55.9.94 1 1.06a2.58 2.58 0 1 1-4 3.31l-.25-.28a41.49 41.49 0 0 0-4.17-3.71 6.71 6.71 0 0 0 .58-5.54h.14a28.71 28.71 0 0 1 6.7 5.16z" class="y"/><path d="M112.49 193.75a2.58 2.58 0 0 0 4-3.31c-.1-.12-.46-.51-1-1.06a12.47 12.47 0 0 0-.25-6.39 13.35 13.35 0 0 0-6.77-7.61c-3.39-1.65-8.93-1.18-12.89 1.09a6.35 6.35 0 0 0-2 1.46 16.88 16.88 0 0 0-3.32 1.1 2.84 2.84 0 0 0-1.42 3.59 3.12 3.12 0 0 0 2.61 1.76 6.08 6.08 0 0 0 1.82 4 5.3 5.3 0 0 0 4.5 1.22 4.54 4.54 0 0 1 1.23-4.08 7.9 7.9 0 0 1 3.36-2.11 4.19 4.19 0 0 1 .57.68 5.06 5.06 0 0 1 .33 3.6 5 5 0 0 0 .08 3.59 4.58 4.58 0 0 0 1.36 1.83 6.8 6.8 0 0 0 3.63 1.59 5.42 5.42 0 0 0 3.93-1.21zm-12.86 1c-3.9.2-7.29-.5-10-3-2.56-2.34-3.68-5.79-3.31-10.25.3-3.8 2.69-7.17 6.71-9.47 5.49-3.13 12.77-3.64 17.71-1.25 3.58 1.74 8 5.49 9.48 10.85 1.11 3.89 1.58 7.72-.77 11.45-3.63 5.75-7.87 6.86-10.6 6.86a9 9 0 0 1-1.08-.06 11.28 11.28 0 0 1-8.14-5.15z" class="y"/><path d="M92.4 184.18a2 2 0 0 1-.93.2 3.12 3.12 0 0 1-2.61-1.76 2.84 2.84 0 0 1 1.42-3.62 16.88 16.88 0 0 1 3.32-1.1c4.31-1 10.56-1.07 13.53 3.22a10.38 10.38 0 0 1 1.52 3.07 6.71 6.71 0 0 1-.58 5.54 9.08 9.08 0 0 1-3.28 3.19l-.14.16a4.58 4.58 0 0 1-1.36-1.83 5 5 0 0 1-.08-3.59 5.06 5.06 0 0 0-.33-3.6 4.19 4.19 0 0 0-.57-.68 5 5 0 0 0-4.16-1 30.66 30.66 0 0 0-5.75 1.8z" class="y"/><path d="M93.6 177.93a6.35 6.35 0 0 1 2-1.46c4-2.27 9.5-2.74 12.89-1.09a13.35 13.35 0 0 1 6.77 7.61 12.47 12.47 0 0 1 .25 6.39 3.39 3.39 0 0 1-.15.45m-17.25-.28h-.32a5.3 5.3 0 0 1-4.5-1.22 6.08 6.08 0 0 1-1.82-4 2.8 2.8 0 0 1 0-.29" class="g"/><path d="M119.4 193c2.35-3.73 1.88-7.56.77-11.45-1.53-5.36-5.9-9.11-9.48-10.85-4.94-2.39-12.22-1.88-17.71 1.25-4 2.3-6.41 5.67-6.71 9.47-.37 4.46.75 7.91 3.31 10.25 2.76 2.53 6.15 3.23 10 3" class="g"/><path d="M104.79 193a9.08 9.08 0 0 0 3.28-3.19 6.71 6.71 0 0 0 .58-5.54 10.38 10.38 0 0 0-1.52-3.07m0-.05c-3-4.29-9.22-4.22-13.53-3.22a16.88 16.88 0 0 0-3.32 1.1 2.84 2.84 0 0 0-1.42 3.59 3.12 3.12 0 0 0 2.61 1.76 2 2 0 0 0 .93-.2 30.66 30.66 0 0 1 5.75-1.79 5 5 0 0 1 4.16 1 4.19 4.19 0 0 1 .57.68" class="g"/><path d="M108.07 189.76a41.49 41.49 0 0 1 4.17 3.71l.25.28a2.58 2.58 0 0 0 4-3.31c-.1-.12-.46-.51-1-1.06a28.71 28.71 0 0 0-6.67-5.2m-6.51-.77a7.9 7.9 0 0 0-3.31 2.11" class="g"/><path d="M99 185.52a4.54 4.54 0 0 0-1.16 4.08 15.78 15.78 0 0 0 .89 3.2 9.61 9.61 0 0 0 .95 1.93 11.28 11.28 0 0 0 8.09 5.1 9 9 0 0 0 1.08.06c2.73 0 7-1.11 10.6-6.86" class="g"/><path d="M112.21 193.49a5.42 5.42 0 0 1-3.93 1.21 6.8 6.8 0 0 1-3.63-1.59 4.58 4.58 0 0 1-1.36-1.83 5 5 0 0 1-.08-3.59 5.06 5.06 0 0 0-.33-3.6" class="g"/><circle cx="94.27" cy="174.18" r=".52" class="z"/><circle cx="90.22" cy="187.41" r=".52" class="z"/><circle cx="100.8" cy="192.24" r=".52" class="z"/><circle cx="108.98" cy="197.44" r=".52" class="z"/><circle cx="91.14" cy="175.82" r=".4" class="z"/><circle cx="88.76" cy="186.49" r=".4" class="z"/><circle cx="92.78" cy="190.59" r=".4" class="z"/><circle cx="94.56" cy="192.11" r=".4" class="z"/><circle cx="102.32" cy="193.51" r=".4" class="z"/><circle cx="104.28" cy="196.33" r=".4" class="z"/><circle cx="106.38" cy="196.33" r=".4" class="z"/><circle cx="111.56" cy="196.52" r=".4" class="z"/><circle cx="118.87" cy="187.93" r=".4" class="z"/><circle cx="117.35" cy="183.98" r=".4" class="z"/><circle cx="118.07" cy="181.71" r=".4" class="z"/><circle cx="115.88" cy="179.62" r=".4" class="z"/><circle cx="111.4" cy="189.33" r=".4" class="z"/><circle cx="113.32" cy="190.38" r=".4" class="z"/><circle cx="117.35" cy="179.8" r=".4" class="z"/><circle cx="95.71" cy="191.49" r=".4" class="z"/><circle cx="99.69" cy="188.65" r=".4" class="z"/><path d="M108.68 152.35s-12.09 13.42-7.37 36.36c0 0 27.23-5.54 17.19-36.33" class="v"/><path d="M109.17 152.79a33.24 33.24 0 0 0-4.66 8.06 42.85 42.85 0 0 0-2.65 9c-.16.76-.22 1.55-.33 2.32l-.15 1.16c0 .39 0 .78-.08 1.17l-.13 2.35v2.34c0 1.57.23 3.12.35 4.68s.52 3.09.77 4.63l-1.24-.82a27.77 27.77 0 0 0 10-4.65 21.38 21.38 0 0 0 6.89-8.48 22.46 22.46 0 0 0 1.6-5.29 27.26 27.26 0 0 0 .34-5.57 41.42 41.42 0 0 0-2-11.09.7.7 0 0 1 1.33-.44 42.89 42.89 0 0 1 2.3 11.46 28.57 28.57 0 0 1-.28 5.91 24.49 24.49 0 0 1-1.63 5.73 23.21 23.21 0 0 1-7.33 9.31 29.4 29.4 0 0 1-5.07 3.12 28.49 28.49 0 0 1-5.64 2.06h-.06a1 1 0 0 1-1.17-.78c-.24-1.61-.55-3.21-.71-4.83s-.33-3.24-.27-4.87v-2.44l.18-2.43c0-.41.06-.81.11-1.22l.18-1.21c.13-.8.21-1.61.39-2.4a43.57 43.57 0 0 1 2.94-9.28 34.45 34.45 0 0 1 5.08-8.34.66.66 0 0 1 1 .84z" class="x"/></svg>