<svg id="sticker" xmlns="http://www.w3.org/2000/svg" xmlns:xlink="http://www.w3.org/1999/xlink" viewBox="0 0 252 252"><defs><style>.cls-1,.cls-15,.cls-48,.cls-52,.cls-59,.cls-61,.cls-62,.cls-64,.cls-70,.cls-72,.cls-9{fill:none;}.cls-2{fill:#fff;}.cls-3{fill:url(#linear-gradient);}.cls-4{clip-path:url(#clip-path);}.cls-5{fill:url(#linear-gradient-2);}.cls-6{fill:#4e8ac6;}.cls-7{opacity:0.4;}.cls-8{fill:#a7c8e8;}.cls-9{stroke:#7a6d42;}.cls-48,.cls-52,.cls-54,.cls-59,.cls-60,.cls-61,.cls-62,.cls-64,.cls-70,.cls-9{stroke-linecap:round;stroke-linejoin:round;}.cls-14,.cls-15,.cls-48,.cls-52,.cls-9{stroke-width:0.57px;}.cls-10{fill:#7addb7;}.cls-11{fill:#e8d4b1;}.cls-12{fill:#ceb791;}.cls-13{fill:#ede4d6;}.cls-14,.cls-17{fill:#f8f6ef;}.cls-14,.cls-15{stroke:#ceb791;}.cls-14,.cls-15,.cls-67,.cls-72{stroke-miterlimit:10;}.cls-16{fill:#b2976f;}.cls-18{fill:#58ba92;}.cls-19{fill:#ede68a;}.cls-20{fill:#d6ba6e;}.cls-21{fill:#6ca6ed;opacity:0.3;}.cls-22{fill:#62676b;}.cls-23{fill:#c9c5b9;}.cls-24{fill:#686458;}.cls-25{fill:#ddd9ce;}.cls-26{fill:#a5a092;}.cls-27{clip-path:url(#clip-path-2);}.cls-28{fill:#ba3f2b;}.cls-29{fill:#33604d;}.cls-30{fill:#79b2f2;}.cls-31{clip-path:url(#clip-path-3);}.cls-32{fill:#998b6d;}.cls-33{fill:#89795f;}.cls-34{fill:#89795c;}.cls-35{fill:#a07d3f;}.cls-36{fill:#e2c791;}.cls-37{fill:#c6a761;}.cls-38{fill:#efd7ab;}.cls-39{opacity:0.6;}.cls-40{fill:#ceb074;}.cls-41{fill:#e9faff;opacity:0.5;}.cls-42{fill:#a58941;}.cls-43{fill:#d3ba6c;}.cls-44{fill:#aa8b3f;}.cls-45{fill:#bca153;}.cls-46{fill:#dbc27d;}.cls-47{fill:#3aa595;}.cls-48{stroke:#685446;}.cls-49{fill:#161719;}.cls-50{fill:#a51717;}.cls-51{fill:#d6ab22;}.cls-52{stroke:#565351;}.cls-53{fill:#4976b7;opacity:0.7;}.cls-54,.cls-55{fill:#93a0df;}.cls-54,.cls-59,.cls-64{stroke:#1c4189;}.cls-54{stroke-width:1.66px;}.cls-56{clip-path:url(#clip-path-4);}.cls-57{fill:#6b7fc3;}.cls-58{fill:#b8c3ec;}.cls-59,.cls-60,.cls-61,.cls-62{stroke-width:1.66px;}.cls-60{fill:#c7e5ec;}.cls-60,.cls-62{stroke:#4b8084;}.cls-61{stroke:#80b8c1;}.cls-63{fill:#402b5e;}.cls-64{stroke-width:1.32px;}.cls-65{clip-path:url(#clip-path-5);}.cls-66{fill:#e57cde;}.cls-67{fill:#99a3b5;stroke:#585d66;stroke-width:1.49px;}.cls-68{fill:#1c4189;}.cls-69{fill:#9b4e31;}.cls-70{stroke:#e8b128;stroke-width:2.3px;}.cls-71{fill:#ce8441;}.cls-72{stroke:#875e27;stroke-width:1.66px;}.cls-73{fill:#ead98f;}</style><linearGradient id="linear-gradient" x1="126" y1="167.4" x2="126" y2="69.78" gradientUnits="userSpaceOnUse"><stop offset="0.02" stop-color="#fff"/><stop offset="0.31" stop-color="#f7f4e8"/><stop offset="0.75" stop-color="#75bcfc"/><stop offset="1" stop-color="#3384e5"/></linearGradient><clipPath id="clip-path"><rect class="cls-1" x="24.46" y="62.54" width="203.08" height="147.19" rx="11.34" ry="11.34"/></clipPath><linearGradient id="linear-gradient-2" x1="125.9" y1="156.42" x2="125.9" y2="185.12" gradientUnits="userSpaceOnUse"><stop offset="0" stop-color="#5894e4" stop-opacity="0.3"/><stop offset="1" stop-color="#5894e4" stop-opacity="0"/></linearGradient><clipPath id="clip-path-2"><polygon class="cls-1" points="85.89 66.34 85.55 66.34 85.21 66.34 84.95 89.54 85.55 89.54 86.15 89.54 85.89 66.34"/></clipPath><clipPath id="clip-path-3"><rect class="cls-1" x="75.98" y="150.39" width="156.26" height="36.69"/></clipPath><clipPath id="clip-path-4"><path class="cls-1" d="M76.74,166.84c44.9,37.49,117.36-13.25,94.29-58.71-19.89-39.21-56.29-26.28-67.76-12.7-20.46,24.2-4.34,49.23-7.78,59.94s-17,4-17,4,5.64-13.13-11.61-20.48c0,0-6.54,14.65,2.28,20.53,0,0-11-2-13.7,15.13C62,176.14,70.79,176.72,76.74,166.84Z"/></clipPath><clipPath id="clip-path-5"><path class="cls-1" d="M148.62,111.16a35.36,35.36,0,0,0-18,2.65c.15,3.13,6,10.91,12.94,9.66C151.91,122,148.62,111.16,148.62,111.16Z"/></clipPath></defs><title>webhint_sticker_10</title><path class="cls-2" d="M216.2,56H144.58c-1-7.75-1.79-13.81-1.8-13.88a7.35,7.35,0,0,0-7-6.38h-.31a7.37,7.37,0,0,0-7.16,5.75L125.15,56H35.8A17.86,17.86,0,0,0,18,73.87V198.39A17.86,17.86,0,0,0,35.8,216.23H216.2a17.86,17.86,0,0,0,17.85-17.84V73.87A17.86,17.86,0,0,0,216.2,56Z"/><rect class="cls-3" x="24.46" y="62.54" width="203.08" height="147.19" rx="11.34" ry="11.34"/><g class="cls-4"><polygon class="cls-5" points="19.56 142.85 35.02 142.85 35.02 106.98 50.29 91.71 50.29 125.15 66.7 125.15 66.7 130.89 71.39 130.89 71.39 133.54 75.02 133.54 75.02 124.77 77.87 124.77 77.87 131.6 80 131.6 80 142.66 90.9 142.66 90.9 135.26 156.33 135.26 156.33 152.76 166.62 152.76 166.62 138.95 232.24 138.95 232.24 191.32 19.56 191.32 19.56 142.85"/><rect class="cls-6" x="172.64" y="103.83" width="27.62" height="70.55"/><g class="cls-7"><rect class="cls-8" x="183.43" y="134.04" width="10.58" height="1.33"/><rect class="cls-8" x="174.97" y="127.44" width="4.53" height="1.33"/><rect class="cls-8" x="174.97" y="130.74" width="11.85" height="1.33"/><rect class="cls-8" x="174.97" y="134.04" width="7.45" height="1.33"/><rect class="cls-8" x="174.97" y="160.43" width="22.97" height="1.33"/><rect class="cls-8" x="174.97" y="137.34" width="3.51" height="1.33"/><rect class="cls-8" x="174.97" y="140.64" width="10.98" height="1.33"/><rect class="cls-8" x="174.97" y="157.14" width="22.97" height="1.33"/><rect class="cls-8" x="174.97" y="124.14" width="14.54" height="1.33"/><rect class="cls-8" x="174.97" y="110.95" width="7.83" height="1.33"/><rect class="cls-8" x="179.99" y="107.65" width="10.36" height="1.33"/><rect class="cls-8" x="174.97" y="107.65" width="4" height="1.33"/><rect class="cls-8" x="174.97" y="117.55" width="12.58" height="1.33"/><rect class="cls-8" x="174.97" y="120.84" width="5.55" height="1.33"/><rect class="cls-8" x="190.52" y="124.14" width="2.09" height="1.33"/><rect class="cls-8" x="181.54" y="120.84" width="16.4" height="1.33"/><rect class="cls-8" x="193.63" y="124.14" width="4.31" height="1.33"/><rect class="cls-8" x="180.52" y="127.44" width="17.42" height="1.33"/><rect class="cls-8" x="188.56" y="117.55" width="9.37" height="1.33"/><rect class="cls-8" x="191.37" y="107.65" width="6.57" height="1.33"/><rect class="cls-8" x="183.81" y="110.95" width="14.13" height="1.33"/><rect class="cls-8" x="174.97" y="114.25" width="22.97" height="1.33"/><rect class="cls-8" x="187.83" y="130.74" width="10.11" height="1.33"/><rect class="cls-8" x="174.97" y="147.24" width="22.97" height="1.33"/><rect class="cls-8" x="174.97" y="153.84" width="22.97" height="1.33"/><rect class="cls-8" x="174.97" y="150.54" width="22.97" height="1.33"/><rect class="cls-8" x="174.97" y="143.94" width="22.97" height="1.33"/><rect class="cls-8" x="195.03" y="134.04" width="2.9" height="1.33"/><rect class="cls-8" x="186.96" y="140.64" width="10.98" height="1.33"/><rect class="cls-8" x="179.5" y="137.34" width="18.44" height="1.33"/></g><line class="cls-9" x1="216.18" y1="89.14" x2="216.18" y2="81.02"/><path class="cls-10" d="M216.1,101.62h0s-19.32,0-26.87,20.54H243C235.41,101.6,216.1,101.62,216.1,101.62Z"/><rect class="cls-11" x="188.21" y="122.18" width="39.33" height="25.73"/><rect class="cls-12" x="187.82" y="122.16" width="40.3" height="2.3"/><rect class="cls-13" x="187.83" y="124.45" width="8.63" height="23.45"/><rect class="cls-12" x="201.49" y="122.63" width="1.87" height="15.55"/><rect class="cls-12" x="216.45" y="122.95" width="1.87" height="15.55"/><rect class="cls-12" x="223.36" y="122.74" width="1.87" height="15.55"/><rect class="cls-12" x="187.82" y="126.27" width="40.3" height="2.3"/><rect class="cls-14" x="205.53" y="129.71" width="3.11" height="6.44"/><line class="cls-15" x1="207.09" y1="129.71" x2="207.09" y2="136.15"/><line class="cls-15" x1="205.53" y1="131.89" x2="208.65" y2="131.89"/><line class="cls-15" x1="205.53" y1="133.98" x2="208.65" y2="133.98"/><rect class="cls-14" x="210.73" y="129.71" width="3.11" height="6.44"/><line class="cls-15" x1="212.28" y1="129.71" x2="212.28" y2="136.15"/><line class="cls-15" x1="210.73" y1="131.89" x2="213.84" y2="131.89"/><line class="cls-15" x1="210.73" y1="133.98" x2="213.84" y2="133.98"/><path class="cls-16" d="M199,130.1h0a.74.74,0,0,1,.74.74v4.66a0,0,0,0,1,0,0h-1.48a0,0,0,0,1,0,0v-4.66A.74.74,0,0,1,199,130.1Z"/><path class="cls-16" d="M199,141.64h0a.74.74,0,0,1,.74.74v2.7a0,0,0,0,1,0,0h-1.48a0,0,0,0,1,0,0v-2.7a.74.74,0,0,1,.74-.74Z"/><path class="cls-16" d="M220.84,130.1h0a.74.74,0,0,1,.74.74v4.66a0,0,0,0,1,0,0H220.1a0,0,0,0,1,0,0v-4.66A.74.74,0,0,1,220.84,130.1Z"/><rect class="cls-12" x="187.82" y="137.03" width="40.3" height="2.3"/><polygon class="cls-11" points="208.42 148.39 228.89 137.34 228.55 149.05 208.42 148.39"/><rect class="cls-11" x="183.43" y="147.91" width="44.11" height="27.52"/><rect class="cls-12" x="190.8" y="147.91" width="1.82" height="27.52"/><rect class="cls-12" x="182.82" y="147.91" width="1.82" height="27.52"/><rect class="cls-12" x="183.06" y="147.91" width="44.48" height="2.3"/><rect class="cls-12" x="183.73" y="151.2" width="43.81" height="0.77"/><path class="cls-12" d="M187.73,153.74h0a2.08,2.08,0,0,1,2.08,2.08V164a0,0,0,0,1,0,0h-4.15a0,0,0,0,1,0,0v-8.17A2.08,2.08,0,0,1,187.73,153.74Z"/><rect class="cls-17" x="186.43" y="156.87" width="2.59" height="6.37"/><path class="cls-16" d="M187.73,154.38a1.54,1.54,0,0,0-1.54,1.53v.33h3.07v-.33A1.54,1.54,0,0,0,187.73,154.38Z"/><line class="cls-15" x1="187.73" y1="156.71" x2="187.73" y2="163.53"/><line class="cls-15" x1="186.06" y1="158.14" x2="189.49" y2="158.14"/><line class="cls-15" x1="186.06" y1="159.82" x2="189.49" y2="159.82"/><line class="cls-15" x1="186.01" y1="161.51" x2="189.44" y2="161.51"/><path class="cls-12" d="M204.51,153.74h0a2.08,2.08,0,0,1,2.08,2.08V164a0,0,0,0,1,0,0h-4.15a0,0,0,0,1,0,0v-8.17A2.08,2.08,0,0,1,204.51,153.74Z"/><rect class="cls-17" x="203.21" y="156.87" width="2.59" height="6.37"/><path class="cls-16" d="M204.51,154.38a1.54,1.54,0,0,0-1.54,1.53v.33H206v-.33A1.54,1.54,0,0,0,204.51,154.38Z"/><line class="cls-15" x1="204.51" y1="156.71" x2="204.51" y2="163.53"/><line class="cls-15" x1="202.85" y1="158.14" x2="206.27" y2="158.14"/><line class="cls-15" x1="202.85" y1="159.82" x2="206.27" y2="159.82"/><line class="cls-15" x1="202.79" y1="161.51" x2="206.22" y2="161.51"/><rect class="cls-12" x="210.06" y="149.68" width="4.34" height="25.75"/><polygon class="cls-12" points="228.12 135.03 204.78 148.33 209.37 149.68 228.12 138.99 228.12 135.03"/><rect class="cls-11" x="182.83" y="132.54" width="9.79" height="15.37"/><path class="cls-16" d="M187.73,136.41h0a2.69,2.69,0,0,1,2.69,2.69v7.32a0,0,0,0,1,0,0H185a0,0,0,0,1,0,0V139.1A2.69,2.69,0,0,1,187.73,136.41Z"/><rect class="cls-12" x="182.24" y="131.78" width="10.81" height="1.44"/><rect class="cls-12" x="175.93" y="140.02" width="15.22" height="1.44" transform="translate(324.28 -42.8) rotate(90)"/><rect class="cls-12" x="184.28" y="139.92" width="15.22" height="1.44" transform="translate(332.53 -51.25) rotate(90)"/><polygon class="cls-12" points="182.99 136.15 192.45 136.15 187.64 133.87 182.99 136.15"/><path class="cls-10" d="M187.64,124.29h0a4.81,4.81,0,0,1,4.81,4.81v2.68a0,0,0,0,1,0,0h-9.63a0,0,0,0,1,0,0V129.1a4.81,4.81,0,0,1,4.81-4.81Z"/><path class="cls-16" d="M204.72,141.64h0a.74.74,0,0,1,.74.74v2.7a0,0,0,0,1,0,0H204a0,0,0,0,1,0,0v-2.7A.74.74,0,0,1,204.72,141.64Z"/><path class="cls-18" d="M216.1,101.77v-.15s-19.32,0-26.87,20.54h2C197.28,105.59,211,102.39,216.1,101.77Z"/><path class="cls-18" d="M216.1,101.62s-11.12.86-13.89,20.66h5.07s.52-15.87,9.56-20.66Z"/><path class="cls-18" d="M216.16,101.77v-.15s19.31,0,26.87,20.54h-2C235,105.59,221.26,102.39,216.16,101.77Z"/><path class="cls-18" d="M216.16,101.62s11.12.86,13.89,20.66H225s-.53-15.87-9.56-20.66Z"/><rect class="cls-18" x="210.67" y="101.01" width="10.86" height="1.22"/><rect class="cls-18" x="210.67" y="95.21" width="10.86" height="1.22"/><ellipse class="cls-18" cx="215.89" cy="109.51" rx="1.49" ry="1.2"/><ellipse class="cls-18" cx="215.89" cy="116.13" rx="2.37" ry="2.08"/><ellipse class="cls-18" cx="202.42" cy="109.74" rx="1.2" ry="0.76" transform="translate(-14.81 186.09) rotate(-47.83)"/><ellipse class="cls-18" cx="198.05" cy="116.13" rx="2.08" ry="1.29" transform="translate(7.99 244.93) rotate(-64.51)"/><ellipse class="cls-18" cx="229.11" cy="109.74" rx="0.76" ry="1.2" transform="translate(-14.37 182.22) rotate(-42.17)"/><ellipse class="cls-18" cx="233.49" cy="116.13" rx="1.29" ry="2.08" transform="translate(-27.25 111.77) rotate(-25.49)"/><rect class="cls-18" x="211.64" y="95.81" width="1.23" height="5.38"/><rect class="cls-18" x="215.56" y="95.81" width="1.23" height="5.38"/><rect class="cls-18" x="219.48" y="95.81" width="1.23" height="5.38"/><path class="cls-19" d="M216.68,86.07h-1a23.9,23.9,0,0,1-4.33,9.14H221A24.05,24.05,0,0,1,216.68,86.07Z"/><circle class="cls-19" cx="216.18" cy="83.73" r="1.23"/><path class="cls-20" d="M214.79,95.21a29.16,29.16,0,0,0,1-8.07,20.87,20.87,0,0,1-3.09,8.07Z"/><path class="cls-20" d="M217.4,95.21a29.64,29.64,0,0,1-1-8.07,21,21,0,0,0,3.1,8.07Z"/><polygon class="cls-21" points="170.19 173.92 170.19 180.19 164.55 180.19 164.55 187.08 193.22 187.08 193.22 175.42 170.19 173.92"/><rect class="cls-22" x="83.49" y="89.54" width="4.12" height="5.61"/><polygon class="cls-23" points="89.24 187.08 81.97 187.08 83.69 111 87.52 111 89.24 187.08"/><path class="cls-24" d="M85.6,111.89a8.08,8.08,0,0,0,7.74-5.81H77.87A8.07,8.07,0,0,0,85.6,111.89Z"/><path class="cls-25" d="M77.87,106.08H93.34a7.66,7.66,0,0,0,.21-1H77.66A7.66,7.66,0,0,0,77.87,106.08Z"/><path class="cls-25" d="M93.66,103.83a8.06,8.06,0,1,0-16.11,0H93.66Z"/><path class="cls-24" d="M77.55,103.83a7.86,7.86,0,0,0,.11,1.3H93.55a7.86,7.86,0,0,0,.11-1.3Z"/><rect class="cls-26" x="82.86" y="114.56" width="5.5" height="1.1"/><rect class="cls-26" x="82.86" y="116.52" width="5.5" height="1.1"/><rect class="cls-26" x="82.86" y="95.15" width="5.5" height="1.1"/><rect class="cls-26" x="82.8" y="89.54" width="5.5" height="1.1"/><ellipse class="cls-2" cx="81.33" cy="99.8" rx="1.1" ry="0.88" transform="translate(-44.44 127.32) rotate(-63.16)"/><polygon class="cls-25" points="85.89 66.34 85.55 66.34 85.21 66.34 84.95 89.54 85.55 89.54 86.15 89.54 85.89 66.34"/><g class="cls-27"><rect class="cls-28" x="84.01" y="65.76" width="3.19" height="1.63"/><rect class="cls-28" x="84.01" y="68.93" width="3.19" height="1.63"/><rect class="cls-28" x="84.01" y="72.09" width="3.19" height="1.63"/><rect class="cls-28" x="84.01" y="75.25" width="3.19" height="1.63"/><rect class="cls-28" x="84.01" y="78.42" width="3.19" height="1.63"/><rect class="cls-28" x="84.01" y="81.58" width="3.19" height="1.63"/><rect class="cls-28" x="84.01" y="84.74" width="3.19" height="1.63"/><rect class="cls-28" x="84.01" y="87.91" width="3.19" height="1.63"/></g><path class="cls-29" d="M44.11,119.41a16.64,16.64,0,0,1-.73-2c-.12-.86-.45-1.3-.78-1.45l-.1,0-.36-.92-.32,1-.17.07-.48-.8-.54,1.61h0c-.78,1-.82,2.62-1.38,3.7-1.16,2.25-3.77,1.8-4.2,4.58-.2,1.24.35,2.34.5,3.53a17.6,17.6,0,0,0,.15,2.6c.55,1.44,1.9.89,3.54.89a10.87,10.87,0,0,1-.11-1.28s.35-4.91,1.48-3.84l1.51,1.29c.55,1-.76,2.83,0,3.24,1,.56,1-.92,1.12-1.75a10.79,10.79,0,0,0,.27-2.71c0-.09-.49-.31-.8-.58-.69-.61.1-2.11.08-3,0-.4-.66-.83-.54-1.29s.1-1.49.19-1.79,1.08.27,1.35.15C44.23,120.41,44.3,120,44.11,119.41Z"/><path class="cls-29" d="M33.06,120.34a16.38,16.38,0,0,1,.25-3.11,1.51,1.51,0,0,0-1.24-1.77c-1-.15-1.61-.2-2.4,1.85-.78-3.88-2.21,1.55-3.21-.51-.5-1,1-1.54.15-2.54-.53-.65-1.53-.06-1.72-.26-.32-.36-.42-2.66-.28-3.91a2.88,2.88,0,0,0,.39-5.63,3.42,3.42,0,0,0,2.26-3.68,3.71,3.71,0,0,0-2.37,1.67c0-.17-.24-.9-.6-.9-.29.57-.47-.19-.61.9a2.06,2.06,0,0,0-.31-.46v2.36l.23.08a1,1,0,0,0-.23.07V110a2.56,2.56,0,0,0,.68.13,8.12,8.12,0,0,1-.06,2.22,3.42,3.42,0,0,1-.62,1.79v18.25a49.2,49.2,0,0,0,8.25,0h2.76V122A1.74,1.74,0,0,0,33.06,120.34Zm-9-3.86c-1,.6-.88-1.62,0-1.42C24.3,115.13,24.3,116.35,24.08,116.48Z"/><rect class="cls-30" x="22.81" y="187.08" width="208.47" height="24.89"/><g class="cls-31"><polygon class="cls-32" points="99.17 157.47 100.01 157.47 100.16 157.47 101 157.47 101.42 159.95 100.16 159.95 100.01 159.95 98.75 159.95 99.17 157.47"/><polygon class="cls-32" points="101.19 161.34 102.62 160.29 100.08 160.29 100.08 161.34 101.19 161.34"/><rect class="cls-33" x="100.08" y="159.95" width="2.54" height="0.34" transform="translate(202.71 320.24) rotate(-180)"/><polygon class="cls-32" points="98.98 161.34 97.55 160.29 100.08 160.29 100.08 161.34 98.98 161.34"/><rect class="cls-33" x="97.55" y="159.95" width="2.54" height="0.34"/><polygon class="cls-34" points="100.03 170.15 97.74 169.9 99.14 161.51 100.03 161.51 100.14 161.51 101.03 161.51 102.43 169.9 100.14 170.15 100.14 170.16 100.08 170.16 100.03 170.16 100.03 170.15"/><rect class="cls-35" x="146.08" y="166.36" width="0.99" height="2.65" transform="translate(293.15 335.38) rotate(-180)"/><rect class="cls-35" x="143.51" y="166.36" width="0.99" height="2.65" transform="translate(288 335.38) rotate(-180)"/><rect class="cls-35" x="140.93" y="166.36" width="0.99" height="2.65" transform="translate(282.86 335.38) rotate(-180)"/><rect class="cls-35" x="138.36" y="166.36" width="0.99" height="2.65" transform="translate(277.71 335.38) rotate(-180)"/><rect class="cls-35" x="135.78" y="166.36" width="0.99" height="2.65" transform="translate(272.56 335.38) rotate(-180)"/><rect class="cls-35" x="133.21" y="166.36" width="0.99" height="2.65" transform="translate(267.41 335.38) rotate(-180)"/><rect class="cls-35" x="130.64" y="166.36" width="0.99" height="2.65" transform="translate(262.27 335.38) rotate(-180)"/><rect class="cls-35" x="128.06" y="166.36" width="0.99" height="2.65" transform="translate(257.12 335.38) rotate(-180)"/><rect class="cls-35" x="125.49" y="166.94" width="0.99" height="2.65" transform="translate(251.97 336.53) rotate(-180)"/><rect class="cls-35" x="122.92" y="166.94" width="0.99" height="2.65" transform="translate(246.83 336.53) rotate(-180)"/><rect class="cls-35" x="120.34" y="167.51" width="0.99" height="2.65" transform="translate(241.68 337.68) rotate(-180)"/><rect class="cls-35" x="117.77" y="168.08" width="0.99" height="2.65" transform="translate(236.53 338.82) rotate(-180)"/><rect class="cls-35" x="115.19" y="168.08" width="0.99" height="2.65" transform="translate(231.38 338.82) rotate(-180)"/><rect class="cls-35" x="112.62" y="168.66" width="0.99" height="2.65" transform="translate(226.24 339.97) rotate(-180)"/><rect class="cls-35" x="110.05" y="169.23" width="0.99" height="2.65" transform="translate(221.09 341.12) rotate(-180)"/><rect class="cls-35" x="107.47" y="169.23" width="0.99" height="2.65" transform="translate(215.94 341.12) rotate(-180)"/><rect class="cls-35" x="104.9" y="169.81" width="0.99" height="2.65" transform="translate(210.79 342.27) rotate(-180)"/><rect class="cls-35" x="95.15" y="170.74" width="0.99" height="2.65" transform="translate(191.29 344.13) rotate(-180)"/><rect class="cls-35" x="92.52" y="170.74" width="0.99" height="2.65" transform="translate(186.03 344.13) rotate(-180)"/><rect class="cls-35" x="89.89" y="170.74" width="0.99" height="2.65" transform="translate(180.77 344.13) rotate(-180)"/><rect class="cls-35" x="87.26" y="170.74" width="0.99" height="2.65" transform="translate(175.51 344.13) rotate(-180)"/><rect class="cls-35" x="84.63" y="170.74" width="0.99" height="2.65" transform="translate(170.25 344.13) rotate(-180)"/><rect class="cls-35" x="82" y="170.74" width="0.99" height="2.65" transform="translate(164.99 344.13) rotate(-180)"/><rect class="cls-35" x="79.37" y="170.74" width="0.99" height="2.65" transform="translate(159.73 344.13) rotate(-180)"/><rect class="cls-35" x="76.74" y="170.74" width="0.99" height="2.65" transform="translate(154.47 344.13) rotate(-180)"/><rect class="cls-35" x="74.11" y="170.74" width="0.99" height="2.65" transform="translate(149.21 344.13) rotate(-180)"/><rect class="cls-35" x="71.48" y="170.74" width="0.99" height="2.65" transform="translate(143.95 344.13) rotate(-180)"/><rect class="cls-35" x="68.85" y="170.74" width="0.99" height="2.65" transform="translate(138.69 344.13) rotate(-180)"/><path class="cls-36" d="M148.17,174c-.19-1.81-.58-2.39,0-4.75-5.19,0-25.91-.12-45.71,4.08v13.74h4.91s1.8-9.48,17.76-11.44C138.54,174,144.49,174,148.17,174Z"/><path class="cls-37" d="M148.17,169.83c-5.19,0-25.91-.12-45.71,4.09v-1.51c19.8-4.21,40.52-4.09,45.71-4.09Z"/><rect class="cls-36" x="66.17" y="174.38" width="36.29" height="12.7" transform="translate(168.63 361.47) rotate(-180)"/><rect class="cls-37" x="66.17" y="172.84" width="36.29" height="1.54" transform="translate(168.63 347.22) rotate(-180)"/><rect class="cls-32" x="66.17" y="169.9" width="36.29" height="1.54" transform="translate(168.63 341.34) rotate(-180)"/><path class="cls-32" d="M148.17,167c-5.19,0-25.91-.12-45.71,4.09v-1.51c19.8-4.2,40.52-4.09,45.71-4.09Z"/><path class="cls-32" d="M97.11,169.23h6a0,0,0,0,1,0,0v3.89a1.26,1.26,0,0,1-1.26,1.26H98.36a1.26,1.26,0,0,1-1.26-1.26v-3.89A0,0,0,0,1,97.11,169.23Z" transform="translate(200.17 343.61) rotate(-180)"/><polygon class="cls-38" points="97.18 174.9 99.8 174.9 100.37 174.9 102.99 174.9 104.96 182.04 100.37 182.04 99.8 182.04 95.21 182.04 97.18 174.9"/><rect class="cls-38" x="95.29" y="182.04" width="9.59" height="5.04" transform="translate(200.17 369.12) rotate(-180)"/><rect class="cls-33" x="98.59" y="161.17" width="2.99" height="0.34" transform="translate(200.17 322.68) rotate(-180)"/><rect class="cls-37" x="77.57" y="177.5" width="5.16" height="2.44" rx="0.39" ry="0.39" transform="translate(160.31 357.45) rotate(-180)"/><rect class="cls-37" x="97.1" y="182.97" width="2.38" height="1.13" rx="0.22" ry="0.22" transform="translate(196.59 367.06) rotate(-180)"/><rect class="cls-37" x="96.14" y="184.19" width="2.38" height="1.13" rx="0.22" ry="0.22" transform="translate(194.66 369.5) rotate(-180)"/><rect class="cls-37" x="80.16" y="180.3" width="5.16" height="2.44" rx="0.39" ry="0.39" transform="translate(165.48 363.04) rotate(-180)"/><g class="cls-39"><polygon class="cls-40" points="100.89 179.18 100.89 179.1 104.15 179.1 104.31 179.67 101.1 179.67 102.17 182.12 101.64 182.35 100.26 179.18 100.79 178.95 100.89 179.18"/><polygon class="cls-40" points="95.84 179.62 96 179.04 99.26 179.04 99.26 179.13 99.36 178.89 99.89 179.12 98.51 182.29 97.98 182.06 99.05 179.62 95.84 179.62"/><polygon class="cls-40" points="99.56 178.13 99.46 177.89 99.46 177.89 96.32 177.89 96.48 177.32 99.24 177.32 98.36 175.11 98.9 174.9 100.09 177.91 101.25 174.96 101.79 175.17 100.91 177.38 103.67 177.38 103.83 177.95 100.69 177.95 100.69 177.94 100.59 178.18 100.06 177.97 100.08 177.92 99.56 178.13"/></g><rect class="cls-37" x="96.65" y="174.38" width="6.86" height="1.04" transform="translate(200.17 349.81) rotate(-180)"/><rect class="cls-37" x="94.72" y="181.52" width="10.74" height="1.04" transform="translate(200.17 364.08) rotate(-180)"/><circle class="cls-37" cx="100.08" cy="178.6" r="1.6"/><circle class="cls-41" cx="100.15" cy="155.31" r="1.57"/><circle class="cls-2" cx="99.5" cy="154.77" r="0.35"/><circle class="cls-2" cx="99.15" cy="155.51" r="0.2"/></g><rect class="cls-42" x="22.81" y="182.04" width="53.17" height="5.04"/><rect class="cls-43" x="22.81" y="144.36" width="50.87" height="5.04"/><rect class="cls-44" x="22.81" y="149.41" width="49.27" height="2.49"/><rect class="cls-44" x="22.81" y="140.96" width="49.27" height="3.4"/><polygon class="cls-43" points="72.08 140.96 73.68 138.06 22.81 138.06 22.81 140.96 72.08 140.96"/><rect class="cls-45" x="62.97" y="180.33" width="7.46" height="1.71"/><rect class="cls-45" x="62.97" y="151.9" width="7.46" height="1.71"/><rect class="cls-43" x="64.12" y="153.61" width="5.16" height="26.71"/><rect class="cls-45" x="51.71" y="180.33" width="7.46" height="1.71"/><rect class="cls-45" x="51.71" y="151.9" width="7.46" height="1.71"/><rect class="cls-43" x="52.86" y="153.61" width="5.16" height="26.71"/><rect class="cls-45" x="40.45" y="180.33" width="7.46" height="1.71"/><rect class="cls-45" x="40.45" y="151.9" width="7.46" height="1.71"/><rect class="cls-43" x="41.6" y="153.61" width="5.16" height="26.71"/><rect class="cls-45" x="29.19" y="180.33" width="7.46" height="1.71"/><rect class="cls-45" x="29.19" y="151.9" width="7.46" height="1.71"/><rect class="cls-43" x="30.34" y="153.61" width="5.16" height="26.71"/><rect class="cls-45" x="22.81" y="136.12" width="50.87" height="1.94"/><rect class="cls-45" x="22.48" y="131.6" width="23.8" height="1.94"/><rect class="cls-46" x="22.81" y="133.54" width="22.81" height="10.82"/><rect class="cls-45" x="22.81" y="135.26" width="21.08" height="7.59"/><circle class="cls-47" cx="211.07" cy="162.36" r="6.38"/><line class="cls-48" x1="211.07" y1="159.25" x2="211.07" y2="173.77"/><line class="cls-48" x1="211.08" y1="163.24" x2="214.7" y2="159.82"/><line class="cls-48" x1="211.08" y1="166.78" x2="207.3" y2="163.53"/><circle class="cls-47" cx="224.83" cy="162.36" r="6.38"/><line class="cls-48" x1="224.83" y1="159.25" x2="224.83" y2="173.77"/><line class="cls-48" x1="224.84" y1="165.59" x2="228.47" y2="162.18"/><line class="cls-48" x1="224.84" y1="163.8" x2="221.39" y2="160.83"/><polygon class="cls-32" points="196.51 157.47 195.67 157.47 195.52 157.47 194.68 157.47 194.26 159.95 195.52 159.95 195.67 159.95 196.93 159.95 196.51 157.47"/><polygon class="cls-32" points="194.49 161.34 193.06 160.29 195.6 160.29 195.6 161.34 194.49 161.34"/><rect class="cls-33" x="193.06" y="159.95" width="2.54" height="0.34"/><polygon class="cls-32" points="196.7 161.34 198.13 160.29 195.6 160.29 195.6 161.34 196.7 161.34"/><rect class="cls-33" x="195.6" y="159.95" width="2.54" height="0.34" transform="translate(393.73 320.24) rotate(-180)"/><polygon class="cls-34" points="195.65 170.15 197.94 169.9 196.54 161.51 195.65 161.51 195.54 161.51 194.65 161.51 193.25 169.9 195.54 170.15 195.54 170.16 195.6 170.16 195.65 170.16 195.65 170.15"/><rect class="cls-35" x="148.61" y="166.36" width="0.99" height="2.65"/><rect class="cls-35" x="151.18" y="166.36" width="0.99" height="2.65"/><rect class="cls-35" x="153.76" y="166.36" width="0.99" height="2.65"/><rect class="cls-35" x="156.33" y="166.36" width="0.99" height="2.65"/><rect class="cls-35" x="158.9" y="166.36" width="0.99" height="2.65"/><rect class="cls-35" x="161.48" y="166.36" width="0.99" height="2.65"/><rect class="cls-35" x="164.05" y="166.36" width="0.99" height="2.65"/><rect class="cls-35" x="166.62" y="166.36" width="0.99" height="2.65"/><rect class="cls-35" x="169.2" y="166.94" width="0.99" height="2.65"/><rect class="cls-35" x="171.77" y="166.94" width="0.99" height="2.65"/><rect class="cls-35" x="174.34" y="167.51" width="0.99" height="2.65"/><rect class="cls-35" x="176.92" y="168.08" width="0.99" height="2.65"/><rect class="cls-35" x="179.49" y="168.08" width="0.99" height="2.65"/><rect class="cls-35" x="182.07" y="168.66" width="0.99" height="2.65"/><rect class="cls-35" x="184.64" y="169.23" width="0.99" height="2.65"/><rect class="cls-35" x="187.21" y="169.23" width="0.99" height="2.65"/><rect class="cls-35" x="189.79" y="169.81" width="0.99" height="2.65"/><rect class="cls-35" x="199.54" y="170.74" width="0.99" height="2.65"/><rect class="cls-35" x="202.17" y="170.74" width="0.99" height="2.65"/><rect class="cls-35" x="204.8" y="170.74" width="0.99" height="2.65"/><rect class="cls-35" x="207.43" y="170.74" width="0.99" height="2.65"/><rect class="cls-35" x="210.06" y="170.74" width="0.99" height="2.65"/><rect class="cls-35" x="212.69" y="170.74" width="0.99" height="2.65"/><rect class="cls-35" x="215.32" y="170.74" width="0.99" height="2.65"/><rect class="cls-35" x="217.95" y="170.74" width="0.99" height="2.65"/><rect class="cls-35" x="220.58" y="170.74" width="0.99" height="2.65"/><rect class="cls-35" x="223.21" y="170.74" width="0.99" height="2.65"/><rect class="cls-35" x="225.84" y="170.74" width="0.99" height="2.65"/><path class="cls-36" d="M147.51,174c-1.56-1.31-.89-2.37,0-4.75,5.19,0,25.91-.12,45.71,4.08v13.74h-4.91s-1.8-9.48-17.76-11.44C157.14,174,151.19,174,147.51,174Z"/><path class="cls-37" d="M147.51,169.83c5.19,0,25.91-.12,45.71,4.09v-1.51c-19.8-4.21-40.52-4.09-45.71-4.09Z"/><rect class="cls-36" x="193.22" y="174.38" width="36.29" height="12.7"/><rect class="cls-37" x="193.22" y="172.84" width="36.29" height="1.54"/><rect class="cls-32" x="193.22" y="169.9" width="36.29" height="1.54"/><path class="cls-32" d="M147.51,167c5.19,0,25.91-.12,45.71,4.09v-1.51c-19.8-4.2-40.52-4.09-45.71-4.09Z"/><path class="cls-32" d="M193.88,169.23h3.44a1.26,1.26,0,0,1,1.26,1.26v3.89a0,0,0,0,1,0,0h-6a0,0,0,0,1,0,0v-3.89A1.26,1.26,0,0,1,193.88,169.23Z"/><polygon class="cls-38" points="198.5 174.9 195.88 174.9 195.31 174.9 192.69 174.9 190.72 182.04 195.31 182.04 195.88 182.04 200.47 182.04 198.5 174.9"/><rect class="cls-38" x="190.8" y="182.04" width="9.59" height="5.04"/><rect class="cls-33" x="194.1" y="161.17" width="2.99" height="0.34"/><rect class="cls-37" x="207.13" y="177.5" width="5.16" height="2.44" rx="0.39" ry="0.39"/><rect class="cls-37" x="193.11" y="182.97" width="2.38" height="1.13" rx="0.22" ry="0.22"/><rect class="cls-37" x="191.86" y="184.19" width="2.38" height="1.13" rx="0.22" ry="0.22"/><rect class="cls-37" x="210.36" y="180.3" width="5.16" height="2.44" rx="0.39" ry="0.39"/><circle class="cls-41" cx="195.53" cy="155.31" r="1.57"/><circle class="cls-2" cx="194.87" cy="154.77" r="0.35"/><circle class="cls-2" cx="194.52" cy="155.51" r="0.2"/><g class="cls-39"><polygon class="cls-40" points="194.79 179.18 194.79 179.1 191.53 179.1 191.37 179.67 194.58 179.67 193.51 182.12 194.04 182.35 195.42 179.18 194.89 178.95 194.79 179.18"/><polygon class="cls-40" points="199.84 179.62 199.68 179.04 196.42 179.04 196.42 179.13 196.32 178.89 195.79 179.12 197.17 182.29 197.7 182.06 196.63 179.62 199.84 179.62"/><polygon class="cls-40" points="196.13 178.13 196.22 177.89 196.22 177.89 199.36 177.89 199.2 177.32 196.44 177.32 197.32 175.11 196.78 174.9 195.59 177.91 194.43 174.96 193.89 175.17 194.77 177.38 192.01 177.38 191.85 177.95 194.99 177.95 194.99 177.94 195.09 178.18 195.62 177.97 195.6 177.92 196.13 178.13"/></g><rect class="cls-37" x="192.17" y="174.38" width="6.86" height="1.04"/><rect class="cls-37" x="190.23" y="181.52" width="10.74" height="1.04"/><circle class="cls-37" cx="195.6" cy="178.6" r="1.6"/><polygon class="cls-49" points="31.87 74.83 39.93 93.09 48.44 74.61 31.87 74.83"/><polygon class="cls-50" points="48.56 74.83 56.62 93.09 65.13 74 48.56 74.83"/><polygon class="cls-51" points="65.13 74 72.85 91.5 81.79 73.08 65.13 74"/><polygon class="cls-49" points="82.06 73.1 91.1 89.18 99.03 71.51 82.06 73.1"/><polygon class="cls-50" points="99.03 71.34 108.16 86.5 115.99 69.18 99.03 71.34"/><polygon class="cls-51" points="115.99 69.09 125.12 84.25 133.1 66.61 115.99 69.09"/><polygon class="cls-49" points="131.67 66.62 140.8 81.77 147.26 63.09 131.67 66.62"/><polygon class="cls-50" points="147.26 63.15 156.5 79.09 163.28 58.39 147.26 63.15"/><polygon class="cls-51" points="163.52 58.27 172.75 74.22 179.54 53.51 163.52 58.27"/><polygon class="cls-51" points="14.8 74.83 23.27 94.01 31.87 74.83 14.8 74.83"/><path class="cls-52" d="M17.36,74.64s92,3.25,148.68-17.22"/><path class="cls-53" d="M214.7,211.07h16.58v-24h-43s1.25,2.9,8,2.9c0,0-7.1.17-7.28,1.92s10,2.1,10,2.1-3.25.22-3.24,1.22,5,2.22,9,2.29c0,0-2.08.15-2,.79s3.28,1.58,6.86,1.72c0,0-6,.65-5.73,2.16s7.38,2.79,7.38,2.79-9.46-.21-10.39,1.65S206.84,211.07,214.7,211.07Z"/><ellipse class="cls-53" cx="190.08" cy="195.65" rx="3.32" ry="0.93"/><ellipse class="cls-53" cx="96.4" cy="200.07" rx="3.32" ry="0.93"/><ellipse class="cls-53" cx="195.79" cy="198.14" rx="2.07" ry="0.58"/><ellipse class="cls-53" cx="91.31" cy="202.77" rx="2.07" ry="0.58"/><path class="cls-53" d="M22.81,187.08h84.56s-.57,2.33-5.45,2.83c0,0,7-.12,7,1.41,0,2-13.49,3-13.49,3s4.16.57,4.23,1.93-13.34,1.94-13.34,1.94,3.8.3,3.73,1.3-8,1.93-8,1.93,2.59.36,2.59,1.5-7.24,1.87-7.24,1.87,5.45,0,5.59,1.27-9.61,2.17-9.61,2.17,8,0,7.89,1.87S73.8,212,73.8,212H58s-4.81-2.85.64-3.64c0,0-5-.21-5.38-1.93s4.31-2.08,4.31-2.08-4.67-.36-4.74-2.08S58,200,58,200s-10.12-.64-10.12-2.79S53.65,195,53.65,195s-7.89-.28-10.76-1.65c0,0-3.3,1.94-9.18,1.94,0,0,5.24.5,5.24,2.44s-9.76,2.44-9.76,2.44,6,.21,6,1.72-8.68,2.72-8.68,2.72,5.38.43,5.38,2-7.39,2.58-7.39,2.58,6-.27,5.88,1.8-8.46,2.06-8.46,2.06Z"/></g><polygon class="cls-2" points="135.57 199.59 134.41 196.41 133.57 196.41 132.39 199.57 131.26 196.41 130.31 196.41 131.88 200.7 132.85 200.7 133.97 197.74 135.08 200.7 136.04 200.7 137.63 196.41 136.73 196.41 135.57 199.59"/><path class="cls-2" d="M141.18,196.64a2.19,2.19,0,0,0-1.12-.28,2.29,2.29,0,0,0-1.14.28,2,2,0,0,0-.79.78,2.26,2.26,0,0,0-.29,1.13,2.21,2.21,0,0,0,.3,1.14,2,2,0,0,0,.83.78,2.61,2.61,0,0,0,1.24.28,2.87,2.87,0,0,0,1-.17,1.86,1.86,0,0,0,.73-.53l-.54-.62a1.52,1.52,0,0,1-1.16.47,1.49,1.49,0,0,1-.93-.28,1.14,1.14,0,0,1-.46-.75h3.36c0-.13,0-.23,0-.3a2.34,2.34,0,0,0-.28-1.16A1.9,1.9,0,0,0,141.18,196.64Zm-2.34,1.57a1.2,1.2,0,0,1,.4-.76,1.24,1.24,0,0,1,.82-.29,1.21,1.21,0,0,1,.82.29,1.17,1.17,0,0,1,.39.76Z"/><path class="cls-2" d="M146.69,196.63a2.29,2.29,0,0,0-1.12-.27,2.15,2.15,0,0,0-.77.14,1.7,1.7,0,0,0-.6.43v-2.19h-1v6h1v-.56a1.54,1.54,0,0,0,.61.46,2.16,2.16,0,0,0,.81.15,2.29,2.29,0,0,0,1.12-.27,2,2,0,0,0,.78-.78,2.5,2.5,0,0,0,0-2.3A2,2,0,0,0,146.69,196.63Zm-.32,2.89a1.2,1.2,0,0,1-.91.37,1.28,1.28,0,0,1-.65-.16,1.16,1.16,0,0,1-.46-.47,1.57,1.57,0,0,1,0-1.42,1.16,1.16,0,0,1,.46-.47,1.28,1.28,0,0,1,.65-.16,1.2,1.2,0,0,1,.91.37,1.34,1.34,0,0,1,.36,1A1.32,1.32,0,0,1,146.37,199.52Z"/><path class="cls-2" d="M151.14,196.36a2.14,2.14,0,0,0-.82.14,1.62,1.62,0,0,0-.61.4v-2.16h-1v6h1v-2.17a1.3,1.3,0,0,1,.32-1,1.12,1.12,0,0,1,.87-.34,1,1,0,0,1,.76.29,1.19,1.19,0,0,1,.26.85v2.33h1v-2.46a1.91,1.91,0,0,0-.49-1.41A1.82,1.82,0,0,0,151.14,196.36Z"/><rect class="cls-2" x="154.21" y="196.41" width="1" height="4.29"/><path class="cls-2" d="M154.71,194.49a.65.65,0,0,0-.46.18.57.57,0,0,0-.18.43.58.58,0,0,0,.18.43.69.69,0,0,0,.46.17.62.62,0,0,0,.46-.18.61.61,0,0,0,.18-.45.54.54,0,0,0-.18-.41A.67.67,0,0,0,154.71,194.49Z"/><path class="cls-2" d="M159,196.36a2.26,2.26,0,0,0-.85.15,1.59,1.59,0,0,0-.63.45v-.55h-.95v4.29h1v-2.17a1.34,1.34,0,0,1,.32-1,1.15,1.15,0,0,1,.88-.34,1,1,0,0,1,.75.29,1.19,1.19,0,0,1,.27.85v2.33h1v-2.46a1.87,1.87,0,0,0-.49-1.41A1.82,1.82,0,0,0,159,196.36Z"/><path class="cls-2" d="M163.76,199.92a.57.57,0,0,1-.44-.16.69.69,0,0,1-.15-.48v-2h1.15v-.8h-1.15v-1h-1v1h-.7v.8h.7v2.07a1.39,1.39,0,0,0,.39,1.07,1.5,1.5,0,0,0,1.09.37,1.9,1.9,0,0,0,.54-.07,1.17,1.17,0,0,0,.43-.22l-.28-.71A.88.88,0,0,1,163.76,199.92Z"/><path class="cls-2" d="M165.84,199.42a.64.64,0,0,0-.47.18.65.65,0,0,0-.19.48.62.62,0,0,0,.19.48.63.63,0,0,0,.47.19.62.62,0,0,0,.46-.19.63.63,0,0,0,.2-.48.69.69,0,0,0-.19-.48A.67.67,0,0,0,165.84,199.42Z"/><rect class="cls-2" x="167.48" y="196.41" width="1" height="4.29"/><path class="cls-2" d="M168,194.49a.65.65,0,0,0-.46.18.57.57,0,0,0-.18.43.58.58,0,0,0,.18.43.69.69,0,0,0,.46.17.62.62,0,0,0,.46-.18.61.61,0,0,0,.18-.45.54.54,0,0,0-.18-.41A.67.67,0,0,0,168,194.49Z"/><path class="cls-2" d="M173.72,197.42a2.12,2.12,0,0,0-.82-.78,2.61,2.61,0,0,0-2.35,0,2,2,0,0,0-.81.78,2.15,2.15,0,0,0-.3,1.13,2.21,2.21,0,0,0,.3,1.14,2,2,0,0,0,.81.78,2.61,2.61,0,0,0,2.35,0,2.12,2.12,0,0,0,.82-.78,2.3,2.3,0,0,0,.29-1.14A2.24,2.24,0,0,0,173.72,197.42Zm-1.08,2.1a1.22,1.22,0,0,1-.92.37,1.2,1.2,0,0,1-.91-.37,1.32,1.32,0,0,1-.36-1,1.34,1.34,0,0,1,.36-1,1.2,1.2,0,0,1,.91-.37,1.22,1.22,0,0,1,.92.37,1.34,1.34,0,0,1,.36,1A1.32,1.32,0,0,1,172.64,199.52Z"/><path class="cls-54" d="M165.3,134.52s10.13-12.81,23.33-16.64c0,0,10.79,7.56-5.45,26.2-14.05,16.13-38.64,7.75-38.64,7.75Z"/><path class="cls-55" d="M76.74,166.84c44.9,37.49,117.36-13.25,94.29-58.71-19.89-39.21-56.29-26.28-67.76-12.7-20.46,24.2-4.34,49.23-7.78,59.94s-17,4-17,4,5.64-13.13-11.61-20.48c0,0-6.54,14.65,2.28,20.53,0,0-11-2-13.7,15.13C62,176.14,70.79,176.72,76.74,166.84Z"/><g class="cls-56"><ellipse class="cls-57" cx="94.51" cy="122.55" rx="13.23" ry="4.67" transform="translate(-31.18 212.84) rotate(-88.05)"/><path class="cls-57" d="M102.1,133.26c1.31.1,2.27-2.84,2.6-5.59s-.2-4.59-1.42-4.36c-1,.17-2,2.1-2.28,4.85S101.16,133.19,102.1,133.26Z"/><ellipse class="cls-57" cx="99.1" cy="137.43" rx="2.38" ry="0.96" transform="translate(-53.75 210.55) rotate(-79.77)"/><path class="cls-58" d="M77.51,167.47s25.34,10.66,36.15-1.2c11.18-12.28,35.55-49.19,60.62-19.51,0,0-29.26,56.23-83.57,36.15Z"/></g><path class="cls-59" d="M76.74,166.84c44.9,37.49,117.36-13.25,94.29-58.71-19.89-39.21-56.29-26.28-67.76-12.7-20.46,24.2-4.34,49.23-7.78,59.94s-17,4-17,4,5.64-13.13-11.61-20.48c0,0-6.54,14.65,2.28,20.53,0,0-11-2-13.7,15.13C62,176.14,70.79,176.72,76.74,166.84Z"/><path class="cls-60" d="M125.77,85.53c2.72-12.39,9.45-42.91,9.45-42.91s4,31.11,5.48,42.88c.45,3.64-7.78,3.89-7.78,3.89S125,89.63,125.77,85.53Z"/><path class="cls-61" d="M126.56,82.88c1.46.38,8.47,1.44,13.17-3.57"/><path class="cls-61" d="M128.81,71.69a14,14,0,0,0,9.72-2.81"/><path class="cls-61" d="M131.4,60a14.08,14.08,0,0,0,5.79-1.54"/><path class="cls-62" d="M125.77,85.53c2.72-12.39,9.45-42.91,9.45-42.91s4,31.11,5.48,42.88"/><path class="cls-63" d="M148.72,110.63a39.84,39.84,0,0,0-18.11,3.18c.15,3.13,6,10.91,12.94,9.66C151.91,122,148.72,110.63,148.72,110.63Z"/><path class="cls-64" d="M161,110.53c-.48-2.44-2.32-3.92-4-3.6s-2.49,2.34-2,4.78"/><path class="cls-64" d="M123.27,118.23c-.56-2.82-2.63-4.42-4.5-4.06s-2.83,2.57-2.28,5.4"/><g class="cls-65"><path class="cls-66" d="M129.53,117.17s15.8-3.65,22.6,5.11l-14.57,4.53Z"/></g><path class="cls-67" d="M196.59,89.67a1.16,1.16,0,0,0-1.09,1l-1.23,8.7a1,1,0,1,1-2-.29l1.22-8.7a1.16,1.16,0,0,0-.76-1.29,1.13,1.13,0,0,0-1.46.92L190,98.8a1,1,0,0,1-2-.28l1.23-8.71a1.18,1.18,0,0,0-.77-1.29,1.12,1.12,0,0,0-1.45.92L185.8,98.2a1,1,0,0,1-2-.28l1.23-8.7a1.16,1.16,0,0,0-.77-1.29,1.12,1.12,0,0,0-1.45.91l-1.38,9.77-.28,2,0,.37a1.94,1.94,0,0,0,.87,1.9l4.73,3.09c-1,4.85-6,30-6.32,35.28a25.32,25.32,0,0,0,.61,7.47,1,1,0,0,0,2,.28,25.25,25.25,0,0,0,2.65-7c1.13-5.14,3.28-30.73,3.69-35.66l5.41-1.65A1.93,1.93,0,0,0,196,103l.06-.37.27-2L197.74,91A1.12,1.12,0,0,0,196.59,89.67Z"/><path class="cls-55" d="M191.3,130.93s5.58-17.51-7.19-19.22a48.74,48.74,0,0,0,5,10.73"/><path class="cls-68" d="M190.51,130.68a30.27,30.27,0,0,0,1.07-5.63,19,19,0,0,0-.24-5.65,8.94,8.94,0,0,0-2.46-4.73,8.84,8.84,0,0,0-4.88-2.14h0l.9-1.07a53.09,53.09,0,0,0,2,5.48,39.71,39.71,0,0,0,2.69,5.18h0a.59.59,0,0,1-1,.64,40,40,0,0,1-3-5.24,53.46,53.46,0,0,1-2.31-5.57.82.82,0,0,1,.5-1,.91.91,0,0,1,.4,0h0a9.66,9.66,0,0,1,8.74,8.16,20.54,20.54,0,0,1,.27,6.15,30.78,30.78,0,0,1-1.14,6,.83.83,0,0,1-1,.56.82.82,0,0,1-.56-1h0Z"/><path class="cls-69" d="M208.49,82.15C188,74,171.56,82,170.87,82.34a5.81,5.81,0,0,0,2.56,11,5.72,5.72,0,0,0,2.56-.6c.52-.25,12.73-6,28.22.18a5.8,5.8,0,0,0,4.28-10.78Z"/><path class="cls-70" d="M171.84,84.29c1.07-1.57,5.25-4.86,9.66-3.18,1.82.72,4.64,1.4,6.71-1.24,1.53-1.94,6.14-1.85,7.92.77,2,3,4.4,2.61,5.84,1.71a4.29,4.29,0,0,1,6,1.94"/><path class="cls-71" d="M115.46,189.38c.54.55.9.94,1,1.06a2.58,2.58,0,1,1-4,3.31l-.25-.28a41.49,41.49,0,0,0-4.17-3.71,6.71,6.71,0,0,0,.58-5.54l.14,0A28.71,28.71,0,0,1,115.46,189.38Z"/><path class="cls-71" d="M112.49,193.75a2.58,2.58,0,0,0,4-3.31c-.1-.12-.46-.51-1-1.06a12.47,12.47,0,0,0-.25-6.39,13.35,13.35,0,0,0-6.77-7.61c-3.39-1.65-8.93-1.18-12.89,1.09a6.35,6.35,0,0,0-2,1.46,16.88,16.88,0,0,0-3.32,1.1,2.84,2.84,0,0,0-1.42,3.59,3.12,3.12,0,0,0,2.61,1.76,6.08,6.08,0,0,0,1.82,4,5.3,5.3,0,0,0,4.5,1.22A4.54,4.54,0,0,1,99,185.52a7.9,7.9,0,0,1,3.36-2.11,4.19,4.19,0,0,1,.57.68,5.06,5.06,0,0,1,.33,3.6,5,5,0,0,0,.08,3.59,4.58,4.58,0,0,0,1.36,1.83,6.8,6.8,0,0,0,3.63,1.59,5.42,5.42,0,0,0,3.93-1.21l0,0Zm-12.86,1c-3.9.2-7.29-.5-10-3-2.56-2.34-3.68-5.79-3.31-10.25.3-3.8,2.69-7.17,6.71-9.47,5.49-3.13,12.77-3.64,17.71-1.25,3.58,1.74,8,5.49,9.48,10.85,1.11,3.89,1.58,7.72-.77,11.45-3.63,5.75-7.87,6.86-10.6,6.86a9,9,0,0,1-1.08-.06A11.28,11.28,0,0,1,99.63,194.73Z"/><path class="cls-71" d="M92.4,184.18a2,2,0,0,1-.93.2,3.12,3.12,0,0,1-2.61-1.76A2.84,2.84,0,0,1,90.28,179a16.88,16.88,0,0,1,3.32-1.1c4.31-1,10.56-1.07,13.53,3.22a10.38,10.38,0,0,1,1.52,3.07,6.71,6.71,0,0,1-.58,5.54,9.08,9.08,0,0,1-3.28,3.19l-.14.16a4.58,4.58,0,0,1-1.36-1.83,5,5,0,0,1-.08-3.59,5.06,5.06,0,0,0-.33-3.6,4.19,4.19,0,0,0-.57-.68,5,5,0,0,0-4.16-1A30.66,30.66,0,0,0,92.4,184.18Z"/><path class="cls-72" d="M93.6,177.93a6.35,6.35,0,0,1,2-1.46c4-2.27,9.5-2.74,12.89-1.09a13.35,13.35,0,0,1,6.77,7.61,12.47,12.47,0,0,1,.25,6.39,3.39,3.39,0,0,1-.15.45"/><path class="cls-72" d="M98.11,189.55l-.32,0a5.3,5.3,0,0,1-4.5-1.22,6.08,6.08,0,0,1-1.82-4,2.8,2.8,0,0,1,0-.29"/><path class="cls-72" d="M119.4,193c2.35-3.73,1.88-7.56.77-11.45-1.53-5.36-5.9-9.11-9.48-10.85-4.94-2.39-12.22-1.88-17.71,1.25-4,2.3-6.41,5.67-6.71,9.47-.37,4.46.75,7.91,3.31,10.25,2.76,2.53,6.15,3.23,10,3"/><path class="cls-72" d="M104.79,193a9.08,9.08,0,0,0,3.28-3.19,6.71,6.71,0,0,0,.58-5.54,10.38,10.38,0,0,0-1.52-3.07"/><path class="cls-72" d="M107.13,181.15c-3-4.29-9.22-4.22-13.53-3.22a16.88,16.88,0,0,0-3.32,1.1,2.84,2.84,0,0,0-1.42,3.59,3.12,3.12,0,0,0,2.61,1.76,2,2,0,0,0,.93-.2,30.66,30.66,0,0,1,5.75-1.79,5,5,0,0,1,4.16,1,4.19,4.19,0,0,1,.57.68"/><path class="cls-72" d="M108.07,189.76a41.49,41.49,0,0,1,4.17,3.71l.25.28a2.58,2.58,0,0,0,4-3.31c-.1-.12-.46-.51-1-1.06a28.71,28.71,0,0,0-6.67-5.2"/><path class="cls-72" d="M102.31,183.41A7.9,7.9,0,0,0,99,185.52"/><path class="cls-72" d="M99,185.52a4.54,4.54,0,0,0-1.16,4.08,15.78,15.78,0,0,0,.89,3.2,9.61,9.61,0,0,0,.95,1.93,11.28,11.28,0,0,0,8.09,5.1,9,9,0,0,0,1.08.06c2.73,0,7-1.11,10.6-6.86"/><path class="cls-72" d="M112.21,193.49a5.42,5.42,0,0,1-3.93,1.21,6.8,6.8,0,0,1-3.63-1.59,4.58,4.58,0,0,1-1.36-1.83,5,5,0,0,1-.08-3.59,5.06,5.06,0,0,0-.33-3.6"/><circle class="cls-73" cx="94.27" cy="174.18" r="0.52"/><circle class="cls-73" cx="90.22" cy="187.41" r="0.52"/><circle class="cls-73" cx="100.8" cy="192.24" r="0.52"/><circle class="cls-73" cx="108.98" cy="197.44" r="0.52"/><circle class="cls-73" cx="91.14" cy="175.82" r="0.4"/><circle class="cls-73" cx="88.76" cy="186.49" r="0.4"/><circle class="cls-73" cx="92.78" cy="190.59" r="0.4"/><circle class="cls-73" cx="94.56" cy="192.11" r="0.4"/><circle class="cls-73" cx="102.32" cy="193.51" r="0.4"/><circle class="cls-73" cx="104.28" cy="196.33" r="0.4"/><circle class="cls-73" cx="106.38" cy="196.33" r="0.4"/><circle class="cls-73" cx="111.56" cy="196.52" r="0.4"/><circle class="cls-73" cx="118.87" cy="187.93" r="0.4"/><circle class="cls-73" cx="117.35" cy="183.98" r="0.4"/><circle class="cls-73" cx="118.07" cy="181.71" r="0.4"/><circle class="cls-73" cx="115.88" cy="179.62" r="0.4"/><circle class="cls-73" cx="111.4" cy="189.33" r="0.4"/><circle class="cls-73" cx="113.32" cy="190.38" r="0.4"/><circle class="cls-73" cx="117.35" cy="179.8" r="0.4"/><circle class="cls-73" cx="95.71" cy="191.49" r="0.4"/><circle class="cls-73" cx="99.69" cy="188.65" r="0.4"/><path class="cls-55" d="M108.68,152.35s-12.09,13.42-7.37,36.36c0,0,27.23-5.54,17.19-36.33"/><path class="cls-68" d="M109.17,152.79a33.24,33.24,0,0,0-4.66,8.06,42.85,42.85,0,0,0-2.65,9c-.16.76-.22,1.55-.33,2.32l-.15,1.16c0,.39,0,.78-.08,1.17l-.13,2.35,0,2.34c0,1.57.23,3.12.35,4.68s.52,3.09.77,4.63l-1.24-.82h0a27.77,27.77,0,0,0,10-4.65,21.38,21.38,0,0,0,6.89-8.48,22.46,22.46,0,0,0,1.6-5.29,27.26,27.26,0,0,0,.34-5.57,41.42,41.42,0,0,0-2-11.09.7.7,0,0,1,1.33-.44,42.89,42.89,0,0,1,2.3,11.46,28.57,28.57,0,0,1-.28,5.91,24.49,24.49,0,0,1-1.63,5.73,23.21,23.21,0,0,1-7.33,9.31,29.4,29.4,0,0,1-5.07,3.12,28.49,28.49,0,0,1-5.64,2.06h-.06a1,1,0,0,1-1.17-.78v0c-.24-1.61-.55-3.21-.71-4.83s-.33-3.24-.27-4.87v-2.44l.18-2.43c0-.41.06-.81.11-1.22l.18-1.21c.13-.8.21-1.61.39-2.4a43.57,43.57,0,0,1,2.94-9.28,34.45,34.45,0,0,1,5.08-8.34.66.66,0,0,1,1,.84Z"/></svg>