<svg id="sticker" xmlns="http://www.w3.org/2000/svg" xmlns:xlink="http://www.w3.org/1999/xlink" viewBox="0 0 252 252"><defs><style>.cls-1,.cls-20,.cls-23,.cls-27{fill:none;}.cls-2{fill:#fff;}.cls-3{clip-path:url(#clip-path);}.cls-4{fill:url(#linear-gradient);}.cls-5{fill:url(#radial-gradient);}.cls-6{opacity:0.3;}.cls-7,.cls-9{fill:#6c4284;}.cls-8{fill:#61586d;}.cls-9{opacity:0.6;}.cls-10{fill:#bdbad8;}.cls-11{fill:#9593c1;}.cls-12{opacity:0.2;fill:url(#linear-gradient-2);}.cls-13{fill:url(#radial-gradient-2);}.cls-14{fill:#66391b;}.cls-14,.cls-27,.cls-28{stroke:#592d10;}.cls-14,.cls-20,.cls-23,.cls-27,.cls-28{stroke-linecap:round;stroke-linejoin:round;}.cls-14,.cls-20,.cls-27,.cls-28{stroke-width:1.62px;}.cls-15{fill:#96a3e2;}.cls-16{fill:#1c418c;}.cls-17{clip-path:url(#clip-path-2);}.cls-18{fill:#bbc6ef;}.cls-19{fill:#6b7fc6;}.cls-20,.cls-23{stroke:#1c418c;}.cls-21{fill:#060b1c;}.cls-22{fill:#2b5599;}.cls-23{stroke-width:1.51px;}.cls-24{fill:#b2794b;}.cls-25{fill:#7f4b28;}.cls-26{fill:#9b633d;}.cls-28,.cls-29{fill:#844d2f;}.cls-30{fill:#773f2c;}.cls-31{fill:#592d10;}.cls-32,.cls-36{fill:#836396;}.cls-33{fill:#604772;}.cls-34{fill:#6c527f;}.cls-35{fill:#9679aa;}.cls-36{opacity:0.5;}.cls-37{fill:#524960;}</style><clipPath id="clip-path"><rect class="cls-1" x="23.75" y="81.25" width="204.5" height="135.44" rx="8.55" ry="8.55"/></clipPath><linearGradient id="linear-gradient" x1="125.88" y1="74.64" x2="125.88" y2="183.31" gradientUnits="userSpaceOnUse"><stop offset="0" stop-color="#5f94c4"/><stop offset="0.27" stop-color="#80b9d8"/><stop offset="1" stop-color="#f2a85f"/></linearGradient><radialGradient id="radial-gradient" cx="82.54" cy="178.91" r="63.06" gradientTransform="translate(-0.02 0.05)" gradientUnits="userSpaceOnUse"><stop offset="0" stop-color="#ffdb80"/><stop offset="1" stop-color="#ffdb80" stop-opacity="0"/></radialGradient><linearGradient id="linear-gradient-2" x1="125.88" y1="252.61" x2="125.88" y2="185.34" gradientTransform="translate(-0.02 0.05)" xlink:href="#linear-gradient"/><radialGradient id="radial-gradient-2" cx="20.9" cy="194.88" r="102.14" gradientTransform="translate(-0.02 0.05)" gradientUnits="userSpaceOnUse"><stop offset="0" stop-color="#ffdb80" stop-opacity="0.6"/><stop offset="1" stop-color="#ffdb80" stop-opacity="0"/></radialGradient><clipPath id="clip-path-2"><path class="cls-1" d="M81.36,184.6s55.26,12.09,75.91-20.29c32.28-50.63-9.39-75.09-9.39-75.09-25.81-10.33-54.3,15-54.3,15-15.86,18.54-5.13,38.14-.72,54,5.4,19.42-11.5,17-11.5,17S83.7,158.44,62.7,157.5c0,0-1.52,18.3,9.62,21,0,0-11.49,1.06-12,19.24C60.36,197.74,78.78,200.91,81.36,184.6Z"/></clipPath></defs><title>webhint_sticker_4</title><path class="cls-2" d="M219.7,75.62h-8.47V62.28a7,7,0,0,0-6.63-7V36.86a7.18,7.18,0,0,0-14.36,0v18.4a7,7,0,0,0-6.63,7V75.62H32.3A14.19,14.19,0,0,0,18.12,89.8V208.14A14.19,14.19,0,0,0,32.3,222.32H219.7a14.19,14.19,0,0,0,14.18-14.18V89.8A14.19,14.19,0,0,0,219.7,75.62Z"/><path class="cls-2" d="M83.87,194.85l-.87,1a19.9,19.9,0,0,1-3.63,3.35c-5.21,3.73-11.31,4.52-15.51,4.52a29.34,29.34,0,0,1-4.75-.36,6.83,6.83,0,0,1-5.65-6.87c.12-4.52,1.1-13,6.38-19.24l.47-.55-.39-.62a27.17,27.17,0,0,1-3.35-8.8,43.77,43.77,0,0,1-.74-11.42,6.78,6.78,0,0,1,6.8-6.23h.28c9,.4,15.77,3.32,20.21,8.66.11.13.21.26.32.38l1,1.25.69-1.43a6.1,6.1,0,0,1,.39-.71l.25-.39-.13-.44c-.55-1.8-1.17-3.66-1.81-5.62-.55-1.67-1.14-3.43-1.7-5.24l-.08-.25-.2-.18c-3.38-3.14-5.57-8.42-6.16-14.88a31,31,0,0,1,.08-6.47l.11-.89-.87-.21c-.78-.18-1.57-.37-2.36-.58-7.56-1.94-11.59-5.48-12-10.51-.6-7.82,8.46-12.6,15.32-15.53l.12,0A6.86,6.86,0,0,1,78.39,96l.63,0,.17-.09c1-.52,2.1-1,3.16-1.51l.73-.34-.31-1.43.27-.07-.11-.87c-.9-7.1-.79-13.14.3-17.47,1.63-6.54,6.72-7.52,9.61-7.52h.56l1.06,0c3.79,0,6.51-.9,8.29-2.76.48-.5,1-1,1.48-1.59l0,0c3.85-4.17,8.63-9.36,14.89-9.36a11.06,11.06,0,0,1,6.36,2.06,49.46,49.46,0,0,1,14.18,16.3c.82,1.45,1.86,3.88,2.63,5.65.27.64.51,1.2.7,1.62l.27.58,34.79,0-7.67,9.11a52.74,52.74,0,0,1-5.34,5.24l-.72.62.59.75a55,55,0,0,1,6.27,10l.14.29.27.15a6.8,6.8,0,0,1,3.09,3.67l1.11,3.16a6.87,6.87,0,0,1-.14,4.87l-.3.7,0,.29a54,54,0,0,1,.15,17.23l0,.37.2.31a20.7,20.7,0,0,1,1.62,3.1c2.75,6.68,1.79,15.16-2.93,25.93l0,.09,0,.11A43.36,43.36,0,0,1,173.1,170a7,7,0,0,1-2.93,3.76l-.21.13-.13.22a168.48,168.48,0,0,1-15.4,22.39L153,198.22,91.83,207Z"/><g class="cls-3"><rect class="cls-4" x="16.59" y="71.56" width="218.57" height="112.23"/><circle class="cls-5" cx="82.53" cy="178.96" r="63.06"/><g class="cls-6"><rect class="cls-7" x="218.25" y="115.72" width="13.16" height="40.77"/><polygon class="cls-7" points="178.56 148.33 165.95 148.33 165.95 163.6 155.23 163.6 155.23 176.12 148.71 176.12 148.71 181.7 139.55 181.7 139.55 183.79 148.71 183.79 150.39 183.79 155.23 183.79 158.57 183.79 174.19 183.78 174.19 180.27 182.48 180.27 182.48 177.63 192.89 177.63 192.89 134.56 178.56 134.56 178.56 148.33"/></g><polygon class="cls-8" points="237.4 130.51 224.02 130.51 224.02 148.86 220.7 148.86 220.7 141.07 213.71 141.07 213.71 123.82 199.65 123.82 199.66 169.75 210.45 169.75 210.45 183.78 218.91 183.78 220.71 183.78 225.43 183.78 225.43 183.78 237.4 183.78 237.4 130.51"/><polygon class="cls-8" points="171.23 171.25 161.55 171.25 161.55 183.79 171.23 183.78 176.62 183.78 187.69 183.78 187.68 160.78 171.23 160.78 171.23 171.25"/><path class="cls-9" d="M58.82,166.46v-2.32H56.27V159.3h-.91v-2.23H53.48c-.92-.33-1-6.09-1-6.09l.89-.59c.58-.63-.27-5.88-.27-5.88l.86-.34s-.82-6.65-.66-7.38.46-.81.46-.81c2-.43,1.4-3.87,1.4-3.87s.35,0,1.89-1.33.53-2.42.53-2.42l.88-1.75-3.25-1.75-1.29,1.57L52.41,125c-.51-3.54-2.39-4.15-2.39-4.15l-1.58-2.53c.92-1.07.33-3.38.23-3.76l2.89-.1-2.8-.52a1.58,1.58,0,0,0,0-.38l2.74-.93-3,.33a1.74,1.74,0,0,0-.37-.4l1.79-2.1-2.33,1.76a3,3,0,0,0-1-.26l-.36-2.64L45.93,112a3.14,3.14,0,0,0-1.08.3l-2.39-1.8,1.86,2.18a2.22,2.22,0,0,0-.37.44l-2.73-.17a28.35,28.35,0,0,1-.85-7.06,2.33,2.33,0,0,0-.61-2.59L40,101.9h.66l.26-2.28H39.55c2.32-1.43-.33-4-.33-4s.1.71-1.16,2.06c-.82.88-.57,1.56-.3,1.93h-.92l.17,2.26h.73l.3,1.23a5.38,5.38,0,0,0,.09,2.72,29.61,29.61,0,0,0,1.06,9s-1.42,3-.64,5.28l.64-.18a4.55,4.55,0,0,0,0,1.68l.71.43a1.79,1.79,0,0,0,0,1.6c.46.69-.32,1.17-.32,1.17s1.38,1.73,1.08,3-2.26,5.33,0,5.05c0,0-1,3-.63,4.68a56.49,56.49,0,0,1,.58,5.78s-.77,2.29-.16,7.44c0,0,.65,6-1.42,6.34H37.81v2.23H36.9v4.84H34.35v2.32h1.51v15H34.35v2.33H58.83v-2.32H57.31v-15ZM43.22,117a5.79,5.79,0,0,1-.78-2.42l1.3,0C43.53,115.28,43.22,117,43.22,117Zm.51-3.29a2.42,2.42,0,0,0,0,.25v0l-1.28.24v0l-.89-.19s-.12-.36-.29-1Z"/><rect class="cls-10" x="16.59" y="183.79" width="218.57" height="45.05"/><path class="cls-11" d="M58.64,183.79H34.47s-11.39,5.45,4.25,8.14c0,0-10.69,4.05,4,6.05,0,0-7,3.76,3.65,4.09h.43c10.63-.33,3.65-4.1,3.65-4.1,14.67-2,4-6,4-6C70,189.24,58.64,183.79,58.64,183.79Z"/><ellipse class="cls-11" cx="41.56" cy="204.91" rx="4.34" ry="1.53"/><ellipse class="cls-11" cx="49.62" cy="207.69" rx="2.29" ry="0.94"/><ellipse class="cls-11" cx="44.97" cy="209.28" rx="1.59" ry="0.65"/><ellipse class="cls-11" cx="147.65" cy="207.01" rx="5.27" ry="1.85"/><ellipse class="cls-11" cx="138.33" cy="212.37" rx="2.88" ry="1.01"/><ellipse class="cls-11" cx="146.33" cy="213.11" rx="1.66" ry="0.58"/><path class="cls-11" d="M238,211.35s4.4,4-17,5.23c0,0-2,3.33-10.17,3.54v0h-.8v0c-8.14-.21-10.16-3.54-10.16-3.54-20.48-1.32-21.68-5-21.68-5-32.13-2.95-15.67-8.12-15.67-8.12-33.52-6.64-3.58-8.7-3.58-8.7,7.88-4.73-13.29-4.95-13.29-4.95l64.39,1.48h28.32Z"/><ellipse class="cls-11" cx="221.2" cy="214.56" rx="1.64" ry="0.54"/><path class="cls-11" d="M139.55,183.79s2.23,2.69,10.09,4c0,0-7.21.82-7.27,2.64-.06,1.63,5.39,4.52,25.57,6.06,11.82.91,62.54-1.13,62.54-1.13V183.76Z"/><ellipse class="cls-11" cx="177.16" cy="214.15" rx="26.16" ry="5.89"/><rect class="cls-12" x="16.59" y="183.79" width="218.57" height="45.05"/><circle class="cls-13" cx="20.89" cy="194.93" r="102.14"/></g><path class="cls-2" d="M77.72,218.89s-3.26-10.3.48-12.15S85,212.35,85,212.35s4-13.27,12.75-12.5c5.93.53-3.4,12-3.4,12s12.44-8.24,11.81-3.38c-.76,5.81-7,10.4-7,10.4Z"/><path class="cls-2" d="M112.28,201.25c-.91,1.65-2.9,3-3.65,2.58s-.76-2.63.2-4.42c.76-1.43,2.15-2.17,3.1-1.66S113.06,199.84,112.28,201.25Z"/><path class="cls-2" d="M116.48,205.72c-.85.67-2.2.95-2.5.55s.18-1.55,1.09-2.29c.71-.58,1.61-.66,2-.18S117.2,205.15,116.48,205.72Z"/><path class="cls-14" d="M79,103.8c-.36.21-22.32,8.78-4.6,13.33s28.15,2.54,28.15,2.54l-4.45-17.43Z"/><path class="cls-15" d="M157.7,130.62s16.05,17.32,8.88,38.24c0,0-19-2.66-17.82-31"/><path class="cls-16" d="M158.2,130.15a46.4,46.4,0,0,1,5.92,8.59,45.31,45.31,0,0,1,3.87,9.68c.2.85.47,1.69.61,2.55l.42,2.6c.14.86.14,1.74.22,2.62l.08,1.31,0,1.32c0,.87-.05,1.75-.12,2.63l-.39,2.61c-.08.43-.11.87-.22,1.3l-.34,1.27-.7,2.55a.93.93,0,0,1-1.07.66,20.44,20.44,0,0,1-9.09-4.56,24.31,24.31,0,0,1-6.06-8l-1-2.3-.74-2.39c-.12-.4-.26-.79-.36-1.19l-.24-1.22-.47-2.45c-.19-1.64-.32-3.29-.45-4.93l0-4.94a.7.7,0,0,1,.71-.7.7.7,0,0,1,.7.7v.06l0,4.81c.15,1.59.29,3.19.5,4.77l.48,2.33.24,1.17c.11.38.25.75.36,1.13l.74,2.26,1,2.15a22.43,22.43,0,0,0,5.72,7.33l.9.74,1,.64a20.27,20.27,0,0,0,2,1.16,17,17,0,0,0,4.29,1.47l-1.07.66.69-2.4.35-1.19c.1-.41.14-.82.22-1.23l.41-2.46c.07-.83.09-1.66.15-2.49l.06-1.25-.07-1.25c-.06-.83,0-1.67-.16-2.5l-.37-2.48c-.12-.82-.37-1.63-.54-2.45a43.86,43.86,0,0,0-3.6-9.39,45.69,45.69,0,0,0-5.58-8.37l0,0a.69.69,0,0,1,.07-1A.68.68,0,0,1,158.2,130.15Z"/><path class="cls-15" d="M81.36,184.6s55.26,12.09,75.91-20.29c32.28-50.63-9.39-75.09-9.39-75.09-25.81-10.33-54.3,15-54.3,15-15.86,18.54-5.13,38.14-.72,54,5.4,19.42-11.5,17-11.5,17S83.7,158.44,62.7,157.5c0,0-1.52,18.3,9.62,21,0,0-11.49,1.06-12,19.24C60.36,197.74,78.78,200.91,81.36,184.6Z"/><g class="cls-17"><path class="cls-18" d="M84.05,185.11s30.18,2.18,43.53-25.73c11.8-24.64,38-32.38,44.35-17,6.88,16.69-22,51.33-22,51.33l-55.08,7.91Z"/><path class="cls-19" d="M93.59,130.24c0,7.76-2.48,13.39-4.76,13.4-3.28,0-6.44-5.22-7.09-12.33s1.6-12.53,4.76-13.39C91.23,116.62,93.55,123.11,93.59,130.24Z"/><ellipse class="cls-19" cx="100" cy="130.93" rx="2.6" ry="4.81"/><ellipse class="cls-19" cx="97.98" cy="141.99" rx="2.44" ry="1.64" transform="translate(-65.34 197.54) rotate(-74.18)"/></g><path class="cls-20" d="M81.36,184.6s55.26,12.09,75.91-20.29c32.28-50.63-9.39-75.09-9.39-75.09-25.81-10.33-54.3,15-54.3,15-15.86,18.54-5.13,38.14-.72,54,5.4,19.42-11.5,17-11.5,17S83.7,158.44,62.7,157.5c0,0-1.52,18.3,9.62,21,0,0-11.49,1.06-12,19.24C60.36,197.74,78.78,200.91,81.36,184.6Z"/><circle class="cls-21" cx="118.42" cy="119.23" r="3.77"/><circle class="cls-2" cx="117.03" cy="118.4" r="1.27"/><path class="cls-22" d="M120.52,119.11a.81.81,0,0,0-1,.58,1.26,1.26,0,0,1-1,.92.81.81,0,0,0-.66.93.8.8,0,0,0,.93.66,2,2,0,0,0,.41-.1,2.82,2.82,0,0,0,1.89-2A.8.8,0,0,0,120.52,119.11Z"/><circle class="cls-21" cx="154.16" cy="107.79" r="3.77"/><circle class="cls-2" cx="152.77" cy="106.97" r="1.27"/><path class="cls-22" d="M156.26,107.67a.81.81,0,0,0-1,.58,1.31,1.31,0,0,1-1,.93.79.79,0,0,0-.66.92.81.81,0,0,0,.93.67,2.92,2.92,0,0,0,.4-.1,2.85,2.85,0,0,0,1.9-2A.81.81,0,0,0,156.26,107.67Z"/><path class="cls-23" d="M133.69,115.07s2,4.67,8,2.91"/><polyline class="cls-23" points="112.8 116.72 122.19 113.75 121.42 112.3"/><line class="cls-23" x1="148.92" y1="101.48" x2="154.16" y2="99.5"/><path class="cls-24" d="M138.67,84.05,166,85.46s-19.15,22.78-51.29,20.24c-31.58-2.49-42.58,2.53-45.7,4.62A84.15,84.15,0,0,1,90.08,98.66l.37,1.82S129.7,96.2,138.67,84.05Z"/><path class="cls-25" d="M134.6,75.27a54.52,54.52,0,0,1,4.07,8.78c-9,12.15-48.22,16.43-48.22,16.43l-.37-1.82h0s0-.18-.11-.53c-.14-.69-.4-2-.67-3.77h.06s9.88-3.72,20.92-8.23C117,83.4,124,80.39,129.63,77.75,131.47,76.87,133.15,76,134.6,75.27Z"/><path class="cls-26" d="M96.66,84.39c.57,0,1,.78,1,1.73s-.46,1.74-1,1.74-1-.77-1-1.74S96.09,84.39,96.66,84.39Z"/><path class="cls-24" d="M96.66,84.39c-.57,0-1,.78-1,1.73s.46,1.74,1,1.74,1-.77,1-1.74S97.23,84.39,96.66,84.39ZM93.2,86.12c1,0,1.84-1.54,1.84-3.47s-.83-3.47-1.84-3.47-1.86,1.56-1.86,3.47S92.18,86.12,93.2,86.12Zm36.43-8.37C124,80.39,117,83.4,110.29,86.12c-11,4.51-20.92,8.23-20.92,8.23h-.06c-.72-4.72-1.52-12.35-.18-17.7.31-1.24.81-3.12,4.14-3,3.66.15,9.68-.17,13.9-4.57s9.87-11.82,15-8.19c5.65,4,9.73,9.64,12.41,14.36C133.15,76,131.47,76.87,129.63,77.75Z"/><path class="cls-26" d="M95,82.65c0,1.93-.83,3.47-1.84,3.47s-1.86-1.54-1.86-3.47.84-3.47,1.86-3.47S95,80.74,95,82.65Z"/><path class="cls-24" d="M68.81,110.42c-.51.41-.81.67-.89.74A4.66,4.66,0,0,1,68.81,110.42Z"/><path class="cls-24" d="M67.92,111.16h0Z"/><path class="cls-27" d="M69,110.32A84.15,84.15,0,0,1,90.08,98.66h0s0-.18-.11-.53c-.14-.69-.4-2-.67-3.77-.72-4.72-1.52-12.35-.18-17.7.31-1.24.81-3.12,4.14-3,3.66.15,9.68-.17,13.9-4.57s9.87-11.82,15-8.19c5.65,4,9.73,9.64,12.41,14.36a54.52,54.52,0,0,1,4.07,8.78L166,85.46s-19.15,22.78-51.29,20.24c-31.58-2.49-42.58,2.53-45.7,4.62"/><path class="cls-27" d="M67.9,111.18h0c.08-.07.38-.33.89-.74"/><path class="cls-27" d="M68.81,110.42a4.66,4.66,0,0,0-.89.74h0"/><path class="cls-27" d="M68.81,110.42l.09,0,.06-.05"/><path class="cls-27" d="M89.37,94.35s9.88-3.72,20.92-8.23C117,83.4,124,80.39,129.63,77.75c1.84-.88,3.52-1.71,5-2.48"/><path class="cls-27" d="M138.67,84.05c-9,12.15-48.22,16.43-48.22,16.43l-.37-1.82-.1-.53,0-.16"/><path class="cls-27" d="M113.94,70.06s0,11.18-3.65,16.06"/><path class="cls-27" d="M120.38,68.19s3.86,8.3,9.25,9.56"/><path class="cls-28" d="M168.42,112.3s-31,78-77.07,50.22l.36,3.68s42.89,33.16,77.82-50.74Z"/><polygon class="cls-27" points="90.8 182.61 88.69 189.74 101.27 192.99 105.14 191.76 111.13 170.38 108.42 168.12 96.17 165.8 90.8 182.61"/><polygon class="cls-29" points="90.8 182.61 88.69 189.74 101.27 192.99 105.14 191.76 111.13 170.38 108.42 168.12 95.82 166.2 90.8 182.61"/><path class="cls-30" d="M108.42,168.12s-5.24,14.72-7.18,25.22l3.91-1.58,6-21.38Z"/><polygon class="cls-27" points="90.8 182.61 88.69 189.74 101.27 192.99 105.14 191.76 111.13 170.38 108.42 168.12 95.82 166.2 90.8 182.61"/><path class="cls-29" d="M106.91,170.64s-5.86,9.06-7.48,17.47a80.11,80.11,0,0,1-12.68-3,89.61,89.61,0,0,1,8.94-18.19"/><path class="cls-31" d="M107.31,170.9a68.81,68.81,0,0,0-4.29,8.43,43,43,0,0,0-2.8,8.93.8.8,0,0,1-.9.65c-2.2-.32-4.34-.74-6.48-1.24s-4.25-1.09-6.34-1.77h0a.79.79,0,0,1-.51-1h0a92.46,92.46,0,0,1,4-9.45,77.05,77.05,0,0,1,5-8.93.82.82,0,0,1,1.13-.22.8.8,0,0,1,.22,1.12h0a74.79,74.79,0,0,0-4.94,8.73,93.57,93.57,0,0,0-3.9,9.26l-.51-1q3,1,6.2,1.73c2.09.49,4.22.91,6.32,1.21l-.9.65a44.52,44.52,0,0,1,3.21-9.15,70.62,70.62,0,0,1,4.67-8.42.47.47,0,0,1,.65-.14.48.48,0,0,1,.15.65Z"/><path class="cls-15" d="M125.88,152.69s13.44,21.59,1.59,42.24c0,0-19.54-6.69-12.53-36.37"/><path class="cls-16" d="M126.39,152.37a49.46,49.46,0,0,1,4.51,10.25,48.33,48.33,0,0,1,2.13,11c0,.93.15,1.87.13,2.81l-.08,2.82c0,.94-.2,1.87-.3,2.81l-.18,1.4-.31,1.38c-.22.92-.41,1.85-.66,2.76l-.94,2.67c-.16.44-.29.9-.49,1.33l-.62,1.27-1.25,2.55a.92.92,0,0,1-1.19.45,22,22,0,0,1-8.64-6.66,25.93,25.93,0,0,1-4.74-9.67l-.6-2.62-.29-2.67c-.05-.45-.1-.89-.14-1.34v-4c.13-1.76.34-3.53.54-5.29l1-5.2a.64.64,0,0,1,.75-.5.65.65,0,0,1,.51.74v0l-.94,5.11c-.16,1.72-.33,3.43-.43,5.15l0,2.58,0,1.28c0,.43.1.85.15,1.28l.32,2.54.61,2.48a24.18,24.18,0,0,0,4.57,8.94l.82,1c.28.3.6.58.89.88a19.79,19.79,0,0,0,1.91,1.63,18.28,18.28,0,0,0,4.26,2.44l-1.19.45,1.22-2.4.61-1.19c.2-.41.33-.84.49-1.26l.94-2.52c.25-.86.45-1.74.67-2.61l.32-1.31.19-1.33c.11-.9.3-1.78.34-2.68l.12-2.7c0-.91-.05-1.81-.07-2.71A47,47,0,0,0,129.55,163a48.78,48.78,0,0,0-4.19-10l0,0a.62.62,0,0,1,.23-.83A.6.6,0,0,1,126.39,152.37Z"/><rect class="cls-32" x="187.95" y="72.52" width="18.71" height="13.47"/><rect class="cls-32" x="186.58" y="85.99" width="21.45" height="52.68"/><rect class="cls-32" x="184.79" y="138.67" width="25.03" height="33.13"/><rect class="cls-33" x="187.95" y="72.52" width="18.71" height="1.55"/><rect class="cls-33" x="186.58" y="85.99" width="21.45" height="1.55"/><rect class="cls-33" x="184.79" y="138.67" width="25.03" height="1.55"/><rect class="cls-34" x="184.91" y="146.78" width="8.22" height="25.03"/><rect class="cls-34" x="201.6" y="146.78" width="8.22" height="25.03"/><rect class="cls-32" x="180.32" y="151.67" width="4.59" height="20.14"/><rect class="cls-33" x="180.32" y="151.67" width="4.59" height="1.55"/><rect class="cls-32" x="209.7" y="151.67" width="4.59" height="20.14"/><rect class="cls-33" x="209.7" y="151.67" width="4.59" height="1.55"/><rect class="cls-32" x="174.05" y="171.81" width="46.51" height="8.7"/><rect class="cls-33" x="174.05" y="171.81" width="46.51" height="1.55"/><rect class="cls-32" x="189.2" y="66.39" width="16.21" height="6.14"/><rect class="cls-33" x="190.4" y="61.98" width="13.83" height="4.41"/><rect class="cls-32" x="193.4" y="59.89" width="7.83" height="2.09"/><rect class="cls-33" x="194.67" y="56.57" width="5.28" height="3.32"/><rect class="cls-32" x="195.16" y="54.39" width="4.29" height="2.19"/><rect class="cls-33" x="195.52" y="45.57" width="3.58" height="8.82"/><rect class="cls-32" x="196.11" y="41.97" width="2.4" height="3.6"/><polygon class="cls-33" points="198.51 41.97 196.11 41.97 196.82 40.66 197.8 40.66 198.51 41.97"/><rect class="cls-33" x="197.01" y="34.79" width="0.59" height="5.92"/><rect class="cls-35" x="189.04" y="74.55" width="1.86" height="10.43"/><rect class="cls-35" x="191.97" y="74.55" width="1.86" height="10.43"/><rect class="cls-35" x="194.89" y="74.55" width="1.86" height="10.43"/><rect class="cls-35" x="197.82" y="74.55" width="1.86" height="10.43"/><rect class="cls-35" x="200.74" y="74.55" width="1.86" height="10.43"/><rect class="cls-35" x="203.67" y="74.55" width="1.86" height="10.43"/><rect class="cls-35" x="187.59" y="88.2" width="1.67" height="20.44"/><rect class="cls-35" x="189.81" y="88.2" width="1.67" height="20.44"/><rect class="cls-35" x="192.04" y="88.2" width="1.67" height="20.44"/><rect class="cls-35" x="194.33" y="88.2" width="1.67" height="20.44"/><rect class="cls-35" x="196.56" y="88.2" width="1.67" height="20.44"/><rect class="cls-35" x="198.78" y="88.2" width="1.67" height="20.44"/><rect class="cls-35" x="201.08" y="88.2" width="1.67" height="20.44"/><rect class="cls-35" x="203.3" y="88.2" width="1.67" height="20.44"/><rect class="cls-35" x="205.53" y="88.2" width="1.67" height="20.44"/><rect class="cls-35" x="187.59" y="110.41" width="1.67" height="27.39"/><rect class="cls-35" x="189.81" y="110.41" width="1.67" height="27.39"/><rect class="cls-35" x="192.04" y="110.41" width="1.67" height="27.39"/><rect class="cls-35" x="194.33" y="110.41" width="1.67" height="27.39"/><rect class="cls-35" x="196.56" y="110.41" width="1.67" height="27.39"/><rect class="cls-35" x="198.78" y="110.41" width="1.67" height="27.39"/><rect class="cls-35" x="201.08" y="110.41" width="1.67" height="27.39"/><rect class="cls-35" x="203.3" y="110.41" width="1.67" height="27.39"/><rect class="cls-35" x="205.53" y="110.41" width="1.67" height="27.39"/><rect class="cls-35" x="189.95" y="69.66" width="1.59" height="2.86"/><rect class="cls-35" x="192.54" y="69.66" width="1.59" height="2.86"/><rect class="cls-35" x="200.32" y="69.66" width="1.59" height="2.86"/><rect class="cls-35" x="202.91" y="69.66" width="1.59" height="2.86"/><rect class="cls-35" x="194.93" y="66.95" width="1.91" height="5.57"/><rect class="cls-35" x="197.61" y="66.95" width="1.91" height="5.57"/><rect class="cls-36" x="196.6" y="46.24" width="1.37" height="7.27"/><rect class="cls-35" x="186.4" y="141.61" width="1.31" height="3.97"/><rect class="cls-35" x="188.79" y="141.61" width="1.31" height="3.97"/><rect class="cls-35" x="191.18" y="141.61" width="1.31" height="3.97"/><rect class="cls-32" x="185.98" y="147.92" width="1.31" height="22.75"/><rect class="cls-32" x="188.37" y="147.92" width="1.31" height="22.75"/><rect class="cls-32" x="190.76" y="147.92" width="1.31" height="22.75"/><rect class="cls-32" x="202.66" y="147.92" width="1.31" height="22.75"/><rect class="cls-32" x="205.06" y="147.92" width="1.31" height="22.75"/><rect class="cls-32" x="207.45" y="147.92" width="1.31" height="22.75"/><rect class="cls-35" x="194.34" y="141.61" width="1.31" height="29.05"/><rect class="cls-35" x="196.74" y="141.61" width="1.31" height="29.05"/><rect class="cls-35" x="199.13" y="141.61" width="1.31" height="29.05"/><rect class="cls-35" x="202.29" y="141.61" width="1.31" height="3.97"/><rect class="cls-35" x="204.68" y="141.61" width="1.31" height="3.97"/><rect class="cls-35" x="207.07" y="141.61" width="1.31" height="3.97"/><rect class="cls-35" x="181.96" y="154.88" width="1.31" height="15.78"/><rect class="cls-35" x="175.82" y="174.36" width="1.31" height="2.63"/><rect class="cls-35" x="178.43" y="174.36" width="1.31" height="2.63"/><rect class="cls-35" x="181.03" y="174.36" width="1.31" height="2.63"/><rect class="cls-35" x="183.63" y="174.36" width="1.31" height="2.63"/><rect class="cls-35" x="186.23" y="174.36" width="1.31" height="2.63"/><rect class="cls-35" x="188.84" y="174.36" width="1.31" height="2.63"/><rect class="cls-35" x="191.44" y="174.36" width="1.31" height="2.63"/><rect class="cls-35" x="194.04" y="174.36" width="1.31" height="2.63"/><rect class="cls-35" x="196.64" y="174.36" width="1.31" height="2.63"/><rect class="cls-35" x="199.25" y="174.36" width="1.31" height="2.63"/><rect class="cls-35" x="201.85" y="174.36" width="1.31" height="2.63"/><rect class="cls-35" x="204.45" y="174.36" width="1.31" height="2.63"/><rect class="cls-35" x="207.05" y="174.36" width="1.31" height="2.63"/><rect class="cls-35" x="209.65" y="174.36" width="1.31" height="2.63"/><rect class="cls-35" x="212.26" y="174.36" width="1.31" height="2.63"/><rect class="cls-35" x="214.86" y="174.36" width="1.31" height="2.63"/><rect class="cls-35" x="217.46" y="174.36" width="1.31" height="2.63"/><rect class="cls-35" x="175.82" y="178.42" width="1.31" height="2.09"/><rect class="cls-35" x="178.43" y="178.42" width="1.31" height="2.09"/><rect class="cls-35" x="181.03" y="178.42" width="1.31" height="2.09"/><rect class="cls-35" x="183.63" y="178.42" width="1.31" height="2.09"/><rect class="cls-35" x="186.23" y="178.42" width="1.31" height="2.09"/><rect class="cls-35" x="188.84" y="178.42" width="1.31" height="2.09"/><rect class="cls-35" x="191.44" y="178.42" width="1.31" height="2.09"/><rect class="cls-35" x="194.04" y="178.42" width="1.31" height="2.09"/><rect class="cls-35" x="196.64" y="178.42" width="1.31" height="2.09"/><rect class="cls-35" x="199.25" y="178.42" width="1.31" height="2.09"/><rect class="cls-35" x="201.85" y="178.42" width="1.31" height="2.09"/><rect class="cls-35" x="204.45" y="178.42" width="1.31" height="2.09"/><rect class="cls-35" x="207.05" y="178.42" width="1.31" height="2.09"/><rect class="cls-35" x="209.65" y="178.42" width="1.31" height="2.09"/><rect class="cls-35" x="212.26" y="178.42" width="1.31" height="2.09"/><rect class="cls-35" x="214.86" y="178.42" width="1.31" height="2.09"/><rect class="cls-35" x="217.46" y="178.42" width="1.31" height="2.09"/><rect class="cls-35" x="211.34" y="154.88" width="1.31" height="15.78"/><polygon class="cls-2" points="179.32 208.66 178.1 205.32 177.22 205.32 175.97 208.65 174.78 205.32 173.78 205.32 175.44 209.83 176.46 209.83 177.64 206.72 178.8 209.83 179.82 209.83 181.48 205.32 180.54 205.32 179.32 208.66"/><path class="cls-2" d="M185.22,205.56a2.32,2.32,0,0,0-1.18-.29,2.53,2.53,0,0,0-1.2.29,2.2,2.2,0,0,0-.83.83,2.33,2.33,0,0,0-.3,1.18,2.28,2.28,0,0,0,.31,1.2,2,2,0,0,0,.87.82,2.78,2.78,0,0,0,1.31.3,2.69,2.69,0,0,0,1.05-.19,1.85,1.85,0,0,0,.77-.55l-.57-.65a1.63,1.63,0,0,1-1.22.49,1.56,1.56,0,0,1-1-.29,1.27,1.27,0,0,1-.49-.79h3.54a2,2,0,0,0,0-.31,2.53,2.53,0,0,0-.29-1.22A2.06,2.06,0,0,0,185.22,205.56Zm-2.46,1.65a1.24,1.24,0,0,1,1.28-1.1,1.23,1.23,0,0,1,.86.31,1.25,1.25,0,0,1,.42.79Z"/><path class="cls-2" d="M191,205.55a2.38,2.38,0,0,0-1.17-.28,2.09,2.09,0,0,0-.81.15,1.69,1.69,0,0,0-.64.45v-2.31h-1v6.27h1v-.58a1.65,1.65,0,0,0,.65.48,2.3,2.3,0,0,0,.85.16,2.39,2.39,0,0,0,1.17-.29,2.06,2.06,0,0,0,.82-.81,2.45,2.45,0,0,0,.29-1.22,2.37,2.37,0,0,0-.29-1.2A2.15,2.15,0,0,0,191,205.55Zm-.33,3a1.27,1.27,0,0,1-1,.38,1.33,1.33,0,0,1-.69-.17,1.26,1.26,0,0,1-.48-.49,1.51,1.51,0,0,1-.18-.75,1.47,1.47,0,0,1,.18-.74,1.26,1.26,0,0,1,.48-.49,1.34,1.34,0,0,1,.69-.18,1.27,1.27,0,0,1,1,.39,1.6,1.6,0,0,1,0,2Z"/><path class="cls-2" d="M195.69,205.27a2.35,2.35,0,0,0-.86.15,1.66,1.66,0,0,0-.64.42v-2.28h-1.06v6.27h1.06v-2.28a1.41,1.41,0,0,1,.33-1,1.26,1.26,0,0,1,.93-.35,1,1,0,0,1,.79.3,1.3,1.3,0,0,1,.28.89v2.45h1v-2.59a2,2,0,0,0-.51-1.47A1.87,1.87,0,0,0,195.69,205.27Z"/><rect class="cls-2" x="198.92" y="205.32" width="1.06" height="4.51"/><path class="cls-2" d="M199.45,203.31a.68.68,0,0,0-.48.18.61.61,0,0,0,0,.9.69.69,0,0,0,.48.19.63.63,0,0,0,.48-.2.6.6,0,0,0,.19-.46.56.56,0,0,0-.19-.44A.72.72,0,0,0,199.45,203.31Z"/><path class="cls-2" d="M203.92,205.27a2.33,2.33,0,0,0-.9.16,1.74,1.74,0,0,0-.66.47v-.58h-1v4.51h1v-2.28a1.42,1.42,0,0,1,.34-1,1.24,1.24,0,0,1,.92-.35,1,1,0,0,1,.8.3,1.3,1.3,0,0,1,.27.89v2.45h1.06v-2.59a2,2,0,0,0-.51-1.47A1.87,1.87,0,0,0,203.92,205.27Z"/><path class="cls-2" d="M209,209a.61.61,0,0,1-.47-.18.73.73,0,0,1-.16-.5V206.2h1.21v-.85h-1.21v-1h-1.05v1h-.75v.85h.75v2.17a1.5,1.5,0,0,0,.4,1.13,1.6,1.6,0,0,0,1.15.39,2,2,0,0,0,.56-.08,1.17,1.17,0,0,0,.46-.23l-.3-.75A.89.89,0,0,1,209,209Z"/><path class="cls-2" d="M211.15,208.49a.69.69,0,0,0-.5.19.69.69,0,0,0-.19.51.65.65,0,0,0,.2.5.68.68,0,0,0,.49.2.7.7,0,0,0,.49-.2.69.69,0,0,0,.2-.5.69.69,0,0,0-.2-.51A.66.66,0,0,0,211.15,208.49Z"/><path class="cls-2" d="M213.4,203.31a.68.68,0,0,0-.48.18.63.63,0,0,0,0,.9.69.69,0,0,0,.48.19.66.66,0,0,0,.49-.2.6.6,0,0,0,.19-.46.57.57,0,0,0-.2-.44A.7.7,0,0,0,213.4,203.31Z"/><rect class="cls-2" x="212.87" y="205.32" width="1.06" height="4.51"/><path class="cls-2" d="M219.44,206.38a2.19,2.19,0,0,0-.86-.82,2.67,2.67,0,0,0-1.24-.29,2.6,2.6,0,0,0-1.23.29,2.13,2.13,0,0,0-.86.82,2.46,2.46,0,0,0,0,2.39,2.06,2.06,0,0,0,.86.82,2.49,2.49,0,0,0,1.23.3,2.56,2.56,0,0,0,1.24-.3,2.12,2.12,0,0,0,.86-.82,2.46,2.46,0,0,0,0-2.39Zm-1.14,2.22a1.4,1.4,0,0,1-1.92,0,1.57,1.57,0,0,1,0-2,1.38,1.38,0,0,1,1.92,0,1.57,1.57,0,0,1,0,2Z"/><polygon class="cls-37" points="168.69 183.76 168.69 174.46 176.95 174.46 176.95 177.78 194.51 177.78 194.51 167.46 215.98 167.46 215.98 170.77 221.25 170.77 221.25 159.39 228.25 159.39 228.25 183.76 168.69 183.76"/></svg>