<svg id="sticker" xmlns="http://www.w3.org/2000/svg" xmlns:xlink="http://www.w3.org/1999/xlink" viewBox="0 0 252 252"><defs><style>.cls-1,.cls-10,.cls-11,.cls-12,.cls-19,.cls-20,.cls-28,.cls-30,.cls-31,.cls-37{fill:none;}.cls-2{fill:#fff;}.cls-3{fill:url(#linear-gradient);}.cls-4{clip-path:url(#clip-path);}.cls-5{fill:url(#radial-gradient);}.cls-6{fill:url(#linear-gradient-2);}.cls-7{fill:#0da9f7;fill-opacity:0.54;}.cls-8{clip-path:url(#clip-path-2);}.cls-9{opacity:0.8;}.cls-10,.cls-11,.cls-12{stroke:#c13d8b;}.cls-10,.cls-11,.cls-12,.cls-19,.cls-37{stroke-miterlimit:10;}.cls-10{stroke-width:3.43px;}.cls-11{stroke-width:1.72px;}.cls-12{stroke-width:1.98px;}.cls-13{fill:#c13d8b;}.cls-14{opacity:0.3;}.cls-15{clip-path:url(#clip-path-3);}.cls-16{fill:#536596;}.cls-17{fill:#455487;}.cls-18{fill:#799adb;}.cls-19{stroke:#a0bcea;opacity:0.41;}.cls-19,.cls-20,.cls-28,.cls-29,.cls-30,.cls-31,.cls-37{stroke-width:1.32px;}.cls-20{stroke:#2f4b6d;}.cls-20,.cls-28,.cls-29,.cls-30,.cls-31{stroke-linecap:round;stroke-linejoin:round;}.cls-21{opacity:0.47;}.cls-22{fill:#346fb7;opacity:0.5;}.cls-23{fill:#233460;}.cls-24{fill:#96a3e2;}.cls-25{clip-path:url(#clip-path-4);}.cls-26{fill:#bbc6ef;}.cls-27{fill:#6b7fc6;}.cls-28{stroke:#1c418c;}.cls-29{fill:#cae8ef;}.cls-29,.cls-31{stroke:#4b8087;}.cls-30{stroke:#82bbc4;}.cls-32{fill:#060b1c;}.cls-33{fill:#2b5599;}.cls-34{fill:#3d506b;}.cls-35{fill:#a6b3d1;}.cls-36{fill:#697b9e;}.cls-37{stroke:#3d506b;}.cls-38{fill:#4700a3;}.cls-39{fill:#1c418c;}.cls-40{fill:#92b4ea;}</style><linearGradient id="linear-gradient" x1="126" y1="173.19" x2="126" y2="26.43" gradientUnits="userSpaceOnUse"><stop offset="0" stop-color="#f78e48"/><stop offset="1" stop-color="#f754d4"/></linearGradient><clipPath id="clip-path"><circle class="cls-1" cx="126" cy="126" r="99.67"/></clipPath><radialGradient id="radial-gradient" cx="205.13" cy="150.85" r="44.83" gradientUnits="userSpaceOnUse"><stop offset="0" stop-color="#ffdb80"/><stop offset="0.97" stop-color="#ffdb80" stop-opacity="0"/></radialGradient><linearGradient id="linear-gradient-2" x1="126.12" y1="161.52" x2="126.12" y2="238.38" xlink:href="#linear-gradient"/><clipPath id="clip-path-2"><rect class="cls-1" x="7.75" y="44.85" width="241.6" height="113.29"/></clipPath><clipPath id="clip-path-3"><rect class="cls-1" x="7.7" y="158.09" width="241.6" height="113.29"/></clipPath><clipPath id="clip-path-4"><path class="cls-1" d="M168.6,156.56S181.85,101,137.31,98.28c-36.25-2.24-40.44,35.28-40,50.56.11,3.5.09,12.59-5.92,13.45S81.36,155,81.36,155s10.73-13.9-3.78-24.12c0,0-10.35,10.62-5,18.26,0,0-9.46-2.85-15.56,8.5,0,0,9.43,9.55,20.33,1.57,0,0,6.28,22.57,40.81,22.57S168.6,156.56,168.6,156.56Z"/></clipPath></defs><title>webhint_sticker_3</title><circle class="cls-2" cx="126" cy="126" r="107.42"/><circle class="cls-3" cx="126" cy="126" r="99.67"/><g class="cls-4"><circle class="cls-5" cx="205.13" cy="150.85" r="44.83"/><rect class="cls-6" x="23.11" y="158.16" width="206.02" height="81.49"/><rect class="cls-7" x="23.11" y="158.16" width="206.02" height="81.49"/><g class="cls-8"><g class="cls-9"><path class="cls-10" d="M20.63,141.58s38-15.35,36.35-55.67S41.68,80.15,45.43,92c3.82,12,32.23,30.21,50.75,7.82C124.73,65.3,134,66.55,129.71,87.67,126.22,105,119,135.36,68.14,150.52c-36.2,10.8-10.31-25.17-5.92-32,5-7.85,25.56-47.5-34.86-17.55"/><polyline class="cls-11" points="83.21 160.24 83.21 109.72 112.12 134.98"/><line class="cls-11" x1="110.61" y1="161.99" x2="110.61" y2="83.69"/><line class="cls-12" x1="53.99" y1="107.59" x2="53.99" y2="167.17"/><polyline class="cls-12" points="35.6 169.75 35.6 134.54 53.99 163.97"/><line class="cls-11" x1="143.2" y1="163.97" x2="111.4" y2="82.91"/><line class="cls-11" x1="40.07" y1="95.15" x2="40.07" y2="163"/><path class="cls-13" d="M48.23,115.59l.3-.49L46.65,114l.45-.76c.15-.25.29-.52.44-.78l1.92,1.07.28-.5-1.93-1.06c.28-.51.56-1,.84-1.57l2,1,.25-.51-2-1,.06,0,.32-.66.57-1.19,2,.9.23-.52-2-.9c.12-.27.25-.54.36-.82l.34-.81,2,.82.21-.53-2-.82L51,105l.5-1.38,2.06.74.2-.54-2.08-.74c.25-.64.45-1.3.64-2l2.11.64.17-.55-2.11-.64c.08-.28.17-.56.26-.84l.24-.86,2.12.56.14-.55-2.12-.56c.06-.26.13-.52.19-.78s.15-.63.23-.94l2.15.47.12-.56-2.3-.5.15,0,.2-1,.18-1,2.17.38.1-.56-2.17-.38c.06-.3.11-.58.17-.88s.07-.58.11-.87l2.17.29.08-.56-2.17-.3c.07-.58.15-1.17.22-1.76l2.18.22.06-.57-2.37-.23h.16c0-.42.06-.83.1-1.25,0-.22,0-.46.05-.69l.51-.08.31,0L56.1,89l.56-.09-.31-2,.81,0,0-.34.91-.12.2,2.18.57-.05-.2-2.2c.63,0,1.34-.08,2.08-.08l0,2.2h.58V86.33c.59,0,1.2,0,1.82.12l-.28,2.17.57.07.28-2.17a13.27,13.27,0,0,1,1.83.39L64.88,89l.55.17.81-2.63L66,86.44a20.18,20.18,0,0,0-7.36-.61l0,.4,0-.38-.29,0c-.94.08-1.91.22-2.89.38l-.43,0c0-.3,0-.59,0-.89s0-.59,0-.88l2.19,0v-.57l-2.19,0,0-1.78,2.19,0v-.57l-2.37,0h.15c0-.42,0-.84,0-1.26,0-.26,0-.53,0-.8l2.21-.11,0-.58-2.2.12c0-.3,0-.59,0-.89l-.08-.88L57,77,57,76.39l-2.19.19-.16-1.77,2.18-.26L56.74,74,54,74.31l.34,3.76c0,.75.07,1.5.1,2.24,0,.42,0,.84,0,1.26h0v.27c0,.75,0,1.5,0,2.24,0,.42,0,.84,0,1.26s0,.74-.06,1.11c-1,.19-2,.42-3.1.7h0l-.28.08a69.11,69.11,0,0,0-6.7,2.15h0l-.27.1c-2.13.81-4.3,1.73-6.45,2.74h0l-.26.13c-2.24,1.06-4.27,2.11-6.22,3.22v0l-.24.14A69.74,69.74,0,0,0,25,99.54l.33.46c.55-.39,1.12-.77,1.69-1.15l1.21,1.83.48-.32-1.21-1.83L29,97.59l1.15,1.87.48-.3-1.14-1.87c.49-.3,1-.6,1.5-.89l1.1,1.89.49-.28-1.1-1.91c.58-.34,1.18-.66,1.78-1l1,1.94.5-.27-1-1.93L35.29,94l1,2,.52-.26-1-2c.51-.25,1-.51,1.57-.76l.94,2,.51-.25-.94-2c.61-.29,1.23-.56,1.84-.84l.89,2,.53-.23-.89-2c.54-.24,1.07-.47,1.61-.69l.83,2,.53-.22-.83-2L44,90.14l.77,2,.54-.2-.78-2.06c.65-.24,1.29-.47,1.91-.68l.71,2.07.55-.18L47,89.05c.57-.19,1.13-.37,1.67-.53l.65,2.09.54-.17-.64-2.09,1.69-.49L51.48,90l.55-.15-.57-2.13c.68-.18,1.34-.33,2-.47l.46,2.14.3-.06c-.08.66-.17,1.32-.25,2-.06.42-.12.84-.17,1.25-.14.81-.29,1.61-.44,2.41l-.2,1h0l-.07.26-.3,1.22c-.17.71-.34,1.45-.56,2.15-.12.37-.23.75-.34,1.12-.22.73-.44,1.48-.72,2.19l.15.06-.13,0-.69,1.9-.68,1.62c-.34.84-.75,1.68-1.14,2.49l-.32.66,0,0-.13.24c-.55,1.07-1.11,2.1-1.66,3.06l-.47.78c-.44.72-.88,1.47-1.37,2.17l.09.06-.08-.05-.16.24a58.14,58.14,0,0,1-4.18,5.57h0l-.18.22A62.39,62.39,0,0,1,35.48,127l0,0-.21.19A65.8,65.8,0,0,1,30,131.7v0l-.22.17c-.89.67-1.85,1.35-2.84,2s-2,1.3-2.92,1.78l.28.51c.54-.3,1.13-.64,1.74-1L27.19,137l.49-.31-1.18-1.86.74-.48.73-.5,1.26,1.8.47-.32-1.26-1.8,1.44-1,1.32,1.74.45-.34-1.33-1.76c.54-.41,1.08-.84,1.62-1.28l1.4,1.71.44-.36-1.4-1.71,1.35-1.15L35.19,131l.43-.38L34.16,129q.66-.58,1.32-1.2l1.5,1.59.42-.39-1.52-1.6L37.35,126l1.57,1.53.4-.41-1.57-1.53L39,124.26l1.62,1.47.38-.42-1.62-1.47c.41-.45.8-.89,1.18-1.34l1.66,1.42.38-.44-1.69-1.42c.45-.54.88-1.07,1.3-1.6l1.74,1.35.35-.45L42.53,120c.37-.48.72-1,1.07-1.42l1.78,1.29.33-.47-1.77-1.28c.34-.48.68-1,1-1.45l1.83,1.21.31-.48-1.84-1.22c.4-.57.76-1.15,1.11-1.73ZM54.37,87c0,.18,0,.35,0,.53l-.06.74L54,87.11Z"/><path class="cls-13" d="M68.1,88l-1.21,1.82.48.32,1.2-1.83a6.92,6.92,0,0,1,.78.63,6.64,6.64,0,0,1,.68.72L68.31,91l.36.45,1.71-1.34a8.29,8.29,0,0,1,1,1.73l-2,.75.2.54,2.58-1L72,91.92a8.5,8.5,0,0,0-2.24-3.4,9.7,9.7,0,0,0-3.45-2l-.19.55A9.76,9.76,0,0,1,68.1,88Z"/><path class="cls-13" d="M72,94.55l-2.17.19.05.57,2.18-.19c0,.3,0,.61,0,.93s0,.61,0,.92l-2.18-.15,0,.57,2.18.15c0,.55-.13,1.14-.23,1.8L69.64,99l-.11.56,2.18.39c-.14.66-.3,1.34-.49,2l-2.11-.58-.15.56,2.11.57c-.16.55-.33,1.12-.52,1.7l-2.07-.7-.18.54,2.07.7c-.19.54-.39,1.09-.61,1.66l-2-.8-.21.54,2.06.8c-.25.63-.52,1.25-.79,1.88l-2-.88-.23.52,2,.88c-.23.53-.48,1.06-.73,1.6l-2-1-.25.52,2,.94L66.78,113l-2-1-.26.51,2,1c-.31.59-.64,1.19-1,1.78l-1.92-1-.28.51,1.93,1-.85,1.52-1.9-1.08-.29.5,1.9,1.08-.86,1.51-1.89-1.11-.29.49,1.9,1.12-1,1.73-1.88-1.15-.3.49,1.88,1.15c-.32.5-.62,1-.93,1.47l-1.85-1.17-.3.49L60.46,124l-.94,1.47-1.84-1.19-.31.48,1.85,1.2-1.11,1.68-1.83-1.22-.32.48,1.83,1.22-1,1.43L55,128.33l-.32.47L56.49,130l-1,1.43-1.8-1.25-.33.47,2.27,1.57.16-.23c1.44-2.06,2.71-3.95,3.89-5.75v0l.15-.23c1.11-1.72,2.42-3.76,3.69-5.9h0l.14-.24c1.2-2,2.34-4.06,3.4-6.11h0l.13-.25c1.14-2.2,2.1-4.28,2.94-6.38h0l.11-.27A41,41,0,0,0,72.27,100l-.5-.1.48.09,0-.29A21.14,21.14,0,0,0,72.66,96a13.07,13.07,0,0,0-.56-3.82l-.55.17A10.2,10.2,0,0,1,72,94.55Z"/><path class="cls-13" d="M103.35,86.83c-.79,1-1.55,2-2.26,2.93-.33.44-.66.9-1,1.35l-.11.15c-.35.5-.7,1-1.06,1.46l.3.23L99,92.74l-.17.22-.62.84a24.51,24.51,0,0,1-1.56,2l-.34.4c-.64.76-1.3,1.54-2,2.24l.22.23-.21-.21-.2.21a41.19,41.19,0,0,1-5.3,4.65h0l-.23.17a34.49,34.49,0,0,1-6.06,3.5v0l-.26.12a29.73,29.73,0,0,1-3.24,1.2l-.36.09c-.43.12-.87.25-1.32.33-.27.06-.54.12-.83.16s-.55.08-.77.1l.06.57c.22,0,.54,0,.81-.1l.85-.17.3-.06.52,2.14.56-.14-.53-2.14.51-.13.35-.1c.3-.09.58-.18.85-.28l.72,2.09.55-.19-.73-2.08c.6-.21,1.16-.43,1.67-.65l.88,2,.53-.23-.93-2.12,0,.09c.64-.29,1.26-.6,1.87-.92l1,2,.5-.27-1-2q.8-.43,1.56-.9l1.18,1.87.48-.31-1.17-1.86c.52-.32,1-.66,1.5-1l1.28,1.77.47-.34-1.44-2,.15.21c.59-.45,1.14-.88,1.65-1.3l1.41,1.71.44-.37-1.41-1.7c.49-.4.94-.8,1.37-1.18l1.49,1.6.42-.39L93,100.52c.46-.43.89-.85,1.3-1.28l1.56,1.52.4-.41-1.58-1.53c.5-.49,1-1,1.43-1.55l1.66,1.44.37-.43-1.66-1.44.25-.3.33-.39c.21-.23.4-.47.59-.71l1.73,1.37.36-.45L98,95l.64-.86.45-.61,1.77,1.29.34-.47L99.4,93.06c.33-.43.68-.91,1.07-1.47l.1-.15.09-.12,1.79,1.28.33-.46L101,90.86c.18-.26.36-.51.55-.76s.38-.5.57-.75l1.74,1.32.35-.46-1.75-1.32c.38-.49.76-1,1.16-1.48l1.71,1.36.35-.45-2.15-1.71Z"/><path class="cls-13" d="M108.36,81c-1.66,1.78-3.29,3.66-4.84,5.58l.44.36,1.38-1.67L107,86.69l.37-.44-1.68-1.41,1.23-1.42,1.64,1.45.38-.43L107.32,83c.42-.47.84-.93,1.27-1.39l1.6,1.49.39-.42-2-1.88Z"/><path class="cls-13" d="M113.89,75.61c-1.72,1.5-3.47,3.19-5.34,5.16l.42.39c.51-.54,1-1,1.51-1.55L112,81.16l.4-.41-1.55-1.55c.45-.45.9-.89,1.35-1.31l1.5,1.59.42-.39-1.51-1.59c.47-.44.94-.86,1.4-1.27l1.44,1.64.43-.37-1.82-2.08Z"/><path class="cls-13" d="M120.16,70.93a43.26,43.26,0,0,0-6.06,4.47l.38.43c.58-.5,1.13-1,1.68-1.39l1.36,1.72.45-.36-1.37-1.72q.78-.6,1.53-1.14l1.26,1.79.47-.32-1.26-1.79c.54-.38,1.08-.73,1.61-1.05l1.12,1.88.49-.3-1.41-2.37Z"/><path class="cls-13" d="M128.05,71.41l.45-2.72-.28,0a9,9,0,0,0-4.24.47,18.32,18.32,0,0,0-3.56,1.65l.28.49c.73-.41,1.38-.75,2-1l.88,2,.52-.22-.87-2c.31-.13.62-.25.93-.35s.67-.2,1-.28l.45,2.14.56-.12-.45-2.13a7.45,7.45,0,0,1,2.14-.09l-.36,2.14Z"/><path class="cls-13" d="M130.42,70.18l.33.28L129.17,72l.4.41,1.57-1.52a6.52,6.52,0,0,1,.65.9,10.66,10.66,0,0,1,.47,1l-2,.78.21.54,2-.79a12.19,12.19,0,0,1,.49,2l-2.16.35.09.56,2.73-.43-.05-.28a11.08,11.08,0,0,0-1.29-3.94,6.2,6.2,0,0,0-1.51-1.76,5.75,5.75,0,0,0-2.17-1l-.13.56A5.18,5.18,0,0,1,130.42,70.18Z"/><path class="cls-13" d="M133.64,75.74l-.57.08c.1.75.15,1.49.18,2.23l-2.2,0,0,.57,2.19,0q0,1,0,1.92L131,80.43l0,.57,2.19.11c0,.65-.1,1.29-.16,1.89l-2.17-.22-.06.57,2.74.28,0-.28A32.53,32.53,0,0,0,133.64,75.74Z"/><path class="cls-13" d="M132.72,85.74l-2.18-.32-.08.57,2.17.32c-.09.6-.19,1.22-.31,1.86l-2.16-.39-.1.56,2.16.39c-.11.59-.24,1.21-.37,1.84l-2.14-.44-.11.56,2.7.56.06-.28c.58-2.79,1-5.12,1.21-7.32l-.57-.06C132.92,84.29,132.83,85,132.72,85.74Z"/><path class="cls-13" d="M131.28,93.26l-2.14-.5-.13.56,2.14.49c-.14.6-.29,1.21-.44,1.82l-2.13-.53-.14.56,2.13.53c-.15.6-.31,1.2-.47,1.81L128,97.43l-.14.56,2.66.71.08-.28c.66-2.44,1.24-4.85,1.73-7.15l-.56-.12C131.6,91.84,131.45,92.54,131.28,93.26Z"/><path class="cls-13" d="M100.94,139.81l-1.06-1.93-.51.28,1.07,1.93-1.62.87-1-1.93-.51.28,1,1.92-1.63.87-1-1.94-.51.27,1.29,2.44.25-.13c2.43-1.28,4.46-2.38,6.39-3.48l-.28-.5Z"/><path class="cls-13" d="M94.29,143.35l-1-1.95-.51.26,1,2-1.64.83-1-2-.51.26,1,1.95-1.65.82-1-2-.52.25,1.21,2.48.26-.12c2.19-1.07,4.38-2.16,6.48-3.26l-.26-.51Z"/><path class="cls-13" d="M87.54,146.69l-.94-2-.52.24.94,2c-.56.27-1.12.52-1.67.77l-.91-2-.52.23.9,2c-.56.25-1.12.52-1.68.76l-.88-2-.52.23,1.11,2.52.26-.11c2.14-.94,4.36-2,6.6-3l-.25-.52Z"/><path class="cls-13" d="M80.66,149.79l-.85-2-.53.23.86,2-1.71.7-.82-2-.53.21.82,2-1.72.68-.79-2-.53.21,1,2.58.27-.11c2.09-.79,4.3-1.69,6.74-2.76l-.23-.52Z"/><path class="cls-13" d="M73.63,152.56l-.73-2.08-.54.2.73,2.06-1.75.6-.68-2.08-.55.18.68,2.08c-.6.19-1.19.38-1.77.55L68.4,152l-.55.16.78,2.65.28-.08c2.11-.62,4.38-1.38,6.93-2.34l-.2-.54Z"/><path class="cls-13" d="M66.39,154.81l-.53-2.13-.55.14.53,2.12c-.63.15-1.24.29-1.83.41l-.43-2.14-.56.11.43,2.14c-.63.12-1.25.23-1.86.32l-.29-2.17-.57.08.37,2.74.29,0a52.66,52.66,0,0,0,7.24-1.59l-.16-.55C67.76,154.46,67.07,154.64,66.39,154.81Z"/><path class="cls-13" d="M58.83,156.06l-.07-2.2-.57,0,.07,2.2h-1c-.34,0-.66,0-1-.06l.24-2.18-.57-.06-.24,2.17a11.5,11.5,0,0,1-2-.42l.72-2.06-.54-.19-.91,2.61.27.09a13,13,0,0,0,4,.68h.64a24.54,24.54,0,0,0,3.18-.22l-.07-.57C60.24,156,59.52,156,58.83,156.06Z"/><path class="cls-13" d="M51.12,154.1l1.5-1.59-.42-.39-1.49,1.59a5.57,5.57,0,0,1-.7-.84,8,8,0,0,1-.51-1l2-.81-.22-.54-2,.82a8.6,8.6,0,0,1-.44-2l2.18-.16,0-.57-2.75.2,0,.28a8.36,8.36,0,0,0,1.27,4.08A7.23,7.23,0,0,0,53,155.87l.19-.53A6.83,6.83,0,0,1,51.12,154.1Z"/></g><polygon class="cls-13" points="170.75 95.89 170.75 89.06 170.06 89.06 170.06 79.26 169.75 79.26 169.66 79.26 169.35 79.26 169.35 89.06 168.66 89.06 168.66 95.89 166.22 100.94 166.22 156.06 169.66 156.06 169.75 156.06 173.19 156.06 173.19 100.94 170.75 95.89"/><polygon class="cls-13" points="203.32 144.45 200.82 141.96 200.82 132.02 197.92 129.12 197.92 100.65 194.52 90.69 194.52 79.34 191.91 70.17 189.3 79.34 189.3 90.69 185.9 100.65 185.9 129.12 183 132.02 183 141.96 180.51 144.45 180.51 160.84 185.9 160.84 185.9 163.97 197.92 163.97 197.92 160.84 203.32 160.84 203.32 144.45"/><polygon class="cls-13" points="214.87 108.02 214.87 100.55 214.87 100.4 214.87 99.79 212.88 89.49 210.86 99.79 210.86 100.4 210.86 100.55 210.86 107.95 210.84 107.95 208.55 114.96 208.55 160.75 217.14 160.75 217.14 114.96 214.87 108.02"/><circle class="cls-13" cx="221.19" cy="150.97" r="5.68"/><circle class="cls-13" cx="205.74" cy="158.62" r="5.68"/><circle class="cls-13" cx="91.54" cy="153.18" r="3.85"/><circle class="cls-13" cx="87.06" cy="156.06" r="3.85"/><circle class="cls-13" cx="93.48" cy="158.14" r="3.85"/><circle class="cls-13" cx="43.54" cy="158.14" r="3.85"/><circle class="cls-13" cx="218.71" cy="154.5" r="5.68"/></g><g class="cls-14"><g class="cls-15"><g class="cls-9"><path class="cls-10" d="M20.58,174.65s38,15.35,36.35,55.67-15.3,5.76-11.55-6.06c3.82-12,32.23-30.21,50.75-7.82,28.55,34.49,37.78,33.24,33.53,12.12-3.49-17.36-10.75-47.69-61.57-62.85-36.2-10.8-10.31,25.17-5.92,32,5,7.85,25.56,47.5-34.86,17.55"/><polyline class="cls-11" points="83.16 155.99 83.16 206.51 112.07 181.25"/><line class="cls-11" x1="110.56" y1="154.24" x2="110.56" y2="232.54"/><line class="cls-12" x1="53.94" y1="208.64" x2="53.94" y2="149.06"/><polyline class="cls-12" points="35.55 146.48 35.55 181.69 53.94 152.26"/><line class="cls-11" x1="143.15" y1="152.26" x2="111.35" y2="233.32"/><line class="cls-11" x1="40.02" y1="221.08" x2="40.02" y2="153.23"/></g><polygon class="cls-13" points="170.71 220.34 170.71 227.17 170.01 227.17 170.01 236.97 169.7 236.97 169.61 236.97 169.3 236.97 169.3 227.17 168.61 227.17 168.61 220.34 166.17 215.29 166.17 160.17 169.61 160.17 169.7 160.17 173.14 160.17 173.14 215.29 170.71 220.34"/><polygon class="cls-13" points="203.27 171.78 200.77 174.27 200.77 184.21 197.87 187.11 197.87 215.58 194.47 225.54 194.47 236.89 191.86 246.06 189.25 236.89 189.25 225.54 185.85 215.58 185.85 187.11 182.95 184.21 182.95 174.27 180.46 171.78 180.46 155.38 185.85 155.38 185.85 152.26 197.87 152.26 197.87 155.38 203.27 155.38 203.27 171.78"/><polygon class="cls-13" points="214.82 208.21 214.82 215.68 214.82 215.83 214.82 216.44 212.84 226.74 210.81 216.44 210.81 215.83 210.81 215.68 210.81 208.28 210.79 208.28 208.5 201.27 208.5 155.48 217.09 155.48 217.09 201.27 214.82 208.21"/><circle class="cls-13" cx="221.14" cy="165.26" r="5.68"/><circle class="cls-13" cx="205.69" cy="157.61" r="5.68"/><circle class="cls-13" cx="91.49" cy="163.05" r="3.85"/><circle class="cls-13" cx="87.01" cy="160.17" r="3.85"/><circle class="cls-13" cx="93.43" cy="158.09" r="3.85"/><circle class="cls-13" cx="43.49" cy="158.09" r="3.85"/><circle class="cls-13" cx="218.66" cy="161.73" r="5.68"/></g></g><g id="_Group_" data-name="&lt;Group&gt;"><path class="cls-16" d="M196.74,183.89l3.81,15.41s-30,33.23-81.27,29.3l-2-.17c1.52-13.54,9.23-35.52,9.23-35.52S170.89,192.91,196.74,183.89Z"/><path class="cls-17" d="M196.74,183.89c-25.85,9-70.24,9-70.24,9a285,285,0,0,1-58.35-11.55S122.52,169.77,196.74,183.89Z"/><path class="cls-18" d="M126.5,192.91s-7.71,22-9.23,35.52c-49.64-4.39-61.71-28-61.71-28l12.59-19.09A285,285,0,0,0,126.5,192.91Z"/></g><path class="cls-19" d="M78.89,184.44S68.3,201.09,64.5,210.31"/><path class="cls-19" d="M83.81,185.69s-7.92,17.7-11.36,30.06"/><path class="cls-20" d="M68.15,181.36s54.37-11.59,128.59,2.53l3.81,15.41s-30,33.23-81.27,29.3l-2-.17c-49.64-4.39-61.71-28-61.71-28Z"/><path class="cls-20" d="M68.15,181.36a285,285,0,0,0,58.35,11.55s44.39,0,70.24-9"/><path class="cls-20" d="M126.5,192.91s-7.71,22-9.23,35.52c0,.17,0,.34,0,.5"/><g class="cls-21"><ellipse class="cls-16" cx="104.97" cy="201.16" rx="4.91" ry="3.99" transform="translate(-114.25 259.68) rotate(-77.39)"/><ellipse class="cls-16" cx="112.13" cy="208.87" rx="2.78" ry="2.21" transform="translate(-116.19 272.7) rotate(-77.39)"/><ellipse class="cls-16" cx="104.27" cy="210.89" rx="1.69" ry="1.44" transform="translate(-124.29 266.6) rotate(-77.39)"/><ellipse class="cls-16" cx="113.28" cy="199.55" rx="1" ry="0.85" transform="translate(-106.18 266.54) rotate(-77.39)"/></g><path class="cls-22" d="M106.12,58.75l-.4,0a9.39,9.39,0,0,0,.08-1.19,9,9,0,0,0-18,0,6.51,6.51,0,0,0,0,.77A7.41,7.41,0,1,0,84,72.08h22.17a6.67,6.67,0,0,0,0-13.33Z"/><path class="cls-22" d="M188.77,42.29V30.57H161a15,15,0,0,0,0,29.93h45.5V42.29Z"/></g><path class="cls-23" d="M184.15,184c0,3.3-21.52,4.44-49.13,4.31-32.73-.15-48.18-3.76-51.43-5.64-2.29-1.32,24.3-3,51.43-3S184.15,181.58,184.15,184Z"/><path class="cls-24" d="M168.6,156.56S181.85,101,137.31,98.28c-36.25-2.24-40.44,35.28-40,50.56.11,3.5.09,12.59-5.92,13.45S81.36,155,81.36,155s10.73-13.9-3.78-24.12c0,0-10.35,10.62-5,18.26,0,0-9.46-2.85-15.56,8.5,0,0,9.43,9.55,20.33,1.57,0,0,6.28,22.57,40.81,22.57S168.6,156.56,168.6,156.56Z"/><g class="cls-25"><path class="cls-26" d="M82.49,168s22.79,15.53,36-2.89C133.74,144,156.89,140,167,162.48c9.54,21.28-62.58,33.39-62.58,33.39L72.1,181.75Z"/><ellipse class="cls-27" cx="101.92" cy="122.65" rx="10.02" ry="3.86" transform="translate(-43.62 187.85) rotate(-74.41)"/><ellipse class="cls-27" cx="109.02" cy="126.88" rx="3.85" ry="1.87" transform="translate(-42.49 197.79) rotate(-74.41)"/><ellipse class="cls-27" cx="104.69" cy="135.17" rx="2.52" ry="1.32" transform="translate(-57.67 188.72) rotate(-70.49)"/></g><path class="cls-28" d="M168.6,156.56S181.78,102,137.31,98.28c-35.39-3-40.44,35.28-40,50.56.11,3.5.09,12.59-5.92,13.45S81.36,155,81.36,155s10.73-13.9-3.78-24.12c0,0-10.35,10.62-5,18.26,0,0-9.46-2.85-15.56,8.5,0,0,9.43,9.55,20.33,1.57,0,0,6.28,22.57,40.81,22.57S168.6,156.56,168.6,156.56Z"/><path class="cls-29" d="M148.92,103.65l4.16-38.71s-12.17,25-16.7,34.47c-1.55,3.33,5.32,6,5.32,6S148.44,107.67,148.92,103.65Z"/><path class="cls-30" d="M149,101.2c-1.34-.09-7.52-1.18-10.06-6.72"/><path class="cls-30" d="M150.27,91.17a12.4,12.4,0,0,1-7.37-5.11"/><path class="cls-30" d="M151.4,80.57A12.33,12.33,0,0,1,147,77.65"/><path class="cls-31" d="M148.92,103.65l4.16-38.71s-12.17,25-16.7,34.47"/><circle class="cls-32" cx="126.88" cy="127.54" r="3.34"/><circle class="cls-2" cx="125.61" cy="126.88" r="1.12"/><path class="cls-33" d="M128.74,127.32a.72.72,0,0,0-.84.57,1.15,1.15,0,0,1-.84.87.72.72,0,0,0,.31,1.4l.36-.11a2.5,2.5,0,0,0,1.57-1.89A.72.72,0,0,0,128.74,127.32Z"/><circle class="cls-32" cx="159.29" cy="128.01" r="3.34"/><circle class="cls-2" cx="158.01" cy="127.35" r="1.12"/><path class="cls-33" d="M161.14,127.79a.72.72,0,0,0-.84.57,1.13,1.13,0,0,1-.84.87.7.7,0,0,0-.54.85.71.71,0,0,0,.86.54,2.35,2.35,0,0,0,.35-.11,2.52,2.52,0,0,0,1.58-1.88A.72.72,0,0,0,161.14,127.79Z"/><path class="cls-28" d="M140.4,129s0,3.46,3.31,3.7c2.95.22,3.31-3.53,3.31-3.53"/><polygon class="cls-34" points="96.74 179.87 166.33 179.87 163.51 182.24 101.32 181.59 96.74 179.87"/><path class="cls-35" d="M195.69,145.12a2,2,0,0,1,1.86,2.65l-13,36.11-45.34,1L150.68,148a4.07,4.07,0,0,1,3.89-2.86h41.12Z"/><path class="cls-36" d="M151.2,145.12h3.37a4.07,4.07,0,0,0-3.89,2.86l-11.49,36.9-2.86-.33.78-2.52,10.68-34.4A3.56,3.56,0,0,1,151.2,145.12Z"/><path class="cls-36" d="M136.33,184.55,99.84,183a2.45,2.45,0,0,1-2.43-2.44l39.7,1.5Z"/><path class="cls-37" d="M137.11,182l10.68-34.4a3.56,3.56,0,0,1,3.41-2.51h3.37"/><path class="cls-37" d="M155.94,145.12h39.75a2,2,0,0,1,1.86,2.65l-13,36.11-45.34,1-2.86-.33"/><path class="cls-37" d="M139.12,185.1l.07-.22L150.68,148a4.07,4.07,0,0,1,3.89-2.86h1.37"/><path class="cls-37" d="M136.33,184.55,99.84,183a2.45,2.45,0,0,1-2.43-2.44l39.7,1.5Z"/><ellipse class="cls-2" cx="170.44" cy="165" rx="9.73" ry="8.16" transform="translate(-66.69 158.42) rotate(-42.48)"/><path class="cls-38" d="M171.85,157a9.94,9.94,0,0,0-9.44,8,6.52,6.52,0,0,0,6.62,8,9.94,9.94,0,0,0,9.44-8A6.56,6.56,0,0,0,171.85,157Zm5.65,8a8.85,8.85,0,0,1-8.35,7.09,5.74,5.74,0,0,1-5.8-7.09,8.84,8.84,0,0,1,8.34-7.1A5.82,5.82,0,0,1,177.5,165Z"/><path class="cls-38" d="M174.66,163.13l.33-.48,1-1.26-2,1.05s-.09,0-.13.09a.58.58,0,0,0-.14.77.29.29,0,0,0,.22.12.66.66,0,0,0,.55-.12.65.65,0,0,0,.15-.17Z"/><path class="cls-38" d="M174.29,163.86a.86.86,0,0,1-.33,0,.74.74,0,0,1-.74-.89,1,1,0,0,1,.09-.28,2.07,2.07,0,0,0-1.39-.37c-2.76,0-3.43,1.3-3.72,2.92a2.21,2.21,0,0,1-.41,1.18,1.33,1.33,0,0,1-1.11.57c-.16,0-.76-.09-.76-.29H166a1.48,1.48,0,0,0,1.39-1.21v-.09l0-.24h-.57a1.52,1.52,0,0,0-1.11.53,1.06,1.06,0,0,0-1-.49h-.56l-.05.24a1,1,0,0,0,1,1.26h.2c-.07.41.21,2,4.39,2,1.62,0,4.1-.29,4.64-3.37A2.67,2.67,0,0,0,174.29,163.86Z"/><path class="cls-24" d="M117.27,153.62s10.53,6.24,18,26.91c0,0-24,5.16-24.61-22.06"/><path class="cls-39" d="M117.51,153.23a32.08,32.08,0,0,1,6.21,5.57,55.44,55.44,0,0,1,5,6.63,70.07,70.07,0,0,1,4.06,7.23c.61,1.23,1.15,2.51,1.73,3.76l1.54,3.85,0,.11a.65.65,0,0,1-.36.85.69.69,0,0,1-.24.05h0a26.26,26.26,0,0,1-9.92-.2,18.41,18.41,0,0,1-8.82-4.49,19.18,19.18,0,0,1-5.11-8.42,33.31,33.31,0,0,1-1.44-9.69.52.52,0,0,1,1,0,32.71,32.71,0,0,0,1.5,9.35,17.89,17.89,0,0,0,4.89,7.84,17.21,17.21,0,0,0,8.25,4.06,24.82,24.82,0,0,0,9.29.07h0l-.56,1L133.14,177c-.54-1.24-1-2.5-1.63-3.73a69.48,69.48,0,0,0-3.84-7.17,55,55,0,0,0-4.75-6.58A30.8,30.8,0,0,0,117,154l0,0a.45.45,0,1,1,.51-.75Z"/><polygon class="cls-40" points="140.18 213.91 138.65 211.06 137.86 211.18 137.18 214.32 135.67 211.49 134.78 211.62 136.85 215.45 137.76 215.32 138.42 212.38 139.87 215.02 140.78 214.89 141.69 210.62 140.84 210.75 140.18 213.91"/><path class="cls-40" d="M146.29,211.71a2.21,2.21,0,0,0-.49-1,1.87,1.87,0,0,0-.88-.58,2.14,2.14,0,0,0-1.1,0,2,2,0,0,0-1,.49,1.89,1.89,0,0,0-.59.88,2.18,2.18,0,0,0,0,1.11,2.11,2.11,0,0,0,.5,1,1.88,1.88,0,0,0,.93.57,2.51,2.51,0,0,0,1.22,0,2.45,2.45,0,0,0,.89-.36,1.74,1.74,0,0,0,.58-.63l-.62-.47a1.55,1.55,0,0,1-1,.67,1.49,1.49,0,0,1-.92-.08,1.09,1.09,0,0,1-.58-.61l3.14-.67C146.32,211.87,146.3,211.78,146.29,211.71Zm-3.24.33a1.14,1.14,0,0,1,.23-.79,1.13,1.13,0,0,1,.7-.42,1.17,1.17,0,0,1,.83.1,1.15,1.15,0,0,1,.51.63Z"/><path class="cls-40" d="M150.83,209.34a1.94,1.94,0,0,0-.91-.52,2.29,2.29,0,0,0-1.1,0,1.83,1.83,0,0,0-.67.33,1.67,1.67,0,0,0-.45.54l-.55-2-.93.25,1.5,5.48.88-.24-.14-.51a1.44,1.44,0,0,0,.68.27,2.09,2.09,0,0,0,.78-.06,2.25,2.25,0,0,0,1-.54,1.83,1.83,0,0,0,.51-.91,2.18,2.18,0,0,0,0-1.13A2.23,2.23,0,0,0,150.83,209.34Zm-.48,2.22a1.15,1.15,0,0,1-.75.57,1.23,1.23,0,0,1-.63,0,1.15,1.15,0,0,1-.54-.32,1.35,1.35,0,0,1-.34-.61,1.48,1.48,0,0,1,0-.69,1.1,1.1,0,0,1,.3-.55,1.23,1.23,0,0,1,.56-.31,1.11,1.11,0,0,1,.93.11,1.29,1.29,0,0,1,.58.8A1.26,1.26,0,0,1,150.35,211.56Z"/><path class="cls-40" d="M155.11,207.35a1.67,1.67,0,0,0-1.32,0,2.07,2.07,0,0,0-.69.37,1.56,1.56,0,0,0-.44.56l-.66-2-.91.31,1.83,5.38.9-.31-.66-2a1.22,1.22,0,0,1,0-1,1.06,1.06,0,0,1,.69-.57,1,1,0,0,1,.77,0,1.17,1.17,0,0,1,.49.69l.72,2.1.9-.3-.75-2.22A1.75,1.75,0,0,0,155.11,207.35Z"/><path class="cls-40" d="M156.22,205.59a.64.64,0,0,0,.47,0,.62.62,0,0,0,.35-.32.61.61,0,0,0,0-.46.49.49,0,0,0-.31-.3.64.64,0,0,0-.47,0,.58.58,0,0,0-.34.31.56.56,0,0,0,.29.76Z"/><rect class="cls-40" x="157.19" y="206.08" width="0.96" height="4.09" transform="translate(-64.43 70.84) rotate(-21.13)"/><path class="cls-40" d="M161.92,204.57a1.75,1.75,0,0,0-1.32.08,2.19,2.19,0,0,0-.69.46,1.46,1.46,0,0,0-.37.63l-.22-.48-.83.36,1.63,3.75L161,209l-.83-1.9a1.31,1.31,0,0,1-.08-1,1.09,1.09,0,0,1,.64-.62.91.91,0,0,1,.77,0,1.15,1.15,0,0,1,.55.64l.89,2,.88-.38-.94-2.15A1.8,1.8,0,0,0,161.92,204.57Z"/><path class="cls-40" d="M166.17,205.78a.53.53,0,0,1-.45.05.64.64,0,0,1-.33-.34l-.86-1.75,1-.48-.34-.69-1,.49-.42-.84-.86.42.42.84-.61.3.34.69.61-.3.87,1.76a1.36,1.36,0,0,0,.79.76,1.46,1.46,0,0,0,1.09-.15,1.57,1.57,0,0,0,.42-.29,1,1,0,0,0,.28-.36l-.55-.49A.78.78,0,0,1,166.17,205.78Z"/><path class="cls-40" d="M168.21,204.37a.56.56,0,0,0-.47.06.6.6,0,0,0-.32.36.61.61,0,0,0,.06.49.63.63,0,1,0,1.11-.59A.63.63,0,0,0,168.21,204.37Z"/><rect class="cls-40" x="168.66" y="200.67" width="0.96" height="4.09" transform="translate(-77.66 108.96) rotate(-29.36)"/><path class="cls-40" d="M167.81,200.34a.58.58,0,0,0,.3-.36.54.54,0,0,0-.06-.46.5.5,0,0,0-.34-.26.68.68,0,0,0-.76.44.53.53,0,0,0,.05.44.56.56,0,0,0,.35.27A.58.58,0,0,0,167.81,200.34Z"/><path class="cls-40" d="M174.08,199.75a2.1,2.1,0,0,0-.8-.77,2,2,0,0,0-1.05-.23,2.4,2.4,0,0,0-1.1.37,2.33,2.33,0,0,0-.81.81,2,2,0,0,0-.27,1,2,2,0,0,0,.32,1.07,2.2,2.2,0,0,0,.81.77,1.94,1.94,0,0,0,1.06.23,2.27,2.27,0,0,0,1.09-.36,2.38,2.38,0,0,0,.82-.82,2,2,0,0,0,.26-1A2,2,0,0,0,174.08,199.75Zm-.63,1.48a1.17,1.17,0,0,1-.55.76,1.19,1.19,0,0,1-.93.15,1.26,1.26,0,0,1-.77-.61,1.24,1.24,0,0,1-.2-1,1.25,1.25,0,0,1,1.48-.91,1.26,1.26,0,0,1,.78.61A1.23,1.23,0,0,1,173.45,201.23Z"/></svg>